%TF.GenerationSoftware,KiCad,Pcbnew,9.0.5-1.fc42*%
%TF.CreationDate,2025-11-19T14:29:42-05:00*%
%TF.ProjectId,fiber_control_board,66696265-725f-4636-9f6e-74726f6c5f62,rev?*%
%TF.SameCoordinates,Original*%
%TF.FileFunction,Copper,L1,Top*%
%TF.FilePolarity,Positive*%
%FSLAX46Y46*%
G04 Gerber Fmt 4.6, Leading zero omitted, Abs format (unit mm)*
G04 Created by KiCad (PCBNEW 9.0.5-1.fc42) date 2025-11-19 14:29:42*
%MOMM*%
%LPD*%
G01*
G04 APERTURE LIST*
G04 Aperture macros list*
%AMRoundRect*
0 Rectangle with rounded corners*
0 $1 Rounding radius*
0 $2 $3 $4 $5 $6 $7 $8 $9 X,Y pos of 4 corners*
0 Add a 4 corners polygon primitive as box body*
4,1,4,$2,$3,$4,$5,$6,$7,$8,$9,$2,$3,0*
0 Add four circle primitives for the rounded corners*
1,1,$1+$1,$2,$3*
1,1,$1+$1,$4,$5*
1,1,$1+$1,$6,$7*
1,1,$1+$1,$8,$9*
0 Add four rect primitives between the rounded corners*
20,1,$1+$1,$2,$3,$4,$5,0*
20,1,$1+$1,$4,$5,$6,$7,0*
20,1,$1+$1,$6,$7,$8,$9,0*
20,1,$1+$1,$8,$9,$2,$3,0*%
G04 Aperture macros list end*
%TA.AperFunction,ComponentPad*%
%ADD10C,2.250000*%
%TD*%
%TA.AperFunction,SMDPad,CuDef*%
%ADD11RoundRect,0.250000X-0.475000X0.337500X-0.475000X-0.337500X0.475000X-0.337500X0.475000X0.337500X0*%
%TD*%
%TA.AperFunction,SMDPad,CuDef*%
%ADD12RoundRect,0.250000X-0.350000X-0.450000X0.350000X-0.450000X0.350000X0.450000X-0.350000X0.450000X0*%
%TD*%
%TA.AperFunction,SMDPad,CuDef*%
%ADD13RoundRect,0.250000X-0.450000X0.325000X-0.450000X-0.325000X0.450000X-0.325000X0.450000X0.325000X0*%
%TD*%
%TA.AperFunction,ComponentPad*%
%ADD14O,1.500000X2.600000*%
%TD*%
%TA.AperFunction,SMDPad,CuDef*%
%ADD15RoundRect,0.250000X0.475000X-0.337500X0.475000X0.337500X-0.475000X0.337500X-0.475000X-0.337500X0*%
%TD*%
%TA.AperFunction,ComponentPad*%
%ADD16O,2.600000X1.500000*%
%TD*%
%TA.AperFunction,SMDPad,CuDef*%
%ADD17RoundRect,0.250000X-0.325000X-0.450000X0.325000X-0.450000X0.325000X0.450000X-0.325000X0.450000X0*%
%TD*%
%TA.AperFunction,ComponentPad*%
%ADD18R,2.000000X1.905000*%
%TD*%
%TA.AperFunction,ComponentPad*%
%ADD19O,2.000000X1.905000*%
%TD*%
%TA.AperFunction,SMDPad,CuDef*%
%ADD20RoundRect,0.250000X0.325000X0.450000X-0.325000X0.450000X-0.325000X-0.450000X0.325000X-0.450000X0*%
%TD*%
%TA.AperFunction,ComponentPad*%
%ADD21O,1.574800X3.505200*%
%TD*%
%TA.AperFunction,ComponentPad*%
%ADD22O,3.505200X1.574800*%
%TD*%
%TA.AperFunction,SMDPad,CuDef*%
%ADD23RoundRect,0.250000X0.337500X0.475000X-0.337500X0.475000X-0.337500X-0.475000X0.337500X-0.475000X0*%
%TD*%
%TA.AperFunction,ComponentPad*%
%ADD24C,1.397000*%
%TD*%
%TA.AperFunction,SMDPad,CuDef*%
%ADD25RoundRect,0.250000X-0.337500X-0.475000X0.337500X-0.475000X0.337500X0.475000X-0.337500X0.475000X0*%
%TD*%
%TA.AperFunction,SMDPad,CuDef*%
%ADD26R,0.558800X1.981200*%
%TD*%
%TA.AperFunction,ViaPad*%
%ADD27C,0.800000*%
%TD*%
%TA.AperFunction,ViaPad*%
%ADD28C,0.560000*%
%TD*%
%TA.AperFunction,Conductor*%
%ADD29C,0.500000*%
%TD*%
%TA.AperFunction,Conductor*%
%ADD30C,1.000000*%
%TD*%
%TA.AperFunction,Conductor*%
%ADD31C,0.200000*%
%TD*%
G04 APERTURE END LIST*
D10*
%TO.P,SW4,1,A*%
%TO.N,+5V*%
X154000000Y-70000000D03*
%TO.P,SW4,2,B*%
%TO.N,Net-(J8-Data_in)*%
X157000000Y-70000000D03*
%TO.P,SW4,3,C*%
%TO.N,GND*%
X160000000Y-70000000D03*
%TD*%
%TO.P,SW3,1,A*%
%TO.N,Net-(J5-In)*%
X81951121Y-152595000D03*
%TO.P,SW3,2,B*%
%TO.N,/Clock/Clk_LED*%
X81951121Y-149595000D03*
%TO.P,SW3,3,C*%
%TO.N,Net-(J7-Data_Out)*%
X81951121Y-146595000D03*
%TO.P,SW3,4,A*%
%TO.N,/Clock/Clk_BNC_LED*%
X81939236Y-142613889D03*
%TO.P,SW3,5,B*%
%TO.N,+5V*%
X81939236Y-139613889D03*
%TO.P,SW3,6,C*%
%TO.N,/Clock/Clk_Opt_LED*%
X81939236Y-136613889D03*
%TD*%
D11*
%TO.P,C4,1*%
%TO.N,Net-(J3-VCCR)*%
X68705000Y-71462500D03*
%TO.P,C4,2*%
%TO.N,GND*%
X68705000Y-73537500D03*
%TD*%
D12*
%TO.P,R7,1*%
%TO.N,Net-(J8-Data_in)*%
X157000000Y-65000000D03*
%TO.P,R7,2*%
%TO.N,GND*%
X159000000Y-65000000D03*
%TD*%
D13*
%TO.P,L2,1*%
%TO.N,Net-(J4-VCCT)*%
X130300000Y-58975000D03*
%TO.P,L2,2*%
%TO.N,+5V*%
X130300000Y-61025000D03*
%TD*%
D10*
%TO.P,D5,1,K*%
%TO.N,GND*%
X112992802Y-131977520D03*
%TO.P,D5,2,A*%
%TO.N,Net-(D5-A)*%
X109992802Y-131977520D03*
%TD*%
D13*
%TO.P,L5,1*%
%TO.N,Net-(J8-VCCT)*%
X150700000Y-58975000D03*
%TO.P,L5,2*%
%TO.N,+5V*%
X150700000Y-61025000D03*
%TD*%
D10*
%TO.P,D9,1,K*%
%TO.N,GND*%
X112992802Y-93977520D03*
%TO.P,D9,2,A*%
%TO.N,Net-(D9-A)*%
X109992802Y-93977520D03*
%TD*%
D11*
%TO.P,C12,1*%
%TO.N,Net-(J7-VCCR)*%
X68705000Y-131557500D03*
%TO.P,C12,2*%
%TO.N,GND*%
X68705000Y-133632500D03*
%TD*%
D14*
%TO.P,J6,1,VCCT*%
%TO.N,Net-(J6-VCCT)*%
X138190000Y-49700000D03*
%TO.P,J6,2,NC*%
%TO.N,unconnected-(J6-NC-Pad2)*%
X140730000Y-49700000D03*
%TO.P,J6,3,VEET*%
%TO.N,GND*%
X143270000Y-49700000D03*
%TO.P,J6,4,Data_in*%
%TO.N,/Clock/Clk_LED*%
X145810000Y-49700000D03*
%TO.P,J6,5,HP*%
%TO.N,GND*%
X145810000Y-42000000D03*
%TO.P,J6,8,HP*%
X138190000Y-42000000D03*
%TD*%
D15*
%TO.P,C2,1*%
%TO.N,+5V*%
X91751665Y-62042494D03*
%TO.P,C2,2*%
%TO.N,GND*%
X91751665Y-59967494D03*
%TD*%
D16*
%TO.P,J3,1,Data_Out*%
%TO.N,Net-(J3-Data_Out)*%
X61405000Y-76310000D03*
%TO.P,J3,2,VEER*%
%TO.N,GND*%
X61405000Y-73770000D03*
%TO.P,J3,3,VCCR*%
%TO.N,Net-(J3-VCCR)*%
X61405000Y-71230000D03*
%TO.P,J3,4,NC*%
%TO.N,unconnected-(J3-NC-Pad4)*%
X61405000Y-68690000D03*
%TO.P,J3,5,HP*%
%TO.N,GND*%
X53705000Y-68690000D03*
%TO.P,J3,8,HP*%
X53705000Y-76310000D03*
%TD*%
D17*
%TO.P,L4,1*%
%TO.N,Net-(J7-VCCR)*%
X70680000Y-131095000D03*
%TO.P,L4,2*%
%TO.N,+5V*%
X72730000Y-131095000D03*
%TD*%
D18*
%TO.P,U2,1,VI*%
%TO.N,Net-(D1-K)*%
X94832802Y-55960000D03*
D19*
%TO.P,U2,2,GND*%
%TO.N,GND*%
X94832802Y-58500000D03*
%TO.P,U2,3,VO*%
%TO.N,+5V*%
X94832802Y-61040000D03*
%TD*%
D10*
%TO.P,D2,1,K*%
%TO.N,GND*%
X112996401Y-122988760D03*
%TO.P,D2,2,A*%
%TO.N,Net-(D2-A)*%
X109996401Y-122988760D03*
%TD*%
D13*
%TO.P,L3,1*%
%TO.N,Net-(J6-VCCT)*%
X140500000Y-58975000D03*
%TO.P,L3,2*%
%TO.N,+5V*%
X140500000Y-61025000D03*
%TD*%
D10*
%TO.P,D8,1,K*%
%TO.N,GND*%
X112992802Y-98477520D03*
%TO.P,D8,2,A*%
%TO.N,Net-(D8-A)*%
X109992802Y-98477520D03*
%TD*%
D20*
%TO.P,D1,1,K*%
%TO.N,Net-(D1-K)*%
X69385590Y-54966600D03*
%TO.P,D1,2,A*%
%TO.N,Net-(D1-A)*%
X67335590Y-54966600D03*
%TD*%
D15*
%TO.P,C17,1*%
%TO.N,+5V*%
X153700000Y-61037500D03*
%TO.P,C17,2*%
%TO.N,GND*%
X153700000Y-58962500D03*
%TD*%
D21*
%TO.P,J1,1*%
%TO.N,Net-(D1-A)*%
X63360590Y-54966600D03*
D22*
%TO.P,J1,2*%
%TO.N,unconnected-(J1-Pad2)*%
X60235588Y-59766601D03*
D21*
%TO.P,J1,3*%
%TO.N,GND*%
X57110590Y-54966600D03*
%TD*%
D10*
%TO.P,SW1,1,A*%
%TO.N,Net-(J2-In)*%
X81697594Y-92501556D03*
%TO.P,SW1,2,B*%
%TO.N,/Trigger/Trigger Input*%
X81697594Y-89501556D03*
%TO.P,SW1,3,C*%
%TO.N,Net-(J3-Data_Out)*%
X81697594Y-86501556D03*
%TO.P,SW1,4,A*%
%TO.N,/LEDs/Trig_BNC_LED*%
X81685709Y-82520445D03*
%TO.P,SW1,5,B*%
%TO.N,+5V*%
X81685709Y-79520445D03*
%TO.P,SW1,6,C*%
%TO.N,/LEDs/Trig_Opt_LED*%
X81685709Y-76520445D03*
%TD*%
D23*
%TO.P,C14,1*%
%TO.N,+5V*%
X72742500Y-134095000D03*
%TO.P,C14,2*%
%TO.N,GND*%
X70667500Y-134095000D03*
%TD*%
D11*
%TO.P,C1,1*%
%TO.N,Net-(D1-K)*%
X91751665Y-54981431D03*
%TO.P,C1,2*%
%TO.N,GND*%
X91751665Y-57056431D03*
%TD*%
D24*
%TO.P,J2,1,In*%
%TO.N,Net-(J2-In)*%
X66785000Y-101770000D03*
%TO.P,J2,2,Ext*%
%TO.N,GND*%
X66785000Y-99230000D03*
%TD*%
D25*
%TO.P,C15,1*%
%TO.N,Net-(J8-VCCT)*%
X151162500Y-55000000D03*
%TO.P,C15,2*%
%TO.N,GND*%
X153237500Y-55000000D03*
%TD*%
D11*
%TO.P,C3,1*%
%TO.N,Net-(J3-VCCR)*%
X66705000Y-71462500D03*
%TO.P,C3,2*%
%TO.N,GND*%
X66705000Y-73537500D03*
%TD*%
%TO.P,C10,1*%
%TO.N,Net-(J7-VCCR)*%
X66705000Y-131557500D03*
%TO.P,C10,2*%
%TO.N,GND*%
X66705000Y-133632500D03*
%TD*%
D26*
%TO.P,U1,1,1~OE*%
%TO.N,GND*%
X113215000Y-108313700D03*
%TO.P,U1,2,1A1*%
%TO.N,+5V*%
X111945000Y-108313700D03*
%TO.P,U1,3,2Y4*%
%TO.N,Net-(U1-2Y4)*%
X110675000Y-108313700D03*
%TO.P,U1,4,1A2*%
%TO.N,/LEDs/Trig_BNC_LED*%
X109405000Y-108313700D03*
%TO.P,U1,5,2Y3*%
%TO.N,Net-(D7-A)*%
X108135000Y-108313700D03*
%TO.P,U1,6,1A3*%
%TO.N,/LEDs/Trig_Opt_LED*%
X106865000Y-108313700D03*
%TO.P,U1,7,2Y2*%
%TO.N,Net-(D8-A)*%
X105595000Y-108313700D03*
%TO.P,U1,8,1A4*%
%TO.N,/LEDs/Trig_LED*%
X104325000Y-108313700D03*
%TO.P,U1,9,2Y1*%
%TO.N,Net-(D9-A)*%
X103055000Y-108313700D03*
%TO.P,U1,10,GND*%
%TO.N,GND*%
X101785000Y-108313700D03*
%TO.P,U1,11,2A1*%
%TO.N,/Clock/Clk_BNC_LED*%
X101785000Y-117686300D03*
%TO.P,U1,12,1Y4*%
%TO.N,Net-(D4-A)*%
X103055000Y-117686300D03*
%TO.P,U1,13,2A2*%
%TO.N,/Clock/Clk_Opt_LED*%
X104325000Y-117686300D03*
%TO.P,U1,14,1Y3*%
%TO.N,Net-(D5-A)*%
X105595000Y-117686300D03*
%TO.P,U1,15,2A3*%
%TO.N,/Clock/Clk_LED*%
X106865000Y-117686300D03*
%TO.P,U1,16,1Y2*%
%TO.N,Net-(D3-A)*%
X108135000Y-117686300D03*
%TO.P,U1,17,2A4*%
%TO.N,Net-(U1-2A4)*%
X109405000Y-117686300D03*
%TO.P,U1,18,1Y1*%
%TO.N,Net-(D2-A)*%
X110675000Y-117686300D03*
%TO.P,U1,19,2~OE*%
%TO.N,GND*%
X111945000Y-117686300D03*
%TO.P,U1,20,VCC*%
%TO.N,+5V*%
X113215000Y-117686300D03*
%TD*%
D16*
%TO.P,J7,1,Data_Out*%
%TO.N,Net-(J7-Data_Out)*%
X61405000Y-136405000D03*
%TO.P,J7,2,VEER*%
%TO.N,GND*%
X61405000Y-133865000D03*
%TO.P,J7,3,VCCR*%
%TO.N,Net-(J7-VCCR)*%
X61405000Y-131325000D03*
%TO.P,J7,4,NC*%
%TO.N,unconnected-(J7-NC-Pad4)*%
X61405000Y-128785000D03*
%TO.P,J7,5,HP*%
%TO.N,GND*%
X53705000Y-128785000D03*
%TO.P,J7,8,HP*%
X53705000Y-136405000D03*
%TD*%
D10*
%TO.P,D7,1,K*%
%TO.N,GND*%
X112996401Y-102988760D03*
%TO.P,D7,2,A*%
%TO.N,Net-(D7-A)*%
X109996401Y-102988760D03*
%TD*%
D25*
%TO.P,C6,1*%
%TO.N,Net-(J4-VCCT)*%
X130762500Y-55000000D03*
%TO.P,C6,2*%
%TO.N,GND*%
X132837500Y-55000000D03*
%TD*%
%TO.P,C16,1*%
%TO.N,Net-(J8-VCCT)*%
X151162500Y-57000000D03*
%TO.P,C16,2*%
%TO.N,GND*%
X153237500Y-57000000D03*
%TD*%
D15*
%TO.P,C8,1*%
%TO.N,+5V*%
X133300000Y-61037500D03*
%TO.P,C8,2*%
%TO.N,GND*%
X133300000Y-58962500D03*
%TD*%
D10*
%TO.P,SW2,1,A*%
%TO.N,/Trigger/Trigger Input*%
X92483959Y-88000000D03*
%TO.P,SW2,2,B*%
%TO.N,/LEDs/Trig_LED*%
X92483959Y-85000000D03*
%TO.P,SW2,3,C*%
%TO.N,+5V*%
X92483959Y-82000000D03*
%TD*%
D14*
%TO.P,J8,1,VCCT*%
%TO.N,Net-(J8-VCCT)*%
X148390000Y-49700000D03*
%TO.P,J8,2,NC*%
%TO.N,unconnected-(J8-NC-Pad2)*%
X150930000Y-49700000D03*
%TO.P,J8,3,VEET*%
%TO.N,GND*%
X153470000Y-49700000D03*
%TO.P,J8,4,Data_in*%
%TO.N,Net-(J8-Data_in)*%
X156010000Y-49700000D03*
%TO.P,J8,5,HP*%
%TO.N,GND*%
X156010000Y-42000000D03*
%TO.P,J8,8,HP*%
X148390000Y-42000000D03*
%TD*%
D25*
%TO.P,C9,1*%
%TO.N,Net-(J6-VCCT)*%
X140962500Y-55000000D03*
%TO.P,C9,2*%
%TO.N,GND*%
X143037500Y-55000000D03*
%TD*%
%TO.P,C7,1*%
%TO.N,Net-(J4-VCCT)*%
X130762500Y-57000000D03*
%TO.P,C7,2*%
%TO.N,GND*%
X132837500Y-57000000D03*
%TD*%
D14*
%TO.P,J4,1,VCCT*%
%TO.N,Net-(J4-VCCT)*%
X127990000Y-49700000D03*
%TO.P,J4,2,NC*%
%TO.N,unconnected-(J4-NC-Pad2)*%
X130530000Y-49700000D03*
%TO.P,J4,3,VEET*%
%TO.N,GND*%
X133070000Y-49700000D03*
%TO.P,J4,4,Data_in*%
%TO.N,/LEDs/Trig_LED*%
X135610000Y-49700000D03*
%TO.P,J4,5,HP*%
%TO.N,GND*%
X135610000Y-42000000D03*
%TO.P,J4,8,HP*%
X127990000Y-42000000D03*
%TD*%
D24*
%TO.P,J5,1,In*%
%TO.N,Net-(J5-In)*%
X66785000Y-161865000D03*
%TO.P,J5,2,Ext*%
%TO.N,GND*%
X66785000Y-159325000D03*
%TD*%
D25*
%TO.P,C11,1*%
%TO.N,Net-(J6-VCCT)*%
X140962500Y-57000000D03*
%TO.P,C11,2*%
%TO.N,GND*%
X143037500Y-57000000D03*
%TD*%
D23*
%TO.P,C5,1*%
%TO.N,+5V*%
X72742500Y-74000000D03*
%TO.P,C5,2*%
%TO.N,GND*%
X70667500Y-74000000D03*
%TD*%
D10*
%TO.P,D3,1,K*%
%TO.N,GND*%
X112992802Y-127477520D03*
%TO.P,D3,2,A*%
%TO.N,Net-(D3-A)*%
X109992802Y-127477520D03*
%TD*%
%TO.P,D4,1,K*%
%TO.N,GND*%
X112992802Y-136477520D03*
%TO.P,D4,2,A*%
%TO.N,Net-(D4-A)*%
X109992802Y-136477520D03*
%TD*%
D17*
%TO.P,L1,1*%
%TO.N,Net-(J3-VCCR)*%
X70680000Y-71000000D03*
%TO.P,L1,2*%
%TO.N,+5V*%
X72730000Y-71000000D03*
%TD*%
D15*
%TO.P,C13,1*%
%TO.N,+5V*%
X143500000Y-61037500D03*
%TO.P,C13,2*%
%TO.N,GND*%
X143500000Y-58962500D03*
%TD*%
D27*
%TO.N,GND*%
X101785000Y-106313700D03*
D28*
%TO.N,/Clock/Clk_LED*%
X145810000Y-67810000D03*
X106865000Y-126635000D03*
X106865000Y-119686300D03*
X116500000Y-115500000D03*
X102000000Y-131500000D03*
%TO.N,/Clock/Clk_BNC_LED*%
X101785000Y-119686300D03*
%TO.N,/Clock/Clk_Opt_LED*%
X104325000Y-119686300D03*
X96000000Y-125000000D03*
X104325000Y-125000000D03*
%TO.N,Net-(U1-2A4)*%
X109405000Y-119686300D03*
%TO.N,Net-(U1-2Y4)*%
X111945000Y-106313700D03*
%TO.N,/LEDs/Trig_BNC_LED*%
X109405000Y-106313700D03*
%TO.N,/LEDs/Trig_LED*%
X135610000Y-67890000D03*
X107000000Y-93000000D03*
X107000000Y-99000000D03*
X104325000Y-106313700D03*
%TO.N,/LEDs/Trig_Opt_LED*%
X106865000Y-103635000D03*
X106865000Y-106313700D03*
%TD*%
D29*
%TO.N,GND*%
X133300000Y-58962500D02*
X133300000Y-57462500D01*
X66705000Y-73537500D02*
X68705000Y-73537500D01*
D30*
X91751665Y-58500000D02*
X91751665Y-59967494D01*
D29*
X113003599Y-103011240D02*
X113215000Y-103222641D01*
X143037500Y-57000000D02*
X143500000Y-57462500D01*
X160000000Y-66000000D02*
X160000000Y-70000000D01*
X153237500Y-55000000D02*
X153237500Y-57000000D01*
X66705000Y-133632500D02*
X68705000Y-133632500D01*
X153237500Y-57000000D02*
X153700000Y-57462500D01*
X69167500Y-74000000D02*
X70667500Y-74000000D01*
X133070000Y-49700000D02*
X133070000Y-54767500D01*
X143270000Y-49700000D02*
X143270000Y-54767500D01*
X66472500Y-133865000D02*
X66705000Y-133632500D01*
X101785000Y-108313700D02*
X101785000Y-106313700D01*
D30*
X91751665Y-57056431D02*
X91751665Y-58500000D01*
D29*
X113003599Y-123011240D02*
X111945000Y-121952641D01*
X111945000Y-121952641D02*
X111945000Y-117686300D01*
X66705000Y-73537500D02*
X66472500Y-73770000D01*
X132837500Y-57000000D02*
X132837500Y-55000000D01*
X143270000Y-54767500D02*
X143037500Y-55000000D01*
X153237500Y-55000000D02*
X153470000Y-54767500D01*
D30*
X91751665Y-58500000D02*
X94832802Y-58500000D01*
D29*
X143037500Y-55000000D02*
X143037500Y-57000000D01*
X133300000Y-57462500D02*
X132837500Y-57000000D01*
X153700000Y-57462500D02*
X153700000Y-58962500D01*
X153470000Y-54767500D02*
X153470000Y-49700000D01*
X68705000Y-73537500D02*
X69167500Y-74000000D01*
X143500000Y-57462500D02*
X143500000Y-58962500D01*
X133070000Y-54767500D02*
X132837500Y-55000000D01*
X61405000Y-133865000D02*
X66472500Y-133865000D01*
X69167500Y-134095000D02*
X70667500Y-134095000D01*
X66472500Y-73770000D02*
X61405000Y-73770000D01*
X159000000Y-65000000D02*
X160000000Y-66000000D01*
X68705000Y-133632500D02*
X69167500Y-134095000D01*
X113215000Y-103222641D02*
X113215000Y-108313700D01*
D30*
%TO.N,Net-(D1-K)*%
X69385590Y-54966600D02*
X72852190Y-51500000D01*
X72852190Y-51500000D02*
X88270234Y-51500000D01*
X88270234Y-51500000D02*
X91751665Y-54981431D01*
X93854233Y-54981431D02*
X94832802Y-55960000D01*
X91751665Y-54981431D02*
X93854233Y-54981431D01*
%TO.N,+5V*%
X98000000Y-77500000D02*
X98000000Y-90000000D01*
D29*
X72730000Y-131095000D02*
X72730000Y-134082500D01*
X133962500Y-61037500D02*
X133975000Y-61025000D01*
D30*
X86250000Y-101750000D02*
X96945000Y-112445000D01*
D29*
X143487500Y-61025000D02*
X143500000Y-61037500D01*
X72730000Y-73987500D02*
X72742500Y-74000000D01*
X90004404Y-79520445D02*
X92483959Y-82000000D01*
D30*
X93250000Y-76250000D02*
X94500000Y-77500000D01*
D29*
X81685709Y-79520445D02*
X90004404Y-79520445D01*
D30*
X130300000Y-61025000D02*
X153687500Y-61025000D01*
X93830308Y-62042494D02*
X94832802Y-61040000D01*
D29*
X81939236Y-139613889D02*
X78261389Y-139613889D01*
X72730000Y-71000000D02*
X72730000Y-73987500D01*
X133300000Y-61037500D02*
X133962500Y-61037500D01*
D30*
X98000000Y-90000000D02*
X86250000Y-101750000D01*
X96945000Y-112445000D02*
X111945000Y-112445000D01*
X91751665Y-62042494D02*
X93830308Y-62042494D01*
X153687500Y-61025000D02*
X153700000Y-61037500D01*
X130300000Y-68200000D02*
X130300000Y-61025000D01*
D29*
X113215000Y-117686300D02*
X113215000Y-113715000D01*
D30*
X94500000Y-77500000D02*
X101500000Y-77500000D01*
X121000000Y-77500000D02*
X130300000Y-68200000D01*
X86250000Y-101750000D02*
X72730000Y-115270000D01*
D29*
X111945000Y-112445000D02*
X111945000Y-108313700D01*
D30*
X72730000Y-115270000D02*
X72730000Y-131095000D01*
X153700000Y-69700000D02*
X154000000Y-70000000D01*
X91751665Y-74751665D02*
X93250000Y-76250000D01*
D29*
X72742500Y-74000000D02*
X78262945Y-79520445D01*
X78262945Y-79520445D02*
X81685709Y-79520445D01*
X72730000Y-134082500D02*
X72742500Y-134095000D01*
X78261389Y-139613889D02*
X72742500Y-134095000D01*
D30*
X153700000Y-61037500D02*
X153700000Y-69700000D01*
D29*
X133287500Y-61025000D02*
X133300000Y-61037500D01*
D30*
X93250000Y-76250000D02*
X93250000Y-76274849D01*
X93250000Y-76274849D02*
X90004404Y-79520445D01*
D29*
X113215000Y-113715000D02*
X111945000Y-112445000D01*
D30*
X101500000Y-77500000D02*
X121000000Y-77500000D01*
X91751665Y-62042494D02*
X91751665Y-74751665D01*
D29*
%TO.N,Net-(J3-VCCR)*%
X66472500Y-71230000D02*
X66705000Y-71462500D01*
X61405000Y-71230000D02*
X66472500Y-71230000D01*
X68705000Y-71462500D02*
X69167500Y-71000000D01*
X66705000Y-71462500D02*
X68705000Y-71462500D01*
X69167500Y-71000000D02*
X70680000Y-71000000D01*
%TO.N,Net-(J4-VCCT)*%
X130300000Y-57462500D02*
X130762500Y-57000000D01*
X127990000Y-52227500D02*
X130762500Y-55000000D01*
X130762500Y-57000000D02*
X130762500Y-55000000D01*
X130300000Y-58975000D02*
X130300000Y-57462500D01*
X127990000Y-49700000D02*
X127990000Y-52227500D01*
%TO.N,Net-(J6-VCCT)*%
X138190000Y-49700000D02*
X138190000Y-52227500D01*
X140962500Y-55000000D02*
X140962500Y-57000000D01*
X140500000Y-57462500D02*
X140500000Y-58975000D01*
X138190000Y-52227500D02*
X140962500Y-55000000D01*
X140962500Y-57000000D02*
X140500000Y-57462500D01*
%TO.N,Net-(J7-VCCR)*%
X66472500Y-131325000D02*
X66705000Y-131557500D01*
X69167500Y-131095000D02*
X70680000Y-131095000D01*
X68705000Y-131557500D02*
X69167500Y-131095000D01*
X66705000Y-131557500D02*
X68705000Y-131557500D01*
X61405000Y-131325000D02*
X66472500Y-131325000D01*
%TO.N,Net-(J8-VCCT)*%
X148390000Y-49700000D02*
X148390000Y-52227500D01*
X151162500Y-55000000D02*
X151162500Y-57000000D01*
X148390000Y-52227500D02*
X151162500Y-55000000D01*
X151162500Y-57000000D02*
X150700000Y-57462500D01*
X150700000Y-57462500D02*
X150700000Y-58975000D01*
D30*
%TO.N,Net-(D1-A)*%
X63360590Y-54966600D02*
X67335590Y-54966600D01*
D29*
%TO.N,Net-(D2-A)*%
X110675000Y-122339839D02*
X110003599Y-123011240D01*
X110675000Y-117686300D02*
X110675000Y-122339839D01*
%TO.N,Net-(D3-A)*%
X108135000Y-125619718D02*
X108135000Y-117686300D01*
X109992802Y-127477520D02*
X108135000Y-125619718D01*
%TO.N,Net-(D4-A)*%
X103055000Y-129539718D02*
X103055000Y-117686300D01*
X109992802Y-136477520D02*
X103055000Y-129539718D01*
%TO.N,Net-(D5-A)*%
X105595000Y-127579718D02*
X105595000Y-117686300D01*
X109992802Y-131977520D02*
X105595000Y-127579718D01*
%TO.N,Net-(D7-A)*%
X108135000Y-108313700D02*
X108135000Y-104879839D01*
X108135000Y-104879839D02*
X110003599Y-103011240D01*
%TO.N,Net-(D8-A)*%
X105595000Y-102875322D02*
X105595000Y-108313700D01*
X109992802Y-98477520D02*
X105595000Y-102875322D01*
%TO.N,Net-(D9-A)*%
X109992802Y-93977520D02*
X103055000Y-100915322D01*
X103055000Y-100915322D02*
X103055000Y-108313700D01*
D31*
%TO.N,Net-(J2-In)*%
X72429150Y-101770000D02*
X81697594Y-92501556D01*
X66785000Y-101770000D02*
X72429150Y-101770000D01*
%TO.N,Net-(J3-Data_Out)*%
X61405000Y-76310000D02*
X71596556Y-86501556D01*
X71596556Y-86501556D02*
X81697594Y-86501556D01*
%TO.N,Net-(J5-In)*%
X66785000Y-161865000D02*
X72681121Y-161865000D01*
X72681121Y-161865000D02*
X81951121Y-152595000D01*
%TO.N,/Clock/Clk_LED*%
X145810000Y-68190000D02*
X130000000Y-84000000D01*
X81951121Y-149595000D02*
X83905000Y-149595000D01*
X83905000Y-149595000D02*
X102000000Y-131500000D01*
X130000000Y-102000000D02*
X116500000Y-115500000D01*
X106865000Y-117686300D02*
X106865000Y-119686300D01*
X130000000Y-84000000D02*
X130000000Y-102000000D01*
X145810000Y-67810000D02*
X145810000Y-68190000D01*
%TO.N,Net-(J7-Data_Out)*%
X71595000Y-146595000D02*
X81951121Y-146595000D01*
X61405000Y-136405000D02*
X71595000Y-146595000D01*
%TO.N,Net-(J8-Data_in)*%
X157000000Y-70000000D02*
X157000000Y-50690000D01*
X157000000Y-50690000D02*
X156010000Y-49700000D01*
%TO.N,/Clock/Clk_BNC_LED*%
X81939236Y-142613889D02*
X101785000Y-122768125D01*
X101785000Y-117686300D02*
X101785000Y-119686300D01*
X101785000Y-122768125D02*
X101785000Y-119686300D01*
%TO.N,/Clock/Clk_Opt_LED*%
X84386111Y-136613889D02*
X96000000Y-125000000D01*
X81939236Y-136613889D02*
X84386111Y-136613889D01*
X104325000Y-119686300D02*
X104325000Y-117686300D01*
X104325000Y-125000000D02*
X104325000Y-119686300D01*
%TO.N,Net-(U1-2A4)*%
X109405000Y-119686300D02*
X109405000Y-117686300D01*
%TO.N,Net-(U1-2Y4)*%
X111445000Y-106313700D02*
X111945000Y-106313700D01*
X110675000Y-107083700D02*
X111445000Y-106313700D01*
X110675000Y-108313700D02*
X110675000Y-107083700D01*
%TO.N,/Trigger/Trigger Input*%
X90982403Y-89501556D02*
X92483959Y-88000000D01*
X81697594Y-89501556D02*
X90982403Y-89501556D01*
%TO.N,/LEDs/Trig_BNC_LED*%
X109405000Y-106313700D02*
X109405000Y-108313700D01*
%TO.N,/LEDs/Trig_LED*%
X135610000Y-67890000D02*
X112500000Y-91000000D01*
X112500000Y-91000000D02*
X109500000Y-91000000D01*
X107000000Y-99000000D02*
X104325000Y-101675000D01*
X107500000Y-93000000D02*
X107000000Y-93000000D01*
X104325000Y-101675000D02*
X104325000Y-106313700D01*
X104325000Y-108313700D02*
X104325000Y-106313700D01*
X109500000Y-91000000D02*
X107500000Y-93000000D01*
%TO.N,/LEDs/Trig_Opt_LED*%
X106865000Y-103635000D02*
X106865000Y-106313700D01*
X106865000Y-108313700D02*
X106865000Y-106313700D01*
%TD*%
M02*
