%TF.GenerationSoftware,KiCad,Pcbnew,9.0.5-1.fc42*%
%TF.CreationDate,2025-11-19T14:29:43-05:00*%
%TF.ProjectId,fiber_control_board,66696265-725f-4636-9f6e-74726f6c5f62,rev?*%
%TF.SameCoordinates,Original*%
%TF.FileFunction,Soldermask,Top*%
%TF.FilePolarity,Negative*%
%FSLAX46Y46*%
G04 Gerber Fmt 4.6, Leading zero omitted, Abs format (unit mm)*
G04 Created by KiCad (PCBNEW 9.0.5-1.fc42) date 2025-11-19 14:29:43*
%MOMM*%
%LPD*%
G01*
G04 APERTURE LIST*
G04 APERTURE END LIST*
G36*
X56617730Y-171854089D02*
G01*
X56629536Y-171854089D01*
X56687663Y-171863295D01*
X56822042Y-171880986D01*
X56854837Y-171889773D01*
X56885418Y-171894617D01*
X56944229Y-171913726D01*
X57030611Y-171936872D01*
X57085724Y-171959700D01*
X57131810Y-171974675D01*
X57174987Y-171996674D01*
X57230099Y-172019503D01*
X57307539Y-172064213D01*
X57362645Y-172092291D01*
X57387697Y-172110492D01*
X57417096Y-172127466D01*
X57524651Y-172209995D01*
X57572239Y-172244570D01*
X57580579Y-172252910D01*
X57588401Y-172258912D01*
X57741087Y-172411598D01*
X57747088Y-172419419D01*
X57755430Y-172427761D01*
X57790008Y-172475354D01*
X57872533Y-172582903D01*
X57889505Y-172612299D01*
X57907709Y-172637355D01*
X57935789Y-172692466D01*
X57980496Y-172769900D01*
X58003321Y-172825006D01*
X58025325Y-172868190D01*
X58040301Y-172914282D01*
X58063127Y-172969388D01*
X58086269Y-173055757D01*
X58105383Y-173114582D01*
X58110227Y-173145169D01*
X58119013Y-173177957D01*
X58136703Y-173312327D01*
X58145911Y-173370464D01*
X58145911Y-173382269D01*
X58147197Y-173392038D01*
X58147197Y-173607961D01*
X58145911Y-173617729D01*
X58145911Y-173629536D01*
X58136702Y-173687677D01*
X58119013Y-173822042D01*
X58110228Y-173854827D01*
X58105383Y-173885418D01*
X58086268Y-173944246D01*
X58063127Y-174030611D01*
X58040302Y-174085713D01*
X58025325Y-174131810D01*
X58003319Y-174174997D01*
X57980496Y-174230099D01*
X57935793Y-174307525D01*
X57907709Y-174362645D01*
X57889502Y-174387704D01*
X57872533Y-174417096D01*
X57790022Y-174524627D01*
X57755430Y-174572239D01*
X57747085Y-174580583D01*
X57741087Y-174588401D01*
X57588401Y-174741087D01*
X57580583Y-174747085D01*
X57572239Y-174755430D01*
X57524627Y-174790022D01*
X57417096Y-174872533D01*
X57387704Y-174889502D01*
X57362645Y-174907709D01*
X57307525Y-174935793D01*
X57230099Y-174980496D01*
X57174997Y-175003319D01*
X57131810Y-175025325D01*
X57085713Y-175040302D01*
X57030611Y-175063127D01*
X56944246Y-175086268D01*
X56885418Y-175105383D01*
X56854827Y-175110228D01*
X56822042Y-175119013D01*
X56687677Y-175136702D01*
X56629536Y-175145911D01*
X56617729Y-175145911D01*
X56607961Y-175147197D01*
X56392039Y-175147197D01*
X56382271Y-175145911D01*
X56370464Y-175145911D01*
X56312324Y-175136702D01*
X56177957Y-175119013D01*
X56145169Y-175110227D01*
X56114582Y-175105383D01*
X56055757Y-175086269D01*
X55969388Y-175063127D01*
X55914282Y-175040301D01*
X55868190Y-175025325D01*
X55825006Y-175003321D01*
X55769900Y-174980496D01*
X55692466Y-174935789D01*
X55637355Y-174907709D01*
X55612299Y-174889505D01*
X55582903Y-174872533D01*
X55475354Y-174790008D01*
X55427761Y-174755430D01*
X55419419Y-174747088D01*
X55411598Y-174741087D01*
X55258912Y-174588401D01*
X55252910Y-174580579D01*
X55244570Y-174572239D01*
X55209995Y-174524651D01*
X55127466Y-174417096D01*
X55110492Y-174387697D01*
X55092291Y-174362645D01*
X55064213Y-174307539D01*
X55019503Y-174230099D01*
X54996674Y-174174987D01*
X54974675Y-174131810D01*
X54959700Y-174085724D01*
X54936872Y-174030611D01*
X54913726Y-173944229D01*
X54894617Y-173885418D01*
X54889773Y-173854837D01*
X54880986Y-173822042D01*
X54863295Y-173687663D01*
X54854089Y-173629536D01*
X54854089Y-173617729D01*
X54852803Y-173607961D01*
X54852803Y-173392038D01*
X54854089Y-173382269D01*
X54854089Y-173370464D01*
X54863294Y-173312341D01*
X54880986Y-173177957D01*
X54889773Y-173145160D01*
X54894617Y-173114582D01*
X54913724Y-173055775D01*
X54936872Y-172969388D01*
X54959702Y-172914271D01*
X54974675Y-172868190D01*
X54996672Y-172825016D01*
X55019503Y-172769900D01*
X55064217Y-172692451D01*
X55092291Y-172637355D01*
X55110489Y-172612306D01*
X55127466Y-172582903D01*
X55210009Y-172475329D01*
X55244570Y-172427761D01*
X55252906Y-172419424D01*
X55258912Y-172411598D01*
X55411598Y-172258912D01*
X55419424Y-172252906D01*
X55427761Y-172244570D01*
X55475329Y-172210009D01*
X55582903Y-172127466D01*
X55612306Y-172110489D01*
X55637355Y-172092291D01*
X55692451Y-172064217D01*
X55769900Y-172019503D01*
X55825016Y-171996672D01*
X55868190Y-171974675D01*
X55914271Y-171959702D01*
X55969388Y-171936872D01*
X56055775Y-171913724D01*
X56114582Y-171894617D01*
X56145160Y-171889773D01*
X56177957Y-171880986D01*
X56312338Y-171863295D01*
X56370464Y-171854089D01*
X56382270Y-171854089D01*
X56392039Y-171852803D01*
X56607961Y-171852803D01*
X56617730Y-171854089D01*
G37*
G36*
X166117730Y-171854089D02*
G01*
X166129536Y-171854089D01*
X166187663Y-171863295D01*
X166322042Y-171880986D01*
X166354837Y-171889773D01*
X166385418Y-171894617D01*
X166444229Y-171913726D01*
X166530611Y-171936872D01*
X166585724Y-171959700D01*
X166631810Y-171974675D01*
X166674987Y-171996674D01*
X166730099Y-172019503D01*
X166807539Y-172064213D01*
X166862645Y-172092291D01*
X166887697Y-172110492D01*
X166917096Y-172127466D01*
X167024651Y-172209995D01*
X167072239Y-172244570D01*
X167080579Y-172252910D01*
X167088401Y-172258912D01*
X167241087Y-172411598D01*
X167247088Y-172419419D01*
X167255430Y-172427761D01*
X167290008Y-172475354D01*
X167372533Y-172582903D01*
X167389505Y-172612299D01*
X167407709Y-172637355D01*
X167435789Y-172692466D01*
X167480496Y-172769900D01*
X167503321Y-172825006D01*
X167525325Y-172868190D01*
X167540301Y-172914282D01*
X167563127Y-172969388D01*
X167586269Y-173055757D01*
X167605383Y-173114582D01*
X167610227Y-173145169D01*
X167619013Y-173177957D01*
X167636703Y-173312327D01*
X167645911Y-173370464D01*
X167645911Y-173382269D01*
X167647197Y-173392038D01*
X167647197Y-173607961D01*
X167645911Y-173617729D01*
X167645911Y-173629536D01*
X167636702Y-173687677D01*
X167619013Y-173822042D01*
X167610228Y-173854827D01*
X167605383Y-173885418D01*
X167586268Y-173944246D01*
X167563127Y-174030611D01*
X167540302Y-174085713D01*
X167525325Y-174131810D01*
X167503319Y-174174997D01*
X167480496Y-174230099D01*
X167435793Y-174307525D01*
X167407709Y-174362645D01*
X167389502Y-174387704D01*
X167372533Y-174417096D01*
X167290022Y-174524627D01*
X167255430Y-174572239D01*
X167247085Y-174580583D01*
X167241087Y-174588401D01*
X167088401Y-174741087D01*
X167080583Y-174747085D01*
X167072239Y-174755430D01*
X167024627Y-174790022D01*
X166917096Y-174872533D01*
X166887704Y-174889502D01*
X166862645Y-174907709D01*
X166807525Y-174935793D01*
X166730099Y-174980496D01*
X166674997Y-175003319D01*
X166631810Y-175025325D01*
X166585713Y-175040302D01*
X166530611Y-175063127D01*
X166444246Y-175086268D01*
X166385418Y-175105383D01*
X166354827Y-175110228D01*
X166322042Y-175119013D01*
X166187677Y-175136702D01*
X166129536Y-175145911D01*
X166117729Y-175145911D01*
X166107961Y-175147197D01*
X165892039Y-175147197D01*
X165882271Y-175145911D01*
X165870464Y-175145911D01*
X165812324Y-175136702D01*
X165677957Y-175119013D01*
X165645169Y-175110227D01*
X165614582Y-175105383D01*
X165555757Y-175086269D01*
X165469388Y-175063127D01*
X165414282Y-175040301D01*
X165368190Y-175025325D01*
X165325006Y-175003321D01*
X165269900Y-174980496D01*
X165192466Y-174935789D01*
X165137355Y-174907709D01*
X165112299Y-174889505D01*
X165082903Y-174872533D01*
X164975354Y-174790008D01*
X164927761Y-174755430D01*
X164919419Y-174747088D01*
X164911598Y-174741087D01*
X164758912Y-174588401D01*
X164752910Y-174580579D01*
X164744570Y-174572239D01*
X164709995Y-174524651D01*
X164627466Y-174417096D01*
X164610492Y-174387697D01*
X164592291Y-174362645D01*
X164564213Y-174307539D01*
X164519503Y-174230099D01*
X164496674Y-174174987D01*
X164474675Y-174131810D01*
X164459700Y-174085724D01*
X164436872Y-174030611D01*
X164413726Y-173944229D01*
X164394617Y-173885418D01*
X164389773Y-173854837D01*
X164380986Y-173822042D01*
X164363295Y-173687663D01*
X164354089Y-173629536D01*
X164354089Y-173617729D01*
X164352803Y-173607961D01*
X164352803Y-173392038D01*
X164354089Y-173382269D01*
X164354089Y-173370464D01*
X164363294Y-173312341D01*
X164380986Y-173177957D01*
X164389773Y-173145160D01*
X164394617Y-173114582D01*
X164413724Y-173055775D01*
X164436872Y-172969388D01*
X164459702Y-172914271D01*
X164474675Y-172868190D01*
X164496672Y-172825016D01*
X164519503Y-172769900D01*
X164564217Y-172692451D01*
X164592291Y-172637355D01*
X164610489Y-172612306D01*
X164627466Y-172582903D01*
X164710009Y-172475329D01*
X164744570Y-172427761D01*
X164752906Y-172419424D01*
X164758912Y-172411598D01*
X164911598Y-172258912D01*
X164919424Y-172252906D01*
X164927761Y-172244570D01*
X164975329Y-172210009D01*
X165082903Y-172127466D01*
X165112306Y-172110489D01*
X165137355Y-172092291D01*
X165192451Y-172064217D01*
X165269900Y-172019503D01*
X165325016Y-171996672D01*
X165368190Y-171974675D01*
X165414271Y-171959702D01*
X165469388Y-171936872D01*
X165555775Y-171913724D01*
X165614582Y-171894617D01*
X165645160Y-171889773D01*
X165677957Y-171880986D01*
X165812338Y-171863295D01*
X165870464Y-171854089D01*
X165882270Y-171854089D01*
X165892039Y-171852803D01*
X166107961Y-171852803D01*
X166117730Y-171854089D01*
G37*
G36*
X61796795Y-163355777D02*
G01*
X61808339Y-163355777D01*
X61853451Y-163364750D01*
X61951030Y-163380205D01*
X61982414Y-163390402D01*
X62011047Y-163396098D01*
X62051458Y-163412836D01*
X62108315Y-163431311D01*
X62161574Y-163458447D01*
X62201994Y-163475190D01*
X62226275Y-163491414D01*
X62255667Y-163506390D01*
X62335570Y-163564443D01*
X62373841Y-163590015D01*
X62382008Y-163598182D01*
X62389458Y-163603595D01*
X62506404Y-163720541D01*
X62511816Y-163727990D01*
X62519985Y-163736159D01*
X62545560Y-163774434D01*
X62603609Y-163854332D01*
X62618583Y-163883721D01*
X62634810Y-163908006D01*
X62651554Y-163948430D01*
X62678688Y-164001684D01*
X62697159Y-164058533D01*
X62713902Y-164098953D01*
X62719598Y-164127590D01*
X62729794Y-164158969D01*
X62745248Y-164256540D01*
X62754223Y-164301661D01*
X62754223Y-164313205D01*
X62755665Y-164322310D01*
X62755665Y-164487689D01*
X62754223Y-164496793D01*
X62754223Y-164508339D01*
X62745247Y-164553463D01*
X62729794Y-164651030D01*
X62719598Y-164682406D01*
X62713902Y-164711047D01*
X62697158Y-164751469D01*
X62678688Y-164808315D01*
X62651556Y-164861564D01*
X62634810Y-164901994D01*
X62618581Y-164926281D01*
X62603609Y-164955667D01*
X62545568Y-165035552D01*
X62519985Y-165073841D01*
X62511813Y-165082012D01*
X62506404Y-165089458D01*
X62389458Y-165206404D01*
X62382012Y-165211813D01*
X62373841Y-165219985D01*
X62335552Y-165245568D01*
X62255667Y-165303609D01*
X62226281Y-165318581D01*
X62201994Y-165334810D01*
X62161564Y-165351556D01*
X62108315Y-165378688D01*
X62051469Y-165397158D01*
X62011047Y-165413902D01*
X61982406Y-165419598D01*
X61951030Y-165429794D01*
X61853461Y-165445247D01*
X61808339Y-165454223D01*
X61796794Y-165454223D01*
X61787690Y-165455665D01*
X61622310Y-165455665D01*
X61613206Y-165454223D01*
X61601661Y-165454223D01*
X61556540Y-165445248D01*
X61458969Y-165429794D01*
X61427590Y-165419598D01*
X61398953Y-165413902D01*
X61358533Y-165397159D01*
X61301684Y-165378688D01*
X61248430Y-165351554D01*
X61208006Y-165334810D01*
X61183721Y-165318583D01*
X61154332Y-165303609D01*
X61074434Y-165245560D01*
X61036159Y-165219985D01*
X61027990Y-165211816D01*
X61020541Y-165206404D01*
X60903595Y-165089458D01*
X60898182Y-165082008D01*
X60890015Y-165073841D01*
X60864443Y-165035570D01*
X60806390Y-164955667D01*
X60791414Y-164926275D01*
X60775190Y-164901994D01*
X60758447Y-164861574D01*
X60731311Y-164808315D01*
X60712836Y-164751458D01*
X60696098Y-164711047D01*
X60690402Y-164682414D01*
X60680205Y-164651030D01*
X60664750Y-164553453D01*
X60655777Y-164508339D01*
X60655777Y-164496793D01*
X60654335Y-164487689D01*
X60654335Y-164322310D01*
X60655777Y-164313205D01*
X60655777Y-164301661D01*
X60664750Y-164256550D01*
X60680205Y-164158969D01*
X60690403Y-164127582D01*
X60696098Y-164098953D01*
X60712835Y-164058544D01*
X60731311Y-164001684D01*
X60758450Y-163948419D01*
X60775190Y-163908006D01*
X60791412Y-163883728D01*
X60806390Y-163854332D01*
X60864451Y-163774417D01*
X60890015Y-163736159D01*
X60898180Y-163727993D01*
X60903595Y-163720541D01*
X61020541Y-163603595D01*
X61027993Y-163598180D01*
X61036159Y-163590015D01*
X61074417Y-163564451D01*
X61154332Y-163506390D01*
X61183728Y-163491412D01*
X61208006Y-163475190D01*
X61248419Y-163458450D01*
X61301684Y-163431311D01*
X61358544Y-163412835D01*
X61398953Y-163396098D01*
X61427582Y-163390403D01*
X61458969Y-163380205D01*
X61556550Y-163364750D01*
X61601661Y-163355777D01*
X61613205Y-163355777D01*
X61622310Y-163354335D01*
X61787690Y-163354335D01*
X61796795Y-163355777D01*
G37*
G36*
X67002568Y-161147773D02*
G01*
X67138312Y-161204000D01*
X67260478Y-161285629D01*
X67364371Y-161389522D01*
X67446000Y-161511688D01*
X67502227Y-161647432D01*
X67530891Y-161791536D01*
X67530891Y-161938464D01*
X67502227Y-162082568D01*
X67446000Y-162218312D01*
X67364371Y-162340478D01*
X67260478Y-162444371D01*
X67138312Y-162526000D01*
X67002568Y-162582227D01*
X66858464Y-162610891D01*
X66711536Y-162610891D01*
X66567432Y-162582227D01*
X66431688Y-162526000D01*
X66309522Y-162444371D01*
X66205629Y-162340478D01*
X66124000Y-162218312D01*
X66067773Y-162082568D01*
X66039109Y-161938464D01*
X66039109Y-161791536D01*
X66067773Y-161647432D01*
X66124000Y-161511688D01*
X66205629Y-161389522D01*
X66309522Y-161285629D01*
X66431688Y-161204000D01*
X66567432Y-161147773D01*
X66711536Y-161119109D01*
X66858464Y-161119109D01*
X67002568Y-161147773D01*
G37*
G36*
X67002568Y-158607773D02*
G01*
X67138312Y-158664000D01*
X67260478Y-158745629D01*
X67364371Y-158849522D01*
X67446000Y-158971688D01*
X67502227Y-159107432D01*
X67530891Y-159251536D01*
X67530891Y-159398464D01*
X67502227Y-159542568D01*
X67446000Y-159678312D01*
X67364371Y-159800478D01*
X67260478Y-159904371D01*
X67138312Y-159986000D01*
X67002568Y-160042227D01*
X66858464Y-160070891D01*
X66711536Y-160070891D01*
X66567432Y-160042227D01*
X66431688Y-159986000D01*
X66309522Y-159904371D01*
X66205629Y-159800478D01*
X66124000Y-159678312D01*
X66067773Y-159542568D01*
X66039109Y-159398464D01*
X66039109Y-159251536D01*
X66067773Y-159107432D01*
X66124000Y-158971688D01*
X66205629Y-158849522D01*
X66309522Y-158745629D01*
X66431688Y-158664000D01*
X66567432Y-158607773D01*
X66711536Y-158579109D01*
X66858464Y-158579109D01*
X67002568Y-158607773D01*
G37*
G36*
X61796795Y-153195777D02*
G01*
X61808339Y-153195777D01*
X61853451Y-153204750D01*
X61951030Y-153220205D01*
X61982414Y-153230402D01*
X62011047Y-153236098D01*
X62051458Y-153252836D01*
X62108315Y-153271311D01*
X62161574Y-153298447D01*
X62201994Y-153315190D01*
X62226275Y-153331414D01*
X62255667Y-153346390D01*
X62335570Y-153404443D01*
X62373841Y-153430015D01*
X62382008Y-153438182D01*
X62389458Y-153443595D01*
X62506404Y-153560541D01*
X62511816Y-153567990D01*
X62519985Y-153576159D01*
X62545560Y-153614434D01*
X62603609Y-153694332D01*
X62618583Y-153723721D01*
X62634810Y-153748006D01*
X62651554Y-153788430D01*
X62678688Y-153841684D01*
X62697159Y-153898533D01*
X62713902Y-153938953D01*
X62719598Y-153967590D01*
X62729794Y-153998969D01*
X62745248Y-154096540D01*
X62754223Y-154141661D01*
X62754223Y-154153205D01*
X62755665Y-154162310D01*
X62755665Y-154327689D01*
X62754223Y-154336793D01*
X62754223Y-154348339D01*
X62745247Y-154393463D01*
X62729794Y-154491030D01*
X62719598Y-154522406D01*
X62713902Y-154551047D01*
X62697158Y-154591469D01*
X62678688Y-154648315D01*
X62651556Y-154701564D01*
X62634810Y-154741994D01*
X62618581Y-154766281D01*
X62603609Y-154795667D01*
X62545568Y-154875552D01*
X62519985Y-154913841D01*
X62511813Y-154922012D01*
X62506404Y-154929458D01*
X62389458Y-155046404D01*
X62382012Y-155051813D01*
X62373841Y-155059985D01*
X62335552Y-155085568D01*
X62255667Y-155143609D01*
X62226281Y-155158581D01*
X62201994Y-155174810D01*
X62161564Y-155191556D01*
X62108315Y-155218688D01*
X62051469Y-155237158D01*
X62011047Y-155253902D01*
X61982406Y-155259598D01*
X61951030Y-155269794D01*
X61853461Y-155285247D01*
X61808339Y-155294223D01*
X61796794Y-155294223D01*
X61787690Y-155295665D01*
X61622310Y-155295665D01*
X61613206Y-155294223D01*
X61601661Y-155294223D01*
X61556540Y-155285248D01*
X61458969Y-155269794D01*
X61427590Y-155259598D01*
X61398953Y-155253902D01*
X61358533Y-155237159D01*
X61301684Y-155218688D01*
X61248430Y-155191554D01*
X61208006Y-155174810D01*
X61183721Y-155158583D01*
X61154332Y-155143609D01*
X61074434Y-155085560D01*
X61036159Y-155059985D01*
X61027990Y-155051816D01*
X61020541Y-155046404D01*
X60903595Y-154929458D01*
X60898182Y-154922008D01*
X60890015Y-154913841D01*
X60864443Y-154875570D01*
X60806390Y-154795667D01*
X60791414Y-154766275D01*
X60775190Y-154741994D01*
X60758447Y-154701574D01*
X60731311Y-154648315D01*
X60712836Y-154591458D01*
X60696098Y-154551047D01*
X60690402Y-154522414D01*
X60680205Y-154491030D01*
X60664750Y-154393453D01*
X60655777Y-154348339D01*
X60655777Y-154336793D01*
X60654335Y-154327689D01*
X60654335Y-154162310D01*
X60655777Y-154153205D01*
X60655777Y-154141661D01*
X60664750Y-154096550D01*
X60680205Y-153998969D01*
X60690403Y-153967582D01*
X60696098Y-153938953D01*
X60712835Y-153898544D01*
X60731311Y-153841684D01*
X60758450Y-153788419D01*
X60775190Y-153748006D01*
X60791412Y-153723728D01*
X60806390Y-153694332D01*
X60864451Y-153614417D01*
X60890015Y-153576159D01*
X60898180Y-153567993D01*
X60903595Y-153560541D01*
X61020541Y-153443595D01*
X61027993Y-153438180D01*
X61036159Y-153430015D01*
X61074417Y-153404451D01*
X61154332Y-153346390D01*
X61183728Y-153331412D01*
X61208006Y-153315190D01*
X61248419Y-153298450D01*
X61301684Y-153271311D01*
X61358544Y-153252835D01*
X61398953Y-153236098D01*
X61427582Y-153230403D01*
X61458969Y-153220205D01*
X61556550Y-153204750D01*
X61601661Y-153195777D01*
X61613205Y-153195777D01*
X61622310Y-153194335D01*
X61787690Y-153194335D01*
X61796795Y-153195777D01*
G37*
G36*
X111367730Y-151854089D02*
G01*
X111379536Y-151854089D01*
X111437663Y-151863295D01*
X111572042Y-151880986D01*
X111604837Y-151889773D01*
X111635418Y-151894617D01*
X111694229Y-151913726D01*
X111780611Y-151936872D01*
X111835724Y-151959700D01*
X111881810Y-151974675D01*
X111924987Y-151996674D01*
X111980099Y-152019503D01*
X112057539Y-152064213D01*
X112112645Y-152092291D01*
X112137697Y-152110492D01*
X112167096Y-152127466D01*
X112274651Y-152209995D01*
X112322239Y-152244570D01*
X112330579Y-152252910D01*
X112338401Y-152258912D01*
X112491087Y-152411598D01*
X112497088Y-152419419D01*
X112505430Y-152427761D01*
X112540008Y-152475354D01*
X112622533Y-152582903D01*
X112639505Y-152612299D01*
X112657709Y-152637355D01*
X112685789Y-152692466D01*
X112730496Y-152769900D01*
X112753321Y-152825006D01*
X112775325Y-152868190D01*
X112790301Y-152914282D01*
X112813127Y-152969388D01*
X112836269Y-153055757D01*
X112855383Y-153114582D01*
X112860227Y-153145169D01*
X112869013Y-153177957D01*
X112886703Y-153312327D01*
X112895911Y-153370464D01*
X112895911Y-153382269D01*
X112897197Y-153392038D01*
X112897197Y-153607961D01*
X112895911Y-153617729D01*
X112895911Y-153629536D01*
X112886702Y-153687677D01*
X112869013Y-153822042D01*
X112860228Y-153854827D01*
X112855383Y-153885418D01*
X112836268Y-153944246D01*
X112813127Y-154030611D01*
X112790302Y-154085713D01*
X112775325Y-154131810D01*
X112753319Y-154174997D01*
X112730496Y-154230099D01*
X112685793Y-154307525D01*
X112657709Y-154362645D01*
X112639502Y-154387704D01*
X112622533Y-154417096D01*
X112540022Y-154524627D01*
X112505430Y-154572239D01*
X112497085Y-154580583D01*
X112491087Y-154588401D01*
X112338401Y-154741087D01*
X112330583Y-154747085D01*
X112322239Y-154755430D01*
X112274627Y-154790022D01*
X112167096Y-154872533D01*
X112137704Y-154889502D01*
X112112645Y-154907709D01*
X112057525Y-154935793D01*
X111980099Y-154980496D01*
X111924997Y-155003319D01*
X111881810Y-155025325D01*
X111835713Y-155040302D01*
X111780611Y-155063127D01*
X111694246Y-155086268D01*
X111635418Y-155105383D01*
X111604827Y-155110228D01*
X111572042Y-155119013D01*
X111437677Y-155136702D01*
X111379536Y-155145911D01*
X111367729Y-155145911D01*
X111357961Y-155147197D01*
X111142039Y-155147197D01*
X111132271Y-155145911D01*
X111120464Y-155145911D01*
X111062324Y-155136702D01*
X110927957Y-155119013D01*
X110895169Y-155110227D01*
X110864582Y-155105383D01*
X110805757Y-155086269D01*
X110719388Y-155063127D01*
X110664282Y-155040301D01*
X110618190Y-155025325D01*
X110575006Y-155003321D01*
X110519900Y-154980496D01*
X110442466Y-154935789D01*
X110387355Y-154907709D01*
X110362299Y-154889505D01*
X110332903Y-154872533D01*
X110225354Y-154790008D01*
X110177761Y-154755430D01*
X110169419Y-154747088D01*
X110161598Y-154741087D01*
X110008912Y-154588401D01*
X110002910Y-154580579D01*
X109994570Y-154572239D01*
X109959995Y-154524651D01*
X109877466Y-154417096D01*
X109860492Y-154387697D01*
X109842291Y-154362645D01*
X109814213Y-154307539D01*
X109769503Y-154230099D01*
X109746674Y-154174987D01*
X109724675Y-154131810D01*
X109709700Y-154085724D01*
X109686872Y-154030611D01*
X109663726Y-153944229D01*
X109644617Y-153885418D01*
X109639773Y-153854837D01*
X109630986Y-153822042D01*
X109613295Y-153687663D01*
X109604089Y-153629536D01*
X109604089Y-153617729D01*
X109602803Y-153607961D01*
X109602803Y-153392038D01*
X109604089Y-153382269D01*
X109604089Y-153370464D01*
X109613294Y-153312341D01*
X109630986Y-153177957D01*
X109639773Y-153145160D01*
X109644617Y-153114582D01*
X109663724Y-153055775D01*
X109686872Y-152969388D01*
X109709702Y-152914271D01*
X109724675Y-152868190D01*
X109746672Y-152825016D01*
X109769503Y-152769900D01*
X109814217Y-152692451D01*
X109842291Y-152637355D01*
X109860489Y-152612306D01*
X109877466Y-152582903D01*
X109960009Y-152475329D01*
X109994570Y-152427761D01*
X110002906Y-152419424D01*
X110008912Y-152411598D01*
X110161598Y-152258912D01*
X110169424Y-152252906D01*
X110177761Y-152244570D01*
X110225329Y-152210009D01*
X110332903Y-152127466D01*
X110362306Y-152110489D01*
X110387355Y-152092291D01*
X110442451Y-152064217D01*
X110519900Y-152019503D01*
X110575016Y-151996672D01*
X110618190Y-151974675D01*
X110664271Y-151959702D01*
X110719388Y-151936872D01*
X110805775Y-151913724D01*
X110864582Y-151894617D01*
X110895160Y-151889773D01*
X110927957Y-151880986D01*
X111062338Y-151863295D01*
X111120464Y-151854089D01*
X111132270Y-151854089D01*
X111142039Y-151852803D01*
X111357961Y-151852803D01*
X111367730Y-151854089D01*
G37*
G36*
X82225653Y-151451493D02*
G01*
X82401157Y-151508518D01*
X82565579Y-151592295D01*
X82714872Y-151700763D01*
X82845358Y-151831249D01*
X82953826Y-151980542D01*
X83037603Y-152144964D01*
X83094628Y-152320468D01*
X83123496Y-152502732D01*
X83123496Y-152687268D01*
X83094628Y-152869532D01*
X83037603Y-153045036D01*
X82953826Y-153209458D01*
X82845358Y-153358751D01*
X82714872Y-153489237D01*
X82565579Y-153597705D01*
X82401157Y-153681482D01*
X82225653Y-153738507D01*
X82043389Y-153767375D01*
X81858853Y-153767375D01*
X81676589Y-153738507D01*
X81501085Y-153681482D01*
X81336663Y-153597705D01*
X81187370Y-153489237D01*
X81056884Y-153358751D01*
X80948416Y-153209458D01*
X80864639Y-153045036D01*
X80807614Y-152869532D01*
X80778746Y-152687268D01*
X80778746Y-152502732D01*
X80807614Y-152320468D01*
X80864639Y-152144964D01*
X80948416Y-151980542D01*
X81056884Y-151831249D01*
X81187370Y-151700763D01*
X81336663Y-151592295D01*
X81501085Y-151508518D01*
X81676589Y-151451493D01*
X81858853Y-151422625D01*
X82043389Y-151422625D01*
X82225653Y-151451493D01*
G37*
G36*
X82225653Y-148451493D02*
G01*
X82401157Y-148508518D01*
X82565579Y-148592295D01*
X82714872Y-148700763D01*
X82845358Y-148831249D01*
X82953826Y-148980542D01*
X83037603Y-149144964D01*
X83094628Y-149320468D01*
X83123496Y-149502732D01*
X83123496Y-149687268D01*
X83094628Y-149869532D01*
X83037603Y-150045036D01*
X82953826Y-150209458D01*
X82845358Y-150358751D01*
X82714872Y-150489237D01*
X82565579Y-150597705D01*
X82401157Y-150681482D01*
X82225653Y-150738507D01*
X82043389Y-150767375D01*
X81858853Y-150767375D01*
X81676589Y-150738507D01*
X81501085Y-150681482D01*
X81336663Y-150597705D01*
X81187370Y-150489237D01*
X81056884Y-150358751D01*
X80948416Y-150209458D01*
X80864639Y-150045036D01*
X80807614Y-149869532D01*
X80778746Y-149687268D01*
X80778746Y-149502732D01*
X80807614Y-149320468D01*
X80864639Y-149144964D01*
X80948416Y-148980542D01*
X81056884Y-148831249D01*
X81187370Y-148700763D01*
X81336663Y-148592295D01*
X81501085Y-148508518D01*
X81676589Y-148451493D01*
X81858853Y-148422625D01*
X82043389Y-148422625D01*
X82225653Y-148451493D01*
G37*
G36*
X82225653Y-145451493D02*
G01*
X82401157Y-145508518D01*
X82565579Y-145592295D01*
X82714872Y-145700763D01*
X82845358Y-145831249D01*
X82953826Y-145980542D01*
X83037603Y-146144964D01*
X83094628Y-146320468D01*
X83123496Y-146502732D01*
X83123496Y-146687268D01*
X83094628Y-146869532D01*
X83037603Y-147045036D01*
X82953826Y-147209458D01*
X82845358Y-147358751D01*
X82714872Y-147489237D01*
X82565579Y-147597705D01*
X82401157Y-147681482D01*
X82225653Y-147738507D01*
X82043389Y-147767375D01*
X81858853Y-147767375D01*
X81676589Y-147738507D01*
X81501085Y-147681482D01*
X81336663Y-147597705D01*
X81187370Y-147489237D01*
X81056884Y-147358751D01*
X80948416Y-147209458D01*
X80864639Y-147045036D01*
X80807614Y-146869532D01*
X80778746Y-146687268D01*
X80778746Y-146502732D01*
X80807614Y-146320468D01*
X80864639Y-146144964D01*
X80948416Y-145980542D01*
X81056884Y-145831249D01*
X81187370Y-145700763D01*
X81336663Y-145592295D01*
X81501085Y-145508518D01*
X81676589Y-145451493D01*
X81858853Y-145422625D01*
X82043389Y-145422625D01*
X82225653Y-145451493D01*
G37*
G36*
X82213768Y-141470382D02*
G01*
X82389272Y-141527407D01*
X82553694Y-141611184D01*
X82702987Y-141719652D01*
X82833473Y-141850138D01*
X82941941Y-141999431D01*
X83025718Y-142163853D01*
X83082743Y-142339357D01*
X83111611Y-142521621D01*
X83111611Y-142706157D01*
X83082743Y-142888421D01*
X83025718Y-143063925D01*
X82941941Y-143228347D01*
X82833473Y-143377640D01*
X82702987Y-143508126D01*
X82553694Y-143616594D01*
X82389272Y-143700371D01*
X82213768Y-143757396D01*
X82031504Y-143786264D01*
X81846968Y-143786264D01*
X81664704Y-143757396D01*
X81489200Y-143700371D01*
X81324778Y-143616594D01*
X81175485Y-143508126D01*
X81044999Y-143377640D01*
X80936531Y-143228347D01*
X80852754Y-143063925D01*
X80795729Y-142888421D01*
X80766861Y-142706157D01*
X80766861Y-142521621D01*
X80795729Y-142339357D01*
X80852754Y-142163853D01*
X80936531Y-141999431D01*
X81044999Y-141850138D01*
X81175485Y-141719652D01*
X81324778Y-141611184D01*
X81489200Y-141527407D01*
X81664704Y-141470382D01*
X81846968Y-141441514D01*
X82031504Y-141441514D01*
X82213768Y-141470382D01*
G37*
G36*
X82213768Y-138470382D02*
G01*
X82389272Y-138527407D01*
X82553694Y-138611184D01*
X82702987Y-138719652D01*
X82833473Y-138850138D01*
X82941941Y-138999431D01*
X83025718Y-139163853D01*
X83082743Y-139339357D01*
X83111611Y-139521621D01*
X83111611Y-139706157D01*
X83082743Y-139888421D01*
X83025718Y-140063925D01*
X82941941Y-140228347D01*
X82833473Y-140377640D01*
X82702987Y-140508126D01*
X82553694Y-140616594D01*
X82389272Y-140700371D01*
X82213768Y-140757396D01*
X82031504Y-140786264D01*
X81846968Y-140786264D01*
X81664704Y-140757396D01*
X81489200Y-140700371D01*
X81324778Y-140616594D01*
X81175485Y-140508126D01*
X81044999Y-140377640D01*
X80936531Y-140228347D01*
X80852754Y-140063925D01*
X80795729Y-139888421D01*
X80766861Y-139706157D01*
X80766861Y-139521621D01*
X80795729Y-139339357D01*
X80852754Y-139163853D01*
X80936531Y-138999431D01*
X81044999Y-138850138D01*
X81175485Y-138719652D01*
X81324778Y-138611184D01*
X81489200Y-138527407D01*
X81664704Y-138470382D01*
X81846968Y-138441514D01*
X82031504Y-138441514D01*
X82213768Y-138470382D01*
G37*
G36*
X82213768Y-135470382D02*
G01*
X82389272Y-135527407D01*
X82553694Y-135611184D01*
X82702987Y-135719652D01*
X82833473Y-135850138D01*
X82941941Y-135999431D01*
X83025718Y-136163853D01*
X83082743Y-136339357D01*
X83111611Y-136521621D01*
X83111611Y-136706157D01*
X83082743Y-136888421D01*
X83025718Y-137063925D01*
X82941941Y-137228347D01*
X82833473Y-137377640D01*
X82702987Y-137508126D01*
X82553694Y-137616594D01*
X82389272Y-137700371D01*
X82213768Y-137757396D01*
X82031504Y-137786264D01*
X81846968Y-137786264D01*
X81664704Y-137757396D01*
X81489200Y-137700371D01*
X81324778Y-137616594D01*
X81175485Y-137508126D01*
X81044999Y-137377640D01*
X80936531Y-137228347D01*
X80852754Y-137063925D01*
X80795729Y-136888421D01*
X80766861Y-136706157D01*
X80766861Y-136521621D01*
X80795729Y-136339357D01*
X80852754Y-136163853D01*
X80936531Y-135999431D01*
X81044999Y-135850138D01*
X81175485Y-135719652D01*
X81324778Y-135611184D01*
X81489200Y-135527407D01*
X81664704Y-135470382D01*
X81846968Y-135441514D01*
X82031504Y-135441514D01*
X82213768Y-135470382D01*
G37*
G36*
X110267334Y-135334013D02*
G01*
X110442838Y-135391038D01*
X110607260Y-135474815D01*
X110756553Y-135583283D01*
X110887039Y-135713769D01*
X110995507Y-135863062D01*
X111079284Y-136027484D01*
X111136309Y-136202988D01*
X111165177Y-136385252D01*
X111165177Y-136569788D01*
X111136309Y-136752052D01*
X111079284Y-136927556D01*
X110995507Y-137091978D01*
X110887039Y-137241271D01*
X110756553Y-137371757D01*
X110607260Y-137480225D01*
X110442838Y-137564002D01*
X110267334Y-137621027D01*
X110085070Y-137649895D01*
X109900534Y-137649895D01*
X109718270Y-137621027D01*
X109542766Y-137564002D01*
X109378344Y-137480225D01*
X109229051Y-137371757D01*
X109098565Y-137241271D01*
X108990097Y-137091978D01*
X108906320Y-136927556D01*
X108849295Y-136752052D01*
X108820427Y-136569788D01*
X108820427Y-136385252D01*
X108849295Y-136202988D01*
X108906320Y-136027484D01*
X108990097Y-135863062D01*
X109098565Y-135713769D01*
X109229051Y-135583283D01*
X109378344Y-135474815D01*
X109542766Y-135391038D01*
X109718270Y-135334013D01*
X109900534Y-135305145D01*
X110085070Y-135305145D01*
X110267334Y-135334013D01*
G37*
G36*
X113267334Y-135334013D02*
G01*
X113442838Y-135391038D01*
X113607260Y-135474815D01*
X113756553Y-135583283D01*
X113887039Y-135713769D01*
X113995507Y-135863062D01*
X114079284Y-136027484D01*
X114136309Y-136202988D01*
X114165177Y-136385252D01*
X114165177Y-136569788D01*
X114136309Y-136752052D01*
X114079284Y-136927556D01*
X113995507Y-137091978D01*
X113887039Y-137241271D01*
X113756553Y-137371757D01*
X113607260Y-137480225D01*
X113442838Y-137564002D01*
X113267334Y-137621027D01*
X113085070Y-137649895D01*
X112900534Y-137649895D01*
X112718270Y-137621027D01*
X112542766Y-137564002D01*
X112378344Y-137480225D01*
X112229051Y-137371757D01*
X112098565Y-137241271D01*
X111990097Y-137091978D01*
X111906320Y-136927556D01*
X111849295Y-136752052D01*
X111820427Y-136569788D01*
X111820427Y-136385252D01*
X111849295Y-136202988D01*
X111906320Y-136027484D01*
X111990097Y-135863062D01*
X112098565Y-135713769D01*
X112229051Y-135583283D01*
X112378344Y-135474815D01*
X112542766Y-135391038D01*
X112718270Y-135334013D01*
X112900534Y-135305145D01*
X113085070Y-135305145D01*
X113267334Y-135334013D01*
G37*
G36*
X54333512Y-135607857D02*
G01*
X54487518Y-135638491D01*
X54632589Y-135698581D01*
X54763149Y-135785819D01*
X54874181Y-135896851D01*
X54961419Y-136027411D01*
X55021509Y-136172482D01*
X55052143Y-136326488D01*
X55052143Y-136483512D01*
X55021509Y-136637518D01*
X54961419Y-136782589D01*
X54874181Y-136913149D01*
X54763149Y-137024181D01*
X54632589Y-137111419D01*
X54487518Y-137171509D01*
X54333512Y-137202143D01*
X54255000Y-137206000D01*
X54251941Y-137206000D01*
X53158059Y-137206000D01*
X53155000Y-137206000D01*
X53076488Y-137202143D01*
X52922482Y-137171509D01*
X52777411Y-137111419D01*
X52646851Y-137024181D01*
X52535819Y-136913149D01*
X52448581Y-136782589D01*
X52388491Y-136637518D01*
X52357857Y-136483512D01*
X52357857Y-136326488D01*
X52388491Y-136172482D01*
X52448581Y-136027411D01*
X52535819Y-135896851D01*
X52646851Y-135785819D01*
X52777411Y-135698581D01*
X52922482Y-135638491D01*
X53076488Y-135607857D01*
X53155000Y-135604000D01*
X54255000Y-135604000D01*
X54333512Y-135607857D01*
G37*
G36*
X62033512Y-135607857D02*
G01*
X62187518Y-135638491D01*
X62332589Y-135698581D01*
X62463149Y-135785819D01*
X62574181Y-135896851D01*
X62661419Y-136027411D01*
X62721509Y-136172482D01*
X62752143Y-136326488D01*
X62752143Y-136483512D01*
X62721509Y-136637518D01*
X62661419Y-136782589D01*
X62574181Y-136913149D01*
X62463149Y-137024181D01*
X62332589Y-137111419D01*
X62187518Y-137171509D01*
X62033512Y-137202143D01*
X61955000Y-137206000D01*
X61951941Y-137206000D01*
X60858059Y-137206000D01*
X60855000Y-137206000D01*
X60776488Y-137202143D01*
X60622482Y-137171509D01*
X60477411Y-137111419D01*
X60346851Y-137024181D01*
X60235819Y-136913149D01*
X60148581Y-136782589D01*
X60088491Y-136637518D01*
X60057857Y-136483512D01*
X60057857Y-136326488D01*
X60088491Y-136172482D01*
X60148581Y-136027411D01*
X60235819Y-135896851D01*
X60346851Y-135785819D01*
X60477411Y-135698581D01*
X60622482Y-135638491D01*
X60776488Y-135607857D01*
X60855000Y-135604000D01*
X61955000Y-135604000D01*
X62033512Y-135607857D01*
G37*
G36*
X71073914Y-133326995D02*
G01*
X71089726Y-133333976D01*
X71097531Y-133335213D01*
X71130039Y-133351776D01*
X71175106Y-133371676D01*
X71253324Y-133449894D01*
X71273226Y-133494967D01*
X71289786Y-133527468D01*
X71291021Y-133535270D01*
X71298005Y-133551086D01*
X71306000Y-133620000D01*
X71306000Y-134570000D01*
X71298005Y-134638914D01*
X71291021Y-134654729D01*
X71289786Y-134662531D01*
X71273229Y-134695024D01*
X71253324Y-134740106D01*
X71175106Y-134818324D01*
X71130024Y-134838229D01*
X71097531Y-134854786D01*
X71089729Y-134856021D01*
X71073914Y-134863005D01*
X71005000Y-134871000D01*
X70330000Y-134871000D01*
X70261086Y-134863005D01*
X70245270Y-134856021D01*
X70237468Y-134854786D01*
X70204967Y-134838226D01*
X70159894Y-134818324D01*
X70081676Y-134740106D01*
X70061776Y-134695039D01*
X70045213Y-134662531D01*
X70043976Y-134654726D01*
X70036995Y-134638914D01*
X70029000Y-134570000D01*
X70029000Y-133620000D01*
X70036995Y-133551086D01*
X70043976Y-133535274D01*
X70045213Y-133527468D01*
X70061780Y-133494953D01*
X70081676Y-133449894D01*
X70159894Y-133371676D01*
X70204953Y-133351780D01*
X70237468Y-133335213D01*
X70245274Y-133333976D01*
X70261086Y-133326995D01*
X70330000Y-133319000D01*
X71005000Y-133319000D01*
X71073914Y-133326995D01*
G37*
G36*
X73148914Y-133326995D02*
G01*
X73164726Y-133333976D01*
X73172531Y-133335213D01*
X73205039Y-133351776D01*
X73250106Y-133371676D01*
X73328324Y-133449894D01*
X73348226Y-133494967D01*
X73364786Y-133527468D01*
X73366021Y-133535270D01*
X73373005Y-133551086D01*
X73381000Y-133620000D01*
X73381000Y-134570000D01*
X73373005Y-134638914D01*
X73366021Y-134654729D01*
X73364786Y-134662531D01*
X73348229Y-134695024D01*
X73328324Y-134740106D01*
X73250106Y-134818324D01*
X73205024Y-134838229D01*
X73172531Y-134854786D01*
X73164729Y-134856021D01*
X73148914Y-134863005D01*
X73080000Y-134871000D01*
X72405000Y-134871000D01*
X72336086Y-134863005D01*
X72320270Y-134856021D01*
X72312468Y-134854786D01*
X72279967Y-134838226D01*
X72234894Y-134818324D01*
X72156676Y-134740106D01*
X72136776Y-134695039D01*
X72120213Y-134662531D01*
X72118976Y-134654726D01*
X72111995Y-134638914D01*
X72104000Y-134570000D01*
X72104000Y-133620000D01*
X72111995Y-133551086D01*
X72118976Y-133535274D01*
X72120213Y-133527468D01*
X72136780Y-133494953D01*
X72156676Y-133449894D01*
X72234894Y-133371676D01*
X72279953Y-133351780D01*
X72312468Y-133335213D01*
X72320274Y-133333976D01*
X72336086Y-133326995D01*
X72405000Y-133319000D01*
X73080000Y-133319000D01*
X73148914Y-133326995D01*
G37*
G36*
X62033512Y-133067857D02*
G01*
X62187518Y-133098491D01*
X62332589Y-133158581D01*
X62463149Y-133245819D01*
X62574181Y-133356851D01*
X62661419Y-133487411D01*
X62721509Y-133632482D01*
X62752143Y-133786488D01*
X62752143Y-133943512D01*
X62721509Y-134097518D01*
X62661419Y-134242589D01*
X62574181Y-134373149D01*
X62463149Y-134484181D01*
X62332589Y-134571419D01*
X62187518Y-134631509D01*
X62033512Y-134662143D01*
X61955000Y-134666000D01*
X61951941Y-134666000D01*
X60858059Y-134666000D01*
X60855000Y-134666000D01*
X60776488Y-134662143D01*
X60622482Y-134631509D01*
X60477411Y-134571419D01*
X60346851Y-134484181D01*
X60235819Y-134373149D01*
X60148581Y-134242589D01*
X60088491Y-134097518D01*
X60057857Y-133943512D01*
X60057857Y-133786488D01*
X60088491Y-133632482D01*
X60148581Y-133487411D01*
X60235819Y-133356851D01*
X60346851Y-133245819D01*
X60477411Y-133158581D01*
X60622482Y-133098491D01*
X60776488Y-133067857D01*
X60855000Y-133064000D01*
X61955000Y-133064000D01*
X62033512Y-133067857D01*
G37*
G36*
X67248914Y-133001995D02*
G01*
X67264726Y-133008976D01*
X67272531Y-133010213D01*
X67305039Y-133026776D01*
X67350106Y-133046676D01*
X67428324Y-133124894D01*
X67448226Y-133169967D01*
X67464786Y-133202468D01*
X67466021Y-133210270D01*
X67473005Y-133226086D01*
X67481000Y-133295000D01*
X67481000Y-133970000D01*
X67473005Y-134038914D01*
X67466021Y-134054729D01*
X67464786Y-134062531D01*
X67448229Y-134095024D01*
X67428324Y-134140106D01*
X67350106Y-134218324D01*
X67305024Y-134238229D01*
X67272531Y-134254786D01*
X67264729Y-134256021D01*
X67248914Y-134263005D01*
X67180000Y-134271000D01*
X66230000Y-134271000D01*
X66161086Y-134263005D01*
X66145270Y-134256021D01*
X66137468Y-134254786D01*
X66104967Y-134238226D01*
X66059894Y-134218324D01*
X65981676Y-134140106D01*
X65961776Y-134095039D01*
X65945213Y-134062531D01*
X65943976Y-134054726D01*
X65936995Y-134038914D01*
X65929000Y-133970000D01*
X65929000Y-133295000D01*
X65936995Y-133226086D01*
X65943976Y-133210274D01*
X65945213Y-133202468D01*
X65961780Y-133169953D01*
X65981676Y-133124894D01*
X66059894Y-133046676D01*
X66104953Y-133026780D01*
X66137468Y-133010213D01*
X66145274Y-133008976D01*
X66161086Y-133001995D01*
X66230000Y-132994000D01*
X67180000Y-132994000D01*
X67248914Y-133001995D01*
G37*
G36*
X69248914Y-133001995D02*
G01*
X69264726Y-133008976D01*
X69272531Y-133010213D01*
X69305039Y-133026776D01*
X69350106Y-133046676D01*
X69428324Y-133124894D01*
X69448226Y-133169967D01*
X69464786Y-133202468D01*
X69466021Y-133210270D01*
X69473005Y-133226086D01*
X69481000Y-133295000D01*
X69481000Y-133970000D01*
X69473005Y-134038914D01*
X69466021Y-134054729D01*
X69464786Y-134062531D01*
X69448229Y-134095024D01*
X69428324Y-134140106D01*
X69350106Y-134218324D01*
X69305024Y-134238229D01*
X69272531Y-134254786D01*
X69264729Y-134256021D01*
X69248914Y-134263005D01*
X69180000Y-134271000D01*
X68230000Y-134271000D01*
X68161086Y-134263005D01*
X68145270Y-134256021D01*
X68137468Y-134254786D01*
X68104967Y-134238226D01*
X68059894Y-134218324D01*
X67981676Y-134140106D01*
X67961776Y-134095039D01*
X67945213Y-134062531D01*
X67943976Y-134054726D01*
X67936995Y-134038914D01*
X67929000Y-133970000D01*
X67929000Y-133295000D01*
X67936995Y-133226086D01*
X67943976Y-133210274D01*
X67945213Y-133202468D01*
X67961780Y-133169953D01*
X67981676Y-133124894D01*
X68059894Y-133046676D01*
X68104953Y-133026780D01*
X68137468Y-133010213D01*
X68145274Y-133008976D01*
X68161086Y-133001995D01*
X68230000Y-132994000D01*
X69180000Y-132994000D01*
X69248914Y-133001995D01*
G37*
G36*
X110267334Y-130834013D02*
G01*
X110442838Y-130891038D01*
X110607260Y-130974815D01*
X110756553Y-131083283D01*
X110887039Y-131213769D01*
X110995507Y-131363062D01*
X111079284Y-131527484D01*
X111136309Y-131702988D01*
X111165177Y-131885252D01*
X111165177Y-132069788D01*
X111136309Y-132252052D01*
X111079284Y-132427556D01*
X110995507Y-132591978D01*
X110887039Y-132741271D01*
X110756553Y-132871757D01*
X110607260Y-132980225D01*
X110442838Y-133064002D01*
X110267334Y-133121027D01*
X110085070Y-133149895D01*
X109900534Y-133149895D01*
X109718270Y-133121027D01*
X109542766Y-133064002D01*
X109378344Y-132980225D01*
X109229051Y-132871757D01*
X109098565Y-132741271D01*
X108990097Y-132591978D01*
X108906320Y-132427556D01*
X108849295Y-132252052D01*
X108820427Y-132069788D01*
X108820427Y-131885252D01*
X108849295Y-131702988D01*
X108906320Y-131527484D01*
X108990097Y-131363062D01*
X109098565Y-131213769D01*
X109229051Y-131083283D01*
X109378344Y-130974815D01*
X109542766Y-130891038D01*
X109718270Y-130834013D01*
X109900534Y-130805145D01*
X110085070Y-130805145D01*
X110267334Y-130834013D01*
G37*
G36*
X113267334Y-130834013D02*
G01*
X113442838Y-130891038D01*
X113607260Y-130974815D01*
X113756553Y-131083283D01*
X113887039Y-131213769D01*
X113995507Y-131363062D01*
X114079284Y-131527484D01*
X114136309Y-131702988D01*
X114165177Y-131885252D01*
X114165177Y-132069788D01*
X114136309Y-132252052D01*
X114079284Y-132427556D01*
X113995507Y-132591978D01*
X113887039Y-132741271D01*
X113756553Y-132871757D01*
X113607260Y-132980225D01*
X113442838Y-133064002D01*
X113267334Y-133121027D01*
X113085070Y-133149895D01*
X112900534Y-133149895D01*
X112718270Y-133121027D01*
X112542766Y-133064002D01*
X112378344Y-132980225D01*
X112229051Y-132871757D01*
X112098565Y-132741271D01*
X111990097Y-132591978D01*
X111906320Y-132427556D01*
X111849295Y-132252052D01*
X111820427Y-132069788D01*
X111820427Y-131885252D01*
X111849295Y-131702988D01*
X111906320Y-131527484D01*
X111990097Y-131363062D01*
X112098565Y-131213769D01*
X112229051Y-131083283D01*
X112378344Y-130974815D01*
X112542766Y-130891038D01*
X112718270Y-130834013D01*
X112900534Y-130805145D01*
X113085070Y-130805145D01*
X113267334Y-130834013D01*
G37*
G36*
X67248914Y-130926995D02*
G01*
X67264726Y-130933976D01*
X67272531Y-130935213D01*
X67305039Y-130951776D01*
X67350106Y-130971676D01*
X67428324Y-131049894D01*
X67448226Y-131094967D01*
X67464786Y-131127468D01*
X67466021Y-131135270D01*
X67473005Y-131151086D01*
X67481000Y-131220000D01*
X67481000Y-131895000D01*
X67473005Y-131963914D01*
X67466021Y-131979729D01*
X67464786Y-131987531D01*
X67448229Y-132020024D01*
X67428324Y-132065106D01*
X67350106Y-132143324D01*
X67305024Y-132163229D01*
X67272531Y-132179786D01*
X67264729Y-132181021D01*
X67248914Y-132188005D01*
X67180000Y-132196000D01*
X66230000Y-132196000D01*
X66161086Y-132188005D01*
X66145270Y-132181021D01*
X66137468Y-132179786D01*
X66104967Y-132163226D01*
X66059894Y-132143324D01*
X65981676Y-132065106D01*
X65961776Y-132020039D01*
X65945213Y-131987531D01*
X65943976Y-131979726D01*
X65936995Y-131963914D01*
X65929000Y-131895000D01*
X65929000Y-131220000D01*
X65936995Y-131151086D01*
X65943976Y-131135274D01*
X65945213Y-131127468D01*
X65961780Y-131094953D01*
X65981676Y-131049894D01*
X66059894Y-130971676D01*
X66104953Y-130951780D01*
X66137468Y-130935213D01*
X66145274Y-130933976D01*
X66161086Y-130926995D01*
X66230000Y-130919000D01*
X67180000Y-130919000D01*
X67248914Y-130926995D01*
G37*
G36*
X69248914Y-130926995D02*
G01*
X69264726Y-130933976D01*
X69272531Y-130935213D01*
X69305039Y-130951776D01*
X69350106Y-130971676D01*
X69428324Y-131049894D01*
X69448226Y-131094967D01*
X69464786Y-131127468D01*
X69466021Y-131135270D01*
X69473005Y-131151086D01*
X69481000Y-131220000D01*
X69481000Y-131895000D01*
X69473005Y-131963914D01*
X69466021Y-131979729D01*
X69464786Y-131987531D01*
X69448229Y-132020024D01*
X69428324Y-132065106D01*
X69350106Y-132143324D01*
X69305024Y-132163229D01*
X69272531Y-132179786D01*
X69264729Y-132181021D01*
X69248914Y-132188005D01*
X69180000Y-132196000D01*
X68230000Y-132196000D01*
X68161086Y-132188005D01*
X68145270Y-132181021D01*
X68137468Y-132179786D01*
X68104967Y-132163226D01*
X68059894Y-132143324D01*
X67981676Y-132065106D01*
X67961776Y-132020039D01*
X67945213Y-131987531D01*
X67943976Y-131979726D01*
X67936995Y-131963914D01*
X67929000Y-131895000D01*
X67929000Y-131220000D01*
X67936995Y-131151086D01*
X67943976Y-131135274D01*
X67945213Y-131127468D01*
X67961780Y-131094953D01*
X67981676Y-131049894D01*
X68059894Y-130971676D01*
X68104953Y-130951780D01*
X68137468Y-130935213D01*
X68145274Y-130933976D01*
X68161086Y-130926995D01*
X68230000Y-130919000D01*
X69180000Y-130919000D01*
X69248914Y-130926995D01*
G37*
G36*
X62033512Y-130527857D02*
G01*
X62187518Y-130558491D01*
X62332589Y-130618581D01*
X62463149Y-130705819D01*
X62574181Y-130816851D01*
X62661419Y-130947411D01*
X62721509Y-131092482D01*
X62752143Y-131246488D01*
X62752143Y-131403512D01*
X62721509Y-131557518D01*
X62661419Y-131702589D01*
X62574181Y-131833149D01*
X62463149Y-131944181D01*
X62332589Y-132031419D01*
X62187518Y-132091509D01*
X62033512Y-132122143D01*
X61955000Y-132126000D01*
X61951941Y-132126000D01*
X60858059Y-132126000D01*
X60855000Y-132126000D01*
X60776488Y-132122143D01*
X60622482Y-132091509D01*
X60477411Y-132031419D01*
X60346851Y-131944181D01*
X60235819Y-131833149D01*
X60148581Y-131702589D01*
X60088491Y-131557518D01*
X60057857Y-131403512D01*
X60057857Y-131246488D01*
X60088491Y-131092482D01*
X60148581Y-130947411D01*
X60235819Y-130816851D01*
X60346851Y-130705819D01*
X60477411Y-130618581D01*
X60622482Y-130558491D01*
X60776488Y-130527857D01*
X60855000Y-130524000D01*
X61955000Y-130524000D01*
X62033512Y-130527857D01*
G37*
G36*
X71073914Y-130351995D02*
G01*
X71089726Y-130358976D01*
X71097531Y-130360213D01*
X71130039Y-130376776D01*
X71175106Y-130396676D01*
X71253324Y-130474894D01*
X71273226Y-130519967D01*
X71289786Y-130552468D01*
X71291021Y-130560270D01*
X71298005Y-130576086D01*
X71306000Y-130645000D01*
X71306000Y-131545000D01*
X71298005Y-131613914D01*
X71291021Y-131629729D01*
X71289786Y-131637531D01*
X71273229Y-131670024D01*
X71253324Y-131715106D01*
X71175106Y-131793324D01*
X71130024Y-131813229D01*
X71097531Y-131829786D01*
X71089729Y-131831021D01*
X71073914Y-131838005D01*
X71005000Y-131846000D01*
X70355000Y-131846000D01*
X70286086Y-131838005D01*
X70270270Y-131831021D01*
X70262468Y-131829786D01*
X70229967Y-131813226D01*
X70184894Y-131793324D01*
X70106676Y-131715106D01*
X70086776Y-131670039D01*
X70070213Y-131637531D01*
X70068976Y-131629726D01*
X70061995Y-131613914D01*
X70054000Y-131545000D01*
X70054000Y-130645000D01*
X70061995Y-130576086D01*
X70068976Y-130560274D01*
X70070213Y-130552468D01*
X70086780Y-130519953D01*
X70106676Y-130474894D01*
X70184894Y-130396676D01*
X70229953Y-130376780D01*
X70262468Y-130360213D01*
X70270274Y-130358976D01*
X70286086Y-130351995D01*
X70355000Y-130344000D01*
X71005000Y-130344000D01*
X71073914Y-130351995D01*
G37*
G36*
X73123914Y-130351995D02*
G01*
X73139726Y-130358976D01*
X73147531Y-130360213D01*
X73180039Y-130376776D01*
X73225106Y-130396676D01*
X73303324Y-130474894D01*
X73323226Y-130519967D01*
X73339786Y-130552468D01*
X73341021Y-130560270D01*
X73348005Y-130576086D01*
X73356000Y-130645000D01*
X73356000Y-131545000D01*
X73348005Y-131613914D01*
X73341021Y-131629729D01*
X73339786Y-131637531D01*
X73323229Y-131670024D01*
X73303324Y-131715106D01*
X73225106Y-131793324D01*
X73180024Y-131813229D01*
X73147531Y-131829786D01*
X73139729Y-131831021D01*
X73123914Y-131838005D01*
X73055000Y-131846000D01*
X72405000Y-131846000D01*
X72336086Y-131838005D01*
X72320270Y-131831021D01*
X72312468Y-131829786D01*
X72279967Y-131813226D01*
X72234894Y-131793324D01*
X72156676Y-131715106D01*
X72136776Y-131670039D01*
X72120213Y-131637531D01*
X72118976Y-131629726D01*
X72111995Y-131613914D01*
X72104000Y-131545000D01*
X72104000Y-130645000D01*
X72111995Y-130576086D01*
X72118976Y-130560274D01*
X72120213Y-130552468D01*
X72136780Y-130519953D01*
X72156676Y-130474894D01*
X72234894Y-130396676D01*
X72279953Y-130376780D01*
X72312468Y-130360213D01*
X72320274Y-130358976D01*
X72336086Y-130351995D01*
X72405000Y-130344000D01*
X73055000Y-130344000D01*
X73123914Y-130351995D01*
G37*
G36*
X54333512Y-127987857D02*
G01*
X54487518Y-128018491D01*
X54632589Y-128078581D01*
X54763149Y-128165819D01*
X54874181Y-128276851D01*
X54961419Y-128407411D01*
X55021509Y-128552482D01*
X55052143Y-128706488D01*
X55052143Y-128863512D01*
X55021509Y-129017518D01*
X54961419Y-129162589D01*
X54874181Y-129293149D01*
X54763149Y-129404181D01*
X54632589Y-129491419D01*
X54487518Y-129551509D01*
X54333512Y-129582143D01*
X54255000Y-129586000D01*
X54251941Y-129586000D01*
X53158059Y-129586000D01*
X53155000Y-129586000D01*
X53076488Y-129582143D01*
X52922482Y-129551509D01*
X52777411Y-129491419D01*
X52646851Y-129404181D01*
X52535819Y-129293149D01*
X52448581Y-129162589D01*
X52388491Y-129017518D01*
X52357857Y-128863512D01*
X52357857Y-128706488D01*
X52388491Y-128552482D01*
X52448581Y-128407411D01*
X52535819Y-128276851D01*
X52646851Y-128165819D01*
X52777411Y-128078581D01*
X52922482Y-128018491D01*
X53076488Y-127987857D01*
X53155000Y-127984000D01*
X54255000Y-127984000D01*
X54333512Y-127987857D01*
G37*
G36*
X62033512Y-127987857D02*
G01*
X62187518Y-128018491D01*
X62332589Y-128078581D01*
X62463149Y-128165819D01*
X62574181Y-128276851D01*
X62661419Y-128407411D01*
X62721509Y-128552482D01*
X62752143Y-128706488D01*
X62752143Y-128863512D01*
X62721509Y-129017518D01*
X62661419Y-129162589D01*
X62574181Y-129293149D01*
X62463149Y-129404181D01*
X62332589Y-129491419D01*
X62187518Y-129551509D01*
X62033512Y-129582143D01*
X61955000Y-129586000D01*
X61951941Y-129586000D01*
X60858059Y-129586000D01*
X60855000Y-129586000D01*
X60776488Y-129582143D01*
X60622482Y-129551509D01*
X60477411Y-129491419D01*
X60346851Y-129404181D01*
X60235819Y-129293149D01*
X60148581Y-129162589D01*
X60088491Y-129017518D01*
X60057857Y-128863512D01*
X60057857Y-128706488D01*
X60088491Y-128552482D01*
X60148581Y-128407411D01*
X60235819Y-128276851D01*
X60346851Y-128165819D01*
X60477411Y-128078581D01*
X60622482Y-128018491D01*
X60776488Y-127987857D01*
X60855000Y-127984000D01*
X61955000Y-127984000D01*
X62033512Y-127987857D01*
G37*
G36*
X110267334Y-126334013D02*
G01*
X110442838Y-126391038D01*
X110607260Y-126474815D01*
X110756553Y-126583283D01*
X110887039Y-126713769D01*
X110995507Y-126863062D01*
X111079284Y-127027484D01*
X111136309Y-127202988D01*
X111165177Y-127385252D01*
X111165177Y-127569788D01*
X111136309Y-127752052D01*
X111079284Y-127927556D01*
X110995507Y-128091978D01*
X110887039Y-128241271D01*
X110756553Y-128371757D01*
X110607260Y-128480225D01*
X110442838Y-128564002D01*
X110267334Y-128621027D01*
X110085070Y-128649895D01*
X109900534Y-128649895D01*
X109718270Y-128621027D01*
X109542766Y-128564002D01*
X109378344Y-128480225D01*
X109229051Y-128371757D01*
X109098565Y-128241271D01*
X108990097Y-128091978D01*
X108906320Y-127927556D01*
X108849295Y-127752052D01*
X108820427Y-127569788D01*
X108820427Y-127385252D01*
X108849295Y-127202988D01*
X108906320Y-127027484D01*
X108990097Y-126863062D01*
X109098565Y-126713769D01*
X109229051Y-126583283D01*
X109378344Y-126474815D01*
X109542766Y-126391038D01*
X109718270Y-126334013D01*
X109900534Y-126305145D01*
X110085070Y-126305145D01*
X110267334Y-126334013D01*
G37*
G36*
X113267334Y-126334013D02*
G01*
X113442838Y-126391038D01*
X113607260Y-126474815D01*
X113756553Y-126583283D01*
X113887039Y-126713769D01*
X113995507Y-126863062D01*
X114079284Y-127027484D01*
X114136309Y-127202988D01*
X114165177Y-127385252D01*
X114165177Y-127569788D01*
X114136309Y-127752052D01*
X114079284Y-127927556D01*
X113995507Y-128091978D01*
X113887039Y-128241271D01*
X113756553Y-128371757D01*
X113607260Y-128480225D01*
X113442838Y-128564002D01*
X113267334Y-128621027D01*
X113085070Y-128649895D01*
X112900534Y-128649895D01*
X112718270Y-128621027D01*
X112542766Y-128564002D01*
X112378344Y-128480225D01*
X112229051Y-128371757D01*
X112098565Y-128241271D01*
X111990097Y-128091978D01*
X111906320Y-127927556D01*
X111849295Y-127752052D01*
X111820427Y-127569788D01*
X111820427Y-127385252D01*
X111849295Y-127202988D01*
X111906320Y-127027484D01*
X111990097Y-126863062D01*
X112098565Y-126713769D01*
X112229051Y-126583283D01*
X112378344Y-126474815D01*
X112542766Y-126391038D01*
X112718270Y-126334013D01*
X112900534Y-126305145D01*
X113085070Y-126305145D01*
X113267334Y-126334013D01*
G37*
G36*
X110270933Y-121845253D02*
G01*
X110446437Y-121902278D01*
X110610859Y-121986055D01*
X110760152Y-122094523D01*
X110890638Y-122225009D01*
X110999106Y-122374302D01*
X111082883Y-122538724D01*
X111139908Y-122714228D01*
X111168776Y-122896492D01*
X111168776Y-123081028D01*
X111139908Y-123263292D01*
X111082883Y-123438796D01*
X110999106Y-123603218D01*
X110890638Y-123752511D01*
X110760152Y-123882997D01*
X110610859Y-123991465D01*
X110446437Y-124075242D01*
X110270933Y-124132267D01*
X110088669Y-124161135D01*
X109904133Y-124161135D01*
X109721869Y-124132267D01*
X109546365Y-124075242D01*
X109381943Y-123991465D01*
X109232650Y-123882997D01*
X109102164Y-123752511D01*
X108993696Y-123603218D01*
X108909919Y-123438796D01*
X108852894Y-123263292D01*
X108824026Y-123081028D01*
X108824026Y-122896492D01*
X108852894Y-122714228D01*
X108909919Y-122538724D01*
X108993696Y-122374302D01*
X109102164Y-122225009D01*
X109232650Y-122094523D01*
X109381943Y-121986055D01*
X109546365Y-121902278D01*
X109721869Y-121845253D01*
X109904133Y-121816385D01*
X110088669Y-121816385D01*
X110270933Y-121845253D01*
G37*
G36*
X113270933Y-121845253D02*
G01*
X113446437Y-121902278D01*
X113610859Y-121986055D01*
X113760152Y-122094523D01*
X113890638Y-122225009D01*
X113999106Y-122374302D01*
X114082883Y-122538724D01*
X114139908Y-122714228D01*
X114168776Y-122896492D01*
X114168776Y-123081028D01*
X114139908Y-123263292D01*
X114082883Y-123438796D01*
X113999106Y-123603218D01*
X113890638Y-123752511D01*
X113760152Y-123882997D01*
X113610859Y-123991465D01*
X113446437Y-124075242D01*
X113270933Y-124132267D01*
X113088669Y-124161135D01*
X112904133Y-124161135D01*
X112721869Y-124132267D01*
X112546365Y-124075242D01*
X112381943Y-123991465D01*
X112232650Y-123882997D01*
X112102164Y-123752511D01*
X111993696Y-123603218D01*
X111909919Y-123438796D01*
X111852894Y-123263292D01*
X111824026Y-123081028D01*
X111824026Y-122896492D01*
X111852894Y-122714228D01*
X111909919Y-122538724D01*
X111993696Y-122374302D01*
X112102164Y-122225009D01*
X112232650Y-122094523D01*
X112381943Y-121986055D01*
X112546365Y-121902278D01*
X112721869Y-121845253D01*
X112904133Y-121816385D01*
X113088669Y-121816385D01*
X113270933Y-121845253D01*
G37*
G36*
X102083917Y-116648582D02*
G01*
X102100462Y-116659638D01*
X102111518Y-116676183D01*
X102115400Y-116695700D01*
X102115400Y-118676900D01*
X102111518Y-118696417D01*
X102100462Y-118712962D01*
X102083917Y-118724018D01*
X102064400Y-118727900D01*
X101505600Y-118727900D01*
X101486083Y-118724018D01*
X101469538Y-118712962D01*
X101458482Y-118696417D01*
X101454600Y-118676900D01*
X101454600Y-116695700D01*
X101458482Y-116676183D01*
X101469538Y-116659638D01*
X101486083Y-116648582D01*
X101505600Y-116644700D01*
X102064400Y-116644700D01*
X102083917Y-116648582D01*
G37*
G36*
X103353917Y-116648582D02*
G01*
X103370462Y-116659638D01*
X103381518Y-116676183D01*
X103385400Y-116695700D01*
X103385400Y-118676900D01*
X103381518Y-118696417D01*
X103370462Y-118712962D01*
X103353917Y-118724018D01*
X103334400Y-118727900D01*
X102775600Y-118727900D01*
X102756083Y-118724018D01*
X102739538Y-118712962D01*
X102728482Y-118696417D01*
X102724600Y-118676900D01*
X102724600Y-116695700D01*
X102728482Y-116676183D01*
X102739538Y-116659638D01*
X102756083Y-116648582D01*
X102775600Y-116644700D01*
X103334400Y-116644700D01*
X103353917Y-116648582D01*
G37*
G36*
X104623917Y-116648582D02*
G01*
X104640462Y-116659638D01*
X104651518Y-116676183D01*
X104655400Y-116695700D01*
X104655400Y-118676900D01*
X104651518Y-118696417D01*
X104640462Y-118712962D01*
X104623917Y-118724018D01*
X104604400Y-118727900D01*
X104045600Y-118727900D01*
X104026083Y-118724018D01*
X104009538Y-118712962D01*
X103998482Y-118696417D01*
X103994600Y-118676900D01*
X103994600Y-116695700D01*
X103998482Y-116676183D01*
X104009538Y-116659638D01*
X104026083Y-116648582D01*
X104045600Y-116644700D01*
X104604400Y-116644700D01*
X104623917Y-116648582D01*
G37*
G36*
X105893917Y-116648582D02*
G01*
X105910462Y-116659638D01*
X105921518Y-116676183D01*
X105925400Y-116695700D01*
X105925400Y-118676900D01*
X105921518Y-118696417D01*
X105910462Y-118712962D01*
X105893917Y-118724018D01*
X105874400Y-118727900D01*
X105315600Y-118727900D01*
X105296083Y-118724018D01*
X105279538Y-118712962D01*
X105268482Y-118696417D01*
X105264600Y-118676900D01*
X105264600Y-116695700D01*
X105268482Y-116676183D01*
X105279538Y-116659638D01*
X105296083Y-116648582D01*
X105315600Y-116644700D01*
X105874400Y-116644700D01*
X105893917Y-116648582D01*
G37*
G36*
X107163917Y-116648582D02*
G01*
X107180462Y-116659638D01*
X107191518Y-116676183D01*
X107195400Y-116695700D01*
X107195400Y-118676900D01*
X107191518Y-118696417D01*
X107180462Y-118712962D01*
X107163917Y-118724018D01*
X107144400Y-118727900D01*
X106585600Y-118727900D01*
X106566083Y-118724018D01*
X106549538Y-118712962D01*
X106538482Y-118696417D01*
X106534600Y-118676900D01*
X106534600Y-116695700D01*
X106538482Y-116676183D01*
X106549538Y-116659638D01*
X106566083Y-116648582D01*
X106585600Y-116644700D01*
X107144400Y-116644700D01*
X107163917Y-116648582D01*
G37*
G36*
X108433917Y-116648582D02*
G01*
X108450462Y-116659638D01*
X108461518Y-116676183D01*
X108465400Y-116695700D01*
X108465400Y-118676900D01*
X108461518Y-118696417D01*
X108450462Y-118712962D01*
X108433917Y-118724018D01*
X108414400Y-118727900D01*
X107855600Y-118727900D01*
X107836083Y-118724018D01*
X107819538Y-118712962D01*
X107808482Y-118696417D01*
X107804600Y-118676900D01*
X107804600Y-116695700D01*
X107808482Y-116676183D01*
X107819538Y-116659638D01*
X107836083Y-116648582D01*
X107855600Y-116644700D01*
X108414400Y-116644700D01*
X108433917Y-116648582D01*
G37*
G36*
X109703917Y-116648582D02*
G01*
X109720462Y-116659638D01*
X109731518Y-116676183D01*
X109735400Y-116695700D01*
X109735400Y-118676900D01*
X109731518Y-118696417D01*
X109720462Y-118712962D01*
X109703917Y-118724018D01*
X109684400Y-118727900D01*
X109125600Y-118727900D01*
X109106083Y-118724018D01*
X109089538Y-118712962D01*
X109078482Y-118696417D01*
X109074600Y-118676900D01*
X109074600Y-116695700D01*
X109078482Y-116676183D01*
X109089538Y-116659638D01*
X109106083Y-116648582D01*
X109125600Y-116644700D01*
X109684400Y-116644700D01*
X109703917Y-116648582D01*
G37*
G36*
X110973917Y-116648582D02*
G01*
X110990462Y-116659638D01*
X111001518Y-116676183D01*
X111005400Y-116695700D01*
X111005400Y-118676900D01*
X111001518Y-118696417D01*
X110990462Y-118712962D01*
X110973917Y-118724018D01*
X110954400Y-118727900D01*
X110395600Y-118727900D01*
X110376083Y-118724018D01*
X110359538Y-118712962D01*
X110348482Y-118696417D01*
X110344600Y-118676900D01*
X110344600Y-116695700D01*
X110348482Y-116676183D01*
X110359538Y-116659638D01*
X110376083Y-116648582D01*
X110395600Y-116644700D01*
X110954400Y-116644700D01*
X110973917Y-116648582D01*
G37*
G36*
X112243917Y-116648582D02*
G01*
X112260462Y-116659638D01*
X112271518Y-116676183D01*
X112275400Y-116695700D01*
X112275400Y-118676900D01*
X112271518Y-118696417D01*
X112260462Y-118712962D01*
X112243917Y-118724018D01*
X112224400Y-118727900D01*
X111665600Y-118727900D01*
X111646083Y-118724018D01*
X111629538Y-118712962D01*
X111618482Y-118696417D01*
X111614600Y-118676900D01*
X111614600Y-116695700D01*
X111618482Y-116676183D01*
X111629538Y-116659638D01*
X111646083Y-116648582D01*
X111665600Y-116644700D01*
X112224400Y-116644700D01*
X112243917Y-116648582D01*
G37*
G36*
X113513917Y-116648582D02*
G01*
X113530462Y-116659638D01*
X113541518Y-116676183D01*
X113545400Y-116695700D01*
X113545400Y-118676900D01*
X113541518Y-118696417D01*
X113530462Y-118712962D01*
X113513917Y-118724018D01*
X113494400Y-118727900D01*
X112935600Y-118727900D01*
X112916083Y-118724018D01*
X112899538Y-118712962D01*
X112888482Y-118696417D01*
X112884600Y-118676900D01*
X112884600Y-116695700D01*
X112888482Y-116676183D01*
X112899538Y-116659638D01*
X112916083Y-116648582D01*
X112935600Y-116644700D01*
X113494400Y-116644700D01*
X113513917Y-116648582D01*
G37*
G36*
X102083917Y-107275982D02*
G01*
X102100462Y-107287038D01*
X102111518Y-107303583D01*
X102115400Y-107323100D01*
X102115400Y-109304300D01*
X102111518Y-109323817D01*
X102100462Y-109340362D01*
X102083917Y-109351418D01*
X102064400Y-109355300D01*
X101505600Y-109355300D01*
X101486083Y-109351418D01*
X101469538Y-109340362D01*
X101458482Y-109323817D01*
X101454600Y-109304300D01*
X101454600Y-107323100D01*
X101458482Y-107303583D01*
X101469538Y-107287038D01*
X101486083Y-107275982D01*
X101505600Y-107272100D01*
X102064400Y-107272100D01*
X102083917Y-107275982D01*
G37*
G36*
X103353917Y-107275982D02*
G01*
X103370462Y-107287038D01*
X103381518Y-107303583D01*
X103385400Y-107323100D01*
X103385400Y-109304300D01*
X103381518Y-109323817D01*
X103370462Y-109340362D01*
X103353917Y-109351418D01*
X103334400Y-109355300D01*
X102775600Y-109355300D01*
X102756083Y-109351418D01*
X102739538Y-109340362D01*
X102728482Y-109323817D01*
X102724600Y-109304300D01*
X102724600Y-107323100D01*
X102728482Y-107303583D01*
X102739538Y-107287038D01*
X102756083Y-107275982D01*
X102775600Y-107272100D01*
X103334400Y-107272100D01*
X103353917Y-107275982D01*
G37*
G36*
X104623917Y-107275982D02*
G01*
X104640462Y-107287038D01*
X104651518Y-107303583D01*
X104655400Y-107323100D01*
X104655400Y-109304300D01*
X104651518Y-109323817D01*
X104640462Y-109340362D01*
X104623917Y-109351418D01*
X104604400Y-109355300D01*
X104045600Y-109355300D01*
X104026083Y-109351418D01*
X104009538Y-109340362D01*
X103998482Y-109323817D01*
X103994600Y-109304300D01*
X103994600Y-107323100D01*
X103998482Y-107303583D01*
X104009538Y-107287038D01*
X104026083Y-107275982D01*
X104045600Y-107272100D01*
X104604400Y-107272100D01*
X104623917Y-107275982D01*
G37*
G36*
X105893917Y-107275982D02*
G01*
X105910462Y-107287038D01*
X105921518Y-107303583D01*
X105925400Y-107323100D01*
X105925400Y-109304300D01*
X105921518Y-109323817D01*
X105910462Y-109340362D01*
X105893917Y-109351418D01*
X105874400Y-109355300D01*
X105315600Y-109355300D01*
X105296083Y-109351418D01*
X105279538Y-109340362D01*
X105268482Y-109323817D01*
X105264600Y-109304300D01*
X105264600Y-107323100D01*
X105268482Y-107303583D01*
X105279538Y-107287038D01*
X105296083Y-107275982D01*
X105315600Y-107272100D01*
X105874400Y-107272100D01*
X105893917Y-107275982D01*
G37*
G36*
X107163917Y-107275982D02*
G01*
X107180462Y-107287038D01*
X107191518Y-107303583D01*
X107195400Y-107323100D01*
X107195400Y-109304300D01*
X107191518Y-109323817D01*
X107180462Y-109340362D01*
X107163917Y-109351418D01*
X107144400Y-109355300D01*
X106585600Y-109355300D01*
X106566083Y-109351418D01*
X106549538Y-109340362D01*
X106538482Y-109323817D01*
X106534600Y-109304300D01*
X106534600Y-107323100D01*
X106538482Y-107303583D01*
X106549538Y-107287038D01*
X106566083Y-107275982D01*
X106585600Y-107272100D01*
X107144400Y-107272100D01*
X107163917Y-107275982D01*
G37*
G36*
X108433917Y-107275982D02*
G01*
X108450462Y-107287038D01*
X108461518Y-107303583D01*
X108465400Y-107323100D01*
X108465400Y-109304300D01*
X108461518Y-109323817D01*
X108450462Y-109340362D01*
X108433917Y-109351418D01*
X108414400Y-109355300D01*
X107855600Y-109355300D01*
X107836083Y-109351418D01*
X107819538Y-109340362D01*
X107808482Y-109323817D01*
X107804600Y-109304300D01*
X107804600Y-107323100D01*
X107808482Y-107303583D01*
X107819538Y-107287038D01*
X107836083Y-107275982D01*
X107855600Y-107272100D01*
X108414400Y-107272100D01*
X108433917Y-107275982D01*
G37*
G36*
X109703917Y-107275982D02*
G01*
X109720462Y-107287038D01*
X109731518Y-107303583D01*
X109735400Y-107323100D01*
X109735400Y-109304300D01*
X109731518Y-109323817D01*
X109720462Y-109340362D01*
X109703917Y-109351418D01*
X109684400Y-109355300D01*
X109125600Y-109355300D01*
X109106083Y-109351418D01*
X109089538Y-109340362D01*
X109078482Y-109323817D01*
X109074600Y-109304300D01*
X109074600Y-107323100D01*
X109078482Y-107303583D01*
X109089538Y-107287038D01*
X109106083Y-107275982D01*
X109125600Y-107272100D01*
X109684400Y-107272100D01*
X109703917Y-107275982D01*
G37*
G36*
X110973917Y-107275982D02*
G01*
X110990462Y-107287038D01*
X111001518Y-107303583D01*
X111005400Y-107323100D01*
X111005400Y-109304300D01*
X111001518Y-109323817D01*
X110990462Y-109340362D01*
X110973917Y-109351418D01*
X110954400Y-109355300D01*
X110395600Y-109355300D01*
X110376083Y-109351418D01*
X110359538Y-109340362D01*
X110348482Y-109323817D01*
X110344600Y-109304300D01*
X110344600Y-107323100D01*
X110348482Y-107303583D01*
X110359538Y-107287038D01*
X110376083Y-107275982D01*
X110395600Y-107272100D01*
X110954400Y-107272100D01*
X110973917Y-107275982D01*
G37*
G36*
X112243917Y-107275982D02*
G01*
X112260462Y-107287038D01*
X112271518Y-107303583D01*
X112275400Y-107323100D01*
X112275400Y-109304300D01*
X112271518Y-109323817D01*
X112260462Y-109340362D01*
X112243917Y-109351418D01*
X112224400Y-109355300D01*
X111665600Y-109355300D01*
X111646083Y-109351418D01*
X111629538Y-109340362D01*
X111618482Y-109323817D01*
X111614600Y-109304300D01*
X111614600Y-107323100D01*
X111618482Y-107303583D01*
X111629538Y-107287038D01*
X111646083Y-107275982D01*
X111665600Y-107272100D01*
X112224400Y-107272100D01*
X112243917Y-107275982D01*
G37*
G36*
X113513917Y-107275982D02*
G01*
X113530462Y-107287038D01*
X113541518Y-107303583D01*
X113545400Y-107323100D01*
X113545400Y-109304300D01*
X113541518Y-109323817D01*
X113530462Y-109340362D01*
X113513917Y-109351418D01*
X113494400Y-109355300D01*
X112935600Y-109355300D01*
X112916083Y-109351418D01*
X112899538Y-109340362D01*
X112888482Y-109323817D01*
X112884600Y-109304300D01*
X112884600Y-107323100D01*
X112888482Y-107303583D01*
X112899538Y-107287038D01*
X112916083Y-107275982D01*
X112935600Y-107272100D01*
X113494400Y-107272100D01*
X113513917Y-107275982D01*
G37*
G36*
X61796795Y-103260777D02*
G01*
X61808339Y-103260777D01*
X61853451Y-103269750D01*
X61951030Y-103285205D01*
X61982414Y-103295402D01*
X62011047Y-103301098D01*
X62051458Y-103317836D01*
X62108315Y-103336311D01*
X62161574Y-103363447D01*
X62201994Y-103380190D01*
X62226275Y-103396414D01*
X62255667Y-103411390D01*
X62335570Y-103469443D01*
X62373841Y-103495015D01*
X62382008Y-103503182D01*
X62389458Y-103508595D01*
X62506404Y-103625541D01*
X62511816Y-103632990D01*
X62519985Y-103641159D01*
X62545560Y-103679434D01*
X62603609Y-103759332D01*
X62618583Y-103788721D01*
X62634810Y-103813006D01*
X62651554Y-103853430D01*
X62678688Y-103906684D01*
X62697159Y-103963533D01*
X62713902Y-104003953D01*
X62719598Y-104032590D01*
X62729794Y-104063969D01*
X62745248Y-104161540D01*
X62754223Y-104206661D01*
X62754223Y-104218205D01*
X62755665Y-104227310D01*
X62755665Y-104392689D01*
X62754223Y-104401793D01*
X62754223Y-104413339D01*
X62745247Y-104458463D01*
X62729794Y-104556030D01*
X62719598Y-104587406D01*
X62713902Y-104616047D01*
X62697158Y-104656469D01*
X62678688Y-104713315D01*
X62651556Y-104766564D01*
X62634810Y-104806994D01*
X62618581Y-104831281D01*
X62603609Y-104860667D01*
X62545568Y-104940552D01*
X62519985Y-104978841D01*
X62511813Y-104987012D01*
X62506404Y-104994458D01*
X62389458Y-105111404D01*
X62382012Y-105116813D01*
X62373841Y-105124985D01*
X62335552Y-105150568D01*
X62255667Y-105208609D01*
X62226281Y-105223581D01*
X62201994Y-105239810D01*
X62161564Y-105256556D01*
X62108315Y-105283688D01*
X62051469Y-105302158D01*
X62011047Y-105318902D01*
X61982406Y-105324598D01*
X61951030Y-105334794D01*
X61853461Y-105350247D01*
X61808339Y-105359223D01*
X61796794Y-105359223D01*
X61787690Y-105360665D01*
X61622310Y-105360665D01*
X61613206Y-105359223D01*
X61601661Y-105359223D01*
X61556540Y-105350248D01*
X61458969Y-105334794D01*
X61427590Y-105324598D01*
X61398953Y-105318902D01*
X61358533Y-105302159D01*
X61301684Y-105283688D01*
X61248430Y-105256554D01*
X61208006Y-105239810D01*
X61183721Y-105223583D01*
X61154332Y-105208609D01*
X61074434Y-105150560D01*
X61036159Y-105124985D01*
X61027990Y-105116816D01*
X61020541Y-105111404D01*
X60903595Y-104994458D01*
X60898182Y-104987008D01*
X60890015Y-104978841D01*
X60864443Y-104940570D01*
X60806390Y-104860667D01*
X60791414Y-104831275D01*
X60775190Y-104806994D01*
X60758447Y-104766574D01*
X60731311Y-104713315D01*
X60712836Y-104656458D01*
X60696098Y-104616047D01*
X60690402Y-104587414D01*
X60680205Y-104556030D01*
X60664750Y-104458453D01*
X60655777Y-104413339D01*
X60655777Y-104401793D01*
X60654335Y-104392689D01*
X60654335Y-104227310D01*
X60655777Y-104218205D01*
X60655777Y-104206661D01*
X60664750Y-104161550D01*
X60680205Y-104063969D01*
X60690403Y-104032582D01*
X60696098Y-104003953D01*
X60712835Y-103963544D01*
X60731311Y-103906684D01*
X60758450Y-103853419D01*
X60775190Y-103813006D01*
X60791412Y-103788728D01*
X60806390Y-103759332D01*
X60864451Y-103679417D01*
X60890015Y-103641159D01*
X60898180Y-103632993D01*
X60903595Y-103625541D01*
X61020541Y-103508595D01*
X61027993Y-103503180D01*
X61036159Y-103495015D01*
X61074417Y-103469451D01*
X61154332Y-103411390D01*
X61183728Y-103396412D01*
X61208006Y-103380190D01*
X61248419Y-103363450D01*
X61301684Y-103336311D01*
X61358544Y-103317835D01*
X61398953Y-103301098D01*
X61427582Y-103295403D01*
X61458969Y-103285205D01*
X61556550Y-103269750D01*
X61601661Y-103260777D01*
X61613205Y-103260777D01*
X61622310Y-103259335D01*
X61787690Y-103259335D01*
X61796795Y-103260777D01*
G37*
G36*
X110270933Y-101845253D02*
G01*
X110446437Y-101902278D01*
X110610859Y-101986055D01*
X110760152Y-102094523D01*
X110890638Y-102225009D01*
X110999106Y-102374302D01*
X111082883Y-102538724D01*
X111139908Y-102714228D01*
X111168776Y-102896492D01*
X111168776Y-103081028D01*
X111139908Y-103263292D01*
X111082883Y-103438796D01*
X110999106Y-103603218D01*
X110890638Y-103752511D01*
X110760152Y-103882997D01*
X110610859Y-103991465D01*
X110446437Y-104075242D01*
X110270933Y-104132267D01*
X110088669Y-104161135D01*
X109904133Y-104161135D01*
X109721869Y-104132267D01*
X109546365Y-104075242D01*
X109381943Y-103991465D01*
X109232650Y-103882997D01*
X109102164Y-103752511D01*
X108993696Y-103603218D01*
X108909919Y-103438796D01*
X108852894Y-103263292D01*
X108824026Y-103081028D01*
X108824026Y-102896492D01*
X108852894Y-102714228D01*
X108909919Y-102538724D01*
X108993696Y-102374302D01*
X109102164Y-102225009D01*
X109232650Y-102094523D01*
X109381943Y-101986055D01*
X109546365Y-101902278D01*
X109721869Y-101845253D01*
X109904133Y-101816385D01*
X110088669Y-101816385D01*
X110270933Y-101845253D01*
G37*
G36*
X113270933Y-101845253D02*
G01*
X113446437Y-101902278D01*
X113610859Y-101986055D01*
X113760152Y-102094523D01*
X113890638Y-102225009D01*
X113999106Y-102374302D01*
X114082883Y-102538724D01*
X114139908Y-102714228D01*
X114168776Y-102896492D01*
X114168776Y-103081028D01*
X114139908Y-103263292D01*
X114082883Y-103438796D01*
X113999106Y-103603218D01*
X113890638Y-103752511D01*
X113760152Y-103882997D01*
X113610859Y-103991465D01*
X113446437Y-104075242D01*
X113270933Y-104132267D01*
X113088669Y-104161135D01*
X112904133Y-104161135D01*
X112721869Y-104132267D01*
X112546365Y-104075242D01*
X112381943Y-103991465D01*
X112232650Y-103882997D01*
X112102164Y-103752511D01*
X111993696Y-103603218D01*
X111909919Y-103438796D01*
X111852894Y-103263292D01*
X111824026Y-103081028D01*
X111824026Y-102896492D01*
X111852894Y-102714228D01*
X111909919Y-102538724D01*
X111993696Y-102374302D01*
X112102164Y-102225009D01*
X112232650Y-102094523D01*
X112381943Y-101986055D01*
X112546365Y-101902278D01*
X112721869Y-101845253D01*
X112904133Y-101816385D01*
X113088669Y-101816385D01*
X113270933Y-101845253D01*
G37*
G36*
X67002568Y-101052773D02*
G01*
X67138312Y-101109000D01*
X67260478Y-101190629D01*
X67364371Y-101294522D01*
X67446000Y-101416688D01*
X67502227Y-101552432D01*
X67530891Y-101696536D01*
X67530891Y-101843464D01*
X67502227Y-101987568D01*
X67446000Y-102123312D01*
X67364371Y-102245478D01*
X67260478Y-102349371D01*
X67138312Y-102431000D01*
X67002568Y-102487227D01*
X66858464Y-102515891D01*
X66711536Y-102515891D01*
X66567432Y-102487227D01*
X66431688Y-102431000D01*
X66309522Y-102349371D01*
X66205629Y-102245478D01*
X66124000Y-102123312D01*
X66067773Y-101987568D01*
X66039109Y-101843464D01*
X66039109Y-101696536D01*
X66067773Y-101552432D01*
X66124000Y-101416688D01*
X66205629Y-101294522D01*
X66309522Y-101190629D01*
X66431688Y-101109000D01*
X66567432Y-101052773D01*
X66711536Y-101024109D01*
X66858464Y-101024109D01*
X67002568Y-101052773D01*
G37*
G36*
X67002568Y-98512773D02*
G01*
X67138312Y-98569000D01*
X67260478Y-98650629D01*
X67364371Y-98754522D01*
X67446000Y-98876688D01*
X67502227Y-99012432D01*
X67530891Y-99156536D01*
X67530891Y-99303464D01*
X67502227Y-99447568D01*
X67446000Y-99583312D01*
X67364371Y-99705478D01*
X67260478Y-99809371D01*
X67138312Y-99891000D01*
X67002568Y-99947227D01*
X66858464Y-99975891D01*
X66711536Y-99975891D01*
X66567432Y-99947227D01*
X66431688Y-99891000D01*
X66309522Y-99809371D01*
X66205629Y-99705478D01*
X66124000Y-99583312D01*
X66067773Y-99447568D01*
X66039109Y-99303464D01*
X66039109Y-99156536D01*
X66067773Y-99012432D01*
X66124000Y-98876688D01*
X66205629Y-98754522D01*
X66309522Y-98650629D01*
X66431688Y-98569000D01*
X66567432Y-98512773D01*
X66711536Y-98484109D01*
X66858464Y-98484109D01*
X67002568Y-98512773D01*
G37*
G36*
X110267334Y-97334013D02*
G01*
X110442838Y-97391038D01*
X110607260Y-97474815D01*
X110756553Y-97583283D01*
X110887039Y-97713769D01*
X110995507Y-97863062D01*
X111079284Y-98027484D01*
X111136309Y-98202988D01*
X111165177Y-98385252D01*
X111165177Y-98569788D01*
X111136309Y-98752052D01*
X111079284Y-98927556D01*
X110995507Y-99091978D01*
X110887039Y-99241271D01*
X110756553Y-99371757D01*
X110607260Y-99480225D01*
X110442838Y-99564002D01*
X110267334Y-99621027D01*
X110085070Y-99649895D01*
X109900534Y-99649895D01*
X109718270Y-99621027D01*
X109542766Y-99564002D01*
X109378344Y-99480225D01*
X109229051Y-99371757D01*
X109098565Y-99241271D01*
X108990097Y-99091978D01*
X108906320Y-98927556D01*
X108849295Y-98752052D01*
X108820427Y-98569788D01*
X108820427Y-98385252D01*
X108849295Y-98202988D01*
X108906320Y-98027484D01*
X108990097Y-97863062D01*
X109098565Y-97713769D01*
X109229051Y-97583283D01*
X109378344Y-97474815D01*
X109542766Y-97391038D01*
X109718270Y-97334013D01*
X109900534Y-97305145D01*
X110085070Y-97305145D01*
X110267334Y-97334013D01*
G37*
G36*
X113267334Y-97334013D02*
G01*
X113442838Y-97391038D01*
X113607260Y-97474815D01*
X113756553Y-97583283D01*
X113887039Y-97713769D01*
X113995507Y-97863062D01*
X114079284Y-98027484D01*
X114136309Y-98202988D01*
X114165177Y-98385252D01*
X114165177Y-98569788D01*
X114136309Y-98752052D01*
X114079284Y-98927556D01*
X113995507Y-99091978D01*
X113887039Y-99241271D01*
X113756553Y-99371757D01*
X113607260Y-99480225D01*
X113442838Y-99564002D01*
X113267334Y-99621027D01*
X113085070Y-99649895D01*
X112900534Y-99649895D01*
X112718270Y-99621027D01*
X112542766Y-99564002D01*
X112378344Y-99480225D01*
X112229051Y-99371757D01*
X112098565Y-99241271D01*
X111990097Y-99091978D01*
X111906320Y-98927556D01*
X111849295Y-98752052D01*
X111820427Y-98569788D01*
X111820427Y-98385252D01*
X111849295Y-98202988D01*
X111906320Y-98027484D01*
X111990097Y-97863062D01*
X112098565Y-97713769D01*
X112229051Y-97583283D01*
X112378344Y-97474815D01*
X112542766Y-97391038D01*
X112718270Y-97334013D01*
X112900534Y-97305145D01*
X113085070Y-97305145D01*
X113267334Y-97334013D01*
G37*
G36*
X61796795Y-93100777D02*
G01*
X61808339Y-93100777D01*
X61853451Y-93109750D01*
X61951030Y-93125205D01*
X61982414Y-93135402D01*
X62011047Y-93141098D01*
X62051458Y-93157836D01*
X62108315Y-93176311D01*
X62161574Y-93203447D01*
X62201994Y-93220190D01*
X62226275Y-93236414D01*
X62255667Y-93251390D01*
X62335570Y-93309443D01*
X62373841Y-93335015D01*
X62382008Y-93343182D01*
X62389458Y-93348595D01*
X62506404Y-93465541D01*
X62511816Y-93472990D01*
X62519985Y-93481159D01*
X62545560Y-93519434D01*
X62603609Y-93599332D01*
X62618583Y-93628721D01*
X62634810Y-93653006D01*
X62651554Y-93693430D01*
X62678688Y-93746684D01*
X62697159Y-93803533D01*
X62713902Y-93843953D01*
X62719598Y-93872590D01*
X62729794Y-93903969D01*
X62745248Y-94001540D01*
X62754223Y-94046661D01*
X62754223Y-94058205D01*
X62755665Y-94067310D01*
X62755665Y-94232689D01*
X62754223Y-94241793D01*
X62754223Y-94253339D01*
X62745247Y-94298463D01*
X62729794Y-94396030D01*
X62719598Y-94427406D01*
X62713902Y-94456047D01*
X62697158Y-94496469D01*
X62678688Y-94553315D01*
X62651556Y-94606564D01*
X62634810Y-94646994D01*
X62618581Y-94671281D01*
X62603609Y-94700667D01*
X62545568Y-94780552D01*
X62519985Y-94818841D01*
X62511813Y-94827012D01*
X62506404Y-94834458D01*
X62389458Y-94951404D01*
X62382012Y-94956813D01*
X62373841Y-94964985D01*
X62335552Y-94990568D01*
X62255667Y-95048609D01*
X62226281Y-95063581D01*
X62201994Y-95079810D01*
X62161564Y-95096556D01*
X62108315Y-95123688D01*
X62051469Y-95142158D01*
X62011047Y-95158902D01*
X61982406Y-95164598D01*
X61951030Y-95174794D01*
X61853461Y-95190247D01*
X61808339Y-95199223D01*
X61796794Y-95199223D01*
X61787690Y-95200665D01*
X61622310Y-95200665D01*
X61613206Y-95199223D01*
X61601661Y-95199223D01*
X61556540Y-95190248D01*
X61458969Y-95174794D01*
X61427590Y-95164598D01*
X61398953Y-95158902D01*
X61358533Y-95142159D01*
X61301684Y-95123688D01*
X61248430Y-95096554D01*
X61208006Y-95079810D01*
X61183721Y-95063583D01*
X61154332Y-95048609D01*
X61074434Y-94990560D01*
X61036159Y-94964985D01*
X61027990Y-94956816D01*
X61020541Y-94951404D01*
X60903595Y-94834458D01*
X60898182Y-94827008D01*
X60890015Y-94818841D01*
X60864443Y-94780570D01*
X60806390Y-94700667D01*
X60791414Y-94671275D01*
X60775190Y-94646994D01*
X60758447Y-94606574D01*
X60731311Y-94553315D01*
X60712836Y-94496458D01*
X60696098Y-94456047D01*
X60690401Y-94427408D01*
X60680205Y-94396030D01*
X60664750Y-94298453D01*
X60655777Y-94253339D01*
X60655777Y-94241793D01*
X60654335Y-94232689D01*
X60654335Y-94067310D01*
X60655777Y-94058205D01*
X60655777Y-94046661D01*
X60664750Y-94001550D01*
X60680205Y-93903969D01*
X60690403Y-93872582D01*
X60696098Y-93843953D01*
X60712835Y-93803544D01*
X60731311Y-93746684D01*
X60758450Y-93693419D01*
X60775190Y-93653006D01*
X60791412Y-93628728D01*
X60806390Y-93599332D01*
X60864451Y-93519417D01*
X60890015Y-93481159D01*
X60898180Y-93472993D01*
X60903595Y-93465541D01*
X61020541Y-93348595D01*
X61027993Y-93343180D01*
X61036159Y-93335015D01*
X61074417Y-93309451D01*
X61154332Y-93251390D01*
X61183728Y-93236412D01*
X61208006Y-93220190D01*
X61248419Y-93203450D01*
X61301684Y-93176311D01*
X61358544Y-93157835D01*
X61398953Y-93141098D01*
X61427582Y-93135403D01*
X61458969Y-93125205D01*
X61556550Y-93109750D01*
X61601661Y-93100777D01*
X61613205Y-93100777D01*
X61622310Y-93099335D01*
X61787690Y-93099335D01*
X61796795Y-93100777D01*
G37*
G36*
X110267334Y-92834013D02*
G01*
X110442838Y-92891038D01*
X110607260Y-92974815D01*
X110756553Y-93083283D01*
X110887039Y-93213769D01*
X110995507Y-93363062D01*
X111079284Y-93527484D01*
X111136309Y-93702988D01*
X111165177Y-93885252D01*
X111165177Y-94069788D01*
X111136309Y-94252052D01*
X111079284Y-94427556D01*
X110995507Y-94591978D01*
X110887039Y-94741271D01*
X110756553Y-94871757D01*
X110607260Y-94980225D01*
X110442838Y-95064002D01*
X110267334Y-95121027D01*
X110085070Y-95149895D01*
X109900534Y-95149895D01*
X109718270Y-95121027D01*
X109542766Y-95064002D01*
X109378344Y-94980225D01*
X109229051Y-94871757D01*
X109098565Y-94741271D01*
X108990097Y-94591978D01*
X108906320Y-94427556D01*
X108849295Y-94252052D01*
X108820427Y-94069788D01*
X108820427Y-93885252D01*
X108849295Y-93702988D01*
X108906320Y-93527484D01*
X108990097Y-93363062D01*
X109098565Y-93213769D01*
X109229051Y-93083283D01*
X109378344Y-92974815D01*
X109542766Y-92891038D01*
X109718270Y-92834013D01*
X109900534Y-92805145D01*
X110085070Y-92805145D01*
X110267334Y-92834013D01*
G37*
G36*
X113267334Y-92834013D02*
G01*
X113442838Y-92891038D01*
X113607260Y-92974815D01*
X113756553Y-93083283D01*
X113887039Y-93213769D01*
X113995507Y-93363062D01*
X114079284Y-93527484D01*
X114136309Y-93702988D01*
X114165177Y-93885252D01*
X114165177Y-94069788D01*
X114136309Y-94252052D01*
X114079284Y-94427556D01*
X113995507Y-94591978D01*
X113887039Y-94741271D01*
X113756553Y-94871757D01*
X113607260Y-94980225D01*
X113442838Y-95064002D01*
X113267334Y-95121027D01*
X113085070Y-95149895D01*
X112900534Y-95149895D01*
X112718270Y-95121027D01*
X112542766Y-95064002D01*
X112378344Y-94980225D01*
X112229051Y-94871757D01*
X112098565Y-94741271D01*
X111990097Y-94591978D01*
X111906320Y-94427556D01*
X111849295Y-94252052D01*
X111820427Y-94069788D01*
X111820427Y-93885252D01*
X111849295Y-93702988D01*
X111906320Y-93527484D01*
X111990097Y-93363062D01*
X112098565Y-93213769D01*
X112229051Y-93083283D01*
X112378344Y-92974815D01*
X112542766Y-92891038D01*
X112718270Y-92834013D01*
X112900534Y-92805145D01*
X113085070Y-92805145D01*
X113267334Y-92834013D01*
G37*
G36*
X81972126Y-91358049D02*
G01*
X82147630Y-91415074D01*
X82312052Y-91498851D01*
X82461345Y-91607319D01*
X82591831Y-91737805D01*
X82700299Y-91887098D01*
X82784076Y-92051520D01*
X82841101Y-92227024D01*
X82869969Y-92409288D01*
X82869969Y-92593824D01*
X82841101Y-92776088D01*
X82784076Y-92951592D01*
X82700299Y-93116014D01*
X82591831Y-93265307D01*
X82461345Y-93395793D01*
X82312052Y-93504261D01*
X82147630Y-93588038D01*
X81972126Y-93645063D01*
X81789862Y-93673931D01*
X81605326Y-93673931D01*
X81423062Y-93645063D01*
X81247558Y-93588038D01*
X81083136Y-93504261D01*
X80933843Y-93395793D01*
X80803357Y-93265307D01*
X80694889Y-93116014D01*
X80611112Y-92951592D01*
X80554087Y-92776088D01*
X80525219Y-92593824D01*
X80525219Y-92409288D01*
X80554087Y-92227024D01*
X80611112Y-92051520D01*
X80694889Y-91887098D01*
X80803357Y-91737805D01*
X80933843Y-91607319D01*
X81083136Y-91498851D01*
X81247558Y-91415074D01*
X81423062Y-91358049D01*
X81605326Y-91329181D01*
X81789862Y-91329181D01*
X81972126Y-91358049D01*
G37*
G36*
X81972126Y-88358049D02*
G01*
X82147630Y-88415074D01*
X82312052Y-88498851D01*
X82461345Y-88607319D01*
X82591831Y-88737805D01*
X82700299Y-88887098D01*
X82784076Y-89051520D01*
X82841101Y-89227024D01*
X82869969Y-89409288D01*
X82869969Y-89593824D01*
X82841101Y-89776088D01*
X82784076Y-89951592D01*
X82700299Y-90116014D01*
X82591831Y-90265307D01*
X82461345Y-90395793D01*
X82312052Y-90504261D01*
X82147630Y-90588038D01*
X81972126Y-90645063D01*
X81789862Y-90673931D01*
X81605326Y-90673931D01*
X81423062Y-90645063D01*
X81247558Y-90588038D01*
X81083136Y-90504261D01*
X80933843Y-90395793D01*
X80803357Y-90265307D01*
X80694889Y-90116014D01*
X80611112Y-89951592D01*
X80554087Y-89776088D01*
X80525219Y-89593824D01*
X80525219Y-89409288D01*
X80554087Y-89227024D01*
X80611112Y-89051520D01*
X80694889Y-88887098D01*
X80803357Y-88737805D01*
X80933843Y-88607319D01*
X81083136Y-88498851D01*
X81247558Y-88415074D01*
X81423062Y-88358049D01*
X81605326Y-88329181D01*
X81789862Y-88329181D01*
X81972126Y-88358049D01*
G37*
G36*
X92758491Y-86856493D02*
G01*
X92933995Y-86913518D01*
X93098417Y-86997295D01*
X93247710Y-87105763D01*
X93378196Y-87236249D01*
X93486664Y-87385542D01*
X93570441Y-87549964D01*
X93627466Y-87725468D01*
X93656334Y-87907732D01*
X93656334Y-88092268D01*
X93627466Y-88274532D01*
X93570441Y-88450036D01*
X93486664Y-88614458D01*
X93378196Y-88763751D01*
X93247710Y-88894237D01*
X93098417Y-89002705D01*
X92933995Y-89086482D01*
X92758491Y-89143507D01*
X92576227Y-89172375D01*
X92391691Y-89172375D01*
X92209427Y-89143507D01*
X92033923Y-89086482D01*
X91869501Y-89002705D01*
X91720208Y-88894237D01*
X91589722Y-88763751D01*
X91481254Y-88614458D01*
X91397477Y-88450036D01*
X91340452Y-88274532D01*
X91311584Y-88092268D01*
X91311584Y-87907732D01*
X91340452Y-87725468D01*
X91397477Y-87549964D01*
X91481254Y-87385542D01*
X91589722Y-87236249D01*
X91720208Y-87105763D01*
X91869501Y-86997295D01*
X92033923Y-86913518D01*
X92209427Y-86856493D01*
X92391691Y-86827625D01*
X92576227Y-86827625D01*
X92758491Y-86856493D01*
G37*
G36*
X81972126Y-85358049D02*
G01*
X82147630Y-85415074D01*
X82312052Y-85498851D01*
X82461345Y-85607319D01*
X82591831Y-85737805D01*
X82700299Y-85887098D01*
X82784076Y-86051520D01*
X82841101Y-86227024D01*
X82869969Y-86409288D01*
X82869969Y-86593824D01*
X82841101Y-86776088D01*
X82784076Y-86951592D01*
X82700299Y-87116014D01*
X82591831Y-87265307D01*
X82461345Y-87395793D01*
X82312052Y-87504261D01*
X82147630Y-87588038D01*
X81972126Y-87645063D01*
X81789862Y-87673931D01*
X81605326Y-87673931D01*
X81423062Y-87645063D01*
X81247558Y-87588038D01*
X81083136Y-87504261D01*
X80933843Y-87395793D01*
X80803357Y-87265307D01*
X80694889Y-87116014D01*
X80611112Y-86951592D01*
X80554087Y-86776088D01*
X80525219Y-86593824D01*
X80525219Y-86409288D01*
X80554087Y-86227024D01*
X80611112Y-86051520D01*
X80694889Y-85887098D01*
X80803357Y-85737805D01*
X80933843Y-85607319D01*
X81083136Y-85498851D01*
X81247558Y-85415074D01*
X81423062Y-85358049D01*
X81605326Y-85329181D01*
X81789862Y-85329181D01*
X81972126Y-85358049D01*
G37*
G36*
X92758491Y-83856493D02*
G01*
X92933995Y-83913518D01*
X93098417Y-83997295D01*
X93247710Y-84105763D01*
X93378196Y-84236249D01*
X93486664Y-84385542D01*
X93570441Y-84549964D01*
X93627466Y-84725468D01*
X93656334Y-84907732D01*
X93656334Y-85092268D01*
X93627466Y-85274532D01*
X93570441Y-85450036D01*
X93486664Y-85614458D01*
X93378196Y-85763751D01*
X93247710Y-85894237D01*
X93098417Y-86002705D01*
X92933995Y-86086482D01*
X92758491Y-86143507D01*
X92576227Y-86172375D01*
X92391691Y-86172375D01*
X92209427Y-86143507D01*
X92033923Y-86086482D01*
X91869501Y-86002705D01*
X91720208Y-85894237D01*
X91589722Y-85763751D01*
X91481254Y-85614458D01*
X91397477Y-85450036D01*
X91340452Y-85274532D01*
X91311584Y-85092268D01*
X91311584Y-84907732D01*
X91340452Y-84725468D01*
X91397477Y-84549964D01*
X91481254Y-84385542D01*
X91589722Y-84236249D01*
X91720208Y-84105763D01*
X91869501Y-83997295D01*
X92033923Y-83913518D01*
X92209427Y-83856493D01*
X92391691Y-83827625D01*
X92576227Y-83827625D01*
X92758491Y-83856493D01*
G37*
G36*
X81960241Y-81376938D02*
G01*
X82135745Y-81433963D01*
X82300167Y-81517740D01*
X82449460Y-81626208D01*
X82579946Y-81756694D01*
X82688414Y-81905987D01*
X82772191Y-82070409D01*
X82829216Y-82245913D01*
X82858084Y-82428177D01*
X82858084Y-82612713D01*
X82829216Y-82794977D01*
X82772191Y-82970481D01*
X82688414Y-83134903D01*
X82579946Y-83284196D01*
X82449460Y-83414682D01*
X82300167Y-83523150D01*
X82135745Y-83606927D01*
X81960241Y-83663952D01*
X81777977Y-83692820D01*
X81593441Y-83692820D01*
X81411177Y-83663952D01*
X81235673Y-83606927D01*
X81071251Y-83523150D01*
X80921958Y-83414682D01*
X80791472Y-83284196D01*
X80683004Y-83134903D01*
X80599227Y-82970481D01*
X80542202Y-82794977D01*
X80513334Y-82612713D01*
X80513334Y-82428177D01*
X80542202Y-82245913D01*
X80599227Y-82070409D01*
X80683004Y-81905987D01*
X80791472Y-81756694D01*
X80921958Y-81626208D01*
X81071251Y-81517740D01*
X81235673Y-81433963D01*
X81411177Y-81376938D01*
X81593441Y-81348070D01*
X81777977Y-81348070D01*
X81960241Y-81376938D01*
G37*
G36*
X92758491Y-80856493D02*
G01*
X92933995Y-80913518D01*
X93098417Y-80997295D01*
X93247710Y-81105763D01*
X93378196Y-81236249D01*
X93486664Y-81385542D01*
X93570441Y-81549964D01*
X93627466Y-81725468D01*
X93656334Y-81907732D01*
X93656334Y-82092268D01*
X93627466Y-82274532D01*
X93570441Y-82450036D01*
X93486664Y-82614458D01*
X93378196Y-82763751D01*
X93247710Y-82894237D01*
X93098417Y-83002705D01*
X92933995Y-83086482D01*
X92758491Y-83143507D01*
X92576227Y-83172375D01*
X92391691Y-83172375D01*
X92209427Y-83143507D01*
X92033923Y-83086482D01*
X91869501Y-83002705D01*
X91720208Y-82894237D01*
X91589722Y-82763751D01*
X91481254Y-82614458D01*
X91397477Y-82450036D01*
X91340452Y-82274532D01*
X91311584Y-82092268D01*
X91311584Y-81907732D01*
X91340452Y-81725468D01*
X91397477Y-81549964D01*
X91481254Y-81385542D01*
X91589722Y-81236249D01*
X91720208Y-81105763D01*
X91869501Y-80997295D01*
X92033923Y-80913518D01*
X92209427Y-80856493D01*
X92391691Y-80827625D01*
X92576227Y-80827625D01*
X92758491Y-80856493D01*
G37*
G36*
X81960241Y-78376938D02*
G01*
X82135745Y-78433963D01*
X82300167Y-78517740D01*
X82449460Y-78626208D01*
X82579946Y-78756694D01*
X82688414Y-78905987D01*
X82772191Y-79070409D01*
X82829216Y-79245913D01*
X82858084Y-79428177D01*
X82858084Y-79612713D01*
X82829216Y-79794977D01*
X82772191Y-79970481D01*
X82688414Y-80134903D01*
X82579946Y-80284196D01*
X82449460Y-80414682D01*
X82300167Y-80523150D01*
X82135745Y-80606927D01*
X81960241Y-80663952D01*
X81777977Y-80692820D01*
X81593441Y-80692820D01*
X81411177Y-80663952D01*
X81235673Y-80606927D01*
X81071251Y-80523150D01*
X80921958Y-80414682D01*
X80791472Y-80284196D01*
X80683004Y-80134903D01*
X80599227Y-79970481D01*
X80542202Y-79794977D01*
X80513334Y-79612713D01*
X80513334Y-79428177D01*
X80542202Y-79245913D01*
X80599227Y-79070409D01*
X80683004Y-78905987D01*
X80791472Y-78756694D01*
X80921958Y-78626208D01*
X81071251Y-78517740D01*
X81235673Y-78433963D01*
X81411177Y-78376938D01*
X81593441Y-78348070D01*
X81777977Y-78348070D01*
X81960241Y-78376938D01*
G37*
G36*
X81960241Y-75376938D02*
G01*
X82135745Y-75433963D01*
X82300167Y-75517740D01*
X82449460Y-75626208D01*
X82579946Y-75756694D01*
X82688414Y-75905987D01*
X82772191Y-76070409D01*
X82829216Y-76245913D01*
X82858084Y-76428177D01*
X82858084Y-76612713D01*
X82829216Y-76794977D01*
X82772191Y-76970481D01*
X82688414Y-77134903D01*
X82579946Y-77284196D01*
X82449460Y-77414682D01*
X82300167Y-77523150D01*
X82135745Y-77606927D01*
X81960241Y-77663952D01*
X81777977Y-77692820D01*
X81593441Y-77692820D01*
X81411177Y-77663952D01*
X81235673Y-77606927D01*
X81071251Y-77523150D01*
X80921958Y-77414682D01*
X80791472Y-77284196D01*
X80683004Y-77134903D01*
X80599227Y-76970481D01*
X80542202Y-76794977D01*
X80513334Y-76612713D01*
X80513334Y-76428177D01*
X80542202Y-76245913D01*
X80599227Y-76070409D01*
X80683004Y-75905987D01*
X80791472Y-75756694D01*
X80921958Y-75626208D01*
X81071251Y-75517740D01*
X81235673Y-75433963D01*
X81411177Y-75376938D01*
X81593441Y-75348070D01*
X81777977Y-75348070D01*
X81960241Y-75376938D01*
G37*
G36*
X54333512Y-75512857D02*
G01*
X54487518Y-75543491D01*
X54632589Y-75603581D01*
X54763149Y-75690819D01*
X54874181Y-75801851D01*
X54961419Y-75932411D01*
X55021509Y-76077482D01*
X55052143Y-76231488D01*
X55052143Y-76388512D01*
X55021509Y-76542518D01*
X54961419Y-76687589D01*
X54874181Y-76818149D01*
X54763149Y-76929181D01*
X54632589Y-77016419D01*
X54487518Y-77076509D01*
X54333512Y-77107143D01*
X54255000Y-77111000D01*
X54251941Y-77111000D01*
X53158059Y-77111000D01*
X53155000Y-77111000D01*
X53076488Y-77107143D01*
X52922482Y-77076509D01*
X52777411Y-77016419D01*
X52646851Y-76929181D01*
X52535819Y-76818149D01*
X52448581Y-76687589D01*
X52388491Y-76542518D01*
X52357857Y-76388512D01*
X52357857Y-76231488D01*
X52388491Y-76077482D01*
X52448581Y-75932411D01*
X52535819Y-75801851D01*
X52646851Y-75690819D01*
X52777411Y-75603581D01*
X52922482Y-75543491D01*
X53076488Y-75512857D01*
X53155000Y-75509000D01*
X54255000Y-75509000D01*
X54333512Y-75512857D01*
G37*
G36*
X62033512Y-75512857D02*
G01*
X62187518Y-75543491D01*
X62332589Y-75603581D01*
X62463149Y-75690819D01*
X62574181Y-75801851D01*
X62661419Y-75932411D01*
X62721509Y-76077482D01*
X62752143Y-76231488D01*
X62752143Y-76388512D01*
X62721509Y-76542518D01*
X62661419Y-76687589D01*
X62574181Y-76818149D01*
X62463149Y-76929181D01*
X62332589Y-77016419D01*
X62187518Y-77076509D01*
X62033512Y-77107143D01*
X61955000Y-77111000D01*
X61951941Y-77111000D01*
X60858059Y-77111000D01*
X60855000Y-77111000D01*
X60776488Y-77107143D01*
X60622482Y-77076509D01*
X60477411Y-77016419D01*
X60346851Y-76929181D01*
X60235819Y-76818149D01*
X60148581Y-76687589D01*
X60088491Y-76542518D01*
X60057857Y-76388512D01*
X60057857Y-76231488D01*
X60088491Y-76077482D01*
X60148581Y-75932411D01*
X60235819Y-75801851D01*
X60346851Y-75690819D01*
X60477411Y-75603581D01*
X60622482Y-75543491D01*
X60776488Y-75512857D01*
X60855000Y-75509000D01*
X61955000Y-75509000D01*
X62033512Y-75512857D01*
G37*
G36*
X71073914Y-73231995D02*
G01*
X71089726Y-73238976D01*
X71097531Y-73240213D01*
X71130039Y-73256776D01*
X71175106Y-73276676D01*
X71253324Y-73354894D01*
X71273226Y-73399967D01*
X71289786Y-73432468D01*
X71291021Y-73440270D01*
X71298005Y-73456086D01*
X71306000Y-73525000D01*
X71306000Y-74475000D01*
X71298005Y-74543914D01*
X71291021Y-74559729D01*
X71289786Y-74567531D01*
X71273229Y-74600024D01*
X71253324Y-74645106D01*
X71175106Y-74723324D01*
X71130024Y-74743229D01*
X71097531Y-74759786D01*
X71089729Y-74761021D01*
X71073914Y-74768005D01*
X71005000Y-74776000D01*
X70330000Y-74776000D01*
X70261086Y-74768005D01*
X70245270Y-74761021D01*
X70237468Y-74759786D01*
X70204967Y-74743226D01*
X70159894Y-74723324D01*
X70081676Y-74645106D01*
X70061776Y-74600039D01*
X70045213Y-74567531D01*
X70043976Y-74559726D01*
X70036995Y-74543914D01*
X70029000Y-74475000D01*
X70029000Y-73525000D01*
X70036995Y-73456086D01*
X70043976Y-73440274D01*
X70045213Y-73432468D01*
X70061780Y-73399953D01*
X70081676Y-73354894D01*
X70159894Y-73276676D01*
X70204953Y-73256780D01*
X70237468Y-73240213D01*
X70245274Y-73238976D01*
X70261086Y-73231995D01*
X70330000Y-73224000D01*
X71005000Y-73224000D01*
X71073914Y-73231995D01*
G37*
G36*
X73148914Y-73231995D02*
G01*
X73164726Y-73238976D01*
X73172531Y-73240213D01*
X73205039Y-73256776D01*
X73250106Y-73276676D01*
X73328324Y-73354894D01*
X73348226Y-73399967D01*
X73364786Y-73432468D01*
X73366021Y-73440270D01*
X73373005Y-73456086D01*
X73381000Y-73525000D01*
X73381000Y-74475000D01*
X73373005Y-74543914D01*
X73366021Y-74559729D01*
X73364786Y-74567531D01*
X73348229Y-74600024D01*
X73328324Y-74645106D01*
X73250106Y-74723324D01*
X73205024Y-74743229D01*
X73172531Y-74759786D01*
X73164729Y-74761021D01*
X73148914Y-74768005D01*
X73080000Y-74776000D01*
X72405000Y-74776000D01*
X72336086Y-74768005D01*
X72320270Y-74761021D01*
X72312468Y-74759786D01*
X72279967Y-74743226D01*
X72234894Y-74723324D01*
X72156676Y-74645106D01*
X72136776Y-74600039D01*
X72120213Y-74567531D01*
X72118976Y-74559726D01*
X72111995Y-74543914D01*
X72104000Y-74475000D01*
X72104000Y-73525000D01*
X72111995Y-73456086D01*
X72118976Y-73440274D01*
X72120213Y-73432468D01*
X72136780Y-73399953D01*
X72156676Y-73354894D01*
X72234894Y-73276676D01*
X72279953Y-73256780D01*
X72312468Y-73240213D01*
X72320274Y-73238976D01*
X72336086Y-73231995D01*
X72405000Y-73224000D01*
X73080000Y-73224000D01*
X73148914Y-73231995D01*
G37*
G36*
X62033512Y-72972857D02*
G01*
X62187518Y-73003491D01*
X62332589Y-73063581D01*
X62463149Y-73150819D01*
X62574181Y-73261851D01*
X62661419Y-73392411D01*
X62721509Y-73537482D01*
X62752143Y-73691488D01*
X62752143Y-73848512D01*
X62721509Y-74002518D01*
X62661419Y-74147589D01*
X62574181Y-74278149D01*
X62463149Y-74389181D01*
X62332589Y-74476419D01*
X62187518Y-74536509D01*
X62033512Y-74567143D01*
X61955000Y-74571000D01*
X61951941Y-74571000D01*
X60858059Y-74571000D01*
X60855000Y-74571000D01*
X60776488Y-74567143D01*
X60622482Y-74536509D01*
X60477411Y-74476419D01*
X60346851Y-74389181D01*
X60235819Y-74278149D01*
X60148581Y-74147589D01*
X60088491Y-74002518D01*
X60057857Y-73848512D01*
X60057857Y-73691488D01*
X60088491Y-73537482D01*
X60148581Y-73392411D01*
X60235819Y-73261851D01*
X60346851Y-73150819D01*
X60477411Y-73063581D01*
X60622482Y-73003491D01*
X60776488Y-72972857D01*
X60855000Y-72969000D01*
X61955000Y-72969000D01*
X62033512Y-72972857D01*
G37*
G36*
X67248914Y-72906995D02*
G01*
X67264726Y-72913976D01*
X67272531Y-72915213D01*
X67305039Y-72931776D01*
X67350106Y-72951676D01*
X67428324Y-73029894D01*
X67448226Y-73074967D01*
X67464786Y-73107468D01*
X67466021Y-73115270D01*
X67473005Y-73131086D01*
X67481000Y-73200000D01*
X67481000Y-73875000D01*
X67473005Y-73943914D01*
X67466021Y-73959729D01*
X67464786Y-73967531D01*
X67448229Y-74000024D01*
X67428324Y-74045106D01*
X67350106Y-74123324D01*
X67305024Y-74143229D01*
X67272531Y-74159786D01*
X67264729Y-74161021D01*
X67248914Y-74168005D01*
X67180000Y-74176000D01*
X66230000Y-74176000D01*
X66161086Y-74168005D01*
X66145270Y-74161021D01*
X66137468Y-74159786D01*
X66104967Y-74143226D01*
X66059894Y-74123324D01*
X65981676Y-74045106D01*
X65961776Y-74000039D01*
X65945213Y-73967531D01*
X65943976Y-73959726D01*
X65936995Y-73943914D01*
X65929000Y-73875000D01*
X65929000Y-73200000D01*
X65936995Y-73131086D01*
X65943976Y-73115274D01*
X65945213Y-73107468D01*
X65961780Y-73074953D01*
X65981676Y-73029894D01*
X66059894Y-72951676D01*
X66104953Y-72931780D01*
X66137468Y-72915213D01*
X66145274Y-72913976D01*
X66161086Y-72906995D01*
X66230000Y-72899000D01*
X67180000Y-72899000D01*
X67248914Y-72906995D01*
G37*
G36*
X69248914Y-72906995D02*
G01*
X69264726Y-72913976D01*
X69272531Y-72915213D01*
X69305039Y-72931776D01*
X69350106Y-72951676D01*
X69428324Y-73029894D01*
X69448226Y-73074967D01*
X69464786Y-73107468D01*
X69466021Y-73115270D01*
X69473005Y-73131086D01*
X69481000Y-73200000D01*
X69481000Y-73875000D01*
X69473005Y-73943914D01*
X69466021Y-73959729D01*
X69464786Y-73967531D01*
X69448229Y-74000024D01*
X69428324Y-74045106D01*
X69350106Y-74123324D01*
X69305024Y-74143229D01*
X69272531Y-74159786D01*
X69264729Y-74161021D01*
X69248914Y-74168005D01*
X69180000Y-74176000D01*
X68230000Y-74176000D01*
X68161086Y-74168005D01*
X68145270Y-74161021D01*
X68137468Y-74159786D01*
X68104967Y-74143226D01*
X68059894Y-74123324D01*
X67981676Y-74045106D01*
X67961776Y-74000039D01*
X67945213Y-73967531D01*
X67943976Y-73959726D01*
X67936995Y-73943914D01*
X67929000Y-73875000D01*
X67929000Y-73200000D01*
X67936995Y-73131086D01*
X67943976Y-73115274D01*
X67945213Y-73107468D01*
X67961780Y-73074953D01*
X67981676Y-73029894D01*
X68059894Y-72951676D01*
X68104953Y-72931780D01*
X68137468Y-72915213D01*
X68145274Y-72913976D01*
X68161086Y-72906995D01*
X68230000Y-72899000D01*
X69180000Y-72899000D01*
X69248914Y-72906995D01*
G37*
G36*
X67248914Y-70831995D02*
G01*
X67264726Y-70838976D01*
X67272531Y-70840213D01*
X67305039Y-70856776D01*
X67350106Y-70876676D01*
X67428324Y-70954894D01*
X67448226Y-70999967D01*
X67464786Y-71032468D01*
X67466021Y-71040270D01*
X67473005Y-71056086D01*
X67481000Y-71125000D01*
X67481000Y-71800000D01*
X67473005Y-71868914D01*
X67466021Y-71884729D01*
X67464786Y-71892531D01*
X67448229Y-71925024D01*
X67428324Y-71970106D01*
X67350106Y-72048324D01*
X67305024Y-72068229D01*
X67272531Y-72084786D01*
X67264729Y-72086021D01*
X67248914Y-72093005D01*
X67180000Y-72101000D01*
X66230000Y-72101000D01*
X66161086Y-72093005D01*
X66145270Y-72086021D01*
X66137468Y-72084786D01*
X66104967Y-72068226D01*
X66059894Y-72048324D01*
X65981676Y-71970106D01*
X65961776Y-71925039D01*
X65945213Y-71892531D01*
X65943976Y-71884726D01*
X65936995Y-71868914D01*
X65929000Y-71800000D01*
X65929000Y-71125000D01*
X65936995Y-71056086D01*
X65943976Y-71040274D01*
X65945213Y-71032468D01*
X65961780Y-70999953D01*
X65981676Y-70954894D01*
X66059894Y-70876676D01*
X66104953Y-70856780D01*
X66137468Y-70840213D01*
X66145274Y-70838976D01*
X66161086Y-70831995D01*
X66230000Y-70824000D01*
X67180000Y-70824000D01*
X67248914Y-70831995D01*
G37*
G36*
X69248914Y-70831995D02*
G01*
X69264726Y-70838976D01*
X69272531Y-70840213D01*
X69305039Y-70856776D01*
X69350106Y-70876676D01*
X69428324Y-70954894D01*
X69448226Y-70999967D01*
X69464786Y-71032468D01*
X69466021Y-71040270D01*
X69473005Y-71056086D01*
X69481000Y-71125000D01*
X69481000Y-71800000D01*
X69473005Y-71868914D01*
X69466021Y-71884729D01*
X69464786Y-71892531D01*
X69448229Y-71925024D01*
X69428324Y-71970106D01*
X69350106Y-72048324D01*
X69305024Y-72068229D01*
X69272531Y-72084786D01*
X69264729Y-72086021D01*
X69248914Y-72093005D01*
X69180000Y-72101000D01*
X68230000Y-72101000D01*
X68161086Y-72093005D01*
X68145270Y-72086021D01*
X68137468Y-72084786D01*
X68104967Y-72068226D01*
X68059894Y-72048324D01*
X67981676Y-71970106D01*
X67961776Y-71925039D01*
X67945213Y-71892531D01*
X67943976Y-71884726D01*
X67936995Y-71868914D01*
X67929000Y-71800000D01*
X67929000Y-71125000D01*
X67936995Y-71056086D01*
X67943976Y-71040274D01*
X67945213Y-71032468D01*
X67961780Y-70999953D01*
X67981676Y-70954894D01*
X68059894Y-70876676D01*
X68104953Y-70856780D01*
X68137468Y-70840213D01*
X68145274Y-70838976D01*
X68161086Y-70831995D01*
X68230000Y-70824000D01*
X69180000Y-70824000D01*
X69248914Y-70831995D01*
G37*
G36*
X62033512Y-70432857D02*
G01*
X62187518Y-70463491D01*
X62332589Y-70523581D01*
X62463149Y-70610819D01*
X62574181Y-70721851D01*
X62661419Y-70852411D01*
X62721509Y-70997482D01*
X62752143Y-71151488D01*
X62752143Y-71308512D01*
X62721509Y-71462518D01*
X62661419Y-71607589D01*
X62574181Y-71738149D01*
X62463149Y-71849181D01*
X62332589Y-71936419D01*
X62187518Y-71996509D01*
X62033512Y-72027143D01*
X61955000Y-72031000D01*
X61951941Y-72031000D01*
X60858059Y-72031000D01*
X60855000Y-72031000D01*
X60776488Y-72027143D01*
X60622482Y-71996509D01*
X60477411Y-71936419D01*
X60346851Y-71849181D01*
X60235819Y-71738149D01*
X60148581Y-71607589D01*
X60088491Y-71462518D01*
X60057857Y-71308512D01*
X60057857Y-71151488D01*
X60088491Y-70997482D01*
X60148581Y-70852411D01*
X60235819Y-70721851D01*
X60346851Y-70610819D01*
X60477411Y-70523581D01*
X60622482Y-70463491D01*
X60776488Y-70432857D01*
X60855000Y-70429000D01*
X61955000Y-70429000D01*
X62033512Y-70432857D01*
G37*
G36*
X71073914Y-70256995D02*
G01*
X71089726Y-70263976D01*
X71097531Y-70265213D01*
X71130039Y-70281776D01*
X71175106Y-70301676D01*
X71253324Y-70379894D01*
X71273226Y-70424967D01*
X71289786Y-70457468D01*
X71291021Y-70465270D01*
X71298005Y-70481086D01*
X71306000Y-70550000D01*
X71306000Y-71450000D01*
X71298005Y-71518914D01*
X71291021Y-71534729D01*
X71289786Y-71542531D01*
X71273229Y-71575024D01*
X71253324Y-71620106D01*
X71175106Y-71698324D01*
X71130024Y-71718229D01*
X71097531Y-71734786D01*
X71089729Y-71736021D01*
X71073914Y-71743005D01*
X71005000Y-71751000D01*
X70355000Y-71751000D01*
X70286086Y-71743005D01*
X70270270Y-71736021D01*
X70262468Y-71734786D01*
X70229967Y-71718226D01*
X70184894Y-71698324D01*
X70106676Y-71620106D01*
X70086776Y-71575039D01*
X70070213Y-71542531D01*
X70068976Y-71534726D01*
X70061995Y-71518914D01*
X70054000Y-71450000D01*
X70054000Y-70550000D01*
X70061995Y-70481086D01*
X70068976Y-70465274D01*
X70070213Y-70457468D01*
X70086780Y-70424953D01*
X70106676Y-70379894D01*
X70184894Y-70301676D01*
X70229953Y-70281780D01*
X70262468Y-70265213D01*
X70270274Y-70263976D01*
X70286086Y-70256995D01*
X70355000Y-70249000D01*
X71005000Y-70249000D01*
X71073914Y-70256995D01*
G37*
G36*
X73123914Y-70256995D02*
G01*
X73139726Y-70263976D01*
X73147531Y-70265213D01*
X73180039Y-70281776D01*
X73225106Y-70301676D01*
X73303324Y-70379894D01*
X73323226Y-70424967D01*
X73339786Y-70457468D01*
X73341021Y-70465270D01*
X73348005Y-70481086D01*
X73356000Y-70550000D01*
X73356000Y-71450000D01*
X73348005Y-71518914D01*
X73341021Y-71534729D01*
X73339786Y-71542531D01*
X73323229Y-71575024D01*
X73303324Y-71620106D01*
X73225106Y-71698324D01*
X73180024Y-71718229D01*
X73147531Y-71734786D01*
X73139729Y-71736021D01*
X73123914Y-71743005D01*
X73055000Y-71751000D01*
X72405000Y-71751000D01*
X72336086Y-71743005D01*
X72320270Y-71736021D01*
X72312468Y-71734786D01*
X72279967Y-71718226D01*
X72234894Y-71698324D01*
X72156676Y-71620106D01*
X72136776Y-71575039D01*
X72120213Y-71542531D01*
X72118976Y-71534726D01*
X72111995Y-71518914D01*
X72104000Y-71450000D01*
X72104000Y-70550000D01*
X72111995Y-70481086D01*
X72118976Y-70465274D01*
X72120213Y-70457468D01*
X72136780Y-70424953D01*
X72156676Y-70379894D01*
X72234894Y-70301676D01*
X72279953Y-70281780D01*
X72312468Y-70265213D01*
X72320274Y-70263976D01*
X72336086Y-70256995D01*
X72405000Y-70249000D01*
X73055000Y-70249000D01*
X73123914Y-70256995D01*
G37*
G36*
X154274532Y-68856493D02*
G01*
X154450036Y-68913518D01*
X154614458Y-68997295D01*
X154763751Y-69105763D01*
X154894237Y-69236249D01*
X155002705Y-69385542D01*
X155086482Y-69549964D01*
X155143507Y-69725468D01*
X155172375Y-69907732D01*
X155172375Y-70092268D01*
X155143507Y-70274532D01*
X155086482Y-70450036D01*
X155002705Y-70614458D01*
X154894237Y-70763751D01*
X154763751Y-70894237D01*
X154614458Y-71002705D01*
X154450036Y-71086482D01*
X154274532Y-71143507D01*
X154092268Y-71172375D01*
X153907732Y-71172375D01*
X153725468Y-71143507D01*
X153549964Y-71086482D01*
X153385542Y-71002705D01*
X153236249Y-70894237D01*
X153105763Y-70763751D01*
X152997295Y-70614458D01*
X152913518Y-70450036D01*
X152856493Y-70274532D01*
X152827625Y-70092268D01*
X152827625Y-69907732D01*
X152856493Y-69725468D01*
X152913518Y-69549964D01*
X152997295Y-69385542D01*
X153105763Y-69236249D01*
X153236249Y-69105763D01*
X153385542Y-68997295D01*
X153549964Y-68913518D01*
X153725468Y-68856493D01*
X153907732Y-68827625D01*
X154092268Y-68827625D01*
X154274532Y-68856493D01*
G37*
G36*
X157274532Y-68856493D02*
G01*
X157450036Y-68913518D01*
X157614458Y-68997295D01*
X157763751Y-69105763D01*
X157894237Y-69236249D01*
X158002705Y-69385542D01*
X158086482Y-69549964D01*
X158143507Y-69725468D01*
X158172375Y-69907732D01*
X158172375Y-70092268D01*
X158143507Y-70274532D01*
X158086482Y-70450036D01*
X158002705Y-70614458D01*
X157894237Y-70763751D01*
X157763751Y-70894237D01*
X157614458Y-71002705D01*
X157450036Y-71086482D01*
X157274532Y-71143507D01*
X157092268Y-71172375D01*
X156907732Y-71172375D01*
X156725468Y-71143507D01*
X156549964Y-71086482D01*
X156385542Y-71002705D01*
X156236249Y-70894237D01*
X156105763Y-70763751D01*
X155997295Y-70614458D01*
X155913518Y-70450036D01*
X155856493Y-70274532D01*
X155827625Y-70092268D01*
X155827625Y-69907732D01*
X155856493Y-69725468D01*
X155913518Y-69549964D01*
X155997295Y-69385542D01*
X156105763Y-69236249D01*
X156236249Y-69105763D01*
X156385542Y-68997295D01*
X156549964Y-68913518D01*
X156725468Y-68856493D01*
X156907732Y-68827625D01*
X157092268Y-68827625D01*
X157274532Y-68856493D01*
G37*
G36*
X160274532Y-68856493D02*
G01*
X160450036Y-68913518D01*
X160614458Y-68997295D01*
X160763751Y-69105763D01*
X160894237Y-69236249D01*
X161002705Y-69385542D01*
X161086482Y-69549964D01*
X161143507Y-69725468D01*
X161172375Y-69907732D01*
X161172375Y-70092268D01*
X161143507Y-70274532D01*
X161086482Y-70450036D01*
X161002705Y-70614458D01*
X160894237Y-70763751D01*
X160763751Y-70894237D01*
X160614458Y-71002705D01*
X160450036Y-71086482D01*
X160274532Y-71143507D01*
X160092268Y-71172375D01*
X159907732Y-71172375D01*
X159725468Y-71143507D01*
X159549964Y-71086482D01*
X159385542Y-71002705D01*
X159236249Y-70894237D01*
X159105763Y-70763751D01*
X158997295Y-70614458D01*
X158913518Y-70450036D01*
X158856493Y-70274532D01*
X158827625Y-70092268D01*
X158827625Y-69907732D01*
X158856493Y-69725468D01*
X158913518Y-69549964D01*
X158997295Y-69385542D01*
X159105763Y-69236249D01*
X159236249Y-69105763D01*
X159385542Y-68997295D01*
X159549964Y-68913518D01*
X159725468Y-68856493D01*
X159907732Y-68827625D01*
X160092268Y-68827625D01*
X160274532Y-68856493D01*
G37*
G36*
X54333512Y-67892857D02*
G01*
X54487518Y-67923491D01*
X54632589Y-67983581D01*
X54763149Y-68070819D01*
X54874181Y-68181851D01*
X54961419Y-68312411D01*
X55021509Y-68457482D01*
X55052143Y-68611488D01*
X55052143Y-68768512D01*
X55021509Y-68922518D01*
X54961419Y-69067589D01*
X54874181Y-69198149D01*
X54763149Y-69309181D01*
X54632589Y-69396419D01*
X54487518Y-69456509D01*
X54333512Y-69487143D01*
X54255000Y-69491000D01*
X54251941Y-69491000D01*
X53158059Y-69491000D01*
X53155000Y-69491000D01*
X53076488Y-69487143D01*
X52922482Y-69456509D01*
X52777411Y-69396419D01*
X52646851Y-69309181D01*
X52535819Y-69198149D01*
X52448581Y-69067589D01*
X52388491Y-68922518D01*
X52357857Y-68768512D01*
X52357857Y-68611488D01*
X52388491Y-68457482D01*
X52448581Y-68312411D01*
X52535819Y-68181851D01*
X52646851Y-68070819D01*
X52777411Y-67983581D01*
X52922482Y-67923491D01*
X53076488Y-67892857D01*
X53155000Y-67889000D01*
X54255000Y-67889000D01*
X54333512Y-67892857D01*
G37*
G36*
X62033512Y-67892857D02*
G01*
X62187518Y-67923491D01*
X62332589Y-67983581D01*
X62463149Y-68070819D01*
X62574181Y-68181851D01*
X62661419Y-68312411D01*
X62721509Y-68457482D01*
X62752143Y-68611488D01*
X62752143Y-68768512D01*
X62721509Y-68922518D01*
X62661419Y-69067589D01*
X62574181Y-69198149D01*
X62463149Y-69309181D01*
X62332589Y-69396419D01*
X62187518Y-69456509D01*
X62033512Y-69487143D01*
X61955000Y-69491000D01*
X61951941Y-69491000D01*
X60858059Y-69491000D01*
X60855000Y-69491000D01*
X60776488Y-69487143D01*
X60622482Y-69456509D01*
X60477411Y-69396419D01*
X60346851Y-69309181D01*
X60235819Y-69198149D01*
X60148581Y-69067589D01*
X60088491Y-68922518D01*
X60057857Y-68768512D01*
X60057857Y-68611488D01*
X60088491Y-68457482D01*
X60148581Y-68312411D01*
X60235819Y-68181851D01*
X60346851Y-68070819D01*
X60477411Y-67983581D01*
X60622482Y-67923491D01*
X60776488Y-67892857D01*
X60855000Y-67889000D01*
X61955000Y-67889000D01*
X62033512Y-67892857D01*
G37*
G36*
X157418914Y-64256995D02*
G01*
X157434726Y-64263976D01*
X157442531Y-64265213D01*
X157475039Y-64281776D01*
X157520106Y-64301676D01*
X157598324Y-64379894D01*
X157618226Y-64424967D01*
X157634786Y-64457468D01*
X157636021Y-64465270D01*
X157643005Y-64481086D01*
X157651000Y-64550000D01*
X157651000Y-65450000D01*
X157643005Y-65518914D01*
X157636021Y-65534729D01*
X157634786Y-65542531D01*
X157618229Y-65575024D01*
X157598324Y-65620106D01*
X157520106Y-65698324D01*
X157475024Y-65718229D01*
X157442531Y-65734786D01*
X157434729Y-65736021D01*
X157418914Y-65743005D01*
X157350000Y-65751000D01*
X156650000Y-65751000D01*
X156581086Y-65743005D01*
X156565270Y-65736021D01*
X156557468Y-65734786D01*
X156524967Y-65718226D01*
X156479894Y-65698324D01*
X156401676Y-65620106D01*
X156381776Y-65575039D01*
X156365213Y-65542531D01*
X156363976Y-65534726D01*
X156356995Y-65518914D01*
X156349000Y-65450000D01*
X156349000Y-64550000D01*
X156356995Y-64481086D01*
X156363976Y-64465274D01*
X156365213Y-64457468D01*
X156381780Y-64424953D01*
X156401676Y-64379894D01*
X156479894Y-64301676D01*
X156524953Y-64281780D01*
X156557468Y-64265213D01*
X156565274Y-64263976D01*
X156581086Y-64256995D01*
X156650000Y-64249000D01*
X157350000Y-64249000D01*
X157418914Y-64256995D01*
G37*
G36*
X159418914Y-64256995D02*
G01*
X159434726Y-64263976D01*
X159442531Y-64265213D01*
X159475039Y-64281776D01*
X159520106Y-64301676D01*
X159598324Y-64379894D01*
X159618226Y-64424967D01*
X159634786Y-64457468D01*
X159636021Y-64465270D01*
X159643005Y-64481086D01*
X159651000Y-64550000D01*
X159651000Y-65450000D01*
X159643005Y-65518914D01*
X159636021Y-65534729D01*
X159634786Y-65542531D01*
X159618229Y-65575024D01*
X159598324Y-65620106D01*
X159520106Y-65698324D01*
X159475024Y-65718229D01*
X159442531Y-65734786D01*
X159434729Y-65736021D01*
X159418914Y-65743005D01*
X159350000Y-65751000D01*
X158650000Y-65751000D01*
X158581086Y-65743005D01*
X158565270Y-65736021D01*
X158557468Y-65734786D01*
X158524967Y-65718226D01*
X158479894Y-65698324D01*
X158401676Y-65620106D01*
X158381776Y-65575039D01*
X158365213Y-65542531D01*
X158363976Y-65534726D01*
X158356995Y-65518914D01*
X158349000Y-65450000D01*
X158349000Y-64550000D01*
X158356995Y-64481086D01*
X158363976Y-64465274D01*
X158365213Y-64457468D01*
X158381780Y-64424953D01*
X158401676Y-64379894D01*
X158479894Y-64301676D01*
X158524953Y-64281780D01*
X158557468Y-64265213D01*
X158565274Y-64263976D01*
X158581086Y-64256995D01*
X158650000Y-64249000D01*
X159350000Y-64249000D01*
X159418914Y-64256995D01*
G37*
G36*
X92295579Y-61411989D02*
G01*
X92311391Y-61418970D01*
X92319196Y-61420207D01*
X92351704Y-61436770D01*
X92396771Y-61456670D01*
X92474989Y-61534888D01*
X92494891Y-61579961D01*
X92511451Y-61612462D01*
X92512686Y-61620264D01*
X92519670Y-61636080D01*
X92527665Y-61704994D01*
X92527665Y-62379994D01*
X92519670Y-62448908D01*
X92512686Y-62464723D01*
X92511451Y-62472525D01*
X92494894Y-62505018D01*
X92474989Y-62550100D01*
X92396771Y-62628318D01*
X92351689Y-62648223D01*
X92319196Y-62664780D01*
X92311394Y-62666015D01*
X92295579Y-62672999D01*
X92226665Y-62680994D01*
X91276665Y-62680994D01*
X91207751Y-62672999D01*
X91191935Y-62666015D01*
X91184133Y-62664780D01*
X91151632Y-62648220D01*
X91106559Y-62628318D01*
X91028341Y-62550100D01*
X91008441Y-62505033D01*
X90991878Y-62472525D01*
X90990641Y-62464720D01*
X90983660Y-62448908D01*
X90975665Y-62379994D01*
X90975665Y-61704994D01*
X90983660Y-61636080D01*
X90990641Y-61620268D01*
X90991878Y-61612462D01*
X91008445Y-61579947D01*
X91028341Y-61534888D01*
X91106559Y-61456670D01*
X91151618Y-61436774D01*
X91184133Y-61420207D01*
X91191939Y-61418970D01*
X91207751Y-61411989D01*
X91276665Y-61403994D01*
X92226665Y-61403994D01*
X92295579Y-61411989D01*
G37*
G36*
X94890140Y-60036983D02*
G01*
X94956573Y-60039593D01*
X94962557Y-60040540D01*
X94978662Y-60041332D01*
X95022079Y-60049968D01*
X95114474Y-60064602D01*
X95144188Y-60074257D01*
X95171603Y-60079710D01*
X95210291Y-60095735D01*
X95264177Y-60113244D01*
X95314662Y-60138967D01*
X95353349Y-60154992D01*
X95376588Y-60170520D01*
X95404426Y-60184704D01*
X95480092Y-60239679D01*
X95516916Y-60264284D01*
X95524775Y-60272143D01*
X95531768Y-60277224D01*
X95643077Y-60388533D01*
X95648157Y-60395525D01*
X95656018Y-60403386D01*
X95680625Y-60440213D01*
X95735597Y-60515875D01*
X95749779Y-60543710D01*
X95765310Y-60566953D01*
X95781336Y-60605645D01*
X95807057Y-60656124D01*
X95824563Y-60710003D01*
X95840592Y-60748699D01*
X95846046Y-60776118D01*
X95855699Y-60805827D01*
X95870330Y-60898204D01*
X95878970Y-60941640D01*
X95878970Y-60952753D01*
X95880323Y-60961296D01*
X95880323Y-61118703D01*
X95878970Y-61127245D01*
X95878970Y-61138360D01*
X95870329Y-61181799D01*
X95855699Y-61274172D01*
X95846046Y-61303878D01*
X95840592Y-61331301D01*
X95824562Y-61370000D01*
X95807057Y-61423875D01*
X95781339Y-61474349D01*
X95765310Y-61513047D01*
X95749777Y-61536292D01*
X95735597Y-61564124D01*
X95680633Y-61639773D01*
X95656018Y-61676614D01*
X95648154Y-61684477D01*
X95643077Y-61691466D01*
X95531768Y-61802775D01*
X95524779Y-61807852D01*
X95516916Y-61815716D01*
X95480075Y-61840331D01*
X95404426Y-61895295D01*
X95376594Y-61909475D01*
X95353349Y-61925008D01*
X95314651Y-61941037D01*
X95264177Y-61966755D01*
X95210302Y-61984260D01*
X95171603Y-62000290D01*
X95144180Y-62005744D01*
X95114474Y-62015397D01*
X95022103Y-62030026D01*
X94978662Y-62038668D01*
X94962548Y-62039459D01*
X94956573Y-62040406D01*
X94890156Y-62043015D01*
X94880302Y-62043500D01*
X94877837Y-62043500D01*
X94787767Y-62043500D01*
X94785302Y-62043500D01*
X94775448Y-62043015D01*
X94709030Y-62040406D01*
X94703054Y-62039459D01*
X94686942Y-62038668D01*
X94643504Y-62030027D01*
X94551129Y-62015397D01*
X94521420Y-62005744D01*
X94494001Y-62000290D01*
X94455305Y-61984261D01*
X94401426Y-61966755D01*
X94350947Y-61941034D01*
X94312255Y-61925008D01*
X94289012Y-61909477D01*
X94261177Y-61895295D01*
X94185515Y-61840323D01*
X94148688Y-61815716D01*
X94140827Y-61807855D01*
X94133835Y-61802775D01*
X94022526Y-61691466D01*
X94017445Y-61684473D01*
X94009586Y-61676614D01*
X93984981Y-61639790D01*
X93930006Y-61564124D01*
X93915822Y-61536286D01*
X93900294Y-61513047D01*
X93884269Y-61474360D01*
X93858546Y-61423875D01*
X93841037Y-61369989D01*
X93825012Y-61331301D01*
X93819559Y-61303886D01*
X93809904Y-61274172D01*
X93795272Y-61181789D01*
X93786634Y-61138360D01*
X93786634Y-61127245D01*
X93785281Y-61118703D01*
X93785281Y-60961296D01*
X93786634Y-60952753D01*
X93786634Y-60941640D01*
X93795271Y-60898214D01*
X93809904Y-60805827D01*
X93819559Y-60776110D01*
X93825012Y-60748699D01*
X93841035Y-60710014D01*
X93858546Y-60656124D01*
X93884271Y-60605634D01*
X93900294Y-60566953D01*
X93915820Y-60543716D01*
X93930006Y-60515875D01*
X93984989Y-60440196D01*
X94009586Y-60403386D01*
X94017443Y-60395528D01*
X94022526Y-60388533D01*
X94133835Y-60277224D01*
X94140830Y-60272141D01*
X94148688Y-60264284D01*
X94185498Y-60239687D01*
X94261177Y-60184704D01*
X94289018Y-60170518D01*
X94312255Y-60154992D01*
X94350936Y-60138969D01*
X94401426Y-60113244D01*
X94455316Y-60095733D01*
X94494001Y-60079710D01*
X94521412Y-60074257D01*
X94551129Y-60064602D01*
X94643528Y-60049967D01*
X94686942Y-60041332D01*
X94703044Y-60040540D01*
X94709030Y-60039593D01*
X94775464Y-60036983D01*
X94785302Y-60036500D01*
X94880302Y-60036500D01*
X94890140Y-60036983D01*
G37*
G36*
X133843914Y-60406995D02*
G01*
X133859726Y-60413976D01*
X133867531Y-60415213D01*
X133900039Y-60431776D01*
X133945106Y-60451676D01*
X134023324Y-60529894D01*
X134043226Y-60574967D01*
X134059786Y-60607468D01*
X134061021Y-60615270D01*
X134068005Y-60631086D01*
X134076000Y-60700000D01*
X134076000Y-61375000D01*
X134068005Y-61443914D01*
X134061021Y-61459729D01*
X134059786Y-61467531D01*
X134043229Y-61500024D01*
X134023324Y-61545106D01*
X133945106Y-61623324D01*
X133900024Y-61643229D01*
X133867531Y-61659786D01*
X133859729Y-61661021D01*
X133843914Y-61668005D01*
X133775000Y-61676000D01*
X132825000Y-61676000D01*
X132756086Y-61668005D01*
X132740270Y-61661021D01*
X132732468Y-61659786D01*
X132699967Y-61643226D01*
X132654894Y-61623324D01*
X132576676Y-61545106D01*
X132556776Y-61500039D01*
X132540213Y-61467531D01*
X132538976Y-61459726D01*
X132531995Y-61443914D01*
X132524000Y-61375000D01*
X132524000Y-60700000D01*
X132531995Y-60631086D01*
X132538976Y-60615274D01*
X132540213Y-60607468D01*
X132556780Y-60574953D01*
X132576676Y-60529894D01*
X132654894Y-60451676D01*
X132699953Y-60431780D01*
X132732468Y-60415213D01*
X132740274Y-60413976D01*
X132756086Y-60406995D01*
X132825000Y-60399000D01*
X133775000Y-60399000D01*
X133843914Y-60406995D01*
G37*
G36*
X144043914Y-60406995D02*
G01*
X144059726Y-60413976D01*
X144067531Y-60415213D01*
X144100039Y-60431776D01*
X144145106Y-60451676D01*
X144223324Y-60529894D01*
X144243226Y-60574967D01*
X144259786Y-60607468D01*
X144261021Y-60615270D01*
X144268005Y-60631086D01*
X144276000Y-60700000D01*
X144276000Y-61375000D01*
X144268005Y-61443914D01*
X144261021Y-61459729D01*
X144259786Y-61467531D01*
X144243229Y-61500024D01*
X144223324Y-61545106D01*
X144145106Y-61623324D01*
X144100024Y-61643229D01*
X144067531Y-61659786D01*
X144059729Y-61661021D01*
X144043914Y-61668005D01*
X143975000Y-61676000D01*
X143025000Y-61676000D01*
X142956086Y-61668005D01*
X142940270Y-61661021D01*
X142932468Y-61659786D01*
X142899967Y-61643226D01*
X142854894Y-61623324D01*
X142776676Y-61545106D01*
X142756776Y-61500039D01*
X142740213Y-61467531D01*
X142738976Y-61459726D01*
X142731995Y-61443914D01*
X142724000Y-61375000D01*
X142724000Y-60700000D01*
X142731995Y-60631086D01*
X142738976Y-60615274D01*
X142740213Y-60607468D01*
X142756780Y-60574953D01*
X142776676Y-60529894D01*
X142854894Y-60451676D01*
X142899953Y-60431780D01*
X142932468Y-60415213D01*
X142940274Y-60413976D01*
X142956086Y-60406995D01*
X143025000Y-60399000D01*
X143975000Y-60399000D01*
X144043914Y-60406995D01*
G37*
G36*
X154243914Y-60406995D02*
G01*
X154259726Y-60413976D01*
X154267531Y-60415213D01*
X154300039Y-60431776D01*
X154345106Y-60451676D01*
X154423324Y-60529894D01*
X154443226Y-60574967D01*
X154459786Y-60607468D01*
X154461021Y-60615270D01*
X154468005Y-60631086D01*
X154476000Y-60700000D01*
X154476000Y-61375000D01*
X154468005Y-61443914D01*
X154461021Y-61459729D01*
X154459786Y-61467531D01*
X154443229Y-61500024D01*
X154423324Y-61545106D01*
X154345106Y-61623324D01*
X154300024Y-61643229D01*
X154267531Y-61659786D01*
X154259729Y-61661021D01*
X154243914Y-61668005D01*
X154175000Y-61676000D01*
X153225000Y-61676000D01*
X153156086Y-61668005D01*
X153140270Y-61661021D01*
X153132468Y-61659786D01*
X153099967Y-61643226D01*
X153054894Y-61623324D01*
X152976676Y-61545106D01*
X152956776Y-61500039D01*
X152940213Y-61467531D01*
X152938976Y-61459726D01*
X152931995Y-61443914D01*
X152924000Y-61375000D01*
X152924000Y-60700000D01*
X152931995Y-60631086D01*
X152938976Y-60615274D01*
X152940213Y-60607468D01*
X152956780Y-60574953D01*
X152976676Y-60529894D01*
X153054894Y-60451676D01*
X153099953Y-60431780D01*
X153132468Y-60415213D01*
X153140274Y-60413976D01*
X153156086Y-60406995D01*
X153225000Y-60399000D01*
X154175000Y-60399000D01*
X154243914Y-60406995D01*
G37*
G36*
X130818914Y-60406995D02*
G01*
X130834726Y-60413976D01*
X130842531Y-60415213D01*
X130875039Y-60431776D01*
X130920106Y-60451676D01*
X130998324Y-60529894D01*
X131018226Y-60574967D01*
X131034786Y-60607468D01*
X131036021Y-60615270D01*
X131043005Y-60631086D01*
X131051000Y-60700000D01*
X131051000Y-61350000D01*
X131043005Y-61418914D01*
X131036021Y-61434729D01*
X131034786Y-61442531D01*
X131018229Y-61475024D01*
X130998324Y-61520106D01*
X130920106Y-61598324D01*
X130875024Y-61618229D01*
X130842531Y-61634786D01*
X130834729Y-61636021D01*
X130818914Y-61643005D01*
X130750000Y-61651000D01*
X129850000Y-61651000D01*
X129781086Y-61643005D01*
X129765270Y-61636021D01*
X129757468Y-61634786D01*
X129724967Y-61618226D01*
X129679894Y-61598324D01*
X129601676Y-61520106D01*
X129581776Y-61475039D01*
X129565213Y-61442531D01*
X129563976Y-61434726D01*
X129556995Y-61418914D01*
X129549000Y-61350000D01*
X129549000Y-60700000D01*
X129556995Y-60631086D01*
X129563976Y-60615274D01*
X129565213Y-60607468D01*
X129581780Y-60574953D01*
X129601676Y-60529894D01*
X129679894Y-60451676D01*
X129724953Y-60431780D01*
X129757468Y-60415213D01*
X129765274Y-60413976D01*
X129781086Y-60406995D01*
X129850000Y-60399000D01*
X130750000Y-60399000D01*
X130818914Y-60406995D01*
G37*
G36*
X141018914Y-60406995D02*
G01*
X141034726Y-60413976D01*
X141042531Y-60415213D01*
X141075039Y-60431776D01*
X141120106Y-60451676D01*
X141198324Y-60529894D01*
X141218226Y-60574967D01*
X141234786Y-60607468D01*
X141236021Y-60615270D01*
X141243005Y-60631086D01*
X141251000Y-60700000D01*
X141251000Y-61350000D01*
X141243005Y-61418914D01*
X141236021Y-61434729D01*
X141234786Y-61442531D01*
X141218229Y-61475024D01*
X141198324Y-61520106D01*
X141120106Y-61598324D01*
X141075024Y-61618229D01*
X141042531Y-61634786D01*
X141034729Y-61636021D01*
X141018914Y-61643005D01*
X140950000Y-61651000D01*
X140050000Y-61651000D01*
X139981086Y-61643005D01*
X139965270Y-61636021D01*
X139957468Y-61634786D01*
X139924967Y-61618226D01*
X139879894Y-61598324D01*
X139801676Y-61520106D01*
X139781776Y-61475039D01*
X139765213Y-61442531D01*
X139763976Y-61434726D01*
X139756995Y-61418914D01*
X139749000Y-61350000D01*
X139749000Y-60700000D01*
X139756995Y-60631086D01*
X139763976Y-60615274D01*
X139765213Y-60607468D01*
X139781780Y-60574953D01*
X139801676Y-60529894D01*
X139879894Y-60451676D01*
X139924953Y-60431780D01*
X139957468Y-60415213D01*
X139965274Y-60413976D01*
X139981086Y-60406995D01*
X140050000Y-60399000D01*
X140950000Y-60399000D01*
X141018914Y-60406995D01*
G37*
G36*
X151218914Y-60406995D02*
G01*
X151234726Y-60413976D01*
X151242531Y-60415213D01*
X151275039Y-60431776D01*
X151320106Y-60451676D01*
X151398324Y-60529894D01*
X151418226Y-60574967D01*
X151434786Y-60607468D01*
X151436021Y-60615270D01*
X151443005Y-60631086D01*
X151451000Y-60700000D01*
X151451000Y-61350000D01*
X151443005Y-61418914D01*
X151436021Y-61434729D01*
X151434786Y-61442531D01*
X151418229Y-61475024D01*
X151398324Y-61520106D01*
X151320106Y-61598324D01*
X151275024Y-61618229D01*
X151242531Y-61634786D01*
X151234729Y-61636021D01*
X151218914Y-61643005D01*
X151150000Y-61651000D01*
X150250000Y-61651000D01*
X150181086Y-61643005D01*
X150165270Y-61636021D01*
X150157468Y-61634786D01*
X150124967Y-61618226D01*
X150079894Y-61598324D01*
X150001676Y-61520106D01*
X149981776Y-61475039D01*
X149965213Y-61442531D01*
X149963976Y-61434726D01*
X149956995Y-61418914D01*
X149949000Y-61350000D01*
X149949000Y-60700000D01*
X149956995Y-60631086D01*
X149963976Y-60615274D01*
X149965213Y-60607468D01*
X149981780Y-60574953D01*
X150001676Y-60529894D01*
X150079894Y-60451676D01*
X150124953Y-60431780D01*
X150157468Y-60415213D01*
X150165274Y-60413976D01*
X150181086Y-60406995D01*
X150250000Y-60399000D01*
X151150000Y-60399000D01*
X151218914Y-60406995D01*
G37*
G36*
X92295579Y-59336989D02*
G01*
X92311391Y-59343970D01*
X92319196Y-59345207D01*
X92351704Y-59361770D01*
X92396771Y-59381670D01*
X92474989Y-59459888D01*
X92494891Y-59504961D01*
X92511451Y-59537462D01*
X92512686Y-59545264D01*
X92519670Y-59561080D01*
X92527665Y-59629994D01*
X92527665Y-60304994D01*
X92519670Y-60373908D01*
X92512686Y-60389723D01*
X92511451Y-60397525D01*
X92494894Y-60430018D01*
X92474989Y-60475100D01*
X92396771Y-60553318D01*
X92351689Y-60573223D01*
X92319196Y-60589780D01*
X92311394Y-60591015D01*
X92295579Y-60597999D01*
X92226665Y-60605994D01*
X91276665Y-60605994D01*
X91207751Y-60597999D01*
X91191935Y-60591015D01*
X91184133Y-60589780D01*
X91151632Y-60573220D01*
X91106559Y-60553318D01*
X91028341Y-60475100D01*
X91008441Y-60430033D01*
X90991878Y-60397525D01*
X90990641Y-60389720D01*
X90983660Y-60373908D01*
X90975665Y-60304994D01*
X90975665Y-59629994D01*
X90983660Y-59561080D01*
X90990641Y-59545268D01*
X90991878Y-59537462D01*
X91008445Y-59504947D01*
X91028341Y-59459888D01*
X91106559Y-59381670D01*
X91151618Y-59361774D01*
X91184133Y-59345207D01*
X91191939Y-59343970D01*
X91207751Y-59336989D01*
X91276665Y-59328994D01*
X92226665Y-59328994D01*
X92295579Y-59336989D01*
G37*
G36*
X61282966Y-58932238D02*
G01*
X61444163Y-58964302D01*
X61596007Y-59027198D01*
X61732663Y-59118509D01*
X61848880Y-59234726D01*
X61940191Y-59371382D01*
X62003087Y-59523226D01*
X62035151Y-59684423D01*
X62035151Y-59848779D01*
X62003087Y-60009976D01*
X61940191Y-60161820D01*
X61848880Y-60298476D01*
X61732663Y-60414693D01*
X61596007Y-60506004D01*
X61444163Y-60568900D01*
X61282966Y-60600964D01*
X61200788Y-60605001D01*
X61197729Y-60605001D01*
X59273447Y-60605001D01*
X59270388Y-60605001D01*
X59188210Y-60600964D01*
X59027013Y-60568900D01*
X58875169Y-60506004D01*
X58738513Y-60414693D01*
X58622296Y-60298476D01*
X58530985Y-60161820D01*
X58468089Y-60009976D01*
X58436025Y-59848779D01*
X58436025Y-59684423D01*
X58468089Y-59523226D01*
X58530985Y-59371382D01*
X58622296Y-59234726D01*
X58738513Y-59118509D01*
X58875169Y-59027198D01*
X59027013Y-58964302D01*
X59188210Y-58932238D01*
X59270388Y-58928201D01*
X61200788Y-58928201D01*
X61282966Y-58932238D01*
G37*
G36*
X78524358Y-56733606D02*
G01*
X78751912Y-56794579D01*
X78969562Y-56884732D01*
X79173582Y-57002523D01*
X79360482Y-57145937D01*
X79527063Y-57312518D01*
X79670477Y-57499418D01*
X79788268Y-57703438D01*
X79878421Y-57921088D01*
X79939394Y-58148642D01*
X79970144Y-58382209D01*
X79970144Y-58617791D01*
X79939394Y-58851358D01*
X79878421Y-59078912D01*
X79788268Y-59296562D01*
X79670477Y-59500582D01*
X79527063Y-59687482D01*
X79360482Y-59854063D01*
X79173582Y-59997477D01*
X78969562Y-60115268D01*
X78751912Y-60205421D01*
X78524358Y-60266394D01*
X78290791Y-60297144D01*
X78055209Y-60297144D01*
X77821642Y-60266394D01*
X77594088Y-60205421D01*
X77376438Y-60115268D01*
X77172418Y-59997477D01*
X76985518Y-59854063D01*
X76818937Y-59687482D01*
X76675523Y-59500582D01*
X76557732Y-59296562D01*
X76467579Y-59078912D01*
X76406606Y-58851358D01*
X76375856Y-58617791D01*
X76375856Y-58382209D01*
X76406606Y-58148642D01*
X76467579Y-57921088D01*
X76557732Y-57703438D01*
X76675523Y-57499418D01*
X76818937Y-57312518D01*
X76985518Y-57145937D01*
X77172418Y-57002523D01*
X77376438Y-56884732D01*
X77594088Y-56794579D01*
X77821642Y-56733606D01*
X78055209Y-56702856D01*
X78290791Y-56702856D01*
X78524358Y-56733606D01*
G37*
G36*
X111844160Y-56733606D02*
G01*
X112071714Y-56794579D01*
X112289364Y-56884732D01*
X112493384Y-57002523D01*
X112680284Y-57145937D01*
X112846865Y-57312518D01*
X112990279Y-57499418D01*
X113108070Y-57703438D01*
X113198223Y-57921088D01*
X113259196Y-58148642D01*
X113289946Y-58382209D01*
X113289946Y-58617791D01*
X113259196Y-58851358D01*
X113198223Y-59078912D01*
X113108070Y-59296562D01*
X112990279Y-59500582D01*
X112846865Y-59687482D01*
X112680284Y-59854063D01*
X112493384Y-59997477D01*
X112289364Y-60115268D01*
X112071714Y-60205421D01*
X111844160Y-60266394D01*
X111610593Y-60297144D01*
X111375011Y-60297144D01*
X111141444Y-60266394D01*
X110913890Y-60205421D01*
X110696240Y-60115268D01*
X110492220Y-59997477D01*
X110305320Y-59854063D01*
X110138739Y-59687482D01*
X109995325Y-59500582D01*
X109877534Y-59296562D01*
X109787381Y-59078912D01*
X109726408Y-58851358D01*
X109695658Y-58617791D01*
X109695658Y-58382209D01*
X109726408Y-58148642D01*
X109787381Y-57921088D01*
X109877534Y-57703438D01*
X109995325Y-57499418D01*
X110138739Y-57312518D01*
X110305320Y-57145937D01*
X110492220Y-57002523D01*
X110696240Y-56884732D01*
X110913890Y-56794579D01*
X111141444Y-56733606D01*
X111375011Y-56702856D01*
X111610593Y-56702856D01*
X111844160Y-56733606D01*
G37*
G36*
X130818914Y-58356995D02*
G01*
X130834726Y-58363976D01*
X130842531Y-58365213D01*
X130875039Y-58381776D01*
X130920106Y-58401676D01*
X130998324Y-58479894D01*
X131018226Y-58524967D01*
X131034786Y-58557468D01*
X131036021Y-58565270D01*
X131043005Y-58581086D01*
X131051000Y-58650000D01*
X131051000Y-59300000D01*
X131043005Y-59368914D01*
X131036021Y-59384729D01*
X131034786Y-59392531D01*
X131018229Y-59425024D01*
X130998324Y-59470106D01*
X130920106Y-59548324D01*
X130875024Y-59568229D01*
X130842531Y-59584786D01*
X130834729Y-59586021D01*
X130818914Y-59593005D01*
X130750000Y-59601000D01*
X129850000Y-59601000D01*
X129781086Y-59593005D01*
X129765270Y-59586021D01*
X129757468Y-59584786D01*
X129724967Y-59568226D01*
X129679894Y-59548324D01*
X129601676Y-59470106D01*
X129581776Y-59425039D01*
X129565213Y-59392531D01*
X129563976Y-59384726D01*
X129556995Y-59368914D01*
X129549000Y-59300000D01*
X129549000Y-58650000D01*
X129556995Y-58581086D01*
X129563976Y-58565274D01*
X129565213Y-58557468D01*
X129581780Y-58524953D01*
X129601676Y-58479894D01*
X129679894Y-58401676D01*
X129724953Y-58381780D01*
X129757468Y-58365213D01*
X129765274Y-58363976D01*
X129781086Y-58356995D01*
X129850000Y-58349000D01*
X130750000Y-58349000D01*
X130818914Y-58356995D01*
G37*
G36*
X133843914Y-58331995D02*
G01*
X133859726Y-58338976D01*
X133867531Y-58340213D01*
X133900039Y-58356776D01*
X133945106Y-58376676D01*
X134023324Y-58454894D01*
X134043226Y-58499967D01*
X134059786Y-58532468D01*
X134061021Y-58540270D01*
X134068005Y-58556086D01*
X134076000Y-58625000D01*
X134076000Y-59300000D01*
X134068005Y-59368914D01*
X134061021Y-59384729D01*
X134059786Y-59392531D01*
X134043229Y-59425024D01*
X134023324Y-59470106D01*
X133945106Y-59548324D01*
X133900024Y-59568229D01*
X133867531Y-59584786D01*
X133859729Y-59586021D01*
X133843914Y-59593005D01*
X133775000Y-59601000D01*
X132825000Y-59601000D01*
X132756086Y-59593005D01*
X132740270Y-59586021D01*
X132732468Y-59584786D01*
X132699967Y-59568226D01*
X132654894Y-59548324D01*
X132576676Y-59470106D01*
X132556776Y-59425039D01*
X132540213Y-59392531D01*
X132538976Y-59384726D01*
X132531995Y-59368914D01*
X132524000Y-59300000D01*
X132524000Y-58625000D01*
X132531995Y-58556086D01*
X132538976Y-58540274D01*
X132540213Y-58532468D01*
X132556780Y-58499953D01*
X132576676Y-58454894D01*
X132654894Y-58376676D01*
X132699953Y-58356780D01*
X132732468Y-58340213D01*
X132740274Y-58338976D01*
X132756086Y-58331995D01*
X132825000Y-58324000D01*
X133775000Y-58324000D01*
X133843914Y-58331995D01*
G37*
G36*
X141018914Y-58356995D02*
G01*
X141034726Y-58363976D01*
X141042531Y-58365213D01*
X141075039Y-58381776D01*
X141120106Y-58401676D01*
X141198324Y-58479894D01*
X141218226Y-58524967D01*
X141234786Y-58557468D01*
X141236021Y-58565270D01*
X141243005Y-58581086D01*
X141251000Y-58650000D01*
X141251000Y-59300000D01*
X141243005Y-59368914D01*
X141236021Y-59384729D01*
X141234786Y-59392531D01*
X141218229Y-59425024D01*
X141198324Y-59470106D01*
X141120106Y-59548324D01*
X141075024Y-59568229D01*
X141042531Y-59584786D01*
X141034729Y-59586021D01*
X141018914Y-59593005D01*
X140950000Y-59601000D01*
X140050000Y-59601000D01*
X139981086Y-59593005D01*
X139965270Y-59586021D01*
X139957468Y-59584786D01*
X139924967Y-59568226D01*
X139879894Y-59548324D01*
X139801676Y-59470106D01*
X139781776Y-59425039D01*
X139765213Y-59392531D01*
X139763976Y-59384726D01*
X139756995Y-59368914D01*
X139749000Y-59300000D01*
X139749000Y-58650000D01*
X139756995Y-58581086D01*
X139763976Y-58565274D01*
X139765213Y-58557468D01*
X139781780Y-58524953D01*
X139801676Y-58479894D01*
X139879894Y-58401676D01*
X139924953Y-58381780D01*
X139957468Y-58365213D01*
X139965274Y-58363976D01*
X139981086Y-58356995D01*
X140050000Y-58349000D01*
X140950000Y-58349000D01*
X141018914Y-58356995D01*
G37*
G36*
X144043914Y-58331995D02*
G01*
X144059726Y-58338976D01*
X144067531Y-58340213D01*
X144100039Y-58356776D01*
X144145106Y-58376676D01*
X144223324Y-58454894D01*
X144243226Y-58499967D01*
X144259786Y-58532468D01*
X144261021Y-58540270D01*
X144268005Y-58556086D01*
X144276000Y-58625000D01*
X144276000Y-59300000D01*
X144268005Y-59368914D01*
X144261021Y-59384729D01*
X144259786Y-59392531D01*
X144243229Y-59425024D01*
X144223324Y-59470106D01*
X144145106Y-59548324D01*
X144100024Y-59568229D01*
X144067531Y-59584786D01*
X144059729Y-59586021D01*
X144043914Y-59593005D01*
X143975000Y-59601000D01*
X143025000Y-59601000D01*
X142956086Y-59593005D01*
X142940270Y-59586021D01*
X142932468Y-59584786D01*
X142899967Y-59568226D01*
X142854894Y-59548324D01*
X142776676Y-59470106D01*
X142756776Y-59425039D01*
X142740213Y-59392531D01*
X142738976Y-59384726D01*
X142731995Y-59368914D01*
X142724000Y-59300000D01*
X142724000Y-58625000D01*
X142731995Y-58556086D01*
X142738976Y-58540274D01*
X142740213Y-58532468D01*
X142756780Y-58499953D01*
X142776676Y-58454894D01*
X142854894Y-58376676D01*
X142899953Y-58356780D01*
X142932468Y-58340213D01*
X142940274Y-58338976D01*
X142956086Y-58331995D01*
X143025000Y-58324000D01*
X143975000Y-58324000D01*
X144043914Y-58331995D01*
G37*
G36*
X151218914Y-58356995D02*
G01*
X151234726Y-58363976D01*
X151242531Y-58365213D01*
X151275039Y-58381776D01*
X151320106Y-58401676D01*
X151398324Y-58479894D01*
X151418226Y-58524967D01*
X151434786Y-58557468D01*
X151436021Y-58565270D01*
X151443005Y-58581086D01*
X151451000Y-58650000D01*
X151451000Y-59300000D01*
X151443005Y-59368914D01*
X151436021Y-59384729D01*
X151434786Y-59392531D01*
X151418229Y-59425024D01*
X151398324Y-59470106D01*
X151320106Y-59548324D01*
X151275024Y-59568229D01*
X151242531Y-59584786D01*
X151234729Y-59586021D01*
X151218914Y-59593005D01*
X151150000Y-59601000D01*
X150250000Y-59601000D01*
X150181086Y-59593005D01*
X150165270Y-59586021D01*
X150157468Y-59584786D01*
X150124967Y-59568226D01*
X150079894Y-59548324D01*
X150001676Y-59470106D01*
X149981776Y-59425039D01*
X149965213Y-59392531D01*
X149963976Y-59384726D01*
X149956995Y-59368914D01*
X149949000Y-59300000D01*
X149949000Y-58650000D01*
X149956995Y-58581086D01*
X149963976Y-58565274D01*
X149965213Y-58557468D01*
X149981780Y-58524953D01*
X150001676Y-58479894D01*
X150079894Y-58401676D01*
X150124953Y-58381780D01*
X150157468Y-58365213D01*
X150165274Y-58363976D01*
X150181086Y-58356995D01*
X150250000Y-58349000D01*
X151150000Y-58349000D01*
X151218914Y-58356995D01*
G37*
G36*
X154243914Y-58331995D02*
G01*
X154259726Y-58338976D01*
X154267531Y-58340213D01*
X154300039Y-58356776D01*
X154345106Y-58376676D01*
X154423324Y-58454894D01*
X154443226Y-58499967D01*
X154459786Y-58532468D01*
X154461021Y-58540270D01*
X154468005Y-58556086D01*
X154476000Y-58625000D01*
X154476000Y-59300000D01*
X154468005Y-59368914D01*
X154461021Y-59384729D01*
X154459786Y-59392531D01*
X154443229Y-59425024D01*
X154423324Y-59470106D01*
X154345106Y-59548324D01*
X154300024Y-59568229D01*
X154267531Y-59584786D01*
X154259729Y-59586021D01*
X154243914Y-59593005D01*
X154175000Y-59601000D01*
X153225000Y-59601000D01*
X153156086Y-59593005D01*
X153140270Y-59586021D01*
X153132468Y-59584786D01*
X153099967Y-59568226D01*
X153054894Y-59548324D01*
X152976676Y-59470106D01*
X152956776Y-59425039D01*
X152940213Y-59392531D01*
X152938976Y-59384726D01*
X152931995Y-59368914D01*
X152924000Y-59300000D01*
X152924000Y-58625000D01*
X152931995Y-58556086D01*
X152938976Y-58540274D01*
X152940213Y-58532468D01*
X152956780Y-58499953D01*
X152976676Y-58454894D01*
X153054894Y-58376676D01*
X153099953Y-58356780D01*
X153132468Y-58340213D01*
X153140274Y-58338976D01*
X153156086Y-58331995D01*
X153225000Y-58324000D01*
X154175000Y-58324000D01*
X154243914Y-58331995D01*
G37*
G36*
X94890140Y-57496983D02*
G01*
X94956573Y-57499593D01*
X94962557Y-57500540D01*
X94978662Y-57501332D01*
X95022079Y-57509968D01*
X95114474Y-57524602D01*
X95144188Y-57534257D01*
X95171603Y-57539710D01*
X95210291Y-57555735D01*
X95264177Y-57573244D01*
X95314662Y-57598967D01*
X95353349Y-57614992D01*
X95376588Y-57630520D01*
X95404426Y-57644704D01*
X95480092Y-57699679D01*
X95516916Y-57724284D01*
X95524775Y-57732143D01*
X95531768Y-57737224D01*
X95643077Y-57848533D01*
X95648157Y-57855525D01*
X95656018Y-57863386D01*
X95680625Y-57900213D01*
X95735597Y-57975875D01*
X95749779Y-58003710D01*
X95765310Y-58026953D01*
X95781336Y-58065645D01*
X95807057Y-58116124D01*
X95824563Y-58170003D01*
X95840592Y-58208699D01*
X95846046Y-58236118D01*
X95855699Y-58265827D01*
X95870330Y-58358204D01*
X95878970Y-58401640D01*
X95878970Y-58412753D01*
X95880323Y-58421296D01*
X95880323Y-58578703D01*
X95878970Y-58587245D01*
X95878970Y-58598360D01*
X95870329Y-58641799D01*
X95855699Y-58734172D01*
X95846046Y-58763878D01*
X95840592Y-58791301D01*
X95824562Y-58830000D01*
X95807057Y-58883875D01*
X95781339Y-58934349D01*
X95765310Y-58973047D01*
X95749777Y-58996292D01*
X95735597Y-59024124D01*
X95680633Y-59099773D01*
X95656018Y-59136614D01*
X95648154Y-59144477D01*
X95643077Y-59151466D01*
X95531768Y-59262775D01*
X95524779Y-59267852D01*
X95516916Y-59275716D01*
X95480075Y-59300331D01*
X95404426Y-59355295D01*
X95376594Y-59369475D01*
X95353349Y-59385008D01*
X95314651Y-59401037D01*
X95264177Y-59426755D01*
X95210302Y-59444260D01*
X95171603Y-59460290D01*
X95144180Y-59465744D01*
X95114474Y-59475397D01*
X95022103Y-59490026D01*
X94978662Y-59498668D01*
X94962548Y-59499459D01*
X94956573Y-59500406D01*
X94890156Y-59503015D01*
X94880302Y-59503500D01*
X94877837Y-59503500D01*
X94787767Y-59503500D01*
X94785302Y-59503500D01*
X94775448Y-59503015D01*
X94709030Y-59500406D01*
X94703054Y-59499459D01*
X94686942Y-59498668D01*
X94643504Y-59490027D01*
X94551129Y-59475397D01*
X94521420Y-59465744D01*
X94494001Y-59460290D01*
X94455305Y-59444261D01*
X94401426Y-59426755D01*
X94350947Y-59401034D01*
X94312255Y-59385008D01*
X94289012Y-59369477D01*
X94261177Y-59355295D01*
X94185515Y-59300323D01*
X94148688Y-59275716D01*
X94140827Y-59267855D01*
X94133835Y-59262775D01*
X94022526Y-59151466D01*
X94017445Y-59144473D01*
X94009586Y-59136614D01*
X93984981Y-59099790D01*
X93930006Y-59024124D01*
X93915822Y-58996286D01*
X93900294Y-58973047D01*
X93884269Y-58934360D01*
X93858546Y-58883875D01*
X93841037Y-58829989D01*
X93825012Y-58791301D01*
X93819559Y-58763886D01*
X93809904Y-58734172D01*
X93795272Y-58641789D01*
X93786634Y-58598360D01*
X93786634Y-58587245D01*
X93785281Y-58578703D01*
X93785281Y-58421296D01*
X93786634Y-58412753D01*
X93786634Y-58401640D01*
X93795271Y-58358214D01*
X93809904Y-58265827D01*
X93819559Y-58236110D01*
X93825012Y-58208699D01*
X93841035Y-58170014D01*
X93858546Y-58116124D01*
X93884271Y-58065634D01*
X93900294Y-58026953D01*
X93915820Y-58003716D01*
X93930006Y-57975875D01*
X93984989Y-57900196D01*
X94009586Y-57863386D01*
X94017443Y-57855528D01*
X94022526Y-57848533D01*
X94133835Y-57737224D01*
X94140830Y-57732141D01*
X94148688Y-57724284D01*
X94185498Y-57699687D01*
X94261177Y-57644704D01*
X94289018Y-57630518D01*
X94312255Y-57614992D01*
X94350936Y-57598969D01*
X94401426Y-57573244D01*
X94455316Y-57555733D01*
X94494001Y-57539710D01*
X94521412Y-57534257D01*
X94551129Y-57524602D01*
X94643528Y-57509967D01*
X94686942Y-57501332D01*
X94703044Y-57500540D01*
X94709030Y-57499593D01*
X94775464Y-57496983D01*
X94785302Y-57496500D01*
X94880302Y-57496500D01*
X94890140Y-57496983D01*
G37*
G36*
X131168914Y-56231995D02*
G01*
X131184726Y-56238976D01*
X131192531Y-56240213D01*
X131225039Y-56256776D01*
X131270106Y-56276676D01*
X131348324Y-56354894D01*
X131368226Y-56399967D01*
X131384786Y-56432468D01*
X131386021Y-56440270D01*
X131393005Y-56456086D01*
X131401000Y-56525000D01*
X131401000Y-57475000D01*
X131393005Y-57543914D01*
X131386021Y-57559729D01*
X131384786Y-57567531D01*
X131368229Y-57600024D01*
X131348324Y-57645106D01*
X131270106Y-57723324D01*
X131225024Y-57743229D01*
X131192531Y-57759786D01*
X131184729Y-57761021D01*
X131168914Y-57768005D01*
X131100000Y-57776000D01*
X130425000Y-57776000D01*
X130356086Y-57768005D01*
X130340270Y-57761021D01*
X130332468Y-57759786D01*
X130299967Y-57743226D01*
X130254894Y-57723324D01*
X130176676Y-57645106D01*
X130156776Y-57600039D01*
X130140213Y-57567531D01*
X130138976Y-57559726D01*
X130131995Y-57543914D01*
X130124000Y-57475000D01*
X130124000Y-56525000D01*
X130131995Y-56456086D01*
X130138976Y-56440274D01*
X130140213Y-56432468D01*
X130156780Y-56399953D01*
X130176676Y-56354894D01*
X130254894Y-56276676D01*
X130299953Y-56256780D01*
X130332468Y-56240213D01*
X130340274Y-56238976D01*
X130356086Y-56231995D01*
X130425000Y-56224000D01*
X131100000Y-56224000D01*
X131168914Y-56231995D01*
G37*
G36*
X133243914Y-56231995D02*
G01*
X133259726Y-56238976D01*
X133267531Y-56240213D01*
X133300039Y-56256776D01*
X133345106Y-56276676D01*
X133423324Y-56354894D01*
X133443226Y-56399967D01*
X133459786Y-56432468D01*
X133461021Y-56440270D01*
X133468005Y-56456086D01*
X133476000Y-56525000D01*
X133476000Y-57475000D01*
X133468005Y-57543914D01*
X133461021Y-57559729D01*
X133459786Y-57567531D01*
X133443229Y-57600024D01*
X133423324Y-57645106D01*
X133345106Y-57723324D01*
X133300024Y-57743229D01*
X133267531Y-57759786D01*
X133259729Y-57761021D01*
X133243914Y-57768005D01*
X133175000Y-57776000D01*
X132500000Y-57776000D01*
X132431086Y-57768005D01*
X132415270Y-57761021D01*
X132407468Y-57759786D01*
X132374967Y-57743226D01*
X132329894Y-57723324D01*
X132251676Y-57645106D01*
X132231776Y-57600039D01*
X132215213Y-57567531D01*
X132213976Y-57559726D01*
X132206995Y-57543914D01*
X132199000Y-57475000D01*
X132199000Y-56525000D01*
X132206995Y-56456086D01*
X132213976Y-56440274D01*
X132215213Y-56432468D01*
X132231780Y-56399953D01*
X132251676Y-56354894D01*
X132329894Y-56276676D01*
X132374953Y-56256780D01*
X132407468Y-56240213D01*
X132415274Y-56238976D01*
X132431086Y-56231995D01*
X132500000Y-56224000D01*
X133175000Y-56224000D01*
X133243914Y-56231995D01*
G37*
G36*
X141368914Y-56231995D02*
G01*
X141384726Y-56238976D01*
X141392531Y-56240213D01*
X141425039Y-56256776D01*
X141470106Y-56276676D01*
X141548324Y-56354894D01*
X141568226Y-56399967D01*
X141584786Y-56432468D01*
X141586021Y-56440270D01*
X141593005Y-56456086D01*
X141601000Y-56525000D01*
X141601000Y-57475000D01*
X141593005Y-57543914D01*
X141586021Y-57559729D01*
X141584786Y-57567531D01*
X141568229Y-57600024D01*
X141548324Y-57645106D01*
X141470106Y-57723324D01*
X141425024Y-57743229D01*
X141392531Y-57759786D01*
X141384729Y-57761021D01*
X141368914Y-57768005D01*
X141300000Y-57776000D01*
X140625000Y-57776000D01*
X140556086Y-57768005D01*
X140540270Y-57761021D01*
X140532468Y-57759786D01*
X140499967Y-57743226D01*
X140454894Y-57723324D01*
X140376676Y-57645106D01*
X140356776Y-57600039D01*
X140340213Y-57567531D01*
X140338976Y-57559726D01*
X140331995Y-57543914D01*
X140324000Y-57475000D01*
X140324000Y-56525000D01*
X140331995Y-56456086D01*
X140338976Y-56440274D01*
X140340213Y-56432468D01*
X140356780Y-56399953D01*
X140376676Y-56354894D01*
X140454894Y-56276676D01*
X140499953Y-56256780D01*
X140532468Y-56240213D01*
X140540274Y-56238976D01*
X140556086Y-56231995D01*
X140625000Y-56224000D01*
X141300000Y-56224000D01*
X141368914Y-56231995D01*
G37*
G36*
X143443914Y-56231995D02*
G01*
X143459726Y-56238976D01*
X143467531Y-56240213D01*
X143500039Y-56256776D01*
X143545106Y-56276676D01*
X143623324Y-56354894D01*
X143643226Y-56399967D01*
X143659786Y-56432468D01*
X143661021Y-56440270D01*
X143668005Y-56456086D01*
X143676000Y-56525000D01*
X143676000Y-57475000D01*
X143668005Y-57543914D01*
X143661021Y-57559729D01*
X143659786Y-57567531D01*
X143643229Y-57600024D01*
X143623324Y-57645106D01*
X143545106Y-57723324D01*
X143500024Y-57743229D01*
X143467531Y-57759786D01*
X143459729Y-57761021D01*
X143443914Y-57768005D01*
X143375000Y-57776000D01*
X142700000Y-57776000D01*
X142631086Y-57768005D01*
X142615270Y-57761021D01*
X142607468Y-57759786D01*
X142574967Y-57743226D01*
X142529894Y-57723324D01*
X142451676Y-57645106D01*
X142431776Y-57600039D01*
X142415213Y-57567531D01*
X142413976Y-57559726D01*
X142406995Y-57543914D01*
X142399000Y-57475000D01*
X142399000Y-56525000D01*
X142406995Y-56456086D01*
X142413976Y-56440274D01*
X142415213Y-56432468D01*
X142431780Y-56399953D01*
X142451676Y-56354894D01*
X142529894Y-56276676D01*
X142574953Y-56256780D01*
X142607468Y-56240213D01*
X142615274Y-56238976D01*
X142631086Y-56231995D01*
X142700000Y-56224000D01*
X143375000Y-56224000D01*
X143443914Y-56231995D01*
G37*
G36*
X151568914Y-56231995D02*
G01*
X151584726Y-56238976D01*
X151592531Y-56240213D01*
X151625039Y-56256776D01*
X151670106Y-56276676D01*
X151748324Y-56354894D01*
X151768226Y-56399967D01*
X151784786Y-56432468D01*
X151786021Y-56440270D01*
X151793005Y-56456086D01*
X151801000Y-56525000D01*
X151801000Y-57475000D01*
X151793005Y-57543914D01*
X151786021Y-57559729D01*
X151784786Y-57567531D01*
X151768229Y-57600024D01*
X151748324Y-57645106D01*
X151670106Y-57723324D01*
X151625024Y-57743229D01*
X151592531Y-57759786D01*
X151584729Y-57761021D01*
X151568914Y-57768005D01*
X151500000Y-57776000D01*
X150825000Y-57776000D01*
X150756086Y-57768005D01*
X150740270Y-57761021D01*
X150732468Y-57759786D01*
X150699967Y-57743226D01*
X150654894Y-57723324D01*
X150576676Y-57645106D01*
X150556776Y-57600039D01*
X150540213Y-57567531D01*
X150538976Y-57559726D01*
X150531995Y-57543914D01*
X150524000Y-57475000D01*
X150524000Y-56525000D01*
X150531995Y-56456086D01*
X150538976Y-56440274D01*
X150540213Y-56432468D01*
X150556780Y-56399953D01*
X150576676Y-56354894D01*
X150654894Y-56276676D01*
X150699953Y-56256780D01*
X150732468Y-56240213D01*
X150740274Y-56238976D01*
X150756086Y-56231995D01*
X150825000Y-56224000D01*
X151500000Y-56224000D01*
X151568914Y-56231995D01*
G37*
G36*
X153643914Y-56231995D02*
G01*
X153659726Y-56238976D01*
X153667531Y-56240213D01*
X153700039Y-56256776D01*
X153745106Y-56276676D01*
X153823324Y-56354894D01*
X153843226Y-56399967D01*
X153859786Y-56432468D01*
X153861021Y-56440270D01*
X153868005Y-56456086D01*
X153876000Y-56525000D01*
X153876000Y-57475000D01*
X153868005Y-57543914D01*
X153861021Y-57559729D01*
X153859786Y-57567531D01*
X153843229Y-57600024D01*
X153823324Y-57645106D01*
X153745106Y-57723324D01*
X153700024Y-57743229D01*
X153667531Y-57759786D01*
X153659729Y-57761021D01*
X153643914Y-57768005D01*
X153575000Y-57776000D01*
X152900000Y-57776000D01*
X152831086Y-57768005D01*
X152815270Y-57761021D01*
X152807468Y-57759786D01*
X152774967Y-57743226D01*
X152729894Y-57723324D01*
X152651676Y-57645106D01*
X152631776Y-57600039D01*
X152615213Y-57567531D01*
X152613976Y-57559726D01*
X152606995Y-57543914D01*
X152599000Y-57475000D01*
X152599000Y-56525000D01*
X152606995Y-56456086D01*
X152613976Y-56440274D01*
X152615213Y-56432468D01*
X152631780Y-56399953D01*
X152651676Y-56354894D01*
X152729894Y-56276676D01*
X152774953Y-56256780D01*
X152807468Y-56240213D01*
X152815274Y-56238976D01*
X152831086Y-56231995D01*
X152900000Y-56224000D01*
X153575000Y-56224000D01*
X153643914Y-56231995D01*
G37*
G36*
X92295579Y-56425926D02*
G01*
X92311391Y-56432907D01*
X92319196Y-56434144D01*
X92351704Y-56450707D01*
X92396771Y-56470607D01*
X92474989Y-56548825D01*
X92494891Y-56593898D01*
X92511451Y-56626399D01*
X92512686Y-56634201D01*
X92519670Y-56650017D01*
X92527665Y-56718931D01*
X92527665Y-57393931D01*
X92519670Y-57462845D01*
X92512686Y-57478660D01*
X92511451Y-57486462D01*
X92494894Y-57518955D01*
X92474989Y-57564037D01*
X92396771Y-57642255D01*
X92351689Y-57662160D01*
X92319196Y-57678717D01*
X92311394Y-57679952D01*
X92295579Y-57686936D01*
X92226665Y-57694931D01*
X91276665Y-57694931D01*
X91207751Y-57686936D01*
X91191935Y-57679952D01*
X91184133Y-57678717D01*
X91151632Y-57662157D01*
X91106559Y-57642255D01*
X91028341Y-57564037D01*
X91008441Y-57518970D01*
X90991878Y-57486462D01*
X90990641Y-57478657D01*
X90983660Y-57462845D01*
X90975665Y-57393931D01*
X90975665Y-56718931D01*
X90983660Y-56650017D01*
X90990641Y-56634205D01*
X90991878Y-56626399D01*
X91008445Y-56593884D01*
X91028341Y-56548825D01*
X91106559Y-56470607D01*
X91151618Y-56450711D01*
X91184133Y-56434144D01*
X91191939Y-56432907D01*
X91207751Y-56425926D01*
X91276665Y-56417931D01*
X92226665Y-56417931D01*
X92295579Y-56425926D01*
G37*
G36*
X95852319Y-54960382D02*
G01*
X95868864Y-54971438D01*
X95879920Y-54987983D01*
X95883802Y-55007500D01*
X95883802Y-56912500D01*
X95879920Y-56932017D01*
X95868864Y-56948562D01*
X95852319Y-56959618D01*
X95832802Y-56963500D01*
X93832802Y-56963500D01*
X93813285Y-56959618D01*
X93796740Y-56948562D01*
X93785684Y-56932017D01*
X93781802Y-56912500D01*
X93781802Y-55007500D01*
X93785684Y-54987983D01*
X93796740Y-54971438D01*
X93813285Y-54960382D01*
X93832802Y-54956500D01*
X95832802Y-54956500D01*
X95852319Y-54960382D01*
G37*
G36*
X57353965Y-53199101D02*
G01*
X57505809Y-53261997D01*
X57642465Y-53353308D01*
X57758682Y-53469525D01*
X57849993Y-53606181D01*
X57912889Y-53758025D01*
X57944953Y-53919222D01*
X57948990Y-54001400D01*
X57948990Y-55931800D01*
X57944953Y-56013978D01*
X57912889Y-56175175D01*
X57849993Y-56327019D01*
X57758682Y-56463675D01*
X57642465Y-56579892D01*
X57505809Y-56671203D01*
X57353965Y-56734099D01*
X57192768Y-56766163D01*
X57028412Y-56766163D01*
X56867215Y-56734099D01*
X56715371Y-56671203D01*
X56578715Y-56579892D01*
X56462498Y-56463675D01*
X56371187Y-56327019D01*
X56308291Y-56175175D01*
X56276227Y-56013978D01*
X56272190Y-55931800D01*
X56272190Y-54001400D01*
X56276227Y-53919222D01*
X56308291Y-53758025D01*
X56371187Y-53606181D01*
X56462498Y-53469525D01*
X56578715Y-53353308D01*
X56715371Y-53261997D01*
X56867215Y-53199101D01*
X57028412Y-53167037D01*
X57192768Y-53167037D01*
X57353965Y-53199101D01*
G37*
G36*
X63603965Y-53199101D02*
G01*
X63755809Y-53261997D01*
X63892465Y-53353308D01*
X64008682Y-53469525D01*
X64099993Y-53606181D01*
X64162889Y-53758025D01*
X64194953Y-53919222D01*
X64198990Y-54001400D01*
X64198990Y-55931800D01*
X64194953Y-56013978D01*
X64162889Y-56175175D01*
X64099993Y-56327019D01*
X64008682Y-56463675D01*
X63892465Y-56579892D01*
X63755809Y-56671203D01*
X63603965Y-56734099D01*
X63442768Y-56766163D01*
X63278412Y-56766163D01*
X63117215Y-56734099D01*
X62965371Y-56671203D01*
X62828715Y-56579892D01*
X62712498Y-56463675D01*
X62621187Y-56327019D01*
X62558291Y-56175175D01*
X62526227Y-56013978D01*
X62522190Y-55931800D01*
X62522190Y-54001400D01*
X62526227Y-53919222D01*
X62558291Y-53758025D01*
X62621187Y-53606181D01*
X62712498Y-53469525D01*
X62828715Y-53353308D01*
X62965371Y-53261997D01*
X63117215Y-53199101D01*
X63278412Y-53167037D01*
X63442768Y-53167037D01*
X63603965Y-53199101D01*
G37*
G36*
X131168914Y-54231995D02*
G01*
X131184726Y-54238976D01*
X131192531Y-54240213D01*
X131225039Y-54256776D01*
X131270106Y-54276676D01*
X131348324Y-54354894D01*
X131368226Y-54399967D01*
X131384786Y-54432468D01*
X131386021Y-54440270D01*
X131393005Y-54456086D01*
X131401000Y-54525000D01*
X131401000Y-55475000D01*
X131393005Y-55543914D01*
X131386021Y-55559729D01*
X131384786Y-55567531D01*
X131368229Y-55600024D01*
X131348324Y-55645106D01*
X131270106Y-55723324D01*
X131225024Y-55743229D01*
X131192531Y-55759786D01*
X131184729Y-55761021D01*
X131168914Y-55768005D01*
X131100000Y-55776000D01*
X130425000Y-55776000D01*
X130356086Y-55768005D01*
X130340270Y-55761021D01*
X130332468Y-55759786D01*
X130299967Y-55743226D01*
X130254894Y-55723324D01*
X130176676Y-55645106D01*
X130156776Y-55600039D01*
X130140213Y-55567531D01*
X130138976Y-55559726D01*
X130131995Y-55543914D01*
X130124000Y-55475000D01*
X130124000Y-54525000D01*
X130131995Y-54456086D01*
X130138976Y-54440274D01*
X130140213Y-54432468D01*
X130156780Y-54399953D01*
X130176676Y-54354894D01*
X130254894Y-54276676D01*
X130299953Y-54256780D01*
X130332468Y-54240213D01*
X130340274Y-54238976D01*
X130356086Y-54231995D01*
X130425000Y-54224000D01*
X131100000Y-54224000D01*
X131168914Y-54231995D01*
G37*
G36*
X133243914Y-54231995D02*
G01*
X133259726Y-54238976D01*
X133267531Y-54240213D01*
X133300039Y-54256776D01*
X133345106Y-54276676D01*
X133423324Y-54354894D01*
X133443226Y-54399967D01*
X133459786Y-54432468D01*
X133461021Y-54440270D01*
X133468005Y-54456086D01*
X133476000Y-54525000D01*
X133476000Y-55475000D01*
X133468005Y-55543914D01*
X133461021Y-55559729D01*
X133459786Y-55567531D01*
X133443229Y-55600024D01*
X133423324Y-55645106D01*
X133345106Y-55723324D01*
X133300024Y-55743229D01*
X133267531Y-55759786D01*
X133259729Y-55761021D01*
X133243914Y-55768005D01*
X133175000Y-55776000D01*
X132500000Y-55776000D01*
X132431086Y-55768005D01*
X132415270Y-55761021D01*
X132407468Y-55759786D01*
X132374967Y-55743226D01*
X132329894Y-55723324D01*
X132251676Y-55645106D01*
X132231776Y-55600039D01*
X132215213Y-55567531D01*
X132213976Y-55559726D01*
X132206995Y-55543914D01*
X132199000Y-55475000D01*
X132199000Y-54525000D01*
X132206995Y-54456086D01*
X132213976Y-54440274D01*
X132215213Y-54432468D01*
X132231780Y-54399953D01*
X132251676Y-54354894D01*
X132329894Y-54276676D01*
X132374953Y-54256780D01*
X132407468Y-54240213D01*
X132415274Y-54238976D01*
X132431086Y-54231995D01*
X132500000Y-54224000D01*
X133175000Y-54224000D01*
X133243914Y-54231995D01*
G37*
G36*
X141368914Y-54231995D02*
G01*
X141384726Y-54238976D01*
X141392531Y-54240213D01*
X141425039Y-54256776D01*
X141470106Y-54276676D01*
X141548324Y-54354894D01*
X141568226Y-54399967D01*
X141584786Y-54432468D01*
X141586021Y-54440270D01*
X141593005Y-54456086D01*
X141601000Y-54525000D01*
X141601000Y-55475000D01*
X141593005Y-55543914D01*
X141586021Y-55559729D01*
X141584786Y-55567531D01*
X141568229Y-55600024D01*
X141548324Y-55645106D01*
X141470106Y-55723324D01*
X141425024Y-55743229D01*
X141392531Y-55759786D01*
X141384729Y-55761021D01*
X141368914Y-55768005D01*
X141300000Y-55776000D01*
X140625000Y-55776000D01*
X140556086Y-55768005D01*
X140540270Y-55761021D01*
X140532468Y-55759786D01*
X140499967Y-55743226D01*
X140454894Y-55723324D01*
X140376676Y-55645106D01*
X140356776Y-55600039D01*
X140340213Y-55567531D01*
X140338976Y-55559726D01*
X140331995Y-55543914D01*
X140324000Y-55475000D01*
X140324000Y-54525000D01*
X140331995Y-54456086D01*
X140338976Y-54440274D01*
X140340213Y-54432468D01*
X140356780Y-54399953D01*
X140376676Y-54354894D01*
X140454894Y-54276676D01*
X140499953Y-54256780D01*
X140532468Y-54240213D01*
X140540274Y-54238976D01*
X140556086Y-54231995D01*
X140625000Y-54224000D01*
X141300000Y-54224000D01*
X141368914Y-54231995D01*
G37*
G36*
X143443914Y-54231995D02*
G01*
X143459726Y-54238976D01*
X143467531Y-54240213D01*
X143500039Y-54256776D01*
X143545106Y-54276676D01*
X143623324Y-54354894D01*
X143643226Y-54399967D01*
X143659786Y-54432468D01*
X143661021Y-54440270D01*
X143668005Y-54456086D01*
X143676000Y-54525000D01*
X143676000Y-55475000D01*
X143668005Y-55543914D01*
X143661021Y-55559729D01*
X143659786Y-55567531D01*
X143643229Y-55600024D01*
X143623324Y-55645106D01*
X143545106Y-55723324D01*
X143500024Y-55743229D01*
X143467531Y-55759786D01*
X143459729Y-55761021D01*
X143443914Y-55768005D01*
X143375000Y-55776000D01*
X142700000Y-55776000D01*
X142631086Y-55768005D01*
X142615270Y-55761021D01*
X142607468Y-55759786D01*
X142574967Y-55743226D01*
X142529894Y-55723324D01*
X142451676Y-55645106D01*
X142431776Y-55600039D01*
X142415213Y-55567531D01*
X142413976Y-55559726D01*
X142406995Y-55543914D01*
X142399000Y-55475000D01*
X142399000Y-54525000D01*
X142406995Y-54456086D01*
X142413976Y-54440274D01*
X142415213Y-54432468D01*
X142431780Y-54399953D01*
X142451676Y-54354894D01*
X142529894Y-54276676D01*
X142574953Y-54256780D01*
X142607468Y-54240213D01*
X142615274Y-54238976D01*
X142631086Y-54231995D01*
X142700000Y-54224000D01*
X143375000Y-54224000D01*
X143443914Y-54231995D01*
G37*
G36*
X151568914Y-54231995D02*
G01*
X151584726Y-54238976D01*
X151592531Y-54240213D01*
X151625039Y-54256776D01*
X151670106Y-54276676D01*
X151748324Y-54354894D01*
X151768226Y-54399967D01*
X151784786Y-54432468D01*
X151786021Y-54440270D01*
X151793005Y-54456086D01*
X151801000Y-54525000D01*
X151801000Y-55475000D01*
X151793005Y-55543914D01*
X151786021Y-55559729D01*
X151784786Y-55567531D01*
X151768229Y-55600024D01*
X151748324Y-55645106D01*
X151670106Y-55723324D01*
X151625024Y-55743229D01*
X151592531Y-55759786D01*
X151584729Y-55761021D01*
X151568914Y-55768005D01*
X151500000Y-55776000D01*
X150825000Y-55776000D01*
X150756086Y-55768005D01*
X150740270Y-55761021D01*
X150732468Y-55759786D01*
X150699967Y-55743226D01*
X150654894Y-55723324D01*
X150576676Y-55645106D01*
X150556776Y-55600039D01*
X150540213Y-55567531D01*
X150538976Y-55559726D01*
X150531995Y-55543914D01*
X150524000Y-55475000D01*
X150524000Y-54525000D01*
X150531995Y-54456086D01*
X150538976Y-54440274D01*
X150540213Y-54432468D01*
X150556780Y-54399953D01*
X150576676Y-54354894D01*
X150654894Y-54276676D01*
X150699953Y-54256780D01*
X150732468Y-54240213D01*
X150740274Y-54238976D01*
X150756086Y-54231995D01*
X150825000Y-54224000D01*
X151500000Y-54224000D01*
X151568914Y-54231995D01*
G37*
G36*
X153643914Y-54231995D02*
G01*
X153659726Y-54238976D01*
X153667531Y-54240213D01*
X153700039Y-54256776D01*
X153745106Y-54276676D01*
X153823324Y-54354894D01*
X153843226Y-54399967D01*
X153859786Y-54432468D01*
X153861021Y-54440270D01*
X153868005Y-54456086D01*
X153876000Y-54525000D01*
X153876000Y-55475000D01*
X153868005Y-55543914D01*
X153861021Y-55559729D01*
X153859786Y-55567531D01*
X153843229Y-55600024D01*
X153823324Y-55645106D01*
X153745106Y-55723324D01*
X153700024Y-55743229D01*
X153667531Y-55759786D01*
X153659729Y-55761021D01*
X153643914Y-55768005D01*
X153575000Y-55776000D01*
X152900000Y-55776000D01*
X152831086Y-55768005D01*
X152815270Y-55761021D01*
X152807468Y-55759786D01*
X152774967Y-55743226D01*
X152729894Y-55723324D01*
X152651676Y-55645106D01*
X152631776Y-55600039D01*
X152615213Y-55567531D01*
X152613976Y-55559726D01*
X152606995Y-55543914D01*
X152599000Y-55475000D01*
X152599000Y-54525000D01*
X152606995Y-54456086D01*
X152613976Y-54440274D01*
X152615213Y-54432468D01*
X152631780Y-54399953D01*
X152651676Y-54354894D01*
X152729894Y-54276676D01*
X152774953Y-54256780D01*
X152807468Y-54240213D01*
X152815274Y-54238976D01*
X152831086Y-54231995D01*
X152900000Y-54224000D01*
X153575000Y-54224000D01*
X153643914Y-54231995D01*
G37*
G36*
X67729504Y-54223595D02*
G01*
X67745316Y-54230576D01*
X67753121Y-54231813D01*
X67785629Y-54248376D01*
X67830696Y-54268276D01*
X67908914Y-54346494D01*
X67928816Y-54391567D01*
X67945376Y-54424068D01*
X67946611Y-54431870D01*
X67953595Y-54447686D01*
X67961590Y-54516600D01*
X67961590Y-55416600D01*
X67953595Y-55485514D01*
X67946611Y-55501329D01*
X67945376Y-55509131D01*
X67928819Y-55541624D01*
X67908914Y-55586706D01*
X67830696Y-55664924D01*
X67785614Y-55684829D01*
X67753121Y-55701386D01*
X67745319Y-55702621D01*
X67729504Y-55709605D01*
X67660590Y-55717600D01*
X67010590Y-55717600D01*
X66941676Y-55709605D01*
X66925860Y-55702621D01*
X66918058Y-55701386D01*
X66885557Y-55684826D01*
X66840484Y-55664924D01*
X66762266Y-55586706D01*
X66742366Y-55541639D01*
X66725803Y-55509131D01*
X66724566Y-55501326D01*
X66717585Y-55485514D01*
X66709590Y-55416600D01*
X66709590Y-54516600D01*
X66717585Y-54447686D01*
X66724566Y-54431874D01*
X66725803Y-54424068D01*
X66742370Y-54391553D01*
X66762266Y-54346494D01*
X66840484Y-54268276D01*
X66885543Y-54248380D01*
X66918058Y-54231813D01*
X66925864Y-54230576D01*
X66941676Y-54223595D01*
X67010590Y-54215600D01*
X67660590Y-54215600D01*
X67729504Y-54223595D01*
G37*
G36*
X69779504Y-54223595D02*
G01*
X69795316Y-54230576D01*
X69803121Y-54231813D01*
X69835629Y-54248376D01*
X69880696Y-54268276D01*
X69958914Y-54346494D01*
X69978816Y-54391567D01*
X69995376Y-54424068D01*
X69996611Y-54431870D01*
X70003595Y-54447686D01*
X70011590Y-54516600D01*
X70011590Y-55416600D01*
X70003595Y-55485514D01*
X69996611Y-55501329D01*
X69995376Y-55509131D01*
X69978819Y-55541624D01*
X69958914Y-55586706D01*
X69880696Y-55664924D01*
X69835614Y-55684829D01*
X69803121Y-55701386D01*
X69795319Y-55702621D01*
X69779504Y-55709605D01*
X69710590Y-55717600D01*
X69060590Y-55717600D01*
X68991676Y-55709605D01*
X68975860Y-55702621D01*
X68968058Y-55701386D01*
X68935557Y-55684826D01*
X68890484Y-55664924D01*
X68812266Y-55586706D01*
X68792366Y-55541639D01*
X68775803Y-55509131D01*
X68774566Y-55501326D01*
X68767585Y-55485514D01*
X68759590Y-55416600D01*
X68759590Y-54516600D01*
X68767585Y-54447686D01*
X68774566Y-54431874D01*
X68775803Y-54424068D01*
X68792370Y-54391553D01*
X68812266Y-54346494D01*
X68890484Y-54268276D01*
X68935543Y-54248380D01*
X68968058Y-54231813D01*
X68975864Y-54230576D01*
X68991676Y-54223595D01*
X69060590Y-54215600D01*
X69710590Y-54215600D01*
X69779504Y-54223595D01*
G37*
G36*
X92295579Y-54350926D02*
G01*
X92311391Y-54357907D01*
X92319196Y-54359144D01*
X92351704Y-54375707D01*
X92396771Y-54395607D01*
X92474989Y-54473825D01*
X92494891Y-54518898D01*
X92511451Y-54551399D01*
X92512686Y-54559201D01*
X92519670Y-54575017D01*
X92527665Y-54643931D01*
X92527665Y-55318931D01*
X92519670Y-55387845D01*
X92512686Y-55403660D01*
X92511451Y-55411462D01*
X92494894Y-55443955D01*
X92474989Y-55489037D01*
X92396771Y-55567255D01*
X92351689Y-55587160D01*
X92319196Y-55603717D01*
X92311394Y-55604952D01*
X92295579Y-55611936D01*
X92226665Y-55619931D01*
X91276665Y-55619931D01*
X91207751Y-55611936D01*
X91191935Y-55604952D01*
X91184133Y-55603717D01*
X91151632Y-55587157D01*
X91106559Y-55567255D01*
X91028341Y-55489037D01*
X91008441Y-55443970D01*
X90991878Y-55411462D01*
X90990641Y-55403657D01*
X90983660Y-55387845D01*
X90975665Y-55318931D01*
X90975665Y-54643931D01*
X90983660Y-54575017D01*
X90990641Y-54559205D01*
X90991878Y-54551399D01*
X91008445Y-54518884D01*
X91028341Y-54473825D01*
X91106559Y-54395607D01*
X91151618Y-54375711D01*
X91184133Y-54359144D01*
X91191939Y-54357907D01*
X91207751Y-54350926D01*
X91276665Y-54342931D01*
X92226665Y-54342931D01*
X92295579Y-54350926D01*
G37*
G36*
X128222518Y-48383491D02*
G01*
X128367589Y-48443581D01*
X128498149Y-48530819D01*
X128609181Y-48641851D01*
X128696419Y-48772411D01*
X128756509Y-48917482D01*
X128787143Y-49071488D01*
X128791000Y-49150000D01*
X128791000Y-50250000D01*
X128787143Y-50328512D01*
X128756509Y-50482518D01*
X128696419Y-50627589D01*
X128609181Y-50758149D01*
X128498149Y-50869181D01*
X128367589Y-50956419D01*
X128222518Y-51016509D01*
X128068512Y-51047143D01*
X127911488Y-51047143D01*
X127757482Y-51016509D01*
X127612411Y-50956419D01*
X127481851Y-50869181D01*
X127370819Y-50758149D01*
X127283581Y-50627589D01*
X127223491Y-50482518D01*
X127192857Y-50328512D01*
X127189000Y-50250000D01*
X127189000Y-49150000D01*
X127192857Y-49071488D01*
X127223491Y-48917482D01*
X127283581Y-48772411D01*
X127370819Y-48641851D01*
X127481851Y-48530819D01*
X127612411Y-48443581D01*
X127757482Y-48383491D01*
X127911488Y-48352857D01*
X128068512Y-48352857D01*
X128222518Y-48383491D01*
G37*
G36*
X130762518Y-48383491D02*
G01*
X130907589Y-48443581D01*
X131038149Y-48530819D01*
X131149181Y-48641851D01*
X131236419Y-48772411D01*
X131296509Y-48917482D01*
X131327143Y-49071488D01*
X131331000Y-49150000D01*
X131331000Y-50250000D01*
X131327143Y-50328512D01*
X131296509Y-50482518D01*
X131236419Y-50627589D01*
X131149181Y-50758149D01*
X131038149Y-50869181D01*
X130907589Y-50956419D01*
X130762518Y-51016509D01*
X130608512Y-51047143D01*
X130451488Y-51047143D01*
X130297482Y-51016509D01*
X130152411Y-50956419D01*
X130021851Y-50869181D01*
X129910819Y-50758149D01*
X129823581Y-50627589D01*
X129763491Y-50482518D01*
X129732857Y-50328512D01*
X129729000Y-50250000D01*
X129729000Y-49150000D01*
X129732857Y-49071488D01*
X129763491Y-48917482D01*
X129823581Y-48772411D01*
X129910819Y-48641851D01*
X130021851Y-48530819D01*
X130152411Y-48443581D01*
X130297482Y-48383491D01*
X130451488Y-48352857D01*
X130608512Y-48352857D01*
X130762518Y-48383491D01*
G37*
G36*
X133302518Y-48383491D02*
G01*
X133447589Y-48443581D01*
X133578149Y-48530819D01*
X133689181Y-48641851D01*
X133776419Y-48772411D01*
X133836509Y-48917482D01*
X133867143Y-49071488D01*
X133871000Y-49150000D01*
X133871000Y-50250000D01*
X133867143Y-50328512D01*
X133836509Y-50482518D01*
X133776419Y-50627589D01*
X133689181Y-50758149D01*
X133578149Y-50869181D01*
X133447589Y-50956419D01*
X133302518Y-51016509D01*
X133148512Y-51047143D01*
X132991488Y-51047143D01*
X132837482Y-51016509D01*
X132692411Y-50956419D01*
X132561851Y-50869181D01*
X132450819Y-50758149D01*
X132363581Y-50627589D01*
X132303491Y-50482518D01*
X132272857Y-50328512D01*
X132269000Y-50250000D01*
X132269000Y-49150000D01*
X132272857Y-49071488D01*
X132303491Y-48917482D01*
X132363581Y-48772411D01*
X132450819Y-48641851D01*
X132561851Y-48530819D01*
X132692411Y-48443581D01*
X132837482Y-48383491D01*
X132991488Y-48352857D01*
X133148512Y-48352857D01*
X133302518Y-48383491D01*
G37*
G36*
X135842518Y-48383491D02*
G01*
X135987589Y-48443581D01*
X136118149Y-48530819D01*
X136229181Y-48641851D01*
X136316419Y-48772411D01*
X136376509Y-48917482D01*
X136407143Y-49071488D01*
X136411000Y-49150000D01*
X136411000Y-50250000D01*
X136407143Y-50328512D01*
X136376509Y-50482518D01*
X136316419Y-50627589D01*
X136229181Y-50758149D01*
X136118149Y-50869181D01*
X135987589Y-50956419D01*
X135842518Y-51016509D01*
X135688512Y-51047143D01*
X135531488Y-51047143D01*
X135377482Y-51016509D01*
X135232411Y-50956419D01*
X135101851Y-50869181D01*
X134990819Y-50758149D01*
X134903581Y-50627589D01*
X134843491Y-50482518D01*
X134812857Y-50328512D01*
X134809000Y-50250000D01*
X134809000Y-49150000D01*
X134812857Y-49071488D01*
X134843491Y-48917482D01*
X134903581Y-48772411D01*
X134990819Y-48641851D01*
X135101851Y-48530819D01*
X135232411Y-48443581D01*
X135377482Y-48383491D01*
X135531488Y-48352857D01*
X135688512Y-48352857D01*
X135842518Y-48383491D01*
G37*
G36*
X138422518Y-48383491D02*
G01*
X138567589Y-48443581D01*
X138698149Y-48530819D01*
X138809181Y-48641851D01*
X138896419Y-48772411D01*
X138956509Y-48917482D01*
X138987143Y-49071488D01*
X138991000Y-49150000D01*
X138991000Y-50250000D01*
X138987143Y-50328512D01*
X138956509Y-50482518D01*
X138896419Y-50627589D01*
X138809181Y-50758149D01*
X138698149Y-50869181D01*
X138567589Y-50956419D01*
X138422518Y-51016509D01*
X138268512Y-51047143D01*
X138111488Y-51047143D01*
X137957482Y-51016509D01*
X137812411Y-50956419D01*
X137681851Y-50869181D01*
X137570819Y-50758149D01*
X137483581Y-50627589D01*
X137423491Y-50482518D01*
X137392857Y-50328512D01*
X137389000Y-50250000D01*
X137389000Y-49150000D01*
X137392857Y-49071488D01*
X137423491Y-48917482D01*
X137483581Y-48772411D01*
X137570819Y-48641851D01*
X137681851Y-48530819D01*
X137812411Y-48443581D01*
X137957482Y-48383491D01*
X138111488Y-48352857D01*
X138268512Y-48352857D01*
X138422518Y-48383491D01*
G37*
G36*
X140962518Y-48383491D02*
G01*
X141107589Y-48443581D01*
X141238149Y-48530819D01*
X141349181Y-48641851D01*
X141436419Y-48772411D01*
X141496509Y-48917482D01*
X141527143Y-49071488D01*
X141531000Y-49150000D01*
X141531000Y-50250000D01*
X141527143Y-50328512D01*
X141496509Y-50482518D01*
X141436419Y-50627589D01*
X141349181Y-50758149D01*
X141238149Y-50869181D01*
X141107589Y-50956419D01*
X140962518Y-51016509D01*
X140808512Y-51047143D01*
X140651488Y-51047143D01*
X140497482Y-51016509D01*
X140352411Y-50956419D01*
X140221851Y-50869181D01*
X140110819Y-50758149D01*
X140023581Y-50627589D01*
X139963491Y-50482518D01*
X139932857Y-50328512D01*
X139929000Y-50250000D01*
X139929000Y-49150000D01*
X139932857Y-49071488D01*
X139963491Y-48917482D01*
X140023581Y-48772411D01*
X140110819Y-48641851D01*
X140221851Y-48530819D01*
X140352411Y-48443581D01*
X140497482Y-48383491D01*
X140651488Y-48352857D01*
X140808512Y-48352857D01*
X140962518Y-48383491D01*
G37*
G36*
X143502518Y-48383491D02*
G01*
X143647589Y-48443581D01*
X143778149Y-48530819D01*
X143889181Y-48641851D01*
X143976419Y-48772411D01*
X144036509Y-48917482D01*
X144067143Y-49071488D01*
X144071000Y-49150000D01*
X144071000Y-50250000D01*
X144067143Y-50328512D01*
X144036509Y-50482518D01*
X143976419Y-50627589D01*
X143889181Y-50758149D01*
X143778149Y-50869181D01*
X143647589Y-50956419D01*
X143502518Y-51016509D01*
X143348512Y-51047143D01*
X143191488Y-51047143D01*
X143037482Y-51016509D01*
X142892411Y-50956419D01*
X142761851Y-50869181D01*
X142650819Y-50758149D01*
X142563581Y-50627589D01*
X142503491Y-50482518D01*
X142472857Y-50328512D01*
X142469000Y-50250000D01*
X142469000Y-49150000D01*
X142472857Y-49071488D01*
X142503491Y-48917482D01*
X142563581Y-48772411D01*
X142650819Y-48641851D01*
X142761851Y-48530819D01*
X142892411Y-48443581D01*
X143037482Y-48383491D01*
X143191488Y-48352857D01*
X143348512Y-48352857D01*
X143502518Y-48383491D01*
G37*
G36*
X146042518Y-48383491D02*
G01*
X146187589Y-48443581D01*
X146318149Y-48530819D01*
X146429181Y-48641851D01*
X146516419Y-48772411D01*
X146576509Y-48917482D01*
X146607143Y-49071488D01*
X146611000Y-49150000D01*
X146611000Y-50250000D01*
X146607143Y-50328512D01*
X146576509Y-50482518D01*
X146516419Y-50627589D01*
X146429181Y-50758149D01*
X146318149Y-50869181D01*
X146187589Y-50956419D01*
X146042518Y-51016509D01*
X145888512Y-51047143D01*
X145731488Y-51047143D01*
X145577482Y-51016509D01*
X145432411Y-50956419D01*
X145301851Y-50869181D01*
X145190819Y-50758149D01*
X145103581Y-50627589D01*
X145043491Y-50482518D01*
X145012857Y-50328512D01*
X145009000Y-50250000D01*
X145009000Y-49150000D01*
X145012857Y-49071488D01*
X145043491Y-48917482D01*
X145103581Y-48772411D01*
X145190819Y-48641851D01*
X145301851Y-48530819D01*
X145432411Y-48443581D01*
X145577482Y-48383491D01*
X145731488Y-48352857D01*
X145888512Y-48352857D01*
X146042518Y-48383491D01*
G37*
G36*
X148622518Y-48383491D02*
G01*
X148767589Y-48443581D01*
X148898149Y-48530819D01*
X149009181Y-48641851D01*
X149096419Y-48772411D01*
X149156509Y-48917482D01*
X149187143Y-49071488D01*
X149191000Y-49150000D01*
X149191000Y-50250000D01*
X149187143Y-50328512D01*
X149156509Y-50482518D01*
X149096419Y-50627589D01*
X149009181Y-50758149D01*
X148898149Y-50869181D01*
X148767589Y-50956419D01*
X148622518Y-51016509D01*
X148468512Y-51047143D01*
X148311488Y-51047143D01*
X148157482Y-51016509D01*
X148012411Y-50956419D01*
X147881851Y-50869181D01*
X147770819Y-50758149D01*
X147683581Y-50627589D01*
X147623491Y-50482518D01*
X147592857Y-50328512D01*
X147589000Y-50250000D01*
X147589000Y-49150000D01*
X147592857Y-49071488D01*
X147623491Y-48917482D01*
X147683581Y-48772411D01*
X147770819Y-48641851D01*
X147881851Y-48530819D01*
X148012411Y-48443581D01*
X148157482Y-48383491D01*
X148311488Y-48352857D01*
X148468512Y-48352857D01*
X148622518Y-48383491D01*
G37*
G36*
X151162518Y-48383491D02*
G01*
X151307589Y-48443581D01*
X151438149Y-48530819D01*
X151549181Y-48641851D01*
X151636419Y-48772411D01*
X151696509Y-48917482D01*
X151727143Y-49071488D01*
X151731000Y-49150000D01*
X151731000Y-50250000D01*
X151727143Y-50328512D01*
X151696509Y-50482518D01*
X151636419Y-50627589D01*
X151549181Y-50758149D01*
X151438149Y-50869181D01*
X151307589Y-50956419D01*
X151162518Y-51016509D01*
X151008512Y-51047143D01*
X150851488Y-51047143D01*
X150697482Y-51016509D01*
X150552411Y-50956419D01*
X150421851Y-50869181D01*
X150310819Y-50758149D01*
X150223581Y-50627589D01*
X150163491Y-50482518D01*
X150132857Y-50328512D01*
X150129000Y-50250000D01*
X150129000Y-49150000D01*
X150132857Y-49071488D01*
X150163491Y-48917482D01*
X150223581Y-48772411D01*
X150310819Y-48641851D01*
X150421851Y-48530819D01*
X150552411Y-48443581D01*
X150697482Y-48383491D01*
X150851488Y-48352857D01*
X151008512Y-48352857D01*
X151162518Y-48383491D01*
G37*
G36*
X153702518Y-48383491D02*
G01*
X153847589Y-48443581D01*
X153978149Y-48530819D01*
X154089181Y-48641851D01*
X154176419Y-48772411D01*
X154236509Y-48917482D01*
X154267143Y-49071488D01*
X154271000Y-49150000D01*
X154271000Y-50250000D01*
X154267143Y-50328512D01*
X154236509Y-50482518D01*
X154176419Y-50627589D01*
X154089181Y-50758149D01*
X153978149Y-50869181D01*
X153847589Y-50956419D01*
X153702518Y-51016509D01*
X153548512Y-51047143D01*
X153391488Y-51047143D01*
X153237482Y-51016509D01*
X153092411Y-50956419D01*
X152961851Y-50869181D01*
X152850819Y-50758149D01*
X152763581Y-50627589D01*
X152703491Y-50482518D01*
X152672857Y-50328512D01*
X152669000Y-50250000D01*
X152669000Y-49150000D01*
X152672857Y-49071488D01*
X152703491Y-48917482D01*
X152763581Y-48772411D01*
X152850819Y-48641851D01*
X152961851Y-48530819D01*
X153092411Y-48443581D01*
X153237482Y-48383491D01*
X153391488Y-48352857D01*
X153548512Y-48352857D01*
X153702518Y-48383491D01*
G37*
G36*
X156242518Y-48383491D02*
G01*
X156387589Y-48443581D01*
X156518149Y-48530819D01*
X156629181Y-48641851D01*
X156716419Y-48772411D01*
X156776509Y-48917482D01*
X156807143Y-49071488D01*
X156811000Y-49150000D01*
X156811000Y-50250000D01*
X156807143Y-50328512D01*
X156776509Y-50482518D01*
X156716419Y-50627589D01*
X156629181Y-50758149D01*
X156518149Y-50869181D01*
X156387589Y-50956419D01*
X156242518Y-51016509D01*
X156088512Y-51047143D01*
X155931488Y-51047143D01*
X155777482Y-51016509D01*
X155632411Y-50956419D01*
X155501851Y-50869181D01*
X155390819Y-50758149D01*
X155303581Y-50627589D01*
X155243491Y-50482518D01*
X155212857Y-50328512D01*
X155209000Y-50250000D01*
X155209000Y-49150000D01*
X155212857Y-49071488D01*
X155243491Y-48917482D01*
X155303581Y-48772411D01*
X155390819Y-48641851D01*
X155501851Y-48530819D01*
X155632411Y-48443581D01*
X155777482Y-48383491D01*
X155931488Y-48352857D01*
X156088512Y-48352857D01*
X156242518Y-48383491D01*
G37*
G36*
X56617730Y-42854089D02*
G01*
X56629536Y-42854089D01*
X56687663Y-42863295D01*
X56822042Y-42880986D01*
X56854837Y-42889773D01*
X56885418Y-42894617D01*
X56944229Y-42913726D01*
X57030611Y-42936872D01*
X57085724Y-42959700D01*
X57131810Y-42974675D01*
X57174987Y-42996674D01*
X57230099Y-43019503D01*
X57307539Y-43064213D01*
X57362645Y-43092291D01*
X57387697Y-43110492D01*
X57417096Y-43127466D01*
X57524651Y-43209995D01*
X57572239Y-43244570D01*
X57580579Y-43252910D01*
X57588401Y-43258912D01*
X57741087Y-43411598D01*
X57747088Y-43419419D01*
X57755430Y-43427761D01*
X57790008Y-43475354D01*
X57872533Y-43582903D01*
X57889505Y-43612299D01*
X57907709Y-43637355D01*
X57935789Y-43692466D01*
X57980496Y-43769900D01*
X58003321Y-43825006D01*
X58025325Y-43868190D01*
X58040301Y-43914282D01*
X58063127Y-43969388D01*
X58086269Y-44055757D01*
X58105383Y-44114582D01*
X58110227Y-44145169D01*
X58119013Y-44177957D01*
X58136703Y-44312327D01*
X58145911Y-44370464D01*
X58145911Y-44382269D01*
X58147197Y-44392038D01*
X58147197Y-44607961D01*
X58145911Y-44617729D01*
X58145911Y-44629536D01*
X58136702Y-44687677D01*
X58119013Y-44822042D01*
X58110228Y-44854827D01*
X58105383Y-44885418D01*
X58086268Y-44944246D01*
X58063127Y-45030611D01*
X58040302Y-45085713D01*
X58025325Y-45131810D01*
X58003319Y-45174997D01*
X57980496Y-45230099D01*
X57935793Y-45307525D01*
X57907709Y-45362645D01*
X57889502Y-45387704D01*
X57872533Y-45417096D01*
X57790022Y-45524627D01*
X57755430Y-45572239D01*
X57747085Y-45580583D01*
X57741087Y-45588401D01*
X57588401Y-45741087D01*
X57580583Y-45747085D01*
X57572239Y-45755430D01*
X57524627Y-45790022D01*
X57417096Y-45872533D01*
X57387704Y-45889502D01*
X57362645Y-45907709D01*
X57307525Y-45935793D01*
X57230099Y-45980496D01*
X57174997Y-46003319D01*
X57131810Y-46025325D01*
X57085713Y-46040302D01*
X57030611Y-46063127D01*
X56944246Y-46086268D01*
X56885418Y-46105383D01*
X56854827Y-46110228D01*
X56822042Y-46119013D01*
X56687677Y-46136702D01*
X56629536Y-46145911D01*
X56617729Y-46145911D01*
X56607961Y-46147197D01*
X56392039Y-46147197D01*
X56382271Y-46145911D01*
X56370464Y-46145911D01*
X56312324Y-46136702D01*
X56177957Y-46119013D01*
X56145169Y-46110227D01*
X56114582Y-46105383D01*
X56055757Y-46086269D01*
X55969388Y-46063127D01*
X55914282Y-46040301D01*
X55868190Y-46025325D01*
X55825006Y-46003321D01*
X55769900Y-45980496D01*
X55692466Y-45935789D01*
X55637355Y-45907709D01*
X55612299Y-45889505D01*
X55582903Y-45872533D01*
X55475354Y-45790008D01*
X55427761Y-45755430D01*
X55419419Y-45747088D01*
X55411598Y-45741087D01*
X55258912Y-45588401D01*
X55252910Y-45580579D01*
X55244570Y-45572239D01*
X55209995Y-45524651D01*
X55127466Y-45417096D01*
X55110492Y-45387697D01*
X55092291Y-45362645D01*
X55064213Y-45307539D01*
X55019503Y-45230099D01*
X54996674Y-45174987D01*
X54974675Y-45131810D01*
X54959700Y-45085724D01*
X54936872Y-45030611D01*
X54913726Y-44944229D01*
X54894617Y-44885418D01*
X54889773Y-44854837D01*
X54880986Y-44822042D01*
X54863295Y-44687663D01*
X54854089Y-44629536D01*
X54854089Y-44617729D01*
X54852803Y-44607961D01*
X54852803Y-44392038D01*
X54854089Y-44382269D01*
X54854089Y-44370464D01*
X54863294Y-44312341D01*
X54880986Y-44177957D01*
X54889773Y-44145160D01*
X54894617Y-44114582D01*
X54913724Y-44055775D01*
X54936872Y-43969388D01*
X54959702Y-43914271D01*
X54974675Y-43868190D01*
X54996672Y-43825016D01*
X55019503Y-43769900D01*
X55064217Y-43692451D01*
X55092291Y-43637355D01*
X55110489Y-43612306D01*
X55127466Y-43582903D01*
X55210009Y-43475329D01*
X55244570Y-43427761D01*
X55252906Y-43419424D01*
X55258912Y-43411598D01*
X55411598Y-43258912D01*
X55419424Y-43252906D01*
X55427761Y-43244570D01*
X55475329Y-43210009D01*
X55582903Y-43127466D01*
X55612306Y-43110489D01*
X55637355Y-43092291D01*
X55692451Y-43064217D01*
X55769900Y-43019503D01*
X55825016Y-42996672D01*
X55868190Y-42974675D01*
X55914271Y-42959702D01*
X55969388Y-42936872D01*
X56055775Y-42913724D01*
X56114582Y-42894617D01*
X56145160Y-42889773D01*
X56177957Y-42880986D01*
X56312338Y-42863295D01*
X56370464Y-42854089D01*
X56382270Y-42854089D01*
X56392039Y-42852803D01*
X56607961Y-42852803D01*
X56617730Y-42854089D01*
G37*
G36*
X166117730Y-42854089D02*
G01*
X166129536Y-42854089D01*
X166187663Y-42863295D01*
X166322042Y-42880986D01*
X166354837Y-42889773D01*
X166385418Y-42894617D01*
X166444229Y-42913726D01*
X166530611Y-42936872D01*
X166585724Y-42959700D01*
X166631810Y-42974675D01*
X166674987Y-42996674D01*
X166730099Y-43019503D01*
X166807539Y-43064213D01*
X166862645Y-43092291D01*
X166887697Y-43110492D01*
X166917096Y-43127466D01*
X167024651Y-43209995D01*
X167072239Y-43244570D01*
X167080579Y-43252910D01*
X167088401Y-43258912D01*
X167241087Y-43411598D01*
X167247088Y-43419419D01*
X167255430Y-43427761D01*
X167290008Y-43475354D01*
X167372533Y-43582903D01*
X167389505Y-43612299D01*
X167407709Y-43637355D01*
X167435789Y-43692466D01*
X167480496Y-43769900D01*
X167503321Y-43825006D01*
X167525325Y-43868190D01*
X167540301Y-43914282D01*
X167563127Y-43969388D01*
X167586269Y-44055757D01*
X167605383Y-44114582D01*
X167610227Y-44145169D01*
X167619013Y-44177957D01*
X167636703Y-44312327D01*
X167645911Y-44370464D01*
X167645911Y-44382269D01*
X167647197Y-44392038D01*
X167647197Y-44607961D01*
X167645911Y-44617729D01*
X167645911Y-44629536D01*
X167636702Y-44687677D01*
X167619013Y-44822042D01*
X167610228Y-44854827D01*
X167605383Y-44885418D01*
X167586268Y-44944246D01*
X167563127Y-45030611D01*
X167540302Y-45085713D01*
X167525325Y-45131810D01*
X167503319Y-45174997D01*
X167480496Y-45230099D01*
X167435793Y-45307525D01*
X167407709Y-45362645D01*
X167389502Y-45387704D01*
X167372533Y-45417096D01*
X167290022Y-45524627D01*
X167255430Y-45572239D01*
X167247085Y-45580583D01*
X167241087Y-45588401D01*
X167088401Y-45741087D01*
X167080583Y-45747085D01*
X167072239Y-45755430D01*
X167024627Y-45790022D01*
X166917096Y-45872533D01*
X166887704Y-45889502D01*
X166862645Y-45907709D01*
X166807525Y-45935793D01*
X166730099Y-45980496D01*
X166674997Y-46003319D01*
X166631810Y-46025325D01*
X166585713Y-46040302D01*
X166530611Y-46063127D01*
X166444246Y-46086268D01*
X166385418Y-46105383D01*
X166354827Y-46110228D01*
X166322042Y-46119013D01*
X166187677Y-46136702D01*
X166129536Y-46145911D01*
X166117729Y-46145911D01*
X166107961Y-46147197D01*
X165892039Y-46147197D01*
X165882271Y-46145911D01*
X165870464Y-46145911D01*
X165812324Y-46136702D01*
X165677957Y-46119013D01*
X165645169Y-46110227D01*
X165614582Y-46105383D01*
X165555757Y-46086269D01*
X165469388Y-46063127D01*
X165414282Y-46040301D01*
X165368190Y-46025325D01*
X165325006Y-46003321D01*
X165269900Y-45980496D01*
X165192466Y-45935789D01*
X165137355Y-45907709D01*
X165112299Y-45889505D01*
X165082903Y-45872533D01*
X164975354Y-45790008D01*
X164927761Y-45755430D01*
X164919419Y-45747088D01*
X164911598Y-45741087D01*
X164758912Y-45588401D01*
X164752910Y-45580579D01*
X164744570Y-45572239D01*
X164709995Y-45524651D01*
X164627466Y-45417096D01*
X164610492Y-45387697D01*
X164592291Y-45362645D01*
X164564213Y-45307539D01*
X164519503Y-45230099D01*
X164496674Y-45174987D01*
X164474675Y-45131810D01*
X164459700Y-45085724D01*
X164436872Y-45030611D01*
X164413726Y-44944229D01*
X164394617Y-44885418D01*
X164389773Y-44854837D01*
X164380986Y-44822042D01*
X164363295Y-44687663D01*
X164354089Y-44629536D01*
X164354089Y-44617729D01*
X164352803Y-44607961D01*
X164352803Y-44392038D01*
X164354089Y-44382269D01*
X164354089Y-44370464D01*
X164363294Y-44312341D01*
X164380986Y-44177957D01*
X164389773Y-44145160D01*
X164394617Y-44114582D01*
X164413724Y-44055775D01*
X164436872Y-43969388D01*
X164459702Y-43914271D01*
X164474675Y-43868190D01*
X164496672Y-43825016D01*
X164519503Y-43769900D01*
X164564217Y-43692451D01*
X164592291Y-43637355D01*
X164610489Y-43612306D01*
X164627466Y-43582903D01*
X164710009Y-43475329D01*
X164744570Y-43427761D01*
X164752906Y-43419424D01*
X164758912Y-43411598D01*
X164911598Y-43258912D01*
X164919424Y-43252906D01*
X164927761Y-43244570D01*
X164975329Y-43210009D01*
X165082903Y-43127466D01*
X165112306Y-43110489D01*
X165137355Y-43092291D01*
X165192451Y-43064217D01*
X165269900Y-43019503D01*
X165325016Y-42996672D01*
X165368190Y-42974675D01*
X165414271Y-42959702D01*
X165469388Y-42936872D01*
X165555775Y-42913724D01*
X165614582Y-42894617D01*
X165645160Y-42889773D01*
X165677957Y-42880986D01*
X165812338Y-42863295D01*
X165870464Y-42854089D01*
X165882270Y-42854089D01*
X165892039Y-42852803D01*
X166107961Y-42852803D01*
X166117730Y-42854089D01*
G37*
G36*
X128222518Y-40683491D02*
G01*
X128367589Y-40743581D01*
X128498149Y-40830819D01*
X128609181Y-40941851D01*
X128696419Y-41072411D01*
X128756509Y-41217482D01*
X128787143Y-41371488D01*
X128791000Y-41450000D01*
X128791000Y-42550000D01*
X128787143Y-42628512D01*
X128756509Y-42782518D01*
X128696419Y-42927589D01*
X128609181Y-43058149D01*
X128498149Y-43169181D01*
X128367589Y-43256419D01*
X128222518Y-43316509D01*
X128068512Y-43347143D01*
X127911488Y-43347143D01*
X127757482Y-43316509D01*
X127612411Y-43256419D01*
X127481851Y-43169181D01*
X127370819Y-43058149D01*
X127283581Y-42927589D01*
X127223491Y-42782518D01*
X127192857Y-42628512D01*
X127189000Y-42550000D01*
X127189000Y-41450000D01*
X127192857Y-41371488D01*
X127223491Y-41217482D01*
X127283581Y-41072411D01*
X127370819Y-40941851D01*
X127481851Y-40830819D01*
X127612411Y-40743581D01*
X127757482Y-40683491D01*
X127911488Y-40652857D01*
X128068512Y-40652857D01*
X128222518Y-40683491D01*
G37*
G36*
X135842518Y-40683491D02*
G01*
X135987589Y-40743581D01*
X136118149Y-40830819D01*
X136229181Y-40941851D01*
X136316419Y-41072411D01*
X136376509Y-41217482D01*
X136407143Y-41371488D01*
X136411000Y-41450000D01*
X136411000Y-42550000D01*
X136407143Y-42628512D01*
X136376509Y-42782518D01*
X136316419Y-42927589D01*
X136229181Y-43058149D01*
X136118149Y-43169181D01*
X135987589Y-43256419D01*
X135842518Y-43316509D01*
X135688512Y-43347143D01*
X135531488Y-43347143D01*
X135377482Y-43316509D01*
X135232411Y-43256419D01*
X135101851Y-43169181D01*
X134990819Y-43058149D01*
X134903581Y-42927589D01*
X134843491Y-42782518D01*
X134812857Y-42628512D01*
X134809000Y-42550000D01*
X134809000Y-41450000D01*
X134812857Y-41371488D01*
X134843491Y-41217482D01*
X134903581Y-41072411D01*
X134990819Y-40941851D01*
X135101851Y-40830819D01*
X135232411Y-40743581D01*
X135377482Y-40683491D01*
X135531488Y-40652857D01*
X135688512Y-40652857D01*
X135842518Y-40683491D01*
G37*
G36*
X138422518Y-40683491D02*
G01*
X138567589Y-40743581D01*
X138698149Y-40830819D01*
X138809181Y-40941851D01*
X138896419Y-41072411D01*
X138956509Y-41217482D01*
X138987143Y-41371488D01*
X138991000Y-41450000D01*
X138991000Y-42550000D01*
X138987143Y-42628512D01*
X138956509Y-42782518D01*
X138896419Y-42927589D01*
X138809181Y-43058149D01*
X138698149Y-43169181D01*
X138567589Y-43256419D01*
X138422518Y-43316509D01*
X138268512Y-43347143D01*
X138111488Y-43347143D01*
X137957482Y-43316509D01*
X137812411Y-43256419D01*
X137681851Y-43169181D01*
X137570819Y-43058149D01*
X137483581Y-42927589D01*
X137423491Y-42782518D01*
X137392857Y-42628512D01*
X137389000Y-42550000D01*
X137389000Y-41450000D01*
X137392857Y-41371488D01*
X137423491Y-41217482D01*
X137483581Y-41072411D01*
X137570819Y-40941851D01*
X137681851Y-40830819D01*
X137812411Y-40743581D01*
X137957482Y-40683491D01*
X138111488Y-40652857D01*
X138268512Y-40652857D01*
X138422518Y-40683491D01*
G37*
G36*
X146042518Y-40683491D02*
G01*
X146187589Y-40743581D01*
X146318149Y-40830819D01*
X146429181Y-40941851D01*
X146516419Y-41072411D01*
X146576509Y-41217482D01*
X146607143Y-41371488D01*
X146611000Y-41450000D01*
X146611000Y-42550000D01*
X146607143Y-42628512D01*
X146576509Y-42782518D01*
X146516419Y-42927589D01*
X146429181Y-43058149D01*
X146318149Y-43169181D01*
X146187589Y-43256419D01*
X146042518Y-43316509D01*
X145888512Y-43347143D01*
X145731488Y-43347143D01*
X145577482Y-43316509D01*
X145432411Y-43256419D01*
X145301851Y-43169181D01*
X145190819Y-43058149D01*
X145103581Y-42927589D01*
X145043491Y-42782518D01*
X145012857Y-42628512D01*
X145009000Y-42550000D01*
X145009000Y-41450000D01*
X145012857Y-41371488D01*
X145043491Y-41217482D01*
X145103581Y-41072411D01*
X145190819Y-40941851D01*
X145301851Y-40830819D01*
X145432411Y-40743581D01*
X145577482Y-40683491D01*
X145731488Y-40652857D01*
X145888512Y-40652857D01*
X146042518Y-40683491D01*
G37*
G36*
X148622518Y-40683491D02*
G01*
X148767589Y-40743581D01*
X148898149Y-40830819D01*
X149009181Y-40941851D01*
X149096419Y-41072411D01*
X149156509Y-41217482D01*
X149187143Y-41371488D01*
X149191000Y-41450000D01*
X149191000Y-42550000D01*
X149187143Y-42628512D01*
X149156509Y-42782518D01*
X149096419Y-42927589D01*
X149009181Y-43058149D01*
X148898149Y-43169181D01*
X148767589Y-43256419D01*
X148622518Y-43316509D01*
X148468512Y-43347143D01*
X148311488Y-43347143D01*
X148157482Y-43316509D01*
X148012411Y-43256419D01*
X147881851Y-43169181D01*
X147770819Y-43058149D01*
X147683581Y-42927589D01*
X147623491Y-42782518D01*
X147592857Y-42628512D01*
X147589000Y-42550000D01*
X147589000Y-41450000D01*
X147592857Y-41371488D01*
X147623491Y-41217482D01*
X147683581Y-41072411D01*
X147770819Y-40941851D01*
X147881851Y-40830819D01*
X148012411Y-40743581D01*
X148157482Y-40683491D01*
X148311488Y-40652857D01*
X148468512Y-40652857D01*
X148622518Y-40683491D01*
G37*
G36*
X156242518Y-40683491D02*
G01*
X156387589Y-40743581D01*
X156518149Y-40830819D01*
X156629181Y-40941851D01*
X156716419Y-41072411D01*
X156776509Y-41217482D01*
X156807143Y-41371488D01*
X156811000Y-41450000D01*
X156811000Y-42550000D01*
X156807143Y-42628512D01*
X156776509Y-42782518D01*
X156716419Y-42927589D01*
X156629181Y-43058149D01*
X156518149Y-43169181D01*
X156387589Y-43256419D01*
X156242518Y-43316509D01*
X156088512Y-43347143D01*
X155931488Y-43347143D01*
X155777482Y-43316509D01*
X155632411Y-43256419D01*
X155501851Y-43169181D01*
X155390819Y-43058149D01*
X155303581Y-42927589D01*
X155243491Y-42782518D01*
X155212857Y-42628512D01*
X155209000Y-42550000D01*
X155209000Y-41450000D01*
X155212857Y-41371488D01*
X155243491Y-41217482D01*
X155303581Y-41072411D01*
X155390819Y-40941851D01*
X155501851Y-40830819D01*
X155632411Y-40743581D01*
X155777482Y-40683491D01*
X155931488Y-40652857D01*
X156088512Y-40652857D01*
X156242518Y-40683491D01*
G37*
M02*
