M48
; DRILL file {KiCad 9.0.5-1.fc42} date 2025-11-19T14:28:42-0500
; FORMAT={-:-/ absolute / metric / decimal}
; #@! TF.CreationDate,2025-11-19T14:28:42-05:00
; #@! TF.GenerationSoftware,Kicad,Pcbnew,9.0.5-1.fc42
; #@! TF.FileFunction,Plated,1,2,PTH
FMAT,2
METRIC
; #@! TA.AperFunction,Plated,PTH,ViaDrill
T1C0.254
; #@! TA.AperFunction,Plated,PTH,ViaDrill
T2C0.400
; #@! TA.AperFunction,Plated,PTH,ComponentDrill
T3C0.889
; #@! TA.AperFunction,Plated,PTH,ComponentDrill
T4C1.000
; #@! TA.AperFunction,Plated,PTH,ComponentDrill
T5C1.067
; #@! TA.AperFunction,Plated,PTH,ComponentDrill
T6C1.100
; #@! TA.AperFunction,Plated,PTH,ComponentDrill
T7C1.190
%
G90
G05
T1
X96.0Y-125.0
X101.785Y-119.686
X102.0Y-131.5
X104.325Y-106.314
X104.325Y-119.686
X104.325Y-125.0
X106.865Y-103.635
X106.865Y-106.314
X106.865Y-119.686
X106.865Y-126.635
X107.0Y-93.0
X107.0Y-99.0
X109.405Y-106.314
X109.405Y-119.686
X111.945Y-106.314
X116.5Y-115.5
X135.61Y-67.89
X145.81Y-67.81
T2
X101.785Y-106.314
T3
X66.785Y-99.23
X66.785Y-101.77
X66.785Y-159.325
X66.785Y-161.865
T4
X53.705Y-68.69
X53.705Y-76.31
X53.705Y-128.785
X53.705Y-136.405
X61.405Y-68.69
X61.405Y-71.23
X61.405Y-73.77
X61.405Y-76.31
X61.405Y-128.785
X61.405Y-131.325
X61.405Y-133.865
X61.405Y-136.405
X127.99Y-42.0
X127.99Y-49.7
X130.53Y-49.7
X133.07Y-49.7
X135.61Y-42.0
X135.61Y-49.7
X138.19Y-42.0
X138.19Y-49.7
X140.73Y-49.7
X143.27Y-49.7
X145.81Y-42.0
X145.81Y-49.7
X148.39Y-42.0
X148.39Y-49.7
X150.93Y-49.7
X153.47Y-49.7
X156.01Y-42.0
X156.01Y-49.7
T6
X94.833Y-55.96
X94.833Y-58.5
X94.833Y-61.04
T7
X81.686Y-76.52
X81.686Y-79.52
X81.686Y-82.52
X81.698Y-86.502
X81.698Y-89.502
X81.698Y-92.502
X81.939Y-136.614
X81.939Y-139.614
X81.939Y-142.614
X81.951Y-146.595
X81.951Y-149.595
X81.951Y-152.595
X92.484Y-82.0
X92.484Y-85.0
X92.484Y-88.0
X109.993Y-93.978
X109.993Y-98.478
X109.993Y-127.478
X109.993Y-131.978
X109.993Y-136.478
X109.996Y-102.989
X109.996Y-122.989
X112.993Y-93.978
X112.993Y-98.478
X112.993Y-127.478
X112.993Y-131.978
X112.993Y-136.478
X112.996Y-102.989
X112.996Y-122.989
X154.0Y-70.0
X157.0Y-70.0
X160.0Y-70.0
T5
G00X57.111Y-54.001
M15
G01X57.111Y-55.932
M16
G05
G00X61.201Y-59.767
M15
G01X59.27Y-59.767
M16
G05
G00X63.361Y-54.001
M15
G01X63.361Y-55.932
M16
G05
M30
