%TF.GenerationSoftware,KiCad,Pcbnew,9.0.5-1.fc42*%
%TF.CreationDate,2025-11-19T14:29:42-05:00*%
%TF.ProjectId,fiber_control_board,66696265-725f-4636-9f6e-74726f6c5f62,rev?*%
%TF.SameCoordinates,Original*%
%TF.FileFunction,Copper,L2,Bot*%
%TF.FilePolarity,Positive*%
%FSLAX46Y46*%
G04 Gerber Fmt 4.6, Leading zero omitted, Abs format (unit mm)*
G04 Created by KiCad (PCBNEW 9.0.5-1.fc42) date 2025-11-19 14:29:42*
%MOMM*%
%LPD*%
G01*
G04 APERTURE LIST*
G04 Aperture macros list*
%AMRoundRect*
0 Rectangle with rounded corners*
0 $1 Rounding radius*
0 $2 $3 $4 $5 $6 $7 $8 $9 X,Y pos of 4 corners*
0 Add a 4 corners polygon primitive as box body*
4,1,4,$2,$3,$4,$5,$6,$7,$8,$9,$2,$3,0*
0 Add four circle primitives for the rounded corners*
1,1,$1+$1,$2,$3*
1,1,$1+$1,$4,$5*
1,1,$1+$1,$6,$7*
1,1,$1+$1,$8,$9*
0 Add four rect primitives between the rounded corners*
20,1,$1+$1,$2,$3,$4,$5,0*
20,1,$1+$1,$4,$5,$6,$7,0*
20,1,$1+$1,$6,$7,$8,$9,0*
20,1,$1+$1,$8,$9,$2,$3,0*%
G04 Aperture macros list end*
%TA.AperFunction,ComponentPad*%
%ADD10C,2.250000*%
%TD*%
%TA.AperFunction,ComponentPad*%
%ADD11O,1.500000X2.600000*%
%TD*%
%TA.AperFunction,ComponentPad*%
%ADD12O,2.600000X1.500000*%
%TD*%
%TA.AperFunction,ComponentPad*%
%ADD13R,2.000000X1.905000*%
%TD*%
%TA.AperFunction,ComponentPad*%
%ADD14O,2.000000X1.905000*%
%TD*%
%TA.AperFunction,ComponentPad*%
%ADD15O,1.574800X3.505200*%
%TD*%
%TA.AperFunction,ComponentPad*%
%ADD16O,3.505200X1.574800*%
%TD*%
%TA.AperFunction,ComponentPad*%
%ADD17C,1.397000*%
%TD*%
%TA.AperFunction,SMDPad,CuDef*%
%ADD18RoundRect,0.250000X-0.450000X0.350000X-0.450000X-0.350000X0.450000X-0.350000X0.450000X0.350000X0*%
%TD*%
%TA.AperFunction,SMDPad,CuDef*%
%ADD19RoundRect,0.250000X0.450000X-0.350000X0.450000X0.350000X-0.450000X0.350000X-0.450000X-0.350000X0*%
%TD*%
%TA.AperFunction,ViaPad*%
%ADD20C,0.800000*%
%TD*%
%TA.AperFunction,ViaPad*%
%ADD21C,0.560000*%
%TD*%
%TA.AperFunction,Conductor*%
%ADD22C,0.200000*%
%TD*%
G04 APERTURE END LIST*
D10*
%TO.P,SW4,1,A*%
%TO.N,+5V*%
X154000000Y-70000000D03*
%TO.P,SW4,2,B*%
%TO.N,Net-(J8-Data_in)*%
X157000000Y-70000000D03*
%TO.P,SW4,3,C*%
%TO.N,GND*%
X160000000Y-70000000D03*
%TD*%
%TO.P,SW3,1,A*%
%TO.N,Net-(J5-In)*%
X81951121Y-152595000D03*
%TO.P,SW3,2,B*%
%TO.N,/Clock/Clk_LED*%
X81951121Y-149595000D03*
%TO.P,SW3,3,C*%
%TO.N,Net-(J7-Data_Out)*%
X81951121Y-146595000D03*
%TO.P,SW3,4,A*%
%TO.N,/Clock/Clk_BNC_LED*%
X81939236Y-142613889D03*
%TO.P,SW3,5,B*%
%TO.N,+5V*%
X81939236Y-139613889D03*
%TO.P,SW3,6,C*%
%TO.N,/Clock/Clk_Opt_LED*%
X81939236Y-136613889D03*
%TD*%
%TO.P,D5,1,K*%
%TO.N,GND*%
X112992802Y-131977520D03*
%TO.P,D5,2,A*%
%TO.N,Net-(D5-A)*%
X109992802Y-131977520D03*
%TD*%
%TO.P,D9,1,K*%
%TO.N,GND*%
X112992802Y-93977520D03*
%TO.P,D9,2,A*%
%TO.N,Net-(D9-A)*%
X109992802Y-93977520D03*
%TD*%
D11*
%TO.P,J6,1,VCCT*%
%TO.N,Net-(J6-VCCT)*%
X138190000Y-49700000D03*
%TO.P,J6,2,NC*%
%TO.N,unconnected-(J6-NC-Pad2)*%
X140730000Y-49700000D03*
%TO.P,J6,3,VEET*%
%TO.N,GND*%
X143270000Y-49700000D03*
%TO.P,J6,4,Data_in*%
%TO.N,/Clock/Clk_LED*%
X145810000Y-49700000D03*
%TO.P,J6,5,HP*%
%TO.N,GND*%
X145810000Y-42000000D03*
%TO.P,J6,8,HP*%
X138190000Y-42000000D03*
%TD*%
D12*
%TO.P,J3,1,Data_Out*%
%TO.N,Net-(J3-Data_Out)*%
X61405000Y-76310000D03*
%TO.P,J3,2,VEER*%
%TO.N,GND*%
X61405000Y-73770000D03*
%TO.P,J3,3,VCCR*%
%TO.N,Net-(J3-VCCR)*%
X61405000Y-71230000D03*
%TO.P,J3,4,NC*%
%TO.N,unconnected-(J3-NC-Pad4)*%
X61405000Y-68690000D03*
%TO.P,J3,5,HP*%
%TO.N,GND*%
X53705000Y-68690000D03*
%TO.P,J3,8,HP*%
X53705000Y-76310000D03*
%TD*%
D13*
%TO.P,U2,1,VI*%
%TO.N,Net-(D1-K)*%
X94832802Y-55960000D03*
D14*
%TO.P,U2,2,GND*%
%TO.N,GND*%
X94832802Y-58500000D03*
%TO.P,U2,3,VO*%
%TO.N,+5V*%
X94832802Y-61040000D03*
%TD*%
D10*
%TO.P,D2,1,K*%
%TO.N,GND*%
X112996401Y-122988760D03*
%TO.P,D2,2,A*%
%TO.N,Net-(D2-A)*%
X109996401Y-122988760D03*
%TD*%
%TO.P,D8,1,K*%
%TO.N,GND*%
X112992802Y-98477520D03*
%TO.P,D8,2,A*%
%TO.N,Net-(D8-A)*%
X109992802Y-98477520D03*
%TD*%
D15*
%TO.P,J1,1*%
%TO.N,Net-(D1-A)*%
X63360590Y-54966600D03*
D16*
%TO.P,J1,2*%
%TO.N,unconnected-(J1-Pad2)*%
X60235588Y-59766601D03*
D15*
%TO.P,J1,3*%
%TO.N,GND*%
X57110590Y-54966600D03*
%TD*%
D10*
%TO.P,SW1,1,A*%
%TO.N,Net-(J2-In)*%
X81697594Y-92501556D03*
%TO.P,SW1,2,B*%
%TO.N,/Trigger/Trigger Input*%
X81697594Y-89501556D03*
%TO.P,SW1,3,C*%
%TO.N,Net-(J3-Data_Out)*%
X81697594Y-86501556D03*
%TO.P,SW1,4,A*%
%TO.N,/LEDs/Trig_BNC_LED*%
X81685709Y-82520445D03*
%TO.P,SW1,5,B*%
%TO.N,+5V*%
X81685709Y-79520445D03*
%TO.P,SW1,6,C*%
%TO.N,/LEDs/Trig_Opt_LED*%
X81685709Y-76520445D03*
%TD*%
D17*
%TO.P,J2,1,In*%
%TO.N,Net-(J2-In)*%
X66785000Y-101770000D03*
%TO.P,J2,2,Ext*%
%TO.N,GND*%
X66785000Y-99230000D03*
%TD*%
D12*
%TO.P,J7,1,Data_Out*%
%TO.N,Net-(J7-Data_Out)*%
X61405000Y-136405000D03*
%TO.P,J7,2,VEER*%
%TO.N,GND*%
X61405000Y-133865000D03*
%TO.P,J7,3,VCCR*%
%TO.N,Net-(J7-VCCR)*%
X61405000Y-131325000D03*
%TO.P,J7,4,NC*%
%TO.N,unconnected-(J7-NC-Pad4)*%
X61405000Y-128785000D03*
%TO.P,J7,5,HP*%
%TO.N,GND*%
X53705000Y-128785000D03*
%TO.P,J7,8,HP*%
X53705000Y-136405000D03*
%TD*%
D10*
%TO.P,D7,1,K*%
%TO.N,GND*%
X112996401Y-102988760D03*
%TO.P,D7,2,A*%
%TO.N,Net-(D7-A)*%
X109996401Y-102988760D03*
%TD*%
%TO.P,SW2,1,A*%
%TO.N,/Trigger/Trigger Input*%
X92483959Y-88000000D03*
%TO.P,SW2,2,B*%
%TO.N,/LEDs/Trig_LED*%
X92483959Y-85000000D03*
%TO.P,SW2,3,C*%
%TO.N,+5V*%
X92483959Y-82000000D03*
%TD*%
D11*
%TO.P,J8,1,VCCT*%
%TO.N,Net-(J8-VCCT)*%
X148390000Y-49700000D03*
%TO.P,J8,2,NC*%
%TO.N,unconnected-(J8-NC-Pad2)*%
X150930000Y-49700000D03*
%TO.P,J8,3,VEET*%
%TO.N,GND*%
X153470000Y-49700000D03*
%TO.P,J8,4,Data_in*%
%TO.N,Net-(J8-Data_in)*%
X156010000Y-49700000D03*
%TO.P,J8,5,HP*%
%TO.N,GND*%
X156010000Y-42000000D03*
%TO.P,J8,8,HP*%
X148390000Y-42000000D03*
%TD*%
%TO.P,J4,1,VCCT*%
%TO.N,Net-(J4-VCCT)*%
X127990000Y-49700000D03*
%TO.P,J4,2,NC*%
%TO.N,unconnected-(J4-NC-Pad2)*%
X130530000Y-49700000D03*
%TO.P,J4,3,VEET*%
%TO.N,GND*%
X133070000Y-49700000D03*
%TO.P,J4,4,Data_in*%
%TO.N,/LEDs/Trig_LED*%
X135610000Y-49700000D03*
%TO.P,J4,5,HP*%
%TO.N,GND*%
X135610000Y-42000000D03*
%TO.P,J4,8,HP*%
X127990000Y-42000000D03*
%TD*%
D17*
%TO.P,J5,1,In*%
%TO.N,Net-(J5-In)*%
X66785000Y-161865000D03*
%TO.P,J5,2,Ext*%
%TO.N,GND*%
X66785000Y-159325000D03*
%TD*%
D10*
%TO.P,D3,1,K*%
%TO.N,GND*%
X112992802Y-127477520D03*
%TO.P,D3,2,A*%
%TO.N,Net-(D3-A)*%
X109992802Y-127477520D03*
%TD*%
%TO.P,D4,1,K*%
%TO.N,GND*%
X112992802Y-136477520D03*
%TO.P,D4,2,A*%
%TO.N,Net-(D4-A)*%
X109992802Y-136477520D03*
%TD*%
D18*
%TO.P,R8,1*%
%TO.N,GND*%
X109405000Y-116186300D03*
%TO.P,R8,2*%
%TO.N,Net-(U1-2A4)*%
X109405000Y-118186300D03*
%TD*%
%TO.P,R3,1*%
%TO.N,/LEDs/Trig_LED*%
X104325000Y-107813700D03*
%TO.P,R3,2*%
%TO.N,GND*%
X104325000Y-109813700D03*
%TD*%
%TO.P,R2,1*%
%TO.N,/LEDs/Trig_Opt_LED*%
X106865000Y-107813700D03*
%TO.P,R2,2*%
%TO.N,GND*%
X106865000Y-109813700D03*
%TD*%
%TO.P,R1,1*%
%TO.N,/LEDs/Trig_BNC_LED*%
X109405000Y-107813700D03*
%TO.P,R1,2*%
%TO.N,GND*%
X109405000Y-109813700D03*
%TD*%
D19*
%TO.P,R6,1*%
%TO.N,/Clock/Clk_Opt_LED*%
X104325000Y-118186300D03*
%TO.P,R6,2*%
%TO.N,GND*%
X104325000Y-116186300D03*
%TD*%
D18*
%TO.P,R9,1*%
%TO.N,Net-(U1-2Y4)*%
X111945000Y-107813700D03*
%TO.P,R9,2*%
%TO.N,GND*%
X111945000Y-109813700D03*
%TD*%
D19*
%TO.P,R5,1*%
%TO.N,/Clock/Clk_BNC_LED*%
X101785000Y-118186300D03*
%TO.P,R5,2*%
%TO.N,GND*%
X101785000Y-116186300D03*
%TD*%
%TO.P,R4,1*%
%TO.N,/Clock/Clk_LED*%
X106865000Y-118186300D03*
%TO.P,R4,2*%
%TO.N,GND*%
X106865000Y-116186300D03*
%TD*%
D20*
%TO.N,GND*%
X101785000Y-106313700D03*
D21*
%TO.N,/Clock/Clk_LED*%
X145810000Y-67810000D03*
X106865000Y-126635000D03*
X106865000Y-119686300D03*
X116500000Y-115500000D03*
X102000000Y-131500000D03*
%TO.N,/Clock/Clk_BNC_LED*%
X101785000Y-119686300D03*
%TO.N,/Clock/Clk_Opt_LED*%
X104325000Y-119686300D03*
X96000000Y-125000000D03*
X104325000Y-125000000D03*
%TO.N,Net-(U1-2A4)*%
X109405000Y-119686300D03*
%TO.N,Net-(U1-2Y4)*%
X111945000Y-106313700D03*
%TO.N,/LEDs/Trig_BNC_LED*%
X109405000Y-106313700D03*
%TO.N,/LEDs/Trig_LED*%
X135610000Y-67890000D03*
X107000000Y-93000000D03*
X107000000Y-99000000D03*
X104325000Y-106313700D03*
%TO.N,/LEDs/Trig_Opt_LED*%
X106865000Y-103635000D03*
X106865000Y-106313700D03*
%TD*%
D22*
%TO.N,/Clock/Clk_LED*%
X106865000Y-121000000D02*
X106865000Y-119686300D01*
X106865000Y-126635000D02*
X106865000Y-121000000D01*
X145810000Y-67810000D02*
X145810000Y-49700000D01*
X111000000Y-121000000D02*
X112500000Y-119500000D01*
X106865000Y-119686300D02*
X106865000Y-118186300D01*
X102000000Y-131500000D02*
X106865000Y-126635000D01*
X106865000Y-121000000D02*
X111000000Y-121000000D01*
X112500000Y-119500000D02*
X116500000Y-115500000D01*
%TO.N,/Clock/Clk_BNC_LED*%
X101785000Y-119686300D02*
X101785000Y-118186300D01*
%TO.N,/Clock/Clk_Opt_LED*%
X96000000Y-125000000D02*
X104325000Y-125000000D01*
X104325000Y-118186300D02*
X104325000Y-119686300D01*
%TO.N,Net-(U1-2A4)*%
X109405000Y-118186300D02*
X109405000Y-119686300D01*
%TO.N,Net-(U1-2Y4)*%
X111945000Y-106313700D02*
X111945000Y-107813700D01*
%TO.N,/LEDs/Trig_BNC_LED*%
X81685709Y-82520445D02*
X84770445Y-82520445D01*
X108091300Y-105000000D02*
X109405000Y-106313700D01*
X102000000Y-103000000D02*
X104500000Y-103000000D01*
X84770445Y-82520445D02*
X86000000Y-83750000D01*
X86000000Y-83750000D02*
X86000000Y-87000000D01*
X109405000Y-107813700D02*
X109405000Y-106313700D01*
X106500000Y-105000000D02*
X108091300Y-105000000D01*
X104500000Y-103000000D02*
X106500000Y-105000000D01*
X86000000Y-87000000D02*
X102000000Y-103000000D01*
%TO.N,/LEDs/Trig_LED*%
X99000000Y-85000000D02*
X92483959Y-85000000D01*
X107000000Y-93000000D02*
X107000000Y-99000000D01*
X135610000Y-67890000D02*
X135610000Y-49700000D01*
X104325000Y-106313700D02*
X104325000Y-107813700D01*
X107000000Y-93000000D02*
X99000000Y-85000000D01*
%TO.N,/LEDs/Trig_Opt_LED*%
X106865000Y-103635000D02*
X104730000Y-101500000D01*
X102500000Y-101500000D02*
X87500000Y-86500000D01*
X83020445Y-76520445D02*
X81685709Y-76520445D01*
X87500000Y-86500000D02*
X87500000Y-81000000D01*
X106865000Y-106313700D02*
X106865000Y-107813700D01*
X104730000Y-101500000D02*
X102500000Y-101500000D01*
X87500000Y-81000000D02*
X83020445Y-76520445D01*
%TD*%
%TA.AperFunction,Conductor*%
%TO.N,GND*%
G36*
X126903848Y-40503547D02*
G01*
X126916393Y-40502470D01*
X126936738Y-40513205D01*
X126958806Y-40519685D01*
X126967049Y-40529199D01*
X126978188Y-40535076D01*
X126989500Y-40555108D01*
X127004561Y-40572489D01*
X127006352Y-40584949D01*
X127012545Y-40595915D01*
X127011231Y-40618880D01*
X127014505Y-40641647D01*
X127009178Y-40654770D01*
X127008555Y-40665671D01*
X126992085Y-40696886D01*
X126920904Y-40794856D01*
X126831581Y-40970164D01*
X126770778Y-41157294D01*
X126740000Y-41351617D01*
X126740000Y-41750000D01*
X127556988Y-41750000D01*
X127524075Y-41807007D01*
X127490000Y-41934174D01*
X127490000Y-42065826D01*
X127524075Y-42192993D01*
X127556988Y-42250000D01*
X126740000Y-42250000D01*
X126740000Y-42648382D01*
X126770778Y-42842705D01*
X126831581Y-43029835D01*
X126920904Y-43205143D01*
X127036555Y-43364321D01*
X127175678Y-43503444D01*
X127334856Y-43619095D01*
X127510162Y-43708418D01*
X127697283Y-43769218D01*
X127740000Y-43775984D01*
X127740000Y-42433012D01*
X127797007Y-42465925D01*
X127924174Y-42500000D01*
X128055826Y-42500000D01*
X128182993Y-42465925D01*
X128240000Y-42433012D01*
X128240000Y-43775983D01*
X128282716Y-43769218D01*
X128469837Y-43708418D01*
X128645143Y-43619095D01*
X128804321Y-43503444D01*
X128943444Y-43364321D01*
X129059095Y-43205143D01*
X129148418Y-43029835D01*
X129209221Y-42842705D01*
X129240000Y-42648382D01*
X129240000Y-42250000D01*
X128423012Y-42250000D01*
X128455925Y-42192993D01*
X128490000Y-42065826D01*
X128490000Y-41934174D01*
X128455925Y-41807007D01*
X128423012Y-41750000D01*
X129240000Y-41750000D01*
X129240000Y-41351617D01*
X129209221Y-41157294D01*
X129148418Y-40970164D01*
X129059095Y-40794856D01*
X128987915Y-40696886D01*
X128964435Y-40631080D01*
X128980260Y-40563026D01*
X129030366Y-40514331D01*
X129088233Y-40500000D01*
X134511767Y-40500000D01*
X134578806Y-40519685D01*
X134624561Y-40572489D01*
X134634505Y-40641647D01*
X134612085Y-40696886D01*
X134540904Y-40794856D01*
X134451581Y-40970164D01*
X134390778Y-41157294D01*
X134360000Y-41351617D01*
X134360000Y-41750000D01*
X135176988Y-41750000D01*
X135144075Y-41807007D01*
X135110000Y-41934174D01*
X135110000Y-42065826D01*
X135144075Y-42192993D01*
X135176988Y-42250000D01*
X134360000Y-42250000D01*
X134360000Y-42648382D01*
X134390778Y-42842705D01*
X134451581Y-43029835D01*
X134540904Y-43205143D01*
X134656555Y-43364321D01*
X134795678Y-43503444D01*
X134954856Y-43619095D01*
X135130162Y-43708418D01*
X135317283Y-43769218D01*
X135360000Y-43775984D01*
X135360000Y-42433012D01*
X135417007Y-42465925D01*
X135544174Y-42500000D01*
X135675826Y-42500000D01*
X135802993Y-42465925D01*
X135860000Y-42433012D01*
X135860000Y-43775984D01*
X135902716Y-43769218D01*
X136089837Y-43708418D01*
X136265143Y-43619095D01*
X136424321Y-43503444D01*
X136563444Y-43364321D01*
X136679095Y-43205143D01*
X136768418Y-43029835D01*
X136782069Y-42987825D01*
X136821507Y-42930149D01*
X136885865Y-42902951D01*
X136954712Y-42914866D01*
X137006187Y-42962110D01*
X137017931Y-42987825D01*
X137031581Y-43029835D01*
X137120904Y-43205143D01*
X137236555Y-43364321D01*
X137375678Y-43503444D01*
X137534856Y-43619095D01*
X137710162Y-43708418D01*
X137897283Y-43769218D01*
X137940000Y-43775984D01*
X137940000Y-42433012D01*
X137997007Y-42465925D01*
X138124174Y-42500000D01*
X138255826Y-42500000D01*
X138382993Y-42465925D01*
X138440000Y-42433012D01*
X138440000Y-43775983D01*
X138482716Y-43769218D01*
X138669837Y-43708418D01*
X138845143Y-43619095D01*
X139004321Y-43503444D01*
X139143444Y-43364321D01*
X139259095Y-43205143D01*
X139348418Y-43029835D01*
X139409221Y-42842705D01*
X139440000Y-42648382D01*
X139440000Y-42250000D01*
X138623012Y-42250000D01*
X138655925Y-42192993D01*
X138690000Y-42065826D01*
X138690000Y-41934174D01*
X138655925Y-41807007D01*
X138623012Y-41750000D01*
X139440000Y-41750000D01*
X139440000Y-41351617D01*
X139409221Y-41157294D01*
X139348418Y-40970164D01*
X139259095Y-40794856D01*
X139187915Y-40696886D01*
X139164435Y-40631080D01*
X139180260Y-40563026D01*
X139230366Y-40514331D01*
X139288233Y-40500000D01*
X144711767Y-40500000D01*
X144778806Y-40519685D01*
X144824561Y-40572489D01*
X144834505Y-40641647D01*
X144812085Y-40696886D01*
X144740904Y-40794856D01*
X144651581Y-40970164D01*
X144590778Y-41157294D01*
X144560000Y-41351617D01*
X144560000Y-41750000D01*
X145376988Y-41750000D01*
X145344075Y-41807007D01*
X145310000Y-41934174D01*
X145310000Y-42065826D01*
X145344075Y-42192993D01*
X145376988Y-42250000D01*
X144560000Y-42250000D01*
X144560000Y-42648382D01*
X144590778Y-42842705D01*
X144651581Y-43029835D01*
X144740904Y-43205143D01*
X144856555Y-43364321D01*
X144995678Y-43503444D01*
X145154856Y-43619095D01*
X145330162Y-43708418D01*
X145517283Y-43769218D01*
X145560000Y-43775984D01*
X145560000Y-42433012D01*
X145617007Y-42465925D01*
X145744174Y-42500000D01*
X145875826Y-42500000D01*
X146002993Y-42465925D01*
X146060000Y-42433012D01*
X146060000Y-43775984D01*
X146102716Y-43769218D01*
X146289837Y-43708418D01*
X146465143Y-43619095D01*
X146624321Y-43503444D01*
X146763444Y-43364321D01*
X146879095Y-43205143D01*
X146968418Y-43029835D01*
X146982069Y-42987825D01*
X147021507Y-42930149D01*
X147085865Y-42902951D01*
X147154712Y-42914866D01*
X147206187Y-42962110D01*
X147217931Y-42987825D01*
X147231581Y-43029835D01*
X147320904Y-43205143D01*
X147436555Y-43364321D01*
X147575678Y-43503444D01*
X147734856Y-43619095D01*
X147910162Y-43708418D01*
X148097283Y-43769218D01*
X148140000Y-43775984D01*
X148140000Y-42433012D01*
X148197007Y-42465925D01*
X148324174Y-42500000D01*
X148455826Y-42500000D01*
X148582993Y-42465925D01*
X148640000Y-42433012D01*
X148640000Y-43775984D01*
X148682716Y-43769218D01*
X148869837Y-43708418D01*
X149045143Y-43619095D01*
X149204321Y-43503444D01*
X149343444Y-43364321D01*
X149459095Y-43205143D01*
X149548418Y-43029835D01*
X149609221Y-42842705D01*
X149640000Y-42648382D01*
X149640000Y-42250000D01*
X148823012Y-42250000D01*
X148855925Y-42192993D01*
X148890000Y-42065826D01*
X148890000Y-41934174D01*
X148855925Y-41807007D01*
X148823012Y-41750000D01*
X149640000Y-41750000D01*
X149640000Y-41351617D01*
X149609221Y-41157294D01*
X149548418Y-40970164D01*
X149459095Y-40794856D01*
X149387915Y-40696886D01*
X149364435Y-40631080D01*
X149380260Y-40563026D01*
X149430366Y-40514331D01*
X149488233Y-40500000D01*
X154911767Y-40500000D01*
X154978806Y-40519685D01*
X155024561Y-40572489D01*
X155034505Y-40641647D01*
X155012085Y-40696886D01*
X154940904Y-40794856D01*
X154851581Y-40970164D01*
X154790778Y-41157294D01*
X154760000Y-41351617D01*
X154760000Y-41750000D01*
X155576988Y-41750000D01*
X155544075Y-41807007D01*
X155510000Y-41934174D01*
X155510000Y-42065826D01*
X155544075Y-42192993D01*
X155576988Y-42250000D01*
X154760000Y-42250000D01*
X154760000Y-42648382D01*
X154790778Y-42842705D01*
X154851581Y-43029835D01*
X154940904Y-43205143D01*
X155056555Y-43364321D01*
X155195678Y-43503444D01*
X155354856Y-43619095D01*
X155530162Y-43708418D01*
X155717283Y-43769218D01*
X155760000Y-43775984D01*
X155760000Y-42433012D01*
X155817007Y-42465925D01*
X155944174Y-42500000D01*
X156075826Y-42500000D01*
X156202993Y-42465925D01*
X156260000Y-42433012D01*
X156260000Y-43775984D01*
X156302716Y-43769218D01*
X156489837Y-43708418D01*
X156665143Y-43619095D01*
X156824321Y-43503444D01*
X156963444Y-43364321D01*
X157079095Y-43205143D01*
X157168418Y-43029835D01*
X157229221Y-42842705D01*
X157260000Y-42648382D01*
X157260000Y-42250000D01*
X156443012Y-42250000D01*
X156475925Y-42192993D01*
X156510000Y-42065826D01*
X156510000Y-41934174D01*
X156475925Y-41807007D01*
X156443012Y-41750000D01*
X157260000Y-41750000D01*
X157260000Y-41351617D01*
X157229221Y-41157294D01*
X157168418Y-40970164D01*
X157079095Y-40794856D01*
X157007915Y-40696886D01*
X156984435Y-40631080D01*
X157000260Y-40563026D01*
X157050366Y-40514331D01*
X157108233Y-40500000D01*
X169876000Y-40500000D01*
X169943039Y-40519685D01*
X169988794Y-40572489D01*
X170000000Y-40624000D01*
X170000000Y-177376000D01*
X169980315Y-177443039D01*
X169927511Y-177488794D01*
X169876000Y-177500000D01*
X52624000Y-177500000D01*
X52556961Y-177480315D01*
X52511206Y-177427511D01*
X52500000Y-177376000D01*
X52500000Y-173378711D01*
X54649500Y-173378711D01*
X54649500Y-173621288D01*
X54681161Y-173861785D01*
X54743947Y-174096104D01*
X54836773Y-174320205D01*
X54836776Y-174320212D01*
X54958064Y-174530289D01*
X54958066Y-174530292D01*
X54958067Y-174530293D01*
X55105733Y-174722736D01*
X55105739Y-174722743D01*
X55277256Y-174894260D01*
X55277262Y-174894265D01*
X55469711Y-175041936D01*
X55679788Y-175163224D01*
X55903900Y-175256054D01*
X56138211Y-175318838D01*
X56318586Y-175342584D01*
X56378711Y-175350500D01*
X56378712Y-175350500D01*
X56621289Y-175350500D01*
X56669388Y-175344167D01*
X56861789Y-175318838D01*
X57096100Y-175256054D01*
X57320212Y-175163224D01*
X57530289Y-175041936D01*
X57722738Y-174894265D01*
X57894265Y-174722738D01*
X58041936Y-174530289D01*
X58163224Y-174320212D01*
X58256054Y-174096100D01*
X58318838Y-173861789D01*
X58350500Y-173621288D01*
X58350500Y-173378712D01*
X58350500Y-173378711D01*
X164149500Y-173378711D01*
X164149500Y-173621288D01*
X164181161Y-173861785D01*
X164243947Y-174096104D01*
X164336773Y-174320205D01*
X164336776Y-174320212D01*
X164458064Y-174530289D01*
X164458066Y-174530292D01*
X164458067Y-174530293D01*
X164605733Y-174722736D01*
X164605739Y-174722743D01*
X164777256Y-174894260D01*
X164777262Y-174894265D01*
X164969711Y-175041936D01*
X165179788Y-175163224D01*
X165403900Y-175256054D01*
X165638211Y-175318838D01*
X165818586Y-175342584D01*
X165878711Y-175350500D01*
X165878712Y-175350500D01*
X166121289Y-175350500D01*
X166169388Y-175344167D01*
X166361789Y-175318838D01*
X166596100Y-175256054D01*
X166820212Y-175163224D01*
X167030289Y-175041936D01*
X167222738Y-174894265D01*
X167394265Y-174722738D01*
X167541936Y-174530289D01*
X167663224Y-174320212D01*
X167756054Y-174096100D01*
X167818838Y-173861789D01*
X167850500Y-173621288D01*
X167850500Y-173378712D01*
X167818838Y-173138211D01*
X167756054Y-172903900D01*
X167663224Y-172679788D01*
X167541936Y-172469711D01*
X167394265Y-172277262D01*
X167394260Y-172277256D01*
X167222743Y-172105739D01*
X167222736Y-172105733D01*
X167030293Y-171958067D01*
X167030292Y-171958066D01*
X167030289Y-171958064D01*
X166820212Y-171836776D01*
X166820205Y-171836773D01*
X166596104Y-171743947D01*
X166361785Y-171681161D01*
X166121289Y-171649500D01*
X166121288Y-171649500D01*
X165878712Y-171649500D01*
X165878711Y-171649500D01*
X165638214Y-171681161D01*
X165403895Y-171743947D01*
X165179794Y-171836773D01*
X165179785Y-171836777D01*
X164969706Y-171958067D01*
X164777263Y-172105733D01*
X164777256Y-172105739D01*
X164605739Y-172277256D01*
X164605733Y-172277263D01*
X164458067Y-172469706D01*
X164336777Y-172679785D01*
X164336773Y-172679794D01*
X164243947Y-172903895D01*
X164181161Y-173138214D01*
X164149500Y-173378711D01*
X58350500Y-173378711D01*
X58318838Y-173138211D01*
X58256054Y-172903900D01*
X58163224Y-172679788D01*
X58041936Y-172469711D01*
X57894265Y-172277262D01*
X57894260Y-172277256D01*
X57722743Y-172105739D01*
X57722736Y-172105733D01*
X57530293Y-171958067D01*
X57530292Y-171958066D01*
X57530289Y-171958064D01*
X57320212Y-171836776D01*
X57320205Y-171836773D01*
X57096104Y-171743947D01*
X56861785Y-171681161D01*
X56621289Y-171649500D01*
X56621288Y-171649500D01*
X56378712Y-171649500D01*
X56378711Y-171649500D01*
X56138214Y-171681161D01*
X55903895Y-171743947D01*
X55679794Y-171836773D01*
X55679785Y-171836777D01*
X55469706Y-171958067D01*
X55277263Y-172105733D01*
X55277256Y-172105739D01*
X55105739Y-172277256D01*
X55105733Y-172277263D01*
X54958067Y-172469706D01*
X54836777Y-172679785D01*
X54836773Y-172679794D01*
X54743947Y-172903895D01*
X54681161Y-173138214D01*
X54649500Y-173378711D01*
X52500000Y-173378711D01*
X52500000Y-164306324D01*
X60451200Y-164306324D01*
X60451200Y-164503675D01*
X60482073Y-164698600D01*
X60482073Y-164698603D01*
X60543056Y-164886289D01*
X60543058Y-164886292D01*
X60632654Y-165062134D01*
X60748655Y-165221796D01*
X60888204Y-165361345D01*
X61047866Y-165477346D01*
X61223708Y-165566942D01*
X61223710Y-165566943D01*
X61411397Y-165627926D01*
X61411398Y-165627926D01*
X61411401Y-165627927D01*
X61606324Y-165658800D01*
X61606325Y-165658800D01*
X61803675Y-165658800D01*
X61803676Y-165658800D01*
X61998599Y-165627927D01*
X61998602Y-165627926D01*
X61998603Y-165627926D01*
X62186289Y-165566943D01*
X62186289Y-165566942D01*
X62186292Y-165566942D01*
X62362134Y-165477346D01*
X62521796Y-165361345D01*
X62661345Y-165221796D01*
X62777346Y-165062134D01*
X62866942Y-164886292D01*
X62927927Y-164698599D01*
X62958800Y-164503676D01*
X62958800Y-164306324D01*
X62927927Y-164111401D01*
X62927926Y-164111397D01*
X62927926Y-164111396D01*
X62866943Y-163923710D01*
X62777345Y-163747865D01*
X62661345Y-163588204D01*
X62521796Y-163448655D01*
X62362134Y-163332654D01*
X62186289Y-163243056D01*
X61998602Y-163182073D01*
X61852406Y-163158918D01*
X61803676Y-163151200D01*
X61606324Y-163151200D01*
X61541349Y-163161491D01*
X61411399Y-163182073D01*
X61411396Y-163182073D01*
X61223710Y-163243056D01*
X61047865Y-163332654D01*
X60888201Y-163448657D01*
X60748657Y-163588201D01*
X60632654Y-163747865D01*
X60543056Y-163923710D01*
X60482073Y-164111396D01*
X60482073Y-164111399D01*
X60451200Y-164306324D01*
X52500000Y-164306324D01*
X52500000Y-161770631D01*
X65586000Y-161770631D01*
X65586000Y-161959368D01*
X65615522Y-162145763D01*
X65615523Y-162145767D01*
X65673843Y-162325256D01*
X65759523Y-162493413D01*
X65870454Y-162646096D01*
X66003904Y-162779546D01*
X66156587Y-162890477D01*
X66324744Y-162976157D01*
X66504233Y-163034477D01*
X66574134Y-163045548D01*
X66690632Y-163064000D01*
X66690637Y-163064000D01*
X66879368Y-163064000D01*
X66982920Y-163047598D01*
X67065767Y-163034477D01*
X67245256Y-162976157D01*
X67413413Y-162890477D01*
X67566096Y-162779546D01*
X67699546Y-162646096D01*
X67810477Y-162493413D01*
X67896157Y-162325256D01*
X67954477Y-162145767D01*
X67967598Y-162062920D01*
X67984000Y-161959368D01*
X67984000Y-161770631D01*
X67954477Y-161584236D01*
X67954477Y-161584233D01*
X67896157Y-161404744D01*
X67810477Y-161236587D01*
X67699546Y-161083904D01*
X67566096Y-160950454D01*
X67413413Y-160839523D01*
X67245260Y-160753844D01*
X67195825Y-160737781D01*
X67118530Y-160712667D01*
X67060857Y-160673230D01*
X67033659Y-160608871D01*
X67045574Y-160540025D01*
X67092818Y-160488549D01*
X67118534Y-160476806D01*
X67245058Y-160435696D01*
X67245064Y-160435694D01*
X67413151Y-160350048D01*
X67438255Y-160331808D01*
X67438256Y-160331808D01*
X66869095Y-159762647D01*
X66956571Y-159739208D01*
X67057930Y-159680689D01*
X67140689Y-159597930D01*
X67199208Y-159496571D01*
X67222647Y-159409095D01*
X67791808Y-159978256D01*
X67791808Y-159978255D01*
X67810048Y-159953151D01*
X67895694Y-159785064D01*
X67895695Y-159785061D01*
X67953988Y-159605650D01*
X67983500Y-159419323D01*
X67983500Y-159230676D01*
X67953988Y-159044349D01*
X67895695Y-158864938D01*
X67895694Y-158864935D01*
X67810046Y-158696844D01*
X67791809Y-158671743D01*
X67791808Y-158671743D01*
X67222647Y-159240904D01*
X67199208Y-159153429D01*
X67140689Y-159052070D01*
X67057930Y-158969311D01*
X66956571Y-158910792D01*
X66869094Y-158887352D01*
X67438255Y-158318190D01*
X67438255Y-158318189D01*
X67413153Y-158299952D01*
X67245063Y-158214305D01*
X67245061Y-158214304D01*
X67065650Y-158156011D01*
X66879323Y-158126500D01*
X66690677Y-158126500D01*
X66504349Y-158156011D01*
X66324938Y-158214304D01*
X66324936Y-158214305D01*
X66156844Y-158299953D01*
X66156839Y-158299957D01*
X66131743Y-158318188D01*
X66131743Y-158318191D01*
X66700906Y-158887352D01*
X66613429Y-158910792D01*
X66512070Y-158969311D01*
X66429311Y-159052070D01*
X66370792Y-159153429D01*
X66347352Y-159240905D01*
X65778191Y-158671743D01*
X65778188Y-158671743D01*
X65759957Y-158696839D01*
X65759953Y-158696844D01*
X65674305Y-158864936D01*
X65674304Y-158864938D01*
X65616011Y-159044349D01*
X65586500Y-159230676D01*
X65586500Y-159419323D01*
X65616011Y-159605650D01*
X65674304Y-159785061D01*
X65674305Y-159785063D01*
X65759952Y-159953153D01*
X65778189Y-159978255D01*
X65778190Y-159978255D01*
X66347352Y-159409093D01*
X66370792Y-159496571D01*
X66429311Y-159597930D01*
X66512070Y-159680689D01*
X66613429Y-159739208D01*
X66700905Y-159762647D01*
X66131743Y-160331808D01*
X66131743Y-160331809D01*
X66156844Y-160350046D01*
X66324935Y-160435694D01*
X66324938Y-160435695D01*
X66451466Y-160476806D01*
X66509141Y-160516243D01*
X66536340Y-160580602D01*
X66524426Y-160649448D01*
X66477182Y-160700924D01*
X66451467Y-160712668D01*
X66324739Y-160753844D01*
X66156586Y-160839523D01*
X66069475Y-160902813D01*
X66003904Y-160950454D01*
X66003902Y-160950456D01*
X66003901Y-160950456D01*
X65870456Y-161083901D01*
X65870456Y-161083902D01*
X65870454Y-161083904D01*
X65822813Y-161149475D01*
X65759523Y-161236586D01*
X65673844Y-161404741D01*
X65615522Y-161584236D01*
X65586000Y-161770631D01*
X52500000Y-161770631D01*
X52500000Y-154146324D01*
X60451200Y-154146324D01*
X60451200Y-154343675D01*
X60482073Y-154538600D01*
X60482073Y-154538603D01*
X60543056Y-154726289D01*
X60543058Y-154726292D01*
X60632654Y-154902134D01*
X60748655Y-155061796D01*
X60888204Y-155201345D01*
X61047866Y-155317346D01*
X61223708Y-155406942D01*
X61223710Y-155406943D01*
X61411397Y-155467926D01*
X61411398Y-155467926D01*
X61411401Y-155467927D01*
X61606324Y-155498800D01*
X61606325Y-155498800D01*
X61803675Y-155498800D01*
X61803676Y-155498800D01*
X61998599Y-155467927D01*
X61998602Y-155467926D01*
X61998603Y-155467926D01*
X62186289Y-155406943D01*
X62186289Y-155406942D01*
X62186292Y-155406942D01*
X62362134Y-155317346D01*
X62521796Y-155201345D01*
X62661345Y-155061796D01*
X62777346Y-154902134D01*
X62866942Y-154726292D01*
X62927927Y-154538599D01*
X62958800Y-154343676D01*
X62958800Y-154146324D01*
X62927927Y-153951401D01*
X62927926Y-153951397D01*
X62927926Y-153951396D01*
X62866943Y-153763710D01*
X62777345Y-153587865D01*
X62661345Y-153428204D01*
X62521796Y-153288655D01*
X62362134Y-153172654D01*
X62294536Y-153138211D01*
X62186289Y-153083056D01*
X61998602Y-153022073D01*
X61852406Y-152998918D01*
X61803676Y-152991200D01*
X61606324Y-152991200D01*
X61541349Y-153001491D01*
X61411399Y-153022073D01*
X61411396Y-153022073D01*
X61223710Y-153083056D01*
X61047865Y-153172654D01*
X60888201Y-153288657D01*
X60748657Y-153428201D01*
X60632654Y-153587865D01*
X60543056Y-153763710D01*
X60482073Y-153951396D01*
X60482073Y-153951399D01*
X60451200Y-154146324D01*
X52500000Y-154146324D01*
X52500000Y-146467070D01*
X80325621Y-146467070D01*
X80325621Y-146722929D01*
X80365647Y-146975640D01*
X80444709Y-147218972D01*
X80444710Y-147218975D01*
X80560871Y-147446950D01*
X80711253Y-147653935D01*
X80711257Y-147653940D01*
X80892180Y-147834863D01*
X80892185Y-147834867D01*
X81099174Y-147985252D01*
X81103326Y-147987797D01*
X81102549Y-147989064D01*
X81148530Y-148032502D01*
X81165318Y-148100325D01*
X81142772Y-148166457D01*
X81102699Y-148201180D01*
X81103326Y-148202203D01*
X81099174Y-148204747D01*
X80892185Y-148355132D01*
X80892180Y-148355136D01*
X80711257Y-148536059D01*
X80711253Y-148536064D01*
X80560871Y-148743049D01*
X80444710Y-148971024D01*
X80444709Y-148971027D01*
X80365647Y-149214359D01*
X80325621Y-149467070D01*
X80325621Y-149722929D01*
X80365647Y-149975640D01*
X80444709Y-150218972D01*
X80444710Y-150218975D01*
X80560871Y-150446950D01*
X80711253Y-150653935D01*
X80711257Y-150653940D01*
X80892180Y-150834863D01*
X80892185Y-150834867D01*
X81099174Y-150985252D01*
X81103326Y-150987797D01*
X81102549Y-150989064D01*
X81148530Y-151032502D01*
X81165318Y-151100325D01*
X81142772Y-151166457D01*
X81102699Y-151201180D01*
X81103326Y-151202203D01*
X81099174Y-151204747D01*
X80892185Y-151355132D01*
X80892180Y-151355136D01*
X80711257Y-151536059D01*
X80711253Y-151536064D01*
X80560871Y-151743049D01*
X80444710Y-151971024D01*
X80444709Y-151971027D01*
X80365647Y-152214359D01*
X80325621Y-152467070D01*
X80325621Y-152722929D01*
X80365647Y-152975640D01*
X80444709Y-153218972D01*
X80444710Y-153218975D01*
X80495349Y-153318358D01*
X80551317Y-153428201D01*
X80560871Y-153446950D01*
X80711253Y-153653935D01*
X80711257Y-153653940D01*
X80892180Y-153834863D01*
X80892185Y-153834867D01*
X81052575Y-153951396D01*
X81099174Y-153985252D01*
X81248201Y-154061185D01*
X81327145Y-154101410D01*
X81327148Y-154101411D01*
X81448814Y-154140942D01*
X81570482Y-154180474D01*
X81823191Y-154220500D01*
X81823192Y-154220500D01*
X82079050Y-154220500D01*
X82079051Y-154220500D01*
X82331760Y-154180474D01*
X82575096Y-154101410D01*
X82803068Y-153985252D01*
X83010063Y-153834862D01*
X83190983Y-153653942D01*
X83341373Y-153446947D01*
X83376141Y-153378711D01*
X109399500Y-153378711D01*
X109399500Y-153621288D01*
X109431161Y-153861785D01*
X109493947Y-154096104D01*
X109545474Y-154220500D01*
X109586776Y-154320212D01*
X109708064Y-154530289D01*
X109708066Y-154530292D01*
X109708067Y-154530293D01*
X109855733Y-154722736D01*
X109855739Y-154722743D01*
X110027256Y-154894260D01*
X110027262Y-154894265D01*
X110219711Y-155041936D01*
X110429788Y-155163224D01*
X110653900Y-155256054D01*
X110888211Y-155318838D01*
X111068586Y-155342584D01*
X111128711Y-155350500D01*
X111128712Y-155350500D01*
X111371289Y-155350500D01*
X111419388Y-155344167D01*
X111611789Y-155318838D01*
X111846100Y-155256054D01*
X112070212Y-155163224D01*
X112280289Y-155041936D01*
X112472738Y-154894265D01*
X112644265Y-154722738D01*
X112791936Y-154530289D01*
X112913224Y-154320212D01*
X113006054Y-154096100D01*
X113068838Y-153861789D01*
X113100500Y-153621288D01*
X113100500Y-153378712D01*
X113068838Y-153138211D01*
X113006054Y-152903900D01*
X112913224Y-152679788D01*
X112791936Y-152469711D01*
X112644265Y-152277262D01*
X112644260Y-152277256D01*
X112472743Y-152105739D01*
X112472736Y-152105733D01*
X112280293Y-151958067D01*
X112280292Y-151958066D01*
X112280289Y-151958064D01*
X112070212Y-151836776D01*
X112070205Y-151836773D01*
X111846104Y-151743947D01*
X111611785Y-151681161D01*
X111371289Y-151649500D01*
X111371288Y-151649500D01*
X111128712Y-151649500D01*
X111128711Y-151649500D01*
X110888214Y-151681161D01*
X110653895Y-151743947D01*
X110429794Y-151836773D01*
X110429785Y-151836777D01*
X110219706Y-151958067D01*
X110027263Y-152105733D01*
X110027256Y-152105739D01*
X109855739Y-152277256D01*
X109855733Y-152277263D01*
X109708067Y-152469706D01*
X109586777Y-152679785D01*
X109586773Y-152679794D01*
X109493947Y-152903895D01*
X109431161Y-153138214D01*
X109399500Y-153378711D01*
X83376141Y-153378711D01*
X83457531Y-153218975D01*
X83536595Y-152975639D01*
X83576621Y-152722930D01*
X83576621Y-152467070D01*
X83536595Y-152214361D01*
X83457531Y-151971025D01*
X83457531Y-151971024D01*
X83389126Y-151836773D01*
X83341373Y-151743053D01*
X83273403Y-151649500D01*
X83190988Y-151536064D01*
X83190984Y-151536059D01*
X83010061Y-151355136D01*
X83010056Y-151355132D01*
X82803067Y-151204747D01*
X82798916Y-151202203D01*
X82799694Y-151200932D01*
X82753719Y-151157513D01*
X82736923Y-151089692D01*
X82759459Y-151023557D01*
X82799544Y-150988822D01*
X82798916Y-150987797D01*
X82803062Y-150985255D01*
X82803068Y-150985252D01*
X83010063Y-150834862D01*
X83190983Y-150653942D01*
X83341373Y-150446947D01*
X83457531Y-150218975D01*
X83536595Y-149975639D01*
X83576621Y-149722930D01*
X83576621Y-149467070D01*
X83536595Y-149214361D01*
X83457531Y-148971025D01*
X83457531Y-148971024D01*
X83417306Y-148892080D01*
X83341373Y-148743053D01*
X83322159Y-148716607D01*
X83190988Y-148536064D01*
X83190984Y-148536059D01*
X83010061Y-148355136D01*
X83010056Y-148355132D01*
X82803067Y-148204747D01*
X82798916Y-148202203D01*
X82799694Y-148200932D01*
X82753719Y-148157513D01*
X82736923Y-148089692D01*
X82759459Y-148023557D01*
X82799544Y-147988822D01*
X82798916Y-147987797D01*
X82803062Y-147985255D01*
X82803068Y-147985252D01*
X83010063Y-147834862D01*
X83190983Y-147653942D01*
X83341373Y-147446947D01*
X83457531Y-147218975D01*
X83536595Y-146975639D01*
X83576621Y-146722930D01*
X83576621Y-146467070D01*
X83536595Y-146214361D01*
X83457531Y-145971025D01*
X83457531Y-145971024D01*
X83417306Y-145892080D01*
X83341373Y-145743053D01*
X83322159Y-145716607D01*
X83190988Y-145536064D01*
X83190984Y-145536059D01*
X83010061Y-145355136D01*
X83010056Y-145355132D01*
X82803071Y-145204750D01*
X82803070Y-145204749D01*
X82803068Y-145204748D01*
X82730031Y-145167533D01*
X82575096Y-145088589D01*
X82575093Y-145088588D01*
X82331761Y-145009526D01*
X82205405Y-144989513D01*
X82079051Y-144969500D01*
X81823191Y-144969500D01*
X81738954Y-144982842D01*
X81570480Y-145009526D01*
X81327148Y-145088588D01*
X81327145Y-145088589D01*
X81099170Y-145204750D01*
X80892185Y-145355132D01*
X80892180Y-145355136D01*
X80711257Y-145536059D01*
X80711253Y-145536064D01*
X80560871Y-145743049D01*
X80444710Y-145971024D01*
X80444709Y-145971027D01*
X80365647Y-146214359D01*
X80325621Y-146467070D01*
X52500000Y-146467070D01*
X52500000Y-137676442D01*
X52519685Y-137609403D01*
X52572489Y-137563648D01*
X52641647Y-137553704D01*
X52671456Y-137561882D01*
X52675171Y-137563421D01*
X52862294Y-137624221D01*
X53056618Y-137655000D01*
X53455000Y-137655000D01*
X53455000Y-136838012D01*
X53512007Y-136870925D01*
X53639174Y-136905000D01*
X53770826Y-136905000D01*
X53897993Y-136870925D01*
X53955000Y-136838012D01*
X53955000Y-137655000D01*
X54353382Y-137655000D01*
X54547705Y-137624221D01*
X54734835Y-137563418D01*
X54910143Y-137474095D01*
X55069321Y-137358444D01*
X55208444Y-137219321D01*
X55324095Y-137060143D01*
X55413418Y-136884837D01*
X55474218Y-136697716D01*
X55480984Y-136655000D01*
X54138012Y-136655000D01*
X54170925Y-136597993D01*
X54205000Y-136470826D01*
X54205000Y-136339174D01*
X54170925Y-136212007D01*
X54138012Y-136155000D01*
X55480984Y-136155000D01*
X55474218Y-136112283D01*
X55413418Y-135925162D01*
X55324095Y-135749856D01*
X55208444Y-135590678D01*
X55069321Y-135451555D01*
X54910143Y-135335904D01*
X54734835Y-135246581D01*
X54547705Y-135185778D01*
X54353382Y-135155000D01*
X53955000Y-135155000D01*
X53955000Y-135971988D01*
X53897993Y-135939075D01*
X53770826Y-135905000D01*
X53639174Y-135905000D01*
X53512007Y-135939075D01*
X53455000Y-135971988D01*
X53455000Y-135155000D01*
X53056618Y-135155000D01*
X52862294Y-135185778D01*
X52675166Y-135246580D01*
X52671444Y-135248122D01*
X52601974Y-135255585D01*
X52539497Y-135224305D01*
X52503849Y-135164213D01*
X52500000Y-135133557D01*
X52500000Y-130056442D01*
X52519685Y-129989403D01*
X52572489Y-129943648D01*
X52641647Y-129933704D01*
X52671456Y-129941882D01*
X52675171Y-129943421D01*
X52862294Y-130004221D01*
X53056618Y-130035000D01*
X53455000Y-130035000D01*
X53455000Y-129218012D01*
X53512007Y-129250925D01*
X53639174Y-129285000D01*
X53770826Y-129285000D01*
X53897993Y-129250925D01*
X53955000Y-129218012D01*
X53955000Y-130035000D01*
X54353382Y-130035000D01*
X54547705Y-130004221D01*
X54734835Y-129943418D01*
X54910143Y-129854095D01*
X55069321Y-129738444D01*
X55208444Y-129599321D01*
X55324095Y-129440143D01*
X55413418Y-129264837D01*
X55474218Y-129077716D01*
X55480984Y-129035000D01*
X54138012Y-129035000D01*
X54170925Y-128977993D01*
X54205000Y-128850826D01*
X54205000Y-128719174D01*
X54196265Y-128686577D01*
X59604500Y-128686577D01*
X59604500Y-128883422D01*
X59635290Y-129077826D01*
X59696117Y-129265029D01*
X59785343Y-129440143D01*
X59785476Y-129440405D01*
X59901172Y-129599646D01*
X60040354Y-129738828D01*
X60199595Y-129854524D01*
X60322992Y-129917397D01*
X60376213Y-129944515D01*
X60427009Y-129992489D01*
X60443804Y-130060310D01*
X60421267Y-130126445D01*
X60376213Y-130165485D01*
X60199594Y-130255476D01*
X60108741Y-130321485D01*
X60040354Y-130371172D01*
X60040352Y-130371174D01*
X60040351Y-130371174D01*
X59901174Y-130510351D01*
X59901174Y-130510352D01*
X59901172Y-130510354D01*
X59851485Y-130578741D01*
X59785476Y-130669594D01*
X59696117Y-130844970D01*
X59635290Y-131032173D01*
X59604500Y-131226577D01*
X59604500Y-131423422D01*
X59635290Y-131617826D01*
X59696117Y-131805029D01*
X59784006Y-131977519D01*
X59785476Y-131980405D01*
X59901172Y-132139646D01*
X60040354Y-132278828D01*
X60149543Y-132358159D01*
X60199596Y-132394525D01*
X60376763Y-132484795D01*
X60427560Y-132532769D01*
X60444355Y-132600590D01*
X60421818Y-132666725D01*
X60376764Y-132705765D01*
X60199856Y-132795904D01*
X60040678Y-132911555D01*
X59901555Y-133050678D01*
X59785904Y-133209856D01*
X59696581Y-133385162D01*
X59635781Y-133572283D01*
X59629016Y-133615000D01*
X60971988Y-133615000D01*
X60939075Y-133672007D01*
X60905000Y-133799174D01*
X60905000Y-133930826D01*
X60939075Y-134057993D01*
X60971988Y-134115000D01*
X59629016Y-134115000D01*
X59635781Y-134157716D01*
X59696581Y-134344837D01*
X59785904Y-134520143D01*
X59901555Y-134679321D01*
X60040678Y-134818444D01*
X60199856Y-134934095D01*
X60376764Y-135024234D01*
X60427560Y-135072208D01*
X60444355Y-135140029D01*
X60421818Y-135206164D01*
X60376764Y-135245204D01*
X60199594Y-135335476D01*
X60146537Y-135374025D01*
X60040354Y-135451172D01*
X60040352Y-135451174D01*
X60040351Y-135451174D01*
X59901174Y-135590351D01*
X59901174Y-135590352D01*
X59901172Y-135590354D01*
X59900937Y-135590678D01*
X59785476Y-135749594D01*
X59696117Y-135924970D01*
X59635290Y-136112173D01*
X59604500Y-136306577D01*
X59604500Y-136503422D01*
X59635290Y-136697826D01*
X59696117Y-136885029D01*
X59770989Y-137031972D01*
X59785476Y-137060405D01*
X59901172Y-137219646D01*
X60040354Y-137358828D01*
X60199595Y-137474524D01*
X60282455Y-137516743D01*
X60374970Y-137563882D01*
X60374972Y-137563882D01*
X60374975Y-137563884D01*
X60475317Y-137596487D01*
X60562173Y-137624709D01*
X60756578Y-137655500D01*
X60756583Y-137655500D01*
X62053422Y-137655500D01*
X62247826Y-137624709D01*
X62249328Y-137624221D01*
X62435025Y-137563884D01*
X62610405Y-137474524D01*
X62769646Y-137358828D01*
X62908828Y-137219646D01*
X63024524Y-137060405D01*
X63113884Y-136885025D01*
X63174709Y-136697826D01*
X63189340Y-136605449D01*
X63205500Y-136503422D01*
X63205500Y-136485959D01*
X80313736Y-136485959D01*
X80313736Y-136741818D01*
X80353762Y-136994529D01*
X80432824Y-137237861D01*
X80432825Y-137237864D01*
X80494265Y-137358444D01*
X80533840Y-137436115D01*
X80548986Y-137465839D01*
X80699368Y-137672824D01*
X80699372Y-137672829D01*
X80880295Y-137853752D01*
X80880300Y-137853756D01*
X81087289Y-138004141D01*
X81091441Y-138006686D01*
X81090664Y-138007953D01*
X81136645Y-138051391D01*
X81153433Y-138119214D01*
X81130887Y-138185346D01*
X81090814Y-138220069D01*
X81091441Y-138221092D01*
X81087289Y-138223636D01*
X80880300Y-138374021D01*
X80880295Y-138374025D01*
X80699372Y-138554948D01*
X80699368Y-138554953D01*
X80548986Y-138761938D01*
X80432825Y-138989913D01*
X80432824Y-138989916D01*
X80353762Y-139233248D01*
X80313736Y-139485959D01*
X80313736Y-139741818D01*
X80353762Y-139994529D01*
X80432824Y-140237861D01*
X80432825Y-140237864D01*
X80548986Y-140465839D01*
X80699368Y-140672824D01*
X80699372Y-140672829D01*
X80880295Y-140853752D01*
X80880300Y-140853756D01*
X81087289Y-141004141D01*
X81091441Y-141006686D01*
X81090664Y-141007953D01*
X81136645Y-141051391D01*
X81153433Y-141119214D01*
X81130887Y-141185346D01*
X81090814Y-141220069D01*
X81091441Y-141221092D01*
X81087289Y-141223636D01*
X80880300Y-141374021D01*
X80880295Y-141374025D01*
X80699372Y-141554948D01*
X80699368Y-141554953D01*
X80548986Y-141761938D01*
X80432825Y-141989913D01*
X80432824Y-141989916D01*
X80353762Y-142233248D01*
X80313736Y-142485959D01*
X80313736Y-142741818D01*
X80353762Y-142994529D01*
X80432824Y-143237861D01*
X80432825Y-143237864D01*
X80548986Y-143465839D01*
X80699368Y-143672824D01*
X80699372Y-143672829D01*
X80880295Y-143853752D01*
X80880300Y-143853756D01*
X81060843Y-143984927D01*
X81087289Y-144004141D01*
X81236316Y-144080074D01*
X81315260Y-144120299D01*
X81315263Y-144120300D01*
X81436929Y-144159831D01*
X81558597Y-144199363D01*
X81811306Y-144239389D01*
X81811307Y-144239389D01*
X82067165Y-144239389D01*
X82067166Y-144239389D01*
X82319875Y-144199363D01*
X82563211Y-144120299D01*
X82791183Y-144004141D01*
X82998178Y-143853751D01*
X83179098Y-143672831D01*
X83329488Y-143465836D01*
X83445646Y-143237864D01*
X83524710Y-142994528D01*
X83564736Y-142741819D01*
X83564736Y-142485959D01*
X83524710Y-142233250D01*
X83445646Y-141989914D01*
X83445646Y-141989913D01*
X83405421Y-141910969D01*
X83329488Y-141761942D01*
X83310274Y-141735496D01*
X83179103Y-141554953D01*
X83179099Y-141554948D01*
X82998176Y-141374025D01*
X82998171Y-141374021D01*
X82791182Y-141223636D01*
X82787031Y-141221092D01*
X82787809Y-141219821D01*
X82741834Y-141176402D01*
X82725038Y-141108581D01*
X82747574Y-141042446D01*
X82787659Y-141007711D01*
X82787031Y-141006686D01*
X82791177Y-141004144D01*
X82791183Y-141004141D01*
X82998178Y-140853751D01*
X83179098Y-140672831D01*
X83329488Y-140465836D01*
X83445646Y-140237864D01*
X83524710Y-139994528D01*
X83564736Y-139741819D01*
X83564736Y-139485959D01*
X83524710Y-139233250D01*
X83445646Y-138989914D01*
X83445646Y-138989913D01*
X83405421Y-138910969D01*
X83329488Y-138761942D01*
X83310274Y-138735496D01*
X83179103Y-138554953D01*
X83179099Y-138554948D01*
X82998176Y-138374025D01*
X82998171Y-138374021D01*
X82791182Y-138223636D01*
X82787031Y-138221092D01*
X82787809Y-138219821D01*
X82741834Y-138176402D01*
X82725038Y-138108581D01*
X82747574Y-138042446D01*
X82787659Y-138007711D01*
X82787031Y-138006686D01*
X82791177Y-138004144D01*
X82791183Y-138004141D01*
X82998178Y-137853751D01*
X83179098Y-137672831D01*
X83329488Y-137465836D01*
X83445646Y-137237864D01*
X83524710Y-136994528D01*
X83564736Y-136741819D01*
X83564736Y-136485959D01*
X83562339Y-136470826D01*
X83545438Y-136364116D01*
X83543137Y-136349590D01*
X108367302Y-136349590D01*
X108367302Y-136605449D01*
X108407328Y-136858160D01*
X108486390Y-137101492D01*
X108486391Y-137101495D01*
X108546594Y-137219648D01*
X108602549Y-137329466D01*
X108602552Y-137329470D01*
X108752934Y-137536455D01*
X108752938Y-137536460D01*
X108933861Y-137717383D01*
X108933866Y-137717387D01*
X109114409Y-137848558D01*
X109140855Y-137867772D01*
X109289882Y-137943705D01*
X109368826Y-137983930D01*
X109368829Y-137983931D01*
X109490495Y-138023462D01*
X109612163Y-138062994D01*
X109864872Y-138103020D01*
X109864873Y-138103020D01*
X110120731Y-138103020D01*
X110120732Y-138103020D01*
X110373441Y-138062994D01*
X110616777Y-137983930D01*
X110844749Y-137867772D01*
X111051744Y-137717382D01*
X111232664Y-137536462D01*
X111383054Y-137329467D01*
X111383057Y-137329461D01*
X111385599Y-137325315D01*
X111386724Y-137326004D01*
X111430538Y-137279586D01*
X111498354Y-137262770D01*
X111564496Y-137285288D01*
X111599476Y-137325639D01*
X111600432Y-137325054D01*
X111602972Y-137329199D01*
X111680652Y-137436115D01*
X111680652Y-137436116D01*
X112432271Y-136684496D01*
X112438350Y-136707181D01*
X112516684Y-136842858D01*
X112627464Y-136953638D01*
X112763141Y-137031972D01*
X112785824Y-137038049D01*
X112034204Y-137789668D01*
X112141115Y-137867344D01*
X112369017Y-137983467D01*
X112369020Y-137983468D01*
X112612278Y-138062506D01*
X112864913Y-138102520D01*
X113120691Y-138102520D01*
X113373325Y-138062506D01*
X113616583Y-137983468D01*
X113616586Y-137983467D01*
X113844487Y-137867345D01*
X113951397Y-137789668D01*
X113951398Y-137789668D01*
X113199779Y-137038050D01*
X113222463Y-137031972D01*
X113358140Y-136953638D01*
X113468920Y-136842858D01*
X113547254Y-136707181D01*
X113553331Y-136684497D01*
X114304950Y-137436116D01*
X114304950Y-137436115D01*
X114382627Y-137329205D01*
X114498749Y-137101304D01*
X114498750Y-137101301D01*
X114577788Y-136858043D01*
X114617802Y-136605409D01*
X114617802Y-136349630D01*
X114577788Y-136096996D01*
X114498750Y-135853738D01*
X114498749Y-135853735D01*
X114382626Y-135625833D01*
X114304950Y-135518923D01*
X114304950Y-135518922D01*
X113553331Y-136270541D01*
X113547254Y-136247859D01*
X113468920Y-136112182D01*
X113358140Y-136001402D01*
X113222463Y-135923068D01*
X113199777Y-135916989D01*
X113951398Y-135165370D01*
X113844488Y-135087695D01*
X113616586Y-134971572D01*
X113616583Y-134971571D01*
X113373325Y-134892533D01*
X113120691Y-134852520D01*
X112864913Y-134852520D01*
X112612278Y-134892533D01*
X112369020Y-134971571D01*
X112369017Y-134971572D01*
X112141112Y-135087697D01*
X112034205Y-135165369D01*
X112034204Y-135165370D01*
X112785824Y-135916989D01*
X112763141Y-135923068D01*
X112627464Y-136001402D01*
X112516684Y-136112182D01*
X112438350Y-136247859D01*
X112432271Y-136270542D01*
X111680652Y-135518922D01*
X111680651Y-135518923D01*
X111602976Y-135625834D01*
X111600432Y-135629986D01*
X111599247Y-135629260D01*
X111555560Y-135675490D01*
X111487734Y-135692266D01*
X111421606Y-135669709D01*
X111386499Y-135629173D01*
X111385599Y-135629725D01*
X111383054Y-135625573D01*
X111232669Y-135418584D01*
X111232665Y-135418579D01*
X111051742Y-135237656D01*
X111051737Y-135237652D01*
X110844752Y-135087270D01*
X110844751Y-135087269D01*
X110844749Y-135087268D01*
X110729244Y-135028415D01*
X110616777Y-134971109D01*
X110616774Y-134971108D01*
X110373442Y-134892046D01*
X110247086Y-134872033D01*
X110120732Y-134852020D01*
X109864872Y-134852020D01*
X109780635Y-134865362D01*
X109612161Y-134892046D01*
X109368829Y-134971108D01*
X109368826Y-134971109D01*
X109140851Y-135087270D01*
X108933866Y-135237652D01*
X108933861Y-135237656D01*
X108752938Y-135418579D01*
X108752934Y-135418584D01*
X108602552Y-135625569D01*
X108486391Y-135853544D01*
X108486390Y-135853547D01*
X108407328Y-136096879D01*
X108367302Y-136349590D01*
X83543137Y-136349590D01*
X83536324Y-136306577D01*
X83524710Y-136233250D01*
X83445646Y-135989914D01*
X83445646Y-135989913D01*
X83390926Y-135882520D01*
X83329488Y-135761942D01*
X83233617Y-135629986D01*
X83179103Y-135554953D01*
X83179099Y-135554948D01*
X82998176Y-135374025D01*
X82998171Y-135374021D01*
X82791186Y-135223639D01*
X82791185Y-135223638D01*
X82791183Y-135223637D01*
X82715925Y-135185291D01*
X82563211Y-135107478D01*
X82563208Y-135107477D01*
X82319876Y-135028415D01*
X82193520Y-135008402D01*
X82067166Y-134988389D01*
X81811306Y-134988389D01*
X81727069Y-135001731D01*
X81558595Y-135028415D01*
X81315263Y-135107477D01*
X81315260Y-135107478D01*
X81087285Y-135223639D01*
X80880300Y-135374021D01*
X80880295Y-135374025D01*
X80699372Y-135554948D01*
X80699368Y-135554953D01*
X80548986Y-135761938D01*
X80432825Y-135989913D01*
X80432824Y-135989916D01*
X80353762Y-136233248D01*
X80313736Y-136485959D01*
X63205500Y-136485959D01*
X63205500Y-136306577D01*
X63174709Y-136112173D01*
X63118465Y-135939075D01*
X63113884Y-135924975D01*
X63113882Y-135924972D01*
X63113882Y-135924970D01*
X63030813Y-135761938D01*
X63024524Y-135749595D01*
X62908828Y-135590354D01*
X62769646Y-135451172D01*
X62610405Y-135335476D01*
X62435025Y-135246116D01*
X62435024Y-135246115D01*
X62433235Y-135245204D01*
X62382439Y-135197230D01*
X62365644Y-135129409D01*
X62388181Y-135063274D01*
X62433236Y-135024234D01*
X62610141Y-134934097D01*
X62769321Y-134818444D01*
X62908444Y-134679321D01*
X63024095Y-134520143D01*
X63113418Y-134344837D01*
X63174218Y-134157716D01*
X63180984Y-134115000D01*
X61838012Y-134115000D01*
X61870925Y-134057993D01*
X61905000Y-133930826D01*
X61905000Y-133799174D01*
X61870925Y-133672007D01*
X61838012Y-133615000D01*
X63180984Y-133615000D01*
X63174218Y-133572283D01*
X63113418Y-133385162D01*
X63024095Y-133209856D01*
X62908444Y-133050678D01*
X62769321Y-132911555D01*
X62610143Y-132795904D01*
X62433235Y-132705765D01*
X62382439Y-132657790D01*
X62365644Y-132589969D01*
X62388181Y-132523835D01*
X62433236Y-132484795D01*
X62435022Y-132483884D01*
X62435025Y-132483884D01*
X62610405Y-132394524D01*
X62769646Y-132278828D01*
X62908828Y-132139646D01*
X63024524Y-131980405D01*
X63113884Y-131805025D01*
X63174709Y-131617826D01*
X63193149Y-131501402D01*
X63205500Y-131423422D01*
X63205500Y-131226577D01*
X63174709Y-131032173D01*
X63137801Y-130918584D01*
X63113884Y-130844975D01*
X63113882Y-130844972D01*
X63113882Y-130844970D01*
X63059203Y-130737656D01*
X63024524Y-130669595D01*
X62908828Y-130510354D01*
X62769646Y-130371172D01*
X62690025Y-130313324D01*
X62610403Y-130255474D01*
X62433787Y-130165485D01*
X62382990Y-130117511D01*
X62366195Y-130049690D01*
X62388732Y-129983555D01*
X62433787Y-129944515D01*
X62610403Y-129854525D01*
X62610402Y-129854525D01*
X62610405Y-129854524D01*
X62769646Y-129738828D01*
X62908828Y-129599646D01*
X63024524Y-129440405D01*
X63113884Y-129265025D01*
X63174709Y-129077826D01*
X63181492Y-129035000D01*
X63205500Y-128883422D01*
X63205500Y-128686577D01*
X63174709Y-128492173D01*
X63121842Y-128329467D01*
X63113884Y-128304975D01*
X63113882Y-128304972D01*
X63113882Y-128304970D01*
X63066743Y-128212455D01*
X63024524Y-128129595D01*
X62908828Y-127970354D01*
X62769646Y-127831172D01*
X62610405Y-127715476D01*
X62594125Y-127707181D01*
X62435029Y-127626117D01*
X62247826Y-127565290D01*
X62053422Y-127534500D01*
X62053417Y-127534500D01*
X60756583Y-127534500D01*
X60756578Y-127534500D01*
X60562173Y-127565290D01*
X60374970Y-127626117D01*
X60199594Y-127715476D01*
X60108741Y-127781485D01*
X60040354Y-127831172D01*
X60040352Y-127831174D01*
X60040351Y-127831174D01*
X59901174Y-127970351D01*
X59901174Y-127970352D01*
X59901172Y-127970354D01*
X59900937Y-127970678D01*
X59785476Y-128129594D01*
X59696117Y-128304970D01*
X59635290Y-128492173D01*
X59604500Y-128686577D01*
X54196265Y-128686577D01*
X54170925Y-128592007D01*
X54138012Y-128535000D01*
X55480984Y-128535000D01*
X55474218Y-128492283D01*
X55413418Y-128305162D01*
X55324095Y-128129856D01*
X55208444Y-127970678D01*
X55069321Y-127831555D01*
X54910143Y-127715904D01*
X54734835Y-127626581D01*
X54547705Y-127565778D01*
X54353382Y-127535000D01*
X53955000Y-127535000D01*
X53955000Y-128351988D01*
X53897993Y-128319075D01*
X53770826Y-128285000D01*
X53639174Y-128285000D01*
X53512007Y-128319075D01*
X53455000Y-128351988D01*
X53455000Y-127535000D01*
X53056618Y-127535000D01*
X52862294Y-127565778D01*
X52675166Y-127626580D01*
X52671444Y-127628122D01*
X52601974Y-127635585D01*
X52539497Y-127604305D01*
X52503849Y-127544213D01*
X52500000Y-127513557D01*
X52500000Y-124923122D01*
X95219500Y-124923122D01*
X95219500Y-125076877D01*
X95249491Y-125227656D01*
X95249494Y-125227665D01*
X95308326Y-125369701D01*
X95308327Y-125369703D01*
X95393745Y-125497539D01*
X95393748Y-125497543D01*
X95502456Y-125606251D01*
X95502460Y-125606254D01*
X95630294Y-125691671D01*
X95630295Y-125691671D01*
X95630296Y-125691672D01*
X95630298Y-125691673D01*
X95724988Y-125730894D01*
X95772336Y-125750506D01*
X95772338Y-125750506D01*
X95772343Y-125750508D01*
X95923122Y-125780499D01*
X95923126Y-125780500D01*
X95923127Y-125780500D01*
X96076874Y-125780500D01*
X96076875Y-125780499D01*
X96127136Y-125770502D01*
X96227656Y-125750508D01*
X96227659Y-125750506D01*
X96227664Y-125750506D01*
X96369706Y-125691671D01*
X96474876Y-125621398D01*
X96541553Y-125600520D01*
X96543767Y-125600500D01*
X103781233Y-125600500D01*
X103848272Y-125620185D01*
X103850124Y-125621398D01*
X103955294Y-125691671D01*
X103955295Y-125691671D01*
X103955296Y-125691672D01*
X103955298Y-125691673D01*
X104049988Y-125730894D01*
X104097336Y-125750506D01*
X104097338Y-125750506D01*
X104097343Y-125750508D01*
X104248122Y-125780499D01*
X104248126Y-125780500D01*
X104248127Y-125780500D01*
X104401874Y-125780500D01*
X104401875Y-125780499D01*
X104452136Y-125770502D01*
X104552656Y-125750508D01*
X104552659Y-125750506D01*
X104552664Y-125750506D01*
X104694706Y-125691671D01*
X104822540Y-125606254D01*
X104931254Y-125497540D01*
X105016671Y-125369706D01*
X105075506Y-125227664D01*
X105105500Y-125076873D01*
X105105500Y-124923127D01*
X105105232Y-124921782D01*
X105075508Y-124772343D01*
X105075505Y-124772334D01*
X105016673Y-124630298D01*
X105016672Y-124630296D01*
X104931254Y-124502460D01*
X104931251Y-124502456D01*
X104822543Y-124393748D01*
X104822539Y-124393745D01*
X104694703Y-124308327D01*
X104694701Y-124308326D01*
X104552665Y-124249494D01*
X104552656Y-124249491D01*
X104401877Y-124219500D01*
X104401873Y-124219500D01*
X104248127Y-124219500D01*
X104248122Y-124219500D01*
X104097343Y-124249491D01*
X104097334Y-124249494D01*
X103955298Y-124308326D01*
X103955296Y-124308327D01*
X103850124Y-124378602D01*
X103783447Y-124399480D01*
X103781233Y-124399500D01*
X96543767Y-124399500D01*
X96476728Y-124379815D01*
X96474876Y-124378602D01*
X96369703Y-124308327D01*
X96369701Y-124308326D01*
X96227665Y-124249494D01*
X96227656Y-124249491D01*
X96076877Y-124219500D01*
X96076873Y-124219500D01*
X95923127Y-124219500D01*
X95923122Y-124219500D01*
X95772343Y-124249491D01*
X95772334Y-124249494D01*
X95630298Y-124308326D01*
X95630296Y-124308327D01*
X95502460Y-124393745D01*
X95502456Y-124393748D01*
X95393748Y-124502456D01*
X95393745Y-124502460D01*
X95308327Y-124630296D01*
X95308326Y-124630298D01*
X95249494Y-124772334D01*
X95249491Y-124772343D01*
X95219500Y-124923122D01*
X52500000Y-124923122D01*
X52500000Y-117786283D01*
X100584500Y-117786283D01*
X100584500Y-118586301D01*
X100584501Y-118586319D01*
X100595000Y-118689096D01*
X100595001Y-118689099D01*
X100624616Y-118778469D01*
X100650186Y-118855634D01*
X100742288Y-119004956D01*
X100866344Y-119129012D01*
X101015666Y-119221114D01*
X101019152Y-119223264D01*
X101065876Y-119275212D01*
X101077099Y-119344175D01*
X101068617Y-119376254D01*
X101034493Y-119458639D01*
X101034491Y-119458643D01*
X101004500Y-119609422D01*
X101004500Y-119763177D01*
X101034491Y-119913956D01*
X101034494Y-119913965D01*
X101093326Y-120056001D01*
X101093327Y-120056003D01*
X101178745Y-120183839D01*
X101178748Y-120183843D01*
X101287456Y-120292551D01*
X101287460Y-120292554D01*
X101415294Y-120377971D01*
X101415295Y-120377971D01*
X101415296Y-120377972D01*
X101415298Y-120377973D01*
X101464223Y-120398238D01*
X101557336Y-120436806D01*
X101557338Y-120436806D01*
X101557343Y-120436808D01*
X101708122Y-120466799D01*
X101708126Y-120466800D01*
X101708127Y-120466800D01*
X101861874Y-120466800D01*
X101861875Y-120466799D01*
X101912136Y-120456802D01*
X102012656Y-120436808D01*
X102012659Y-120436806D01*
X102012664Y-120436806D01*
X102154706Y-120377971D01*
X102282540Y-120292554D01*
X102391254Y-120183840D01*
X102476671Y-120056006D01*
X102535506Y-119913964D01*
X102544507Y-119868716D01*
X102565499Y-119763177D01*
X102565500Y-119763174D01*
X102565500Y-119609426D01*
X102565499Y-119609422D01*
X102535508Y-119458643D01*
X102535505Y-119458634D01*
X102501383Y-119376255D01*
X102493914Y-119306786D01*
X102525190Y-119244307D01*
X102550848Y-119223264D01*
X102554334Y-119221114D01*
X102703656Y-119129012D01*
X102827712Y-119004956D01*
X102919814Y-118855634D01*
X102937295Y-118802877D01*
X102977064Y-118745438D01*
X103041579Y-118718613D01*
X103110355Y-118730927D01*
X103161556Y-118778469D01*
X103172704Y-118802880D01*
X103190182Y-118855625D01*
X103190185Y-118855631D01*
X103190186Y-118855634D01*
X103282288Y-119004956D01*
X103406344Y-119129012D01*
X103555666Y-119221114D01*
X103559152Y-119223264D01*
X103605876Y-119275212D01*
X103617099Y-119344175D01*
X103608617Y-119376254D01*
X103574493Y-119458639D01*
X103574491Y-119458643D01*
X103544500Y-119609422D01*
X103544500Y-119763177D01*
X103574491Y-119913956D01*
X103574494Y-119913965D01*
X103633326Y-120056001D01*
X103633327Y-120056003D01*
X103718745Y-120183839D01*
X103718748Y-120183843D01*
X103827456Y-120292551D01*
X103827460Y-120292554D01*
X103955294Y-120377971D01*
X103955295Y-120377971D01*
X103955296Y-120377972D01*
X103955298Y-120377973D01*
X104004223Y-120398238D01*
X104097336Y-120436806D01*
X104097338Y-120436806D01*
X104097343Y-120436808D01*
X104248122Y-120466799D01*
X104248126Y-120466800D01*
X104248127Y-120466800D01*
X104401874Y-120466800D01*
X104401875Y-120466799D01*
X104452136Y-120456802D01*
X104552656Y-120436808D01*
X104552659Y-120436806D01*
X104552664Y-120436806D01*
X104694706Y-120377971D01*
X104822540Y-120292554D01*
X104931254Y-120183840D01*
X105016671Y-120056006D01*
X105075506Y-119913964D01*
X105084507Y-119868716D01*
X105105499Y-119763177D01*
X105105500Y-119763174D01*
X105105500Y-119609426D01*
X105105499Y-119609422D01*
X105075508Y-119458643D01*
X105075505Y-119458634D01*
X105041383Y-119376255D01*
X105033914Y-119306786D01*
X105065190Y-119244307D01*
X105090848Y-119223264D01*
X105094334Y-119221114D01*
X105243656Y-119129012D01*
X105367712Y-119004956D01*
X105459814Y-118855634D01*
X105477295Y-118802877D01*
X105517064Y-118745438D01*
X105581579Y-118718613D01*
X105650355Y-118730927D01*
X105701556Y-118778469D01*
X105712704Y-118802880D01*
X105730182Y-118855625D01*
X105730185Y-118855631D01*
X105730186Y-118855634D01*
X105822288Y-119004956D01*
X105946344Y-119129012D01*
X106095666Y-119221114D01*
X106099152Y-119223264D01*
X106145876Y-119275212D01*
X106157099Y-119344175D01*
X106148617Y-119376254D01*
X106114493Y-119458639D01*
X106114491Y-119458643D01*
X106084500Y-119609422D01*
X106084500Y-119763177D01*
X106114491Y-119913956D01*
X106114494Y-119913965D01*
X106173326Y-120056001D01*
X106173327Y-120056003D01*
X106243602Y-120161176D01*
X106264480Y-120227853D01*
X106264500Y-120230067D01*
X106264500Y-126091232D01*
X106244815Y-126158271D01*
X106243602Y-126160122D01*
X106173330Y-126265291D01*
X106173326Y-126265298D01*
X106114494Y-126407334D01*
X106114492Y-126407342D01*
X106089816Y-126531395D01*
X106057431Y-126593306D01*
X106055880Y-126594884D01*
X101959884Y-130690880D01*
X101898561Y-130724365D01*
X101896395Y-130724816D01*
X101772342Y-130749492D01*
X101772334Y-130749494D01*
X101630298Y-130808326D01*
X101630296Y-130808327D01*
X101502460Y-130893745D01*
X101502456Y-130893748D01*
X101393748Y-131002456D01*
X101393745Y-131002460D01*
X101308327Y-131130296D01*
X101308326Y-131130298D01*
X101249494Y-131272334D01*
X101249491Y-131272343D01*
X101219500Y-131423122D01*
X101219500Y-131576877D01*
X101249491Y-131727656D01*
X101249494Y-131727665D01*
X101308326Y-131869701D01*
X101308327Y-131869703D01*
X101393745Y-131997539D01*
X101393748Y-131997543D01*
X101502456Y-132106251D01*
X101502460Y-132106254D01*
X101630294Y-132191671D01*
X101630295Y-132191671D01*
X101630296Y-132191672D01*
X101630298Y-132191673D01*
X101724988Y-132230894D01*
X101772336Y-132250506D01*
X101772338Y-132250506D01*
X101772343Y-132250508D01*
X101923122Y-132280499D01*
X101923126Y-132280500D01*
X101923127Y-132280500D01*
X102076874Y-132280500D01*
X102076875Y-132280499D01*
X102127136Y-132270502D01*
X102227656Y-132250508D01*
X102227659Y-132250506D01*
X102227664Y-132250506D01*
X102369706Y-132191671D01*
X102497540Y-132106254D01*
X102606254Y-131997540D01*
X102691671Y-131869706D01*
X102700003Y-131849590D01*
X108367302Y-131849590D01*
X108367302Y-132105450D01*
X108372719Y-132139648D01*
X108407328Y-132358160D01*
X108486390Y-132601492D01*
X108486391Y-132601495D01*
X108519628Y-132666725D01*
X108602549Y-132829466D01*
X108602552Y-132829470D01*
X108752934Y-133036455D01*
X108752938Y-133036460D01*
X108933861Y-133217383D01*
X108933866Y-133217387D01*
X109114409Y-133348558D01*
X109140855Y-133367772D01*
X109289882Y-133443705D01*
X109368826Y-133483930D01*
X109368829Y-133483931D01*
X109490495Y-133523462D01*
X109612163Y-133562994D01*
X109864872Y-133603020D01*
X109864873Y-133603020D01*
X110120731Y-133603020D01*
X110120732Y-133603020D01*
X110373441Y-133562994D01*
X110616777Y-133483930D01*
X110844749Y-133367772D01*
X111051744Y-133217382D01*
X111232664Y-133036462D01*
X111383054Y-132829467D01*
X111383057Y-132829461D01*
X111385599Y-132825315D01*
X111386724Y-132826004D01*
X111430538Y-132779586D01*
X111498354Y-132762770D01*
X111564496Y-132785288D01*
X111599476Y-132825639D01*
X111600432Y-132825054D01*
X111602972Y-132829199D01*
X111680652Y-132936115D01*
X111680652Y-132936116D01*
X112432271Y-132184496D01*
X112438350Y-132207181D01*
X112516684Y-132342858D01*
X112627464Y-132453638D01*
X112763141Y-132531972D01*
X112785824Y-132538049D01*
X112034204Y-133289668D01*
X112141115Y-133367344D01*
X112369017Y-133483467D01*
X112369020Y-133483468D01*
X112612278Y-133562506D01*
X112864913Y-133602520D01*
X113120691Y-133602520D01*
X113373325Y-133562506D01*
X113616583Y-133483468D01*
X113616586Y-133483467D01*
X113844487Y-133367345D01*
X113951397Y-133289668D01*
X113951398Y-133289668D01*
X113199779Y-132538050D01*
X113222463Y-132531972D01*
X113358140Y-132453638D01*
X113468920Y-132342858D01*
X113547254Y-132207181D01*
X113553331Y-132184497D01*
X114304950Y-132936116D01*
X114304950Y-132936115D01*
X114382627Y-132829205D01*
X114498749Y-132601304D01*
X114498750Y-132601301D01*
X114577788Y-132358043D01*
X114617802Y-132105409D01*
X114617802Y-131849630D01*
X114577788Y-131596996D01*
X114498750Y-131353738D01*
X114498749Y-131353735D01*
X114382626Y-131125833D01*
X114304950Y-131018923D01*
X114304950Y-131018922D01*
X113553331Y-131770541D01*
X113547254Y-131747859D01*
X113468920Y-131612182D01*
X113358140Y-131501402D01*
X113222463Y-131423068D01*
X113199777Y-131416989D01*
X113951398Y-130665370D01*
X113844488Y-130587695D01*
X113616586Y-130471572D01*
X113616583Y-130471571D01*
X113373325Y-130392533D01*
X113120691Y-130352520D01*
X112864913Y-130352520D01*
X112612278Y-130392533D01*
X112369020Y-130471571D01*
X112369017Y-130471572D01*
X112141112Y-130587697D01*
X112034205Y-130665369D01*
X112034204Y-130665370D01*
X112785824Y-131416989D01*
X112763141Y-131423068D01*
X112627464Y-131501402D01*
X112516684Y-131612182D01*
X112438350Y-131747859D01*
X112432271Y-131770542D01*
X111680652Y-131018922D01*
X111680651Y-131018923D01*
X111602976Y-131125834D01*
X111600432Y-131129986D01*
X111599247Y-131129260D01*
X111555560Y-131175490D01*
X111487734Y-131192266D01*
X111421606Y-131169709D01*
X111386499Y-131129173D01*
X111385599Y-131129725D01*
X111383054Y-131125573D01*
X111232669Y-130918584D01*
X111232665Y-130918579D01*
X111051742Y-130737656D01*
X111051737Y-130737652D01*
X110844752Y-130587270D01*
X110844751Y-130587269D01*
X110844749Y-130587268D01*
X110771712Y-130550053D01*
X110616777Y-130471109D01*
X110616774Y-130471108D01*
X110373442Y-130392046D01*
X110241650Y-130371172D01*
X110120732Y-130352020D01*
X109864872Y-130352020D01*
X109780635Y-130365362D01*
X109612161Y-130392046D01*
X109368829Y-130471108D01*
X109368826Y-130471109D01*
X109140851Y-130587270D01*
X108933866Y-130737652D01*
X108933861Y-130737656D01*
X108752938Y-130918579D01*
X108752934Y-130918584D01*
X108602552Y-131125569D01*
X108486391Y-131353544D01*
X108486390Y-131353547D01*
X108407328Y-131596879D01*
X108374360Y-131805029D01*
X108367302Y-131849590D01*
X102700003Y-131849590D01*
X102750506Y-131727664D01*
X102776103Y-131598978D01*
X102777367Y-131594451D01*
X102793470Y-131568642D01*
X102807567Y-131541694D01*
X102809061Y-131540173D01*
X106905117Y-127444117D01*
X106966438Y-127410634D01*
X106968605Y-127410183D01*
X107092656Y-127385508D01*
X107092659Y-127385506D01*
X107092664Y-127385506D01*
X107179374Y-127349590D01*
X108367302Y-127349590D01*
X108367302Y-127605450D01*
X108370649Y-127626580D01*
X108407328Y-127858160D01*
X108486390Y-128101492D01*
X108486391Y-128101495D01*
X108565335Y-128256430D01*
X108602549Y-128329466D01*
X108602552Y-128329470D01*
X108752934Y-128536455D01*
X108752938Y-128536460D01*
X108933861Y-128717383D01*
X108933866Y-128717387D01*
X109114409Y-128848558D01*
X109140855Y-128867772D01*
X109289882Y-128943705D01*
X109368826Y-128983930D01*
X109368829Y-128983931D01*
X109490495Y-129023462D01*
X109612163Y-129062994D01*
X109864872Y-129103020D01*
X109864873Y-129103020D01*
X110120731Y-129103020D01*
X110120732Y-129103020D01*
X110373441Y-129062994D01*
X110616777Y-128983930D01*
X110844749Y-128867772D01*
X111051744Y-128717382D01*
X111232664Y-128536462D01*
X111383054Y-128329467D01*
X111383057Y-128329461D01*
X111385599Y-128325315D01*
X111386724Y-128326004D01*
X111430538Y-128279586D01*
X111498354Y-128262770D01*
X111564496Y-128285288D01*
X111599476Y-128325639D01*
X111600432Y-128325054D01*
X111602972Y-128329199D01*
X111680652Y-128436115D01*
X111680652Y-128436116D01*
X112432271Y-127684496D01*
X112438350Y-127707181D01*
X112516684Y-127842858D01*
X112627464Y-127953638D01*
X112763141Y-128031972D01*
X112785824Y-128038049D01*
X112034204Y-128789668D01*
X112141115Y-128867344D01*
X112369017Y-128983467D01*
X112369020Y-128983468D01*
X112612278Y-129062506D01*
X112864913Y-129102520D01*
X113120691Y-129102520D01*
X113373325Y-129062506D01*
X113616583Y-128983468D01*
X113616586Y-128983467D01*
X113844487Y-128867345D01*
X113951397Y-128789668D01*
X113951398Y-128789668D01*
X113199779Y-128038050D01*
X113222463Y-128031972D01*
X113358140Y-127953638D01*
X113468920Y-127842858D01*
X113547254Y-127707181D01*
X113553331Y-127684497D01*
X114304950Y-128436116D01*
X114304950Y-128436115D01*
X114382627Y-128329205D01*
X114498749Y-128101304D01*
X114498750Y-128101301D01*
X114577788Y-127858043D01*
X114617802Y-127605409D01*
X114617802Y-127349630D01*
X114577788Y-127096996D01*
X114498750Y-126853738D01*
X114498749Y-126853735D01*
X114382626Y-126625833D01*
X114304950Y-126518923D01*
X114304950Y-126518922D01*
X113553331Y-127270541D01*
X113547254Y-127247859D01*
X113468920Y-127112182D01*
X113358140Y-127001402D01*
X113222463Y-126923068D01*
X113199777Y-126916989D01*
X113951398Y-126165370D01*
X113844488Y-126087695D01*
X113616586Y-125971572D01*
X113616583Y-125971571D01*
X113373325Y-125892533D01*
X113120691Y-125852520D01*
X112864913Y-125852520D01*
X112612278Y-125892533D01*
X112369020Y-125971571D01*
X112369017Y-125971572D01*
X112141112Y-126087697D01*
X112034205Y-126165369D01*
X112034204Y-126165370D01*
X112785824Y-126916989D01*
X112763141Y-126923068D01*
X112627464Y-127001402D01*
X112516684Y-127112182D01*
X112438350Y-127247859D01*
X112432271Y-127270542D01*
X111680652Y-126518922D01*
X111680651Y-126518923D01*
X111602976Y-126625834D01*
X111600432Y-126629986D01*
X111599247Y-126629260D01*
X111555560Y-126675490D01*
X111487734Y-126692266D01*
X111421606Y-126669709D01*
X111386499Y-126629173D01*
X111385599Y-126629725D01*
X111383054Y-126625573D01*
X111232669Y-126418584D01*
X111232665Y-126418579D01*
X111051742Y-126237656D01*
X111051737Y-126237652D01*
X110844752Y-126087270D01*
X110844751Y-126087269D01*
X110844749Y-126087268D01*
X110771712Y-126050053D01*
X110616777Y-125971109D01*
X110616774Y-125971108D01*
X110373442Y-125892046D01*
X110247086Y-125872033D01*
X110120732Y-125852020D01*
X109864872Y-125852020D01*
X109780635Y-125865362D01*
X109612161Y-125892046D01*
X109368829Y-125971108D01*
X109368826Y-125971109D01*
X109140851Y-126087270D01*
X108933866Y-126237652D01*
X108933861Y-126237656D01*
X108752938Y-126418579D01*
X108752934Y-126418584D01*
X108602552Y-126625569D01*
X108486391Y-126853544D01*
X108486390Y-126853547D01*
X108407328Y-127096879D01*
X108384403Y-127241618D01*
X108367302Y-127349590D01*
X107179374Y-127349590D01*
X107234706Y-127326671D01*
X107362540Y-127241254D01*
X107471254Y-127132540D01*
X107556671Y-127004706D01*
X107615506Y-126862664D01*
X107617282Y-126853738D01*
X107645499Y-126711877D01*
X107645500Y-126711874D01*
X107645500Y-126558126D01*
X107645499Y-126558122D01*
X107615508Y-126407343D01*
X107615505Y-126407334D01*
X107556673Y-126265298D01*
X107556669Y-126265291D01*
X107486398Y-126160122D01*
X107465520Y-126093445D01*
X107465500Y-126091232D01*
X107465500Y-121724500D01*
X107485185Y-121657461D01*
X107537989Y-121611706D01*
X107589500Y-121600500D01*
X108786495Y-121600500D01*
X108853534Y-121620185D01*
X108899289Y-121672989D01*
X108909233Y-121742147D01*
X108880208Y-121805703D01*
X108874176Y-121812181D01*
X108756537Y-121929819D01*
X108756533Y-121929824D01*
X108606151Y-122136809D01*
X108489990Y-122364784D01*
X108489989Y-122364787D01*
X108410927Y-122608119D01*
X108370901Y-122860830D01*
X108370901Y-123116689D01*
X108410927Y-123369400D01*
X108489989Y-123612732D01*
X108489990Y-123612735D01*
X108568934Y-123767670D01*
X108606148Y-123840706D01*
X108606151Y-123840710D01*
X108756533Y-124047695D01*
X108756537Y-124047700D01*
X108937460Y-124228623D01*
X108937465Y-124228627D01*
X109118008Y-124359798D01*
X109144454Y-124379012D01*
X109293481Y-124454945D01*
X109372425Y-124495170D01*
X109372428Y-124495171D01*
X109494094Y-124534702D01*
X109615762Y-124574234D01*
X109868471Y-124614260D01*
X109868472Y-124614260D01*
X110124330Y-124614260D01*
X110124331Y-124614260D01*
X110377040Y-124574234D01*
X110620376Y-124495170D01*
X110848348Y-124379012D01*
X111055343Y-124228622D01*
X111236263Y-124047702D01*
X111386653Y-123840707D01*
X111386656Y-123840701D01*
X111389198Y-123836555D01*
X111390323Y-123837244D01*
X111434137Y-123790826D01*
X111501953Y-123774010D01*
X111568095Y-123796528D01*
X111603075Y-123836879D01*
X111604031Y-123836294D01*
X111606571Y-123840439D01*
X111684251Y-123947355D01*
X111684251Y-123947356D01*
X112435870Y-123195736D01*
X112441949Y-123218421D01*
X112520283Y-123354098D01*
X112631063Y-123464878D01*
X112766740Y-123543212D01*
X112789423Y-123549289D01*
X112037803Y-124300908D01*
X112144714Y-124378584D01*
X112372616Y-124494707D01*
X112372619Y-124494708D01*
X112615877Y-124573746D01*
X112868512Y-124613760D01*
X113124290Y-124613760D01*
X113376924Y-124573746D01*
X113620182Y-124494708D01*
X113620185Y-124494707D01*
X113848086Y-124378585D01*
X113954996Y-124300908D01*
X113954997Y-124300908D01*
X113203378Y-123549290D01*
X113226062Y-123543212D01*
X113361739Y-123464878D01*
X113472519Y-123354098D01*
X113550853Y-123218421D01*
X113556930Y-123195737D01*
X114308549Y-123947356D01*
X114308549Y-123947355D01*
X114386226Y-123840445D01*
X114502348Y-123612544D01*
X114502349Y-123612541D01*
X114581387Y-123369283D01*
X114621401Y-123116649D01*
X114621401Y-122860870D01*
X114581387Y-122608236D01*
X114502349Y-122364978D01*
X114502348Y-122364975D01*
X114386225Y-122137073D01*
X114308549Y-122030163D01*
X114308549Y-122030162D01*
X113556930Y-122781781D01*
X113550853Y-122759099D01*
X113472519Y-122623422D01*
X113361739Y-122512642D01*
X113226062Y-122434308D01*
X113203376Y-122428229D01*
X113954997Y-121676610D01*
X113848087Y-121598935D01*
X113620185Y-121482812D01*
X113620182Y-121482811D01*
X113376924Y-121403773D01*
X113124290Y-121363760D01*
X112868512Y-121363760D01*
X112615877Y-121403773D01*
X112372619Y-121482811D01*
X112372616Y-121482812D01*
X112144711Y-121598937D01*
X112037804Y-121676609D01*
X112037803Y-121676610D01*
X112789423Y-122428229D01*
X112766740Y-122434308D01*
X112631063Y-122512642D01*
X112520283Y-122623422D01*
X112441949Y-122759099D01*
X112435870Y-122781782D01*
X111684251Y-122030162D01*
X111684250Y-122030163D01*
X111606575Y-122137074D01*
X111604031Y-122141226D01*
X111602846Y-122140500D01*
X111559159Y-122186730D01*
X111491333Y-122203506D01*
X111425205Y-122180949D01*
X111390098Y-122140413D01*
X111389198Y-122140965D01*
X111386653Y-122136813D01*
X111236268Y-121929824D01*
X111236264Y-121929819D01*
X111095185Y-121788740D01*
X111061700Y-121727417D01*
X111066684Y-121657725D01*
X111108556Y-121601792D01*
X111150768Y-121581285D01*
X111231785Y-121559577D01*
X111281904Y-121530639D01*
X111368716Y-121480520D01*
X111480520Y-121368716D01*
X111480520Y-121368714D01*
X111490728Y-121358507D01*
X111490729Y-121358504D01*
X112980519Y-119868716D01*
X116540117Y-116309117D01*
X116601438Y-116275634D01*
X116603605Y-116275183D01*
X116727656Y-116250508D01*
X116727659Y-116250506D01*
X116727664Y-116250506D01*
X116869706Y-116191671D01*
X116997540Y-116106254D01*
X117106254Y-115997540D01*
X117191671Y-115869706D01*
X117250506Y-115727664D01*
X117259271Y-115683602D01*
X117280499Y-115576877D01*
X117280500Y-115576874D01*
X117280500Y-115423126D01*
X117280499Y-115423122D01*
X117250508Y-115272343D01*
X117250505Y-115272334D01*
X117191673Y-115130298D01*
X117191672Y-115130296D01*
X117169286Y-115096794D01*
X117106254Y-115002460D01*
X117106251Y-115002456D01*
X116997543Y-114893748D01*
X116997539Y-114893745D01*
X116869703Y-114808327D01*
X116869701Y-114808326D01*
X116727665Y-114749494D01*
X116727656Y-114749491D01*
X116576877Y-114719500D01*
X116576873Y-114719500D01*
X116423127Y-114719500D01*
X116423122Y-114719500D01*
X116272343Y-114749491D01*
X116272334Y-114749494D01*
X116130298Y-114808326D01*
X116130296Y-114808327D01*
X116002460Y-114893745D01*
X116002456Y-114893748D01*
X115893748Y-115002456D01*
X115893745Y-115002460D01*
X115808327Y-115130296D01*
X115808326Y-115130298D01*
X115749494Y-115272334D01*
X115749492Y-115272342D01*
X115724816Y-115396395D01*
X115692431Y-115458306D01*
X115690880Y-115459884D01*
X112131284Y-119019481D01*
X110787584Y-120363181D01*
X110726261Y-120396666D01*
X110699903Y-120399500D01*
X110094957Y-120399500D01*
X110027918Y-120379815D01*
X109982163Y-120327011D01*
X109972219Y-120257853D01*
X110001244Y-120194297D01*
X110007276Y-120187819D01*
X110011251Y-120183843D01*
X110011254Y-120183840D01*
X110096671Y-120056006D01*
X110155506Y-119913964D01*
X110164507Y-119868716D01*
X110185499Y-119763177D01*
X110185500Y-119763174D01*
X110185500Y-119609426D01*
X110185499Y-119609422D01*
X110155508Y-119458643D01*
X110155505Y-119458634D01*
X110121383Y-119376255D01*
X110113914Y-119306786D01*
X110145190Y-119244307D01*
X110170848Y-119223264D01*
X110174334Y-119221114D01*
X110323656Y-119129012D01*
X110447712Y-119004956D01*
X110539814Y-118855634D01*
X110594999Y-118689097D01*
X110605500Y-118586309D01*
X110605499Y-117786292D01*
X110594999Y-117683503D01*
X110539814Y-117516966D01*
X110447712Y-117367644D01*
X110353695Y-117273627D01*
X110320210Y-117212304D01*
X110325194Y-117142612D01*
X110353695Y-117098264D01*
X110447317Y-117004642D01*
X110539356Y-116855424D01*
X110539358Y-116855419D01*
X110594505Y-116688997D01*
X110594506Y-116688990D01*
X110604999Y-116586286D01*
X110605000Y-116586273D01*
X110605000Y-116436300D01*
X108190302Y-116436300D01*
X108161355Y-116452105D01*
X108091663Y-116447119D01*
X108074829Y-116436300D01*
X105650302Y-116436300D01*
X105621355Y-116452105D01*
X105551663Y-116447119D01*
X105534829Y-116436300D01*
X103110302Y-116436300D01*
X103081355Y-116452105D01*
X103011663Y-116447119D01*
X102994829Y-116436300D01*
X100585001Y-116436300D01*
X100585001Y-116586286D01*
X100595494Y-116688997D01*
X100650641Y-116855419D01*
X100650643Y-116855424D01*
X100742684Y-117004645D01*
X100836304Y-117098265D01*
X100869789Y-117159588D01*
X100864805Y-117229280D01*
X100836305Y-117273627D01*
X100742287Y-117367645D01*
X100650187Y-117516963D01*
X100650186Y-117516966D01*
X100595001Y-117683503D01*
X100595001Y-117683504D01*
X100595000Y-117683504D01*
X100584500Y-117786283D01*
X52500000Y-117786283D01*
X52500000Y-115786313D01*
X100585000Y-115786313D01*
X100585000Y-115936300D01*
X101535000Y-115936300D01*
X102035000Y-115936300D01*
X102999695Y-115936300D01*
X103028638Y-115920495D01*
X103098329Y-115925478D01*
X103115169Y-115936300D01*
X104075000Y-115936300D01*
X104575000Y-115936300D01*
X105539695Y-115936300D01*
X105568638Y-115920495D01*
X105638329Y-115925478D01*
X105655169Y-115936300D01*
X106615000Y-115936300D01*
X107115000Y-115936300D01*
X108079695Y-115936300D01*
X108108638Y-115920495D01*
X108178329Y-115925478D01*
X108195169Y-115936300D01*
X109155000Y-115936300D01*
X109655000Y-115936300D01*
X110604999Y-115936300D01*
X110604999Y-115786328D01*
X110604998Y-115786313D01*
X110594505Y-115683602D01*
X110539358Y-115517180D01*
X110539356Y-115517175D01*
X110447315Y-115367954D01*
X110323345Y-115243984D01*
X110174124Y-115151943D01*
X110174119Y-115151941D01*
X110007697Y-115096794D01*
X110007690Y-115096793D01*
X109904986Y-115086300D01*
X109655000Y-115086300D01*
X109655000Y-115936300D01*
X109155000Y-115936300D01*
X109155000Y-115086300D01*
X108905029Y-115086300D01*
X108905012Y-115086301D01*
X108802302Y-115096794D01*
X108635880Y-115151941D01*
X108635875Y-115151943D01*
X108486654Y-115243984D01*
X108362684Y-115367954D01*
X108270643Y-115517175D01*
X108270641Y-115517180D01*
X108252706Y-115571306D01*
X108212933Y-115628751D01*
X108148417Y-115655574D01*
X108079641Y-115643259D01*
X108028442Y-115595716D01*
X108017294Y-115571306D01*
X107999358Y-115517180D01*
X107999356Y-115517175D01*
X107907315Y-115367954D01*
X107783345Y-115243984D01*
X107634124Y-115151943D01*
X107634119Y-115151941D01*
X107467697Y-115096794D01*
X107467690Y-115096793D01*
X107364986Y-115086300D01*
X107115000Y-115086300D01*
X107115000Y-115936300D01*
X106615000Y-115936300D01*
X106615000Y-115086300D01*
X106365029Y-115086300D01*
X106365012Y-115086301D01*
X106262302Y-115096794D01*
X106095880Y-115151941D01*
X106095875Y-115151943D01*
X105946654Y-115243984D01*
X105822684Y-115367954D01*
X105730643Y-115517175D01*
X105730641Y-115517180D01*
X105712706Y-115571306D01*
X105672933Y-115628751D01*
X105608417Y-115655574D01*
X105539641Y-115643259D01*
X105488442Y-115595716D01*
X105477294Y-115571306D01*
X105459358Y-115517180D01*
X105459356Y-115517175D01*
X105367315Y-115367954D01*
X105243345Y-115243984D01*
X105094124Y-115151943D01*
X105094119Y-115151941D01*
X104927697Y-115096794D01*
X104927690Y-115096793D01*
X104824986Y-115086300D01*
X104575000Y-115086300D01*
X104575000Y-115936300D01*
X104075000Y-115936300D01*
X104075000Y-115086300D01*
X103825029Y-115086300D01*
X103825012Y-115086301D01*
X103722302Y-115096794D01*
X103555880Y-115151941D01*
X103555875Y-115151943D01*
X103406654Y-115243984D01*
X103282684Y-115367954D01*
X103190643Y-115517175D01*
X103190641Y-115517180D01*
X103172706Y-115571306D01*
X103132933Y-115628751D01*
X103068417Y-115655574D01*
X102999641Y-115643259D01*
X102948442Y-115595716D01*
X102937294Y-115571306D01*
X102919358Y-115517180D01*
X102919356Y-115517175D01*
X102827315Y-115367954D01*
X102703345Y-115243984D01*
X102554124Y-115151943D01*
X102554119Y-115151941D01*
X102387697Y-115096794D01*
X102387690Y-115096793D01*
X102284986Y-115086300D01*
X102035000Y-115086300D01*
X102035000Y-115936300D01*
X101535000Y-115936300D01*
X101535000Y-115086300D01*
X101285029Y-115086300D01*
X101285012Y-115086301D01*
X101182302Y-115096794D01*
X101015880Y-115151941D01*
X101015875Y-115151943D01*
X100866654Y-115243984D01*
X100742684Y-115367954D01*
X100650643Y-115517175D01*
X100650641Y-115517180D01*
X100595494Y-115683602D01*
X100595493Y-115683609D01*
X100585000Y-115786313D01*
X52500000Y-115786313D01*
X52500000Y-110213686D01*
X103125001Y-110213686D01*
X103135494Y-110316397D01*
X103190641Y-110482819D01*
X103190643Y-110482824D01*
X103282684Y-110632045D01*
X103406654Y-110756015D01*
X103555875Y-110848056D01*
X103555880Y-110848058D01*
X103722302Y-110903205D01*
X103722309Y-110903206D01*
X103825019Y-110913699D01*
X104074999Y-110913699D01*
X104575000Y-110913699D01*
X104824972Y-110913699D01*
X104824986Y-110913698D01*
X104927697Y-110903205D01*
X105094119Y-110848058D01*
X105094124Y-110848056D01*
X105243345Y-110756015D01*
X105367315Y-110632045D01*
X105459356Y-110482824D01*
X105459356Y-110482822D01*
X105477292Y-110428695D01*
X105517064Y-110371249D01*
X105581579Y-110344425D01*
X105650355Y-110356739D01*
X105701556Y-110404281D01*
X105712704Y-110428692D01*
X105730638Y-110482813D01*
X105730643Y-110482824D01*
X105822684Y-110632045D01*
X105946654Y-110756015D01*
X106095875Y-110848056D01*
X106095880Y-110848058D01*
X106262302Y-110903205D01*
X106262309Y-110903206D01*
X106365019Y-110913699D01*
X106614999Y-110913699D01*
X107115000Y-110913699D01*
X107364972Y-110913699D01*
X107364986Y-110913698D01*
X107467697Y-110903205D01*
X107634119Y-110848058D01*
X107634124Y-110848056D01*
X107783345Y-110756015D01*
X107907315Y-110632045D01*
X107999356Y-110482824D01*
X107999356Y-110482822D01*
X108017292Y-110428695D01*
X108057064Y-110371249D01*
X108121579Y-110344425D01*
X108190355Y-110356739D01*
X108241556Y-110404281D01*
X108252704Y-110428692D01*
X108270638Y-110482813D01*
X108270643Y-110482824D01*
X108362684Y-110632045D01*
X108486654Y-110756015D01*
X108635875Y-110848056D01*
X108635880Y-110848058D01*
X108802302Y-110903205D01*
X108802309Y-110903206D01*
X108905019Y-110913699D01*
X109154999Y-110913699D01*
X109655000Y-110913699D01*
X109904972Y-110913699D01*
X109904986Y-110913698D01*
X110007697Y-110903205D01*
X110174119Y-110848058D01*
X110174124Y-110848056D01*
X110323345Y-110756015D01*
X110447315Y-110632045D01*
X110539356Y-110482824D01*
X110539356Y-110482822D01*
X110557292Y-110428695D01*
X110597064Y-110371249D01*
X110661579Y-110344425D01*
X110730355Y-110356739D01*
X110781556Y-110404281D01*
X110792704Y-110428692D01*
X110810638Y-110482813D01*
X110810643Y-110482824D01*
X110902684Y-110632045D01*
X111026654Y-110756015D01*
X111175875Y-110848056D01*
X111175880Y-110848058D01*
X111342302Y-110903205D01*
X111342309Y-110903206D01*
X111445019Y-110913699D01*
X111694999Y-110913699D01*
X112195000Y-110913699D01*
X112444972Y-110913699D01*
X112444986Y-110913698D01*
X112547697Y-110903205D01*
X112714119Y-110848058D01*
X112714124Y-110848056D01*
X112863345Y-110756015D01*
X112987315Y-110632045D01*
X113079356Y-110482824D01*
X113079358Y-110482819D01*
X113134505Y-110316397D01*
X113134506Y-110316390D01*
X113144999Y-110213686D01*
X113145000Y-110213673D01*
X113145000Y-110063700D01*
X112195000Y-110063700D01*
X112195000Y-110913699D01*
X111694999Y-110913699D01*
X111695000Y-110913698D01*
X111695000Y-110063700D01*
X110730302Y-110063700D01*
X110701355Y-110079505D01*
X110631663Y-110074519D01*
X110614829Y-110063700D01*
X109655000Y-110063700D01*
X109655000Y-110913699D01*
X109154999Y-110913699D01*
X109155000Y-110913698D01*
X109155000Y-110063700D01*
X108190302Y-110063700D01*
X108161355Y-110079505D01*
X108091663Y-110074519D01*
X108074829Y-110063700D01*
X107115000Y-110063700D01*
X107115000Y-110913699D01*
X106614999Y-110913699D01*
X106615000Y-110913698D01*
X106615000Y-110063700D01*
X105650302Y-110063700D01*
X105621355Y-110079505D01*
X105551663Y-110074519D01*
X105534829Y-110063700D01*
X104575000Y-110063700D01*
X104575000Y-110913699D01*
X104074999Y-110913699D01*
X104075000Y-110913698D01*
X104075000Y-110063700D01*
X103125001Y-110063700D01*
X103125001Y-110213686D01*
X52500000Y-110213686D01*
X52500000Y-104211324D01*
X60451200Y-104211324D01*
X60451200Y-104408676D01*
X60464826Y-104494707D01*
X60482073Y-104603600D01*
X60482073Y-104603603D01*
X60543056Y-104791289D01*
X60543058Y-104791292D01*
X60632654Y-104967134D01*
X60748655Y-105126796D01*
X60888204Y-105266345D01*
X61047866Y-105382346D01*
X61223708Y-105471942D01*
X61223710Y-105471943D01*
X61411397Y-105532926D01*
X61411398Y-105532926D01*
X61411401Y-105532927D01*
X61606324Y-105563800D01*
X61606325Y-105563800D01*
X61803675Y-105563800D01*
X61803676Y-105563800D01*
X61998599Y-105532927D01*
X61998602Y-105532926D01*
X61998603Y-105532926D01*
X62186289Y-105471943D01*
X62186289Y-105471942D01*
X62186292Y-105471942D01*
X62362134Y-105382346D01*
X62521796Y-105266345D01*
X62661345Y-105126796D01*
X62777346Y-104967134D01*
X62866942Y-104791292D01*
X62924463Y-104614260D01*
X62927926Y-104603603D01*
X62927926Y-104603602D01*
X62927927Y-104603599D01*
X62958800Y-104408676D01*
X62958800Y-104211324D01*
X62927927Y-104016401D01*
X62927926Y-104016397D01*
X62927926Y-104016396D01*
X62866943Y-103828710D01*
X62839072Y-103774010D01*
X62777346Y-103652866D01*
X62661345Y-103493204D01*
X62521796Y-103353655D01*
X62362134Y-103237654D01*
X62324387Y-103218421D01*
X62186289Y-103148056D01*
X61998602Y-103087073D01*
X61852406Y-103063918D01*
X61803676Y-103056200D01*
X61606324Y-103056200D01*
X61541349Y-103066491D01*
X61411399Y-103087073D01*
X61411396Y-103087073D01*
X61223710Y-103148056D01*
X61047865Y-103237654D01*
X60888201Y-103353657D01*
X60748657Y-103493201D01*
X60632654Y-103652865D01*
X60543056Y-103828710D01*
X60482073Y-104016396D01*
X60482073Y-104016399D01*
X60477115Y-104047702D01*
X60451200Y-104211324D01*
X52500000Y-104211324D01*
X52500000Y-101675631D01*
X65586000Y-101675631D01*
X65586000Y-101864368D01*
X65615522Y-102050763D01*
X65615523Y-102050767D01*
X65673843Y-102230256D01*
X65759523Y-102398413D01*
X65870454Y-102551096D01*
X66003904Y-102684546D01*
X66156587Y-102795477D01*
X66324744Y-102881157D01*
X66504233Y-102939477D01*
X66574134Y-102950548D01*
X66690632Y-102969000D01*
X66690637Y-102969000D01*
X66879368Y-102969000D01*
X66982920Y-102952598D01*
X67065767Y-102939477D01*
X67245256Y-102881157D01*
X67413413Y-102795477D01*
X67566096Y-102684546D01*
X67699546Y-102551096D01*
X67810477Y-102398413D01*
X67896157Y-102230256D01*
X67954477Y-102050767D01*
X67983311Y-101868716D01*
X67984000Y-101864368D01*
X67984000Y-101675631D01*
X67954477Y-101489236D01*
X67954477Y-101489233D01*
X67896157Y-101309744D01*
X67810477Y-101141587D01*
X67699546Y-100988904D01*
X67566096Y-100855454D01*
X67413413Y-100744523D01*
X67245260Y-100658844D01*
X67195825Y-100642781D01*
X67118530Y-100617667D01*
X67060857Y-100578230D01*
X67033659Y-100513871D01*
X67045574Y-100445025D01*
X67092818Y-100393549D01*
X67118534Y-100381806D01*
X67245058Y-100340696D01*
X67245064Y-100340694D01*
X67413151Y-100255048D01*
X67438255Y-100236808D01*
X67438256Y-100236808D01*
X66869095Y-99667647D01*
X66956571Y-99644208D01*
X67057930Y-99585689D01*
X67140689Y-99502930D01*
X67199208Y-99401571D01*
X67222647Y-99314095D01*
X67791808Y-99883256D01*
X67791808Y-99883255D01*
X67810048Y-99858151D01*
X67895694Y-99690064D01*
X67895695Y-99690061D01*
X67953988Y-99510650D01*
X67983500Y-99324323D01*
X67983500Y-99135676D01*
X67953988Y-98949349D01*
X67895695Y-98769938D01*
X67895694Y-98769935D01*
X67810046Y-98601844D01*
X67791809Y-98576743D01*
X67791808Y-98576743D01*
X67222647Y-99145904D01*
X67199208Y-99058429D01*
X67140689Y-98957070D01*
X67057930Y-98874311D01*
X66956571Y-98815792D01*
X66869094Y-98792352D01*
X67438255Y-98223190D01*
X67438255Y-98223189D01*
X67413153Y-98204952D01*
X67245063Y-98119305D01*
X67245061Y-98119304D01*
X67065650Y-98061011D01*
X66879323Y-98031500D01*
X66690677Y-98031500D01*
X66504349Y-98061011D01*
X66324938Y-98119304D01*
X66324936Y-98119305D01*
X66156844Y-98204953D01*
X66156839Y-98204957D01*
X66131743Y-98223188D01*
X66131743Y-98223191D01*
X66700906Y-98792352D01*
X66613429Y-98815792D01*
X66512070Y-98874311D01*
X66429311Y-98957070D01*
X66370792Y-99058429D01*
X66347352Y-99145905D01*
X65778191Y-98576743D01*
X65778188Y-98576743D01*
X65759957Y-98601839D01*
X65759953Y-98601844D01*
X65674305Y-98769936D01*
X65674304Y-98769938D01*
X65616011Y-98949349D01*
X65586500Y-99135676D01*
X65586500Y-99324323D01*
X65616011Y-99510650D01*
X65674304Y-99690061D01*
X65674305Y-99690063D01*
X65759952Y-99858153D01*
X65778189Y-99883255D01*
X65778190Y-99883255D01*
X66347352Y-99314093D01*
X66370792Y-99401571D01*
X66429311Y-99502930D01*
X66512070Y-99585689D01*
X66613429Y-99644208D01*
X66700905Y-99667647D01*
X66131743Y-100236808D01*
X66131743Y-100236809D01*
X66156844Y-100255046D01*
X66324935Y-100340694D01*
X66324938Y-100340695D01*
X66451466Y-100381806D01*
X66509141Y-100421243D01*
X66536340Y-100485602D01*
X66524426Y-100554448D01*
X66477182Y-100605924D01*
X66451467Y-100617668D01*
X66324739Y-100658844D01*
X66156586Y-100744523D01*
X66069475Y-100807813D01*
X66003904Y-100855454D01*
X66003902Y-100855456D01*
X66003901Y-100855456D01*
X65870456Y-100988901D01*
X65870456Y-100988902D01*
X65870454Y-100988904D01*
X65822813Y-101054475D01*
X65759523Y-101141586D01*
X65673844Y-101309741D01*
X65615522Y-101489236D01*
X65586000Y-101675631D01*
X52500000Y-101675631D01*
X52500000Y-94051324D01*
X60451200Y-94051324D01*
X60451200Y-94248676D01*
X60466117Y-94342858D01*
X60482073Y-94443600D01*
X60482073Y-94443603D01*
X60543056Y-94631289D01*
X60543058Y-94631292D01*
X60632654Y-94807134D01*
X60748655Y-94966796D01*
X60888204Y-95106345D01*
X61047866Y-95222346D01*
X61179993Y-95289668D01*
X61223710Y-95311943D01*
X61411397Y-95372926D01*
X61411398Y-95372926D01*
X61411401Y-95372927D01*
X61606324Y-95403800D01*
X61606325Y-95403800D01*
X61803675Y-95403800D01*
X61803676Y-95403800D01*
X61998599Y-95372927D01*
X61998602Y-95372926D01*
X61998603Y-95372926D01*
X62186289Y-95311943D01*
X62186289Y-95311942D01*
X62186292Y-95311942D01*
X62362134Y-95222346D01*
X62521796Y-95106345D01*
X62661345Y-94966796D01*
X62777346Y-94807134D01*
X62866942Y-94631292D01*
X62927927Y-94443599D01*
X62958800Y-94248676D01*
X62958800Y-94051324D01*
X62927927Y-93856401D01*
X62927926Y-93856397D01*
X62927926Y-93856396D01*
X62866943Y-93668710D01*
X62844145Y-93623966D01*
X62777346Y-93492866D01*
X62661345Y-93333204D01*
X62521796Y-93193655D01*
X62362134Y-93077654D01*
X62360601Y-93076873D01*
X62186289Y-92988056D01*
X61998602Y-92927073D01*
X61852406Y-92903918D01*
X61803676Y-92896200D01*
X61606324Y-92896200D01*
X61541349Y-92906491D01*
X61411399Y-92927073D01*
X61411396Y-92927073D01*
X61223710Y-92988056D01*
X61047865Y-93077654D01*
X60888201Y-93193657D01*
X60748657Y-93333201D01*
X60632654Y-93492865D01*
X60543056Y-93668710D01*
X60482073Y-93856396D01*
X60482073Y-93856399D01*
X60476465Y-93891808D01*
X60451200Y-94051324D01*
X52500000Y-94051324D01*
X52500000Y-86373626D01*
X80072094Y-86373626D01*
X80072094Y-86629485D01*
X80112120Y-86882196D01*
X80191182Y-87125528D01*
X80191183Y-87125531D01*
X80307344Y-87353506D01*
X80457726Y-87560491D01*
X80457730Y-87560496D01*
X80638653Y-87741419D01*
X80638658Y-87741423D01*
X80845647Y-87891808D01*
X80849799Y-87894353D01*
X80849022Y-87895620D01*
X80895003Y-87939058D01*
X80911791Y-88006881D01*
X80889245Y-88073013D01*
X80849172Y-88107736D01*
X80849799Y-88108759D01*
X80845647Y-88111303D01*
X80638658Y-88261688D01*
X80638653Y-88261692D01*
X80457730Y-88442615D01*
X80457726Y-88442620D01*
X80307344Y-88649605D01*
X80191183Y-88877580D01*
X80191182Y-88877583D01*
X80112120Y-89120915D01*
X80072094Y-89373626D01*
X80072094Y-89629485D01*
X80112120Y-89882196D01*
X80191182Y-90125528D01*
X80191183Y-90125531D01*
X80307344Y-90353506D01*
X80457726Y-90560491D01*
X80457730Y-90560496D01*
X80638653Y-90741419D01*
X80638658Y-90741423D01*
X80845647Y-90891808D01*
X80849799Y-90894353D01*
X80849022Y-90895620D01*
X80895003Y-90939058D01*
X80911791Y-91006881D01*
X80889245Y-91073013D01*
X80849172Y-91107736D01*
X80849799Y-91108759D01*
X80845647Y-91111303D01*
X80638658Y-91261688D01*
X80638653Y-91261692D01*
X80457730Y-91442615D01*
X80457726Y-91442620D01*
X80307344Y-91649605D01*
X80191183Y-91877580D01*
X80191182Y-91877583D01*
X80112120Y-92120915D01*
X80082436Y-92308329D01*
X80072094Y-92373626D01*
X80072094Y-92629486D01*
X80077778Y-92665370D01*
X80112120Y-92882196D01*
X80191182Y-93125528D01*
X80191183Y-93125531D01*
X80307344Y-93353506D01*
X80457726Y-93560491D01*
X80457730Y-93560496D01*
X80638653Y-93741419D01*
X80638658Y-93741423D01*
X80787594Y-93849630D01*
X80845647Y-93891808D01*
X80994674Y-93967741D01*
X81073618Y-94007966D01*
X81073621Y-94007967D01*
X81195287Y-94047498D01*
X81316955Y-94087030D01*
X81569664Y-94127056D01*
X81569665Y-94127056D01*
X81825523Y-94127056D01*
X81825524Y-94127056D01*
X82078233Y-94087030D01*
X82321569Y-94007966D01*
X82549541Y-93891808D01*
X82756536Y-93741418D01*
X82937456Y-93560498D01*
X83087846Y-93353503D01*
X83204004Y-93125531D01*
X83283068Y-92882195D01*
X83323094Y-92629486D01*
X83323094Y-92373626D01*
X83283068Y-92120917D01*
X83204004Y-91877581D01*
X83204004Y-91877580D01*
X83163779Y-91798636D01*
X83087846Y-91649609D01*
X83068632Y-91623163D01*
X82937461Y-91442620D01*
X82937457Y-91442615D01*
X82756534Y-91261692D01*
X82756529Y-91261688D01*
X82549540Y-91111303D01*
X82545389Y-91108759D01*
X82546167Y-91107488D01*
X82500192Y-91064069D01*
X82483396Y-90996248D01*
X82505932Y-90930113D01*
X82546017Y-90895378D01*
X82545389Y-90894353D01*
X82549535Y-90891811D01*
X82549541Y-90891808D01*
X82756536Y-90741418D01*
X82937456Y-90560498D01*
X83087846Y-90353503D01*
X83204004Y-90125531D01*
X83283068Y-89882195D01*
X83323094Y-89629486D01*
X83323094Y-89373626D01*
X83283068Y-89120917D01*
X83204004Y-88877581D01*
X83204004Y-88877580D01*
X83163779Y-88798636D01*
X83087846Y-88649609D01*
X83068632Y-88623163D01*
X82937461Y-88442620D01*
X82937457Y-88442615D01*
X82756534Y-88261692D01*
X82756529Y-88261688D01*
X82549540Y-88111303D01*
X82545389Y-88108759D01*
X82546167Y-88107488D01*
X82500192Y-88064069D01*
X82483396Y-87996248D01*
X82505932Y-87930113D01*
X82546017Y-87895378D01*
X82545389Y-87894353D01*
X82549535Y-87891811D01*
X82549541Y-87891808D01*
X82756536Y-87741418D01*
X82937456Y-87560498D01*
X83087846Y-87353503D01*
X83204004Y-87125531D01*
X83283068Y-86882195D01*
X83323094Y-86629486D01*
X83323094Y-86373626D01*
X83283068Y-86120917D01*
X83204004Y-85877581D01*
X83204004Y-85877580D01*
X83163779Y-85798636D01*
X83087846Y-85649609D01*
X83052166Y-85600500D01*
X82937461Y-85442620D01*
X82937457Y-85442615D01*
X82756534Y-85261692D01*
X82756529Y-85261688D01*
X82549544Y-85111306D01*
X82549543Y-85111305D01*
X82549541Y-85111304D01*
X82476504Y-85074089D01*
X82321569Y-84995145D01*
X82321566Y-84995144D01*
X82078234Y-84916082D01*
X81951878Y-84896069D01*
X81825524Y-84876056D01*
X81569664Y-84876056D01*
X81485427Y-84889398D01*
X81316953Y-84916082D01*
X81073621Y-84995144D01*
X81073618Y-84995145D01*
X80845643Y-85111306D01*
X80638658Y-85261688D01*
X80638653Y-85261692D01*
X80457730Y-85442615D01*
X80457726Y-85442620D01*
X80307344Y-85649605D01*
X80191183Y-85877580D01*
X80191182Y-85877583D01*
X80112120Y-86120915D01*
X80072094Y-86373626D01*
X52500000Y-86373626D01*
X52500000Y-77581442D01*
X52519685Y-77514403D01*
X52572489Y-77468648D01*
X52641647Y-77458704D01*
X52671456Y-77466882D01*
X52675171Y-77468421D01*
X52862294Y-77529221D01*
X53056618Y-77560000D01*
X53455000Y-77560000D01*
X53455000Y-76743012D01*
X53512007Y-76775925D01*
X53639174Y-76810000D01*
X53770826Y-76810000D01*
X53897993Y-76775925D01*
X53955000Y-76743012D01*
X53955000Y-77560000D01*
X54353382Y-77560000D01*
X54547705Y-77529221D01*
X54734835Y-77468418D01*
X54910143Y-77379095D01*
X55069321Y-77263444D01*
X55208444Y-77124321D01*
X55324095Y-76965143D01*
X55413418Y-76789837D01*
X55474218Y-76602716D01*
X55480984Y-76560000D01*
X54138012Y-76560000D01*
X54170925Y-76502993D01*
X54205000Y-76375826D01*
X54205000Y-76244174D01*
X54170925Y-76117007D01*
X54138012Y-76060000D01*
X55480984Y-76060000D01*
X55474218Y-76017283D01*
X55413418Y-75830162D01*
X55324095Y-75654856D01*
X55208444Y-75495678D01*
X55069321Y-75356555D01*
X54910143Y-75240904D01*
X54734835Y-75151581D01*
X54547705Y-75090778D01*
X54353382Y-75060000D01*
X53955000Y-75060000D01*
X53955000Y-75876988D01*
X53897993Y-75844075D01*
X53770826Y-75810000D01*
X53639174Y-75810000D01*
X53512007Y-75844075D01*
X53455000Y-75876988D01*
X53455000Y-75060000D01*
X53056618Y-75060000D01*
X52862294Y-75090778D01*
X52675166Y-75151580D01*
X52671444Y-75153122D01*
X52601974Y-75160585D01*
X52539497Y-75129305D01*
X52503849Y-75069213D01*
X52500000Y-75038557D01*
X52500000Y-69961442D01*
X52519685Y-69894403D01*
X52572489Y-69848648D01*
X52641647Y-69838704D01*
X52671456Y-69846882D01*
X52675171Y-69848421D01*
X52862294Y-69909221D01*
X53056618Y-69940000D01*
X53455000Y-69940000D01*
X53455000Y-69123012D01*
X53512007Y-69155925D01*
X53639174Y-69190000D01*
X53770826Y-69190000D01*
X53897993Y-69155925D01*
X53955000Y-69123012D01*
X53955000Y-69940000D01*
X54353382Y-69940000D01*
X54547705Y-69909221D01*
X54734835Y-69848418D01*
X54910143Y-69759095D01*
X55069321Y-69643444D01*
X55208444Y-69504321D01*
X55324095Y-69345143D01*
X55413418Y-69169837D01*
X55474218Y-68982716D01*
X55480984Y-68940000D01*
X54138012Y-68940000D01*
X54170925Y-68882993D01*
X54205000Y-68755826D01*
X54205000Y-68624174D01*
X54196265Y-68591577D01*
X59604500Y-68591577D01*
X59604500Y-68788422D01*
X59635290Y-68982826D01*
X59696117Y-69170029D01*
X59718902Y-69214746D01*
X59785476Y-69345405D01*
X59901172Y-69504646D01*
X60040354Y-69643828D01*
X60199595Y-69759524D01*
X60322992Y-69822397D01*
X60376213Y-69849515D01*
X60427009Y-69897489D01*
X60443804Y-69965310D01*
X60421267Y-70031445D01*
X60376213Y-70070485D01*
X60199594Y-70160476D01*
X60108741Y-70226485D01*
X60040354Y-70276172D01*
X60040352Y-70276174D01*
X60040351Y-70276174D01*
X59901174Y-70415351D01*
X59901174Y-70415352D01*
X59901172Y-70415354D01*
X59857024Y-70476118D01*
X59785476Y-70574594D01*
X59696117Y-70749970D01*
X59635290Y-70937173D01*
X59604500Y-71131577D01*
X59604500Y-71328422D01*
X59635290Y-71522826D01*
X59696117Y-71710029D01*
X59785476Y-71885405D01*
X59901172Y-72044646D01*
X60040354Y-72183828D01*
X60159784Y-72270600D01*
X60199596Y-72299525D01*
X60376763Y-72389795D01*
X60427560Y-72437769D01*
X60444355Y-72505590D01*
X60421818Y-72571725D01*
X60376764Y-72610765D01*
X60199856Y-72700904D01*
X60040678Y-72816555D01*
X59901555Y-72955678D01*
X59785904Y-73114856D01*
X59696581Y-73290162D01*
X59635781Y-73477283D01*
X59629016Y-73520000D01*
X60971988Y-73520000D01*
X60939075Y-73577007D01*
X60905000Y-73704174D01*
X60905000Y-73835826D01*
X60939075Y-73962993D01*
X60971988Y-74020000D01*
X59629016Y-74020000D01*
X59635781Y-74062716D01*
X59696581Y-74249837D01*
X59785904Y-74425143D01*
X59901555Y-74584321D01*
X60040678Y-74723444D01*
X60199856Y-74839095D01*
X60376764Y-74929234D01*
X60427560Y-74977208D01*
X60444355Y-75045029D01*
X60421818Y-75111164D01*
X60376764Y-75150204D01*
X60199594Y-75240476D01*
X60108741Y-75306485D01*
X60040354Y-75356172D01*
X60040352Y-75356174D01*
X60040351Y-75356174D01*
X59901174Y-75495351D01*
X59901174Y-75495352D01*
X59901172Y-75495354D01*
X59900937Y-75495678D01*
X59785476Y-75654594D01*
X59696117Y-75829970D01*
X59635290Y-76017173D01*
X59604500Y-76211577D01*
X59604500Y-76408422D01*
X59635290Y-76602826D01*
X59696117Y-76790029D01*
X59785343Y-76965143D01*
X59785476Y-76965405D01*
X59901172Y-77124646D01*
X60040354Y-77263828D01*
X60199595Y-77379524D01*
X60282455Y-77421743D01*
X60374970Y-77468882D01*
X60374972Y-77468882D01*
X60374975Y-77468884D01*
X60475317Y-77501487D01*
X60562173Y-77529709D01*
X60756578Y-77560500D01*
X60756583Y-77560500D01*
X62053422Y-77560500D01*
X62247826Y-77529709D01*
X62276371Y-77520434D01*
X62435025Y-77468884D01*
X62610405Y-77379524D01*
X62769646Y-77263828D01*
X62908828Y-77124646D01*
X63024524Y-76965405D01*
X63113884Y-76790025D01*
X63174709Y-76602826D01*
X63190521Y-76502993D01*
X63205500Y-76408422D01*
X63205500Y-76392515D01*
X80060209Y-76392515D01*
X80060209Y-76648374D01*
X80100235Y-76901085D01*
X80179297Y-77144417D01*
X80179298Y-77144420D01*
X80295459Y-77372395D01*
X80445841Y-77579380D01*
X80445845Y-77579385D01*
X80626768Y-77760308D01*
X80626773Y-77760312D01*
X80833762Y-77910697D01*
X80837914Y-77913242D01*
X80837137Y-77914509D01*
X80883118Y-77957947D01*
X80899906Y-78025770D01*
X80877360Y-78091902D01*
X80837287Y-78126625D01*
X80837914Y-78127648D01*
X80833762Y-78130192D01*
X80626773Y-78280577D01*
X80626768Y-78280581D01*
X80445845Y-78461504D01*
X80445841Y-78461509D01*
X80295459Y-78668494D01*
X80179298Y-78896469D01*
X80179297Y-78896472D01*
X80100235Y-79139804D01*
X80060209Y-79392515D01*
X80060209Y-79648374D01*
X80100235Y-79901085D01*
X80179297Y-80144417D01*
X80179298Y-80144420D01*
X80295459Y-80372395D01*
X80445841Y-80579380D01*
X80445845Y-80579385D01*
X80626768Y-80760308D01*
X80626773Y-80760312D01*
X80833762Y-80910697D01*
X80837914Y-80913242D01*
X80837137Y-80914509D01*
X80883118Y-80957947D01*
X80899906Y-81025770D01*
X80877360Y-81091902D01*
X80837287Y-81126625D01*
X80837914Y-81127648D01*
X80833762Y-81130192D01*
X80626773Y-81280577D01*
X80626768Y-81280581D01*
X80445845Y-81461504D01*
X80445841Y-81461509D01*
X80295459Y-81668494D01*
X80179298Y-81896469D01*
X80179297Y-81896472D01*
X80100235Y-82139804D01*
X80060209Y-82392515D01*
X80060209Y-82648374D01*
X80100235Y-82901085D01*
X80179297Y-83144417D01*
X80179298Y-83144420D01*
X80295459Y-83372395D01*
X80445841Y-83579380D01*
X80445845Y-83579385D01*
X80626768Y-83760308D01*
X80626773Y-83760312D01*
X80807316Y-83891483D01*
X80833762Y-83910697D01*
X80935266Y-83962416D01*
X81061733Y-84026855D01*
X81061736Y-84026856D01*
X81133266Y-84050097D01*
X81305070Y-84105919D01*
X81557779Y-84145945D01*
X81557780Y-84145945D01*
X81813638Y-84145945D01*
X81813639Y-84145945D01*
X82066348Y-84105919D01*
X82309684Y-84026855D01*
X82537656Y-83910697D01*
X82744651Y-83760307D01*
X82925571Y-83579387D01*
X83075961Y-83372392D01*
X83169583Y-83188648D01*
X83217557Y-83137854D01*
X83280067Y-83120945D01*
X84470348Y-83120945D01*
X84537387Y-83140630D01*
X84558029Y-83157264D01*
X85363181Y-83962416D01*
X85396666Y-84023739D01*
X85399500Y-84050097D01*
X85399500Y-86913330D01*
X85399499Y-86913348D01*
X85399499Y-87079054D01*
X85399498Y-87079054D01*
X85440423Y-87231785D01*
X85469358Y-87281900D01*
X85469359Y-87281904D01*
X85469360Y-87281904D01*
X85519479Y-87368714D01*
X85519481Y-87368717D01*
X85638349Y-87487585D01*
X85638355Y-87487590D01*
X101515139Y-103364374D01*
X101515149Y-103364385D01*
X101519479Y-103368715D01*
X101519480Y-103368716D01*
X101631284Y-103480520D01*
X101718095Y-103530639D01*
X101718097Y-103530641D01*
X101739871Y-103543212D01*
X101768215Y-103559577D01*
X101920943Y-103600501D01*
X101920946Y-103600501D01*
X102086653Y-103600501D01*
X102086669Y-103600500D01*
X104199903Y-103600500D01*
X104266942Y-103620185D01*
X104287584Y-103636819D01*
X106015139Y-105364374D01*
X106015149Y-105364385D01*
X106019479Y-105368715D01*
X106019480Y-105368716D01*
X106131284Y-105480520D01*
X106218095Y-105530639D01*
X106268215Y-105559577D01*
X106272896Y-105560831D01*
X106283923Y-105566912D01*
X106303857Y-105587013D01*
X106325898Y-105604772D01*
X106328135Y-105611492D01*
X106333123Y-105616522D01*
X106339024Y-105644205D01*
X106347966Y-105671065D01*
X106346214Y-105677929D01*
X106347691Y-105684856D01*
X106337689Y-105711335D01*
X106330690Y-105738765D01*
X106324148Y-105747186D01*
X106323003Y-105750219D01*
X106320145Y-105752339D01*
X106311727Y-105763177D01*
X106258749Y-105816155D01*
X106258745Y-105816160D01*
X106173327Y-105943996D01*
X106173326Y-105943998D01*
X106114494Y-106086034D01*
X106114491Y-106086043D01*
X106084500Y-106236822D01*
X106084500Y-106390577D01*
X106087831Y-106407321D01*
X106114494Y-106541364D01*
X106148617Y-106623745D01*
X106156085Y-106693214D01*
X106124809Y-106755693D01*
X106099152Y-106776734D01*
X105946347Y-106870985D01*
X105946343Y-106870988D01*
X105822289Y-106995042D01*
X105730187Y-107144363D01*
X105730185Y-107144368D01*
X105712706Y-107197118D01*
X105672933Y-107254563D01*
X105608417Y-107281386D01*
X105539641Y-107269071D01*
X105488442Y-107221528D01*
X105477294Y-107197118D01*
X105459814Y-107144366D01*
X105367712Y-106995044D01*
X105243656Y-106870988D01*
X105094334Y-106778886D01*
X105090847Y-106776735D01*
X105044123Y-106724787D01*
X105032900Y-106655824D01*
X105041381Y-106623749D01*
X105075506Y-106541364D01*
X105105500Y-106390573D01*
X105105500Y-106236827D01*
X105105232Y-106235482D01*
X105075508Y-106086043D01*
X105075505Y-106086034D01*
X105016673Y-105943998D01*
X105016672Y-105943996D01*
X104931254Y-105816160D01*
X104931251Y-105816156D01*
X104822543Y-105707448D01*
X104822539Y-105707445D01*
X104694703Y-105622027D01*
X104694701Y-105622026D01*
X104552665Y-105563194D01*
X104552656Y-105563191D01*
X104401877Y-105533200D01*
X104401873Y-105533200D01*
X104248127Y-105533200D01*
X104248122Y-105533200D01*
X104097343Y-105563191D01*
X104097334Y-105563194D01*
X103955298Y-105622026D01*
X103955296Y-105622027D01*
X103827460Y-105707445D01*
X103827456Y-105707448D01*
X103718748Y-105816156D01*
X103718745Y-105816160D01*
X103633327Y-105943996D01*
X103633326Y-105943998D01*
X103574494Y-106086034D01*
X103574491Y-106086043D01*
X103544500Y-106236822D01*
X103544500Y-106390577D01*
X103547831Y-106407321D01*
X103574494Y-106541364D01*
X103608617Y-106623745D01*
X103616085Y-106693214D01*
X103584809Y-106755693D01*
X103559152Y-106776734D01*
X103406347Y-106870985D01*
X103406343Y-106870988D01*
X103282289Y-106995042D01*
X103190187Y-107144363D01*
X103190186Y-107144366D01*
X103135001Y-107310903D01*
X103135001Y-107310904D01*
X103135000Y-107310904D01*
X103124500Y-107413683D01*
X103124500Y-108213701D01*
X103124501Y-108213719D01*
X103135000Y-108316496D01*
X103135001Y-108316499D01*
X103190185Y-108483031D01*
X103190187Y-108483036D01*
X103282289Y-108632357D01*
X103376304Y-108726372D01*
X103409789Y-108787695D01*
X103404805Y-108857387D01*
X103376305Y-108901734D01*
X103282682Y-108995357D01*
X103190643Y-109144575D01*
X103190641Y-109144580D01*
X103135494Y-109311002D01*
X103135493Y-109311009D01*
X103125000Y-109413713D01*
X103125000Y-109563700D01*
X105539695Y-109563700D01*
X105568638Y-109547895D01*
X105638329Y-109552878D01*
X105655169Y-109563700D01*
X108079695Y-109563700D01*
X108108638Y-109547895D01*
X108178329Y-109552878D01*
X108195169Y-109563700D01*
X110619695Y-109563700D01*
X110648638Y-109547895D01*
X110718329Y-109552878D01*
X110735169Y-109563700D01*
X113144999Y-109563700D01*
X113144999Y-109413728D01*
X113144998Y-109413713D01*
X113134505Y-109311002D01*
X113079358Y-109144580D01*
X113079356Y-109144575D01*
X112987315Y-108995354D01*
X112893695Y-108901734D01*
X112860210Y-108840411D01*
X112865194Y-108770719D01*
X112893691Y-108726376D01*
X112987712Y-108632356D01*
X113079814Y-108483034D01*
X113134999Y-108316497D01*
X113145500Y-108213709D01*
X113145499Y-107413692D01*
X113134999Y-107310903D01*
X113079814Y-107144366D01*
X112987712Y-106995044D01*
X112863656Y-106870988D01*
X112714334Y-106778886D01*
X112710847Y-106776735D01*
X112664123Y-106724787D01*
X112652900Y-106655824D01*
X112661381Y-106623749D01*
X112695506Y-106541364D01*
X112725500Y-106390573D01*
X112725500Y-106236827D01*
X112725232Y-106235482D01*
X112695508Y-106086043D01*
X112695505Y-106086034D01*
X112636673Y-105943998D01*
X112636672Y-105943996D01*
X112551254Y-105816160D01*
X112551251Y-105816156D01*
X112442543Y-105707448D01*
X112442539Y-105707445D01*
X112314703Y-105622027D01*
X112314701Y-105622026D01*
X112172665Y-105563194D01*
X112172656Y-105563191D01*
X112021877Y-105533200D01*
X112021873Y-105533200D01*
X111868127Y-105533200D01*
X111868122Y-105533200D01*
X111717343Y-105563191D01*
X111717334Y-105563194D01*
X111575298Y-105622026D01*
X111575296Y-105622027D01*
X111447460Y-105707445D01*
X111447456Y-105707448D01*
X111338748Y-105816156D01*
X111338745Y-105816160D01*
X111253327Y-105943996D01*
X111253326Y-105943998D01*
X111194494Y-106086034D01*
X111194491Y-106086043D01*
X111164500Y-106236822D01*
X111164500Y-106390577D01*
X111167831Y-106407321D01*
X111194494Y-106541364D01*
X111228617Y-106623745D01*
X111236085Y-106693214D01*
X111204809Y-106755693D01*
X111179152Y-106776734D01*
X111026347Y-106870985D01*
X111026343Y-106870988D01*
X110902289Y-106995042D01*
X110810187Y-107144363D01*
X110810185Y-107144368D01*
X110792706Y-107197118D01*
X110752933Y-107254563D01*
X110688417Y-107281386D01*
X110619641Y-107269071D01*
X110568442Y-107221528D01*
X110557294Y-107197118D01*
X110539814Y-107144366D01*
X110447712Y-106995044D01*
X110323656Y-106870988D01*
X110174334Y-106778886D01*
X110170847Y-106776735D01*
X110124123Y-106724787D01*
X110112900Y-106655824D01*
X110121381Y-106623749D01*
X110155506Y-106541364D01*
X110185500Y-106390573D01*
X110185500Y-106236827D01*
X110185232Y-106235482D01*
X110155508Y-106086043D01*
X110155505Y-106086034D01*
X110096673Y-105943998D01*
X110096672Y-105943996D01*
X110011254Y-105816160D01*
X110011251Y-105816156D01*
X109902543Y-105707448D01*
X109902539Y-105707445D01*
X109774703Y-105622027D01*
X109774701Y-105622026D01*
X109632665Y-105563194D01*
X109632657Y-105563192D01*
X109508604Y-105538516D01*
X109446693Y-105506131D01*
X109445115Y-105504580D01*
X108578890Y-104638355D01*
X108578888Y-104638352D01*
X108460017Y-104519481D01*
X108460016Y-104519480D01*
X108373204Y-104469360D01*
X108373204Y-104469359D01*
X108373200Y-104469358D01*
X108323085Y-104440423D01*
X108170357Y-104399499D01*
X108012243Y-104399499D01*
X108004647Y-104399499D01*
X108004631Y-104399500D01*
X107503657Y-104399500D01*
X107436618Y-104379815D01*
X107390863Y-104327011D01*
X107380919Y-104257853D01*
X107409944Y-104194297D01*
X107415976Y-104187819D01*
X107471251Y-104132543D01*
X107471254Y-104132540D01*
X107556671Y-104004706D01*
X107615506Y-103862664D01*
X107619874Y-103840707D01*
X107645499Y-103711877D01*
X107645500Y-103711874D01*
X107645500Y-103558126D01*
X107645499Y-103558122D01*
X107615508Y-103407343D01*
X107615505Y-103407334D01*
X107556673Y-103265298D01*
X107556672Y-103265296D01*
X107471254Y-103137460D01*
X107471251Y-103137456D01*
X107362543Y-103028748D01*
X107362539Y-103028745D01*
X107302696Y-102988759D01*
X107234706Y-102943329D01*
X107234703Y-102943327D01*
X107234699Y-102943325D01*
X107092665Y-102884494D01*
X107092657Y-102884492D01*
X106973702Y-102860830D01*
X108370901Y-102860830D01*
X108370901Y-103116689D01*
X108410927Y-103369400D01*
X108489989Y-103612732D01*
X108489990Y-103612735D01*
X108555383Y-103741073D01*
X108606148Y-103840706D01*
X108606151Y-103840710D01*
X108756533Y-104047695D01*
X108756537Y-104047700D01*
X108937460Y-104228623D01*
X108937465Y-104228627D01*
X109072412Y-104326671D01*
X109144454Y-104379012D01*
X109293481Y-104454945D01*
X109372425Y-104495170D01*
X109372428Y-104495171D01*
X109447242Y-104519479D01*
X109615762Y-104574234D01*
X109868471Y-104614260D01*
X109868472Y-104614260D01*
X110124330Y-104614260D01*
X110124331Y-104614260D01*
X110377040Y-104574234D01*
X110620376Y-104495170D01*
X110848348Y-104379012D01*
X111055343Y-104228622D01*
X111236263Y-104047702D01*
X111386653Y-103840707D01*
X111386656Y-103840701D01*
X111389198Y-103836555D01*
X111390323Y-103837244D01*
X111434137Y-103790826D01*
X111501953Y-103774010D01*
X111568095Y-103796528D01*
X111603075Y-103836879D01*
X111604031Y-103836294D01*
X111606571Y-103840439D01*
X111684251Y-103947355D01*
X111684251Y-103947356D01*
X112435870Y-103195736D01*
X112441949Y-103218421D01*
X112520283Y-103354098D01*
X112631063Y-103464878D01*
X112766740Y-103543212D01*
X112789423Y-103549289D01*
X112037803Y-104300908D01*
X112144714Y-104378584D01*
X112372616Y-104494707D01*
X112372619Y-104494708D01*
X112615877Y-104573746D01*
X112868512Y-104613760D01*
X113124290Y-104613760D01*
X113376924Y-104573746D01*
X113620182Y-104494708D01*
X113620185Y-104494707D01*
X113848086Y-104378585D01*
X113954996Y-104300908D01*
X113954997Y-104300908D01*
X113203378Y-103549290D01*
X113226062Y-103543212D01*
X113361739Y-103464878D01*
X113472519Y-103354098D01*
X113550853Y-103218421D01*
X113556930Y-103195737D01*
X114308549Y-103947356D01*
X114308549Y-103947355D01*
X114386226Y-103840445D01*
X114502348Y-103612544D01*
X114502349Y-103612541D01*
X114581387Y-103369283D01*
X114621401Y-103116649D01*
X114621401Y-102860870D01*
X114581387Y-102608236D01*
X114502349Y-102364978D01*
X114502348Y-102364975D01*
X114386225Y-102137073D01*
X114308549Y-102030163D01*
X114308549Y-102030162D01*
X113556930Y-102781781D01*
X113550853Y-102759099D01*
X113472519Y-102623422D01*
X113361739Y-102512642D01*
X113226062Y-102434308D01*
X113203376Y-102428229D01*
X113954997Y-101676610D01*
X113848087Y-101598935D01*
X113620185Y-101482812D01*
X113620182Y-101482811D01*
X113376924Y-101403773D01*
X113124290Y-101363760D01*
X112868512Y-101363760D01*
X112615877Y-101403773D01*
X112372619Y-101482811D01*
X112372616Y-101482812D01*
X112144711Y-101598937D01*
X112037804Y-101676609D01*
X112037803Y-101676610D01*
X112789423Y-102428229D01*
X112766740Y-102434308D01*
X112631063Y-102512642D01*
X112520283Y-102623422D01*
X112441949Y-102759099D01*
X112435870Y-102781782D01*
X111684251Y-102030162D01*
X111684250Y-102030163D01*
X111606575Y-102137074D01*
X111604031Y-102141226D01*
X111602846Y-102140500D01*
X111559159Y-102186730D01*
X111491333Y-102203506D01*
X111425205Y-102180949D01*
X111390098Y-102140413D01*
X111389198Y-102140965D01*
X111386653Y-102136813D01*
X111236268Y-101929824D01*
X111236264Y-101929819D01*
X111055341Y-101748896D01*
X111055336Y-101748892D01*
X110848351Y-101598510D01*
X110848350Y-101598509D01*
X110848348Y-101598508D01*
X110775311Y-101561293D01*
X110620376Y-101482349D01*
X110620373Y-101482348D01*
X110377041Y-101403286D01*
X110250685Y-101383273D01*
X110124331Y-101363260D01*
X109868471Y-101363260D01*
X109784234Y-101376602D01*
X109615760Y-101403286D01*
X109372428Y-101482348D01*
X109372425Y-101482349D01*
X109144450Y-101598510D01*
X108937465Y-101748892D01*
X108937460Y-101748896D01*
X108756537Y-101929819D01*
X108756533Y-101929824D01*
X108606151Y-102136809D01*
X108489990Y-102364784D01*
X108489989Y-102364787D01*
X108410927Y-102608119D01*
X108370901Y-102860830D01*
X106973702Y-102860830D01*
X106968604Y-102859816D01*
X106906693Y-102827431D01*
X106905115Y-102825880D01*
X105217590Y-101138355D01*
X105217588Y-101138352D01*
X105098717Y-101019481D01*
X105098716Y-101019480D01*
X105011904Y-100969360D01*
X105011904Y-100969359D01*
X105011900Y-100969358D01*
X104961785Y-100940423D01*
X104809057Y-100899499D01*
X104650943Y-100899499D01*
X104643347Y-100899499D01*
X104643331Y-100899500D01*
X102800097Y-100899500D01*
X102733058Y-100879815D01*
X102712416Y-100863181D01*
X91310695Y-89461460D01*
X91277210Y-89400137D01*
X91282194Y-89330445D01*
X91324066Y-89274512D01*
X91389530Y-89250095D01*
X91457803Y-89264947D01*
X91471261Y-89273461D01*
X91549694Y-89330445D01*
X91632012Y-89390252D01*
X91771765Y-89461460D01*
X91859983Y-89506410D01*
X91859986Y-89506411D01*
X91981652Y-89545942D01*
X92103320Y-89585474D01*
X92356029Y-89625500D01*
X92356030Y-89625500D01*
X92611888Y-89625500D01*
X92611889Y-89625500D01*
X92864598Y-89585474D01*
X93107934Y-89506410D01*
X93335906Y-89390252D01*
X93542901Y-89239862D01*
X93723821Y-89058942D01*
X93874211Y-88851947D01*
X93990369Y-88623975D01*
X94069433Y-88380639D01*
X94109459Y-88127930D01*
X94109459Y-87872070D01*
X94069433Y-87619361D01*
X93990369Y-87376025D01*
X93990369Y-87376024D01*
X93942410Y-87281900D01*
X93874211Y-87148053D01*
X93824081Y-87079054D01*
X93723826Y-86941064D01*
X93723822Y-86941059D01*
X93542899Y-86760136D01*
X93542894Y-86760132D01*
X93335905Y-86609747D01*
X93331754Y-86607203D01*
X93332532Y-86605932D01*
X93286557Y-86562513D01*
X93269761Y-86494692D01*
X93292297Y-86428557D01*
X93332382Y-86393822D01*
X93331754Y-86392797D01*
X93335900Y-86390255D01*
X93335906Y-86390252D01*
X93542901Y-86239862D01*
X93723821Y-86058942D01*
X93874211Y-85851947D01*
X93967833Y-85668203D01*
X94015807Y-85617409D01*
X94078317Y-85600500D01*
X98699903Y-85600500D01*
X98766942Y-85620185D01*
X98787584Y-85636819D01*
X106190880Y-93040115D01*
X106224365Y-93101438D01*
X106224816Y-93103604D01*
X106249492Y-93227657D01*
X106249494Y-93227665D01*
X106308326Y-93369701D01*
X106308327Y-93369703D01*
X106378602Y-93474876D01*
X106399480Y-93541553D01*
X106399500Y-93543767D01*
X106399500Y-98456232D01*
X106379815Y-98523271D01*
X106378602Y-98525122D01*
X106308330Y-98630291D01*
X106308326Y-98630298D01*
X106249494Y-98772334D01*
X106249491Y-98772343D01*
X106219500Y-98923122D01*
X106219500Y-99076877D01*
X106249491Y-99227656D01*
X106249494Y-99227665D01*
X106308326Y-99369701D01*
X106308327Y-99369703D01*
X106393745Y-99497539D01*
X106393748Y-99497543D01*
X106502456Y-99606251D01*
X106502460Y-99606254D01*
X106630294Y-99691671D01*
X106630295Y-99691671D01*
X106630296Y-99691672D01*
X106630298Y-99691673D01*
X106724988Y-99730894D01*
X106772336Y-99750506D01*
X106772338Y-99750506D01*
X106772343Y-99750508D01*
X106923122Y-99780499D01*
X106923126Y-99780500D01*
X106923127Y-99780500D01*
X107076874Y-99780500D01*
X107076875Y-99780499D01*
X107127136Y-99770502D01*
X107227656Y-99750508D01*
X107227659Y-99750506D01*
X107227664Y-99750506D01*
X107369706Y-99691671D01*
X107497540Y-99606254D01*
X107606254Y-99497540D01*
X107691671Y-99369706D01*
X107750506Y-99227664D01*
X107780500Y-99076873D01*
X107780500Y-98923127D01*
X107770790Y-98874311D01*
X107750508Y-98772343D01*
X107750505Y-98772334D01*
X107691673Y-98630298D01*
X107691669Y-98630291D01*
X107621398Y-98525122D01*
X107615747Y-98507077D01*
X107605523Y-98491167D01*
X107601071Y-98460205D01*
X107600520Y-98458445D01*
X107600500Y-98456232D01*
X107600500Y-98349590D01*
X108367302Y-98349590D01*
X108367302Y-98605449D01*
X108407328Y-98858160D01*
X108486390Y-99101492D01*
X108486391Y-99101495D01*
X108550679Y-99227665D01*
X108602549Y-99329466D01*
X108602552Y-99329470D01*
X108752934Y-99536455D01*
X108752938Y-99536460D01*
X108933861Y-99717383D01*
X108933866Y-99717387D01*
X109114409Y-99848558D01*
X109140855Y-99867772D01*
X109289882Y-99943705D01*
X109368826Y-99983930D01*
X109368829Y-99983931D01*
X109490495Y-100023462D01*
X109612163Y-100062994D01*
X109864872Y-100103020D01*
X109864873Y-100103020D01*
X110120731Y-100103020D01*
X110120732Y-100103020D01*
X110373441Y-100062994D01*
X110616777Y-99983930D01*
X110844749Y-99867772D01*
X111051744Y-99717382D01*
X111232664Y-99536462D01*
X111383054Y-99329467D01*
X111383057Y-99329461D01*
X111385599Y-99325315D01*
X111386724Y-99326004D01*
X111430538Y-99279586D01*
X111498354Y-99262770D01*
X111564496Y-99285288D01*
X111599476Y-99325639D01*
X111600432Y-99325054D01*
X111602970Y-99329196D01*
X111680652Y-99436115D01*
X111680652Y-99436116D01*
X112432271Y-98684496D01*
X112438350Y-98707181D01*
X112516684Y-98842858D01*
X112627464Y-98953638D01*
X112763141Y-99031972D01*
X112785824Y-99038049D01*
X112034204Y-99789668D01*
X112141115Y-99867344D01*
X112369017Y-99983467D01*
X112369020Y-99983468D01*
X112612278Y-100062506D01*
X112864913Y-100102520D01*
X113120691Y-100102520D01*
X113373325Y-100062506D01*
X113616583Y-99983468D01*
X113616586Y-99983467D01*
X113844487Y-99867345D01*
X113951397Y-99789668D01*
X113951398Y-99789668D01*
X113199779Y-99038050D01*
X113222463Y-99031972D01*
X113358140Y-98953638D01*
X113468920Y-98842858D01*
X113547254Y-98707181D01*
X113553331Y-98684497D01*
X114304950Y-99436116D01*
X114304950Y-99436115D01*
X114382627Y-99329205D01*
X114498749Y-99101304D01*
X114498750Y-99101301D01*
X114577788Y-98858043D01*
X114617802Y-98605409D01*
X114617802Y-98349630D01*
X114577788Y-98096996D01*
X114498750Y-97853738D01*
X114498749Y-97853735D01*
X114382626Y-97625833D01*
X114304950Y-97518923D01*
X114304950Y-97518922D01*
X113553331Y-98270541D01*
X113547254Y-98247859D01*
X113468920Y-98112182D01*
X113358140Y-98001402D01*
X113222463Y-97923068D01*
X113199777Y-97916989D01*
X113951398Y-97165370D01*
X113844488Y-97087695D01*
X113616586Y-96971572D01*
X113616583Y-96971571D01*
X113373325Y-96892533D01*
X113120691Y-96852520D01*
X112864913Y-96852520D01*
X112612278Y-96892533D01*
X112369020Y-96971571D01*
X112369017Y-96971572D01*
X112141112Y-97087697D01*
X112034205Y-97165369D01*
X112034204Y-97165370D01*
X112785824Y-97916989D01*
X112763141Y-97923068D01*
X112627464Y-98001402D01*
X112516684Y-98112182D01*
X112438350Y-98247859D01*
X112432271Y-98270542D01*
X111680652Y-97518922D01*
X111680651Y-97518923D01*
X111602976Y-97625834D01*
X111600432Y-97629986D01*
X111599247Y-97629260D01*
X111555560Y-97675490D01*
X111487734Y-97692266D01*
X111421606Y-97669709D01*
X111386499Y-97629173D01*
X111385599Y-97629725D01*
X111383054Y-97625573D01*
X111232669Y-97418584D01*
X111232665Y-97418579D01*
X111051742Y-97237656D01*
X111051737Y-97237652D01*
X110844752Y-97087270D01*
X110844751Y-97087269D01*
X110844749Y-97087268D01*
X110771712Y-97050053D01*
X110616777Y-96971109D01*
X110616774Y-96971108D01*
X110373442Y-96892046D01*
X110247086Y-96872033D01*
X110120732Y-96852020D01*
X109864872Y-96852020D01*
X109780635Y-96865362D01*
X109612161Y-96892046D01*
X109368829Y-96971108D01*
X109368826Y-96971109D01*
X109140851Y-97087270D01*
X108933866Y-97237652D01*
X108933861Y-97237656D01*
X108752938Y-97418579D01*
X108752934Y-97418584D01*
X108602552Y-97625569D01*
X108486391Y-97853544D01*
X108486390Y-97853547D01*
X108407328Y-98096879D01*
X108367302Y-98349590D01*
X107600500Y-98349590D01*
X107600500Y-93849590D01*
X108367302Y-93849590D01*
X108367302Y-94105449D01*
X108407328Y-94358160D01*
X108486390Y-94601492D01*
X108486391Y-94601495D01*
X108501574Y-94631292D01*
X108602549Y-94829466D01*
X108602552Y-94829470D01*
X108752934Y-95036455D01*
X108752938Y-95036460D01*
X108933861Y-95217383D01*
X108933866Y-95217387D01*
X109114409Y-95348558D01*
X109140855Y-95367772D01*
X109289882Y-95443705D01*
X109368826Y-95483930D01*
X109368829Y-95483931D01*
X109490495Y-95523462D01*
X109612163Y-95562994D01*
X109864872Y-95603020D01*
X109864873Y-95603020D01*
X110120731Y-95603020D01*
X110120732Y-95603020D01*
X110373441Y-95562994D01*
X110616777Y-95483930D01*
X110844749Y-95367772D01*
X111051744Y-95217382D01*
X111232664Y-95036462D01*
X111383054Y-94829467D01*
X111383057Y-94829461D01*
X111385599Y-94825315D01*
X111386724Y-94826004D01*
X111430538Y-94779586D01*
X111498354Y-94762770D01*
X111564496Y-94785288D01*
X111599476Y-94825639D01*
X111600432Y-94825054D01*
X111602972Y-94829199D01*
X111680652Y-94936115D01*
X111680652Y-94936116D01*
X112432271Y-94184496D01*
X112438350Y-94207181D01*
X112516684Y-94342858D01*
X112627464Y-94453638D01*
X112763141Y-94531972D01*
X112785824Y-94538049D01*
X112034204Y-95289668D01*
X112141115Y-95367344D01*
X112369017Y-95483467D01*
X112369020Y-95483468D01*
X112612278Y-95562506D01*
X112864913Y-95602520D01*
X113120691Y-95602520D01*
X113373325Y-95562506D01*
X113616583Y-95483468D01*
X113616586Y-95483467D01*
X113844487Y-95367345D01*
X113951397Y-95289668D01*
X113951398Y-95289668D01*
X113199779Y-94538050D01*
X113222463Y-94531972D01*
X113358140Y-94453638D01*
X113468920Y-94342858D01*
X113547254Y-94207181D01*
X113553331Y-94184497D01*
X114304950Y-94936116D01*
X114304950Y-94936115D01*
X114382627Y-94829205D01*
X114498749Y-94601304D01*
X114498750Y-94601301D01*
X114577788Y-94358043D01*
X114617802Y-94105409D01*
X114617802Y-93849630D01*
X114577788Y-93596996D01*
X114498750Y-93353738D01*
X114498749Y-93353735D01*
X114382626Y-93125833D01*
X114304950Y-93018923D01*
X114304950Y-93018922D01*
X113553331Y-93770541D01*
X113547254Y-93747859D01*
X113468920Y-93612182D01*
X113358140Y-93501402D01*
X113222463Y-93423068D01*
X113199777Y-93416989D01*
X113951398Y-92665370D01*
X113844488Y-92587695D01*
X113616586Y-92471572D01*
X113616583Y-92471571D01*
X113373325Y-92392533D01*
X113120691Y-92352520D01*
X112864913Y-92352520D01*
X112612278Y-92392533D01*
X112369020Y-92471571D01*
X112369017Y-92471572D01*
X112141112Y-92587697D01*
X112034205Y-92665369D01*
X112034204Y-92665370D01*
X112785824Y-93416989D01*
X112763141Y-93423068D01*
X112627464Y-93501402D01*
X112516684Y-93612182D01*
X112438350Y-93747859D01*
X112432271Y-93770542D01*
X111680652Y-93018922D01*
X111680651Y-93018923D01*
X111602976Y-93125834D01*
X111600432Y-93129986D01*
X111599247Y-93129260D01*
X111555560Y-93175490D01*
X111487734Y-93192266D01*
X111421606Y-93169709D01*
X111386499Y-93129173D01*
X111385599Y-93129725D01*
X111383054Y-93125573D01*
X111232669Y-92918584D01*
X111232665Y-92918579D01*
X111051742Y-92737656D01*
X111051737Y-92737652D01*
X110844752Y-92587270D01*
X110844751Y-92587269D01*
X110844749Y-92587268D01*
X110771712Y-92550053D01*
X110616777Y-92471109D01*
X110616774Y-92471108D01*
X110373442Y-92392046D01*
X110247086Y-92372033D01*
X110120732Y-92352020D01*
X109864872Y-92352020D01*
X109780635Y-92365362D01*
X109612161Y-92392046D01*
X109368829Y-92471108D01*
X109368826Y-92471109D01*
X109140851Y-92587270D01*
X108933866Y-92737652D01*
X108933861Y-92737656D01*
X108752938Y-92918579D01*
X108752934Y-92918584D01*
X108602552Y-93125569D01*
X108486391Y-93353544D01*
X108486390Y-93353547D01*
X108407328Y-93596879D01*
X108367302Y-93849590D01*
X107600500Y-93849590D01*
X107600500Y-93543767D01*
X107620185Y-93476728D01*
X107621398Y-93474876D01*
X107656015Y-93423068D01*
X107691671Y-93369706D01*
X107750506Y-93227664D01*
X107750506Y-93227659D01*
X107750508Y-93227656D01*
X107775614Y-93101438D01*
X107780500Y-93076873D01*
X107780500Y-92923127D01*
X107775144Y-92896200D01*
X107750508Y-92772343D01*
X107750505Y-92772334D01*
X107691673Y-92630298D01*
X107691672Y-92630296D01*
X107662921Y-92587268D01*
X107606254Y-92502460D01*
X107606251Y-92502456D01*
X107497543Y-92393748D01*
X107497539Y-92393745D01*
X107369703Y-92308327D01*
X107369701Y-92308326D01*
X107227665Y-92249494D01*
X107227657Y-92249492D01*
X107103604Y-92224816D01*
X107041693Y-92192431D01*
X107040115Y-92190880D01*
X99487590Y-84638355D01*
X99487588Y-84638352D01*
X99368717Y-84519481D01*
X99368716Y-84519480D01*
X99281904Y-84469360D01*
X99281904Y-84469359D01*
X99281900Y-84469358D01*
X99231785Y-84440423D01*
X99079057Y-84399499D01*
X98920943Y-84399499D01*
X98913347Y-84399499D01*
X98913331Y-84399500D01*
X94078317Y-84399500D01*
X94011278Y-84379815D01*
X93967833Y-84331796D01*
X93874211Y-84148053D01*
X93765726Y-83998735D01*
X93723826Y-83941064D01*
X93723822Y-83941059D01*
X93542899Y-83760136D01*
X93542894Y-83760132D01*
X93335905Y-83609747D01*
X93331754Y-83607203D01*
X93332532Y-83605932D01*
X93286557Y-83562513D01*
X93269761Y-83494692D01*
X93292297Y-83428557D01*
X93332382Y-83393822D01*
X93331754Y-83392797D01*
X93335900Y-83390255D01*
X93335906Y-83390252D01*
X93542901Y-83239862D01*
X93723821Y-83058942D01*
X93874211Y-82851947D01*
X93990369Y-82623975D01*
X94069433Y-82380639D01*
X94109459Y-82127930D01*
X94109459Y-81872070D01*
X94069433Y-81619361D01*
X93990369Y-81376025D01*
X93990369Y-81376024D01*
X93925511Y-81248735D01*
X93874211Y-81148053D01*
X93781499Y-81020445D01*
X93723826Y-80941064D01*
X93723822Y-80941059D01*
X93542899Y-80760136D01*
X93542894Y-80760132D01*
X93335909Y-80609750D01*
X93335908Y-80609749D01*
X93335906Y-80609748D01*
X93262869Y-80572533D01*
X93107934Y-80493589D01*
X93107931Y-80493588D01*
X92864599Y-80414526D01*
X92738243Y-80394513D01*
X92611889Y-80374500D01*
X92356029Y-80374500D01*
X92271792Y-80387842D01*
X92103318Y-80414526D01*
X91859986Y-80493588D01*
X91859983Y-80493589D01*
X91632008Y-80609750D01*
X91425023Y-80760132D01*
X91425018Y-80760136D01*
X91244095Y-80941059D01*
X91244091Y-80941064D01*
X91093709Y-81148049D01*
X90977548Y-81376024D01*
X90977547Y-81376027D01*
X90898485Y-81619359D01*
X90898485Y-81619361D01*
X90858459Y-81872070D01*
X90858459Y-82127930D01*
X90878472Y-82254284D01*
X90898485Y-82380640D01*
X90977547Y-82623972D01*
X90977548Y-82623975D01*
X91093709Y-82851950D01*
X91244091Y-83058935D01*
X91244095Y-83058940D01*
X91425018Y-83239863D01*
X91425023Y-83239867D01*
X91632012Y-83390252D01*
X91636164Y-83392797D01*
X91635387Y-83394064D01*
X91681368Y-83437502D01*
X91698156Y-83505325D01*
X91675610Y-83571457D01*
X91635537Y-83606180D01*
X91636164Y-83607203D01*
X91632012Y-83609747D01*
X91425023Y-83760132D01*
X91425018Y-83760136D01*
X91244095Y-83941059D01*
X91244091Y-83941064D01*
X91093709Y-84148049D01*
X90977548Y-84376024D01*
X90977547Y-84376027D01*
X90898485Y-84619359D01*
X90858459Y-84872070D01*
X90858459Y-85127929D01*
X90898485Y-85380640D01*
X90977547Y-85623972D01*
X90977548Y-85623975D01*
X91093709Y-85851950D01*
X91244091Y-86058935D01*
X91244095Y-86058940D01*
X91425018Y-86239863D01*
X91425023Y-86239867D01*
X91632012Y-86390252D01*
X91636164Y-86392797D01*
X91635387Y-86394064D01*
X91681368Y-86437502D01*
X91698156Y-86505325D01*
X91675610Y-86571457D01*
X91635537Y-86606180D01*
X91636164Y-86607203D01*
X91632012Y-86609747D01*
X91425023Y-86760132D01*
X91425018Y-86760136D01*
X91244095Y-86941059D01*
X91244091Y-86941064D01*
X91093709Y-87148049D01*
X90977548Y-87376024D01*
X90977547Y-87376027D01*
X90898485Y-87619359D01*
X90858459Y-87872070D01*
X90858459Y-88127929D01*
X90898485Y-88380640D01*
X90977547Y-88623972D01*
X90977548Y-88623975D01*
X91093709Y-88851950D01*
X91210497Y-89012697D01*
X91233977Y-89078503D01*
X91218151Y-89146557D01*
X91168045Y-89195252D01*
X91099567Y-89209127D01*
X91034458Y-89183778D01*
X91022498Y-89173263D01*
X88136819Y-86287584D01*
X88103334Y-86226261D01*
X88100500Y-86199903D01*
X88100500Y-80920945D01*
X88100500Y-80920943D01*
X88059577Y-80768216D01*
X88054910Y-80760132D01*
X87980524Y-80631290D01*
X87980521Y-80631286D01*
X87980520Y-80631284D01*
X87868716Y-80519480D01*
X87868715Y-80519479D01*
X87864385Y-80515149D01*
X87864374Y-80515139D01*
X83508035Y-76158800D01*
X83508033Y-76158797D01*
X83389162Y-76039926D01*
X83389161Y-76039925D01*
X83302349Y-75989805D01*
X83302349Y-75989804D01*
X83302346Y-75989803D01*
X83252230Y-75960868D01*
X83252038Y-75960816D01*
X83244868Y-75956685D01*
X83226051Y-75936985D01*
X83204854Y-75919872D01*
X83198396Y-75908032D01*
X83196608Y-75906160D01*
X83196185Y-75903979D01*
X83194430Y-75900760D01*
X83194331Y-75900811D01*
X83192531Y-75897279D01*
X83192209Y-75896688D01*
X83192122Y-75896479D01*
X83192119Y-75896470D01*
X83075961Y-75668498D01*
X83056747Y-75642052D01*
X82925576Y-75461509D01*
X82925572Y-75461504D01*
X82744649Y-75280581D01*
X82744644Y-75280577D01*
X82537659Y-75130195D01*
X82537658Y-75130194D01*
X82537656Y-75130193D01*
X82459344Y-75090291D01*
X82309684Y-75014034D01*
X82309681Y-75014033D01*
X82066349Y-74934971D01*
X81939993Y-74914958D01*
X81813639Y-74894945D01*
X81557779Y-74894945D01*
X81473542Y-74908287D01*
X81305068Y-74934971D01*
X81061736Y-75014033D01*
X81061733Y-75014034D01*
X80833758Y-75130195D01*
X80626773Y-75280577D01*
X80626768Y-75280581D01*
X80445845Y-75461504D01*
X80445841Y-75461509D01*
X80295459Y-75668494D01*
X80179298Y-75896469D01*
X80179297Y-75896472D01*
X80100235Y-76139804D01*
X80060209Y-76392515D01*
X63205500Y-76392515D01*
X63205500Y-76211577D01*
X63174709Y-76017173D01*
X63136900Y-75900811D01*
X63113884Y-75829975D01*
X63113882Y-75829972D01*
X63113882Y-75829970D01*
X63066743Y-75737455D01*
X63024524Y-75654595D01*
X62908828Y-75495354D01*
X62769646Y-75356172D01*
X62610405Y-75240476D01*
X62435025Y-75151116D01*
X62435024Y-75151115D01*
X62433235Y-75150204D01*
X62382439Y-75102230D01*
X62365644Y-75034409D01*
X62388181Y-74968274D01*
X62433236Y-74929234D01*
X62610141Y-74839097D01*
X62769321Y-74723444D01*
X62908444Y-74584321D01*
X63024095Y-74425143D01*
X63113418Y-74249837D01*
X63174218Y-74062716D01*
X63180984Y-74020000D01*
X61838012Y-74020000D01*
X61870925Y-73962993D01*
X61905000Y-73835826D01*
X61905000Y-73704174D01*
X61870925Y-73577007D01*
X61838012Y-73520000D01*
X63180984Y-73520000D01*
X63174218Y-73477283D01*
X63113418Y-73290162D01*
X63024095Y-73114856D01*
X62908444Y-72955678D01*
X62769321Y-72816555D01*
X62610143Y-72700904D01*
X62433235Y-72610765D01*
X62382439Y-72562790D01*
X62365644Y-72494969D01*
X62388181Y-72428835D01*
X62433236Y-72389795D01*
X62435022Y-72388884D01*
X62435025Y-72388884D01*
X62610405Y-72299524D01*
X62769646Y-72183828D01*
X62908828Y-72044646D01*
X63024524Y-71885405D01*
X63113884Y-71710025D01*
X63174709Y-71522826D01*
X63177382Y-71505947D01*
X63205500Y-71328422D01*
X63205500Y-71131577D01*
X63174709Y-70937173D01*
X63125525Y-70785802D01*
X63113884Y-70749975D01*
X63113882Y-70749972D01*
X63113882Y-70749970D01*
X63049684Y-70623975D01*
X63024524Y-70574595D01*
X62908828Y-70415354D01*
X62769646Y-70276172D01*
X62690025Y-70218324D01*
X62610403Y-70160474D01*
X62433787Y-70070485D01*
X62424652Y-70061857D01*
X62413009Y-70057138D01*
X62399734Y-70038324D01*
X62382990Y-70022511D01*
X62379969Y-70010313D01*
X62372727Y-70000049D01*
X62371730Y-69977044D01*
X62366195Y-69954690D01*
X62370247Y-69942797D01*
X62369704Y-69930245D01*
X62381304Y-69910352D01*
X62388732Y-69888555D01*
X62399415Y-69879294D01*
X62403628Y-69872070D01*
X152374500Y-69872070D01*
X152374500Y-70127929D01*
X152414526Y-70380640D01*
X152493588Y-70623972D01*
X152493589Y-70623975D01*
X152557788Y-70749970D01*
X152609747Y-70851946D01*
X152609750Y-70851950D01*
X152760132Y-71058935D01*
X152760136Y-71058940D01*
X152941059Y-71239863D01*
X152941064Y-71239867D01*
X153062944Y-71328417D01*
X153148053Y-71390252D01*
X153297080Y-71466185D01*
X153376024Y-71506410D01*
X153376027Y-71506411D01*
X153497693Y-71545942D01*
X153619361Y-71585474D01*
X153872070Y-71625500D01*
X153872071Y-71625500D01*
X154127929Y-71625500D01*
X154127930Y-71625500D01*
X154380639Y-71585474D01*
X154623975Y-71506410D01*
X154851947Y-71390252D01*
X155058942Y-71239862D01*
X155239862Y-71058942D01*
X155390252Y-70851947D01*
X155390255Y-70851941D01*
X155392797Y-70847795D01*
X155394067Y-70848573D01*
X155437487Y-70802598D01*
X155505308Y-70785802D01*
X155571443Y-70808338D01*
X155606177Y-70848423D01*
X155607203Y-70847795D01*
X155609747Y-70851946D01*
X155760132Y-71058935D01*
X155760136Y-71058940D01*
X155941059Y-71239863D01*
X155941064Y-71239867D01*
X156062944Y-71328417D01*
X156148053Y-71390252D01*
X156297080Y-71466185D01*
X156376024Y-71506410D01*
X156376027Y-71506411D01*
X156497693Y-71545942D01*
X156619361Y-71585474D01*
X156872070Y-71625500D01*
X156872071Y-71625500D01*
X157127929Y-71625500D01*
X157127930Y-71625500D01*
X157380639Y-71585474D01*
X157623975Y-71506410D01*
X157851947Y-71390252D01*
X158058942Y-71239862D01*
X158239862Y-71058942D01*
X158390252Y-70851947D01*
X158390255Y-70851941D01*
X158392797Y-70847795D01*
X158393922Y-70848484D01*
X158437736Y-70802066D01*
X158505552Y-70785250D01*
X158571694Y-70807768D01*
X158606674Y-70848119D01*
X158607630Y-70847534D01*
X158610170Y-70851679D01*
X158687850Y-70958595D01*
X158687850Y-70958596D01*
X159439469Y-70206976D01*
X159445548Y-70229661D01*
X159523882Y-70365338D01*
X159634662Y-70476118D01*
X159770339Y-70554452D01*
X159793022Y-70560529D01*
X159041402Y-71312148D01*
X159148313Y-71389824D01*
X159376215Y-71505947D01*
X159376218Y-71505948D01*
X159619476Y-71584986D01*
X159872111Y-71625000D01*
X160127889Y-71625000D01*
X160380523Y-71584986D01*
X160623781Y-71505948D01*
X160623784Y-71505947D01*
X160851685Y-71389825D01*
X160958595Y-71312148D01*
X160958596Y-71312148D01*
X160206977Y-70560530D01*
X160229661Y-70554452D01*
X160365338Y-70476118D01*
X160476118Y-70365338D01*
X160554452Y-70229661D01*
X160560530Y-70206977D01*
X161312148Y-70958596D01*
X161312148Y-70958595D01*
X161389825Y-70851685D01*
X161505947Y-70623784D01*
X161505948Y-70623781D01*
X161584986Y-70380523D01*
X161625000Y-70127889D01*
X161625000Y-69872110D01*
X161584986Y-69619476D01*
X161505948Y-69376218D01*
X161505947Y-69376215D01*
X161389824Y-69148313D01*
X161312148Y-69041403D01*
X161312148Y-69041402D01*
X160560529Y-69793021D01*
X160554452Y-69770339D01*
X160476118Y-69634662D01*
X160365338Y-69523882D01*
X160229661Y-69445548D01*
X160206975Y-69439469D01*
X160958596Y-68687850D01*
X160851686Y-68610175D01*
X160623784Y-68494052D01*
X160623781Y-68494051D01*
X160380523Y-68415013D01*
X160127889Y-68375000D01*
X159872111Y-68375000D01*
X159619476Y-68415013D01*
X159376218Y-68494051D01*
X159376215Y-68494052D01*
X159148310Y-68610177D01*
X159041403Y-68687849D01*
X159041402Y-68687850D01*
X159793022Y-69439469D01*
X159770339Y-69445548D01*
X159634662Y-69523882D01*
X159523882Y-69634662D01*
X159445548Y-69770339D01*
X159439469Y-69793022D01*
X158687850Y-69041402D01*
X158687849Y-69041403D01*
X158610174Y-69148314D01*
X158607630Y-69152466D01*
X158606445Y-69151740D01*
X158562758Y-69197970D01*
X158494932Y-69214746D01*
X158428804Y-69192189D01*
X158393697Y-69151653D01*
X158392797Y-69152205D01*
X158390252Y-69148053D01*
X158239867Y-68941064D01*
X158239863Y-68941059D01*
X158058940Y-68760136D01*
X158058935Y-68760132D01*
X157851950Y-68609750D01*
X157851949Y-68609749D01*
X157851947Y-68609748D01*
X157778910Y-68572533D01*
X157623975Y-68493589D01*
X157623972Y-68493588D01*
X157380640Y-68414526D01*
X157254284Y-68394513D01*
X157127930Y-68374500D01*
X156872070Y-68374500D01*
X156789747Y-68387539D01*
X156619359Y-68414526D01*
X156376027Y-68493588D01*
X156376024Y-68493589D01*
X156148049Y-68609750D01*
X155941064Y-68760132D01*
X155941059Y-68760136D01*
X155760136Y-68941059D01*
X155760132Y-68941064D01*
X155609747Y-69148053D01*
X155607203Y-69152205D01*
X155605935Y-69151428D01*
X155562498Y-69197409D01*
X155494675Y-69214197D01*
X155428543Y-69191651D01*
X155393819Y-69151578D01*
X155392797Y-69152205D01*
X155390252Y-69148053D01*
X155239867Y-68941064D01*
X155239863Y-68941059D01*
X155058940Y-68760136D01*
X155058935Y-68760132D01*
X154851950Y-68609750D01*
X154851949Y-68609749D01*
X154851947Y-68609748D01*
X154778910Y-68572533D01*
X154623975Y-68493589D01*
X154623972Y-68493588D01*
X154380640Y-68414526D01*
X154254284Y-68394513D01*
X154127930Y-68374500D01*
X153872070Y-68374500D01*
X153789747Y-68387539D01*
X153619359Y-68414526D01*
X153376027Y-68493588D01*
X153376024Y-68493589D01*
X153148049Y-68609750D01*
X152941064Y-68760132D01*
X152941059Y-68760136D01*
X152760136Y-68941059D01*
X152760132Y-68941064D01*
X152609750Y-69148049D01*
X152493589Y-69376024D01*
X152493588Y-69376027D01*
X152414526Y-69619359D01*
X152374500Y-69872070D01*
X62403628Y-69872070D01*
X62404900Y-69869888D01*
X62433678Y-69849591D01*
X62433738Y-69849540D01*
X62435022Y-69848884D01*
X62435025Y-69848884D01*
X62610405Y-69759524D01*
X62769646Y-69643828D01*
X62908828Y-69504646D01*
X63024524Y-69345405D01*
X63113884Y-69170025D01*
X63174709Y-68982826D01*
X63174726Y-68982716D01*
X63205500Y-68788422D01*
X63205500Y-68591577D01*
X63174709Y-68397173D01*
X63139854Y-68289901D01*
X63113884Y-68209975D01*
X63113882Y-68209972D01*
X63113882Y-68209970D01*
X63026088Y-68037665D01*
X63024524Y-68034595D01*
X62908828Y-67875354D01*
X62769646Y-67736172D01*
X62610405Y-67620476D01*
X62435029Y-67531117D01*
X62247826Y-67470290D01*
X62053422Y-67439500D01*
X62053417Y-67439500D01*
X60756583Y-67439500D01*
X60756578Y-67439500D01*
X60562173Y-67470290D01*
X60374970Y-67531117D01*
X60199594Y-67620476D01*
X60141980Y-67662336D01*
X60040354Y-67736172D01*
X60040352Y-67736174D01*
X60040351Y-67736174D01*
X59901174Y-67875351D01*
X59901174Y-67875352D01*
X59901172Y-67875354D01*
X59892800Y-67886877D01*
X59785476Y-68034594D01*
X59696117Y-68209970D01*
X59635290Y-68397173D01*
X59604500Y-68591577D01*
X54196265Y-68591577D01*
X54170925Y-68497007D01*
X54138012Y-68440000D01*
X55480984Y-68440000D01*
X55474218Y-68397283D01*
X55413418Y-68210162D01*
X55324095Y-68034856D01*
X55208444Y-67875678D01*
X55069321Y-67736555D01*
X54910143Y-67620904D01*
X54734835Y-67531581D01*
X54547705Y-67470778D01*
X54353382Y-67440000D01*
X53955000Y-67440000D01*
X53955000Y-68256988D01*
X53897993Y-68224075D01*
X53770826Y-68190000D01*
X53639174Y-68190000D01*
X53512007Y-68224075D01*
X53455000Y-68256988D01*
X53455000Y-67440000D01*
X53056618Y-67440000D01*
X52862294Y-67470778D01*
X52675166Y-67531580D01*
X52671444Y-67533122D01*
X52601974Y-67540585D01*
X52539497Y-67509305D01*
X52503849Y-67449213D01*
X52500000Y-67418557D01*
X52500000Y-59665241D01*
X57982488Y-59665241D01*
X57982488Y-59867960D01*
X58001348Y-59987040D01*
X58014201Y-60068185D01*
X58022404Y-60093432D01*
X58076846Y-60260985D01*
X58168880Y-60441610D01*
X58288027Y-60605605D01*
X58431383Y-60748961D01*
X58584844Y-60860455D01*
X58595382Y-60868111D01*
X58776006Y-60960144D01*
X58968804Y-61022788D01*
X59169028Y-61054501D01*
X59169029Y-61054501D01*
X61302147Y-61054501D01*
X61302148Y-61054501D01*
X61502372Y-61022788D01*
X61695170Y-60960144D01*
X61875794Y-60868111D01*
X61910023Y-60843242D01*
X61941387Y-60820456D01*
X62039792Y-60748961D01*
X62039794Y-60748958D01*
X62039798Y-60748956D01*
X62183143Y-60605611D01*
X62183145Y-60605607D01*
X62183148Y-60605605D01*
X62243351Y-60522741D01*
X62302298Y-60441607D01*
X62394331Y-60260983D01*
X62456975Y-60068185D01*
X62488688Y-59867961D01*
X62488688Y-59665241D01*
X62456975Y-59465017D01*
X62394331Y-59272219D01*
X62302298Y-59091595D01*
X62244846Y-59012518D01*
X62183148Y-58927596D01*
X62039792Y-58784240D01*
X61875797Y-58665093D01*
X61875796Y-58665092D01*
X61875794Y-58665091D01*
X61695170Y-58573058D01*
X61502372Y-58510414D01*
X61502370Y-58510413D01*
X61502368Y-58510413D01*
X61362570Y-58488271D01*
X61302148Y-58478701D01*
X59169028Y-58478701D01*
X59122612Y-58486052D01*
X58968807Y-58510413D01*
X58776003Y-58573059D01*
X58595378Y-58665093D01*
X58431383Y-58784240D01*
X58288027Y-58927596D01*
X58168880Y-59091591D01*
X58076846Y-59272216D01*
X58014200Y-59465020D01*
X57982488Y-59665241D01*
X52500000Y-59665241D01*
X52500000Y-58352486D01*
X75922500Y-58352486D01*
X75922500Y-58647513D01*
X75940502Y-58784246D01*
X75961007Y-58939993D01*
X76037361Y-59224951D01*
X76037364Y-59224961D01*
X76150254Y-59497500D01*
X76150258Y-59497510D01*
X76297761Y-59752993D01*
X76477352Y-59987040D01*
X76477358Y-59987047D01*
X76685952Y-60195641D01*
X76685959Y-60195647D01*
X76920006Y-60375238D01*
X77175489Y-60522741D01*
X77175490Y-60522741D01*
X77175493Y-60522743D01*
X77448048Y-60635639D01*
X77733007Y-60711993D01*
X78025494Y-60750500D01*
X78025501Y-60750500D01*
X78320499Y-60750500D01*
X78320506Y-60750500D01*
X78612993Y-60711993D01*
X78897952Y-60635639D01*
X79170507Y-60522743D01*
X79425994Y-60375238D01*
X79660042Y-60195646D01*
X79868646Y-59987042D01*
X80048238Y-59752994D01*
X80195743Y-59497507D01*
X80308639Y-59224952D01*
X80384993Y-58939993D01*
X80423500Y-58647506D01*
X80423500Y-58352494D01*
X80384993Y-58060007D01*
X80308639Y-57775048D01*
X80195743Y-57502493D01*
X80144074Y-57413000D01*
X80048238Y-57247006D01*
X79868647Y-57012959D01*
X79868641Y-57012952D01*
X79660047Y-56804358D01*
X79660040Y-56804352D01*
X79425993Y-56624761D01*
X79170510Y-56477258D01*
X79170500Y-56477254D01*
X78897961Y-56364364D01*
X78897954Y-56364362D01*
X78897952Y-56364361D01*
X78612993Y-56288007D01*
X78564113Y-56281571D01*
X78320513Y-56249500D01*
X78320506Y-56249500D01*
X78025494Y-56249500D01*
X78025486Y-56249500D01*
X77747085Y-56286153D01*
X77733007Y-56288007D01*
X77448048Y-56364361D01*
X77448038Y-56364364D01*
X77175499Y-56477254D01*
X77175489Y-56477258D01*
X76920006Y-56624761D01*
X76685959Y-56804352D01*
X76685952Y-56804358D01*
X76477358Y-57012952D01*
X76477352Y-57012959D01*
X76297761Y-57247006D01*
X76150258Y-57502489D01*
X76150254Y-57502499D01*
X76037364Y-57775038D01*
X76037361Y-57775048D01*
X75961039Y-58059890D01*
X75961008Y-58060004D01*
X75961006Y-58060015D01*
X75922500Y-58352486D01*
X52500000Y-58352486D01*
X52500000Y-53900079D01*
X55823190Y-53900079D01*
X55823190Y-54716600D01*
X56577190Y-54716600D01*
X56577190Y-55216600D01*
X55823190Y-55216600D01*
X55823190Y-56033120D01*
X55854889Y-56233263D01*
X55917511Y-56425992D01*
X56009509Y-56606548D01*
X56128610Y-56770478D01*
X56128614Y-56770483D01*
X56271906Y-56913775D01*
X56271911Y-56913779D01*
X56435841Y-57032880D01*
X56616395Y-57124878D01*
X56809117Y-57187498D01*
X56860590Y-57195650D01*
X56860590Y-56403379D01*
X56904705Y-56428850D01*
X57040367Y-56465200D01*
X57180813Y-56465200D01*
X57316475Y-56428850D01*
X57360590Y-56403379D01*
X57360590Y-57195649D01*
X57412062Y-57187498D01*
X57604784Y-57124878D01*
X57785338Y-57032880D01*
X57949268Y-56913779D01*
X57949273Y-56913775D01*
X58092565Y-56770483D01*
X58092569Y-56770478D01*
X58211670Y-56606548D01*
X58303668Y-56425992D01*
X58366290Y-56233263D01*
X58397990Y-56033120D01*
X58397990Y-55216600D01*
X57643990Y-55216600D01*
X57643990Y-54716600D01*
X58397990Y-54716600D01*
X58397990Y-53900079D01*
X58397984Y-53900040D01*
X62072690Y-53900040D01*
X62072690Y-56033159D01*
X62104383Y-56233263D01*
X62104403Y-56233384D01*
X62166985Y-56425992D01*
X62167048Y-56426184D01*
X62259082Y-56606809D01*
X62378229Y-56770804D01*
X62521585Y-56914160D01*
X62657573Y-57012959D01*
X62685584Y-57033310D01*
X62866208Y-57125343D01*
X63059006Y-57187987D01*
X63259230Y-57219700D01*
X63259231Y-57219700D01*
X63461949Y-57219700D01*
X63461950Y-57219700D01*
X63662174Y-57187987D01*
X63854972Y-57125343D01*
X64035596Y-57033310D01*
X64135998Y-56960364D01*
X64199594Y-56914160D01*
X64199596Y-56914157D01*
X64199600Y-56914155D01*
X64342945Y-56770810D01*
X64342947Y-56770806D01*
X64342950Y-56770804D01*
X64449054Y-56624762D01*
X64462100Y-56606806D01*
X64554133Y-56426182D01*
X64616777Y-56233384D01*
X64648490Y-56033160D01*
X64648490Y-54959635D01*
X93332302Y-54959635D01*
X93332302Y-56960370D01*
X93332303Y-56960376D01*
X93338710Y-57019983D01*
X93389004Y-57154828D01*
X93389008Y-57154835D01*
X93475254Y-57270044D01*
X93475257Y-57270047D01*
X93590466Y-57356293D01*
X93590469Y-57356295D01*
X93590470Y-57356295D01*
X93590471Y-57356296D01*
X93618827Y-57366872D01*
X93674760Y-57408742D01*
X93699178Y-57474206D01*
X93684327Y-57542479D01*
X93675812Y-57555939D01*
X93543015Y-57738719D01*
X93439219Y-57942429D01*
X93368567Y-58159871D01*
X93354293Y-58250000D01*
X94342054Y-58250000D01*
X94320284Y-58287708D01*
X94282802Y-58427591D01*
X94282802Y-58572409D01*
X94320284Y-58712292D01*
X94342054Y-58750000D01*
X93354293Y-58750000D01*
X93368567Y-58840128D01*
X93439219Y-59057570D01*
X93543013Y-59261276D01*
X93677399Y-59446242D01*
X93839059Y-59607902D01*
X93839065Y-59607907D01*
X93923665Y-59669372D01*
X93966331Y-59724701D01*
X93972310Y-59794315D01*
X93939705Y-59856110D01*
X93923666Y-59870007D01*
X93838742Y-59931709D01*
X93838733Y-59931716D01*
X93677018Y-60093431D01*
X93677018Y-60093432D01*
X93677016Y-60093434D01*
X93619282Y-60172896D01*
X93542585Y-60278461D01*
X93438752Y-60482244D01*
X93368080Y-60699750D01*
X93368080Y-60699753D01*
X93332302Y-60925646D01*
X93332302Y-61154353D01*
X93368080Y-61380246D01*
X93368080Y-61380249D01*
X93438752Y-61597755D01*
X93438754Y-61597758D01*
X93542585Y-61801538D01*
X93677016Y-61986566D01*
X93838736Y-62148286D01*
X94023764Y-62282717D01*
X94227544Y-62386548D01*
X94227546Y-62386549D01*
X94445053Y-62457221D01*
X94445054Y-62457221D01*
X94445057Y-62457222D01*
X94670948Y-62493000D01*
X94670949Y-62493000D01*
X94994655Y-62493000D01*
X94994656Y-62493000D01*
X95220547Y-62457222D01*
X95220550Y-62457221D01*
X95220551Y-62457221D01*
X95438057Y-62386549D01*
X95438057Y-62386548D01*
X95438060Y-62386548D01*
X95641840Y-62282717D01*
X95826868Y-62148286D01*
X95988588Y-61986566D01*
X96123019Y-61801538D01*
X96226850Y-61597758D01*
X96297524Y-61380245D01*
X96333302Y-61154354D01*
X96333302Y-60925646D01*
X96297524Y-60699755D01*
X96297523Y-60699751D01*
X96297523Y-60699750D01*
X96226851Y-60482244D01*
X96123018Y-60278461D01*
X96110321Y-60260985D01*
X95988588Y-60093434D01*
X95826868Y-59931714D01*
X95741936Y-59870007D01*
X95699272Y-59814678D01*
X95693293Y-59745064D01*
X95725899Y-59683269D01*
X95741939Y-59669371D01*
X95826541Y-59607905D01*
X95988204Y-59446242D01*
X96122590Y-59261276D01*
X96226384Y-59057570D01*
X96297036Y-58840128D01*
X96311311Y-58750000D01*
X95323550Y-58750000D01*
X95345320Y-58712292D01*
X95382802Y-58572409D01*
X95382802Y-58427591D01*
X95362677Y-58352486D01*
X109242302Y-58352486D01*
X109242302Y-58647513D01*
X109260304Y-58784246D01*
X109280809Y-58939993D01*
X109357163Y-59224951D01*
X109357166Y-59224961D01*
X109470056Y-59497500D01*
X109470060Y-59497510D01*
X109617563Y-59752993D01*
X109797154Y-59987040D01*
X109797160Y-59987047D01*
X110005754Y-60195641D01*
X110005761Y-60195647D01*
X110239808Y-60375238D01*
X110495291Y-60522741D01*
X110495292Y-60522741D01*
X110495295Y-60522743D01*
X110767850Y-60635639D01*
X111052809Y-60711993D01*
X111345296Y-60750500D01*
X111345303Y-60750500D01*
X111640301Y-60750500D01*
X111640308Y-60750500D01*
X111932795Y-60711993D01*
X112217754Y-60635639D01*
X112490309Y-60522743D01*
X112745796Y-60375238D01*
X112979844Y-60195646D01*
X113188448Y-59987042D01*
X113368040Y-59752994D01*
X113515545Y-59497507D01*
X113628441Y-59224952D01*
X113704795Y-58939993D01*
X113743302Y-58647506D01*
X113743302Y-58352494D01*
X113704795Y-58060007D01*
X113628441Y-57775048D01*
X113515545Y-57502493D01*
X113463876Y-57413000D01*
X113368040Y-57247006D01*
X113188449Y-57012959D01*
X113188443Y-57012952D01*
X112979849Y-56804358D01*
X112979842Y-56804352D01*
X112745795Y-56624761D01*
X112490312Y-56477258D01*
X112490302Y-56477254D01*
X112217763Y-56364364D01*
X112217756Y-56364362D01*
X112217754Y-56364361D01*
X111932795Y-56288007D01*
X111883915Y-56281571D01*
X111640315Y-56249500D01*
X111640308Y-56249500D01*
X111345296Y-56249500D01*
X111345288Y-56249500D01*
X111066887Y-56286153D01*
X111052809Y-56288007D01*
X110767850Y-56364361D01*
X110767840Y-56364364D01*
X110495301Y-56477254D01*
X110495291Y-56477258D01*
X110239808Y-56624761D01*
X110005761Y-56804352D01*
X110005754Y-56804358D01*
X109797160Y-57012952D01*
X109797154Y-57012959D01*
X109617563Y-57247006D01*
X109470060Y-57502489D01*
X109470056Y-57502499D01*
X109357166Y-57775038D01*
X109357163Y-57775048D01*
X109280841Y-58059890D01*
X109280810Y-58060004D01*
X109280808Y-58060015D01*
X109242302Y-58352486D01*
X95362677Y-58352486D01*
X95345320Y-58287708D01*
X95323550Y-58250000D01*
X96311311Y-58250000D01*
X96311311Y-58249999D01*
X96297036Y-58159871D01*
X96226384Y-57942429D01*
X96122590Y-57738723D01*
X95989790Y-57555940D01*
X95966310Y-57490133D01*
X95982135Y-57422079D01*
X96032241Y-57373384D01*
X96046768Y-57366875D01*
X96075133Y-57356296D01*
X96190348Y-57270046D01*
X96276598Y-57154831D01*
X96326893Y-57019983D01*
X96333302Y-56960373D01*
X96333301Y-54959628D01*
X96326893Y-54900017D01*
X96276598Y-54765169D01*
X96276597Y-54765168D01*
X96276595Y-54765164D01*
X96190349Y-54649955D01*
X96190346Y-54649952D01*
X96075137Y-54563706D01*
X96075130Y-54563702D01*
X95940284Y-54513408D01*
X95940285Y-54513408D01*
X95880685Y-54507001D01*
X95880683Y-54507000D01*
X95880675Y-54507000D01*
X95880666Y-54507000D01*
X93784931Y-54507000D01*
X93784925Y-54507001D01*
X93725318Y-54513408D01*
X93590473Y-54563702D01*
X93590466Y-54563706D01*
X93475257Y-54649952D01*
X93475254Y-54649955D01*
X93389008Y-54765164D01*
X93389004Y-54765171D01*
X93338710Y-54900017D01*
X93332303Y-54959616D01*
X93332303Y-54959623D01*
X93332302Y-54959635D01*
X64648490Y-54959635D01*
X64648490Y-53900040D01*
X64616777Y-53699816D01*
X64554133Y-53507018D01*
X64462100Y-53326394D01*
X64454444Y-53315856D01*
X64342950Y-53162395D01*
X64199594Y-53019039D01*
X64035599Y-52899892D01*
X64035598Y-52899891D01*
X64035596Y-52899890D01*
X63854972Y-52807857D01*
X63662174Y-52745213D01*
X63662172Y-52745212D01*
X63662170Y-52745212D01*
X63522372Y-52723070D01*
X63461950Y-52713500D01*
X63259230Y-52713500D01*
X63212814Y-52720851D01*
X63059009Y-52745212D01*
X62866205Y-52807858D01*
X62685580Y-52899892D01*
X62521585Y-53019039D01*
X62378229Y-53162395D01*
X62259082Y-53326390D01*
X62167048Y-53507015D01*
X62104402Y-53699819D01*
X62072690Y-53900040D01*
X58397984Y-53900040D01*
X58366290Y-53699936D01*
X58303668Y-53507207D01*
X58211670Y-53326651D01*
X58092569Y-53162721D01*
X58092565Y-53162716D01*
X57949273Y-53019424D01*
X57949268Y-53019420D01*
X57785338Y-52900319D01*
X57604782Y-52808321D01*
X57412053Y-52745699D01*
X57360590Y-52737548D01*
X57360590Y-53529820D01*
X57316475Y-53504350D01*
X57180813Y-53468000D01*
X57040367Y-53468000D01*
X56904705Y-53504350D01*
X56860590Y-53529820D01*
X56860590Y-52737548D01*
X56860589Y-52737548D01*
X56809126Y-52745699D01*
X56616397Y-52808321D01*
X56435841Y-52900319D01*
X56271911Y-53019420D01*
X56271906Y-53019424D01*
X56128614Y-53162716D01*
X56128610Y-53162721D01*
X56009509Y-53326651D01*
X55917511Y-53507207D01*
X55854889Y-53699936D01*
X55823190Y-53900079D01*
X52500000Y-53900079D01*
X52500000Y-49051577D01*
X126739500Y-49051577D01*
X126739500Y-50348422D01*
X126770290Y-50542826D01*
X126831117Y-50730029D01*
X126920341Y-50905141D01*
X126920476Y-50905405D01*
X127036172Y-51064646D01*
X127175354Y-51203828D01*
X127334595Y-51319524D01*
X127405314Y-51355557D01*
X127509970Y-51408882D01*
X127509972Y-51408882D01*
X127509975Y-51408884D01*
X127610317Y-51441487D01*
X127697173Y-51469709D01*
X127891578Y-51500500D01*
X127891583Y-51500500D01*
X128088422Y-51500500D01*
X128282826Y-51469709D01*
X128284337Y-51469218D01*
X128470025Y-51408884D01*
X128645405Y-51319524D01*
X128804646Y-51203828D01*
X128943828Y-51064646D01*
X129059524Y-50905405D01*
X129148884Y-50730025D01*
X129149515Y-50728787D01*
X129197489Y-50677990D01*
X129265310Y-50661195D01*
X129331445Y-50683732D01*
X129370485Y-50728787D01*
X129460474Y-50905403D01*
X129495234Y-50953246D01*
X129576172Y-51064646D01*
X129715354Y-51203828D01*
X129874595Y-51319524D01*
X129945314Y-51355557D01*
X130049970Y-51408882D01*
X130049972Y-51408882D01*
X130049975Y-51408884D01*
X130150317Y-51441487D01*
X130237173Y-51469709D01*
X130431578Y-51500500D01*
X130431583Y-51500500D01*
X130628422Y-51500500D01*
X130822826Y-51469709D01*
X130824337Y-51469218D01*
X131010025Y-51408884D01*
X131185405Y-51319524D01*
X131344646Y-51203828D01*
X131483828Y-51064646D01*
X131599524Y-50905405D01*
X131688884Y-50730025D01*
X131688884Y-50730022D01*
X131689795Y-50728236D01*
X131737769Y-50677440D01*
X131805590Y-50660644D01*
X131871725Y-50683181D01*
X131910765Y-50728235D01*
X132000904Y-50905143D01*
X132116555Y-51064321D01*
X132255678Y-51203444D01*
X132414856Y-51319095D01*
X132590162Y-51408418D01*
X132777283Y-51469218D01*
X132820000Y-51475984D01*
X132820000Y-50133012D01*
X132877007Y-50165925D01*
X133004174Y-50200000D01*
X133135826Y-50200000D01*
X133262993Y-50165925D01*
X133320000Y-50133012D01*
X133320000Y-51475983D01*
X133362716Y-51469218D01*
X133549837Y-51408418D01*
X133725143Y-51319095D01*
X133884321Y-51203444D01*
X134023444Y-51064321D01*
X134139097Y-50905141D01*
X134229234Y-50728236D01*
X134277208Y-50677439D01*
X134345029Y-50660644D01*
X134411164Y-50683181D01*
X134450204Y-50728235D01*
X134451115Y-50730024D01*
X134451116Y-50730025D01*
X134540476Y-50905405D01*
X134656172Y-51064646D01*
X134795354Y-51203828D01*
X134954005Y-51319095D01*
X134958386Y-51322278D01*
X135001051Y-51377608D01*
X135009500Y-51422596D01*
X135009500Y-67346232D01*
X134989815Y-67413271D01*
X134988602Y-67415122D01*
X134918330Y-67520291D01*
X134918326Y-67520298D01*
X134859494Y-67662334D01*
X134859491Y-67662343D01*
X134829500Y-67813122D01*
X134829500Y-67966877D01*
X134859491Y-68117656D01*
X134859494Y-68117665D01*
X134918326Y-68259701D01*
X134918327Y-68259703D01*
X135003745Y-68387539D01*
X135003748Y-68387543D01*
X135112456Y-68496251D01*
X135112460Y-68496254D01*
X135240294Y-68581671D01*
X135240295Y-68581671D01*
X135240296Y-68581672D01*
X135240298Y-68581673D01*
X135309114Y-68610177D01*
X135382336Y-68640506D01*
X135382338Y-68640506D01*
X135382343Y-68640508D01*
X135533122Y-68670499D01*
X135533126Y-68670500D01*
X135533127Y-68670500D01*
X135686874Y-68670500D01*
X135686875Y-68670499D01*
X135737136Y-68660502D01*
X135837656Y-68640508D01*
X135837659Y-68640506D01*
X135837664Y-68640506D01*
X135979706Y-68581671D01*
X136107540Y-68496254D01*
X136216254Y-68387540D01*
X136301671Y-68259706D01*
X136360506Y-68117664D01*
X136376421Y-68037656D01*
X136390499Y-67966877D01*
X136390500Y-67966874D01*
X136390500Y-67813126D01*
X136390499Y-67813122D01*
X136360508Y-67662343D01*
X136360505Y-67662334D01*
X136343344Y-67620904D01*
X136327369Y-67582336D01*
X136301673Y-67520298D01*
X136301669Y-67520291D01*
X136231398Y-67415122D01*
X136210520Y-67348445D01*
X136210500Y-67346232D01*
X136210500Y-51422596D01*
X136230185Y-51355557D01*
X136261614Y-51322278D01*
X136265403Y-51319524D01*
X136265405Y-51319524D01*
X136424646Y-51203828D01*
X136563828Y-51064646D01*
X136679524Y-50905405D01*
X136768884Y-50730025D01*
X136782069Y-50689444D01*
X136821507Y-50631769D01*
X136885865Y-50604571D01*
X136954712Y-50616486D01*
X137006187Y-50663730D01*
X137017929Y-50689442D01*
X137031116Y-50730025D01*
X137120476Y-50905405D01*
X137236172Y-51064646D01*
X137375354Y-51203828D01*
X137534595Y-51319524D01*
X137605314Y-51355557D01*
X137709970Y-51408882D01*
X137709972Y-51408882D01*
X137709975Y-51408884D01*
X137810317Y-51441487D01*
X137897173Y-51469709D01*
X138091578Y-51500500D01*
X138091583Y-51500500D01*
X138288422Y-51500500D01*
X138482826Y-51469709D01*
X138484337Y-51469218D01*
X138670025Y-51408884D01*
X138845405Y-51319524D01*
X139004646Y-51203828D01*
X139143828Y-51064646D01*
X139259524Y-50905405D01*
X139348884Y-50730025D01*
X139349515Y-50728787D01*
X139397489Y-50677990D01*
X139465310Y-50661195D01*
X139531445Y-50683732D01*
X139570485Y-50728787D01*
X139660474Y-50905403D01*
X139695234Y-50953246D01*
X139776172Y-51064646D01*
X139915354Y-51203828D01*
X140074595Y-51319524D01*
X140145314Y-51355557D01*
X140249970Y-51408882D01*
X140249972Y-51408882D01*
X140249975Y-51408884D01*
X140350317Y-51441487D01*
X140437173Y-51469709D01*
X140631578Y-51500500D01*
X140631583Y-51500500D01*
X140828422Y-51500500D01*
X141022826Y-51469709D01*
X141024337Y-51469218D01*
X141210025Y-51408884D01*
X141385405Y-51319524D01*
X141544646Y-51203828D01*
X141683828Y-51064646D01*
X141799524Y-50905405D01*
X141888884Y-50730025D01*
X141888884Y-50730022D01*
X141889795Y-50728236D01*
X141937769Y-50677440D01*
X142005590Y-50660644D01*
X142071725Y-50683181D01*
X142110765Y-50728235D01*
X142200904Y-50905143D01*
X142316555Y-51064321D01*
X142455678Y-51203444D01*
X142614856Y-51319095D01*
X142790162Y-51408418D01*
X142977283Y-51469218D01*
X143020000Y-51475984D01*
X143020000Y-50133012D01*
X143077007Y-50165925D01*
X143204174Y-50200000D01*
X143335826Y-50200000D01*
X143462993Y-50165925D01*
X143520000Y-50133012D01*
X143520000Y-51475984D01*
X143562716Y-51469218D01*
X143749837Y-51408418D01*
X143925143Y-51319095D01*
X144084321Y-51203444D01*
X144223444Y-51064321D01*
X144339097Y-50905141D01*
X144429234Y-50728236D01*
X144477208Y-50677439D01*
X144545029Y-50660644D01*
X144611164Y-50683181D01*
X144650204Y-50728235D01*
X144651115Y-50730024D01*
X144651116Y-50730025D01*
X144740476Y-50905405D01*
X144856172Y-51064646D01*
X144995354Y-51203828D01*
X145154005Y-51319095D01*
X145158386Y-51322278D01*
X145201051Y-51377608D01*
X145209500Y-51422596D01*
X145209500Y-67266232D01*
X145189815Y-67333271D01*
X145188602Y-67335122D01*
X145118330Y-67440291D01*
X145118326Y-67440298D01*
X145059494Y-67582334D01*
X145059491Y-67582343D01*
X145029500Y-67733122D01*
X145029500Y-67886877D01*
X145059491Y-68037656D01*
X145059494Y-68037665D01*
X145118326Y-68179701D01*
X145118327Y-68179703D01*
X145203745Y-68307539D01*
X145203748Y-68307543D01*
X145312456Y-68416251D01*
X145312460Y-68416254D01*
X145440294Y-68501671D01*
X145440295Y-68501671D01*
X145440296Y-68501672D01*
X145440298Y-68501673D01*
X145534988Y-68540894D01*
X145582336Y-68560506D01*
X145582338Y-68560506D01*
X145582343Y-68560508D01*
X145733122Y-68590499D01*
X145733126Y-68590500D01*
X145733127Y-68590500D01*
X145886874Y-68590500D01*
X145886875Y-68590499D01*
X145937136Y-68580502D01*
X146037656Y-68560508D01*
X146037659Y-68560506D01*
X146037664Y-68560506D01*
X146179706Y-68501671D01*
X146307540Y-68416254D01*
X146416254Y-68307540D01*
X146501671Y-68179706D01*
X146560506Y-68037664D01*
X146561117Y-68034595D01*
X146590499Y-67886877D01*
X146590500Y-67886874D01*
X146590500Y-67733126D01*
X146590499Y-67733122D01*
X146560508Y-67582343D01*
X146560505Y-67582334D01*
X146501673Y-67440298D01*
X146501669Y-67440291D01*
X146431398Y-67335122D01*
X146410520Y-67268445D01*
X146410500Y-67266232D01*
X146410500Y-51422596D01*
X146430185Y-51355557D01*
X146461614Y-51322278D01*
X146465403Y-51319524D01*
X146465405Y-51319524D01*
X146624646Y-51203828D01*
X146763828Y-51064646D01*
X146879524Y-50905405D01*
X146968884Y-50730025D01*
X146982069Y-50689444D01*
X147021507Y-50631769D01*
X147085865Y-50604571D01*
X147154712Y-50616486D01*
X147206187Y-50663730D01*
X147217929Y-50689442D01*
X147231116Y-50730025D01*
X147320476Y-50905405D01*
X147436172Y-51064646D01*
X147575354Y-51203828D01*
X147734595Y-51319524D01*
X147805314Y-51355557D01*
X147909970Y-51408882D01*
X147909972Y-51408882D01*
X147909975Y-51408884D01*
X148010317Y-51441487D01*
X148097173Y-51469709D01*
X148291578Y-51500500D01*
X148291583Y-51500500D01*
X148488422Y-51500500D01*
X148682826Y-51469709D01*
X148684337Y-51469218D01*
X148870025Y-51408884D01*
X149045405Y-51319524D01*
X149204646Y-51203828D01*
X149343828Y-51064646D01*
X149459524Y-50905405D01*
X149548884Y-50730025D01*
X149549515Y-50728787D01*
X149597489Y-50677990D01*
X149665310Y-50661195D01*
X149731445Y-50683732D01*
X149770485Y-50728787D01*
X149860474Y-50905403D01*
X149895234Y-50953246D01*
X149976172Y-51064646D01*
X150115354Y-51203828D01*
X150274595Y-51319524D01*
X150345314Y-51355557D01*
X150449970Y-51408882D01*
X150449972Y-51408882D01*
X150449975Y-51408884D01*
X150550317Y-51441487D01*
X150637173Y-51469709D01*
X150831578Y-51500500D01*
X150831583Y-51500500D01*
X151028422Y-51500500D01*
X151222826Y-51469709D01*
X151224337Y-51469218D01*
X151410025Y-51408884D01*
X151585405Y-51319524D01*
X151744646Y-51203828D01*
X151883828Y-51064646D01*
X151999524Y-50905405D01*
X152088884Y-50730025D01*
X152088884Y-50730022D01*
X152089795Y-50728236D01*
X152137769Y-50677440D01*
X152205590Y-50660644D01*
X152271725Y-50683181D01*
X152310765Y-50728235D01*
X152400904Y-50905143D01*
X152516555Y-51064321D01*
X152655678Y-51203444D01*
X152814856Y-51319095D01*
X152990162Y-51408418D01*
X153177283Y-51469218D01*
X153220000Y-51475984D01*
X153220000Y-50133012D01*
X153277007Y-50165925D01*
X153404174Y-50200000D01*
X153535826Y-50200000D01*
X153662993Y-50165925D01*
X153720000Y-50133012D01*
X153720000Y-51475983D01*
X153762716Y-51469218D01*
X153949837Y-51408418D01*
X154125143Y-51319095D01*
X154284321Y-51203444D01*
X154423444Y-51064321D01*
X154539097Y-50905141D01*
X154629234Y-50728236D01*
X154677208Y-50677439D01*
X154745029Y-50660644D01*
X154811164Y-50683181D01*
X154850204Y-50728235D01*
X154851115Y-50730024D01*
X154851116Y-50730025D01*
X154940476Y-50905405D01*
X155056172Y-51064646D01*
X155195354Y-51203828D01*
X155354595Y-51319524D01*
X155425314Y-51355557D01*
X155529970Y-51408882D01*
X155529972Y-51408882D01*
X155529975Y-51408884D01*
X155630317Y-51441487D01*
X155717173Y-51469709D01*
X155911578Y-51500500D01*
X155911583Y-51500500D01*
X156108422Y-51500500D01*
X156302826Y-51469709D01*
X156304337Y-51469218D01*
X156490025Y-51408884D01*
X156665405Y-51319524D01*
X156824646Y-51203828D01*
X156963828Y-51064646D01*
X157079524Y-50905405D01*
X157168884Y-50730025D01*
X157229709Y-50542826D01*
X157260500Y-50348422D01*
X157260500Y-49051577D01*
X157229709Y-48857173D01*
X157168882Y-48669970D01*
X157121743Y-48577455D01*
X157079524Y-48494595D01*
X156963828Y-48335354D01*
X156824646Y-48196172D01*
X156665405Y-48080476D01*
X156490029Y-47991117D01*
X156302826Y-47930290D01*
X156108422Y-47899500D01*
X156108417Y-47899500D01*
X155911583Y-47899500D01*
X155911578Y-47899500D01*
X155717173Y-47930290D01*
X155529970Y-47991117D01*
X155354594Y-48080476D01*
X155263741Y-48146485D01*
X155195354Y-48196172D01*
X155195352Y-48196174D01*
X155195351Y-48196174D01*
X155056174Y-48335351D01*
X155056174Y-48335352D01*
X155056172Y-48335354D01*
X155055937Y-48335678D01*
X154940476Y-48494594D01*
X154850204Y-48671764D01*
X154802229Y-48722560D01*
X154734408Y-48739355D01*
X154668274Y-48716818D01*
X154629234Y-48671764D01*
X154539095Y-48494856D01*
X154423444Y-48335678D01*
X154284321Y-48196555D01*
X154125143Y-48080904D01*
X153949835Y-47991581D01*
X153762705Y-47930778D01*
X153720000Y-47924014D01*
X153720000Y-49266988D01*
X153662993Y-49234075D01*
X153535826Y-49200000D01*
X153404174Y-49200000D01*
X153277007Y-49234075D01*
X153220000Y-49266988D01*
X153220000Y-47924014D01*
X153219999Y-47924014D01*
X153177294Y-47930778D01*
X152990164Y-47991581D01*
X152814856Y-48080904D01*
X152655678Y-48196555D01*
X152516555Y-48335678D01*
X152400904Y-48494856D01*
X152310765Y-48671764D01*
X152262790Y-48722560D01*
X152194969Y-48739355D01*
X152128834Y-48716817D01*
X152089795Y-48671763D01*
X151999525Y-48494596D01*
X151982144Y-48470674D01*
X151883828Y-48335354D01*
X151744646Y-48196172D01*
X151585405Y-48080476D01*
X151410029Y-47991117D01*
X151222826Y-47930290D01*
X151028422Y-47899500D01*
X151028417Y-47899500D01*
X150831583Y-47899500D01*
X150831578Y-47899500D01*
X150637173Y-47930290D01*
X150449970Y-47991117D01*
X150274594Y-48080476D01*
X150183741Y-48146485D01*
X150115354Y-48196172D01*
X150115352Y-48196174D01*
X150115351Y-48196174D01*
X149976174Y-48335351D01*
X149976174Y-48335352D01*
X149976172Y-48335354D01*
X149975937Y-48335678D01*
X149860476Y-48494594D01*
X149770485Y-48671213D01*
X149722511Y-48722009D01*
X149654690Y-48738804D01*
X149588555Y-48716267D01*
X149549515Y-48671213D01*
X149522397Y-48617992D01*
X149459524Y-48494595D01*
X149343828Y-48335354D01*
X149204646Y-48196172D01*
X149045405Y-48080476D01*
X148870029Y-47991117D01*
X148682826Y-47930290D01*
X148488422Y-47899500D01*
X148488417Y-47899500D01*
X148291583Y-47899500D01*
X148291578Y-47899500D01*
X148097173Y-47930290D01*
X147909970Y-47991117D01*
X147734594Y-48080476D01*
X147643741Y-48146485D01*
X147575354Y-48196172D01*
X147575352Y-48196174D01*
X147575351Y-48196174D01*
X147436174Y-48335351D01*
X147436174Y-48335352D01*
X147436172Y-48335354D01*
X147435937Y-48335678D01*
X147320476Y-48494594D01*
X147231117Y-48669970D01*
X147217931Y-48710555D01*
X147178493Y-48768230D01*
X147114134Y-48795428D01*
X147045288Y-48783513D01*
X146993812Y-48736268D01*
X146982069Y-48710555D01*
X146968882Y-48669970D01*
X146921743Y-48577455D01*
X146879524Y-48494595D01*
X146763828Y-48335354D01*
X146624646Y-48196172D01*
X146465405Y-48080476D01*
X146290029Y-47991117D01*
X146102826Y-47930290D01*
X145908422Y-47899500D01*
X145908417Y-47899500D01*
X145711583Y-47899500D01*
X145711578Y-47899500D01*
X145517173Y-47930290D01*
X145329970Y-47991117D01*
X145154594Y-48080476D01*
X145063741Y-48146485D01*
X144995354Y-48196172D01*
X144995352Y-48196174D01*
X144995351Y-48196174D01*
X144856174Y-48335351D01*
X144856174Y-48335352D01*
X144856172Y-48335354D01*
X144855937Y-48335678D01*
X144740476Y-48494594D01*
X144650204Y-48671764D01*
X144602229Y-48722560D01*
X144534408Y-48739355D01*
X144468274Y-48716818D01*
X144429234Y-48671764D01*
X144339095Y-48494856D01*
X144223444Y-48335678D01*
X144084321Y-48196555D01*
X143925143Y-48080904D01*
X143749835Y-47991581D01*
X143562705Y-47930778D01*
X143520000Y-47924014D01*
X143520000Y-49266988D01*
X143462993Y-49234075D01*
X143335826Y-49200000D01*
X143204174Y-49200000D01*
X143077007Y-49234075D01*
X143020000Y-49266988D01*
X143020000Y-47924014D01*
X143019999Y-47924014D01*
X142977294Y-47930778D01*
X142790164Y-47991581D01*
X142614856Y-48080904D01*
X142455678Y-48196555D01*
X142316555Y-48335678D01*
X142200904Y-48494856D01*
X142110765Y-48671764D01*
X142062790Y-48722560D01*
X141994969Y-48739355D01*
X141928834Y-48716817D01*
X141889795Y-48671763D01*
X141799525Y-48494596D01*
X141782144Y-48470674D01*
X141683828Y-48335354D01*
X141544646Y-48196172D01*
X141385405Y-48080476D01*
X141210029Y-47991117D01*
X141022826Y-47930290D01*
X140828422Y-47899500D01*
X140828417Y-47899500D01*
X140631583Y-47899500D01*
X140631578Y-47899500D01*
X140437173Y-47930290D01*
X140249970Y-47991117D01*
X140074594Y-48080476D01*
X139983741Y-48146485D01*
X139915354Y-48196172D01*
X139915352Y-48196174D01*
X139915351Y-48196174D01*
X139776174Y-48335351D01*
X139776174Y-48335352D01*
X139776172Y-48335354D01*
X139775937Y-48335678D01*
X139660476Y-48494594D01*
X139570485Y-48671213D01*
X139522511Y-48722009D01*
X139454690Y-48738804D01*
X139388555Y-48716267D01*
X139349515Y-48671213D01*
X139322397Y-48617992D01*
X139259524Y-48494595D01*
X139143828Y-48335354D01*
X139004646Y-48196172D01*
X138845405Y-48080476D01*
X138670029Y-47991117D01*
X138482826Y-47930290D01*
X138288422Y-47899500D01*
X138288417Y-47899500D01*
X138091583Y-47899500D01*
X138091578Y-47899500D01*
X137897173Y-47930290D01*
X137709970Y-47991117D01*
X137534594Y-48080476D01*
X137443741Y-48146485D01*
X137375354Y-48196172D01*
X137375352Y-48196174D01*
X137375351Y-48196174D01*
X137236174Y-48335351D01*
X137236174Y-48335352D01*
X137236172Y-48335354D01*
X137235937Y-48335678D01*
X137120476Y-48494594D01*
X137031117Y-48669970D01*
X137017931Y-48710555D01*
X136978493Y-48768230D01*
X136914134Y-48795428D01*
X136845288Y-48783513D01*
X136793812Y-48736268D01*
X136782069Y-48710555D01*
X136768882Y-48669970D01*
X136721743Y-48577455D01*
X136679524Y-48494595D01*
X136563828Y-48335354D01*
X136424646Y-48196172D01*
X136265405Y-48080476D01*
X136090029Y-47991117D01*
X135902826Y-47930290D01*
X135708422Y-47899500D01*
X135708417Y-47899500D01*
X135511583Y-47899500D01*
X135511578Y-47899500D01*
X135317173Y-47930290D01*
X135129970Y-47991117D01*
X134954594Y-48080476D01*
X134863741Y-48146485D01*
X134795354Y-48196172D01*
X134795352Y-48196174D01*
X134795351Y-48196174D01*
X134656174Y-48335351D01*
X134656174Y-48335352D01*
X134656172Y-48335354D01*
X134655937Y-48335678D01*
X134540476Y-48494594D01*
X134450204Y-48671764D01*
X134402229Y-48722560D01*
X134334408Y-48739355D01*
X134268274Y-48716818D01*
X134229234Y-48671764D01*
X134139095Y-48494856D01*
X134023444Y-48335678D01*
X133884321Y-48196555D01*
X133725143Y-48080904D01*
X133549835Y-47991581D01*
X133362705Y-47930778D01*
X133320000Y-47924014D01*
X133320000Y-49266988D01*
X133262993Y-49234075D01*
X133135826Y-49200000D01*
X133004174Y-49200000D01*
X132877007Y-49234075D01*
X132820000Y-49266988D01*
X132820000Y-47924014D01*
X132819999Y-47924014D01*
X132777294Y-47930778D01*
X132590164Y-47991581D01*
X132414856Y-48080904D01*
X132255678Y-48196555D01*
X132116555Y-48335678D01*
X132000904Y-48494856D01*
X131910765Y-48671764D01*
X131862790Y-48722560D01*
X131794969Y-48739355D01*
X131728834Y-48716817D01*
X131689795Y-48671763D01*
X131599525Y-48494596D01*
X131582144Y-48470674D01*
X131483828Y-48335354D01*
X131344646Y-48196172D01*
X131185405Y-48080476D01*
X131010029Y-47991117D01*
X130822826Y-47930290D01*
X130628422Y-47899500D01*
X130628417Y-47899500D01*
X130431583Y-47899500D01*
X130431578Y-47899500D01*
X130237173Y-47930290D01*
X130049970Y-47991117D01*
X129874594Y-48080476D01*
X129783741Y-48146485D01*
X129715354Y-48196172D01*
X129715352Y-48196174D01*
X129715351Y-48196174D01*
X129576174Y-48335351D01*
X129576174Y-48335352D01*
X129576172Y-48335354D01*
X129575937Y-48335678D01*
X129460476Y-48494594D01*
X129370485Y-48671213D01*
X129322511Y-48722009D01*
X129254690Y-48738804D01*
X129188555Y-48716267D01*
X129149515Y-48671213D01*
X129122397Y-48617992D01*
X129059524Y-48494595D01*
X128943828Y-48335354D01*
X128804646Y-48196172D01*
X128645405Y-48080476D01*
X128470029Y-47991117D01*
X128282826Y-47930290D01*
X128088422Y-47899500D01*
X128088417Y-47899500D01*
X127891583Y-47899500D01*
X127891578Y-47899500D01*
X127697173Y-47930290D01*
X127509970Y-47991117D01*
X127334594Y-48080476D01*
X127243741Y-48146485D01*
X127175354Y-48196172D01*
X127175352Y-48196174D01*
X127175351Y-48196174D01*
X127036174Y-48335351D01*
X127036174Y-48335352D01*
X127036172Y-48335354D01*
X127035937Y-48335678D01*
X126920476Y-48494594D01*
X126831117Y-48669970D01*
X126770290Y-48857173D01*
X126739500Y-49051577D01*
X52500000Y-49051577D01*
X52500000Y-44378711D01*
X54649500Y-44378711D01*
X54649500Y-44621288D01*
X54681161Y-44861785D01*
X54743947Y-45096104D01*
X54836773Y-45320205D01*
X54836776Y-45320212D01*
X54958064Y-45530289D01*
X54958066Y-45530292D01*
X54958067Y-45530293D01*
X55105733Y-45722736D01*
X55105739Y-45722743D01*
X55277256Y-45894260D01*
X55277262Y-45894265D01*
X55469711Y-46041936D01*
X55679788Y-46163224D01*
X55903900Y-46256054D01*
X56138211Y-46318838D01*
X56318586Y-46342584D01*
X56378711Y-46350500D01*
X56378712Y-46350500D01*
X56621289Y-46350500D01*
X56669388Y-46344167D01*
X56861789Y-46318838D01*
X57096100Y-46256054D01*
X57320212Y-46163224D01*
X57530289Y-46041936D01*
X57722738Y-45894265D01*
X57894265Y-45722738D01*
X58041936Y-45530289D01*
X58163224Y-45320212D01*
X58256054Y-45096100D01*
X58318838Y-44861789D01*
X58350500Y-44621288D01*
X58350500Y-44378712D01*
X58350500Y-44378711D01*
X164149500Y-44378711D01*
X164149500Y-44621288D01*
X164181161Y-44861785D01*
X164243947Y-45096104D01*
X164336773Y-45320205D01*
X164336776Y-45320212D01*
X164458064Y-45530289D01*
X164458066Y-45530292D01*
X164458067Y-45530293D01*
X164605733Y-45722736D01*
X164605739Y-45722743D01*
X164777256Y-45894260D01*
X164777262Y-45894265D01*
X164969711Y-46041936D01*
X165179788Y-46163224D01*
X165403900Y-46256054D01*
X165638211Y-46318838D01*
X165818586Y-46342584D01*
X165878711Y-46350500D01*
X165878712Y-46350500D01*
X166121289Y-46350500D01*
X166169388Y-46344167D01*
X166361789Y-46318838D01*
X166596100Y-46256054D01*
X166820212Y-46163224D01*
X167030289Y-46041936D01*
X167222738Y-45894265D01*
X167394265Y-45722738D01*
X167541936Y-45530289D01*
X167663224Y-45320212D01*
X167756054Y-45096100D01*
X167818838Y-44861789D01*
X167850500Y-44621288D01*
X167850500Y-44378712D01*
X167818838Y-44138211D01*
X167756054Y-43903900D01*
X167663224Y-43679788D01*
X167541936Y-43469711D01*
X167394265Y-43277262D01*
X167394260Y-43277256D01*
X167222743Y-43105739D01*
X167222736Y-43105733D01*
X167030293Y-42958067D01*
X167030292Y-42958066D01*
X167030289Y-42958064D01*
X166858661Y-42858974D01*
X166820214Y-42836777D01*
X166820205Y-42836773D01*
X166596104Y-42743947D01*
X166361785Y-42681161D01*
X166121289Y-42649500D01*
X166121288Y-42649500D01*
X165878712Y-42649500D01*
X165878711Y-42649500D01*
X165638214Y-42681161D01*
X165403895Y-42743947D01*
X165179794Y-42836773D01*
X165179785Y-42836777D01*
X164969706Y-42958067D01*
X164777263Y-43105733D01*
X164777256Y-43105739D01*
X164605739Y-43277256D01*
X164605733Y-43277263D01*
X164458067Y-43469706D01*
X164336777Y-43679785D01*
X164336773Y-43679794D01*
X164243947Y-43903895D01*
X164181161Y-44138214D01*
X164149500Y-44378711D01*
X58350500Y-44378711D01*
X58318838Y-44138211D01*
X58256054Y-43903900D01*
X58163224Y-43679788D01*
X58041936Y-43469711D01*
X57894265Y-43277262D01*
X57894260Y-43277256D01*
X57722743Y-43105739D01*
X57722736Y-43105733D01*
X57530293Y-42958067D01*
X57530292Y-42958066D01*
X57530289Y-42958064D01*
X57358661Y-42858974D01*
X57320214Y-42836777D01*
X57320205Y-42836773D01*
X57096104Y-42743947D01*
X56861785Y-42681161D01*
X56621289Y-42649500D01*
X56621288Y-42649500D01*
X56378712Y-42649500D01*
X56378711Y-42649500D01*
X56138214Y-42681161D01*
X55903895Y-42743947D01*
X55679794Y-42836773D01*
X55679785Y-42836777D01*
X55469706Y-42958067D01*
X55277263Y-43105733D01*
X55277256Y-43105739D01*
X55105739Y-43277256D01*
X55105733Y-43277263D01*
X54958067Y-43469706D01*
X54836777Y-43679785D01*
X54836773Y-43679794D01*
X54743947Y-43903895D01*
X54681161Y-44138214D01*
X54649500Y-44378711D01*
X52500000Y-44378711D01*
X52500000Y-40624000D01*
X52519685Y-40556961D01*
X52572489Y-40511206D01*
X52624000Y-40500000D01*
X126891767Y-40500000D01*
X126903848Y-40503547D01*
G37*
%TD.AperFunction*%
%TA.AperFunction,Conductor*%
G36*
X137724075Y-41807007D02*
G01*
X137690000Y-41934174D01*
X137690000Y-42065826D01*
X137724075Y-42192993D01*
X137756988Y-42250000D01*
X136043012Y-42250000D01*
X136075925Y-42192993D01*
X136110000Y-42065826D01*
X136110000Y-41934174D01*
X136075925Y-41807007D01*
X136043012Y-41750000D01*
X137756988Y-41750000D01*
X137724075Y-41807007D01*
G37*
%TD.AperFunction*%
%TA.AperFunction,Conductor*%
G36*
X147924075Y-41807007D02*
G01*
X147890000Y-41934174D01*
X147890000Y-42065826D01*
X147924075Y-42192993D01*
X147956988Y-42250000D01*
X146243012Y-42250000D01*
X146275925Y-42192993D01*
X146310000Y-42065826D01*
X146310000Y-41934174D01*
X146275925Y-41807007D01*
X146243012Y-41750000D01*
X147956988Y-41750000D01*
X147924075Y-41807007D01*
G37*
%TD.AperFunction*%
%TD*%
M02*
