%TF.GenerationSoftware,KiCad,Pcbnew,9.0.5-1.fc42*%
%TF.CreationDate,2025-11-19T14:29:43-05:00*%
%TF.ProjectId,fiber_control_board,66696265-725f-4636-9f6e-74726f6c5f62,rev?*%
%TF.SameCoordinates,Original*%
%TF.FileFunction,Legend,Top*%
%TF.FilePolarity,Positive*%
%FSLAX46Y46*%
G04 Gerber Fmt 4.6, Leading zero omitted, Abs format (unit mm)*
G04 Created by KiCad (PCBNEW 9.0.5-1.fc42) date 2025-11-19 14:29:43*
%MOMM*%
%LPD*%
G01*
G04 APERTURE LIST*
%ADD10C,0.300000*%
%ADD11C,0.100000*%
%ADD12C,0.150000*%
%ADD13C,0.120000*%
%ADD14C,0.130000*%
%ADD15C,0.152400*%
%ADD16C,0.000000*%
G04 APERTURE END LIST*
D10*
X56285715Y-141970870D02*
X57142858Y-141970870D01*
X56714286Y-143470870D02*
X56714286Y-141970870D01*
X57642857Y-143470870D02*
X57642857Y-142470870D01*
X57642857Y-142756584D02*
X57714286Y-142613727D01*
X57714286Y-142613727D02*
X57785715Y-142542299D01*
X57785715Y-142542299D02*
X57928572Y-142470870D01*
X57928572Y-142470870D02*
X58071429Y-142470870D01*
X58571428Y-143470870D02*
X58571428Y-142470870D01*
X58571428Y-141970870D02*
X58500000Y-142042299D01*
X58500000Y-142042299D02*
X58571428Y-142113727D01*
X58571428Y-142113727D02*
X58642857Y-142042299D01*
X58642857Y-142042299D02*
X58571428Y-141970870D01*
X58571428Y-141970870D02*
X58571428Y-142113727D01*
X59928572Y-142470870D02*
X59928572Y-143685156D01*
X59928572Y-143685156D02*
X59857143Y-143828013D01*
X59857143Y-143828013D02*
X59785714Y-143899442D01*
X59785714Y-143899442D02*
X59642857Y-143970870D01*
X59642857Y-143970870D02*
X59428572Y-143970870D01*
X59428572Y-143970870D02*
X59285714Y-143899442D01*
X59928572Y-143399442D02*
X59785714Y-143470870D01*
X59785714Y-143470870D02*
X59500000Y-143470870D01*
X59500000Y-143470870D02*
X59357143Y-143399442D01*
X59357143Y-143399442D02*
X59285714Y-143328013D01*
X59285714Y-143328013D02*
X59214286Y-143185156D01*
X59214286Y-143185156D02*
X59214286Y-142756584D01*
X59214286Y-142756584D02*
X59285714Y-142613727D01*
X59285714Y-142613727D02*
X59357143Y-142542299D01*
X59357143Y-142542299D02*
X59500000Y-142470870D01*
X59500000Y-142470870D02*
X59785714Y-142470870D01*
X59785714Y-142470870D02*
X59928572Y-142542299D01*
X61285715Y-142470870D02*
X61285715Y-143685156D01*
X61285715Y-143685156D02*
X61214286Y-143828013D01*
X61214286Y-143828013D02*
X61142857Y-143899442D01*
X61142857Y-143899442D02*
X61000000Y-143970870D01*
X61000000Y-143970870D02*
X60785715Y-143970870D01*
X60785715Y-143970870D02*
X60642857Y-143899442D01*
X61285715Y-143399442D02*
X61142857Y-143470870D01*
X61142857Y-143470870D02*
X60857143Y-143470870D01*
X60857143Y-143470870D02*
X60714286Y-143399442D01*
X60714286Y-143399442D02*
X60642857Y-143328013D01*
X60642857Y-143328013D02*
X60571429Y-143185156D01*
X60571429Y-143185156D02*
X60571429Y-142756584D01*
X60571429Y-142756584D02*
X60642857Y-142613727D01*
X60642857Y-142613727D02*
X60714286Y-142542299D01*
X60714286Y-142542299D02*
X60857143Y-142470870D01*
X60857143Y-142470870D02*
X61142857Y-142470870D01*
X61142857Y-142470870D02*
X61285715Y-142542299D01*
X62571429Y-143399442D02*
X62428572Y-143470870D01*
X62428572Y-143470870D02*
X62142858Y-143470870D01*
X62142858Y-143470870D02*
X62000000Y-143399442D01*
X62000000Y-143399442D02*
X61928572Y-143256584D01*
X61928572Y-143256584D02*
X61928572Y-142685156D01*
X61928572Y-142685156D02*
X62000000Y-142542299D01*
X62000000Y-142542299D02*
X62142858Y-142470870D01*
X62142858Y-142470870D02*
X62428572Y-142470870D01*
X62428572Y-142470870D02*
X62571429Y-142542299D01*
X62571429Y-142542299D02*
X62642858Y-142685156D01*
X62642858Y-142685156D02*
X62642858Y-142828013D01*
X62642858Y-142828013D02*
X61928572Y-142970870D01*
X63285714Y-143470870D02*
X63285714Y-142470870D01*
X63285714Y-142756584D02*
X63357143Y-142613727D01*
X63357143Y-142613727D02*
X63428572Y-142542299D01*
X63428572Y-142542299D02*
X63571429Y-142470870D01*
X63571429Y-142470870D02*
X63714286Y-142470870D01*
X59321428Y-145885786D02*
X59321428Y-144385786D01*
X60035714Y-144885786D02*
X60035714Y-145885786D01*
X60035714Y-145028643D02*
X60107143Y-144957215D01*
X60107143Y-144957215D02*
X60250000Y-144885786D01*
X60250000Y-144885786D02*
X60464286Y-144885786D01*
X60464286Y-144885786D02*
X60607143Y-144957215D01*
X60607143Y-144957215D02*
X60678572Y-145100072D01*
X60678572Y-145100072D02*
X60678572Y-145885786D01*
X61107143Y-47113727D02*
X61178571Y-47042299D01*
X61178571Y-47042299D02*
X61321429Y-46970870D01*
X61321429Y-46970870D02*
X61678571Y-46970870D01*
X61678571Y-46970870D02*
X61821429Y-47042299D01*
X61821429Y-47042299D02*
X61892857Y-47113727D01*
X61892857Y-47113727D02*
X61964286Y-47256584D01*
X61964286Y-47256584D02*
X61964286Y-47399442D01*
X61964286Y-47399442D02*
X61892857Y-47613727D01*
X61892857Y-47613727D02*
X61035714Y-48470870D01*
X61035714Y-48470870D02*
X61964286Y-48470870D01*
X62607142Y-48328013D02*
X62678571Y-48399442D01*
X62678571Y-48399442D02*
X62607142Y-48470870D01*
X62607142Y-48470870D02*
X62535714Y-48399442D01*
X62535714Y-48399442D02*
X62607142Y-48328013D01*
X62607142Y-48328013D02*
X62607142Y-48470870D01*
X64107143Y-48470870D02*
X63250000Y-48470870D01*
X63678571Y-48470870D02*
X63678571Y-46970870D01*
X63678571Y-46970870D02*
X63535714Y-47185156D01*
X63535714Y-47185156D02*
X63392857Y-47328013D01*
X63392857Y-47328013D02*
X63250000Y-47399442D01*
X64607142Y-48470870D02*
X65392857Y-47470870D01*
X64607142Y-47470870D02*
X65392857Y-48470870D01*
X66678571Y-46970870D02*
X65964285Y-46970870D01*
X65964285Y-46970870D02*
X65892857Y-47685156D01*
X65892857Y-47685156D02*
X65964285Y-47613727D01*
X65964285Y-47613727D02*
X66107143Y-47542299D01*
X66107143Y-47542299D02*
X66464285Y-47542299D01*
X66464285Y-47542299D02*
X66607143Y-47613727D01*
X66607143Y-47613727D02*
X66678571Y-47685156D01*
X66678571Y-47685156D02*
X66750000Y-47828013D01*
X66750000Y-47828013D02*
X66750000Y-48185156D01*
X66750000Y-48185156D02*
X66678571Y-48328013D01*
X66678571Y-48328013D02*
X66607143Y-48399442D01*
X66607143Y-48399442D02*
X66464285Y-48470870D01*
X66464285Y-48470870D02*
X66107143Y-48470870D01*
X66107143Y-48470870D02*
X65964285Y-48399442D01*
X65964285Y-48399442D02*
X65892857Y-48328013D01*
X67392856Y-48328013D02*
X67464285Y-48399442D01*
X67464285Y-48399442D02*
X67392856Y-48470870D01*
X67392856Y-48470870D02*
X67321428Y-48399442D01*
X67321428Y-48399442D02*
X67392856Y-48328013D01*
X67392856Y-48328013D02*
X67392856Y-48470870D01*
X68821428Y-46970870D02*
X68107142Y-46970870D01*
X68107142Y-46970870D02*
X68035714Y-47685156D01*
X68035714Y-47685156D02*
X68107142Y-47613727D01*
X68107142Y-47613727D02*
X68250000Y-47542299D01*
X68250000Y-47542299D02*
X68607142Y-47542299D01*
X68607142Y-47542299D02*
X68750000Y-47613727D01*
X68750000Y-47613727D02*
X68821428Y-47685156D01*
X68821428Y-47685156D02*
X68892857Y-47828013D01*
X68892857Y-47828013D02*
X68892857Y-48185156D01*
X68892857Y-48185156D02*
X68821428Y-48328013D01*
X68821428Y-48328013D02*
X68750000Y-48399442D01*
X68750000Y-48399442D02*
X68607142Y-48470870D01*
X68607142Y-48470870D02*
X68250000Y-48470870D01*
X68250000Y-48470870D02*
X68107142Y-48399442D01*
X68107142Y-48399442D02*
X68035714Y-48328013D01*
X69535713Y-48470870D02*
X69535713Y-47470870D01*
X69535713Y-47613727D02*
X69607142Y-47542299D01*
X69607142Y-47542299D02*
X69749999Y-47470870D01*
X69749999Y-47470870D02*
X69964285Y-47470870D01*
X69964285Y-47470870D02*
X70107142Y-47542299D01*
X70107142Y-47542299D02*
X70178571Y-47685156D01*
X70178571Y-47685156D02*
X70178571Y-48470870D01*
X70178571Y-47685156D02*
X70249999Y-47542299D01*
X70249999Y-47542299D02*
X70392856Y-47470870D01*
X70392856Y-47470870D02*
X70607142Y-47470870D01*
X70607142Y-47470870D02*
X70749999Y-47542299D01*
X70749999Y-47542299D02*
X70821428Y-47685156D01*
X70821428Y-47685156D02*
X70821428Y-48470870D01*
X71535713Y-48470870D02*
X71535713Y-47470870D01*
X71535713Y-47613727D02*
X71607142Y-47542299D01*
X71607142Y-47542299D02*
X71749999Y-47470870D01*
X71749999Y-47470870D02*
X71964285Y-47470870D01*
X71964285Y-47470870D02*
X72107142Y-47542299D01*
X72107142Y-47542299D02*
X72178571Y-47685156D01*
X72178571Y-47685156D02*
X72178571Y-48470870D01*
X72178571Y-47685156D02*
X72249999Y-47542299D01*
X72249999Y-47542299D02*
X72392856Y-47470870D01*
X72392856Y-47470870D02*
X72607142Y-47470870D01*
X72607142Y-47470870D02*
X72749999Y-47542299D01*
X72749999Y-47542299D02*
X72821428Y-47685156D01*
X72821428Y-47685156D02*
X72821428Y-48470870D01*
X66071429Y-50885786D02*
X66357143Y-50885786D01*
X66357143Y-50885786D02*
X66500000Y-50814358D01*
X66500000Y-50814358D02*
X66571429Y-50742929D01*
X66571429Y-50742929D02*
X66714286Y-50528643D01*
X66714286Y-50528643D02*
X66785715Y-50242929D01*
X66785715Y-50242929D02*
X66785715Y-49671500D01*
X66785715Y-49671500D02*
X66714286Y-49528643D01*
X66714286Y-49528643D02*
X66642858Y-49457215D01*
X66642858Y-49457215D02*
X66500000Y-49385786D01*
X66500000Y-49385786D02*
X66214286Y-49385786D01*
X66214286Y-49385786D02*
X66071429Y-49457215D01*
X66071429Y-49457215D02*
X66000000Y-49528643D01*
X66000000Y-49528643D02*
X65928572Y-49671500D01*
X65928572Y-49671500D02*
X65928572Y-50028643D01*
X65928572Y-50028643D02*
X66000000Y-50171500D01*
X66000000Y-50171500D02*
X66071429Y-50242929D01*
X66071429Y-50242929D02*
X66214286Y-50314358D01*
X66214286Y-50314358D02*
X66500000Y-50314358D01*
X66500000Y-50314358D02*
X66642858Y-50242929D01*
X66642858Y-50242929D02*
X66714286Y-50171500D01*
X66714286Y-50171500D02*
X66785715Y-50028643D01*
X67214286Y-49385786D02*
X67714286Y-50885786D01*
X67714286Y-50885786D02*
X68214286Y-49385786D01*
X148807142Y-63185156D02*
X149307142Y-63185156D01*
X149521428Y-63970870D02*
X148807142Y-63970870D01*
X148807142Y-63970870D02*
X148807142Y-62470870D01*
X148807142Y-62470870D02*
X149521428Y-62470870D01*
X150164285Y-62970870D02*
X150164285Y-63970870D01*
X150164285Y-63113727D02*
X150235714Y-63042299D01*
X150235714Y-63042299D02*
X150378571Y-62970870D01*
X150378571Y-62970870D02*
X150592857Y-62970870D01*
X150592857Y-62970870D02*
X150735714Y-63042299D01*
X150735714Y-63042299D02*
X150807143Y-63185156D01*
X150807143Y-63185156D02*
X150807143Y-63970870D01*
X152164286Y-63970870D02*
X152164286Y-63185156D01*
X152164286Y-63185156D02*
X152092857Y-63042299D01*
X152092857Y-63042299D02*
X151950000Y-62970870D01*
X151950000Y-62970870D02*
X151664286Y-62970870D01*
X151664286Y-62970870D02*
X151521428Y-63042299D01*
X152164286Y-63899442D02*
X152021428Y-63970870D01*
X152021428Y-63970870D02*
X151664286Y-63970870D01*
X151664286Y-63970870D02*
X151521428Y-63899442D01*
X151521428Y-63899442D02*
X151450000Y-63756584D01*
X151450000Y-63756584D02*
X151450000Y-63613727D01*
X151450000Y-63613727D02*
X151521428Y-63470870D01*
X151521428Y-63470870D02*
X151664286Y-63399442D01*
X151664286Y-63399442D02*
X152021428Y-63399442D01*
X152021428Y-63399442D02*
X152164286Y-63328013D01*
X152878571Y-63970870D02*
X152878571Y-62470870D01*
X152878571Y-63042299D02*
X153021429Y-62970870D01*
X153021429Y-62970870D02*
X153307143Y-62970870D01*
X153307143Y-62970870D02*
X153450000Y-63042299D01*
X153450000Y-63042299D02*
X153521429Y-63113727D01*
X153521429Y-63113727D02*
X153592857Y-63256584D01*
X153592857Y-63256584D02*
X153592857Y-63685156D01*
X153592857Y-63685156D02*
X153521429Y-63828013D01*
X153521429Y-63828013D02*
X153450000Y-63899442D01*
X153450000Y-63899442D02*
X153307143Y-63970870D01*
X153307143Y-63970870D02*
X153021429Y-63970870D01*
X153021429Y-63970870D02*
X152878571Y-63899442D01*
X154450000Y-63970870D02*
X154307143Y-63899442D01*
X154307143Y-63899442D02*
X154235714Y-63756584D01*
X154235714Y-63756584D02*
X154235714Y-62470870D01*
X155592857Y-63899442D02*
X155450000Y-63970870D01*
X155450000Y-63970870D02*
X155164286Y-63970870D01*
X155164286Y-63970870D02*
X155021428Y-63899442D01*
X155021428Y-63899442D02*
X154950000Y-63756584D01*
X154950000Y-63756584D02*
X154950000Y-63185156D01*
X154950000Y-63185156D02*
X155021428Y-63042299D01*
X155021428Y-63042299D02*
X155164286Y-62970870D01*
X155164286Y-62970870D02*
X155450000Y-62970870D01*
X155450000Y-62970870D02*
X155592857Y-63042299D01*
X155592857Y-63042299D02*
X155664286Y-63185156D01*
X155664286Y-63185156D02*
X155664286Y-63328013D01*
X155664286Y-63328013D02*
X154950000Y-63470870D01*
X150950000Y-64885786D02*
X151235714Y-64885786D01*
X151235714Y-64885786D02*
X151378571Y-64957215D01*
X151378571Y-64957215D02*
X151521428Y-65100072D01*
X151521428Y-65100072D02*
X151592857Y-65385786D01*
X151592857Y-65385786D02*
X151592857Y-65885786D01*
X151592857Y-65885786D02*
X151521428Y-66171500D01*
X151521428Y-66171500D02*
X151378571Y-66314358D01*
X151378571Y-66314358D02*
X151235714Y-66385786D01*
X151235714Y-66385786D02*
X150950000Y-66385786D01*
X150950000Y-66385786D02*
X150807143Y-66314358D01*
X150807143Y-66314358D02*
X150664285Y-66171500D01*
X150664285Y-66171500D02*
X150592857Y-65885786D01*
X150592857Y-65885786D02*
X150592857Y-65385786D01*
X150592857Y-65385786D02*
X150664285Y-65100072D01*
X150664285Y-65100072D02*
X150807143Y-64957215D01*
X150807143Y-64957215D02*
X150950000Y-64885786D01*
X152878572Y-65385786D02*
X152878572Y-66385786D01*
X152235714Y-65385786D02*
X152235714Y-66171500D01*
X152235714Y-66171500D02*
X152307143Y-66314358D01*
X152307143Y-66314358D02*
X152450000Y-66385786D01*
X152450000Y-66385786D02*
X152664286Y-66385786D01*
X152664286Y-66385786D02*
X152807143Y-66314358D01*
X152807143Y-66314358D02*
X152878572Y-66242929D01*
X153378572Y-65385786D02*
X153950000Y-65385786D01*
X153592857Y-64885786D02*
X153592857Y-66171500D01*
X153592857Y-66171500D02*
X153664286Y-66314358D01*
X153664286Y-66314358D02*
X153807143Y-66385786D01*
X153807143Y-66385786D02*
X153950000Y-66385786D01*
X58142857Y-83328013D02*
X58071429Y-83399442D01*
X58071429Y-83399442D02*
X57857143Y-83470870D01*
X57857143Y-83470870D02*
X57714286Y-83470870D01*
X57714286Y-83470870D02*
X57500000Y-83399442D01*
X57500000Y-83399442D02*
X57357143Y-83256584D01*
X57357143Y-83256584D02*
X57285714Y-83113727D01*
X57285714Y-83113727D02*
X57214286Y-82828013D01*
X57214286Y-82828013D02*
X57214286Y-82613727D01*
X57214286Y-82613727D02*
X57285714Y-82328013D01*
X57285714Y-82328013D02*
X57357143Y-82185156D01*
X57357143Y-82185156D02*
X57500000Y-82042299D01*
X57500000Y-82042299D02*
X57714286Y-81970870D01*
X57714286Y-81970870D02*
X57857143Y-81970870D01*
X57857143Y-81970870D02*
X58071429Y-82042299D01*
X58071429Y-82042299D02*
X58142857Y-82113727D01*
X59000000Y-83470870D02*
X58857143Y-83399442D01*
X58857143Y-83399442D02*
X58785714Y-83256584D01*
X58785714Y-83256584D02*
X58785714Y-81970870D01*
X59785714Y-83470870D02*
X59642857Y-83399442D01*
X59642857Y-83399442D02*
X59571428Y-83328013D01*
X59571428Y-83328013D02*
X59500000Y-83185156D01*
X59500000Y-83185156D02*
X59500000Y-82756584D01*
X59500000Y-82756584D02*
X59571428Y-82613727D01*
X59571428Y-82613727D02*
X59642857Y-82542299D01*
X59642857Y-82542299D02*
X59785714Y-82470870D01*
X59785714Y-82470870D02*
X60000000Y-82470870D01*
X60000000Y-82470870D02*
X60142857Y-82542299D01*
X60142857Y-82542299D02*
X60214286Y-82613727D01*
X60214286Y-82613727D02*
X60285714Y-82756584D01*
X60285714Y-82756584D02*
X60285714Y-83185156D01*
X60285714Y-83185156D02*
X60214286Y-83328013D01*
X60214286Y-83328013D02*
X60142857Y-83399442D01*
X60142857Y-83399442D02*
X60000000Y-83470870D01*
X60000000Y-83470870D02*
X59785714Y-83470870D01*
X61571429Y-83399442D02*
X61428571Y-83470870D01*
X61428571Y-83470870D02*
X61142857Y-83470870D01*
X61142857Y-83470870D02*
X61000000Y-83399442D01*
X61000000Y-83399442D02*
X60928571Y-83328013D01*
X60928571Y-83328013D02*
X60857143Y-83185156D01*
X60857143Y-83185156D02*
X60857143Y-82756584D01*
X60857143Y-82756584D02*
X60928571Y-82613727D01*
X60928571Y-82613727D02*
X61000000Y-82542299D01*
X61000000Y-82542299D02*
X61142857Y-82470870D01*
X61142857Y-82470870D02*
X61428571Y-82470870D01*
X61428571Y-82470870D02*
X61571429Y-82542299D01*
X62214285Y-83470870D02*
X62214285Y-81970870D01*
X62357143Y-82899442D02*
X62785714Y-83470870D01*
X62785714Y-82470870D02*
X62214285Y-83042299D01*
X59321428Y-85885786D02*
X59321428Y-84385786D01*
X60035714Y-84885786D02*
X60035714Y-85885786D01*
X60035714Y-85028643D02*
X60107143Y-84957215D01*
X60107143Y-84957215D02*
X60250000Y-84885786D01*
X60250000Y-84885786D02*
X60464286Y-84885786D01*
X60464286Y-84885786D02*
X60607143Y-84957215D01*
X60607143Y-84957215D02*
X60678572Y-85100072D01*
X60678572Y-85100072D02*
X60678572Y-85885786D01*
X140142857Y-63828013D02*
X140071429Y-63899442D01*
X140071429Y-63899442D02*
X139857143Y-63970870D01*
X139857143Y-63970870D02*
X139714286Y-63970870D01*
X139714286Y-63970870D02*
X139500000Y-63899442D01*
X139500000Y-63899442D02*
X139357143Y-63756584D01*
X139357143Y-63756584D02*
X139285714Y-63613727D01*
X139285714Y-63613727D02*
X139214286Y-63328013D01*
X139214286Y-63328013D02*
X139214286Y-63113727D01*
X139214286Y-63113727D02*
X139285714Y-62828013D01*
X139285714Y-62828013D02*
X139357143Y-62685156D01*
X139357143Y-62685156D02*
X139500000Y-62542299D01*
X139500000Y-62542299D02*
X139714286Y-62470870D01*
X139714286Y-62470870D02*
X139857143Y-62470870D01*
X139857143Y-62470870D02*
X140071429Y-62542299D01*
X140071429Y-62542299D02*
X140142857Y-62613727D01*
X141000000Y-63970870D02*
X140857143Y-63899442D01*
X140857143Y-63899442D02*
X140785714Y-63756584D01*
X140785714Y-63756584D02*
X140785714Y-62470870D01*
X141785714Y-63970870D02*
X141642857Y-63899442D01*
X141642857Y-63899442D02*
X141571428Y-63828013D01*
X141571428Y-63828013D02*
X141500000Y-63685156D01*
X141500000Y-63685156D02*
X141500000Y-63256584D01*
X141500000Y-63256584D02*
X141571428Y-63113727D01*
X141571428Y-63113727D02*
X141642857Y-63042299D01*
X141642857Y-63042299D02*
X141785714Y-62970870D01*
X141785714Y-62970870D02*
X142000000Y-62970870D01*
X142000000Y-62970870D02*
X142142857Y-63042299D01*
X142142857Y-63042299D02*
X142214286Y-63113727D01*
X142214286Y-63113727D02*
X142285714Y-63256584D01*
X142285714Y-63256584D02*
X142285714Y-63685156D01*
X142285714Y-63685156D02*
X142214286Y-63828013D01*
X142214286Y-63828013D02*
X142142857Y-63899442D01*
X142142857Y-63899442D02*
X142000000Y-63970870D01*
X142000000Y-63970870D02*
X141785714Y-63970870D01*
X143571429Y-63899442D02*
X143428571Y-63970870D01*
X143428571Y-63970870D02*
X143142857Y-63970870D01*
X143142857Y-63970870D02*
X143000000Y-63899442D01*
X143000000Y-63899442D02*
X142928571Y-63828013D01*
X142928571Y-63828013D02*
X142857143Y-63685156D01*
X142857143Y-63685156D02*
X142857143Y-63256584D01*
X142857143Y-63256584D02*
X142928571Y-63113727D01*
X142928571Y-63113727D02*
X143000000Y-63042299D01*
X143000000Y-63042299D02*
X143142857Y-62970870D01*
X143142857Y-62970870D02*
X143428571Y-62970870D01*
X143428571Y-62970870D02*
X143571429Y-63042299D01*
X144214285Y-63970870D02*
X144214285Y-62470870D01*
X144357143Y-63399442D02*
X144785714Y-63970870D01*
X144785714Y-62970870D02*
X144214285Y-63542299D01*
X140750000Y-64885786D02*
X141035714Y-64885786D01*
X141035714Y-64885786D02*
X141178571Y-64957215D01*
X141178571Y-64957215D02*
X141321428Y-65100072D01*
X141321428Y-65100072D02*
X141392857Y-65385786D01*
X141392857Y-65385786D02*
X141392857Y-65885786D01*
X141392857Y-65885786D02*
X141321428Y-66171500D01*
X141321428Y-66171500D02*
X141178571Y-66314358D01*
X141178571Y-66314358D02*
X141035714Y-66385786D01*
X141035714Y-66385786D02*
X140750000Y-66385786D01*
X140750000Y-66385786D02*
X140607143Y-66314358D01*
X140607143Y-66314358D02*
X140464285Y-66171500D01*
X140464285Y-66171500D02*
X140392857Y-65885786D01*
X140392857Y-65885786D02*
X140392857Y-65385786D01*
X140392857Y-65385786D02*
X140464285Y-65100072D01*
X140464285Y-65100072D02*
X140607143Y-64957215D01*
X140607143Y-64957215D02*
X140750000Y-64885786D01*
X142678572Y-65385786D02*
X142678572Y-66385786D01*
X142035714Y-65385786D02*
X142035714Y-66171500D01*
X142035714Y-66171500D02*
X142107143Y-66314358D01*
X142107143Y-66314358D02*
X142250000Y-66385786D01*
X142250000Y-66385786D02*
X142464286Y-66385786D01*
X142464286Y-66385786D02*
X142607143Y-66314358D01*
X142607143Y-66314358D02*
X142678572Y-66242929D01*
X143178572Y-65385786D02*
X143750000Y-65385786D01*
X143392857Y-64885786D02*
X143392857Y-66171500D01*
X143392857Y-66171500D02*
X143464286Y-66314358D01*
X143464286Y-66314358D02*
X143607143Y-66385786D01*
X143607143Y-66385786D02*
X143750000Y-66385786D01*
X128085715Y-62470870D02*
X128942858Y-62470870D01*
X128514286Y-63970870D02*
X128514286Y-62470870D01*
X129442857Y-63970870D02*
X129442857Y-62970870D01*
X129442857Y-63256584D02*
X129514286Y-63113727D01*
X129514286Y-63113727D02*
X129585715Y-63042299D01*
X129585715Y-63042299D02*
X129728572Y-62970870D01*
X129728572Y-62970870D02*
X129871429Y-62970870D01*
X130371428Y-63970870D02*
X130371428Y-62970870D01*
X130371428Y-62470870D02*
X130300000Y-62542299D01*
X130300000Y-62542299D02*
X130371428Y-62613727D01*
X130371428Y-62613727D02*
X130442857Y-62542299D01*
X130442857Y-62542299D02*
X130371428Y-62470870D01*
X130371428Y-62470870D02*
X130371428Y-62613727D01*
X131728572Y-62970870D02*
X131728572Y-64185156D01*
X131728572Y-64185156D02*
X131657143Y-64328013D01*
X131657143Y-64328013D02*
X131585714Y-64399442D01*
X131585714Y-64399442D02*
X131442857Y-64470870D01*
X131442857Y-64470870D02*
X131228572Y-64470870D01*
X131228572Y-64470870D02*
X131085714Y-64399442D01*
X131728572Y-63899442D02*
X131585714Y-63970870D01*
X131585714Y-63970870D02*
X131300000Y-63970870D01*
X131300000Y-63970870D02*
X131157143Y-63899442D01*
X131157143Y-63899442D02*
X131085714Y-63828013D01*
X131085714Y-63828013D02*
X131014286Y-63685156D01*
X131014286Y-63685156D02*
X131014286Y-63256584D01*
X131014286Y-63256584D02*
X131085714Y-63113727D01*
X131085714Y-63113727D02*
X131157143Y-63042299D01*
X131157143Y-63042299D02*
X131300000Y-62970870D01*
X131300000Y-62970870D02*
X131585714Y-62970870D01*
X131585714Y-62970870D02*
X131728572Y-63042299D01*
X133085715Y-62970870D02*
X133085715Y-64185156D01*
X133085715Y-64185156D02*
X133014286Y-64328013D01*
X133014286Y-64328013D02*
X132942857Y-64399442D01*
X132942857Y-64399442D02*
X132800000Y-64470870D01*
X132800000Y-64470870D02*
X132585715Y-64470870D01*
X132585715Y-64470870D02*
X132442857Y-64399442D01*
X133085715Y-63899442D02*
X132942857Y-63970870D01*
X132942857Y-63970870D02*
X132657143Y-63970870D01*
X132657143Y-63970870D02*
X132514286Y-63899442D01*
X132514286Y-63899442D02*
X132442857Y-63828013D01*
X132442857Y-63828013D02*
X132371429Y-63685156D01*
X132371429Y-63685156D02*
X132371429Y-63256584D01*
X132371429Y-63256584D02*
X132442857Y-63113727D01*
X132442857Y-63113727D02*
X132514286Y-63042299D01*
X132514286Y-63042299D02*
X132657143Y-62970870D01*
X132657143Y-62970870D02*
X132942857Y-62970870D01*
X132942857Y-62970870D02*
X133085715Y-63042299D01*
X134371429Y-63899442D02*
X134228572Y-63970870D01*
X134228572Y-63970870D02*
X133942858Y-63970870D01*
X133942858Y-63970870D02*
X133800000Y-63899442D01*
X133800000Y-63899442D02*
X133728572Y-63756584D01*
X133728572Y-63756584D02*
X133728572Y-63185156D01*
X133728572Y-63185156D02*
X133800000Y-63042299D01*
X133800000Y-63042299D02*
X133942858Y-62970870D01*
X133942858Y-62970870D02*
X134228572Y-62970870D01*
X134228572Y-62970870D02*
X134371429Y-63042299D01*
X134371429Y-63042299D02*
X134442858Y-63185156D01*
X134442858Y-63185156D02*
X134442858Y-63328013D01*
X134442858Y-63328013D02*
X133728572Y-63470870D01*
X135085714Y-63970870D02*
X135085714Y-62970870D01*
X135085714Y-63256584D02*
X135157143Y-63113727D01*
X135157143Y-63113727D02*
X135228572Y-63042299D01*
X135228572Y-63042299D02*
X135371429Y-62970870D01*
X135371429Y-62970870D02*
X135514286Y-62970870D01*
X130550000Y-64885786D02*
X130835714Y-64885786D01*
X130835714Y-64885786D02*
X130978571Y-64957215D01*
X130978571Y-64957215D02*
X131121428Y-65100072D01*
X131121428Y-65100072D02*
X131192857Y-65385786D01*
X131192857Y-65385786D02*
X131192857Y-65885786D01*
X131192857Y-65885786D02*
X131121428Y-66171500D01*
X131121428Y-66171500D02*
X130978571Y-66314358D01*
X130978571Y-66314358D02*
X130835714Y-66385786D01*
X130835714Y-66385786D02*
X130550000Y-66385786D01*
X130550000Y-66385786D02*
X130407143Y-66314358D01*
X130407143Y-66314358D02*
X130264285Y-66171500D01*
X130264285Y-66171500D02*
X130192857Y-65885786D01*
X130192857Y-65885786D02*
X130192857Y-65385786D01*
X130192857Y-65385786D02*
X130264285Y-65100072D01*
X130264285Y-65100072D02*
X130407143Y-64957215D01*
X130407143Y-64957215D02*
X130550000Y-64885786D01*
X132478572Y-65385786D02*
X132478572Y-66385786D01*
X131835714Y-65385786D02*
X131835714Y-66171500D01*
X131835714Y-66171500D02*
X131907143Y-66314358D01*
X131907143Y-66314358D02*
X132050000Y-66385786D01*
X132050000Y-66385786D02*
X132264286Y-66385786D01*
X132264286Y-66385786D02*
X132407143Y-66314358D01*
X132407143Y-66314358D02*
X132478572Y-66242929D01*
X132978572Y-65385786D02*
X133550000Y-65385786D01*
X133192857Y-64885786D02*
X133192857Y-66171500D01*
X133192857Y-66171500D02*
X133264286Y-66314358D01*
X133264286Y-66314358D02*
X133407143Y-66385786D01*
X133407143Y-66385786D02*
X133550000Y-66385786D01*
D11*
X155662694Y-68399328D02*
X155805551Y-68446947D01*
X155805551Y-68446947D02*
X156043646Y-68446947D01*
X156043646Y-68446947D02*
X156138884Y-68399328D01*
X156138884Y-68399328D02*
X156186503Y-68351708D01*
X156186503Y-68351708D02*
X156234122Y-68256470D01*
X156234122Y-68256470D02*
X156234122Y-68161232D01*
X156234122Y-68161232D02*
X156186503Y-68065994D01*
X156186503Y-68065994D02*
X156138884Y-68018375D01*
X156138884Y-68018375D02*
X156043646Y-67970756D01*
X156043646Y-67970756D02*
X155853170Y-67923137D01*
X155853170Y-67923137D02*
X155757932Y-67875518D01*
X155757932Y-67875518D02*
X155710313Y-67827899D01*
X155710313Y-67827899D02*
X155662694Y-67732661D01*
X155662694Y-67732661D02*
X155662694Y-67637423D01*
X155662694Y-67637423D02*
X155710313Y-67542185D01*
X155710313Y-67542185D02*
X155757932Y-67494566D01*
X155757932Y-67494566D02*
X155853170Y-67446947D01*
X155853170Y-67446947D02*
X156091265Y-67446947D01*
X156091265Y-67446947D02*
X156234122Y-67494566D01*
X156567456Y-67446947D02*
X156805551Y-68446947D01*
X156805551Y-68446947D02*
X156996027Y-67732661D01*
X156996027Y-67732661D02*
X157186503Y-68446947D01*
X157186503Y-68446947D02*
X157424599Y-67446947D01*
X158234122Y-67780280D02*
X158234122Y-68446947D01*
X157996027Y-67399328D02*
X157757932Y-68113613D01*
X157757932Y-68113613D02*
X158376979Y-68113613D01*
X79618327Y-145926776D02*
X79665946Y-145783919D01*
X79665946Y-145783919D02*
X79665946Y-145545824D01*
X79665946Y-145545824D02*
X79618327Y-145450586D01*
X79618327Y-145450586D02*
X79570707Y-145402967D01*
X79570707Y-145402967D02*
X79475469Y-145355348D01*
X79475469Y-145355348D02*
X79380231Y-145355348D01*
X79380231Y-145355348D02*
X79284993Y-145402967D01*
X79284993Y-145402967D02*
X79237374Y-145450586D01*
X79237374Y-145450586D02*
X79189755Y-145545824D01*
X79189755Y-145545824D02*
X79142136Y-145736300D01*
X79142136Y-145736300D02*
X79094517Y-145831538D01*
X79094517Y-145831538D02*
X79046898Y-145879157D01*
X79046898Y-145879157D02*
X78951660Y-145926776D01*
X78951660Y-145926776D02*
X78856422Y-145926776D01*
X78856422Y-145926776D02*
X78761184Y-145879157D01*
X78761184Y-145879157D02*
X78713565Y-145831538D01*
X78713565Y-145831538D02*
X78665946Y-145736300D01*
X78665946Y-145736300D02*
X78665946Y-145498205D01*
X78665946Y-145498205D02*
X78713565Y-145355348D01*
X78665946Y-145022014D02*
X79665946Y-144783919D01*
X79665946Y-144783919D02*
X78951660Y-144593443D01*
X78951660Y-144593443D02*
X79665946Y-144402967D01*
X79665946Y-144402967D02*
X78665946Y-144164872D01*
X78665946Y-143879157D02*
X78665946Y-143260110D01*
X78665946Y-143260110D02*
X79046898Y-143593443D01*
X79046898Y-143593443D02*
X79046898Y-143450586D01*
X79046898Y-143450586D02*
X79094517Y-143355348D01*
X79094517Y-143355348D02*
X79142136Y-143307729D01*
X79142136Y-143307729D02*
X79237374Y-143260110D01*
X79237374Y-143260110D02*
X79475469Y-143260110D01*
X79475469Y-143260110D02*
X79570707Y-143307729D01*
X79570707Y-143307729D02*
X79618327Y-143355348D01*
X79618327Y-143355348D02*
X79665946Y-143450586D01*
X79665946Y-143450586D02*
X79665946Y-143736300D01*
X79665946Y-143736300D02*
X79618327Y-143831538D01*
X79618327Y-143831538D02*
X79570707Y-143879157D01*
X80291434Y-150212686D02*
X80243815Y-150260305D01*
X80243815Y-150260305D02*
X80100958Y-150355543D01*
X80100958Y-150355543D02*
X80005720Y-150403162D01*
X80005720Y-150403162D02*
X79862863Y-150450781D01*
X79862863Y-150450781D02*
X79624767Y-150498400D01*
X79624767Y-150498400D02*
X79434291Y-150498400D01*
X79434291Y-150498400D02*
X79196196Y-150450781D01*
X79196196Y-150450781D02*
X79053339Y-150403162D01*
X79053339Y-150403162D02*
X78958101Y-150355543D01*
X78958101Y-150355543D02*
X78815243Y-150260305D01*
X78815243Y-150260305D02*
X78767624Y-150212686D01*
X79624767Y-149879352D02*
X79624767Y-149403162D01*
X79910482Y-149974590D02*
X78910482Y-149641257D01*
X78910482Y-149641257D02*
X79910482Y-149307924D01*
X80291434Y-149069828D02*
X80243815Y-149022209D01*
X80243815Y-149022209D02*
X80100958Y-148926971D01*
X80100958Y-148926971D02*
X80005720Y-148879352D01*
X80005720Y-148879352D02*
X79862863Y-148831733D01*
X79862863Y-148831733D02*
X79624767Y-148784114D01*
X79624767Y-148784114D02*
X79434291Y-148784114D01*
X79434291Y-148784114D02*
X79196196Y-148831733D01*
X79196196Y-148831733D02*
X79053339Y-148879352D01*
X79053339Y-148879352D02*
X78958101Y-148926971D01*
X78958101Y-148926971D02*
X78815243Y-149022209D01*
X78815243Y-149022209D02*
X78767624Y-149069828D01*
X80314264Y-140277144D02*
X80266645Y-140324763D01*
X80266645Y-140324763D02*
X80123788Y-140420001D01*
X80123788Y-140420001D02*
X80028550Y-140467620D01*
X80028550Y-140467620D02*
X79885693Y-140515239D01*
X79885693Y-140515239D02*
X79647597Y-140562858D01*
X79647597Y-140562858D02*
X79457121Y-140562858D01*
X79457121Y-140562858D02*
X79219026Y-140515239D01*
X79219026Y-140515239D02*
X79076169Y-140467620D01*
X79076169Y-140467620D02*
X78980931Y-140420001D01*
X78980931Y-140420001D02*
X78838073Y-140324763D01*
X78838073Y-140324763D02*
X78790454Y-140277144D01*
X79409502Y-139562858D02*
X79457121Y-139420001D01*
X79457121Y-139420001D02*
X79504740Y-139372382D01*
X79504740Y-139372382D02*
X79599978Y-139324763D01*
X79599978Y-139324763D02*
X79742835Y-139324763D01*
X79742835Y-139324763D02*
X79838073Y-139372382D01*
X79838073Y-139372382D02*
X79885693Y-139420001D01*
X79885693Y-139420001D02*
X79933312Y-139515239D01*
X79933312Y-139515239D02*
X79933312Y-139896191D01*
X79933312Y-139896191D02*
X78933312Y-139896191D01*
X78933312Y-139896191D02*
X78933312Y-139562858D01*
X78933312Y-139562858D02*
X78980931Y-139467620D01*
X78980931Y-139467620D02*
X79028550Y-139420001D01*
X79028550Y-139420001D02*
X79123788Y-139372382D01*
X79123788Y-139372382D02*
X79219026Y-139372382D01*
X79219026Y-139372382D02*
X79314264Y-139420001D01*
X79314264Y-139420001D02*
X79361883Y-139467620D01*
X79361883Y-139467620D02*
X79409502Y-139562858D01*
X79409502Y-139562858D02*
X79409502Y-139896191D01*
X80314264Y-138991429D02*
X80266645Y-138943810D01*
X80266645Y-138943810D02*
X80123788Y-138848572D01*
X80123788Y-138848572D02*
X80028550Y-138800953D01*
X80028550Y-138800953D02*
X79885693Y-138753334D01*
X79885693Y-138753334D02*
X79647597Y-138705715D01*
X79647597Y-138705715D02*
X79457121Y-138705715D01*
X79457121Y-138705715D02*
X79219026Y-138753334D01*
X79219026Y-138753334D02*
X79076169Y-138800953D01*
X79076169Y-138800953D02*
X78980931Y-138848572D01*
X78980931Y-138848572D02*
X78838073Y-138943810D01*
X78838073Y-138943810D02*
X78790454Y-138991429D01*
D12*
X69064580Y-69666666D02*
X69112200Y-69714285D01*
X69112200Y-69714285D02*
X69159819Y-69857142D01*
X69159819Y-69857142D02*
X69159819Y-69952380D01*
X69159819Y-69952380D02*
X69112200Y-70095237D01*
X69112200Y-70095237D02*
X69016961Y-70190475D01*
X69016961Y-70190475D02*
X68921723Y-70238094D01*
X68921723Y-70238094D02*
X68731247Y-70285713D01*
X68731247Y-70285713D02*
X68588390Y-70285713D01*
X68588390Y-70285713D02*
X68397914Y-70238094D01*
X68397914Y-70238094D02*
X68302676Y-70190475D01*
X68302676Y-70190475D02*
X68207438Y-70095237D01*
X68207438Y-70095237D02*
X68159819Y-69952380D01*
X68159819Y-69952380D02*
X68159819Y-69857142D01*
X68159819Y-69857142D02*
X68207438Y-69714285D01*
X68207438Y-69714285D02*
X68255057Y-69666666D01*
X68493152Y-68809523D02*
X69159819Y-68809523D01*
X68112200Y-69047618D02*
X68826485Y-69285713D01*
X68826485Y-69285713D02*
X68826485Y-68666666D01*
X160833333Y-65454819D02*
X160500000Y-64978628D01*
X160261905Y-65454819D02*
X160261905Y-64454819D01*
X160261905Y-64454819D02*
X160642857Y-64454819D01*
X160642857Y-64454819D02*
X160738095Y-64502438D01*
X160738095Y-64502438D02*
X160785714Y-64550057D01*
X160785714Y-64550057D02*
X160833333Y-64645295D01*
X160833333Y-64645295D02*
X160833333Y-64788152D01*
X160833333Y-64788152D02*
X160785714Y-64883390D01*
X160785714Y-64883390D02*
X160738095Y-64931009D01*
X160738095Y-64931009D02*
X160642857Y-64978628D01*
X160642857Y-64978628D02*
X160261905Y-64978628D01*
X161166667Y-64454819D02*
X161833333Y-64454819D01*
X161833333Y-64454819D02*
X161404762Y-65454819D01*
X128754819Y-60166666D02*
X128754819Y-60642856D01*
X128754819Y-60642856D02*
X127754819Y-60642856D01*
X127850057Y-59880951D02*
X127802438Y-59833332D01*
X127802438Y-59833332D02*
X127754819Y-59738094D01*
X127754819Y-59738094D02*
X127754819Y-59499999D01*
X127754819Y-59499999D02*
X127802438Y-59404761D01*
X127802438Y-59404761D02*
X127850057Y-59357142D01*
X127850057Y-59357142D02*
X127945295Y-59309523D01*
X127945295Y-59309523D02*
X128040533Y-59309523D01*
X128040533Y-59309523D02*
X128183390Y-59357142D01*
X128183390Y-59357142D02*
X128754819Y-59928570D01*
X128754819Y-59928570D02*
X128754819Y-59309523D01*
D11*
X106761905Y-132457419D02*
X106761905Y-131457419D01*
X106761905Y-131457419D02*
X107000000Y-131457419D01*
X107000000Y-131457419D02*
X107142857Y-131505038D01*
X107142857Y-131505038D02*
X107238095Y-131600276D01*
X107238095Y-131600276D02*
X107285714Y-131695514D01*
X107285714Y-131695514D02*
X107333333Y-131885990D01*
X107333333Y-131885990D02*
X107333333Y-132028847D01*
X107333333Y-132028847D02*
X107285714Y-132219323D01*
X107285714Y-132219323D02*
X107238095Y-132314561D01*
X107238095Y-132314561D02*
X107142857Y-132409800D01*
X107142857Y-132409800D02*
X107000000Y-132457419D01*
X107000000Y-132457419D02*
X106761905Y-132457419D01*
X108238095Y-131457419D02*
X107761905Y-131457419D01*
X107761905Y-131457419D02*
X107714286Y-131933609D01*
X107714286Y-131933609D02*
X107761905Y-131885990D01*
X107761905Y-131885990D02*
X107857143Y-131838371D01*
X107857143Y-131838371D02*
X108095238Y-131838371D01*
X108095238Y-131838371D02*
X108190476Y-131885990D01*
X108190476Y-131885990D02*
X108238095Y-131933609D01*
X108238095Y-131933609D02*
X108285714Y-132028847D01*
X108285714Y-132028847D02*
X108285714Y-132266942D01*
X108285714Y-132266942D02*
X108238095Y-132362180D01*
X108238095Y-132362180D02*
X108190476Y-132409800D01*
X108190476Y-132409800D02*
X108095238Y-132457419D01*
X108095238Y-132457419D02*
X107857143Y-132457419D01*
X107857143Y-132457419D02*
X107761905Y-132409800D01*
X107761905Y-132409800D02*
X107714286Y-132362180D01*
D12*
X114452380Y-131454819D02*
X115023808Y-131454819D01*
X114738094Y-132454819D02*
X114738094Y-131454819D01*
X115357142Y-132454819D02*
X115357142Y-131788152D01*
X115357142Y-131978628D02*
X115404761Y-131883390D01*
X115404761Y-131883390D02*
X115452380Y-131835771D01*
X115452380Y-131835771D02*
X115547618Y-131788152D01*
X115547618Y-131788152D02*
X115642856Y-131788152D01*
X115976190Y-132454819D02*
X115976190Y-131788152D01*
X115976190Y-131454819D02*
X115928571Y-131502438D01*
X115928571Y-131502438D02*
X115976190Y-131550057D01*
X115976190Y-131550057D02*
X116023809Y-131502438D01*
X116023809Y-131502438D02*
X115976190Y-131454819D01*
X115976190Y-131454819D02*
X115976190Y-131550057D01*
X116880951Y-131788152D02*
X116880951Y-132597676D01*
X116880951Y-132597676D02*
X116833332Y-132692914D01*
X116833332Y-132692914D02*
X116785713Y-132740533D01*
X116785713Y-132740533D02*
X116690475Y-132788152D01*
X116690475Y-132788152D02*
X116547618Y-132788152D01*
X116547618Y-132788152D02*
X116452380Y-132740533D01*
X116880951Y-132407200D02*
X116785713Y-132454819D01*
X116785713Y-132454819D02*
X116595237Y-132454819D01*
X116595237Y-132454819D02*
X116499999Y-132407200D01*
X116499999Y-132407200D02*
X116452380Y-132359580D01*
X116452380Y-132359580D02*
X116404761Y-132264342D01*
X116404761Y-132264342D02*
X116404761Y-131978628D01*
X116404761Y-131978628D02*
X116452380Y-131883390D01*
X116452380Y-131883390D02*
X116499999Y-131835771D01*
X116499999Y-131835771D02*
X116595237Y-131788152D01*
X116595237Y-131788152D02*
X116785713Y-131788152D01*
X116785713Y-131788152D02*
X116880951Y-131835771D01*
X117119047Y-132550057D02*
X117880951Y-132550057D01*
X118309523Y-131454819D02*
X118499999Y-131454819D01*
X118499999Y-131454819D02*
X118595237Y-131502438D01*
X118595237Y-131502438D02*
X118690475Y-131597676D01*
X118690475Y-131597676D02*
X118738094Y-131788152D01*
X118738094Y-131788152D02*
X118738094Y-132121485D01*
X118738094Y-132121485D02*
X118690475Y-132311961D01*
X118690475Y-132311961D02*
X118595237Y-132407200D01*
X118595237Y-132407200D02*
X118499999Y-132454819D01*
X118499999Y-132454819D02*
X118309523Y-132454819D01*
X118309523Y-132454819D02*
X118214285Y-132407200D01*
X118214285Y-132407200D02*
X118119047Y-132311961D01*
X118119047Y-132311961D02*
X118071428Y-132121485D01*
X118071428Y-132121485D02*
X118071428Y-131788152D01*
X118071428Y-131788152D02*
X118119047Y-131597676D01*
X118119047Y-131597676D02*
X118214285Y-131502438D01*
X118214285Y-131502438D02*
X118309523Y-131454819D01*
X119166666Y-131788152D02*
X119166666Y-132788152D01*
X119166666Y-131835771D02*
X119261904Y-131788152D01*
X119261904Y-131788152D02*
X119452380Y-131788152D01*
X119452380Y-131788152D02*
X119547618Y-131835771D01*
X119547618Y-131835771D02*
X119595237Y-131883390D01*
X119595237Y-131883390D02*
X119642856Y-131978628D01*
X119642856Y-131978628D02*
X119642856Y-132264342D01*
X119642856Y-132264342D02*
X119595237Y-132359580D01*
X119595237Y-132359580D02*
X119547618Y-132407200D01*
X119547618Y-132407200D02*
X119452380Y-132454819D01*
X119452380Y-132454819D02*
X119261904Y-132454819D01*
X119261904Y-132454819D02*
X119166666Y-132407200D01*
X119928571Y-131788152D02*
X120309523Y-131788152D01*
X120071428Y-131454819D02*
X120071428Y-132311961D01*
X120071428Y-132311961D02*
X120119047Y-132407200D01*
X120119047Y-132407200D02*
X120214285Y-132454819D01*
X120214285Y-132454819D02*
X120309523Y-132454819D01*
X120404762Y-132550057D02*
X121166666Y-132550057D01*
X121880952Y-132454819D02*
X121404762Y-132454819D01*
X121404762Y-132454819D02*
X121404762Y-131454819D01*
X122214286Y-131931009D02*
X122547619Y-131931009D01*
X122690476Y-132454819D02*
X122214286Y-132454819D01*
X122214286Y-132454819D02*
X122214286Y-131454819D01*
X122214286Y-131454819D02*
X122690476Y-131454819D01*
X123119048Y-132454819D02*
X123119048Y-131454819D01*
X123119048Y-131454819D02*
X123357143Y-131454819D01*
X123357143Y-131454819D02*
X123500000Y-131502438D01*
X123500000Y-131502438D02*
X123595238Y-131597676D01*
X123595238Y-131597676D02*
X123642857Y-131692914D01*
X123642857Y-131692914D02*
X123690476Y-131883390D01*
X123690476Y-131883390D02*
X123690476Y-132026247D01*
X123690476Y-132026247D02*
X123642857Y-132216723D01*
X123642857Y-132216723D02*
X123595238Y-132311961D01*
X123595238Y-132311961D02*
X123500000Y-132407200D01*
X123500000Y-132407200D02*
X123357143Y-132454819D01*
X123357143Y-132454819D02*
X123119048Y-132454819D01*
X123880953Y-132550057D02*
X124642857Y-132550057D01*
X125404762Y-131502438D02*
X125309524Y-131454819D01*
X125309524Y-131454819D02*
X125166667Y-131454819D01*
X125166667Y-131454819D02*
X125023810Y-131502438D01*
X125023810Y-131502438D02*
X124928572Y-131597676D01*
X124928572Y-131597676D02*
X124880953Y-131692914D01*
X124880953Y-131692914D02*
X124833334Y-131883390D01*
X124833334Y-131883390D02*
X124833334Y-132026247D01*
X124833334Y-132026247D02*
X124880953Y-132216723D01*
X124880953Y-132216723D02*
X124928572Y-132311961D01*
X124928572Y-132311961D02*
X125023810Y-132407200D01*
X125023810Y-132407200D02*
X125166667Y-132454819D01*
X125166667Y-132454819D02*
X125261905Y-132454819D01*
X125261905Y-132454819D02*
X125404762Y-132407200D01*
X125404762Y-132407200D02*
X125452381Y-132359580D01*
X125452381Y-132359580D02*
X125452381Y-132026247D01*
X125452381Y-132026247D02*
X125261905Y-132026247D01*
X149154819Y-60166666D02*
X149154819Y-60642856D01*
X149154819Y-60642856D02*
X148154819Y-60642856D01*
X148154819Y-59357142D02*
X148154819Y-59833332D01*
X148154819Y-59833332D02*
X148631009Y-59880951D01*
X148631009Y-59880951D02*
X148583390Y-59833332D01*
X148583390Y-59833332D02*
X148535771Y-59738094D01*
X148535771Y-59738094D02*
X148535771Y-59499999D01*
X148535771Y-59499999D02*
X148583390Y-59404761D01*
X148583390Y-59404761D02*
X148631009Y-59357142D01*
X148631009Y-59357142D02*
X148726247Y-59309523D01*
X148726247Y-59309523D02*
X148964342Y-59309523D01*
X148964342Y-59309523D02*
X149059580Y-59357142D01*
X149059580Y-59357142D02*
X149107200Y-59404761D01*
X149107200Y-59404761D02*
X149154819Y-59499999D01*
X149154819Y-59499999D02*
X149154819Y-59738094D01*
X149154819Y-59738094D02*
X149107200Y-59833332D01*
X149107200Y-59833332D02*
X149059580Y-59880951D01*
D11*
X106761905Y-94457419D02*
X106761905Y-93457419D01*
X106761905Y-93457419D02*
X107000000Y-93457419D01*
X107000000Y-93457419D02*
X107142857Y-93505038D01*
X107142857Y-93505038D02*
X107238095Y-93600276D01*
X107238095Y-93600276D02*
X107285714Y-93695514D01*
X107285714Y-93695514D02*
X107333333Y-93885990D01*
X107333333Y-93885990D02*
X107333333Y-94028847D01*
X107333333Y-94028847D02*
X107285714Y-94219323D01*
X107285714Y-94219323D02*
X107238095Y-94314561D01*
X107238095Y-94314561D02*
X107142857Y-94409800D01*
X107142857Y-94409800D02*
X107000000Y-94457419D01*
X107000000Y-94457419D02*
X106761905Y-94457419D01*
X107809524Y-94457419D02*
X108000000Y-94457419D01*
X108000000Y-94457419D02*
X108095238Y-94409800D01*
X108095238Y-94409800D02*
X108142857Y-94362180D01*
X108142857Y-94362180D02*
X108238095Y-94219323D01*
X108238095Y-94219323D02*
X108285714Y-94028847D01*
X108285714Y-94028847D02*
X108285714Y-93647895D01*
X108285714Y-93647895D02*
X108238095Y-93552657D01*
X108238095Y-93552657D02*
X108190476Y-93505038D01*
X108190476Y-93505038D02*
X108095238Y-93457419D01*
X108095238Y-93457419D02*
X107904762Y-93457419D01*
X107904762Y-93457419D02*
X107809524Y-93505038D01*
X107809524Y-93505038D02*
X107761905Y-93552657D01*
X107761905Y-93552657D02*
X107714286Y-93647895D01*
X107714286Y-93647895D02*
X107714286Y-93885990D01*
X107714286Y-93885990D02*
X107761905Y-93981228D01*
X107761905Y-93981228D02*
X107809524Y-94028847D01*
X107809524Y-94028847D02*
X107904762Y-94076466D01*
X107904762Y-94076466D02*
X108095238Y-94076466D01*
X108095238Y-94076466D02*
X108190476Y-94028847D01*
X108190476Y-94028847D02*
X108238095Y-93981228D01*
X108238095Y-93981228D02*
X108285714Y-93885990D01*
D12*
X115115447Y-94348340D02*
X115067828Y-94395960D01*
X115067828Y-94395960D02*
X114924971Y-94443579D01*
X114924971Y-94443579D02*
X114829733Y-94443579D01*
X114829733Y-94443579D02*
X114686876Y-94395960D01*
X114686876Y-94395960D02*
X114591638Y-94300721D01*
X114591638Y-94300721D02*
X114544019Y-94205483D01*
X114544019Y-94205483D02*
X114496400Y-94015007D01*
X114496400Y-94015007D02*
X114496400Y-93872150D01*
X114496400Y-93872150D02*
X114544019Y-93681674D01*
X114544019Y-93681674D02*
X114591638Y-93586436D01*
X114591638Y-93586436D02*
X114686876Y-93491198D01*
X114686876Y-93491198D02*
X114829733Y-93443579D01*
X114829733Y-93443579D02*
X114924971Y-93443579D01*
X114924971Y-93443579D02*
X115067828Y-93491198D01*
X115067828Y-93491198D02*
X115115447Y-93538817D01*
X115686876Y-94443579D02*
X115591638Y-94395960D01*
X115591638Y-94395960D02*
X115544019Y-94300721D01*
X115544019Y-94300721D02*
X115544019Y-93443579D01*
X116067829Y-94443579D02*
X116067829Y-93443579D01*
X116163067Y-94062626D02*
X116448781Y-94443579D01*
X116448781Y-93776912D02*
X116067829Y-94157864D01*
X116639258Y-94538817D02*
X117401162Y-94538817D01*
X117972591Y-93919769D02*
X118115448Y-93967388D01*
X118115448Y-93967388D02*
X118163067Y-94015007D01*
X118163067Y-94015007D02*
X118210686Y-94110245D01*
X118210686Y-94110245D02*
X118210686Y-94253102D01*
X118210686Y-94253102D02*
X118163067Y-94348340D01*
X118163067Y-94348340D02*
X118115448Y-94395960D01*
X118115448Y-94395960D02*
X118020210Y-94443579D01*
X118020210Y-94443579D02*
X117639258Y-94443579D01*
X117639258Y-94443579D02*
X117639258Y-93443579D01*
X117639258Y-93443579D02*
X117972591Y-93443579D01*
X117972591Y-93443579D02*
X118067829Y-93491198D01*
X118067829Y-93491198D02*
X118115448Y-93538817D01*
X118115448Y-93538817D02*
X118163067Y-93634055D01*
X118163067Y-93634055D02*
X118163067Y-93729293D01*
X118163067Y-93729293D02*
X118115448Y-93824531D01*
X118115448Y-93824531D02*
X118067829Y-93872150D01*
X118067829Y-93872150D02*
X117972591Y-93919769D01*
X117972591Y-93919769D02*
X117639258Y-93919769D01*
X118639258Y-94443579D02*
X118639258Y-93443579D01*
X118639258Y-93443579D02*
X119210686Y-94443579D01*
X119210686Y-94443579D02*
X119210686Y-93443579D01*
X120258305Y-94348340D02*
X120210686Y-94395960D01*
X120210686Y-94395960D02*
X120067829Y-94443579D01*
X120067829Y-94443579D02*
X119972591Y-94443579D01*
X119972591Y-94443579D02*
X119829734Y-94395960D01*
X119829734Y-94395960D02*
X119734496Y-94300721D01*
X119734496Y-94300721D02*
X119686877Y-94205483D01*
X119686877Y-94205483D02*
X119639258Y-94015007D01*
X119639258Y-94015007D02*
X119639258Y-93872150D01*
X119639258Y-93872150D02*
X119686877Y-93681674D01*
X119686877Y-93681674D02*
X119734496Y-93586436D01*
X119734496Y-93586436D02*
X119829734Y-93491198D01*
X119829734Y-93491198D02*
X119972591Y-93443579D01*
X119972591Y-93443579D02*
X120067829Y-93443579D01*
X120067829Y-93443579D02*
X120210686Y-93491198D01*
X120210686Y-93491198D02*
X120258305Y-93538817D01*
X120448782Y-94538817D02*
X121210686Y-94538817D01*
X121924972Y-94443579D02*
X121448782Y-94443579D01*
X121448782Y-94443579D02*
X121448782Y-93443579D01*
X122258306Y-93919769D02*
X122591639Y-93919769D01*
X122734496Y-94443579D02*
X122258306Y-94443579D01*
X122258306Y-94443579D02*
X122258306Y-93443579D01*
X122258306Y-93443579D02*
X122734496Y-93443579D01*
X123163068Y-94443579D02*
X123163068Y-93443579D01*
X123163068Y-93443579D02*
X123401163Y-93443579D01*
X123401163Y-93443579D02*
X123544020Y-93491198D01*
X123544020Y-93491198D02*
X123639258Y-93586436D01*
X123639258Y-93586436D02*
X123686877Y-93681674D01*
X123686877Y-93681674D02*
X123734496Y-93872150D01*
X123734496Y-93872150D02*
X123734496Y-94015007D01*
X123734496Y-94015007D02*
X123686877Y-94205483D01*
X123686877Y-94205483D02*
X123639258Y-94300721D01*
X123639258Y-94300721D02*
X123544020Y-94395960D01*
X123544020Y-94395960D02*
X123401163Y-94443579D01*
X123401163Y-94443579D02*
X123163068Y-94443579D01*
X123924973Y-94538817D02*
X124686877Y-94538817D01*
X125448782Y-93491198D02*
X125353544Y-93443579D01*
X125353544Y-93443579D02*
X125210687Y-93443579D01*
X125210687Y-93443579D02*
X125067830Y-93491198D01*
X125067830Y-93491198D02*
X124972592Y-93586436D01*
X124972592Y-93586436D02*
X124924973Y-93681674D01*
X124924973Y-93681674D02*
X124877354Y-93872150D01*
X124877354Y-93872150D02*
X124877354Y-94015007D01*
X124877354Y-94015007D02*
X124924973Y-94205483D01*
X124924973Y-94205483D02*
X124972592Y-94300721D01*
X124972592Y-94300721D02*
X125067830Y-94395960D01*
X125067830Y-94395960D02*
X125210687Y-94443579D01*
X125210687Y-94443579D02*
X125305925Y-94443579D01*
X125305925Y-94443579D02*
X125448782Y-94395960D01*
X125448782Y-94395960D02*
X125496401Y-94348340D01*
X125496401Y-94348340D02*
X125496401Y-94015007D01*
X125496401Y-94015007D02*
X125305925Y-94015007D01*
X69064580Y-129737857D02*
X69112200Y-129785476D01*
X69112200Y-129785476D02*
X69159819Y-129928333D01*
X69159819Y-129928333D02*
X69159819Y-130023571D01*
X69159819Y-130023571D02*
X69112200Y-130166428D01*
X69112200Y-130166428D02*
X69016961Y-130261666D01*
X69016961Y-130261666D02*
X68921723Y-130309285D01*
X68921723Y-130309285D02*
X68731247Y-130356904D01*
X68731247Y-130356904D02*
X68588390Y-130356904D01*
X68588390Y-130356904D02*
X68397914Y-130309285D01*
X68397914Y-130309285D02*
X68302676Y-130261666D01*
X68302676Y-130261666D02*
X68207438Y-130166428D01*
X68207438Y-130166428D02*
X68159819Y-130023571D01*
X68159819Y-130023571D02*
X68159819Y-129928333D01*
X68159819Y-129928333D02*
X68207438Y-129785476D01*
X68207438Y-129785476D02*
X68255057Y-129737857D01*
X69159819Y-128785476D02*
X69159819Y-129356904D01*
X69159819Y-129071190D02*
X68159819Y-129071190D01*
X68159819Y-129071190D02*
X68302676Y-129166428D01*
X68302676Y-129166428D02*
X68397914Y-129261666D01*
X68397914Y-129261666D02*
X68445533Y-129356904D01*
X68255057Y-128404523D02*
X68207438Y-128356904D01*
X68207438Y-128356904D02*
X68159819Y-128261666D01*
X68159819Y-128261666D02*
X68159819Y-128023571D01*
X68159819Y-128023571D02*
X68207438Y-127928333D01*
X68207438Y-127928333D02*
X68255057Y-127880714D01*
X68255057Y-127880714D02*
X68350295Y-127833095D01*
X68350295Y-127833095D02*
X68445533Y-127833095D01*
X68445533Y-127833095D02*
X68588390Y-127880714D01*
X68588390Y-127880714D02*
X69159819Y-128452142D01*
X69159819Y-128452142D02*
X69159819Y-127833095D01*
X145166666Y-52954819D02*
X145166666Y-53669104D01*
X145166666Y-53669104D02*
X145119047Y-53811961D01*
X145119047Y-53811961D02*
X145023809Y-53907200D01*
X145023809Y-53907200D02*
X144880952Y-53954819D01*
X144880952Y-53954819D02*
X144785714Y-53954819D01*
X146071428Y-52954819D02*
X145880952Y-52954819D01*
X145880952Y-52954819D02*
X145785714Y-53002438D01*
X145785714Y-53002438D02*
X145738095Y-53050057D01*
X145738095Y-53050057D02*
X145642857Y-53192914D01*
X145642857Y-53192914D02*
X145595238Y-53383390D01*
X145595238Y-53383390D02*
X145595238Y-53764342D01*
X145595238Y-53764342D02*
X145642857Y-53859580D01*
X145642857Y-53859580D02*
X145690476Y-53907200D01*
X145690476Y-53907200D02*
X145785714Y-53954819D01*
X145785714Y-53954819D02*
X145976190Y-53954819D01*
X145976190Y-53954819D02*
X146071428Y-53907200D01*
X146071428Y-53907200D02*
X146119047Y-53859580D01*
X146119047Y-53859580D02*
X146166666Y-53764342D01*
X146166666Y-53764342D02*
X146166666Y-53526247D01*
X146166666Y-53526247D02*
X146119047Y-53431009D01*
X146119047Y-53431009D02*
X146071428Y-53383390D01*
X146071428Y-53383390D02*
X145976190Y-53335771D01*
X145976190Y-53335771D02*
X145785714Y-53335771D01*
X145785714Y-53335771D02*
X145690476Y-53383390D01*
X145690476Y-53383390D02*
X145642857Y-53431009D01*
X145642857Y-53431009D02*
X145595238Y-53526247D01*
X138785714Y-53954819D02*
X138214286Y-53954819D01*
X138500000Y-53954819D02*
X138500000Y-52954819D01*
X138500000Y-52954819D02*
X138404762Y-53097676D01*
X138404762Y-53097676D02*
X138309524Y-53192914D01*
X138309524Y-53192914D02*
X138214286Y-53240533D01*
X90431245Y-61171660D02*
X90478865Y-61219279D01*
X90478865Y-61219279D02*
X90526484Y-61362136D01*
X90526484Y-61362136D02*
X90526484Y-61457374D01*
X90526484Y-61457374D02*
X90478865Y-61600231D01*
X90478865Y-61600231D02*
X90383626Y-61695469D01*
X90383626Y-61695469D02*
X90288388Y-61743088D01*
X90288388Y-61743088D02*
X90097912Y-61790707D01*
X90097912Y-61790707D02*
X89955055Y-61790707D01*
X89955055Y-61790707D02*
X89764579Y-61743088D01*
X89764579Y-61743088D02*
X89669341Y-61695469D01*
X89669341Y-61695469D02*
X89574103Y-61600231D01*
X89574103Y-61600231D02*
X89526484Y-61457374D01*
X89526484Y-61457374D02*
X89526484Y-61362136D01*
X89526484Y-61362136D02*
X89574103Y-61219279D01*
X89574103Y-61219279D02*
X89621722Y-61171660D01*
X89621722Y-60790707D02*
X89574103Y-60743088D01*
X89574103Y-60743088D02*
X89526484Y-60647850D01*
X89526484Y-60647850D02*
X89526484Y-60409755D01*
X89526484Y-60409755D02*
X89574103Y-60314517D01*
X89574103Y-60314517D02*
X89621722Y-60266898D01*
X89621722Y-60266898D02*
X89716960Y-60219279D01*
X89716960Y-60219279D02*
X89812198Y-60219279D01*
X89812198Y-60219279D02*
X89955055Y-60266898D01*
X89955055Y-60266898D02*
X90526484Y-60838326D01*
X90526484Y-60838326D02*
X90526484Y-60219279D01*
X64659819Y-69333333D02*
X65374104Y-69333333D01*
X65374104Y-69333333D02*
X65516961Y-69380952D01*
X65516961Y-69380952D02*
X65612200Y-69476190D01*
X65612200Y-69476190D02*
X65659819Y-69619047D01*
X65659819Y-69619047D02*
X65659819Y-69714285D01*
X64659819Y-68952380D02*
X64659819Y-68333333D01*
X64659819Y-68333333D02*
X65040771Y-68666666D01*
X65040771Y-68666666D02*
X65040771Y-68523809D01*
X65040771Y-68523809D02*
X65088390Y-68428571D01*
X65088390Y-68428571D02*
X65136009Y-68380952D01*
X65136009Y-68380952D02*
X65231247Y-68333333D01*
X65231247Y-68333333D02*
X65469342Y-68333333D01*
X65469342Y-68333333D02*
X65564580Y-68380952D01*
X65564580Y-68380952D02*
X65612200Y-68428571D01*
X65612200Y-68428571D02*
X65659819Y-68523809D01*
X65659819Y-68523809D02*
X65659819Y-68809523D01*
X65659819Y-68809523D02*
X65612200Y-68904761D01*
X65612200Y-68904761D02*
X65564580Y-68952380D01*
X65659819Y-76024285D02*
X65659819Y-76595713D01*
X65659819Y-76309999D02*
X64659819Y-76309999D01*
X64659819Y-76309999D02*
X64802676Y-76405237D01*
X64802676Y-76405237D02*
X64897914Y-76500475D01*
X64897914Y-76500475D02*
X64945533Y-76595713D01*
X71538333Y-129549819D02*
X71062143Y-129549819D01*
X71062143Y-129549819D02*
X71062143Y-128549819D01*
X72300238Y-128883152D02*
X72300238Y-129549819D01*
X72062143Y-128502200D02*
X71824048Y-129216485D01*
X71824048Y-129216485D02*
X72443095Y-129216485D01*
D11*
X96238095Y-51957419D02*
X96238095Y-52766942D01*
X96238095Y-52766942D02*
X96285714Y-52862180D01*
X96285714Y-52862180D02*
X96333333Y-52909800D01*
X96333333Y-52909800D02*
X96428571Y-52957419D01*
X96428571Y-52957419D02*
X96619047Y-52957419D01*
X96619047Y-52957419D02*
X96714285Y-52909800D01*
X96714285Y-52909800D02*
X96761904Y-52862180D01*
X96761904Y-52862180D02*
X96809523Y-52766942D01*
X96809523Y-52766942D02*
X96809523Y-51957419D01*
X97238095Y-52052657D02*
X97285714Y-52005038D01*
X97285714Y-52005038D02*
X97380952Y-51957419D01*
X97380952Y-51957419D02*
X97619047Y-51957419D01*
X97619047Y-51957419D02*
X97714285Y-52005038D01*
X97714285Y-52005038D02*
X97761904Y-52052657D01*
X97761904Y-52052657D02*
X97809523Y-52147895D01*
X97809523Y-52147895D02*
X97809523Y-52243133D01*
X97809523Y-52243133D02*
X97761904Y-52385990D01*
X97761904Y-52385990D02*
X97190476Y-52957419D01*
X97190476Y-52957419D02*
X97809523Y-52957419D01*
D13*
X121274228Y-69104386D02*
X121307562Y-69137719D01*
X121307562Y-69137719D02*
X121340895Y-69237719D01*
X121340895Y-69237719D02*
X121340895Y-69304386D01*
X121340895Y-69304386D02*
X121307562Y-69404386D01*
X121307562Y-69404386D02*
X121240895Y-69471053D01*
X121240895Y-69471053D02*
X121174228Y-69504386D01*
X121174228Y-69504386D02*
X121040895Y-69537719D01*
X121040895Y-69537719D02*
X120940895Y-69537719D01*
X120940895Y-69537719D02*
X120807562Y-69504386D01*
X120807562Y-69504386D02*
X120740895Y-69471053D01*
X120740895Y-69471053D02*
X120674228Y-69404386D01*
X120674228Y-69404386D02*
X120640895Y-69304386D01*
X120640895Y-69304386D02*
X120640895Y-69237719D01*
X120640895Y-69237719D02*
X120674228Y-69137719D01*
X120674228Y-69137719D02*
X120707562Y-69104386D01*
X120640895Y-68904386D02*
X120640895Y-68504386D01*
X121340895Y-68704386D02*
X120640895Y-68704386D01*
X121307562Y-68304386D02*
X121340895Y-68204386D01*
X121340895Y-68204386D02*
X121340895Y-68037720D01*
X121340895Y-68037720D02*
X121307562Y-67971053D01*
X121307562Y-67971053D02*
X121274228Y-67937720D01*
X121274228Y-67937720D02*
X121207562Y-67904386D01*
X121207562Y-67904386D02*
X121140895Y-67904386D01*
X121140895Y-67904386D02*
X121074228Y-67937720D01*
X121074228Y-67937720D02*
X121040895Y-67971053D01*
X121040895Y-67971053D02*
X121007562Y-68037720D01*
X121007562Y-68037720D02*
X120974228Y-68171053D01*
X120974228Y-68171053D02*
X120940895Y-68237720D01*
X120940895Y-68237720D02*
X120907562Y-68271053D01*
X120907562Y-68271053D02*
X120840895Y-68304386D01*
X120840895Y-68304386D02*
X120774228Y-68304386D01*
X120774228Y-68304386D02*
X120707562Y-68271053D01*
X120707562Y-68271053D02*
X120674228Y-68237720D01*
X120674228Y-68237720D02*
X120640895Y-68171053D01*
X120640895Y-68171053D02*
X120640895Y-68004386D01*
X120640895Y-68004386D02*
X120674228Y-67904386D01*
X120640895Y-67137720D02*
X120640895Y-66671053D01*
X120640895Y-66671053D02*
X121340895Y-66971053D01*
X121074228Y-66404386D02*
X121074228Y-65871053D01*
X120640895Y-65604386D02*
X120640895Y-65171052D01*
X120640895Y-65171052D02*
X120907562Y-65404386D01*
X120907562Y-65404386D02*
X120907562Y-65304386D01*
X120907562Y-65304386D02*
X120940895Y-65237719D01*
X120940895Y-65237719D02*
X120974228Y-65204386D01*
X120974228Y-65204386D02*
X121040895Y-65171052D01*
X121040895Y-65171052D02*
X121207562Y-65171052D01*
X121207562Y-65171052D02*
X121274228Y-65204386D01*
X121274228Y-65204386D02*
X121307562Y-65237719D01*
X121307562Y-65237719D02*
X121340895Y-65304386D01*
X121340895Y-65304386D02*
X121340895Y-65504386D01*
X121340895Y-65504386D02*
X121307562Y-65571052D01*
X121307562Y-65571052D02*
X121274228Y-65604386D01*
X120874228Y-64571052D02*
X121340895Y-64571052D01*
X120607562Y-64737719D02*
X121107562Y-64904385D01*
X121107562Y-64904385D02*
X121107562Y-64471052D01*
X120640895Y-64071052D02*
X120640895Y-64004385D01*
X120640895Y-64004385D02*
X120674228Y-63937718D01*
X120674228Y-63937718D02*
X120707562Y-63904385D01*
X120707562Y-63904385D02*
X120774228Y-63871052D01*
X120774228Y-63871052D02*
X120907562Y-63837718D01*
X120907562Y-63837718D02*
X121074228Y-63837718D01*
X121074228Y-63837718D02*
X121207562Y-63871052D01*
X121207562Y-63871052D02*
X121274228Y-63904385D01*
X121274228Y-63904385D02*
X121307562Y-63937718D01*
X121307562Y-63937718D02*
X121340895Y-64004385D01*
X121340895Y-64004385D02*
X121340895Y-64071052D01*
X121340895Y-64071052D02*
X121307562Y-64137718D01*
X121307562Y-64137718D02*
X121274228Y-64171052D01*
X121274228Y-64171052D02*
X121207562Y-64204385D01*
X121207562Y-64204385D02*
X121074228Y-64237718D01*
X121074228Y-64237718D02*
X120907562Y-64237718D01*
X120907562Y-64237718D02*
X120774228Y-64204385D01*
X120774228Y-64204385D02*
X120707562Y-64171052D01*
X120707562Y-64171052D02*
X120674228Y-64137718D01*
X120674228Y-64137718D02*
X120640895Y-64071052D01*
X121074228Y-63537718D02*
X121074228Y-63004385D01*
X121340895Y-62304384D02*
X121340895Y-62704384D01*
X121340895Y-62504384D02*
X120640895Y-62504384D01*
X120640895Y-62504384D02*
X120740895Y-62571051D01*
X120740895Y-62571051D02*
X120807562Y-62637718D01*
X120807562Y-62637718D02*
X120840895Y-62704384D01*
X121340895Y-62004384D02*
X120640895Y-62004384D01*
X120640895Y-62004384D02*
X120640895Y-61737717D01*
X120640895Y-61737717D02*
X120674228Y-61671051D01*
X120674228Y-61671051D02*
X120707562Y-61637717D01*
X120707562Y-61637717D02*
X120774228Y-61604384D01*
X120774228Y-61604384D02*
X120874228Y-61604384D01*
X120874228Y-61604384D02*
X120940895Y-61637717D01*
X120940895Y-61637717D02*
X120974228Y-61671051D01*
X120974228Y-61671051D02*
X121007562Y-61737717D01*
X121007562Y-61737717D02*
X121007562Y-62004384D01*
X121340895Y-61304384D02*
X120640895Y-61304384D01*
X120640895Y-61304384D02*
X120640895Y-61037717D01*
X120640895Y-61037717D02*
X120674228Y-60971051D01*
X120674228Y-60971051D02*
X120707562Y-60937717D01*
X120707562Y-60937717D02*
X120774228Y-60904384D01*
X120774228Y-60904384D02*
X120874228Y-60904384D01*
X120874228Y-60904384D02*
X120940895Y-60937717D01*
X120940895Y-60937717D02*
X120974228Y-60971051D01*
X120974228Y-60971051D02*
X121007562Y-61037717D01*
X121007562Y-61037717D02*
X121007562Y-61304384D01*
X121074228Y-60604384D02*
X121074228Y-60071051D01*
X120974228Y-59504384D02*
X121007562Y-59404384D01*
X121007562Y-59404384D02*
X121040895Y-59371050D01*
X121040895Y-59371050D02*
X121107562Y-59337717D01*
X121107562Y-59337717D02*
X121207562Y-59337717D01*
X121207562Y-59337717D02*
X121274228Y-59371050D01*
X121274228Y-59371050D02*
X121307562Y-59404384D01*
X121307562Y-59404384D02*
X121340895Y-59471050D01*
X121340895Y-59471050D02*
X121340895Y-59737717D01*
X121340895Y-59737717D02*
X120640895Y-59737717D01*
X120640895Y-59737717D02*
X120640895Y-59504384D01*
X120640895Y-59504384D02*
X120674228Y-59437717D01*
X120674228Y-59437717D02*
X120707562Y-59404384D01*
X120707562Y-59404384D02*
X120774228Y-59371050D01*
X120774228Y-59371050D02*
X120840895Y-59371050D01*
X120840895Y-59371050D02*
X120907562Y-59404384D01*
X120907562Y-59404384D02*
X120940895Y-59437717D01*
X120940895Y-59437717D02*
X120974228Y-59504384D01*
X120974228Y-59504384D02*
X120974228Y-59737717D01*
X121140895Y-59071050D02*
X121140895Y-58737717D01*
X121340895Y-59137717D02*
X120640895Y-58904384D01*
X120640895Y-58904384D02*
X121340895Y-58671050D01*
X121340895Y-57904384D02*
X120640895Y-57904384D01*
X121340895Y-57604384D02*
X120974228Y-57604384D01*
X120974228Y-57604384D02*
X120907562Y-57637717D01*
X120907562Y-57637717D02*
X120874228Y-57704384D01*
X120874228Y-57704384D02*
X120874228Y-57804384D01*
X120874228Y-57804384D02*
X120907562Y-57871051D01*
X120907562Y-57871051D02*
X120940895Y-57904384D01*
X121307562Y-57004384D02*
X121340895Y-57071051D01*
X121340895Y-57071051D02*
X121340895Y-57204384D01*
X121340895Y-57204384D02*
X121307562Y-57271051D01*
X121307562Y-57271051D02*
X121240895Y-57304384D01*
X121240895Y-57304384D02*
X120974228Y-57304384D01*
X120974228Y-57304384D02*
X120907562Y-57271051D01*
X120907562Y-57271051D02*
X120874228Y-57204384D01*
X120874228Y-57204384D02*
X120874228Y-57071051D01*
X120874228Y-57071051D02*
X120907562Y-57004384D01*
X120907562Y-57004384D02*
X120974228Y-56971051D01*
X120974228Y-56971051D02*
X121040895Y-56971051D01*
X121040895Y-56971051D02*
X121107562Y-57304384D01*
X121340895Y-56371051D02*
X120974228Y-56371051D01*
X120974228Y-56371051D02*
X120907562Y-56404384D01*
X120907562Y-56404384D02*
X120874228Y-56471051D01*
X120874228Y-56471051D02*
X120874228Y-56604384D01*
X120874228Y-56604384D02*
X120907562Y-56671051D01*
X121307562Y-56371051D02*
X121340895Y-56437718D01*
X121340895Y-56437718D02*
X121340895Y-56604384D01*
X121340895Y-56604384D02*
X121307562Y-56671051D01*
X121307562Y-56671051D02*
X121240895Y-56704384D01*
X121240895Y-56704384D02*
X121174228Y-56704384D01*
X121174228Y-56704384D02*
X121107562Y-56671051D01*
X121107562Y-56671051D02*
X121074228Y-56604384D01*
X121074228Y-56604384D02*
X121074228Y-56437718D01*
X121074228Y-56437718D02*
X121040895Y-56371051D01*
X120874228Y-56137718D02*
X120874228Y-55871051D01*
X120640895Y-56037718D02*
X121240895Y-56037718D01*
X121240895Y-56037718D02*
X121307562Y-56004385D01*
X121307562Y-56004385D02*
X121340895Y-55937718D01*
X121340895Y-55937718D02*
X121340895Y-55871051D01*
X121307562Y-55671051D02*
X121340895Y-55604385D01*
X121340895Y-55604385D02*
X121340895Y-55471051D01*
X121340895Y-55471051D02*
X121307562Y-55404385D01*
X121307562Y-55404385D02*
X121240895Y-55371051D01*
X121240895Y-55371051D02*
X121207562Y-55371051D01*
X121207562Y-55371051D02*
X121140895Y-55404385D01*
X121140895Y-55404385D02*
X121107562Y-55471051D01*
X121107562Y-55471051D02*
X121107562Y-55571051D01*
X121107562Y-55571051D02*
X121074228Y-55637718D01*
X121074228Y-55637718D02*
X121007562Y-55671051D01*
X121007562Y-55671051D02*
X120974228Y-55671051D01*
X120974228Y-55671051D02*
X120907562Y-55637718D01*
X120907562Y-55637718D02*
X120874228Y-55571051D01*
X120874228Y-55571051D02*
X120874228Y-55471051D01*
X120874228Y-55471051D02*
X120907562Y-55404385D01*
X121340895Y-55071051D02*
X120874228Y-55071051D01*
X120640895Y-55071051D02*
X120674228Y-55104384D01*
X120674228Y-55104384D02*
X120707562Y-55071051D01*
X120707562Y-55071051D02*
X120674228Y-55037718D01*
X120674228Y-55037718D02*
X120640895Y-55071051D01*
X120640895Y-55071051D02*
X120707562Y-55071051D01*
X120874228Y-54737718D02*
X121340895Y-54737718D01*
X120940895Y-54737718D02*
X120907562Y-54704385D01*
X120907562Y-54704385D02*
X120874228Y-54637718D01*
X120874228Y-54637718D02*
X120874228Y-54537718D01*
X120874228Y-54537718D02*
X120907562Y-54471051D01*
X120907562Y-54471051D02*
X120974228Y-54437718D01*
X120974228Y-54437718D02*
X121340895Y-54437718D01*
X121340895Y-54104385D02*
X120640895Y-54104385D01*
X121074228Y-54037718D02*
X121340895Y-53837718D01*
X120874228Y-53837718D02*
X121140895Y-54104385D01*
D11*
X106765504Y-123468659D02*
X106765504Y-122468659D01*
X106765504Y-122468659D02*
X107003599Y-122468659D01*
X107003599Y-122468659D02*
X107146456Y-122516278D01*
X107146456Y-122516278D02*
X107241694Y-122611516D01*
X107241694Y-122611516D02*
X107289313Y-122706754D01*
X107289313Y-122706754D02*
X107336932Y-122897230D01*
X107336932Y-122897230D02*
X107336932Y-123040087D01*
X107336932Y-123040087D02*
X107289313Y-123230563D01*
X107289313Y-123230563D02*
X107241694Y-123325801D01*
X107241694Y-123325801D02*
X107146456Y-123421040D01*
X107146456Y-123421040D02*
X107003599Y-123468659D01*
X107003599Y-123468659D02*
X106765504Y-123468659D01*
X107717885Y-122563897D02*
X107765504Y-122516278D01*
X107765504Y-122516278D02*
X107860742Y-122468659D01*
X107860742Y-122468659D02*
X108098837Y-122468659D01*
X108098837Y-122468659D02*
X108194075Y-122516278D01*
X108194075Y-122516278D02*
X108241694Y-122563897D01*
X108241694Y-122563897D02*
X108289313Y-122659135D01*
X108289313Y-122659135D02*
X108289313Y-122754373D01*
X108289313Y-122754373D02*
X108241694Y-122897230D01*
X108241694Y-122897230D02*
X107670266Y-123468659D01*
X107670266Y-123468659D02*
X108289313Y-123468659D01*
D12*
X115194074Y-122466059D02*
X114717884Y-122466059D01*
X114717884Y-122466059D02*
X114670265Y-122942249D01*
X114670265Y-122942249D02*
X114717884Y-122894630D01*
X114717884Y-122894630D02*
X114813122Y-122847011D01*
X114813122Y-122847011D02*
X115051217Y-122847011D01*
X115051217Y-122847011D02*
X115146455Y-122894630D01*
X115146455Y-122894630D02*
X115194074Y-122942249D01*
X115194074Y-122942249D02*
X115241693Y-123037487D01*
X115241693Y-123037487D02*
X115241693Y-123275582D01*
X115241693Y-123275582D02*
X115194074Y-123370820D01*
X115194074Y-123370820D02*
X115146455Y-123418440D01*
X115146455Y-123418440D02*
X115051217Y-123466059D01*
X115051217Y-123466059D02*
X114813122Y-123466059D01*
X114813122Y-123466059D02*
X114717884Y-123418440D01*
X114717884Y-123418440D02*
X114670265Y-123370820D01*
X115527408Y-122466059D02*
X115860741Y-123466059D01*
X115860741Y-123466059D02*
X116194074Y-122466059D01*
X116289313Y-123561297D02*
X117051217Y-123561297D01*
X117765503Y-123466059D02*
X117289313Y-123466059D01*
X117289313Y-123466059D02*
X117289313Y-122466059D01*
X118098837Y-122942249D02*
X118432170Y-122942249D01*
X118575027Y-123466059D02*
X118098837Y-123466059D01*
X118098837Y-123466059D02*
X118098837Y-122466059D01*
X118098837Y-122466059D02*
X118575027Y-122466059D01*
X119003599Y-123466059D02*
X119003599Y-122466059D01*
X119003599Y-122466059D02*
X119241694Y-122466059D01*
X119241694Y-122466059D02*
X119384551Y-122513678D01*
X119384551Y-122513678D02*
X119479789Y-122608916D01*
X119479789Y-122608916D02*
X119527408Y-122704154D01*
X119527408Y-122704154D02*
X119575027Y-122894630D01*
X119575027Y-122894630D02*
X119575027Y-123037487D01*
X119575027Y-123037487D02*
X119527408Y-123227963D01*
X119527408Y-123227963D02*
X119479789Y-123323201D01*
X119479789Y-123323201D02*
X119384551Y-123418440D01*
X119384551Y-123418440D02*
X119241694Y-123466059D01*
X119241694Y-123466059D02*
X119003599Y-123466059D01*
X119765504Y-123561297D02*
X120527408Y-123561297D01*
X121336932Y-123466059D02*
X121003599Y-122989868D01*
X120765504Y-123466059D02*
X120765504Y-122466059D01*
X120765504Y-122466059D02*
X121146456Y-122466059D01*
X121146456Y-122466059D02*
X121241694Y-122513678D01*
X121241694Y-122513678D02*
X121289313Y-122561297D01*
X121289313Y-122561297D02*
X121336932Y-122656535D01*
X121336932Y-122656535D02*
X121336932Y-122799392D01*
X121336932Y-122799392D02*
X121289313Y-122894630D01*
X121289313Y-122894630D02*
X121241694Y-122942249D01*
X121241694Y-122942249D02*
X121146456Y-122989868D01*
X121146456Y-122989868D02*
X120765504Y-122989868D01*
X138954819Y-60166666D02*
X138954819Y-60642856D01*
X138954819Y-60642856D02*
X137954819Y-60642856D01*
X137954819Y-59928570D02*
X137954819Y-59309523D01*
X137954819Y-59309523D02*
X138335771Y-59642856D01*
X138335771Y-59642856D02*
X138335771Y-59499999D01*
X138335771Y-59499999D02*
X138383390Y-59404761D01*
X138383390Y-59404761D02*
X138431009Y-59357142D01*
X138431009Y-59357142D02*
X138526247Y-59309523D01*
X138526247Y-59309523D02*
X138764342Y-59309523D01*
X138764342Y-59309523D02*
X138859580Y-59357142D01*
X138859580Y-59357142D02*
X138907200Y-59404761D01*
X138907200Y-59404761D02*
X138954819Y-59499999D01*
X138954819Y-59499999D02*
X138954819Y-59785713D01*
X138954819Y-59785713D02*
X138907200Y-59880951D01*
X138907200Y-59880951D02*
X138859580Y-59928570D01*
D11*
X106758306Y-98946179D02*
X106758306Y-97946179D01*
X106758306Y-97946179D02*
X106996401Y-97946179D01*
X106996401Y-97946179D02*
X107139258Y-97993798D01*
X107139258Y-97993798D02*
X107234496Y-98089036D01*
X107234496Y-98089036D02*
X107282115Y-98184274D01*
X107282115Y-98184274D02*
X107329734Y-98374750D01*
X107329734Y-98374750D02*
X107329734Y-98517607D01*
X107329734Y-98517607D02*
X107282115Y-98708083D01*
X107282115Y-98708083D02*
X107234496Y-98803321D01*
X107234496Y-98803321D02*
X107139258Y-98898560D01*
X107139258Y-98898560D02*
X106996401Y-98946179D01*
X106996401Y-98946179D02*
X106758306Y-98946179D01*
X107901163Y-98374750D02*
X107805925Y-98327131D01*
X107805925Y-98327131D02*
X107758306Y-98279512D01*
X107758306Y-98279512D02*
X107710687Y-98184274D01*
X107710687Y-98184274D02*
X107710687Y-98136655D01*
X107710687Y-98136655D02*
X107758306Y-98041417D01*
X107758306Y-98041417D02*
X107805925Y-97993798D01*
X107805925Y-97993798D02*
X107901163Y-97946179D01*
X107901163Y-97946179D02*
X108091639Y-97946179D01*
X108091639Y-97946179D02*
X108186877Y-97993798D01*
X108186877Y-97993798D02*
X108234496Y-98041417D01*
X108234496Y-98041417D02*
X108282115Y-98136655D01*
X108282115Y-98136655D02*
X108282115Y-98184274D01*
X108282115Y-98184274D02*
X108234496Y-98279512D01*
X108234496Y-98279512D02*
X108186877Y-98327131D01*
X108186877Y-98327131D02*
X108091639Y-98374750D01*
X108091639Y-98374750D02*
X107901163Y-98374750D01*
X107901163Y-98374750D02*
X107805925Y-98422369D01*
X107805925Y-98422369D02*
X107758306Y-98469988D01*
X107758306Y-98469988D02*
X107710687Y-98565226D01*
X107710687Y-98565226D02*
X107710687Y-98755702D01*
X107710687Y-98755702D02*
X107758306Y-98850940D01*
X107758306Y-98850940D02*
X107805925Y-98898560D01*
X107805925Y-98898560D02*
X107901163Y-98946179D01*
X107901163Y-98946179D02*
X108091639Y-98946179D01*
X108091639Y-98946179D02*
X108186877Y-98898560D01*
X108186877Y-98898560D02*
X108234496Y-98850940D01*
X108234496Y-98850940D02*
X108282115Y-98755702D01*
X108282115Y-98755702D02*
X108282115Y-98565226D01*
X108282115Y-98565226D02*
X108234496Y-98469988D01*
X108234496Y-98469988D02*
X108186877Y-98422369D01*
X108186877Y-98422369D02*
X108091639Y-98374750D01*
D12*
X115377352Y-98848340D02*
X115329733Y-98895960D01*
X115329733Y-98895960D02*
X115186876Y-98943579D01*
X115186876Y-98943579D02*
X115091638Y-98943579D01*
X115091638Y-98943579D02*
X114948781Y-98895960D01*
X114948781Y-98895960D02*
X114853543Y-98800721D01*
X114853543Y-98800721D02*
X114805924Y-98705483D01*
X114805924Y-98705483D02*
X114758305Y-98515007D01*
X114758305Y-98515007D02*
X114758305Y-98372150D01*
X114758305Y-98372150D02*
X114805924Y-98181674D01*
X114805924Y-98181674D02*
X114853543Y-98086436D01*
X114853543Y-98086436D02*
X114948781Y-97991198D01*
X114948781Y-97991198D02*
X115091638Y-97943579D01*
X115091638Y-97943579D02*
X115186876Y-97943579D01*
X115186876Y-97943579D02*
X115329733Y-97991198D01*
X115329733Y-97991198D02*
X115377352Y-98038817D01*
X115948781Y-98943579D02*
X115853543Y-98895960D01*
X115853543Y-98895960D02*
X115805924Y-98800721D01*
X115805924Y-98800721D02*
X115805924Y-97943579D01*
X116329734Y-98943579D02*
X116329734Y-97943579D01*
X116424972Y-98562626D02*
X116710686Y-98943579D01*
X116710686Y-98276912D02*
X116329734Y-98657864D01*
X116901163Y-99038817D02*
X117663067Y-99038817D01*
X118091639Y-97943579D02*
X118282115Y-97943579D01*
X118282115Y-97943579D02*
X118377353Y-97991198D01*
X118377353Y-97991198D02*
X118472591Y-98086436D01*
X118472591Y-98086436D02*
X118520210Y-98276912D01*
X118520210Y-98276912D02*
X118520210Y-98610245D01*
X118520210Y-98610245D02*
X118472591Y-98800721D01*
X118472591Y-98800721D02*
X118377353Y-98895960D01*
X118377353Y-98895960D02*
X118282115Y-98943579D01*
X118282115Y-98943579D02*
X118091639Y-98943579D01*
X118091639Y-98943579D02*
X117996401Y-98895960D01*
X117996401Y-98895960D02*
X117901163Y-98800721D01*
X117901163Y-98800721D02*
X117853544Y-98610245D01*
X117853544Y-98610245D02*
X117853544Y-98276912D01*
X117853544Y-98276912D02*
X117901163Y-98086436D01*
X117901163Y-98086436D02*
X117996401Y-97991198D01*
X117996401Y-97991198D02*
X118091639Y-97943579D01*
X118948782Y-98276912D02*
X118948782Y-99276912D01*
X118948782Y-98324531D02*
X119044020Y-98276912D01*
X119044020Y-98276912D02*
X119234496Y-98276912D01*
X119234496Y-98276912D02*
X119329734Y-98324531D01*
X119329734Y-98324531D02*
X119377353Y-98372150D01*
X119377353Y-98372150D02*
X119424972Y-98467388D01*
X119424972Y-98467388D02*
X119424972Y-98753102D01*
X119424972Y-98753102D02*
X119377353Y-98848340D01*
X119377353Y-98848340D02*
X119329734Y-98895960D01*
X119329734Y-98895960D02*
X119234496Y-98943579D01*
X119234496Y-98943579D02*
X119044020Y-98943579D01*
X119044020Y-98943579D02*
X118948782Y-98895960D01*
X119710687Y-98276912D02*
X120091639Y-98276912D01*
X119853544Y-97943579D02*
X119853544Y-98800721D01*
X119853544Y-98800721D02*
X119901163Y-98895960D01*
X119901163Y-98895960D02*
X119996401Y-98943579D01*
X119996401Y-98943579D02*
X120091639Y-98943579D01*
X120186878Y-99038817D02*
X120948782Y-99038817D01*
X121663068Y-98943579D02*
X121186878Y-98943579D01*
X121186878Y-98943579D02*
X121186878Y-97943579D01*
X121996402Y-98419769D02*
X122329735Y-98419769D01*
X122472592Y-98943579D02*
X121996402Y-98943579D01*
X121996402Y-98943579D02*
X121996402Y-97943579D01*
X121996402Y-97943579D02*
X122472592Y-97943579D01*
X122901164Y-98943579D02*
X122901164Y-97943579D01*
X122901164Y-97943579D02*
X123139259Y-97943579D01*
X123139259Y-97943579D02*
X123282116Y-97991198D01*
X123282116Y-97991198D02*
X123377354Y-98086436D01*
X123377354Y-98086436D02*
X123424973Y-98181674D01*
X123424973Y-98181674D02*
X123472592Y-98372150D01*
X123472592Y-98372150D02*
X123472592Y-98515007D01*
X123472592Y-98515007D02*
X123424973Y-98705483D01*
X123424973Y-98705483D02*
X123377354Y-98800721D01*
X123377354Y-98800721D02*
X123282116Y-98895960D01*
X123282116Y-98895960D02*
X123139259Y-98943579D01*
X123139259Y-98943579D02*
X122901164Y-98943579D01*
X123663069Y-99038817D02*
X124424973Y-99038817D01*
X125186878Y-97991198D02*
X125091640Y-97943579D01*
X125091640Y-97943579D02*
X124948783Y-97943579D01*
X124948783Y-97943579D02*
X124805926Y-97991198D01*
X124805926Y-97991198D02*
X124710688Y-98086436D01*
X124710688Y-98086436D02*
X124663069Y-98181674D01*
X124663069Y-98181674D02*
X124615450Y-98372150D01*
X124615450Y-98372150D02*
X124615450Y-98515007D01*
X124615450Y-98515007D02*
X124663069Y-98705483D01*
X124663069Y-98705483D02*
X124710688Y-98800721D01*
X124710688Y-98800721D02*
X124805926Y-98895960D01*
X124805926Y-98895960D02*
X124948783Y-98943579D01*
X124948783Y-98943579D02*
X125044021Y-98943579D01*
X125044021Y-98943579D02*
X125186878Y-98895960D01*
X125186878Y-98895960D02*
X125234497Y-98848340D01*
X125234497Y-98848340D02*
X125234497Y-98515007D01*
X125234497Y-98515007D02*
X125044021Y-98515007D01*
X67622495Y-57071419D02*
X67622495Y-56071419D01*
X67622495Y-56071419D02*
X67860590Y-56071419D01*
X67860590Y-56071419D02*
X68003447Y-56119038D01*
X68003447Y-56119038D02*
X68098685Y-56214276D01*
X68098685Y-56214276D02*
X68146304Y-56309514D01*
X68146304Y-56309514D02*
X68193923Y-56499990D01*
X68193923Y-56499990D02*
X68193923Y-56642847D01*
X68193923Y-56642847D02*
X68146304Y-56833323D01*
X68146304Y-56833323D02*
X68098685Y-56928561D01*
X68098685Y-56928561D02*
X68003447Y-57023800D01*
X68003447Y-57023800D02*
X67860590Y-57071419D01*
X67860590Y-57071419D02*
X67622495Y-57071419D01*
X69146304Y-57071419D02*
X68574876Y-57071419D01*
X68860590Y-57071419D02*
X68860590Y-56071419D01*
X68860590Y-56071419D02*
X68765352Y-56214276D01*
X68765352Y-56214276D02*
X68670114Y-56309514D01*
X68670114Y-56309514D02*
X68574876Y-56357133D01*
X156059580Y-60642857D02*
X156107200Y-60690476D01*
X156107200Y-60690476D02*
X156154819Y-60833333D01*
X156154819Y-60833333D02*
X156154819Y-60928571D01*
X156154819Y-60928571D02*
X156107200Y-61071428D01*
X156107200Y-61071428D02*
X156011961Y-61166666D01*
X156011961Y-61166666D02*
X155916723Y-61214285D01*
X155916723Y-61214285D02*
X155726247Y-61261904D01*
X155726247Y-61261904D02*
X155583390Y-61261904D01*
X155583390Y-61261904D02*
X155392914Y-61214285D01*
X155392914Y-61214285D02*
X155297676Y-61166666D01*
X155297676Y-61166666D02*
X155202438Y-61071428D01*
X155202438Y-61071428D02*
X155154819Y-60928571D01*
X155154819Y-60928571D02*
X155154819Y-60833333D01*
X155154819Y-60833333D02*
X155202438Y-60690476D01*
X155202438Y-60690476D02*
X155250057Y-60642857D01*
X156154819Y-59690476D02*
X156154819Y-60261904D01*
X156154819Y-59976190D02*
X155154819Y-59976190D01*
X155154819Y-59976190D02*
X155297676Y-60071428D01*
X155297676Y-60071428D02*
X155392914Y-60166666D01*
X155392914Y-60166666D02*
X155440533Y-60261904D01*
X155154819Y-59357142D02*
X155154819Y-58690476D01*
X155154819Y-58690476D02*
X156154819Y-59119047D01*
X65655770Y-59133266D02*
X64941485Y-59133266D01*
X64941485Y-59133266D02*
X64798628Y-59085647D01*
X64798628Y-59085647D02*
X64703390Y-58990409D01*
X64703390Y-58990409D02*
X64655770Y-58847552D01*
X64655770Y-58847552D02*
X64655770Y-58752314D01*
X64655770Y-60133266D02*
X64655770Y-59561838D01*
X64655770Y-59847552D02*
X65655770Y-59847552D01*
X65655770Y-59847552D02*
X65512913Y-59752314D01*
X65512913Y-59752314D02*
X65417675Y-59657076D01*
X65417675Y-59657076D02*
X65370056Y-59561838D01*
D11*
X79364800Y-85833332D02*
X79412419Y-85690475D01*
X79412419Y-85690475D02*
X79412419Y-85452380D01*
X79412419Y-85452380D02*
X79364800Y-85357142D01*
X79364800Y-85357142D02*
X79317180Y-85309523D01*
X79317180Y-85309523D02*
X79221942Y-85261904D01*
X79221942Y-85261904D02*
X79126704Y-85261904D01*
X79126704Y-85261904D02*
X79031466Y-85309523D01*
X79031466Y-85309523D02*
X78983847Y-85357142D01*
X78983847Y-85357142D02*
X78936228Y-85452380D01*
X78936228Y-85452380D02*
X78888609Y-85642856D01*
X78888609Y-85642856D02*
X78840990Y-85738094D01*
X78840990Y-85738094D02*
X78793371Y-85785713D01*
X78793371Y-85785713D02*
X78698133Y-85833332D01*
X78698133Y-85833332D02*
X78602895Y-85833332D01*
X78602895Y-85833332D02*
X78507657Y-85785713D01*
X78507657Y-85785713D02*
X78460038Y-85738094D01*
X78460038Y-85738094D02*
X78412419Y-85642856D01*
X78412419Y-85642856D02*
X78412419Y-85404761D01*
X78412419Y-85404761D02*
X78460038Y-85261904D01*
X78412419Y-84928570D02*
X79412419Y-84690475D01*
X79412419Y-84690475D02*
X78698133Y-84499999D01*
X78698133Y-84499999D02*
X79412419Y-84309523D01*
X79412419Y-84309523D02*
X78412419Y-84071428D01*
X79412419Y-83166666D02*
X79412419Y-83738094D01*
X79412419Y-83452380D02*
X78412419Y-83452380D01*
X78412419Y-83452380D02*
X78555276Y-83547618D01*
X78555276Y-83547618D02*
X78650514Y-83642856D01*
X78650514Y-83642856D02*
X78698133Y-83738094D01*
X80060737Y-80183700D02*
X80013118Y-80231319D01*
X80013118Y-80231319D02*
X79870261Y-80326557D01*
X79870261Y-80326557D02*
X79775023Y-80374176D01*
X79775023Y-80374176D02*
X79632166Y-80421795D01*
X79632166Y-80421795D02*
X79394070Y-80469414D01*
X79394070Y-80469414D02*
X79203594Y-80469414D01*
X79203594Y-80469414D02*
X78965499Y-80421795D01*
X78965499Y-80421795D02*
X78822642Y-80374176D01*
X78822642Y-80374176D02*
X78727404Y-80326557D01*
X78727404Y-80326557D02*
X78584546Y-80231319D01*
X78584546Y-80231319D02*
X78536927Y-80183700D01*
X79155975Y-79469414D02*
X79203594Y-79326557D01*
X79203594Y-79326557D02*
X79251213Y-79278938D01*
X79251213Y-79278938D02*
X79346451Y-79231319D01*
X79346451Y-79231319D02*
X79489308Y-79231319D01*
X79489308Y-79231319D02*
X79584546Y-79278938D01*
X79584546Y-79278938D02*
X79632166Y-79326557D01*
X79632166Y-79326557D02*
X79679785Y-79421795D01*
X79679785Y-79421795D02*
X79679785Y-79802747D01*
X79679785Y-79802747D02*
X78679785Y-79802747D01*
X78679785Y-79802747D02*
X78679785Y-79469414D01*
X78679785Y-79469414D02*
X78727404Y-79374176D01*
X78727404Y-79374176D02*
X78775023Y-79326557D01*
X78775023Y-79326557D02*
X78870261Y-79278938D01*
X78870261Y-79278938D02*
X78965499Y-79278938D01*
X78965499Y-79278938D02*
X79060737Y-79326557D01*
X79060737Y-79326557D02*
X79108356Y-79374176D01*
X79108356Y-79374176D02*
X79155975Y-79469414D01*
X79155975Y-79469414D02*
X79155975Y-79802747D01*
X80060737Y-78897985D02*
X80013118Y-78850366D01*
X80013118Y-78850366D02*
X79870261Y-78755128D01*
X79870261Y-78755128D02*
X79775023Y-78707509D01*
X79775023Y-78707509D02*
X79632166Y-78659890D01*
X79632166Y-78659890D02*
X79394070Y-78612271D01*
X79394070Y-78612271D02*
X79203594Y-78612271D01*
X79203594Y-78612271D02*
X78965499Y-78659890D01*
X78965499Y-78659890D02*
X78822642Y-78707509D01*
X78822642Y-78707509D02*
X78727404Y-78755128D01*
X78727404Y-78755128D02*
X78584546Y-78850366D01*
X78584546Y-78850366D02*
X78536927Y-78897985D01*
X80037907Y-90119242D02*
X79990288Y-90166861D01*
X79990288Y-90166861D02*
X79847431Y-90262099D01*
X79847431Y-90262099D02*
X79752193Y-90309718D01*
X79752193Y-90309718D02*
X79609336Y-90357337D01*
X79609336Y-90357337D02*
X79371240Y-90404956D01*
X79371240Y-90404956D02*
X79180764Y-90404956D01*
X79180764Y-90404956D02*
X78942669Y-90357337D01*
X78942669Y-90357337D02*
X78799812Y-90309718D01*
X78799812Y-90309718D02*
X78704574Y-90262099D01*
X78704574Y-90262099D02*
X78561716Y-90166861D01*
X78561716Y-90166861D02*
X78514097Y-90119242D01*
X79371240Y-89785908D02*
X79371240Y-89309718D01*
X79656955Y-89881146D02*
X78656955Y-89547813D01*
X78656955Y-89547813D02*
X79656955Y-89214480D01*
X80037907Y-88976384D02*
X79990288Y-88928765D01*
X79990288Y-88928765D02*
X79847431Y-88833527D01*
X79847431Y-88833527D02*
X79752193Y-88785908D01*
X79752193Y-88785908D02*
X79609336Y-88738289D01*
X79609336Y-88738289D02*
X79371240Y-88690670D01*
X79371240Y-88690670D02*
X79180764Y-88690670D01*
X79180764Y-88690670D02*
X78942669Y-88738289D01*
X78942669Y-88738289D02*
X78799812Y-88785908D01*
X78799812Y-88785908D02*
X78704574Y-88833527D01*
X78704574Y-88833527D02*
X78561716Y-88928765D01*
X78561716Y-88928765D02*
X78514097Y-88976384D01*
D12*
X71062142Y-136454580D02*
X71014523Y-136502200D01*
X71014523Y-136502200D02*
X70871666Y-136549819D01*
X70871666Y-136549819D02*
X70776428Y-136549819D01*
X70776428Y-136549819D02*
X70633571Y-136502200D01*
X70633571Y-136502200D02*
X70538333Y-136406961D01*
X70538333Y-136406961D02*
X70490714Y-136311723D01*
X70490714Y-136311723D02*
X70443095Y-136121247D01*
X70443095Y-136121247D02*
X70443095Y-135978390D01*
X70443095Y-135978390D02*
X70490714Y-135787914D01*
X70490714Y-135787914D02*
X70538333Y-135692676D01*
X70538333Y-135692676D02*
X70633571Y-135597438D01*
X70633571Y-135597438D02*
X70776428Y-135549819D01*
X70776428Y-135549819D02*
X70871666Y-135549819D01*
X70871666Y-135549819D02*
X71014523Y-135597438D01*
X71014523Y-135597438D02*
X71062142Y-135645057D01*
X72014523Y-136549819D02*
X71443095Y-136549819D01*
X71728809Y-136549819D02*
X71728809Y-135549819D01*
X71728809Y-135549819D02*
X71633571Y-135692676D01*
X71633571Y-135692676D02*
X71538333Y-135787914D01*
X71538333Y-135787914D02*
X71443095Y-135835533D01*
X72871666Y-135883152D02*
X72871666Y-136549819D01*
X72633571Y-135502200D02*
X72395476Y-136216485D01*
X72395476Y-136216485D02*
X73014523Y-136216485D01*
X90611245Y-56185597D02*
X90658865Y-56233216D01*
X90658865Y-56233216D02*
X90706484Y-56376073D01*
X90706484Y-56376073D02*
X90706484Y-56471311D01*
X90706484Y-56471311D02*
X90658865Y-56614168D01*
X90658865Y-56614168D02*
X90563626Y-56709406D01*
X90563626Y-56709406D02*
X90468388Y-56757025D01*
X90468388Y-56757025D02*
X90277912Y-56804644D01*
X90277912Y-56804644D02*
X90135055Y-56804644D01*
X90135055Y-56804644D02*
X89944579Y-56757025D01*
X89944579Y-56757025D02*
X89849341Y-56709406D01*
X89849341Y-56709406D02*
X89754103Y-56614168D01*
X89754103Y-56614168D02*
X89706484Y-56471311D01*
X89706484Y-56471311D02*
X89706484Y-56376073D01*
X89706484Y-56376073D02*
X89754103Y-56233216D01*
X89754103Y-56233216D02*
X89801722Y-56185597D01*
X90706484Y-55233216D02*
X90706484Y-55804644D01*
X90706484Y-55518930D02*
X89706484Y-55518930D01*
X89706484Y-55518930D02*
X89849341Y-55614168D01*
X89849341Y-55614168D02*
X89944579Y-55709406D01*
X89944579Y-55709406D02*
X89992198Y-55804644D01*
X65371666Y-89764819D02*
X65371666Y-90479104D01*
X65371666Y-90479104D02*
X65324047Y-90621961D01*
X65324047Y-90621961D02*
X65228809Y-90717200D01*
X65228809Y-90717200D02*
X65085952Y-90764819D01*
X65085952Y-90764819D02*
X64990714Y-90764819D01*
X65800238Y-89860057D02*
X65847857Y-89812438D01*
X65847857Y-89812438D02*
X65943095Y-89764819D01*
X65943095Y-89764819D02*
X66181190Y-89764819D01*
X66181190Y-89764819D02*
X66276428Y-89812438D01*
X66276428Y-89812438D02*
X66324047Y-89860057D01*
X66324047Y-89860057D02*
X66371666Y-89955295D01*
X66371666Y-89955295D02*
X66371666Y-90050533D01*
X66371666Y-90050533D02*
X66324047Y-90193390D01*
X66324047Y-90193390D02*
X65752619Y-90764819D01*
X65752619Y-90764819D02*
X66371666Y-90764819D01*
X155057142Y-55359580D02*
X155009523Y-55407200D01*
X155009523Y-55407200D02*
X154866666Y-55454819D01*
X154866666Y-55454819D02*
X154771428Y-55454819D01*
X154771428Y-55454819D02*
X154628571Y-55407200D01*
X154628571Y-55407200D02*
X154533333Y-55311961D01*
X154533333Y-55311961D02*
X154485714Y-55216723D01*
X154485714Y-55216723D02*
X154438095Y-55026247D01*
X154438095Y-55026247D02*
X154438095Y-54883390D01*
X154438095Y-54883390D02*
X154485714Y-54692914D01*
X154485714Y-54692914D02*
X154533333Y-54597676D01*
X154533333Y-54597676D02*
X154628571Y-54502438D01*
X154628571Y-54502438D02*
X154771428Y-54454819D01*
X154771428Y-54454819D02*
X154866666Y-54454819D01*
X154866666Y-54454819D02*
X155009523Y-54502438D01*
X155009523Y-54502438D02*
X155057142Y-54550057D01*
X156009523Y-55454819D02*
X155438095Y-55454819D01*
X155723809Y-55454819D02*
X155723809Y-54454819D01*
X155723809Y-54454819D02*
X155628571Y-54597676D01*
X155628571Y-54597676D02*
X155533333Y-54692914D01*
X155533333Y-54692914D02*
X155438095Y-54740533D01*
X156914285Y-54454819D02*
X156438095Y-54454819D01*
X156438095Y-54454819D02*
X156390476Y-54931009D01*
X156390476Y-54931009D02*
X156438095Y-54883390D01*
X156438095Y-54883390D02*
X156533333Y-54835771D01*
X156533333Y-54835771D02*
X156771428Y-54835771D01*
X156771428Y-54835771D02*
X156866666Y-54883390D01*
X156866666Y-54883390D02*
X156914285Y-54931009D01*
X156914285Y-54931009D02*
X156961904Y-55026247D01*
X156961904Y-55026247D02*
X156961904Y-55264342D01*
X156961904Y-55264342D02*
X156914285Y-55359580D01*
X156914285Y-55359580D02*
X156866666Y-55407200D01*
X156866666Y-55407200D02*
X156771428Y-55454819D01*
X156771428Y-55454819D02*
X156533333Y-55454819D01*
X156533333Y-55454819D02*
X156438095Y-55407200D01*
X156438095Y-55407200D02*
X156390476Y-55359580D01*
X67064580Y-69666666D02*
X67112200Y-69714285D01*
X67112200Y-69714285D02*
X67159819Y-69857142D01*
X67159819Y-69857142D02*
X67159819Y-69952380D01*
X67159819Y-69952380D02*
X67112200Y-70095237D01*
X67112200Y-70095237D02*
X67016961Y-70190475D01*
X67016961Y-70190475D02*
X66921723Y-70238094D01*
X66921723Y-70238094D02*
X66731247Y-70285713D01*
X66731247Y-70285713D02*
X66588390Y-70285713D01*
X66588390Y-70285713D02*
X66397914Y-70238094D01*
X66397914Y-70238094D02*
X66302676Y-70190475D01*
X66302676Y-70190475D02*
X66207438Y-70095237D01*
X66207438Y-70095237D02*
X66159819Y-69952380D01*
X66159819Y-69952380D02*
X66159819Y-69857142D01*
X66159819Y-69857142D02*
X66207438Y-69714285D01*
X66207438Y-69714285D02*
X66255057Y-69666666D01*
X66159819Y-69333332D02*
X66159819Y-68714285D01*
X66159819Y-68714285D02*
X66540771Y-69047618D01*
X66540771Y-69047618D02*
X66540771Y-68904761D01*
X66540771Y-68904761D02*
X66588390Y-68809523D01*
X66588390Y-68809523D02*
X66636009Y-68761904D01*
X66636009Y-68761904D02*
X66731247Y-68714285D01*
X66731247Y-68714285D02*
X66969342Y-68714285D01*
X66969342Y-68714285D02*
X67064580Y-68761904D01*
X67064580Y-68761904D02*
X67112200Y-68809523D01*
X67112200Y-68809523D02*
X67159819Y-68904761D01*
X67159819Y-68904761D02*
X67159819Y-69190475D01*
X67159819Y-69190475D02*
X67112200Y-69285713D01*
X67112200Y-69285713D02*
X67064580Y-69333332D01*
X67064580Y-129737857D02*
X67112200Y-129785476D01*
X67112200Y-129785476D02*
X67159819Y-129928333D01*
X67159819Y-129928333D02*
X67159819Y-130023571D01*
X67159819Y-130023571D02*
X67112200Y-130166428D01*
X67112200Y-130166428D02*
X67016961Y-130261666D01*
X67016961Y-130261666D02*
X66921723Y-130309285D01*
X66921723Y-130309285D02*
X66731247Y-130356904D01*
X66731247Y-130356904D02*
X66588390Y-130356904D01*
X66588390Y-130356904D02*
X66397914Y-130309285D01*
X66397914Y-130309285D02*
X66302676Y-130261666D01*
X66302676Y-130261666D02*
X66207438Y-130166428D01*
X66207438Y-130166428D02*
X66159819Y-130023571D01*
X66159819Y-130023571D02*
X66159819Y-129928333D01*
X66159819Y-129928333D02*
X66207438Y-129785476D01*
X66207438Y-129785476D02*
X66255057Y-129737857D01*
X67159819Y-128785476D02*
X67159819Y-129356904D01*
X67159819Y-129071190D02*
X66159819Y-129071190D01*
X66159819Y-129071190D02*
X66302676Y-129166428D01*
X66302676Y-129166428D02*
X66397914Y-129261666D01*
X66397914Y-129261666D02*
X66445533Y-129356904D01*
X66159819Y-128166428D02*
X66159819Y-128071190D01*
X66159819Y-128071190D02*
X66207438Y-127975952D01*
X66207438Y-127975952D02*
X66255057Y-127928333D01*
X66255057Y-127928333D02*
X66350295Y-127880714D01*
X66350295Y-127880714D02*
X66540771Y-127833095D01*
X66540771Y-127833095D02*
X66778866Y-127833095D01*
X66778866Y-127833095D02*
X66969342Y-127880714D01*
X66969342Y-127880714D02*
X67064580Y-127928333D01*
X67064580Y-127928333D02*
X67112200Y-127975952D01*
X67112200Y-127975952D02*
X67159819Y-128071190D01*
X67159819Y-128071190D02*
X67159819Y-128166428D01*
X67159819Y-128166428D02*
X67112200Y-128261666D01*
X67112200Y-128261666D02*
X67064580Y-128309285D01*
X67064580Y-128309285D02*
X66969342Y-128356904D01*
X66969342Y-128356904D02*
X66778866Y-128404523D01*
X66778866Y-128404523D02*
X66540771Y-128404523D01*
X66540771Y-128404523D02*
X66350295Y-128356904D01*
X66350295Y-128356904D02*
X66255057Y-128309285D01*
X66255057Y-128309285D02*
X66207438Y-128261666D01*
X66207438Y-128261666D02*
X66159819Y-128166428D01*
X115795180Y-112238095D02*
X114985657Y-112238095D01*
X114985657Y-112238095D02*
X114890419Y-112285714D01*
X114890419Y-112285714D02*
X114842800Y-112333333D01*
X114842800Y-112333333D02*
X114795180Y-112428571D01*
X114795180Y-112428571D02*
X114795180Y-112619047D01*
X114795180Y-112619047D02*
X114842800Y-112714285D01*
X114842800Y-112714285D02*
X114890419Y-112761904D01*
X114890419Y-112761904D02*
X114985657Y-112809523D01*
X114985657Y-112809523D02*
X115795180Y-112809523D01*
X114795180Y-113809523D02*
X114795180Y-113238095D01*
X114795180Y-113523809D02*
X115795180Y-113523809D01*
X115795180Y-113523809D02*
X115652323Y-113428571D01*
X115652323Y-113428571D02*
X115557085Y-113333333D01*
X115557085Y-113333333D02*
X115509466Y-113238095D01*
D13*
X115299206Y-108059700D02*
X115132540Y-108059700D01*
X115199206Y-107893034D02*
X115132540Y-108059700D01*
X115132540Y-108059700D02*
X115199206Y-108226367D01*
X114999206Y-107959700D02*
X115132540Y-108059700D01*
X115132540Y-108059700D02*
X114999206Y-108159700D01*
X115299206Y-108059700D02*
X115132540Y-108059700D01*
X115199206Y-107893034D02*
X115132540Y-108059700D01*
X115132540Y-108059700D02*
X115199206Y-108226367D01*
X114999206Y-107959700D02*
X115132540Y-108059700D01*
X115132540Y-108059700D02*
X114999206Y-108159700D01*
D12*
X64659819Y-129428333D02*
X65374104Y-129428333D01*
X65374104Y-129428333D02*
X65516961Y-129475952D01*
X65516961Y-129475952D02*
X65612200Y-129571190D01*
X65612200Y-129571190D02*
X65659819Y-129714047D01*
X65659819Y-129714047D02*
X65659819Y-129809285D01*
X64659819Y-129047380D02*
X64659819Y-128380714D01*
X64659819Y-128380714D02*
X65659819Y-128809285D01*
X65659819Y-135809285D02*
X65659819Y-136380713D01*
X65659819Y-136094999D02*
X64659819Y-136094999D01*
X64659819Y-136094999D02*
X64802676Y-136190237D01*
X64802676Y-136190237D02*
X64897914Y-136285475D01*
X64897914Y-136285475D02*
X64945533Y-136380713D01*
D11*
X106765504Y-103468659D02*
X106765504Y-102468659D01*
X106765504Y-102468659D02*
X107003599Y-102468659D01*
X107003599Y-102468659D02*
X107146456Y-102516278D01*
X107146456Y-102516278D02*
X107241694Y-102611516D01*
X107241694Y-102611516D02*
X107289313Y-102706754D01*
X107289313Y-102706754D02*
X107336932Y-102897230D01*
X107336932Y-102897230D02*
X107336932Y-103040087D01*
X107336932Y-103040087D02*
X107289313Y-103230563D01*
X107289313Y-103230563D02*
X107241694Y-103325801D01*
X107241694Y-103325801D02*
X107146456Y-103421040D01*
X107146456Y-103421040D02*
X107003599Y-103468659D01*
X107003599Y-103468659D02*
X106765504Y-103468659D01*
X107670266Y-102468659D02*
X108336932Y-102468659D01*
X108336932Y-102468659D02*
X107908361Y-103468659D01*
D12*
X115091638Y-103348340D02*
X115044019Y-103395960D01*
X115044019Y-103395960D02*
X114901162Y-103443579D01*
X114901162Y-103443579D02*
X114805924Y-103443579D01*
X114805924Y-103443579D02*
X114663067Y-103395960D01*
X114663067Y-103395960D02*
X114567829Y-103300721D01*
X114567829Y-103300721D02*
X114520210Y-103205483D01*
X114520210Y-103205483D02*
X114472591Y-103015007D01*
X114472591Y-103015007D02*
X114472591Y-102872150D01*
X114472591Y-102872150D02*
X114520210Y-102681674D01*
X114520210Y-102681674D02*
X114567829Y-102586436D01*
X114567829Y-102586436D02*
X114663067Y-102491198D01*
X114663067Y-102491198D02*
X114805924Y-102443579D01*
X114805924Y-102443579D02*
X114901162Y-102443579D01*
X114901162Y-102443579D02*
X115044019Y-102491198D01*
X115044019Y-102491198D02*
X115091638Y-102538817D01*
X115663067Y-103443579D02*
X115567829Y-103395960D01*
X115567829Y-103395960D02*
X115520210Y-103300721D01*
X115520210Y-103300721D02*
X115520210Y-102443579D01*
X116044020Y-103443579D02*
X116044020Y-102443579D01*
X116139258Y-103062626D02*
X116424972Y-103443579D01*
X116424972Y-102776912D02*
X116044020Y-103157864D01*
X116615449Y-103538817D02*
X117377353Y-103538817D01*
X118091639Y-103443579D02*
X117615449Y-103443579D01*
X117615449Y-103443579D02*
X117615449Y-102443579D01*
X118424973Y-102919769D02*
X118758306Y-102919769D01*
X118901163Y-103443579D02*
X118424973Y-103443579D01*
X118424973Y-103443579D02*
X118424973Y-102443579D01*
X118424973Y-102443579D02*
X118901163Y-102443579D01*
X119329735Y-103443579D02*
X119329735Y-102443579D01*
X119329735Y-102443579D02*
X119567830Y-102443579D01*
X119567830Y-102443579D02*
X119710687Y-102491198D01*
X119710687Y-102491198D02*
X119805925Y-102586436D01*
X119805925Y-102586436D02*
X119853544Y-102681674D01*
X119853544Y-102681674D02*
X119901163Y-102872150D01*
X119901163Y-102872150D02*
X119901163Y-103015007D01*
X119901163Y-103015007D02*
X119853544Y-103205483D01*
X119853544Y-103205483D02*
X119805925Y-103300721D01*
X119805925Y-103300721D02*
X119710687Y-103395960D01*
X119710687Y-103395960D02*
X119567830Y-103443579D01*
X119567830Y-103443579D02*
X119329735Y-103443579D01*
X120091640Y-103538817D02*
X120853544Y-103538817D01*
X121282116Y-102967388D02*
X121282116Y-103443579D01*
X120948783Y-102443579D02*
X121282116Y-102967388D01*
X121282116Y-102967388D02*
X121615449Y-102443579D01*
X134633333Y-55359580D02*
X134585714Y-55407200D01*
X134585714Y-55407200D02*
X134442857Y-55454819D01*
X134442857Y-55454819D02*
X134347619Y-55454819D01*
X134347619Y-55454819D02*
X134204762Y-55407200D01*
X134204762Y-55407200D02*
X134109524Y-55311961D01*
X134109524Y-55311961D02*
X134061905Y-55216723D01*
X134061905Y-55216723D02*
X134014286Y-55026247D01*
X134014286Y-55026247D02*
X134014286Y-54883390D01*
X134014286Y-54883390D02*
X134061905Y-54692914D01*
X134061905Y-54692914D02*
X134109524Y-54597676D01*
X134109524Y-54597676D02*
X134204762Y-54502438D01*
X134204762Y-54502438D02*
X134347619Y-54454819D01*
X134347619Y-54454819D02*
X134442857Y-54454819D01*
X134442857Y-54454819D02*
X134585714Y-54502438D01*
X134585714Y-54502438D02*
X134633333Y-54550057D01*
X135490476Y-54454819D02*
X135300000Y-54454819D01*
X135300000Y-54454819D02*
X135204762Y-54502438D01*
X135204762Y-54502438D02*
X135157143Y-54550057D01*
X135157143Y-54550057D02*
X135061905Y-54692914D01*
X135061905Y-54692914D02*
X135014286Y-54883390D01*
X135014286Y-54883390D02*
X135014286Y-55264342D01*
X135014286Y-55264342D02*
X135061905Y-55359580D01*
X135061905Y-55359580D02*
X135109524Y-55407200D01*
X135109524Y-55407200D02*
X135204762Y-55454819D01*
X135204762Y-55454819D02*
X135395238Y-55454819D01*
X135395238Y-55454819D02*
X135490476Y-55407200D01*
X135490476Y-55407200D02*
X135538095Y-55359580D01*
X135538095Y-55359580D02*
X135585714Y-55264342D01*
X135585714Y-55264342D02*
X135585714Y-55026247D01*
X135585714Y-55026247D02*
X135538095Y-54931009D01*
X135538095Y-54931009D02*
X135490476Y-54883390D01*
X135490476Y-54883390D02*
X135395238Y-54835771D01*
X135395238Y-54835771D02*
X135204762Y-54835771D01*
X135204762Y-54835771D02*
X135109524Y-54883390D01*
X135109524Y-54883390D02*
X135061905Y-54931009D01*
X135061905Y-54931009D02*
X135014286Y-55026247D01*
X155057142Y-57359580D02*
X155009523Y-57407200D01*
X155009523Y-57407200D02*
X154866666Y-57454819D01*
X154866666Y-57454819D02*
X154771428Y-57454819D01*
X154771428Y-57454819D02*
X154628571Y-57407200D01*
X154628571Y-57407200D02*
X154533333Y-57311961D01*
X154533333Y-57311961D02*
X154485714Y-57216723D01*
X154485714Y-57216723D02*
X154438095Y-57026247D01*
X154438095Y-57026247D02*
X154438095Y-56883390D01*
X154438095Y-56883390D02*
X154485714Y-56692914D01*
X154485714Y-56692914D02*
X154533333Y-56597676D01*
X154533333Y-56597676D02*
X154628571Y-56502438D01*
X154628571Y-56502438D02*
X154771428Y-56454819D01*
X154771428Y-56454819D02*
X154866666Y-56454819D01*
X154866666Y-56454819D02*
X155009523Y-56502438D01*
X155009523Y-56502438D02*
X155057142Y-56550057D01*
X156009523Y-57454819D02*
X155438095Y-57454819D01*
X155723809Y-57454819D02*
X155723809Y-56454819D01*
X155723809Y-56454819D02*
X155628571Y-56597676D01*
X155628571Y-56597676D02*
X155533333Y-56692914D01*
X155533333Y-56692914D02*
X155438095Y-56740533D01*
X156866666Y-56454819D02*
X156676190Y-56454819D01*
X156676190Y-56454819D02*
X156580952Y-56502438D01*
X156580952Y-56502438D02*
X156533333Y-56550057D01*
X156533333Y-56550057D02*
X156438095Y-56692914D01*
X156438095Y-56692914D02*
X156390476Y-56883390D01*
X156390476Y-56883390D02*
X156390476Y-57264342D01*
X156390476Y-57264342D02*
X156438095Y-57359580D01*
X156438095Y-57359580D02*
X156485714Y-57407200D01*
X156485714Y-57407200D02*
X156580952Y-57454819D01*
X156580952Y-57454819D02*
X156771428Y-57454819D01*
X156771428Y-57454819D02*
X156866666Y-57407200D01*
X156866666Y-57407200D02*
X156914285Y-57359580D01*
X156914285Y-57359580D02*
X156961904Y-57264342D01*
X156961904Y-57264342D02*
X156961904Y-57026247D01*
X156961904Y-57026247D02*
X156914285Y-56931009D01*
X156914285Y-56931009D02*
X156866666Y-56883390D01*
X156866666Y-56883390D02*
X156771428Y-56835771D01*
X156771428Y-56835771D02*
X156580952Y-56835771D01*
X156580952Y-56835771D02*
X156485714Y-56883390D01*
X156485714Y-56883390D02*
X156438095Y-56931009D01*
X156438095Y-56931009D02*
X156390476Y-57026247D01*
X135659580Y-60166666D02*
X135707200Y-60214285D01*
X135707200Y-60214285D02*
X135754819Y-60357142D01*
X135754819Y-60357142D02*
X135754819Y-60452380D01*
X135754819Y-60452380D02*
X135707200Y-60595237D01*
X135707200Y-60595237D02*
X135611961Y-60690475D01*
X135611961Y-60690475D02*
X135516723Y-60738094D01*
X135516723Y-60738094D02*
X135326247Y-60785713D01*
X135326247Y-60785713D02*
X135183390Y-60785713D01*
X135183390Y-60785713D02*
X134992914Y-60738094D01*
X134992914Y-60738094D02*
X134897676Y-60690475D01*
X134897676Y-60690475D02*
X134802438Y-60595237D01*
X134802438Y-60595237D02*
X134754819Y-60452380D01*
X134754819Y-60452380D02*
X134754819Y-60357142D01*
X134754819Y-60357142D02*
X134802438Y-60214285D01*
X134802438Y-60214285D02*
X134850057Y-60166666D01*
X135183390Y-59595237D02*
X135135771Y-59690475D01*
X135135771Y-59690475D02*
X135088152Y-59738094D01*
X135088152Y-59738094D02*
X134992914Y-59785713D01*
X134992914Y-59785713D02*
X134945295Y-59785713D01*
X134945295Y-59785713D02*
X134850057Y-59738094D01*
X134850057Y-59738094D02*
X134802438Y-59690475D01*
X134802438Y-59690475D02*
X134754819Y-59595237D01*
X134754819Y-59595237D02*
X134754819Y-59404761D01*
X134754819Y-59404761D02*
X134802438Y-59309523D01*
X134802438Y-59309523D02*
X134850057Y-59261904D01*
X134850057Y-59261904D02*
X134945295Y-59214285D01*
X134945295Y-59214285D02*
X134992914Y-59214285D01*
X134992914Y-59214285D02*
X135088152Y-59261904D01*
X135088152Y-59261904D02*
X135135771Y-59309523D01*
X135135771Y-59309523D02*
X135183390Y-59404761D01*
X135183390Y-59404761D02*
X135183390Y-59595237D01*
X135183390Y-59595237D02*
X135231009Y-59690475D01*
X135231009Y-59690475D02*
X135278628Y-59738094D01*
X135278628Y-59738094D02*
X135373866Y-59785713D01*
X135373866Y-59785713D02*
X135564342Y-59785713D01*
X135564342Y-59785713D02*
X135659580Y-59738094D01*
X135659580Y-59738094D02*
X135707200Y-59690475D01*
X135707200Y-59690475D02*
X135754819Y-59595237D01*
X135754819Y-59595237D02*
X135754819Y-59404761D01*
X135754819Y-59404761D02*
X135707200Y-59309523D01*
X135707200Y-59309523D02*
X135659580Y-59261904D01*
X135659580Y-59261904D02*
X135564342Y-59214285D01*
X135564342Y-59214285D02*
X135373866Y-59214285D01*
X135373866Y-59214285D02*
X135278628Y-59261904D01*
X135278628Y-59261904D02*
X135231009Y-59309523D01*
X135231009Y-59309523D02*
X135183390Y-59404761D01*
D11*
X90143759Y-86333332D02*
X90191378Y-86190475D01*
X90191378Y-86190475D02*
X90191378Y-85952380D01*
X90191378Y-85952380D02*
X90143759Y-85857142D01*
X90143759Y-85857142D02*
X90096139Y-85809523D01*
X90096139Y-85809523D02*
X90000901Y-85761904D01*
X90000901Y-85761904D02*
X89905663Y-85761904D01*
X89905663Y-85761904D02*
X89810425Y-85809523D01*
X89810425Y-85809523D02*
X89762806Y-85857142D01*
X89762806Y-85857142D02*
X89715187Y-85952380D01*
X89715187Y-85952380D02*
X89667568Y-86142856D01*
X89667568Y-86142856D02*
X89619949Y-86238094D01*
X89619949Y-86238094D02*
X89572330Y-86285713D01*
X89572330Y-86285713D02*
X89477092Y-86333332D01*
X89477092Y-86333332D02*
X89381854Y-86333332D01*
X89381854Y-86333332D02*
X89286616Y-86285713D01*
X89286616Y-86285713D02*
X89238997Y-86238094D01*
X89238997Y-86238094D02*
X89191378Y-86142856D01*
X89191378Y-86142856D02*
X89191378Y-85904761D01*
X89191378Y-85904761D02*
X89238997Y-85761904D01*
X89191378Y-85428570D02*
X90191378Y-85190475D01*
X90191378Y-85190475D02*
X89477092Y-84999999D01*
X89477092Y-84999999D02*
X90191378Y-84809523D01*
X90191378Y-84809523D02*
X89191378Y-84571428D01*
X89286616Y-84238094D02*
X89238997Y-84190475D01*
X89238997Y-84190475D02*
X89191378Y-84095237D01*
X89191378Y-84095237D02*
X89191378Y-83857142D01*
X89191378Y-83857142D02*
X89238997Y-83761904D01*
X89238997Y-83761904D02*
X89286616Y-83714285D01*
X89286616Y-83714285D02*
X89381854Y-83666666D01*
X89381854Y-83666666D02*
X89477092Y-83666666D01*
X89477092Y-83666666D02*
X89619949Y-83714285D01*
X89619949Y-83714285D02*
X90191378Y-84285713D01*
X90191378Y-84285713D02*
X90191378Y-83666666D01*
D12*
X155366666Y-52954819D02*
X155366666Y-53669104D01*
X155366666Y-53669104D02*
X155319047Y-53811961D01*
X155319047Y-53811961D02*
X155223809Y-53907200D01*
X155223809Y-53907200D02*
X155080952Y-53954819D01*
X155080952Y-53954819D02*
X154985714Y-53954819D01*
X155985714Y-53383390D02*
X155890476Y-53335771D01*
X155890476Y-53335771D02*
X155842857Y-53288152D01*
X155842857Y-53288152D02*
X155795238Y-53192914D01*
X155795238Y-53192914D02*
X155795238Y-53145295D01*
X155795238Y-53145295D02*
X155842857Y-53050057D01*
X155842857Y-53050057D02*
X155890476Y-53002438D01*
X155890476Y-53002438D02*
X155985714Y-52954819D01*
X155985714Y-52954819D02*
X156176190Y-52954819D01*
X156176190Y-52954819D02*
X156271428Y-53002438D01*
X156271428Y-53002438D02*
X156319047Y-53050057D01*
X156319047Y-53050057D02*
X156366666Y-53145295D01*
X156366666Y-53145295D02*
X156366666Y-53192914D01*
X156366666Y-53192914D02*
X156319047Y-53288152D01*
X156319047Y-53288152D02*
X156271428Y-53335771D01*
X156271428Y-53335771D02*
X156176190Y-53383390D01*
X156176190Y-53383390D02*
X155985714Y-53383390D01*
X155985714Y-53383390D02*
X155890476Y-53431009D01*
X155890476Y-53431009D02*
X155842857Y-53478628D01*
X155842857Y-53478628D02*
X155795238Y-53573866D01*
X155795238Y-53573866D02*
X155795238Y-53764342D01*
X155795238Y-53764342D02*
X155842857Y-53859580D01*
X155842857Y-53859580D02*
X155890476Y-53907200D01*
X155890476Y-53907200D02*
X155985714Y-53954819D01*
X155985714Y-53954819D02*
X156176190Y-53954819D01*
X156176190Y-53954819D02*
X156271428Y-53907200D01*
X156271428Y-53907200D02*
X156319047Y-53859580D01*
X156319047Y-53859580D02*
X156366666Y-53764342D01*
X156366666Y-53764342D02*
X156366666Y-53573866D01*
X156366666Y-53573866D02*
X156319047Y-53478628D01*
X156319047Y-53478628D02*
X156271428Y-53431009D01*
X156271428Y-53431009D02*
X156176190Y-53383390D01*
X148985714Y-53954819D02*
X148414286Y-53954819D01*
X148700000Y-53954819D02*
X148700000Y-52954819D01*
X148700000Y-52954819D02*
X148604762Y-53097676D01*
X148604762Y-53097676D02*
X148509524Y-53192914D01*
X148509524Y-53192914D02*
X148414286Y-53240533D01*
X144833333Y-55359580D02*
X144785714Y-55407200D01*
X144785714Y-55407200D02*
X144642857Y-55454819D01*
X144642857Y-55454819D02*
X144547619Y-55454819D01*
X144547619Y-55454819D02*
X144404762Y-55407200D01*
X144404762Y-55407200D02*
X144309524Y-55311961D01*
X144309524Y-55311961D02*
X144261905Y-55216723D01*
X144261905Y-55216723D02*
X144214286Y-55026247D01*
X144214286Y-55026247D02*
X144214286Y-54883390D01*
X144214286Y-54883390D02*
X144261905Y-54692914D01*
X144261905Y-54692914D02*
X144309524Y-54597676D01*
X144309524Y-54597676D02*
X144404762Y-54502438D01*
X144404762Y-54502438D02*
X144547619Y-54454819D01*
X144547619Y-54454819D02*
X144642857Y-54454819D01*
X144642857Y-54454819D02*
X144785714Y-54502438D01*
X144785714Y-54502438D02*
X144833333Y-54550057D01*
X145309524Y-55454819D02*
X145500000Y-55454819D01*
X145500000Y-55454819D02*
X145595238Y-55407200D01*
X145595238Y-55407200D02*
X145642857Y-55359580D01*
X145642857Y-55359580D02*
X145738095Y-55216723D01*
X145738095Y-55216723D02*
X145785714Y-55026247D01*
X145785714Y-55026247D02*
X145785714Y-54645295D01*
X145785714Y-54645295D02*
X145738095Y-54550057D01*
X145738095Y-54550057D02*
X145690476Y-54502438D01*
X145690476Y-54502438D02*
X145595238Y-54454819D01*
X145595238Y-54454819D02*
X145404762Y-54454819D01*
X145404762Y-54454819D02*
X145309524Y-54502438D01*
X145309524Y-54502438D02*
X145261905Y-54550057D01*
X145261905Y-54550057D02*
X145214286Y-54645295D01*
X145214286Y-54645295D02*
X145214286Y-54883390D01*
X145214286Y-54883390D02*
X145261905Y-54978628D01*
X145261905Y-54978628D02*
X145309524Y-55026247D01*
X145309524Y-55026247D02*
X145404762Y-55073866D01*
X145404762Y-55073866D02*
X145595238Y-55073866D01*
X145595238Y-55073866D02*
X145690476Y-55026247D01*
X145690476Y-55026247D02*
X145738095Y-54978628D01*
X145738095Y-54978628D02*
X145785714Y-54883390D01*
X134633333Y-57359580D02*
X134585714Y-57407200D01*
X134585714Y-57407200D02*
X134442857Y-57454819D01*
X134442857Y-57454819D02*
X134347619Y-57454819D01*
X134347619Y-57454819D02*
X134204762Y-57407200D01*
X134204762Y-57407200D02*
X134109524Y-57311961D01*
X134109524Y-57311961D02*
X134061905Y-57216723D01*
X134061905Y-57216723D02*
X134014286Y-57026247D01*
X134014286Y-57026247D02*
X134014286Y-56883390D01*
X134014286Y-56883390D02*
X134061905Y-56692914D01*
X134061905Y-56692914D02*
X134109524Y-56597676D01*
X134109524Y-56597676D02*
X134204762Y-56502438D01*
X134204762Y-56502438D02*
X134347619Y-56454819D01*
X134347619Y-56454819D02*
X134442857Y-56454819D01*
X134442857Y-56454819D02*
X134585714Y-56502438D01*
X134585714Y-56502438D02*
X134633333Y-56550057D01*
X134966667Y-56454819D02*
X135633333Y-56454819D01*
X135633333Y-56454819D02*
X135204762Y-57454819D01*
X134966666Y-52954819D02*
X134966666Y-53669104D01*
X134966666Y-53669104D02*
X134919047Y-53811961D01*
X134919047Y-53811961D02*
X134823809Y-53907200D01*
X134823809Y-53907200D02*
X134680952Y-53954819D01*
X134680952Y-53954819D02*
X134585714Y-53954819D01*
X135871428Y-53288152D02*
X135871428Y-53954819D01*
X135633333Y-52907200D02*
X135395238Y-53621485D01*
X135395238Y-53621485D02*
X136014285Y-53621485D01*
X128585714Y-53954819D02*
X128014286Y-53954819D01*
X128300000Y-53954819D02*
X128300000Y-52954819D01*
X128300000Y-52954819D02*
X128204762Y-53097676D01*
X128204762Y-53097676D02*
X128109524Y-53192914D01*
X128109524Y-53192914D02*
X128014286Y-53240533D01*
X65371666Y-149859819D02*
X65371666Y-150574104D01*
X65371666Y-150574104D02*
X65324047Y-150716961D01*
X65324047Y-150716961D02*
X65228809Y-150812200D01*
X65228809Y-150812200D02*
X65085952Y-150859819D01*
X65085952Y-150859819D02*
X64990714Y-150859819D01*
X66324047Y-149859819D02*
X65847857Y-149859819D01*
X65847857Y-149859819D02*
X65800238Y-150336009D01*
X65800238Y-150336009D02*
X65847857Y-150288390D01*
X65847857Y-150288390D02*
X65943095Y-150240771D01*
X65943095Y-150240771D02*
X66181190Y-150240771D01*
X66181190Y-150240771D02*
X66276428Y-150288390D01*
X66276428Y-150288390D02*
X66324047Y-150336009D01*
X66324047Y-150336009D02*
X66371666Y-150431247D01*
X66371666Y-150431247D02*
X66371666Y-150669342D01*
X66371666Y-150669342D02*
X66324047Y-150764580D01*
X66324047Y-150764580D02*
X66276428Y-150812200D01*
X66276428Y-150812200D02*
X66181190Y-150859819D01*
X66181190Y-150859819D02*
X65943095Y-150859819D01*
X65943095Y-150859819D02*
X65847857Y-150812200D01*
X65847857Y-150812200D02*
X65800238Y-150764580D01*
X144857142Y-57359580D02*
X144809523Y-57407200D01*
X144809523Y-57407200D02*
X144666666Y-57454819D01*
X144666666Y-57454819D02*
X144571428Y-57454819D01*
X144571428Y-57454819D02*
X144428571Y-57407200D01*
X144428571Y-57407200D02*
X144333333Y-57311961D01*
X144333333Y-57311961D02*
X144285714Y-57216723D01*
X144285714Y-57216723D02*
X144238095Y-57026247D01*
X144238095Y-57026247D02*
X144238095Y-56883390D01*
X144238095Y-56883390D02*
X144285714Y-56692914D01*
X144285714Y-56692914D02*
X144333333Y-56597676D01*
X144333333Y-56597676D02*
X144428571Y-56502438D01*
X144428571Y-56502438D02*
X144571428Y-56454819D01*
X144571428Y-56454819D02*
X144666666Y-56454819D01*
X144666666Y-56454819D02*
X144809523Y-56502438D01*
X144809523Y-56502438D02*
X144857142Y-56550057D01*
X145809523Y-57454819D02*
X145238095Y-57454819D01*
X145523809Y-57454819D02*
X145523809Y-56454819D01*
X145523809Y-56454819D02*
X145428571Y-56597676D01*
X145428571Y-56597676D02*
X145333333Y-56692914D01*
X145333333Y-56692914D02*
X145238095Y-56740533D01*
X146761904Y-57454819D02*
X146190476Y-57454819D01*
X146476190Y-57454819D02*
X146476190Y-56454819D01*
X146476190Y-56454819D02*
X146380952Y-56597676D01*
X146380952Y-56597676D02*
X146285714Y-56692914D01*
X146285714Y-56692914D02*
X146190476Y-56740533D01*
X71538333Y-76359580D02*
X71490714Y-76407200D01*
X71490714Y-76407200D02*
X71347857Y-76454819D01*
X71347857Y-76454819D02*
X71252619Y-76454819D01*
X71252619Y-76454819D02*
X71109762Y-76407200D01*
X71109762Y-76407200D02*
X71014524Y-76311961D01*
X71014524Y-76311961D02*
X70966905Y-76216723D01*
X70966905Y-76216723D02*
X70919286Y-76026247D01*
X70919286Y-76026247D02*
X70919286Y-75883390D01*
X70919286Y-75883390D02*
X70966905Y-75692914D01*
X70966905Y-75692914D02*
X71014524Y-75597676D01*
X71014524Y-75597676D02*
X71109762Y-75502438D01*
X71109762Y-75502438D02*
X71252619Y-75454819D01*
X71252619Y-75454819D02*
X71347857Y-75454819D01*
X71347857Y-75454819D02*
X71490714Y-75502438D01*
X71490714Y-75502438D02*
X71538333Y-75550057D01*
X72443095Y-75454819D02*
X71966905Y-75454819D01*
X71966905Y-75454819D02*
X71919286Y-75931009D01*
X71919286Y-75931009D02*
X71966905Y-75883390D01*
X71966905Y-75883390D02*
X72062143Y-75835771D01*
X72062143Y-75835771D02*
X72300238Y-75835771D01*
X72300238Y-75835771D02*
X72395476Y-75883390D01*
X72395476Y-75883390D02*
X72443095Y-75931009D01*
X72443095Y-75931009D02*
X72490714Y-76026247D01*
X72490714Y-76026247D02*
X72490714Y-76264342D01*
X72490714Y-76264342D02*
X72443095Y-76359580D01*
X72443095Y-76359580D02*
X72395476Y-76407200D01*
X72395476Y-76407200D02*
X72300238Y-76454819D01*
X72300238Y-76454819D02*
X72062143Y-76454819D01*
X72062143Y-76454819D02*
X71966905Y-76407200D01*
X71966905Y-76407200D02*
X71919286Y-76359580D01*
D11*
X106761905Y-127957419D02*
X106761905Y-126957419D01*
X106761905Y-126957419D02*
X107000000Y-126957419D01*
X107000000Y-126957419D02*
X107142857Y-127005038D01*
X107142857Y-127005038D02*
X107238095Y-127100276D01*
X107238095Y-127100276D02*
X107285714Y-127195514D01*
X107285714Y-127195514D02*
X107333333Y-127385990D01*
X107333333Y-127385990D02*
X107333333Y-127528847D01*
X107333333Y-127528847D02*
X107285714Y-127719323D01*
X107285714Y-127719323D02*
X107238095Y-127814561D01*
X107238095Y-127814561D02*
X107142857Y-127909800D01*
X107142857Y-127909800D02*
X107000000Y-127957419D01*
X107000000Y-127957419D02*
X106761905Y-127957419D01*
X107666667Y-126957419D02*
X108285714Y-126957419D01*
X108285714Y-126957419D02*
X107952381Y-127338371D01*
X107952381Y-127338371D02*
X108095238Y-127338371D01*
X108095238Y-127338371D02*
X108190476Y-127385990D01*
X108190476Y-127385990D02*
X108238095Y-127433609D01*
X108238095Y-127433609D02*
X108285714Y-127528847D01*
X108285714Y-127528847D02*
X108285714Y-127766942D01*
X108285714Y-127766942D02*
X108238095Y-127862180D01*
X108238095Y-127862180D02*
X108190476Y-127909800D01*
X108190476Y-127909800D02*
X108095238Y-127957419D01*
X108095238Y-127957419D02*
X107809524Y-127957419D01*
X107809524Y-127957419D02*
X107714286Y-127909800D01*
X107714286Y-127909800D02*
X107666667Y-127862180D01*
D12*
X114690476Y-126954819D02*
X115261904Y-126954819D01*
X114976190Y-127954819D02*
X114976190Y-126954819D01*
X115595238Y-127954819D02*
X115595238Y-127288152D01*
X115595238Y-127478628D02*
X115642857Y-127383390D01*
X115642857Y-127383390D02*
X115690476Y-127335771D01*
X115690476Y-127335771D02*
X115785714Y-127288152D01*
X115785714Y-127288152D02*
X115880952Y-127288152D01*
X116214286Y-127954819D02*
X116214286Y-127288152D01*
X116214286Y-126954819D02*
X116166667Y-127002438D01*
X116166667Y-127002438D02*
X116214286Y-127050057D01*
X116214286Y-127050057D02*
X116261905Y-127002438D01*
X116261905Y-127002438D02*
X116214286Y-126954819D01*
X116214286Y-126954819D02*
X116214286Y-127050057D01*
X117119047Y-127288152D02*
X117119047Y-128097676D01*
X117119047Y-128097676D02*
X117071428Y-128192914D01*
X117071428Y-128192914D02*
X117023809Y-128240533D01*
X117023809Y-128240533D02*
X116928571Y-128288152D01*
X116928571Y-128288152D02*
X116785714Y-128288152D01*
X116785714Y-128288152D02*
X116690476Y-128240533D01*
X117119047Y-127907200D02*
X117023809Y-127954819D01*
X117023809Y-127954819D02*
X116833333Y-127954819D01*
X116833333Y-127954819D02*
X116738095Y-127907200D01*
X116738095Y-127907200D02*
X116690476Y-127859580D01*
X116690476Y-127859580D02*
X116642857Y-127764342D01*
X116642857Y-127764342D02*
X116642857Y-127478628D01*
X116642857Y-127478628D02*
X116690476Y-127383390D01*
X116690476Y-127383390D02*
X116738095Y-127335771D01*
X116738095Y-127335771D02*
X116833333Y-127288152D01*
X116833333Y-127288152D02*
X117023809Y-127288152D01*
X117023809Y-127288152D02*
X117119047Y-127335771D01*
X117357143Y-128050057D02*
X118119047Y-128050057D01*
X118690476Y-127431009D02*
X118833333Y-127478628D01*
X118833333Y-127478628D02*
X118880952Y-127526247D01*
X118880952Y-127526247D02*
X118928571Y-127621485D01*
X118928571Y-127621485D02*
X118928571Y-127764342D01*
X118928571Y-127764342D02*
X118880952Y-127859580D01*
X118880952Y-127859580D02*
X118833333Y-127907200D01*
X118833333Y-127907200D02*
X118738095Y-127954819D01*
X118738095Y-127954819D02*
X118357143Y-127954819D01*
X118357143Y-127954819D02*
X118357143Y-126954819D01*
X118357143Y-126954819D02*
X118690476Y-126954819D01*
X118690476Y-126954819D02*
X118785714Y-127002438D01*
X118785714Y-127002438D02*
X118833333Y-127050057D01*
X118833333Y-127050057D02*
X118880952Y-127145295D01*
X118880952Y-127145295D02*
X118880952Y-127240533D01*
X118880952Y-127240533D02*
X118833333Y-127335771D01*
X118833333Y-127335771D02*
X118785714Y-127383390D01*
X118785714Y-127383390D02*
X118690476Y-127431009D01*
X118690476Y-127431009D02*
X118357143Y-127431009D01*
X119357143Y-127954819D02*
X119357143Y-126954819D01*
X119357143Y-126954819D02*
X119928571Y-127954819D01*
X119928571Y-127954819D02*
X119928571Y-126954819D01*
X120976190Y-127859580D02*
X120928571Y-127907200D01*
X120928571Y-127907200D02*
X120785714Y-127954819D01*
X120785714Y-127954819D02*
X120690476Y-127954819D01*
X120690476Y-127954819D02*
X120547619Y-127907200D01*
X120547619Y-127907200D02*
X120452381Y-127811961D01*
X120452381Y-127811961D02*
X120404762Y-127716723D01*
X120404762Y-127716723D02*
X120357143Y-127526247D01*
X120357143Y-127526247D02*
X120357143Y-127383390D01*
X120357143Y-127383390D02*
X120404762Y-127192914D01*
X120404762Y-127192914D02*
X120452381Y-127097676D01*
X120452381Y-127097676D02*
X120547619Y-127002438D01*
X120547619Y-127002438D02*
X120690476Y-126954819D01*
X120690476Y-126954819D02*
X120785714Y-126954819D01*
X120785714Y-126954819D02*
X120928571Y-127002438D01*
X120928571Y-127002438D02*
X120976190Y-127050057D01*
X121166667Y-128050057D02*
X121928571Y-128050057D01*
X122642857Y-127954819D02*
X122166667Y-127954819D01*
X122166667Y-127954819D02*
X122166667Y-126954819D01*
X122976191Y-127431009D02*
X123309524Y-127431009D01*
X123452381Y-127954819D02*
X122976191Y-127954819D01*
X122976191Y-127954819D02*
X122976191Y-126954819D01*
X122976191Y-126954819D02*
X123452381Y-126954819D01*
X123880953Y-127954819D02*
X123880953Y-126954819D01*
X123880953Y-126954819D02*
X124119048Y-126954819D01*
X124119048Y-126954819D02*
X124261905Y-127002438D01*
X124261905Y-127002438D02*
X124357143Y-127097676D01*
X124357143Y-127097676D02*
X124404762Y-127192914D01*
X124404762Y-127192914D02*
X124452381Y-127383390D01*
X124452381Y-127383390D02*
X124452381Y-127526247D01*
X124452381Y-127526247D02*
X124404762Y-127716723D01*
X124404762Y-127716723D02*
X124357143Y-127811961D01*
X124357143Y-127811961D02*
X124261905Y-127907200D01*
X124261905Y-127907200D02*
X124119048Y-127954819D01*
X124119048Y-127954819D02*
X123880953Y-127954819D01*
X124642858Y-128050057D02*
X125404762Y-128050057D01*
X126166667Y-127002438D02*
X126071429Y-126954819D01*
X126071429Y-126954819D02*
X125928572Y-126954819D01*
X125928572Y-126954819D02*
X125785715Y-127002438D01*
X125785715Y-127002438D02*
X125690477Y-127097676D01*
X125690477Y-127097676D02*
X125642858Y-127192914D01*
X125642858Y-127192914D02*
X125595239Y-127383390D01*
X125595239Y-127383390D02*
X125595239Y-127526247D01*
X125595239Y-127526247D02*
X125642858Y-127716723D01*
X125642858Y-127716723D02*
X125690477Y-127811961D01*
X125690477Y-127811961D02*
X125785715Y-127907200D01*
X125785715Y-127907200D02*
X125928572Y-127954819D01*
X125928572Y-127954819D02*
X126023810Y-127954819D01*
X126023810Y-127954819D02*
X126166667Y-127907200D01*
X126166667Y-127907200D02*
X126214286Y-127859580D01*
X126214286Y-127859580D02*
X126214286Y-127526247D01*
X126214286Y-127526247D02*
X126023810Y-127526247D01*
D11*
X106761905Y-136957419D02*
X106761905Y-135957419D01*
X106761905Y-135957419D02*
X107000000Y-135957419D01*
X107000000Y-135957419D02*
X107142857Y-136005038D01*
X107142857Y-136005038D02*
X107238095Y-136100276D01*
X107238095Y-136100276D02*
X107285714Y-136195514D01*
X107285714Y-136195514D02*
X107333333Y-136385990D01*
X107333333Y-136385990D02*
X107333333Y-136528847D01*
X107333333Y-136528847D02*
X107285714Y-136719323D01*
X107285714Y-136719323D02*
X107238095Y-136814561D01*
X107238095Y-136814561D02*
X107142857Y-136909800D01*
X107142857Y-136909800D02*
X107000000Y-136957419D01*
X107000000Y-136957419D02*
X106761905Y-136957419D01*
X108190476Y-136290752D02*
X108190476Y-136957419D01*
X107952381Y-135909800D02*
X107714286Y-136624085D01*
X107714286Y-136624085D02*
X108333333Y-136624085D01*
D12*
X114595238Y-135954819D02*
X115166666Y-135954819D01*
X114880952Y-136954819D02*
X114880952Y-135954819D01*
X115500000Y-136954819D02*
X115500000Y-136288152D01*
X115500000Y-136478628D02*
X115547619Y-136383390D01*
X115547619Y-136383390D02*
X115595238Y-136335771D01*
X115595238Y-136335771D02*
X115690476Y-136288152D01*
X115690476Y-136288152D02*
X115785714Y-136288152D01*
X116119048Y-136954819D02*
X116119048Y-136288152D01*
X116119048Y-135954819D02*
X116071429Y-136002438D01*
X116071429Y-136002438D02*
X116119048Y-136050057D01*
X116119048Y-136050057D02*
X116166667Y-136002438D01*
X116166667Y-136002438D02*
X116119048Y-135954819D01*
X116119048Y-135954819D02*
X116119048Y-136050057D01*
X117023809Y-136288152D02*
X117023809Y-137097676D01*
X117023809Y-137097676D02*
X116976190Y-137192914D01*
X116976190Y-137192914D02*
X116928571Y-137240533D01*
X116928571Y-137240533D02*
X116833333Y-137288152D01*
X116833333Y-137288152D02*
X116690476Y-137288152D01*
X116690476Y-137288152D02*
X116595238Y-137240533D01*
X117023809Y-136907200D02*
X116928571Y-136954819D01*
X116928571Y-136954819D02*
X116738095Y-136954819D01*
X116738095Y-136954819D02*
X116642857Y-136907200D01*
X116642857Y-136907200D02*
X116595238Y-136859580D01*
X116595238Y-136859580D02*
X116547619Y-136764342D01*
X116547619Y-136764342D02*
X116547619Y-136478628D01*
X116547619Y-136478628D02*
X116595238Y-136383390D01*
X116595238Y-136383390D02*
X116642857Y-136335771D01*
X116642857Y-136335771D02*
X116738095Y-136288152D01*
X116738095Y-136288152D02*
X116928571Y-136288152D01*
X116928571Y-136288152D02*
X117023809Y-136335771D01*
X117261905Y-137050057D02*
X118023809Y-137050057D01*
X118738095Y-136954819D02*
X118261905Y-136954819D01*
X118261905Y-136954819D02*
X118261905Y-135954819D01*
X119071429Y-136431009D02*
X119404762Y-136431009D01*
X119547619Y-136954819D02*
X119071429Y-136954819D01*
X119071429Y-136954819D02*
X119071429Y-135954819D01*
X119071429Y-135954819D02*
X119547619Y-135954819D01*
X119976191Y-136954819D02*
X119976191Y-135954819D01*
X119976191Y-135954819D02*
X120214286Y-135954819D01*
X120214286Y-135954819D02*
X120357143Y-136002438D01*
X120357143Y-136002438D02*
X120452381Y-136097676D01*
X120452381Y-136097676D02*
X120500000Y-136192914D01*
X120500000Y-136192914D02*
X120547619Y-136383390D01*
X120547619Y-136383390D02*
X120547619Y-136526247D01*
X120547619Y-136526247D02*
X120500000Y-136716723D01*
X120500000Y-136716723D02*
X120452381Y-136811961D01*
X120452381Y-136811961D02*
X120357143Y-136907200D01*
X120357143Y-136907200D02*
X120214286Y-136954819D01*
X120214286Y-136954819D02*
X119976191Y-136954819D01*
X120738096Y-137050057D02*
X121500000Y-137050057D01*
X122309524Y-136954819D02*
X121976191Y-136478628D01*
X121738096Y-136954819D02*
X121738096Y-135954819D01*
X121738096Y-135954819D02*
X122119048Y-135954819D01*
X122119048Y-135954819D02*
X122214286Y-136002438D01*
X122214286Y-136002438D02*
X122261905Y-136050057D01*
X122261905Y-136050057D02*
X122309524Y-136145295D01*
X122309524Y-136145295D02*
X122309524Y-136288152D01*
X122309524Y-136288152D02*
X122261905Y-136383390D01*
X122261905Y-136383390D02*
X122214286Y-136431009D01*
X122214286Y-136431009D02*
X122119048Y-136478628D01*
X122119048Y-136478628D02*
X121738096Y-136478628D01*
X71538333Y-69454819D02*
X71062143Y-69454819D01*
X71062143Y-69454819D02*
X71062143Y-68454819D01*
X72395476Y-69454819D02*
X71824048Y-69454819D01*
X72109762Y-69454819D02*
X72109762Y-68454819D01*
X72109762Y-68454819D02*
X72014524Y-68597676D01*
X72014524Y-68597676D02*
X71919286Y-68692914D01*
X71919286Y-68692914D02*
X71824048Y-68740533D01*
X145859580Y-60642857D02*
X145907200Y-60690476D01*
X145907200Y-60690476D02*
X145954819Y-60833333D01*
X145954819Y-60833333D02*
X145954819Y-60928571D01*
X145954819Y-60928571D02*
X145907200Y-61071428D01*
X145907200Y-61071428D02*
X145811961Y-61166666D01*
X145811961Y-61166666D02*
X145716723Y-61214285D01*
X145716723Y-61214285D02*
X145526247Y-61261904D01*
X145526247Y-61261904D02*
X145383390Y-61261904D01*
X145383390Y-61261904D02*
X145192914Y-61214285D01*
X145192914Y-61214285D02*
X145097676Y-61166666D01*
X145097676Y-61166666D02*
X145002438Y-61071428D01*
X145002438Y-61071428D02*
X144954819Y-60928571D01*
X144954819Y-60928571D02*
X144954819Y-60833333D01*
X144954819Y-60833333D02*
X145002438Y-60690476D01*
X145002438Y-60690476D02*
X145050057Y-60642857D01*
X145954819Y-59690476D02*
X145954819Y-60261904D01*
X145954819Y-59976190D02*
X144954819Y-59976190D01*
X144954819Y-59976190D02*
X145097676Y-60071428D01*
X145097676Y-60071428D02*
X145192914Y-60166666D01*
X145192914Y-60166666D02*
X145240533Y-60261904D01*
X144954819Y-59357142D02*
X144954819Y-58738095D01*
X144954819Y-58738095D02*
X145335771Y-59071428D01*
X145335771Y-59071428D02*
X145335771Y-58928571D01*
X145335771Y-58928571D02*
X145383390Y-58833333D01*
X145383390Y-58833333D02*
X145431009Y-58785714D01*
X145431009Y-58785714D02*
X145526247Y-58738095D01*
X145526247Y-58738095D02*
X145764342Y-58738095D01*
X145764342Y-58738095D02*
X145859580Y-58785714D01*
X145859580Y-58785714D02*
X145907200Y-58833333D01*
X145907200Y-58833333D02*
X145954819Y-58928571D01*
X145954819Y-58928571D02*
X145954819Y-59214285D01*
X145954819Y-59214285D02*
X145907200Y-59309523D01*
X145907200Y-59309523D02*
X145859580Y-59357142D01*
D11*
%TO.C,SW4*%
X156998737Y-71995061D02*
X154000000Y-71500000D01*
X157248737Y-72245061D02*
X157500000Y-72250000D01*
X157500000Y-72250000D02*
X157750000Y-72000000D01*
X157750000Y-72000000D02*
X158000000Y-72250000D01*
X158000000Y-72250000D02*
X158250000Y-72000000D01*
X158250000Y-72000000D02*
X158500000Y-72250000D01*
X158500000Y-72250000D02*
X159000000Y-72250000D01*
X159000000Y-71500000D02*
X159250000Y-71750000D01*
X159000000Y-71750000D02*
X159250000Y-71500000D01*
X159000000Y-72000000D02*
X159000000Y-72500000D01*
X159000000Y-72500000D02*
X159250000Y-72250000D01*
X159250000Y-71500000D02*
X159000000Y-71500000D01*
X159250000Y-71750000D02*
X159250000Y-71500000D01*
X159250000Y-72000000D02*
X159250000Y-72500000D01*
X159250000Y-72250000D02*
X159000000Y-72000000D01*
X159250000Y-72250000D02*
X159745176Y-72245061D01*
X159500000Y-71500000D02*
X159750000Y-71750000D01*
X159500000Y-71750000D02*
X159750000Y-71500000D01*
X159750000Y-71500000D02*
X159500000Y-71500000D01*
X159750000Y-71750000D02*
X159750000Y-71500000D01*
X154241158Y-72245061D02*
G75*
G02*
X153741158Y-72245061I-250000J0D01*
G01*
X153741158Y-72245061D02*
G75*
G02*
X154241158Y-72245061I250000J0D01*
G01*
X157248737Y-72245061D02*
G75*
G02*
X156748737Y-72245061I-250000J0D01*
G01*
X156748737Y-72245061D02*
G75*
G02*
X157248737Y-72245061I250000J0D01*
G01*
X160245176Y-72245061D02*
G75*
G02*
X159745176Y-72245061I-250000J0D01*
G01*
X159745176Y-72245061D02*
G75*
G02*
X160245176Y-72245061I250000J0D01*
G01*
%TO.C,SW3*%
X83668708Y-139634287D02*
X84435790Y-140401369D01*
X83680593Y-149615398D02*
X84447675Y-150382480D01*
X83668708Y-139634287D02*
G75*
G02*
X83168708Y-139634287I-250000J0D01*
G01*
X83168708Y-139634287D02*
G75*
G02*
X83668708Y-139634287I250000J0D01*
G01*
X83680593Y-149615398D02*
G75*
G02*
X83180593Y-149615398I-250000J0D01*
G01*
X83180593Y-149615398D02*
G75*
G02*
X83680593Y-149615398I250000J0D01*
G01*
X84423561Y-138632604D02*
G75*
G02*
X83923561Y-138632604I-250000J0D01*
G01*
X83923561Y-138632604D02*
G75*
G02*
X84423561Y-138632604I250000J0D01*
G01*
X84423561Y-140633803D02*
G75*
G02*
X83923561Y-140633803I-250000J0D01*
G01*
X83923561Y-140633803D02*
G75*
G02*
X84423561Y-140633803I250000J0D01*
G01*
X84435446Y-148613715D02*
G75*
G02*
X83935446Y-148613715I-250000J0D01*
G01*
X83935446Y-148613715D02*
G75*
G02*
X84435446Y-148613715I250000J0D01*
G01*
X84435446Y-150614914D02*
G75*
G02*
X83935446Y-150614914I-250000J0D01*
G01*
X83935446Y-150614914D02*
G75*
G02*
X84435446Y-150614914I250000J0D01*
G01*
D13*
%TO.C,C4*%
X67970000Y-72238748D02*
X67970000Y-72761252D01*
X69440000Y-72238748D02*
X69440000Y-72761252D01*
%TO.C,R7*%
X157772936Y-64265000D02*
X158227064Y-64265000D01*
X157772936Y-65735000D02*
X158227064Y-65735000D01*
%TO.C,L2*%
X129590000Y-59738748D02*
X129590000Y-60261252D01*
X131010000Y-59738748D02*
X131010000Y-60261252D01*
D11*
%TO.C,D5*%
X110496401Y-134238760D02*
X112496401Y-134238760D01*
X111246401Y-133738760D02*
X111246401Y-134738760D01*
X111246401Y-134738760D02*
X111746401Y-134238760D01*
X111496401Y-133238760D02*
X111746401Y-133488760D01*
X111496401Y-133488760D02*
X111746401Y-133238760D01*
X111746401Y-133238760D02*
X111496401Y-133238760D01*
X111746401Y-133488760D02*
X111746401Y-133238760D01*
X111746401Y-133738760D02*
X111746401Y-134738760D01*
X111746401Y-134238760D02*
X111246401Y-133738760D01*
X111996401Y-133238760D02*
X112246401Y-133488760D01*
X111996401Y-133488760D02*
X112246401Y-133238760D01*
X112246401Y-133238760D02*
X111996401Y-133238760D01*
X112246401Y-133488760D02*
X112246401Y-133238760D01*
D13*
%TO.C,L5*%
X149990000Y-59738748D02*
X149990000Y-60261252D01*
X151410000Y-59738748D02*
X151410000Y-60261252D01*
D11*
%TO.C,D9*%
X110496401Y-96238760D02*
X112496401Y-96238760D01*
X111246401Y-95738760D02*
X111246401Y-96738760D01*
X111246401Y-96738760D02*
X111746401Y-96238760D01*
X111496401Y-95238760D02*
X111746401Y-95488760D01*
X111496401Y-95488760D02*
X111746401Y-95238760D01*
X111746401Y-95238760D02*
X111496401Y-95238760D01*
X111746401Y-95488760D02*
X111746401Y-95238760D01*
X111746401Y-95738760D02*
X111746401Y-96738760D01*
X111746401Y-96238760D02*
X111246401Y-95738760D01*
X111996401Y-95238760D02*
X112246401Y-95488760D01*
X111996401Y-95488760D02*
X112246401Y-95238760D01*
X112246401Y-95238760D02*
X111996401Y-95238760D01*
X112246401Y-95488760D02*
X112246401Y-95238760D01*
D13*
%TO.C,C12*%
X67970000Y-132333748D02*
X67970000Y-132856252D01*
X69440000Y-132333748D02*
X69440000Y-132856252D01*
D14*
%TO.C,J6*%
X134900000Y-43700000D02*
X136000000Y-43700000D01*
X134900000Y-45000000D02*
X134900000Y-43700000D01*
X135900000Y-44000000D02*
X136900000Y-44000000D01*
X136000000Y-43700000D02*
X135900000Y-44000000D01*
X136900000Y-44000000D02*
X136900000Y-40500000D01*
X136900000Y-45000000D02*
X134900000Y-45000000D01*
X136900000Y-45000760D02*
X136900000Y-52500000D01*
X145100000Y-43700000D02*
X146200000Y-43700000D01*
X145100000Y-45000000D02*
X145100000Y-43700000D01*
X146100000Y-44000000D02*
X147100000Y-44000000D01*
X146200000Y-43700000D02*
X146100000Y-44000000D01*
X147100000Y-44000000D02*
X147100000Y-40500000D01*
X147100000Y-45000000D02*
X145100000Y-45000000D01*
X147100000Y-45000760D02*
X147100000Y-52500000D01*
X147100000Y-52500000D02*
X136900000Y-52500000D01*
D13*
%TO.C,C2*%
X91016665Y-61266246D02*
X91016665Y-60743742D01*
X92486665Y-61266246D02*
X92486665Y-60743742D01*
D14*
%TO.C,J3*%
X55405000Y-68300000D02*
X55705000Y-68400000D01*
X55405000Y-69400000D02*
X55405000Y-68300000D01*
X55405000Y-78500000D02*
X55705000Y-78600000D01*
X55405000Y-79600000D02*
X55405000Y-78500000D01*
X55705000Y-67400000D02*
X52205000Y-67400000D01*
X55705000Y-68400000D02*
X55705000Y-67400000D01*
X55705000Y-77600000D02*
X52205000Y-77600000D01*
X55705000Y-78600000D02*
X55705000Y-77600000D01*
X56705000Y-67400000D02*
X56705000Y-69400000D01*
X56705000Y-69400000D02*
X55405000Y-69400000D01*
X56705000Y-77600000D02*
X56705000Y-79600000D01*
X56705000Y-79600000D02*
X55405000Y-79600000D01*
X56705760Y-67400000D02*
X64205000Y-67400000D01*
X56705760Y-77600000D02*
X64205000Y-77600000D01*
X64205000Y-67400000D02*
X64205000Y-77600000D01*
D13*
%TO.C,L4*%
X71443748Y-130385000D02*
X71966252Y-130385000D01*
X71443748Y-131805000D02*
X71966252Y-131805000D01*
%TO.C,U2*%
X98522802Y-53380000D02*
X98522802Y-63620000D01*
X98522802Y-55960000D02*
X95982802Y-55960000D01*
X98522802Y-58500000D02*
X95982802Y-58500000D01*
X98522802Y-61040000D02*
X95982802Y-61040000D01*
X114412802Y-53380000D02*
X98522802Y-53380000D01*
X114412802Y-53380000D02*
X114412802Y-63620000D01*
X114412802Y-63620000D02*
X98522802Y-63620000D01*
X119580643Y-43457096D02*
X99180643Y-43457096D01*
X99180643Y-73457096D01*
X119580643Y-73457096D01*
X119580643Y-43457096D01*
D11*
%TO.C,D2*%
X110500000Y-125250000D02*
X112500000Y-125250000D01*
X111250000Y-124750000D02*
X111250000Y-125750000D01*
X111250000Y-125750000D02*
X111750000Y-125250000D01*
X111500000Y-124250000D02*
X111750000Y-124500000D01*
X111500000Y-124500000D02*
X111750000Y-124250000D01*
X111750000Y-124250000D02*
X111500000Y-124250000D01*
X111750000Y-124500000D02*
X111750000Y-124250000D01*
X111750000Y-124750000D02*
X111750000Y-125750000D01*
X111750000Y-125250000D02*
X111250000Y-124750000D01*
X112000000Y-124250000D02*
X112250000Y-124500000D01*
X112000000Y-124500000D02*
X112250000Y-124250000D01*
X112250000Y-124250000D02*
X112000000Y-124250000D01*
X112250000Y-124500000D02*
X112250000Y-124250000D01*
D13*
%TO.C,L3*%
X139790000Y-59738748D02*
X139790000Y-60261252D01*
X141210000Y-59738748D02*
X141210000Y-60261252D01*
D11*
%TO.C,D8*%
X110496401Y-100738760D02*
X112496401Y-100738760D01*
X111246401Y-100238760D02*
X111246401Y-101238760D01*
X111246401Y-101238760D02*
X111746401Y-100738760D01*
X111496401Y-99738760D02*
X111746401Y-99988760D01*
X111496401Y-99988760D02*
X111746401Y-99738760D01*
X111746401Y-99738760D02*
X111496401Y-99738760D01*
X111746401Y-99988760D02*
X111746401Y-99738760D01*
X111746401Y-100238760D02*
X111746401Y-101238760D01*
X111746401Y-100738760D02*
X111246401Y-100238760D01*
X111996401Y-99738760D02*
X112246401Y-99988760D01*
X111996401Y-99988760D02*
X112246401Y-99738760D01*
X112246401Y-99738760D02*
X111996401Y-99738760D01*
X112246401Y-99988760D02*
X112246401Y-99738760D01*
D13*
%TO.C,D1*%
X67360590Y-55926600D02*
X70220590Y-55926600D01*
X70220590Y-54006600D02*
X67360590Y-54006600D01*
X70220590Y-55926600D02*
X70220590Y-54006600D01*
%TO.C,C17*%
X152965000Y-60261252D02*
X152965000Y-59738748D01*
X154435000Y-60261252D02*
X154435000Y-59738748D01*
D15*
%TO.C,J1*%
X49483600Y-50242200D02*
X63737600Y-50242200D01*
X49483600Y-59691000D02*
X49483600Y-50242200D01*
X58152802Y-59691000D02*
X49483600Y-59691000D01*
X63737600Y-50242200D02*
X63737600Y-52946612D01*
X63737600Y-56986588D02*
X63737600Y-59691000D01*
X63737600Y-59691000D02*
X62318374Y-59691000D01*
D11*
%TO.C,SW1*%
X83415181Y-79540843D02*
X84182263Y-80307925D01*
X83427066Y-89521954D02*
X84194148Y-90289036D01*
X83415181Y-79540843D02*
G75*
G02*
X82915181Y-79540843I-250000J0D01*
G01*
X82915181Y-79540843D02*
G75*
G02*
X83415181Y-79540843I250000J0D01*
G01*
X83427066Y-89521954D02*
G75*
G02*
X82927066Y-89521954I-250000J0D01*
G01*
X82927066Y-89521954D02*
G75*
G02*
X83427066Y-89521954I250000J0D01*
G01*
X84170034Y-78539160D02*
G75*
G02*
X83670034Y-78539160I-250000J0D01*
G01*
X83670034Y-78539160D02*
G75*
G02*
X84170034Y-78539160I250000J0D01*
G01*
X84170034Y-80540359D02*
G75*
G02*
X83670034Y-80540359I-250000J0D01*
G01*
X83670034Y-80540359D02*
G75*
G02*
X84170034Y-80540359I250000J0D01*
G01*
X84181919Y-88520271D02*
G75*
G02*
X83681919Y-88520271I-250000J0D01*
G01*
X83681919Y-88520271D02*
G75*
G02*
X84181919Y-88520271I250000J0D01*
G01*
X84181919Y-90521470D02*
G75*
G02*
X83681919Y-90521470I-250000J0D01*
G01*
X83681919Y-90521470D02*
G75*
G02*
X84181919Y-90521470I250000J0D01*
G01*
D13*
%TO.C,C14*%
X71966252Y-133360000D02*
X71443748Y-133360000D01*
X71966252Y-134830000D02*
X71443748Y-134830000D01*
%TO.C,C1*%
X91016665Y-55757679D02*
X91016665Y-56280183D01*
X92486665Y-55757679D02*
X92486665Y-56280183D01*
D15*
%TO.C,J2*%
X51748200Y-91737000D02*
X51748200Y-106723000D01*
X51748200Y-106723000D02*
X66912000Y-106723000D01*
X66912000Y-91737000D02*
X51748200Y-91737000D01*
X66912000Y-106723000D02*
X66912000Y-91737000D01*
D13*
%TO.C,C15*%
X151938748Y-54265000D02*
X152461252Y-54265000D01*
X151938748Y-55735000D02*
X152461252Y-55735000D01*
%TO.C,C3*%
X65970000Y-72238748D02*
X65970000Y-72761252D01*
X67440000Y-72238748D02*
X67440000Y-72761252D01*
%TO.C,C10*%
X65970000Y-132333748D02*
X65970000Y-132856252D01*
X67440000Y-132333748D02*
X67440000Y-132856252D01*
D15*
%TO.C,U1*%
X100997600Y-109202700D02*
X100997600Y-116797300D01*
X114002400Y-116797300D02*
X114002400Y-109202700D01*
X114002400Y-113304800D02*
G75*
G02*
X114002400Y-112695200I0J304800D01*
G01*
D16*
G36*
X101975500Y-107069100D02*
G01*
X101594500Y-107069100D01*
X101594500Y-106815100D01*
X101975500Y-106815100D01*
X101975500Y-107069100D01*
G37*
G36*
X113405500Y-119184900D02*
G01*
X113024500Y-119184900D01*
X113024500Y-118930900D01*
X113405500Y-118930900D01*
X113405500Y-119184900D01*
G37*
D14*
%TO.C,J7*%
X55405000Y-128395000D02*
X55705000Y-128495000D01*
X55405000Y-129495000D02*
X55405000Y-128395000D01*
X55405000Y-138595000D02*
X55705000Y-138695000D01*
X55405000Y-139695000D02*
X55405000Y-138595000D01*
X55705000Y-127495000D02*
X52205000Y-127495000D01*
X55705000Y-128495000D02*
X55705000Y-127495000D01*
X55705000Y-137695000D02*
X52205000Y-137695000D01*
X55705000Y-138695000D02*
X55705000Y-137695000D01*
X56705000Y-127495000D02*
X56705000Y-129495000D01*
X56705000Y-129495000D02*
X55405000Y-129495000D01*
X56705000Y-137695000D02*
X56705000Y-139695000D01*
X56705000Y-139695000D02*
X55405000Y-139695000D01*
X56705760Y-127495000D02*
X64205000Y-127495000D01*
X56705760Y-137695000D02*
X64205000Y-137695000D01*
X64205000Y-127495000D02*
X64205000Y-137695000D01*
D11*
%TO.C,D7*%
X110500000Y-105250000D02*
X112500000Y-105250000D01*
X111250000Y-104750000D02*
X111250000Y-105750000D01*
X111250000Y-105750000D02*
X111750000Y-105250000D01*
X111500000Y-104250000D02*
X111750000Y-104500000D01*
X111500000Y-104500000D02*
X111750000Y-104250000D01*
X111750000Y-104250000D02*
X111500000Y-104250000D01*
X111750000Y-104500000D02*
X111750000Y-104250000D01*
X111750000Y-104750000D02*
X111750000Y-105750000D01*
X111750000Y-105250000D02*
X111250000Y-104750000D01*
X112000000Y-104250000D02*
X112250000Y-104500000D01*
X112000000Y-104500000D02*
X112250000Y-104250000D01*
X112250000Y-104250000D02*
X112000000Y-104250000D01*
X112250000Y-104500000D02*
X112250000Y-104250000D01*
D13*
%TO.C,C6*%
X131538748Y-54265000D02*
X132061252Y-54265000D01*
X131538748Y-55735000D02*
X132061252Y-55735000D01*
%TO.C,C16*%
X151938748Y-56265000D02*
X152461252Y-56265000D01*
X151938748Y-57735000D02*
X152461252Y-57735000D01*
%TO.C,C8*%
X132565000Y-60261252D02*
X132565000Y-59738748D01*
X134035000Y-60261252D02*
X134035000Y-59738748D01*
D11*
%TO.C,SW2*%
X94233959Y-85000000D02*
X95001041Y-85767082D01*
X94458959Y-85225000D02*
X94458959Y-85575000D01*
X94233959Y-85000000D02*
G75*
G02*
X93733959Y-85000000I-250000J0D01*
G01*
X93733959Y-85000000D02*
G75*
G02*
X94233959Y-85000000I250000J0D01*
G01*
X94988812Y-83998317D02*
G75*
G02*
X94488812Y-83998317I-250000J0D01*
G01*
X94488812Y-83998317D02*
G75*
G02*
X94988812Y-83998317I250000J0D01*
G01*
X94988812Y-85999516D02*
G75*
G02*
X94488812Y-85999516I-250000J0D01*
G01*
X94488812Y-85999516D02*
G75*
G02*
X94988812Y-85999516I250000J0D01*
G01*
D14*
%TO.C,J8*%
X145100000Y-43700000D02*
X146200000Y-43700000D01*
X145100000Y-45000000D02*
X145100000Y-43700000D01*
X146100000Y-44000000D02*
X147100000Y-44000000D01*
X146200000Y-43700000D02*
X146100000Y-44000000D01*
X147100000Y-44000000D02*
X147100000Y-40500000D01*
X147100000Y-45000000D02*
X145100000Y-45000000D01*
X147100000Y-45000760D02*
X147100000Y-52500000D01*
X155300000Y-43700000D02*
X156400000Y-43700000D01*
X155300000Y-45000000D02*
X155300000Y-43700000D01*
X156300000Y-44000000D02*
X157300000Y-44000000D01*
X156400000Y-43700000D02*
X156300000Y-44000000D01*
X157300000Y-44000000D02*
X157300000Y-40500000D01*
X157300000Y-45000000D02*
X155300000Y-45000000D01*
X157300000Y-45000760D02*
X157300000Y-52500000D01*
X157300000Y-52500000D02*
X147100000Y-52500000D01*
D13*
%TO.C,C9*%
X141738748Y-54265000D02*
X142261252Y-54265000D01*
X141738748Y-55735000D02*
X142261252Y-55735000D01*
%TO.C,C7*%
X131538748Y-56265000D02*
X132061252Y-56265000D01*
X131538748Y-57735000D02*
X132061252Y-57735000D01*
D14*
%TO.C,J4*%
X124700000Y-43700000D02*
X125800000Y-43700000D01*
X124700000Y-45000000D02*
X124700000Y-43700000D01*
X125700000Y-44000000D02*
X126700000Y-44000000D01*
X125800000Y-43700000D02*
X125700000Y-44000000D01*
X126700000Y-44000000D02*
X126700000Y-40500000D01*
X126700000Y-45000000D02*
X124700000Y-45000000D01*
X126700000Y-45000760D02*
X126700000Y-52500000D01*
X134900000Y-43700000D02*
X136000000Y-43700000D01*
X134900000Y-45000000D02*
X134900000Y-43700000D01*
X135900000Y-44000000D02*
X136900000Y-44000000D01*
X136000000Y-43700000D02*
X135900000Y-44000000D01*
X136900000Y-44000000D02*
X136900000Y-40500000D01*
X136900000Y-45000000D02*
X134900000Y-45000000D01*
X136900000Y-45000760D02*
X136900000Y-52500000D01*
X136900000Y-52500000D02*
X126700000Y-52500000D01*
D15*
%TO.C,J5*%
X51748200Y-151832000D02*
X51748200Y-166818000D01*
X51748200Y-166818000D02*
X66912000Y-166818000D01*
X66912000Y-151832000D02*
X51748200Y-151832000D01*
X66912000Y-166818000D02*
X66912000Y-151832000D01*
D13*
%TO.C,C11*%
X141738748Y-56265000D02*
X142261252Y-56265000D01*
X141738748Y-57735000D02*
X142261252Y-57735000D01*
%TO.C,C5*%
X71966252Y-73265000D02*
X71443748Y-73265000D01*
X71966252Y-74735000D02*
X71443748Y-74735000D01*
D11*
%TO.C,D3*%
X110496401Y-129738760D02*
X112496401Y-129738760D01*
X111246401Y-129238760D02*
X111246401Y-130238760D01*
X111246401Y-130238760D02*
X111746401Y-129738760D01*
X111496401Y-128738760D02*
X111746401Y-128988760D01*
X111496401Y-128988760D02*
X111746401Y-128738760D01*
X111746401Y-128738760D02*
X111496401Y-128738760D01*
X111746401Y-128988760D02*
X111746401Y-128738760D01*
X111746401Y-129238760D02*
X111746401Y-130238760D01*
X111746401Y-129738760D02*
X111246401Y-129238760D01*
X111996401Y-128738760D02*
X112246401Y-128988760D01*
X111996401Y-128988760D02*
X112246401Y-128738760D01*
X112246401Y-128738760D02*
X111996401Y-128738760D01*
X112246401Y-128988760D02*
X112246401Y-128738760D01*
%TO.C,D4*%
X110496401Y-138738760D02*
X112496401Y-138738760D01*
X111246401Y-138238760D02*
X111246401Y-139238760D01*
X111246401Y-139238760D02*
X111746401Y-138738760D01*
X111496401Y-137738760D02*
X111746401Y-137988760D01*
X111496401Y-137988760D02*
X111746401Y-137738760D01*
X111746401Y-137738760D02*
X111496401Y-137738760D01*
X111746401Y-137988760D02*
X111746401Y-137738760D01*
X111746401Y-138238760D02*
X111746401Y-139238760D01*
X111746401Y-138738760D02*
X111246401Y-138238760D01*
X111996401Y-137738760D02*
X112246401Y-137988760D01*
X111996401Y-137988760D02*
X112246401Y-137738760D01*
X112246401Y-137738760D02*
X111996401Y-137738760D01*
X112246401Y-137988760D02*
X112246401Y-137738760D01*
D13*
%TO.C,L1*%
X71443748Y-70290000D02*
X71966252Y-70290000D01*
X71443748Y-71710000D02*
X71966252Y-71710000D01*
%TO.C,C13*%
X142765000Y-60261252D02*
X142765000Y-59738748D01*
X144235000Y-60261252D02*
X144235000Y-59738748D01*
%TD*%
M02*
