%TF.GenerationSoftware,KiCad,Pcbnew,9.0.5-1.fc42*%
%TF.CreationDate,2025-11-19T14:29:43-05:00*%
%TF.ProjectId,fiber_control_board,66696265-725f-4636-9f6e-74726f6c5f62,rev?*%
%TF.SameCoordinates,Original*%
%TF.FileFunction,Soldermask,Bot*%
%TF.FilePolarity,Negative*%
%FSLAX46Y46*%
G04 Gerber Fmt 4.6, Leading zero omitted, Abs format (unit mm)*
G04 Created by KiCad (PCBNEW 9.0.5-1.fc42) date 2025-11-19 14:29:43*
%MOMM*%
%LPD*%
G01*
G04 APERTURE LIST*
G04 APERTURE END LIST*
G36*
X56617730Y-171854089D02*
G01*
X56629536Y-171854089D01*
X56687663Y-171863295D01*
X56822042Y-171880986D01*
X56854837Y-171889773D01*
X56885418Y-171894617D01*
X56944229Y-171913726D01*
X57030611Y-171936872D01*
X57085724Y-171959700D01*
X57131810Y-171974675D01*
X57174987Y-171996674D01*
X57230099Y-172019503D01*
X57307539Y-172064213D01*
X57362645Y-172092291D01*
X57387697Y-172110492D01*
X57417096Y-172127466D01*
X57524651Y-172209995D01*
X57572239Y-172244570D01*
X57580579Y-172252910D01*
X57588401Y-172258912D01*
X57741087Y-172411598D01*
X57747088Y-172419419D01*
X57755430Y-172427761D01*
X57790008Y-172475354D01*
X57872533Y-172582903D01*
X57889505Y-172612299D01*
X57907709Y-172637355D01*
X57935789Y-172692466D01*
X57980496Y-172769900D01*
X58003321Y-172825006D01*
X58025325Y-172868190D01*
X58040301Y-172914282D01*
X58063127Y-172969388D01*
X58086269Y-173055757D01*
X58105383Y-173114582D01*
X58110227Y-173145169D01*
X58119013Y-173177957D01*
X58136703Y-173312327D01*
X58145911Y-173370464D01*
X58145911Y-173382269D01*
X58147197Y-173392038D01*
X58147197Y-173607961D01*
X58145911Y-173617729D01*
X58145911Y-173629536D01*
X58136702Y-173687677D01*
X58119013Y-173822042D01*
X58110228Y-173854827D01*
X58105383Y-173885418D01*
X58086268Y-173944246D01*
X58063127Y-174030611D01*
X58040302Y-174085713D01*
X58025325Y-174131810D01*
X58003319Y-174174997D01*
X57980496Y-174230099D01*
X57935793Y-174307525D01*
X57907709Y-174362645D01*
X57889502Y-174387704D01*
X57872533Y-174417096D01*
X57790022Y-174524627D01*
X57755430Y-174572239D01*
X57747085Y-174580583D01*
X57741087Y-174588401D01*
X57588401Y-174741087D01*
X57580583Y-174747085D01*
X57572239Y-174755430D01*
X57524627Y-174790022D01*
X57417096Y-174872533D01*
X57387704Y-174889502D01*
X57362645Y-174907709D01*
X57307525Y-174935793D01*
X57230099Y-174980496D01*
X57174997Y-175003319D01*
X57131810Y-175025325D01*
X57085713Y-175040302D01*
X57030611Y-175063127D01*
X56944246Y-175086268D01*
X56885418Y-175105383D01*
X56854827Y-175110228D01*
X56822042Y-175119013D01*
X56687677Y-175136702D01*
X56629536Y-175145911D01*
X56617729Y-175145911D01*
X56607961Y-175147197D01*
X56392039Y-175147197D01*
X56382271Y-175145911D01*
X56370464Y-175145911D01*
X56312324Y-175136702D01*
X56177957Y-175119013D01*
X56145169Y-175110227D01*
X56114582Y-175105383D01*
X56055757Y-175086269D01*
X55969388Y-175063127D01*
X55914282Y-175040301D01*
X55868190Y-175025325D01*
X55825006Y-175003321D01*
X55769900Y-174980496D01*
X55692466Y-174935789D01*
X55637355Y-174907709D01*
X55612299Y-174889505D01*
X55582903Y-174872533D01*
X55475354Y-174790008D01*
X55427761Y-174755430D01*
X55419419Y-174747088D01*
X55411598Y-174741087D01*
X55258912Y-174588401D01*
X55252910Y-174580579D01*
X55244570Y-174572239D01*
X55209995Y-174524651D01*
X55127466Y-174417096D01*
X55110492Y-174387697D01*
X55092291Y-174362645D01*
X55064213Y-174307539D01*
X55019503Y-174230099D01*
X54996674Y-174174987D01*
X54974675Y-174131810D01*
X54959700Y-174085724D01*
X54936872Y-174030611D01*
X54913726Y-173944229D01*
X54894617Y-173885418D01*
X54889773Y-173854837D01*
X54880986Y-173822042D01*
X54863295Y-173687663D01*
X54854089Y-173629536D01*
X54854089Y-173617729D01*
X54852803Y-173607961D01*
X54852803Y-173392038D01*
X54854089Y-173382269D01*
X54854089Y-173370464D01*
X54863294Y-173312341D01*
X54880986Y-173177957D01*
X54889773Y-173145160D01*
X54894617Y-173114582D01*
X54913724Y-173055775D01*
X54936872Y-172969388D01*
X54959702Y-172914271D01*
X54974675Y-172868190D01*
X54996672Y-172825016D01*
X55019503Y-172769900D01*
X55064217Y-172692451D01*
X55092291Y-172637355D01*
X55110489Y-172612306D01*
X55127466Y-172582903D01*
X55210009Y-172475329D01*
X55244570Y-172427761D01*
X55252906Y-172419424D01*
X55258912Y-172411598D01*
X55411598Y-172258912D01*
X55419424Y-172252906D01*
X55427761Y-172244570D01*
X55475329Y-172210009D01*
X55582903Y-172127466D01*
X55612306Y-172110489D01*
X55637355Y-172092291D01*
X55692451Y-172064217D01*
X55769900Y-172019503D01*
X55825016Y-171996672D01*
X55868190Y-171974675D01*
X55914271Y-171959702D01*
X55969388Y-171936872D01*
X56055775Y-171913724D01*
X56114582Y-171894617D01*
X56145160Y-171889773D01*
X56177957Y-171880986D01*
X56312338Y-171863295D01*
X56370464Y-171854089D01*
X56382270Y-171854089D01*
X56392039Y-171852803D01*
X56607961Y-171852803D01*
X56617730Y-171854089D01*
G37*
G36*
X166117730Y-171854089D02*
G01*
X166129536Y-171854089D01*
X166187663Y-171863295D01*
X166322042Y-171880986D01*
X166354837Y-171889773D01*
X166385418Y-171894617D01*
X166444229Y-171913726D01*
X166530611Y-171936872D01*
X166585724Y-171959700D01*
X166631810Y-171974675D01*
X166674987Y-171996674D01*
X166730099Y-172019503D01*
X166807539Y-172064213D01*
X166862645Y-172092291D01*
X166887697Y-172110492D01*
X166917096Y-172127466D01*
X167024651Y-172209995D01*
X167072239Y-172244570D01*
X167080579Y-172252910D01*
X167088401Y-172258912D01*
X167241087Y-172411598D01*
X167247088Y-172419419D01*
X167255430Y-172427761D01*
X167290008Y-172475354D01*
X167372533Y-172582903D01*
X167389505Y-172612299D01*
X167407709Y-172637355D01*
X167435789Y-172692466D01*
X167480496Y-172769900D01*
X167503321Y-172825006D01*
X167525325Y-172868190D01*
X167540301Y-172914282D01*
X167563127Y-172969388D01*
X167586269Y-173055757D01*
X167605383Y-173114582D01*
X167610227Y-173145169D01*
X167619013Y-173177957D01*
X167636703Y-173312327D01*
X167645911Y-173370464D01*
X167645911Y-173382269D01*
X167647197Y-173392038D01*
X167647197Y-173607961D01*
X167645911Y-173617729D01*
X167645911Y-173629536D01*
X167636702Y-173687677D01*
X167619013Y-173822042D01*
X167610228Y-173854827D01*
X167605383Y-173885418D01*
X167586268Y-173944246D01*
X167563127Y-174030611D01*
X167540302Y-174085713D01*
X167525325Y-174131810D01*
X167503319Y-174174997D01*
X167480496Y-174230099D01*
X167435793Y-174307525D01*
X167407709Y-174362645D01*
X167389502Y-174387704D01*
X167372533Y-174417096D01*
X167290022Y-174524627D01*
X167255430Y-174572239D01*
X167247085Y-174580583D01*
X167241087Y-174588401D01*
X167088401Y-174741087D01*
X167080583Y-174747085D01*
X167072239Y-174755430D01*
X167024627Y-174790022D01*
X166917096Y-174872533D01*
X166887704Y-174889502D01*
X166862645Y-174907709D01*
X166807525Y-174935793D01*
X166730099Y-174980496D01*
X166674997Y-175003319D01*
X166631810Y-175025325D01*
X166585713Y-175040302D01*
X166530611Y-175063127D01*
X166444246Y-175086268D01*
X166385418Y-175105383D01*
X166354827Y-175110228D01*
X166322042Y-175119013D01*
X166187677Y-175136702D01*
X166129536Y-175145911D01*
X166117729Y-175145911D01*
X166107961Y-175147197D01*
X165892039Y-175147197D01*
X165882271Y-175145911D01*
X165870464Y-175145911D01*
X165812324Y-175136702D01*
X165677957Y-175119013D01*
X165645169Y-175110227D01*
X165614582Y-175105383D01*
X165555757Y-175086269D01*
X165469388Y-175063127D01*
X165414282Y-175040301D01*
X165368190Y-175025325D01*
X165325006Y-175003321D01*
X165269900Y-174980496D01*
X165192466Y-174935789D01*
X165137355Y-174907709D01*
X165112299Y-174889505D01*
X165082903Y-174872533D01*
X164975354Y-174790008D01*
X164927761Y-174755430D01*
X164919419Y-174747088D01*
X164911598Y-174741087D01*
X164758912Y-174588401D01*
X164752910Y-174580579D01*
X164744570Y-174572239D01*
X164709995Y-174524651D01*
X164627466Y-174417096D01*
X164610492Y-174387697D01*
X164592291Y-174362645D01*
X164564213Y-174307539D01*
X164519503Y-174230099D01*
X164496674Y-174174987D01*
X164474675Y-174131810D01*
X164459700Y-174085724D01*
X164436872Y-174030611D01*
X164413726Y-173944229D01*
X164394617Y-173885418D01*
X164389773Y-173854837D01*
X164380986Y-173822042D01*
X164363295Y-173687663D01*
X164354089Y-173629536D01*
X164354089Y-173617729D01*
X164352803Y-173607961D01*
X164352803Y-173392038D01*
X164354089Y-173382269D01*
X164354089Y-173370464D01*
X164363294Y-173312341D01*
X164380986Y-173177957D01*
X164389773Y-173145160D01*
X164394617Y-173114582D01*
X164413724Y-173055775D01*
X164436872Y-172969388D01*
X164459702Y-172914271D01*
X164474675Y-172868190D01*
X164496672Y-172825016D01*
X164519503Y-172769900D01*
X164564217Y-172692451D01*
X164592291Y-172637355D01*
X164610489Y-172612306D01*
X164627466Y-172582903D01*
X164710009Y-172475329D01*
X164744570Y-172427761D01*
X164752906Y-172419424D01*
X164758912Y-172411598D01*
X164911598Y-172258912D01*
X164919424Y-172252906D01*
X164927761Y-172244570D01*
X164975329Y-172210009D01*
X165082903Y-172127466D01*
X165112306Y-172110489D01*
X165137355Y-172092291D01*
X165192451Y-172064217D01*
X165269900Y-172019503D01*
X165325016Y-171996672D01*
X165368190Y-171974675D01*
X165414271Y-171959702D01*
X165469388Y-171936872D01*
X165555775Y-171913724D01*
X165614582Y-171894617D01*
X165645160Y-171889773D01*
X165677957Y-171880986D01*
X165812338Y-171863295D01*
X165870464Y-171854089D01*
X165882270Y-171854089D01*
X165892039Y-171852803D01*
X166107961Y-171852803D01*
X166117730Y-171854089D01*
G37*
G36*
X61796795Y-163355777D02*
G01*
X61808339Y-163355777D01*
X61853451Y-163364750D01*
X61951030Y-163380205D01*
X61982414Y-163390402D01*
X62011047Y-163396098D01*
X62051458Y-163412836D01*
X62108315Y-163431311D01*
X62161574Y-163458447D01*
X62201994Y-163475190D01*
X62226275Y-163491414D01*
X62255667Y-163506390D01*
X62335570Y-163564443D01*
X62373841Y-163590015D01*
X62382008Y-163598182D01*
X62389458Y-163603595D01*
X62506404Y-163720541D01*
X62511816Y-163727990D01*
X62519985Y-163736159D01*
X62545560Y-163774434D01*
X62603609Y-163854332D01*
X62618583Y-163883721D01*
X62634810Y-163908006D01*
X62651554Y-163948430D01*
X62678688Y-164001684D01*
X62697159Y-164058533D01*
X62713902Y-164098953D01*
X62719598Y-164127590D01*
X62729794Y-164158969D01*
X62745248Y-164256540D01*
X62754223Y-164301661D01*
X62754223Y-164313205D01*
X62755665Y-164322310D01*
X62755665Y-164487689D01*
X62754223Y-164496793D01*
X62754223Y-164508339D01*
X62745247Y-164553463D01*
X62729794Y-164651030D01*
X62719598Y-164682406D01*
X62713902Y-164711047D01*
X62697158Y-164751469D01*
X62678688Y-164808315D01*
X62651556Y-164861564D01*
X62634810Y-164901994D01*
X62618581Y-164926281D01*
X62603609Y-164955667D01*
X62545568Y-165035552D01*
X62519985Y-165073841D01*
X62511813Y-165082012D01*
X62506404Y-165089458D01*
X62389458Y-165206404D01*
X62382012Y-165211813D01*
X62373841Y-165219985D01*
X62335552Y-165245568D01*
X62255667Y-165303609D01*
X62226281Y-165318581D01*
X62201994Y-165334810D01*
X62161564Y-165351556D01*
X62108315Y-165378688D01*
X62051469Y-165397158D01*
X62011047Y-165413902D01*
X61982406Y-165419598D01*
X61951030Y-165429794D01*
X61853461Y-165445247D01*
X61808339Y-165454223D01*
X61796794Y-165454223D01*
X61787690Y-165455665D01*
X61622310Y-165455665D01*
X61613206Y-165454223D01*
X61601661Y-165454223D01*
X61556540Y-165445248D01*
X61458969Y-165429794D01*
X61427590Y-165419598D01*
X61398953Y-165413902D01*
X61358533Y-165397159D01*
X61301684Y-165378688D01*
X61248430Y-165351554D01*
X61208006Y-165334810D01*
X61183721Y-165318583D01*
X61154332Y-165303609D01*
X61074434Y-165245560D01*
X61036159Y-165219985D01*
X61027990Y-165211816D01*
X61020541Y-165206404D01*
X60903595Y-165089458D01*
X60898182Y-165082008D01*
X60890015Y-165073841D01*
X60864443Y-165035570D01*
X60806390Y-164955667D01*
X60791414Y-164926275D01*
X60775190Y-164901994D01*
X60758447Y-164861574D01*
X60731311Y-164808315D01*
X60712836Y-164751458D01*
X60696098Y-164711047D01*
X60690402Y-164682414D01*
X60680205Y-164651030D01*
X60664750Y-164553453D01*
X60655777Y-164508339D01*
X60655777Y-164496793D01*
X60654335Y-164487689D01*
X60654335Y-164322310D01*
X60655777Y-164313205D01*
X60655777Y-164301661D01*
X60664750Y-164256550D01*
X60680205Y-164158969D01*
X60690403Y-164127582D01*
X60696098Y-164098953D01*
X60712835Y-164058544D01*
X60731311Y-164001684D01*
X60758450Y-163948419D01*
X60775190Y-163908006D01*
X60791412Y-163883728D01*
X60806390Y-163854332D01*
X60864451Y-163774417D01*
X60890015Y-163736159D01*
X60898180Y-163727993D01*
X60903595Y-163720541D01*
X61020541Y-163603595D01*
X61027993Y-163598180D01*
X61036159Y-163590015D01*
X61074417Y-163564451D01*
X61154332Y-163506390D01*
X61183728Y-163491412D01*
X61208006Y-163475190D01*
X61248419Y-163458450D01*
X61301684Y-163431311D01*
X61358544Y-163412835D01*
X61398953Y-163396098D01*
X61427582Y-163390403D01*
X61458969Y-163380205D01*
X61556550Y-163364750D01*
X61601661Y-163355777D01*
X61613205Y-163355777D01*
X61622310Y-163354335D01*
X61787690Y-163354335D01*
X61796795Y-163355777D01*
G37*
G36*
X67002568Y-161147773D02*
G01*
X67138312Y-161204000D01*
X67260478Y-161285629D01*
X67364371Y-161389522D01*
X67446000Y-161511688D01*
X67502227Y-161647432D01*
X67530891Y-161791536D01*
X67530891Y-161938464D01*
X67502227Y-162082568D01*
X67446000Y-162218312D01*
X67364371Y-162340478D01*
X67260478Y-162444371D01*
X67138312Y-162526000D01*
X67002568Y-162582227D01*
X66858464Y-162610891D01*
X66711536Y-162610891D01*
X66567432Y-162582227D01*
X66431688Y-162526000D01*
X66309522Y-162444371D01*
X66205629Y-162340478D01*
X66124000Y-162218312D01*
X66067773Y-162082568D01*
X66039109Y-161938464D01*
X66039109Y-161791536D01*
X66067773Y-161647432D01*
X66124000Y-161511688D01*
X66205629Y-161389522D01*
X66309522Y-161285629D01*
X66431688Y-161204000D01*
X66567432Y-161147773D01*
X66711536Y-161119109D01*
X66858464Y-161119109D01*
X67002568Y-161147773D01*
G37*
G36*
X67002568Y-158607773D02*
G01*
X67138312Y-158664000D01*
X67260478Y-158745629D01*
X67364371Y-158849522D01*
X67446000Y-158971688D01*
X67502227Y-159107432D01*
X67530891Y-159251536D01*
X67530891Y-159398464D01*
X67502227Y-159542568D01*
X67446000Y-159678312D01*
X67364371Y-159800478D01*
X67260478Y-159904371D01*
X67138312Y-159986000D01*
X67002568Y-160042227D01*
X66858464Y-160070891D01*
X66711536Y-160070891D01*
X66567432Y-160042227D01*
X66431688Y-159986000D01*
X66309522Y-159904371D01*
X66205629Y-159800478D01*
X66124000Y-159678312D01*
X66067773Y-159542568D01*
X66039109Y-159398464D01*
X66039109Y-159251536D01*
X66067773Y-159107432D01*
X66124000Y-158971688D01*
X66205629Y-158849522D01*
X66309522Y-158745629D01*
X66431688Y-158664000D01*
X66567432Y-158607773D01*
X66711536Y-158579109D01*
X66858464Y-158579109D01*
X67002568Y-158607773D01*
G37*
G36*
X61796795Y-153195777D02*
G01*
X61808339Y-153195777D01*
X61853451Y-153204750D01*
X61951030Y-153220205D01*
X61982414Y-153230402D01*
X62011047Y-153236098D01*
X62051458Y-153252836D01*
X62108315Y-153271311D01*
X62161574Y-153298447D01*
X62201994Y-153315190D01*
X62226275Y-153331414D01*
X62255667Y-153346390D01*
X62335570Y-153404443D01*
X62373841Y-153430015D01*
X62382008Y-153438182D01*
X62389458Y-153443595D01*
X62506404Y-153560541D01*
X62511816Y-153567990D01*
X62519985Y-153576159D01*
X62545560Y-153614434D01*
X62603609Y-153694332D01*
X62618583Y-153723721D01*
X62634810Y-153748006D01*
X62651554Y-153788430D01*
X62678688Y-153841684D01*
X62697159Y-153898533D01*
X62713902Y-153938953D01*
X62719598Y-153967590D01*
X62729794Y-153998969D01*
X62745248Y-154096540D01*
X62754223Y-154141661D01*
X62754223Y-154153205D01*
X62755665Y-154162310D01*
X62755665Y-154327689D01*
X62754223Y-154336793D01*
X62754223Y-154348339D01*
X62745247Y-154393463D01*
X62729794Y-154491030D01*
X62719598Y-154522406D01*
X62713902Y-154551047D01*
X62697158Y-154591469D01*
X62678688Y-154648315D01*
X62651556Y-154701564D01*
X62634810Y-154741994D01*
X62618581Y-154766281D01*
X62603609Y-154795667D01*
X62545568Y-154875552D01*
X62519985Y-154913841D01*
X62511813Y-154922012D01*
X62506404Y-154929458D01*
X62389458Y-155046404D01*
X62382012Y-155051813D01*
X62373841Y-155059985D01*
X62335552Y-155085568D01*
X62255667Y-155143609D01*
X62226281Y-155158581D01*
X62201994Y-155174810D01*
X62161564Y-155191556D01*
X62108315Y-155218688D01*
X62051469Y-155237158D01*
X62011047Y-155253902D01*
X61982406Y-155259598D01*
X61951030Y-155269794D01*
X61853461Y-155285247D01*
X61808339Y-155294223D01*
X61796794Y-155294223D01*
X61787690Y-155295665D01*
X61622310Y-155295665D01*
X61613206Y-155294223D01*
X61601661Y-155294223D01*
X61556540Y-155285248D01*
X61458969Y-155269794D01*
X61427590Y-155259598D01*
X61398953Y-155253902D01*
X61358533Y-155237159D01*
X61301684Y-155218688D01*
X61248430Y-155191554D01*
X61208006Y-155174810D01*
X61183721Y-155158583D01*
X61154332Y-155143609D01*
X61074434Y-155085560D01*
X61036159Y-155059985D01*
X61027990Y-155051816D01*
X61020541Y-155046404D01*
X60903595Y-154929458D01*
X60898182Y-154922008D01*
X60890015Y-154913841D01*
X60864443Y-154875570D01*
X60806390Y-154795667D01*
X60791414Y-154766275D01*
X60775190Y-154741994D01*
X60758447Y-154701574D01*
X60731311Y-154648315D01*
X60712836Y-154591458D01*
X60696098Y-154551047D01*
X60690402Y-154522414D01*
X60680205Y-154491030D01*
X60664750Y-154393453D01*
X60655777Y-154348339D01*
X60655777Y-154336793D01*
X60654335Y-154327689D01*
X60654335Y-154162310D01*
X60655777Y-154153205D01*
X60655777Y-154141661D01*
X60664750Y-154096550D01*
X60680205Y-153998969D01*
X60690403Y-153967582D01*
X60696098Y-153938953D01*
X60712835Y-153898544D01*
X60731311Y-153841684D01*
X60758450Y-153788419D01*
X60775190Y-153748006D01*
X60791412Y-153723728D01*
X60806390Y-153694332D01*
X60864451Y-153614417D01*
X60890015Y-153576159D01*
X60898180Y-153567993D01*
X60903595Y-153560541D01*
X61020541Y-153443595D01*
X61027993Y-153438180D01*
X61036159Y-153430015D01*
X61074417Y-153404451D01*
X61154332Y-153346390D01*
X61183728Y-153331412D01*
X61208006Y-153315190D01*
X61248419Y-153298450D01*
X61301684Y-153271311D01*
X61358544Y-153252835D01*
X61398953Y-153236098D01*
X61427582Y-153230403D01*
X61458969Y-153220205D01*
X61556550Y-153204750D01*
X61601661Y-153195777D01*
X61613205Y-153195777D01*
X61622310Y-153194335D01*
X61787690Y-153194335D01*
X61796795Y-153195777D01*
G37*
G36*
X111367730Y-151854089D02*
G01*
X111379536Y-151854089D01*
X111437663Y-151863295D01*
X111572042Y-151880986D01*
X111604837Y-151889773D01*
X111635418Y-151894617D01*
X111694229Y-151913726D01*
X111780611Y-151936872D01*
X111835724Y-151959700D01*
X111881810Y-151974675D01*
X111924987Y-151996674D01*
X111980099Y-152019503D01*
X112057539Y-152064213D01*
X112112645Y-152092291D01*
X112137697Y-152110492D01*
X112167096Y-152127466D01*
X112274651Y-152209995D01*
X112322239Y-152244570D01*
X112330579Y-152252910D01*
X112338401Y-152258912D01*
X112491087Y-152411598D01*
X112497088Y-152419419D01*
X112505430Y-152427761D01*
X112540008Y-152475354D01*
X112622533Y-152582903D01*
X112639505Y-152612299D01*
X112657709Y-152637355D01*
X112685789Y-152692466D01*
X112730496Y-152769900D01*
X112753321Y-152825006D01*
X112775325Y-152868190D01*
X112790301Y-152914282D01*
X112813127Y-152969388D01*
X112836269Y-153055757D01*
X112855383Y-153114582D01*
X112860227Y-153145169D01*
X112869013Y-153177957D01*
X112886703Y-153312327D01*
X112895911Y-153370464D01*
X112895911Y-153382269D01*
X112897197Y-153392038D01*
X112897197Y-153607961D01*
X112895911Y-153617729D01*
X112895911Y-153629536D01*
X112886702Y-153687677D01*
X112869013Y-153822042D01*
X112860228Y-153854827D01*
X112855383Y-153885418D01*
X112836268Y-153944246D01*
X112813127Y-154030611D01*
X112790302Y-154085713D01*
X112775325Y-154131810D01*
X112753319Y-154174997D01*
X112730496Y-154230099D01*
X112685793Y-154307525D01*
X112657709Y-154362645D01*
X112639502Y-154387704D01*
X112622533Y-154417096D01*
X112540022Y-154524627D01*
X112505430Y-154572239D01*
X112497085Y-154580583D01*
X112491087Y-154588401D01*
X112338401Y-154741087D01*
X112330583Y-154747085D01*
X112322239Y-154755430D01*
X112274627Y-154790022D01*
X112167096Y-154872533D01*
X112137704Y-154889502D01*
X112112645Y-154907709D01*
X112057525Y-154935793D01*
X111980099Y-154980496D01*
X111924997Y-155003319D01*
X111881810Y-155025325D01*
X111835713Y-155040302D01*
X111780611Y-155063127D01*
X111694246Y-155086268D01*
X111635418Y-155105383D01*
X111604827Y-155110228D01*
X111572042Y-155119013D01*
X111437677Y-155136702D01*
X111379536Y-155145911D01*
X111367729Y-155145911D01*
X111357961Y-155147197D01*
X111142039Y-155147197D01*
X111132271Y-155145911D01*
X111120464Y-155145911D01*
X111062324Y-155136702D01*
X110927957Y-155119013D01*
X110895169Y-155110227D01*
X110864582Y-155105383D01*
X110805757Y-155086269D01*
X110719388Y-155063127D01*
X110664282Y-155040301D01*
X110618190Y-155025325D01*
X110575006Y-155003321D01*
X110519900Y-154980496D01*
X110442466Y-154935789D01*
X110387355Y-154907709D01*
X110362299Y-154889505D01*
X110332903Y-154872533D01*
X110225354Y-154790008D01*
X110177761Y-154755430D01*
X110169419Y-154747088D01*
X110161598Y-154741087D01*
X110008912Y-154588401D01*
X110002910Y-154580579D01*
X109994570Y-154572239D01*
X109959995Y-154524651D01*
X109877466Y-154417096D01*
X109860492Y-154387697D01*
X109842291Y-154362645D01*
X109814213Y-154307539D01*
X109769503Y-154230099D01*
X109746674Y-154174987D01*
X109724675Y-154131810D01*
X109709700Y-154085724D01*
X109686872Y-154030611D01*
X109663726Y-153944229D01*
X109644617Y-153885418D01*
X109639773Y-153854837D01*
X109630986Y-153822042D01*
X109613295Y-153687663D01*
X109604089Y-153629536D01*
X109604089Y-153617729D01*
X109602803Y-153607961D01*
X109602803Y-153392038D01*
X109604089Y-153382269D01*
X109604089Y-153370464D01*
X109613294Y-153312341D01*
X109630986Y-153177957D01*
X109639773Y-153145160D01*
X109644617Y-153114582D01*
X109663724Y-153055775D01*
X109686872Y-152969388D01*
X109709702Y-152914271D01*
X109724675Y-152868190D01*
X109746672Y-152825016D01*
X109769503Y-152769900D01*
X109814217Y-152692451D01*
X109842291Y-152637355D01*
X109860489Y-152612306D01*
X109877466Y-152582903D01*
X109960009Y-152475329D01*
X109994570Y-152427761D01*
X110002906Y-152419424D01*
X110008912Y-152411598D01*
X110161598Y-152258912D01*
X110169424Y-152252906D01*
X110177761Y-152244570D01*
X110225329Y-152210009D01*
X110332903Y-152127466D01*
X110362306Y-152110489D01*
X110387355Y-152092291D01*
X110442451Y-152064217D01*
X110519900Y-152019503D01*
X110575016Y-151996672D01*
X110618190Y-151974675D01*
X110664271Y-151959702D01*
X110719388Y-151936872D01*
X110805775Y-151913724D01*
X110864582Y-151894617D01*
X110895160Y-151889773D01*
X110927957Y-151880986D01*
X111062338Y-151863295D01*
X111120464Y-151854089D01*
X111132270Y-151854089D01*
X111142039Y-151852803D01*
X111357961Y-151852803D01*
X111367730Y-151854089D01*
G37*
G36*
X82225653Y-151451493D02*
G01*
X82401157Y-151508518D01*
X82565579Y-151592295D01*
X82714872Y-151700763D01*
X82845358Y-151831249D01*
X82953826Y-151980542D01*
X83037603Y-152144964D01*
X83094628Y-152320468D01*
X83123496Y-152502732D01*
X83123496Y-152687268D01*
X83094628Y-152869532D01*
X83037603Y-153045036D01*
X82953826Y-153209458D01*
X82845358Y-153358751D01*
X82714872Y-153489237D01*
X82565579Y-153597705D01*
X82401157Y-153681482D01*
X82225653Y-153738507D01*
X82043389Y-153767375D01*
X81858853Y-153767375D01*
X81676589Y-153738507D01*
X81501085Y-153681482D01*
X81336663Y-153597705D01*
X81187370Y-153489237D01*
X81056884Y-153358751D01*
X80948416Y-153209458D01*
X80864639Y-153045036D01*
X80807614Y-152869532D01*
X80778746Y-152687268D01*
X80778746Y-152502732D01*
X80807614Y-152320468D01*
X80864639Y-152144964D01*
X80948416Y-151980542D01*
X81056884Y-151831249D01*
X81187370Y-151700763D01*
X81336663Y-151592295D01*
X81501085Y-151508518D01*
X81676589Y-151451493D01*
X81858853Y-151422625D01*
X82043389Y-151422625D01*
X82225653Y-151451493D01*
G37*
G36*
X82225653Y-148451493D02*
G01*
X82401157Y-148508518D01*
X82565579Y-148592295D01*
X82714872Y-148700763D01*
X82845358Y-148831249D01*
X82953826Y-148980542D01*
X83037603Y-149144964D01*
X83094628Y-149320468D01*
X83123496Y-149502732D01*
X83123496Y-149687268D01*
X83094628Y-149869532D01*
X83037603Y-150045036D01*
X82953826Y-150209458D01*
X82845358Y-150358751D01*
X82714872Y-150489237D01*
X82565579Y-150597705D01*
X82401157Y-150681482D01*
X82225653Y-150738507D01*
X82043389Y-150767375D01*
X81858853Y-150767375D01*
X81676589Y-150738507D01*
X81501085Y-150681482D01*
X81336663Y-150597705D01*
X81187370Y-150489237D01*
X81056884Y-150358751D01*
X80948416Y-150209458D01*
X80864639Y-150045036D01*
X80807614Y-149869532D01*
X80778746Y-149687268D01*
X80778746Y-149502732D01*
X80807614Y-149320468D01*
X80864639Y-149144964D01*
X80948416Y-148980542D01*
X81056884Y-148831249D01*
X81187370Y-148700763D01*
X81336663Y-148592295D01*
X81501085Y-148508518D01*
X81676589Y-148451493D01*
X81858853Y-148422625D01*
X82043389Y-148422625D01*
X82225653Y-148451493D01*
G37*
G36*
X82225653Y-145451493D02*
G01*
X82401157Y-145508518D01*
X82565579Y-145592295D01*
X82714872Y-145700763D01*
X82845358Y-145831249D01*
X82953826Y-145980542D01*
X83037603Y-146144964D01*
X83094628Y-146320468D01*
X83123496Y-146502732D01*
X83123496Y-146687268D01*
X83094628Y-146869532D01*
X83037603Y-147045036D01*
X82953826Y-147209458D01*
X82845358Y-147358751D01*
X82714872Y-147489237D01*
X82565579Y-147597705D01*
X82401157Y-147681482D01*
X82225653Y-147738507D01*
X82043389Y-147767375D01*
X81858853Y-147767375D01*
X81676589Y-147738507D01*
X81501085Y-147681482D01*
X81336663Y-147597705D01*
X81187370Y-147489237D01*
X81056884Y-147358751D01*
X80948416Y-147209458D01*
X80864639Y-147045036D01*
X80807614Y-146869532D01*
X80778746Y-146687268D01*
X80778746Y-146502732D01*
X80807614Y-146320468D01*
X80864639Y-146144964D01*
X80948416Y-145980542D01*
X81056884Y-145831249D01*
X81187370Y-145700763D01*
X81336663Y-145592295D01*
X81501085Y-145508518D01*
X81676589Y-145451493D01*
X81858853Y-145422625D01*
X82043389Y-145422625D01*
X82225653Y-145451493D01*
G37*
G36*
X82213768Y-141470382D02*
G01*
X82389272Y-141527407D01*
X82553694Y-141611184D01*
X82702987Y-141719652D01*
X82833473Y-141850138D01*
X82941941Y-141999431D01*
X83025718Y-142163853D01*
X83082743Y-142339357D01*
X83111611Y-142521621D01*
X83111611Y-142706157D01*
X83082743Y-142888421D01*
X83025718Y-143063925D01*
X82941941Y-143228347D01*
X82833473Y-143377640D01*
X82702987Y-143508126D01*
X82553694Y-143616594D01*
X82389272Y-143700371D01*
X82213768Y-143757396D01*
X82031504Y-143786264D01*
X81846968Y-143786264D01*
X81664704Y-143757396D01*
X81489200Y-143700371D01*
X81324778Y-143616594D01*
X81175485Y-143508126D01*
X81044999Y-143377640D01*
X80936531Y-143228347D01*
X80852754Y-143063925D01*
X80795729Y-142888421D01*
X80766861Y-142706157D01*
X80766861Y-142521621D01*
X80795729Y-142339357D01*
X80852754Y-142163853D01*
X80936531Y-141999431D01*
X81044999Y-141850138D01*
X81175485Y-141719652D01*
X81324778Y-141611184D01*
X81489200Y-141527407D01*
X81664704Y-141470382D01*
X81846968Y-141441514D01*
X82031504Y-141441514D01*
X82213768Y-141470382D01*
G37*
G36*
X82213768Y-138470382D02*
G01*
X82389272Y-138527407D01*
X82553694Y-138611184D01*
X82702987Y-138719652D01*
X82833473Y-138850138D01*
X82941941Y-138999431D01*
X83025718Y-139163853D01*
X83082743Y-139339357D01*
X83111611Y-139521621D01*
X83111611Y-139706157D01*
X83082743Y-139888421D01*
X83025718Y-140063925D01*
X82941941Y-140228347D01*
X82833473Y-140377640D01*
X82702987Y-140508126D01*
X82553694Y-140616594D01*
X82389272Y-140700371D01*
X82213768Y-140757396D01*
X82031504Y-140786264D01*
X81846968Y-140786264D01*
X81664704Y-140757396D01*
X81489200Y-140700371D01*
X81324778Y-140616594D01*
X81175485Y-140508126D01*
X81044999Y-140377640D01*
X80936531Y-140228347D01*
X80852754Y-140063925D01*
X80795729Y-139888421D01*
X80766861Y-139706157D01*
X80766861Y-139521621D01*
X80795729Y-139339357D01*
X80852754Y-139163853D01*
X80936531Y-138999431D01*
X81044999Y-138850138D01*
X81175485Y-138719652D01*
X81324778Y-138611184D01*
X81489200Y-138527407D01*
X81664704Y-138470382D01*
X81846968Y-138441514D01*
X82031504Y-138441514D01*
X82213768Y-138470382D01*
G37*
G36*
X82213768Y-135470382D02*
G01*
X82389272Y-135527407D01*
X82553694Y-135611184D01*
X82702987Y-135719652D01*
X82833473Y-135850138D01*
X82941941Y-135999431D01*
X83025718Y-136163853D01*
X83082743Y-136339357D01*
X83111611Y-136521621D01*
X83111611Y-136706157D01*
X83082743Y-136888421D01*
X83025718Y-137063925D01*
X82941941Y-137228347D01*
X82833473Y-137377640D01*
X82702987Y-137508126D01*
X82553694Y-137616594D01*
X82389272Y-137700371D01*
X82213768Y-137757396D01*
X82031504Y-137786264D01*
X81846968Y-137786264D01*
X81664704Y-137757396D01*
X81489200Y-137700371D01*
X81324778Y-137616594D01*
X81175485Y-137508126D01*
X81044999Y-137377640D01*
X80936531Y-137228347D01*
X80852754Y-137063925D01*
X80795729Y-136888421D01*
X80766861Y-136706157D01*
X80766861Y-136521621D01*
X80795729Y-136339357D01*
X80852754Y-136163853D01*
X80936531Y-135999431D01*
X81044999Y-135850138D01*
X81175485Y-135719652D01*
X81324778Y-135611184D01*
X81489200Y-135527407D01*
X81664704Y-135470382D01*
X81846968Y-135441514D01*
X82031504Y-135441514D01*
X82213768Y-135470382D01*
G37*
G36*
X110267334Y-135334013D02*
G01*
X110442838Y-135391038D01*
X110607260Y-135474815D01*
X110756553Y-135583283D01*
X110887039Y-135713769D01*
X110995507Y-135863062D01*
X111079284Y-136027484D01*
X111136309Y-136202988D01*
X111165177Y-136385252D01*
X111165177Y-136569788D01*
X111136309Y-136752052D01*
X111079284Y-136927556D01*
X110995507Y-137091978D01*
X110887039Y-137241271D01*
X110756553Y-137371757D01*
X110607260Y-137480225D01*
X110442838Y-137564002D01*
X110267334Y-137621027D01*
X110085070Y-137649895D01*
X109900534Y-137649895D01*
X109718270Y-137621027D01*
X109542766Y-137564002D01*
X109378344Y-137480225D01*
X109229051Y-137371757D01*
X109098565Y-137241271D01*
X108990097Y-137091978D01*
X108906320Y-136927556D01*
X108849295Y-136752052D01*
X108820427Y-136569788D01*
X108820427Y-136385252D01*
X108849295Y-136202988D01*
X108906320Y-136027484D01*
X108990097Y-135863062D01*
X109098565Y-135713769D01*
X109229051Y-135583283D01*
X109378344Y-135474815D01*
X109542766Y-135391038D01*
X109718270Y-135334013D01*
X109900534Y-135305145D01*
X110085070Y-135305145D01*
X110267334Y-135334013D01*
G37*
G36*
X113267334Y-135334013D02*
G01*
X113442838Y-135391038D01*
X113607260Y-135474815D01*
X113756553Y-135583283D01*
X113887039Y-135713769D01*
X113995507Y-135863062D01*
X114079284Y-136027484D01*
X114136309Y-136202988D01*
X114165177Y-136385252D01*
X114165177Y-136569788D01*
X114136309Y-136752052D01*
X114079284Y-136927556D01*
X113995507Y-137091978D01*
X113887039Y-137241271D01*
X113756553Y-137371757D01*
X113607260Y-137480225D01*
X113442838Y-137564002D01*
X113267334Y-137621027D01*
X113085070Y-137649895D01*
X112900534Y-137649895D01*
X112718270Y-137621027D01*
X112542766Y-137564002D01*
X112378344Y-137480225D01*
X112229051Y-137371757D01*
X112098565Y-137241271D01*
X111990097Y-137091978D01*
X111906320Y-136927556D01*
X111849295Y-136752052D01*
X111820427Y-136569788D01*
X111820427Y-136385252D01*
X111849295Y-136202988D01*
X111906320Y-136027484D01*
X111990097Y-135863062D01*
X112098565Y-135713769D01*
X112229051Y-135583283D01*
X112378344Y-135474815D01*
X112542766Y-135391038D01*
X112718270Y-135334013D01*
X112900534Y-135305145D01*
X113085070Y-135305145D01*
X113267334Y-135334013D01*
G37*
G36*
X54333512Y-135607857D02*
G01*
X54487518Y-135638491D01*
X54632589Y-135698581D01*
X54763149Y-135785819D01*
X54874181Y-135896851D01*
X54961419Y-136027411D01*
X55021509Y-136172482D01*
X55052143Y-136326488D01*
X55052143Y-136483512D01*
X55021509Y-136637518D01*
X54961419Y-136782589D01*
X54874181Y-136913149D01*
X54763149Y-137024181D01*
X54632589Y-137111419D01*
X54487518Y-137171509D01*
X54333512Y-137202143D01*
X54255000Y-137206000D01*
X54251941Y-137206000D01*
X53158059Y-137206000D01*
X53155000Y-137206000D01*
X53076488Y-137202143D01*
X52922482Y-137171509D01*
X52777411Y-137111419D01*
X52646851Y-137024181D01*
X52535819Y-136913149D01*
X52448581Y-136782589D01*
X52388491Y-136637518D01*
X52357857Y-136483512D01*
X52357857Y-136326488D01*
X52388491Y-136172482D01*
X52448581Y-136027411D01*
X52535819Y-135896851D01*
X52646851Y-135785819D01*
X52777411Y-135698581D01*
X52922482Y-135638491D01*
X53076488Y-135607857D01*
X53155000Y-135604000D01*
X54255000Y-135604000D01*
X54333512Y-135607857D01*
G37*
G36*
X62033512Y-135607857D02*
G01*
X62187518Y-135638491D01*
X62332589Y-135698581D01*
X62463149Y-135785819D01*
X62574181Y-135896851D01*
X62661419Y-136027411D01*
X62721509Y-136172482D01*
X62752143Y-136326488D01*
X62752143Y-136483512D01*
X62721509Y-136637518D01*
X62661419Y-136782589D01*
X62574181Y-136913149D01*
X62463149Y-137024181D01*
X62332589Y-137111419D01*
X62187518Y-137171509D01*
X62033512Y-137202143D01*
X61955000Y-137206000D01*
X61951941Y-137206000D01*
X60858059Y-137206000D01*
X60855000Y-137206000D01*
X60776488Y-137202143D01*
X60622482Y-137171509D01*
X60477411Y-137111419D01*
X60346851Y-137024181D01*
X60235819Y-136913149D01*
X60148581Y-136782589D01*
X60088491Y-136637518D01*
X60057857Y-136483512D01*
X60057857Y-136326488D01*
X60088491Y-136172482D01*
X60148581Y-136027411D01*
X60235819Y-135896851D01*
X60346851Y-135785819D01*
X60477411Y-135698581D01*
X60622482Y-135638491D01*
X60776488Y-135607857D01*
X60855000Y-135604000D01*
X61955000Y-135604000D01*
X62033512Y-135607857D01*
G37*
G36*
X62033512Y-133067857D02*
G01*
X62187518Y-133098491D01*
X62332589Y-133158581D01*
X62463149Y-133245819D01*
X62574181Y-133356851D01*
X62661419Y-133487411D01*
X62721509Y-133632482D01*
X62752143Y-133786488D01*
X62752143Y-133943512D01*
X62721509Y-134097518D01*
X62661419Y-134242589D01*
X62574181Y-134373149D01*
X62463149Y-134484181D01*
X62332589Y-134571419D01*
X62187518Y-134631509D01*
X62033512Y-134662143D01*
X61955000Y-134666000D01*
X61951941Y-134666000D01*
X60858059Y-134666000D01*
X60855000Y-134666000D01*
X60776488Y-134662143D01*
X60622482Y-134631509D01*
X60477411Y-134571419D01*
X60346851Y-134484181D01*
X60235819Y-134373149D01*
X60148581Y-134242589D01*
X60088491Y-134097518D01*
X60057857Y-133943512D01*
X60057857Y-133786488D01*
X60088491Y-133632482D01*
X60148581Y-133487411D01*
X60235819Y-133356851D01*
X60346851Y-133245819D01*
X60477411Y-133158581D01*
X60622482Y-133098491D01*
X60776488Y-133067857D01*
X60855000Y-133064000D01*
X61955000Y-133064000D01*
X62033512Y-133067857D01*
G37*
G36*
X110267334Y-130834013D02*
G01*
X110442838Y-130891038D01*
X110607260Y-130974815D01*
X110756553Y-131083283D01*
X110887039Y-131213769D01*
X110995507Y-131363062D01*
X111079284Y-131527484D01*
X111136309Y-131702988D01*
X111165177Y-131885252D01*
X111165177Y-132069788D01*
X111136309Y-132252052D01*
X111079284Y-132427556D01*
X110995507Y-132591978D01*
X110887039Y-132741271D01*
X110756553Y-132871757D01*
X110607260Y-132980225D01*
X110442838Y-133064002D01*
X110267334Y-133121027D01*
X110085070Y-133149895D01*
X109900534Y-133149895D01*
X109718270Y-133121027D01*
X109542766Y-133064002D01*
X109378344Y-132980225D01*
X109229051Y-132871757D01*
X109098565Y-132741271D01*
X108990097Y-132591978D01*
X108906320Y-132427556D01*
X108849295Y-132252052D01*
X108820427Y-132069788D01*
X108820427Y-131885252D01*
X108849295Y-131702988D01*
X108906320Y-131527484D01*
X108990097Y-131363062D01*
X109098565Y-131213769D01*
X109229051Y-131083283D01*
X109378344Y-130974815D01*
X109542766Y-130891038D01*
X109718270Y-130834013D01*
X109900534Y-130805145D01*
X110085070Y-130805145D01*
X110267334Y-130834013D01*
G37*
G36*
X113267334Y-130834013D02*
G01*
X113442838Y-130891038D01*
X113607260Y-130974815D01*
X113756553Y-131083283D01*
X113887039Y-131213769D01*
X113995507Y-131363062D01*
X114079284Y-131527484D01*
X114136309Y-131702988D01*
X114165177Y-131885252D01*
X114165177Y-132069788D01*
X114136309Y-132252052D01*
X114079284Y-132427556D01*
X113995507Y-132591978D01*
X113887039Y-132741271D01*
X113756553Y-132871757D01*
X113607260Y-132980225D01*
X113442838Y-133064002D01*
X113267334Y-133121027D01*
X113085070Y-133149895D01*
X112900534Y-133149895D01*
X112718270Y-133121027D01*
X112542766Y-133064002D01*
X112378344Y-132980225D01*
X112229051Y-132871757D01*
X112098565Y-132741271D01*
X111990097Y-132591978D01*
X111906320Y-132427556D01*
X111849295Y-132252052D01*
X111820427Y-132069788D01*
X111820427Y-131885252D01*
X111849295Y-131702988D01*
X111906320Y-131527484D01*
X111990097Y-131363062D01*
X112098565Y-131213769D01*
X112229051Y-131083283D01*
X112378344Y-130974815D01*
X112542766Y-130891038D01*
X112718270Y-130834013D01*
X112900534Y-130805145D01*
X113085070Y-130805145D01*
X113267334Y-130834013D01*
G37*
G36*
X62033512Y-130527857D02*
G01*
X62187518Y-130558491D01*
X62332589Y-130618581D01*
X62463149Y-130705819D01*
X62574181Y-130816851D01*
X62661419Y-130947411D01*
X62721509Y-131092482D01*
X62752143Y-131246488D01*
X62752143Y-131403512D01*
X62721509Y-131557518D01*
X62661419Y-131702589D01*
X62574181Y-131833149D01*
X62463149Y-131944181D01*
X62332589Y-132031419D01*
X62187518Y-132091509D01*
X62033512Y-132122143D01*
X61955000Y-132126000D01*
X61951941Y-132126000D01*
X60858059Y-132126000D01*
X60855000Y-132126000D01*
X60776488Y-132122143D01*
X60622482Y-132091509D01*
X60477411Y-132031419D01*
X60346851Y-131944181D01*
X60235819Y-131833149D01*
X60148581Y-131702589D01*
X60088491Y-131557518D01*
X60057857Y-131403512D01*
X60057857Y-131246488D01*
X60088491Y-131092482D01*
X60148581Y-130947411D01*
X60235819Y-130816851D01*
X60346851Y-130705819D01*
X60477411Y-130618581D01*
X60622482Y-130558491D01*
X60776488Y-130527857D01*
X60855000Y-130524000D01*
X61955000Y-130524000D01*
X62033512Y-130527857D01*
G37*
G36*
X54333512Y-127987857D02*
G01*
X54487518Y-128018491D01*
X54632589Y-128078581D01*
X54763149Y-128165819D01*
X54874181Y-128276851D01*
X54961419Y-128407411D01*
X55021509Y-128552482D01*
X55052143Y-128706488D01*
X55052143Y-128863512D01*
X55021509Y-129017518D01*
X54961419Y-129162589D01*
X54874181Y-129293149D01*
X54763149Y-129404181D01*
X54632589Y-129491419D01*
X54487518Y-129551509D01*
X54333512Y-129582143D01*
X54255000Y-129586000D01*
X54251941Y-129586000D01*
X53158059Y-129586000D01*
X53155000Y-129586000D01*
X53076488Y-129582143D01*
X52922482Y-129551509D01*
X52777411Y-129491419D01*
X52646851Y-129404181D01*
X52535819Y-129293149D01*
X52448581Y-129162589D01*
X52388491Y-129017518D01*
X52357857Y-128863512D01*
X52357857Y-128706488D01*
X52388491Y-128552482D01*
X52448581Y-128407411D01*
X52535819Y-128276851D01*
X52646851Y-128165819D01*
X52777411Y-128078581D01*
X52922482Y-128018491D01*
X53076488Y-127987857D01*
X53155000Y-127984000D01*
X54255000Y-127984000D01*
X54333512Y-127987857D01*
G37*
G36*
X62033512Y-127987857D02*
G01*
X62187518Y-128018491D01*
X62332589Y-128078581D01*
X62463149Y-128165819D01*
X62574181Y-128276851D01*
X62661419Y-128407411D01*
X62721509Y-128552482D01*
X62752143Y-128706488D01*
X62752143Y-128863512D01*
X62721509Y-129017518D01*
X62661419Y-129162589D01*
X62574181Y-129293149D01*
X62463149Y-129404181D01*
X62332589Y-129491419D01*
X62187518Y-129551509D01*
X62033512Y-129582143D01*
X61955000Y-129586000D01*
X61951941Y-129586000D01*
X60858059Y-129586000D01*
X60855000Y-129586000D01*
X60776488Y-129582143D01*
X60622482Y-129551509D01*
X60477411Y-129491419D01*
X60346851Y-129404181D01*
X60235819Y-129293149D01*
X60148581Y-129162589D01*
X60088491Y-129017518D01*
X60057857Y-128863512D01*
X60057857Y-128706488D01*
X60088491Y-128552482D01*
X60148581Y-128407411D01*
X60235819Y-128276851D01*
X60346851Y-128165819D01*
X60477411Y-128078581D01*
X60622482Y-128018491D01*
X60776488Y-127987857D01*
X60855000Y-127984000D01*
X61955000Y-127984000D01*
X62033512Y-127987857D01*
G37*
G36*
X110267334Y-126334013D02*
G01*
X110442838Y-126391038D01*
X110607260Y-126474815D01*
X110756553Y-126583283D01*
X110887039Y-126713769D01*
X110995507Y-126863062D01*
X111079284Y-127027484D01*
X111136309Y-127202988D01*
X111165177Y-127385252D01*
X111165177Y-127569788D01*
X111136309Y-127752052D01*
X111079284Y-127927556D01*
X110995507Y-128091978D01*
X110887039Y-128241271D01*
X110756553Y-128371757D01*
X110607260Y-128480225D01*
X110442838Y-128564002D01*
X110267334Y-128621027D01*
X110085070Y-128649895D01*
X109900534Y-128649895D01*
X109718270Y-128621027D01*
X109542766Y-128564002D01*
X109378344Y-128480225D01*
X109229051Y-128371757D01*
X109098565Y-128241271D01*
X108990097Y-128091978D01*
X108906320Y-127927556D01*
X108849295Y-127752052D01*
X108820427Y-127569788D01*
X108820427Y-127385252D01*
X108849295Y-127202988D01*
X108906320Y-127027484D01*
X108990097Y-126863062D01*
X109098565Y-126713769D01*
X109229051Y-126583283D01*
X109378344Y-126474815D01*
X109542766Y-126391038D01*
X109718270Y-126334013D01*
X109900534Y-126305145D01*
X110085070Y-126305145D01*
X110267334Y-126334013D01*
G37*
G36*
X113267334Y-126334013D02*
G01*
X113442838Y-126391038D01*
X113607260Y-126474815D01*
X113756553Y-126583283D01*
X113887039Y-126713769D01*
X113995507Y-126863062D01*
X114079284Y-127027484D01*
X114136309Y-127202988D01*
X114165177Y-127385252D01*
X114165177Y-127569788D01*
X114136309Y-127752052D01*
X114079284Y-127927556D01*
X113995507Y-128091978D01*
X113887039Y-128241271D01*
X113756553Y-128371757D01*
X113607260Y-128480225D01*
X113442838Y-128564002D01*
X113267334Y-128621027D01*
X113085070Y-128649895D01*
X112900534Y-128649895D01*
X112718270Y-128621027D01*
X112542766Y-128564002D01*
X112378344Y-128480225D01*
X112229051Y-128371757D01*
X112098565Y-128241271D01*
X111990097Y-128091978D01*
X111906320Y-127927556D01*
X111849295Y-127752052D01*
X111820427Y-127569788D01*
X111820427Y-127385252D01*
X111849295Y-127202988D01*
X111906320Y-127027484D01*
X111990097Y-126863062D01*
X112098565Y-126713769D01*
X112229051Y-126583283D01*
X112378344Y-126474815D01*
X112542766Y-126391038D01*
X112718270Y-126334013D01*
X112900534Y-126305145D01*
X113085070Y-126305145D01*
X113267334Y-126334013D01*
G37*
G36*
X110270933Y-121845253D02*
G01*
X110446437Y-121902278D01*
X110610859Y-121986055D01*
X110760152Y-122094523D01*
X110890638Y-122225009D01*
X110999106Y-122374302D01*
X111082883Y-122538724D01*
X111139908Y-122714228D01*
X111168776Y-122896492D01*
X111168776Y-123081028D01*
X111139908Y-123263292D01*
X111082883Y-123438796D01*
X110999106Y-123603218D01*
X110890638Y-123752511D01*
X110760152Y-123882997D01*
X110610859Y-123991465D01*
X110446437Y-124075242D01*
X110270933Y-124132267D01*
X110088669Y-124161135D01*
X109904133Y-124161135D01*
X109721869Y-124132267D01*
X109546365Y-124075242D01*
X109381943Y-123991465D01*
X109232650Y-123882997D01*
X109102164Y-123752511D01*
X108993696Y-123603218D01*
X108909919Y-123438796D01*
X108852894Y-123263292D01*
X108824026Y-123081028D01*
X108824026Y-122896492D01*
X108852894Y-122714228D01*
X108909919Y-122538724D01*
X108993696Y-122374302D01*
X109102164Y-122225009D01*
X109232650Y-122094523D01*
X109381943Y-121986055D01*
X109546365Y-121902278D01*
X109721869Y-121845253D01*
X109904133Y-121816385D01*
X110088669Y-121816385D01*
X110270933Y-121845253D01*
G37*
G36*
X113270933Y-121845253D02*
G01*
X113446437Y-121902278D01*
X113610859Y-121986055D01*
X113760152Y-122094523D01*
X113890638Y-122225009D01*
X113999106Y-122374302D01*
X114082883Y-122538724D01*
X114139908Y-122714228D01*
X114168776Y-122896492D01*
X114168776Y-123081028D01*
X114139908Y-123263292D01*
X114082883Y-123438796D01*
X113999106Y-123603218D01*
X113890638Y-123752511D01*
X113760152Y-123882997D01*
X113610859Y-123991465D01*
X113446437Y-124075242D01*
X113270933Y-124132267D01*
X113088669Y-124161135D01*
X112904133Y-124161135D01*
X112721869Y-124132267D01*
X112546365Y-124075242D01*
X112381943Y-123991465D01*
X112232650Y-123882997D01*
X112102164Y-123752511D01*
X111993696Y-123603218D01*
X111909919Y-123438796D01*
X111852894Y-123263292D01*
X111824026Y-123081028D01*
X111824026Y-122896492D01*
X111852894Y-122714228D01*
X111909919Y-122538724D01*
X111993696Y-122374302D01*
X112102164Y-122225009D01*
X112232650Y-122094523D01*
X112381943Y-121986055D01*
X112546365Y-121902278D01*
X112721869Y-121845253D01*
X112904133Y-121816385D01*
X113088669Y-121816385D01*
X113270933Y-121845253D01*
G37*
G36*
X102303914Y-117543295D02*
G01*
X102319726Y-117550276D01*
X102327531Y-117551513D01*
X102360039Y-117568076D01*
X102405106Y-117587976D01*
X102483324Y-117666194D01*
X102503226Y-117711267D01*
X102519786Y-117743768D01*
X102521021Y-117751570D01*
X102528005Y-117767386D01*
X102536000Y-117836300D01*
X102536000Y-118536300D01*
X102528005Y-118605214D01*
X102521021Y-118621029D01*
X102519786Y-118628831D01*
X102503229Y-118661324D01*
X102483324Y-118706406D01*
X102405106Y-118784624D01*
X102360024Y-118804529D01*
X102327531Y-118821086D01*
X102319729Y-118822321D01*
X102303914Y-118829305D01*
X102235000Y-118837300D01*
X101335000Y-118837300D01*
X101266086Y-118829305D01*
X101250270Y-118822321D01*
X101242468Y-118821086D01*
X101209967Y-118804526D01*
X101164894Y-118784624D01*
X101086676Y-118706406D01*
X101066776Y-118661339D01*
X101050213Y-118628831D01*
X101048976Y-118621026D01*
X101041995Y-118605214D01*
X101034000Y-118536300D01*
X101034000Y-117836300D01*
X101041995Y-117767386D01*
X101048976Y-117751574D01*
X101050213Y-117743768D01*
X101066780Y-117711253D01*
X101086676Y-117666194D01*
X101164894Y-117587976D01*
X101209953Y-117568080D01*
X101242468Y-117551513D01*
X101250274Y-117550276D01*
X101266086Y-117543295D01*
X101335000Y-117535300D01*
X102235000Y-117535300D01*
X102303914Y-117543295D01*
G37*
G36*
X104843914Y-117543295D02*
G01*
X104859726Y-117550276D01*
X104867531Y-117551513D01*
X104900039Y-117568076D01*
X104945106Y-117587976D01*
X105023324Y-117666194D01*
X105043226Y-117711267D01*
X105059786Y-117743768D01*
X105061021Y-117751570D01*
X105068005Y-117767386D01*
X105076000Y-117836300D01*
X105076000Y-118536300D01*
X105068005Y-118605214D01*
X105061021Y-118621029D01*
X105059786Y-118628831D01*
X105043229Y-118661324D01*
X105023324Y-118706406D01*
X104945106Y-118784624D01*
X104900024Y-118804529D01*
X104867531Y-118821086D01*
X104859729Y-118822321D01*
X104843914Y-118829305D01*
X104775000Y-118837300D01*
X103875000Y-118837300D01*
X103806086Y-118829305D01*
X103790270Y-118822321D01*
X103782468Y-118821086D01*
X103749967Y-118804526D01*
X103704894Y-118784624D01*
X103626676Y-118706406D01*
X103606776Y-118661339D01*
X103590213Y-118628831D01*
X103588976Y-118621026D01*
X103581995Y-118605214D01*
X103574000Y-118536300D01*
X103574000Y-117836300D01*
X103581995Y-117767386D01*
X103588976Y-117751574D01*
X103590213Y-117743768D01*
X103606780Y-117711253D01*
X103626676Y-117666194D01*
X103704894Y-117587976D01*
X103749953Y-117568080D01*
X103782468Y-117551513D01*
X103790274Y-117550276D01*
X103806086Y-117543295D01*
X103875000Y-117535300D01*
X104775000Y-117535300D01*
X104843914Y-117543295D01*
G37*
G36*
X107383914Y-117543295D02*
G01*
X107399726Y-117550276D01*
X107407531Y-117551513D01*
X107440039Y-117568076D01*
X107485106Y-117587976D01*
X107563324Y-117666194D01*
X107583226Y-117711267D01*
X107599786Y-117743768D01*
X107601021Y-117751570D01*
X107608005Y-117767386D01*
X107616000Y-117836300D01*
X107616000Y-118536300D01*
X107608005Y-118605214D01*
X107601021Y-118621029D01*
X107599786Y-118628831D01*
X107583229Y-118661324D01*
X107563324Y-118706406D01*
X107485106Y-118784624D01*
X107440024Y-118804529D01*
X107407531Y-118821086D01*
X107399729Y-118822321D01*
X107383914Y-118829305D01*
X107315000Y-118837300D01*
X106415000Y-118837300D01*
X106346086Y-118829305D01*
X106330270Y-118822321D01*
X106322468Y-118821086D01*
X106289967Y-118804526D01*
X106244894Y-118784624D01*
X106166676Y-118706406D01*
X106146776Y-118661339D01*
X106130213Y-118628831D01*
X106128976Y-118621026D01*
X106121995Y-118605214D01*
X106114000Y-118536300D01*
X106114000Y-117836300D01*
X106121995Y-117767386D01*
X106128976Y-117751574D01*
X106130213Y-117743768D01*
X106146780Y-117711253D01*
X106166676Y-117666194D01*
X106244894Y-117587976D01*
X106289953Y-117568080D01*
X106322468Y-117551513D01*
X106330274Y-117550276D01*
X106346086Y-117543295D01*
X106415000Y-117535300D01*
X107315000Y-117535300D01*
X107383914Y-117543295D01*
G37*
G36*
X109923914Y-117543295D02*
G01*
X109939726Y-117550276D01*
X109947531Y-117551513D01*
X109980039Y-117568076D01*
X110025106Y-117587976D01*
X110103324Y-117666194D01*
X110123226Y-117711267D01*
X110139786Y-117743768D01*
X110141021Y-117751570D01*
X110148005Y-117767386D01*
X110156000Y-117836300D01*
X110156000Y-118536300D01*
X110148005Y-118605214D01*
X110141021Y-118621029D01*
X110139786Y-118628831D01*
X110123229Y-118661324D01*
X110103324Y-118706406D01*
X110025106Y-118784624D01*
X109980024Y-118804529D01*
X109947531Y-118821086D01*
X109939729Y-118822321D01*
X109923914Y-118829305D01*
X109855000Y-118837300D01*
X108955000Y-118837300D01*
X108886086Y-118829305D01*
X108870270Y-118822321D01*
X108862468Y-118821086D01*
X108829967Y-118804526D01*
X108784894Y-118784624D01*
X108706676Y-118706406D01*
X108686776Y-118661339D01*
X108670213Y-118628831D01*
X108668976Y-118621026D01*
X108661995Y-118605214D01*
X108654000Y-118536300D01*
X108654000Y-117836300D01*
X108661995Y-117767386D01*
X108668976Y-117751574D01*
X108670213Y-117743768D01*
X108686780Y-117711253D01*
X108706676Y-117666194D01*
X108784894Y-117587976D01*
X108829953Y-117568080D01*
X108862468Y-117551513D01*
X108870274Y-117550276D01*
X108886086Y-117543295D01*
X108955000Y-117535300D01*
X109855000Y-117535300D01*
X109923914Y-117543295D01*
G37*
G36*
X102303914Y-115543295D02*
G01*
X102319726Y-115550276D01*
X102327531Y-115551513D01*
X102360039Y-115568076D01*
X102405106Y-115587976D01*
X102483324Y-115666194D01*
X102503226Y-115711267D01*
X102519786Y-115743768D01*
X102521021Y-115751570D01*
X102528005Y-115767386D01*
X102536000Y-115836300D01*
X102536000Y-116536300D01*
X102528005Y-116605214D01*
X102521021Y-116621029D01*
X102519786Y-116628831D01*
X102503229Y-116661324D01*
X102483324Y-116706406D01*
X102405106Y-116784624D01*
X102360024Y-116804529D01*
X102327531Y-116821086D01*
X102319729Y-116822321D01*
X102303914Y-116829305D01*
X102235000Y-116837300D01*
X101335000Y-116837300D01*
X101266086Y-116829305D01*
X101250270Y-116822321D01*
X101242468Y-116821086D01*
X101209967Y-116804526D01*
X101164894Y-116784624D01*
X101086676Y-116706406D01*
X101066776Y-116661339D01*
X101050213Y-116628831D01*
X101048976Y-116621026D01*
X101041995Y-116605214D01*
X101034000Y-116536300D01*
X101034000Y-115836300D01*
X101041995Y-115767386D01*
X101048976Y-115751574D01*
X101050213Y-115743768D01*
X101066780Y-115711253D01*
X101086676Y-115666194D01*
X101164894Y-115587976D01*
X101209953Y-115568080D01*
X101242468Y-115551513D01*
X101250274Y-115550276D01*
X101266086Y-115543295D01*
X101335000Y-115535300D01*
X102235000Y-115535300D01*
X102303914Y-115543295D01*
G37*
G36*
X104843914Y-115543295D02*
G01*
X104859726Y-115550276D01*
X104867531Y-115551513D01*
X104900039Y-115568076D01*
X104945106Y-115587976D01*
X105023324Y-115666194D01*
X105043226Y-115711267D01*
X105059786Y-115743768D01*
X105061021Y-115751570D01*
X105068005Y-115767386D01*
X105076000Y-115836300D01*
X105076000Y-116536300D01*
X105068005Y-116605214D01*
X105061021Y-116621029D01*
X105059786Y-116628831D01*
X105043229Y-116661324D01*
X105023324Y-116706406D01*
X104945106Y-116784624D01*
X104900024Y-116804529D01*
X104867531Y-116821086D01*
X104859729Y-116822321D01*
X104843914Y-116829305D01*
X104775000Y-116837300D01*
X103875000Y-116837300D01*
X103806086Y-116829305D01*
X103790270Y-116822321D01*
X103782468Y-116821086D01*
X103749967Y-116804526D01*
X103704894Y-116784624D01*
X103626676Y-116706406D01*
X103606776Y-116661339D01*
X103590213Y-116628831D01*
X103588976Y-116621026D01*
X103581995Y-116605214D01*
X103574000Y-116536300D01*
X103574000Y-115836300D01*
X103581995Y-115767386D01*
X103588976Y-115751574D01*
X103590213Y-115743768D01*
X103606780Y-115711253D01*
X103626676Y-115666194D01*
X103704894Y-115587976D01*
X103749953Y-115568080D01*
X103782468Y-115551513D01*
X103790274Y-115550276D01*
X103806086Y-115543295D01*
X103875000Y-115535300D01*
X104775000Y-115535300D01*
X104843914Y-115543295D01*
G37*
G36*
X107383914Y-115543295D02*
G01*
X107399726Y-115550276D01*
X107407531Y-115551513D01*
X107440039Y-115568076D01*
X107485106Y-115587976D01*
X107563324Y-115666194D01*
X107583226Y-115711267D01*
X107599786Y-115743768D01*
X107601021Y-115751570D01*
X107608005Y-115767386D01*
X107616000Y-115836300D01*
X107616000Y-116536300D01*
X107608005Y-116605214D01*
X107601021Y-116621029D01*
X107599786Y-116628831D01*
X107583229Y-116661324D01*
X107563324Y-116706406D01*
X107485106Y-116784624D01*
X107440024Y-116804529D01*
X107407531Y-116821086D01*
X107399729Y-116822321D01*
X107383914Y-116829305D01*
X107315000Y-116837300D01*
X106415000Y-116837300D01*
X106346086Y-116829305D01*
X106330270Y-116822321D01*
X106322468Y-116821086D01*
X106289967Y-116804526D01*
X106244894Y-116784624D01*
X106166676Y-116706406D01*
X106146776Y-116661339D01*
X106130213Y-116628831D01*
X106128976Y-116621026D01*
X106121995Y-116605214D01*
X106114000Y-116536300D01*
X106114000Y-115836300D01*
X106121995Y-115767386D01*
X106128976Y-115751574D01*
X106130213Y-115743768D01*
X106146780Y-115711253D01*
X106166676Y-115666194D01*
X106244894Y-115587976D01*
X106289953Y-115568080D01*
X106322468Y-115551513D01*
X106330274Y-115550276D01*
X106346086Y-115543295D01*
X106415000Y-115535300D01*
X107315000Y-115535300D01*
X107383914Y-115543295D01*
G37*
G36*
X109923914Y-115543295D02*
G01*
X109939726Y-115550276D01*
X109947531Y-115551513D01*
X109980039Y-115568076D01*
X110025106Y-115587976D01*
X110103324Y-115666194D01*
X110123226Y-115711267D01*
X110139786Y-115743768D01*
X110141021Y-115751570D01*
X110148005Y-115767386D01*
X110156000Y-115836300D01*
X110156000Y-116536300D01*
X110148005Y-116605214D01*
X110141021Y-116621029D01*
X110139786Y-116628831D01*
X110123229Y-116661324D01*
X110103324Y-116706406D01*
X110025106Y-116784624D01*
X109980024Y-116804529D01*
X109947531Y-116821086D01*
X109939729Y-116822321D01*
X109923914Y-116829305D01*
X109855000Y-116837300D01*
X108955000Y-116837300D01*
X108886086Y-116829305D01*
X108870270Y-116822321D01*
X108862468Y-116821086D01*
X108829967Y-116804526D01*
X108784894Y-116784624D01*
X108706676Y-116706406D01*
X108686776Y-116661339D01*
X108670213Y-116628831D01*
X108668976Y-116621026D01*
X108661995Y-116605214D01*
X108654000Y-116536300D01*
X108654000Y-115836300D01*
X108661995Y-115767386D01*
X108668976Y-115751574D01*
X108670213Y-115743768D01*
X108686780Y-115711253D01*
X108706676Y-115666194D01*
X108784894Y-115587976D01*
X108829953Y-115568080D01*
X108862468Y-115551513D01*
X108870274Y-115550276D01*
X108886086Y-115543295D01*
X108955000Y-115535300D01*
X109855000Y-115535300D01*
X109923914Y-115543295D01*
G37*
G36*
X104843914Y-109170695D02*
G01*
X104859726Y-109177676D01*
X104867531Y-109178913D01*
X104900039Y-109195476D01*
X104945106Y-109215376D01*
X105023324Y-109293594D01*
X105043226Y-109338667D01*
X105059786Y-109371168D01*
X105061021Y-109378970D01*
X105068005Y-109394786D01*
X105076000Y-109463700D01*
X105076000Y-110163700D01*
X105068005Y-110232614D01*
X105061021Y-110248429D01*
X105059786Y-110256231D01*
X105043229Y-110288724D01*
X105023324Y-110333806D01*
X104945106Y-110412024D01*
X104900024Y-110431929D01*
X104867531Y-110448486D01*
X104859729Y-110449721D01*
X104843914Y-110456705D01*
X104775000Y-110464700D01*
X103875000Y-110464700D01*
X103806086Y-110456705D01*
X103790270Y-110449721D01*
X103782468Y-110448486D01*
X103749967Y-110431926D01*
X103704894Y-110412024D01*
X103626676Y-110333806D01*
X103606776Y-110288739D01*
X103590213Y-110256231D01*
X103588976Y-110248426D01*
X103581995Y-110232614D01*
X103574000Y-110163700D01*
X103574000Y-109463700D01*
X103581995Y-109394786D01*
X103588976Y-109378974D01*
X103590213Y-109371168D01*
X103606780Y-109338653D01*
X103626676Y-109293594D01*
X103704894Y-109215376D01*
X103749953Y-109195480D01*
X103782468Y-109178913D01*
X103790274Y-109177676D01*
X103806086Y-109170695D01*
X103875000Y-109162700D01*
X104775000Y-109162700D01*
X104843914Y-109170695D01*
G37*
G36*
X107383914Y-109170695D02*
G01*
X107399726Y-109177676D01*
X107407531Y-109178913D01*
X107440039Y-109195476D01*
X107485106Y-109215376D01*
X107563324Y-109293594D01*
X107583226Y-109338667D01*
X107599786Y-109371168D01*
X107601021Y-109378970D01*
X107608005Y-109394786D01*
X107616000Y-109463700D01*
X107616000Y-110163700D01*
X107608005Y-110232614D01*
X107601021Y-110248429D01*
X107599786Y-110256231D01*
X107583229Y-110288724D01*
X107563324Y-110333806D01*
X107485106Y-110412024D01*
X107440024Y-110431929D01*
X107407531Y-110448486D01*
X107399729Y-110449721D01*
X107383914Y-110456705D01*
X107315000Y-110464700D01*
X106415000Y-110464700D01*
X106346086Y-110456705D01*
X106330270Y-110449721D01*
X106322468Y-110448486D01*
X106289967Y-110431926D01*
X106244894Y-110412024D01*
X106166676Y-110333806D01*
X106146776Y-110288739D01*
X106130213Y-110256231D01*
X106128976Y-110248426D01*
X106121995Y-110232614D01*
X106114000Y-110163700D01*
X106114000Y-109463700D01*
X106121995Y-109394786D01*
X106128976Y-109378974D01*
X106130213Y-109371168D01*
X106146780Y-109338653D01*
X106166676Y-109293594D01*
X106244894Y-109215376D01*
X106289953Y-109195480D01*
X106322468Y-109178913D01*
X106330274Y-109177676D01*
X106346086Y-109170695D01*
X106415000Y-109162700D01*
X107315000Y-109162700D01*
X107383914Y-109170695D01*
G37*
G36*
X109923914Y-109170695D02*
G01*
X109939726Y-109177676D01*
X109947531Y-109178913D01*
X109980039Y-109195476D01*
X110025106Y-109215376D01*
X110103324Y-109293594D01*
X110123226Y-109338667D01*
X110139786Y-109371168D01*
X110141021Y-109378970D01*
X110148005Y-109394786D01*
X110156000Y-109463700D01*
X110156000Y-110163700D01*
X110148005Y-110232614D01*
X110141021Y-110248429D01*
X110139786Y-110256231D01*
X110123229Y-110288724D01*
X110103324Y-110333806D01*
X110025106Y-110412024D01*
X109980024Y-110431929D01*
X109947531Y-110448486D01*
X109939729Y-110449721D01*
X109923914Y-110456705D01*
X109855000Y-110464700D01*
X108955000Y-110464700D01*
X108886086Y-110456705D01*
X108870270Y-110449721D01*
X108862468Y-110448486D01*
X108829967Y-110431926D01*
X108784894Y-110412024D01*
X108706676Y-110333806D01*
X108686776Y-110288739D01*
X108670213Y-110256231D01*
X108668976Y-110248426D01*
X108661995Y-110232614D01*
X108654000Y-110163700D01*
X108654000Y-109463700D01*
X108661995Y-109394786D01*
X108668976Y-109378974D01*
X108670213Y-109371168D01*
X108686780Y-109338653D01*
X108706676Y-109293594D01*
X108784894Y-109215376D01*
X108829953Y-109195480D01*
X108862468Y-109178913D01*
X108870274Y-109177676D01*
X108886086Y-109170695D01*
X108955000Y-109162700D01*
X109855000Y-109162700D01*
X109923914Y-109170695D01*
G37*
G36*
X112463914Y-109170695D02*
G01*
X112479726Y-109177676D01*
X112487531Y-109178913D01*
X112520039Y-109195476D01*
X112565106Y-109215376D01*
X112643324Y-109293594D01*
X112663226Y-109338667D01*
X112679786Y-109371168D01*
X112681021Y-109378970D01*
X112688005Y-109394786D01*
X112696000Y-109463700D01*
X112696000Y-110163700D01*
X112688005Y-110232614D01*
X112681021Y-110248429D01*
X112679786Y-110256231D01*
X112663229Y-110288724D01*
X112643324Y-110333806D01*
X112565106Y-110412024D01*
X112520024Y-110431929D01*
X112487531Y-110448486D01*
X112479729Y-110449721D01*
X112463914Y-110456705D01*
X112395000Y-110464700D01*
X111495000Y-110464700D01*
X111426086Y-110456705D01*
X111410270Y-110449721D01*
X111402468Y-110448486D01*
X111369967Y-110431926D01*
X111324894Y-110412024D01*
X111246676Y-110333806D01*
X111226776Y-110288739D01*
X111210213Y-110256231D01*
X111208976Y-110248426D01*
X111201995Y-110232614D01*
X111194000Y-110163700D01*
X111194000Y-109463700D01*
X111201995Y-109394786D01*
X111208976Y-109378974D01*
X111210213Y-109371168D01*
X111226780Y-109338653D01*
X111246676Y-109293594D01*
X111324894Y-109215376D01*
X111369953Y-109195480D01*
X111402468Y-109178913D01*
X111410274Y-109177676D01*
X111426086Y-109170695D01*
X111495000Y-109162700D01*
X112395000Y-109162700D01*
X112463914Y-109170695D01*
G37*
G36*
X104843914Y-107170695D02*
G01*
X104859726Y-107177676D01*
X104867531Y-107178913D01*
X104900039Y-107195476D01*
X104945106Y-107215376D01*
X105023324Y-107293594D01*
X105043226Y-107338667D01*
X105059786Y-107371168D01*
X105061021Y-107378970D01*
X105068005Y-107394786D01*
X105076000Y-107463700D01*
X105076000Y-108163700D01*
X105068005Y-108232614D01*
X105061021Y-108248429D01*
X105059786Y-108256231D01*
X105043229Y-108288724D01*
X105023324Y-108333806D01*
X104945106Y-108412024D01*
X104900024Y-108431929D01*
X104867531Y-108448486D01*
X104859729Y-108449721D01*
X104843914Y-108456705D01*
X104775000Y-108464700D01*
X103875000Y-108464700D01*
X103806086Y-108456705D01*
X103790270Y-108449721D01*
X103782468Y-108448486D01*
X103749967Y-108431926D01*
X103704894Y-108412024D01*
X103626676Y-108333806D01*
X103606776Y-108288739D01*
X103590213Y-108256231D01*
X103588976Y-108248426D01*
X103581995Y-108232614D01*
X103574000Y-108163700D01*
X103574000Y-107463700D01*
X103581995Y-107394786D01*
X103588976Y-107378974D01*
X103590213Y-107371168D01*
X103606780Y-107338653D01*
X103626676Y-107293594D01*
X103704894Y-107215376D01*
X103749953Y-107195480D01*
X103782468Y-107178913D01*
X103790274Y-107177676D01*
X103806086Y-107170695D01*
X103875000Y-107162700D01*
X104775000Y-107162700D01*
X104843914Y-107170695D01*
G37*
G36*
X107383914Y-107170695D02*
G01*
X107399726Y-107177676D01*
X107407531Y-107178913D01*
X107440039Y-107195476D01*
X107485106Y-107215376D01*
X107563324Y-107293594D01*
X107583226Y-107338667D01*
X107599786Y-107371168D01*
X107601021Y-107378970D01*
X107608005Y-107394786D01*
X107616000Y-107463700D01*
X107616000Y-108163700D01*
X107608005Y-108232614D01*
X107601021Y-108248429D01*
X107599786Y-108256231D01*
X107583229Y-108288724D01*
X107563324Y-108333806D01*
X107485106Y-108412024D01*
X107440024Y-108431929D01*
X107407531Y-108448486D01*
X107399729Y-108449721D01*
X107383914Y-108456705D01*
X107315000Y-108464700D01*
X106415000Y-108464700D01*
X106346086Y-108456705D01*
X106330270Y-108449721D01*
X106322468Y-108448486D01*
X106289967Y-108431926D01*
X106244894Y-108412024D01*
X106166676Y-108333806D01*
X106146776Y-108288739D01*
X106130213Y-108256231D01*
X106128976Y-108248426D01*
X106121995Y-108232614D01*
X106114000Y-108163700D01*
X106114000Y-107463700D01*
X106121995Y-107394786D01*
X106128976Y-107378974D01*
X106130213Y-107371168D01*
X106146780Y-107338653D01*
X106166676Y-107293594D01*
X106244894Y-107215376D01*
X106289953Y-107195480D01*
X106322468Y-107178913D01*
X106330274Y-107177676D01*
X106346086Y-107170695D01*
X106415000Y-107162700D01*
X107315000Y-107162700D01*
X107383914Y-107170695D01*
G37*
G36*
X109923914Y-107170695D02*
G01*
X109939726Y-107177676D01*
X109947531Y-107178913D01*
X109980039Y-107195476D01*
X110025106Y-107215376D01*
X110103324Y-107293594D01*
X110123226Y-107338667D01*
X110139786Y-107371168D01*
X110141021Y-107378970D01*
X110148005Y-107394786D01*
X110156000Y-107463700D01*
X110156000Y-108163700D01*
X110148005Y-108232614D01*
X110141021Y-108248429D01*
X110139786Y-108256231D01*
X110123229Y-108288724D01*
X110103324Y-108333806D01*
X110025106Y-108412024D01*
X109980024Y-108431929D01*
X109947531Y-108448486D01*
X109939729Y-108449721D01*
X109923914Y-108456705D01*
X109855000Y-108464700D01*
X108955000Y-108464700D01*
X108886086Y-108456705D01*
X108870270Y-108449721D01*
X108862468Y-108448486D01*
X108829967Y-108431926D01*
X108784894Y-108412024D01*
X108706676Y-108333806D01*
X108686776Y-108288739D01*
X108670213Y-108256231D01*
X108668976Y-108248426D01*
X108661995Y-108232614D01*
X108654000Y-108163700D01*
X108654000Y-107463700D01*
X108661995Y-107394786D01*
X108668976Y-107378974D01*
X108670213Y-107371168D01*
X108686780Y-107338653D01*
X108706676Y-107293594D01*
X108784894Y-107215376D01*
X108829953Y-107195480D01*
X108862468Y-107178913D01*
X108870274Y-107177676D01*
X108886086Y-107170695D01*
X108955000Y-107162700D01*
X109855000Y-107162700D01*
X109923914Y-107170695D01*
G37*
G36*
X112463914Y-107170695D02*
G01*
X112479726Y-107177676D01*
X112487531Y-107178913D01*
X112520039Y-107195476D01*
X112565106Y-107215376D01*
X112643324Y-107293594D01*
X112663226Y-107338667D01*
X112679786Y-107371168D01*
X112681021Y-107378970D01*
X112688005Y-107394786D01*
X112696000Y-107463700D01*
X112696000Y-108163700D01*
X112688005Y-108232614D01*
X112681021Y-108248429D01*
X112679786Y-108256231D01*
X112663229Y-108288724D01*
X112643324Y-108333806D01*
X112565106Y-108412024D01*
X112520024Y-108431929D01*
X112487531Y-108448486D01*
X112479729Y-108449721D01*
X112463914Y-108456705D01*
X112395000Y-108464700D01*
X111495000Y-108464700D01*
X111426086Y-108456705D01*
X111410270Y-108449721D01*
X111402468Y-108448486D01*
X111369967Y-108431926D01*
X111324894Y-108412024D01*
X111246676Y-108333806D01*
X111226776Y-108288739D01*
X111210213Y-108256231D01*
X111208976Y-108248426D01*
X111201995Y-108232614D01*
X111194000Y-108163700D01*
X111194000Y-107463700D01*
X111201995Y-107394786D01*
X111208976Y-107378974D01*
X111210213Y-107371168D01*
X111226780Y-107338653D01*
X111246676Y-107293594D01*
X111324894Y-107215376D01*
X111369953Y-107195480D01*
X111402468Y-107178913D01*
X111410274Y-107177676D01*
X111426086Y-107170695D01*
X111495000Y-107162700D01*
X112395000Y-107162700D01*
X112463914Y-107170695D01*
G37*
G36*
X61796795Y-103260777D02*
G01*
X61808339Y-103260777D01*
X61853451Y-103269750D01*
X61951030Y-103285205D01*
X61982414Y-103295402D01*
X62011047Y-103301098D01*
X62051458Y-103317836D01*
X62108315Y-103336311D01*
X62161574Y-103363447D01*
X62201994Y-103380190D01*
X62226275Y-103396414D01*
X62255667Y-103411390D01*
X62335570Y-103469443D01*
X62373841Y-103495015D01*
X62382008Y-103503182D01*
X62389458Y-103508595D01*
X62506404Y-103625541D01*
X62511816Y-103632990D01*
X62519985Y-103641159D01*
X62545560Y-103679434D01*
X62603609Y-103759332D01*
X62618583Y-103788721D01*
X62634810Y-103813006D01*
X62651554Y-103853430D01*
X62678688Y-103906684D01*
X62697159Y-103963533D01*
X62713902Y-104003953D01*
X62719598Y-104032590D01*
X62729794Y-104063969D01*
X62745248Y-104161540D01*
X62754223Y-104206661D01*
X62754223Y-104218205D01*
X62755665Y-104227310D01*
X62755665Y-104392689D01*
X62754223Y-104401793D01*
X62754223Y-104413339D01*
X62745247Y-104458463D01*
X62729794Y-104556030D01*
X62719598Y-104587406D01*
X62713902Y-104616047D01*
X62697158Y-104656469D01*
X62678688Y-104713315D01*
X62651556Y-104766564D01*
X62634810Y-104806994D01*
X62618581Y-104831281D01*
X62603609Y-104860667D01*
X62545568Y-104940552D01*
X62519985Y-104978841D01*
X62511813Y-104987012D01*
X62506404Y-104994458D01*
X62389458Y-105111404D01*
X62382012Y-105116813D01*
X62373841Y-105124985D01*
X62335552Y-105150568D01*
X62255667Y-105208609D01*
X62226281Y-105223581D01*
X62201994Y-105239810D01*
X62161564Y-105256556D01*
X62108315Y-105283688D01*
X62051469Y-105302158D01*
X62011047Y-105318902D01*
X61982406Y-105324598D01*
X61951030Y-105334794D01*
X61853461Y-105350247D01*
X61808339Y-105359223D01*
X61796794Y-105359223D01*
X61787690Y-105360665D01*
X61622310Y-105360665D01*
X61613206Y-105359223D01*
X61601661Y-105359223D01*
X61556540Y-105350248D01*
X61458969Y-105334794D01*
X61427590Y-105324598D01*
X61398953Y-105318902D01*
X61358533Y-105302159D01*
X61301684Y-105283688D01*
X61248430Y-105256554D01*
X61208006Y-105239810D01*
X61183721Y-105223583D01*
X61154332Y-105208609D01*
X61074434Y-105150560D01*
X61036159Y-105124985D01*
X61027990Y-105116816D01*
X61020541Y-105111404D01*
X60903595Y-104994458D01*
X60898182Y-104987008D01*
X60890015Y-104978841D01*
X60864443Y-104940570D01*
X60806390Y-104860667D01*
X60791414Y-104831275D01*
X60775190Y-104806994D01*
X60758447Y-104766574D01*
X60731311Y-104713315D01*
X60712836Y-104656458D01*
X60696098Y-104616047D01*
X60690402Y-104587414D01*
X60680205Y-104556030D01*
X60664750Y-104458453D01*
X60655777Y-104413339D01*
X60655777Y-104401793D01*
X60654335Y-104392689D01*
X60654335Y-104227310D01*
X60655777Y-104218205D01*
X60655777Y-104206661D01*
X60664750Y-104161550D01*
X60680205Y-104063969D01*
X60690403Y-104032582D01*
X60696098Y-104003953D01*
X60712835Y-103963544D01*
X60731311Y-103906684D01*
X60758450Y-103853419D01*
X60775190Y-103813006D01*
X60791412Y-103788728D01*
X60806390Y-103759332D01*
X60864451Y-103679417D01*
X60890015Y-103641159D01*
X60898180Y-103632993D01*
X60903595Y-103625541D01*
X61020541Y-103508595D01*
X61027993Y-103503180D01*
X61036159Y-103495015D01*
X61074417Y-103469451D01*
X61154332Y-103411390D01*
X61183728Y-103396412D01*
X61208006Y-103380190D01*
X61248419Y-103363450D01*
X61301684Y-103336311D01*
X61358544Y-103317835D01*
X61398953Y-103301098D01*
X61427582Y-103295403D01*
X61458969Y-103285205D01*
X61556550Y-103269750D01*
X61601661Y-103260777D01*
X61613205Y-103260777D01*
X61622310Y-103259335D01*
X61787690Y-103259335D01*
X61796795Y-103260777D01*
G37*
G36*
X110270933Y-101845253D02*
G01*
X110446437Y-101902278D01*
X110610859Y-101986055D01*
X110760152Y-102094523D01*
X110890638Y-102225009D01*
X110999106Y-102374302D01*
X111082883Y-102538724D01*
X111139908Y-102714228D01*
X111168776Y-102896492D01*
X111168776Y-103081028D01*
X111139908Y-103263292D01*
X111082883Y-103438796D01*
X110999106Y-103603218D01*
X110890638Y-103752511D01*
X110760152Y-103882997D01*
X110610859Y-103991465D01*
X110446437Y-104075242D01*
X110270933Y-104132267D01*
X110088669Y-104161135D01*
X109904133Y-104161135D01*
X109721869Y-104132267D01*
X109546365Y-104075242D01*
X109381943Y-103991465D01*
X109232650Y-103882997D01*
X109102164Y-103752511D01*
X108993696Y-103603218D01*
X108909919Y-103438796D01*
X108852894Y-103263292D01*
X108824026Y-103081028D01*
X108824026Y-102896492D01*
X108852894Y-102714228D01*
X108909919Y-102538724D01*
X108993696Y-102374302D01*
X109102164Y-102225009D01*
X109232650Y-102094523D01*
X109381943Y-101986055D01*
X109546365Y-101902278D01*
X109721869Y-101845253D01*
X109904133Y-101816385D01*
X110088669Y-101816385D01*
X110270933Y-101845253D01*
G37*
G36*
X113270933Y-101845253D02*
G01*
X113446437Y-101902278D01*
X113610859Y-101986055D01*
X113760152Y-102094523D01*
X113890638Y-102225009D01*
X113999106Y-102374302D01*
X114082883Y-102538724D01*
X114139908Y-102714228D01*
X114168776Y-102896492D01*
X114168776Y-103081028D01*
X114139908Y-103263292D01*
X114082883Y-103438796D01*
X113999106Y-103603218D01*
X113890638Y-103752511D01*
X113760152Y-103882997D01*
X113610859Y-103991465D01*
X113446437Y-104075242D01*
X113270933Y-104132267D01*
X113088669Y-104161135D01*
X112904133Y-104161135D01*
X112721869Y-104132267D01*
X112546365Y-104075242D01*
X112381943Y-103991465D01*
X112232650Y-103882997D01*
X112102164Y-103752511D01*
X111993696Y-103603218D01*
X111909919Y-103438796D01*
X111852894Y-103263292D01*
X111824026Y-103081028D01*
X111824026Y-102896492D01*
X111852894Y-102714228D01*
X111909919Y-102538724D01*
X111993696Y-102374302D01*
X112102164Y-102225009D01*
X112232650Y-102094523D01*
X112381943Y-101986055D01*
X112546365Y-101902278D01*
X112721869Y-101845253D01*
X112904133Y-101816385D01*
X113088669Y-101816385D01*
X113270933Y-101845253D01*
G37*
G36*
X67002568Y-101052773D02*
G01*
X67138312Y-101109000D01*
X67260478Y-101190629D01*
X67364371Y-101294522D01*
X67446000Y-101416688D01*
X67502227Y-101552432D01*
X67530891Y-101696536D01*
X67530891Y-101843464D01*
X67502227Y-101987568D01*
X67446000Y-102123312D01*
X67364371Y-102245478D01*
X67260478Y-102349371D01*
X67138312Y-102431000D01*
X67002568Y-102487227D01*
X66858464Y-102515891D01*
X66711536Y-102515891D01*
X66567432Y-102487227D01*
X66431688Y-102431000D01*
X66309522Y-102349371D01*
X66205629Y-102245478D01*
X66124000Y-102123312D01*
X66067773Y-101987568D01*
X66039109Y-101843464D01*
X66039109Y-101696536D01*
X66067773Y-101552432D01*
X66124000Y-101416688D01*
X66205629Y-101294522D01*
X66309522Y-101190629D01*
X66431688Y-101109000D01*
X66567432Y-101052773D01*
X66711536Y-101024109D01*
X66858464Y-101024109D01*
X67002568Y-101052773D01*
G37*
G36*
X67002568Y-98512773D02*
G01*
X67138312Y-98569000D01*
X67260478Y-98650629D01*
X67364371Y-98754522D01*
X67446000Y-98876688D01*
X67502227Y-99012432D01*
X67530891Y-99156536D01*
X67530891Y-99303464D01*
X67502227Y-99447568D01*
X67446000Y-99583312D01*
X67364371Y-99705478D01*
X67260478Y-99809371D01*
X67138312Y-99891000D01*
X67002568Y-99947227D01*
X66858464Y-99975891D01*
X66711536Y-99975891D01*
X66567432Y-99947227D01*
X66431688Y-99891000D01*
X66309522Y-99809371D01*
X66205629Y-99705478D01*
X66124000Y-99583312D01*
X66067773Y-99447568D01*
X66039109Y-99303464D01*
X66039109Y-99156536D01*
X66067773Y-99012432D01*
X66124000Y-98876688D01*
X66205629Y-98754522D01*
X66309522Y-98650629D01*
X66431688Y-98569000D01*
X66567432Y-98512773D01*
X66711536Y-98484109D01*
X66858464Y-98484109D01*
X67002568Y-98512773D01*
G37*
G36*
X110267334Y-97334013D02*
G01*
X110442838Y-97391038D01*
X110607260Y-97474815D01*
X110756553Y-97583283D01*
X110887039Y-97713769D01*
X110995507Y-97863062D01*
X111079284Y-98027484D01*
X111136309Y-98202988D01*
X111165177Y-98385252D01*
X111165177Y-98569788D01*
X111136309Y-98752052D01*
X111079284Y-98927556D01*
X110995507Y-99091978D01*
X110887039Y-99241271D01*
X110756553Y-99371757D01*
X110607260Y-99480225D01*
X110442838Y-99564002D01*
X110267334Y-99621027D01*
X110085070Y-99649895D01*
X109900534Y-99649895D01*
X109718270Y-99621027D01*
X109542766Y-99564002D01*
X109378344Y-99480225D01*
X109229051Y-99371757D01*
X109098565Y-99241271D01*
X108990097Y-99091978D01*
X108906320Y-98927556D01*
X108849295Y-98752052D01*
X108820427Y-98569788D01*
X108820427Y-98385252D01*
X108849295Y-98202988D01*
X108906320Y-98027484D01*
X108990097Y-97863062D01*
X109098565Y-97713769D01*
X109229051Y-97583283D01*
X109378344Y-97474815D01*
X109542766Y-97391038D01*
X109718270Y-97334013D01*
X109900534Y-97305145D01*
X110085070Y-97305145D01*
X110267334Y-97334013D01*
G37*
G36*
X113267334Y-97334013D02*
G01*
X113442838Y-97391038D01*
X113607260Y-97474815D01*
X113756553Y-97583283D01*
X113887039Y-97713769D01*
X113995507Y-97863062D01*
X114079284Y-98027484D01*
X114136309Y-98202988D01*
X114165177Y-98385252D01*
X114165177Y-98569788D01*
X114136309Y-98752052D01*
X114079284Y-98927556D01*
X113995507Y-99091978D01*
X113887039Y-99241271D01*
X113756553Y-99371757D01*
X113607260Y-99480225D01*
X113442838Y-99564002D01*
X113267334Y-99621027D01*
X113085070Y-99649895D01*
X112900534Y-99649895D01*
X112718270Y-99621027D01*
X112542766Y-99564002D01*
X112378344Y-99480225D01*
X112229051Y-99371757D01*
X112098565Y-99241271D01*
X111990097Y-99091978D01*
X111906320Y-98927556D01*
X111849295Y-98752052D01*
X111820427Y-98569788D01*
X111820427Y-98385252D01*
X111849295Y-98202988D01*
X111906320Y-98027484D01*
X111990097Y-97863062D01*
X112098565Y-97713769D01*
X112229051Y-97583283D01*
X112378344Y-97474815D01*
X112542766Y-97391038D01*
X112718270Y-97334013D01*
X112900534Y-97305145D01*
X113085070Y-97305145D01*
X113267334Y-97334013D01*
G37*
G36*
X61796795Y-93100777D02*
G01*
X61808339Y-93100777D01*
X61853451Y-93109750D01*
X61951030Y-93125205D01*
X61982414Y-93135402D01*
X62011047Y-93141098D01*
X62051458Y-93157836D01*
X62108315Y-93176311D01*
X62161574Y-93203447D01*
X62201994Y-93220190D01*
X62226275Y-93236414D01*
X62255667Y-93251390D01*
X62335570Y-93309443D01*
X62373841Y-93335015D01*
X62382008Y-93343182D01*
X62389458Y-93348595D01*
X62506404Y-93465541D01*
X62511816Y-93472990D01*
X62519985Y-93481159D01*
X62545560Y-93519434D01*
X62603609Y-93599332D01*
X62618583Y-93628721D01*
X62634810Y-93653006D01*
X62651554Y-93693430D01*
X62678688Y-93746684D01*
X62697159Y-93803533D01*
X62713902Y-93843953D01*
X62719598Y-93872590D01*
X62729794Y-93903969D01*
X62745248Y-94001540D01*
X62754223Y-94046661D01*
X62754223Y-94058205D01*
X62755665Y-94067310D01*
X62755665Y-94232689D01*
X62754223Y-94241793D01*
X62754223Y-94253339D01*
X62745247Y-94298463D01*
X62729794Y-94396030D01*
X62719598Y-94427406D01*
X62713902Y-94456047D01*
X62697158Y-94496469D01*
X62678688Y-94553315D01*
X62651556Y-94606564D01*
X62634810Y-94646994D01*
X62618581Y-94671281D01*
X62603609Y-94700667D01*
X62545568Y-94780552D01*
X62519985Y-94818841D01*
X62511813Y-94827012D01*
X62506404Y-94834458D01*
X62389458Y-94951404D01*
X62382012Y-94956813D01*
X62373841Y-94964985D01*
X62335552Y-94990568D01*
X62255667Y-95048609D01*
X62226281Y-95063581D01*
X62201994Y-95079810D01*
X62161564Y-95096556D01*
X62108315Y-95123688D01*
X62051469Y-95142158D01*
X62011047Y-95158902D01*
X61982406Y-95164598D01*
X61951030Y-95174794D01*
X61853461Y-95190247D01*
X61808339Y-95199223D01*
X61796794Y-95199223D01*
X61787690Y-95200665D01*
X61622310Y-95200665D01*
X61613206Y-95199223D01*
X61601661Y-95199223D01*
X61556540Y-95190248D01*
X61458969Y-95174794D01*
X61427590Y-95164598D01*
X61398953Y-95158902D01*
X61358533Y-95142159D01*
X61301684Y-95123688D01*
X61248430Y-95096554D01*
X61208006Y-95079810D01*
X61183721Y-95063583D01*
X61154332Y-95048609D01*
X61074434Y-94990560D01*
X61036159Y-94964985D01*
X61027990Y-94956816D01*
X61020541Y-94951404D01*
X60903595Y-94834458D01*
X60898182Y-94827008D01*
X60890015Y-94818841D01*
X60864443Y-94780570D01*
X60806390Y-94700667D01*
X60791414Y-94671275D01*
X60775190Y-94646994D01*
X60758447Y-94606574D01*
X60731311Y-94553315D01*
X60712836Y-94496458D01*
X60696098Y-94456047D01*
X60690401Y-94427408D01*
X60680205Y-94396030D01*
X60664750Y-94298453D01*
X60655777Y-94253339D01*
X60655777Y-94241793D01*
X60654335Y-94232689D01*
X60654335Y-94067310D01*
X60655777Y-94058205D01*
X60655777Y-94046661D01*
X60664750Y-94001550D01*
X60680205Y-93903969D01*
X60690403Y-93872582D01*
X60696098Y-93843953D01*
X60712835Y-93803544D01*
X60731311Y-93746684D01*
X60758450Y-93693419D01*
X60775190Y-93653006D01*
X60791412Y-93628728D01*
X60806390Y-93599332D01*
X60864451Y-93519417D01*
X60890015Y-93481159D01*
X60898180Y-93472993D01*
X60903595Y-93465541D01*
X61020541Y-93348595D01*
X61027993Y-93343180D01*
X61036159Y-93335015D01*
X61074417Y-93309451D01*
X61154332Y-93251390D01*
X61183728Y-93236412D01*
X61208006Y-93220190D01*
X61248419Y-93203450D01*
X61301684Y-93176311D01*
X61358544Y-93157835D01*
X61398953Y-93141098D01*
X61427582Y-93135403D01*
X61458969Y-93125205D01*
X61556550Y-93109750D01*
X61601661Y-93100777D01*
X61613205Y-93100777D01*
X61622310Y-93099335D01*
X61787690Y-93099335D01*
X61796795Y-93100777D01*
G37*
G36*
X110267334Y-92834013D02*
G01*
X110442838Y-92891038D01*
X110607260Y-92974815D01*
X110756553Y-93083283D01*
X110887039Y-93213769D01*
X110995507Y-93363062D01*
X111079284Y-93527484D01*
X111136309Y-93702988D01*
X111165177Y-93885252D01*
X111165177Y-94069788D01*
X111136309Y-94252052D01*
X111079284Y-94427556D01*
X110995507Y-94591978D01*
X110887039Y-94741271D01*
X110756553Y-94871757D01*
X110607260Y-94980225D01*
X110442838Y-95064002D01*
X110267334Y-95121027D01*
X110085070Y-95149895D01*
X109900534Y-95149895D01*
X109718270Y-95121027D01*
X109542766Y-95064002D01*
X109378344Y-94980225D01*
X109229051Y-94871757D01*
X109098565Y-94741271D01*
X108990097Y-94591978D01*
X108906320Y-94427556D01*
X108849295Y-94252052D01*
X108820427Y-94069788D01*
X108820427Y-93885252D01*
X108849295Y-93702988D01*
X108906320Y-93527484D01*
X108990097Y-93363062D01*
X109098565Y-93213769D01*
X109229051Y-93083283D01*
X109378344Y-92974815D01*
X109542766Y-92891038D01*
X109718270Y-92834013D01*
X109900534Y-92805145D01*
X110085070Y-92805145D01*
X110267334Y-92834013D01*
G37*
G36*
X113267334Y-92834013D02*
G01*
X113442838Y-92891038D01*
X113607260Y-92974815D01*
X113756553Y-93083283D01*
X113887039Y-93213769D01*
X113995507Y-93363062D01*
X114079284Y-93527484D01*
X114136309Y-93702988D01*
X114165177Y-93885252D01*
X114165177Y-94069788D01*
X114136309Y-94252052D01*
X114079284Y-94427556D01*
X113995507Y-94591978D01*
X113887039Y-94741271D01*
X113756553Y-94871757D01*
X113607260Y-94980225D01*
X113442838Y-95064002D01*
X113267334Y-95121027D01*
X113085070Y-95149895D01*
X112900534Y-95149895D01*
X112718270Y-95121027D01*
X112542766Y-95064002D01*
X112378344Y-94980225D01*
X112229051Y-94871757D01*
X112098565Y-94741271D01*
X111990097Y-94591978D01*
X111906320Y-94427556D01*
X111849295Y-94252052D01*
X111820427Y-94069788D01*
X111820427Y-93885252D01*
X111849295Y-93702988D01*
X111906320Y-93527484D01*
X111990097Y-93363062D01*
X112098565Y-93213769D01*
X112229051Y-93083283D01*
X112378344Y-92974815D01*
X112542766Y-92891038D01*
X112718270Y-92834013D01*
X112900534Y-92805145D01*
X113085070Y-92805145D01*
X113267334Y-92834013D01*
G37*
G36*
X81972126Y-91358049D02*
G01*
X82147630Y-91415074D01*
X82312052Y-91498851D01*
X82461345Y-91607319D01*
X82591831Y-91737805D01*
X82700299Y-91887098D01*
X82784076Y-92051520D01*
X82841101Y-92227024D01*
X82869969Y-92409288D01*
X82869969Y-92593824D01*
X82841101Y-92776088D01*
X82784076Y-92951592D01*
X82700299Y-93116014D01*
X82591831Y-93265307D01*
X82461345Y-93395793D01*
X82312052Y-93504261D01*
X82147630Y-93588038D01*
X81972126Y-93645063D01*
X81789862Y-93673931D01*
X81605326Y-93673931D01*
X81423062Y-93645063D01*
X81247558Y-93588038D01*
X81083136Y-93504261D01*
X80933843Y-93395793D01*
X80803357Y-93265307D01*
X80694889Y-93116014D01*
X80611112Y-92951592D01*
X80554087Y-92776088D01*
X80525219Y-92593824D01*
X80525219Y-92409288D01*
X80554087Y-92227024D01*
X80611112Y-92051520D01*
X80694889Y-91887098D01*
X80803357Y-91737805D01*
X80933843Y-91607319D01*
X81083136Y-91498851D01*
X81247558Y-91415074D01*
X81423062Y-91358049D01*
X81605326Y-91329181D01*
X81789862Y-91329181D01*
X81972126Y-91358049D01*
G37*
G36*
X81972126Y-88358049D02*
G01*
X82147630Y-88415074D01*
X82312052Y-88498851D01*
X82461345Y-88607319D01*
X82591831Y-88737805D01*
X82700299Y-88887098D01*
X82784076Y-89051520D01*
X82841101Y-89227024D01*
X82869969Y-89409288D01*
X82869969Y-89593824D01*
X82841101Y-89776088D01*
X82784076Y-89951592D01*
X82700299Y-90116014D01*
X82591831Y-90265307D01*
X82461345Y-90395793D01*
X82312052Y-90504261D01*
X82147630Y-90588038D01*
X81972126Y-90645063D01*
X81789862Y-90673931D01*
X81605326Y-90673931D01*
X81423062Y-90645063D01*
X81247558Y-90588038D01*
X81083136Y-90504261D01*
X80933843Y-90395793D01*
X80803357Y-90265307D01*
X80694889Y-90116014D01*
X80611112Y-89951592D01*
X80554087Y-89776088D01*
X80525219Y-89593824D01*
X80525219Y-89409288D01*
X80554087Y-89227024D01*
X80611112Y-89051520D01*
X80694889Y-88887098D01*
X80803357Y-88737805D01*
X80933843Y-88607319D01*
X81083136Y-88498851D01*
X81247558Y-88415074D01*
X81423062Y-88358049D01*
X81605326Y-88329181D01*
X81789862Y-88329181D01*
X81972126Y-88358049D01*
G37*
G36*
X92758491Y-86856493D02*
G01*
X92933995Y-86913518D01*
X93098417Y-86997295D01*
X93247710Y-87105763D01*
X93378196Y-87236249D01*
X93486664Y-87385542D01*
X93570441Y-87549964D01*
X93627466Y-87725468D01*
X93656334Y-87907732D01*
X93656334Y-88092268D01*
X93627466Y-88274532D01*
X93570441Y-88450036D01*
X93486664Y-88614458D01*
X93378196Y-88763751D01*
X93247710Y-88894237D01*
X93098417Y-89002705D01*
X92933995Y-89086482D01*
X92758491Y-89143507D01*
X92576227Y-89172375D01*
X92391691Y-89172375D01*
X92209427Y-89143507D01*
X92033923Y-89086482D01*
X91869501Y-89002705D01*
X91720208Y-88894237D01*
X91589722Y-88763751D01*
X91481254Y-88614458D01*
X91397477Y-88450036D01*
X91340452Y-88274532D01*
X91311584Y-88092268D01*
X91311584Y-87907732D01*
X91340452Y-87725468D01*
X91397477Y-87549964D01*
X91481254Y-87385542D01*
X91589722Y-87236249D01*
X91720208Y-87105763D01*
X91869501Y-86997295D01*
X92033923Y-86913518D01*
X92209427Y-86856493D01*
X92391691Y-86827625D01*
X92576227Y-86827625D01*
X92758491Y-86856493D01*
G37*
G36*
X81972126Y-85358049D02*
G01*
X82147630Y-85415074D01*
X82312052Y-85498851D01*
X82461345Y-85607319D01*
X82591831Y-85737805D01*
X82700299Y-85887098D01*
X82784076Y-86051520D01*
X82841101Y-86227024D01*
X82869969Y-86409288D01*
X82869969Y-86593824D01*
X82841101Y-86776088D01*
X82784076Y-86951592D01*
X82700299Y-87116014D01*
X82591831Y-87265307D01*
X82461345Y-87395793D01*
X82312052Y-87504261D01*
X82147630Y-87588038D01*
X81972126Y-87645063D01*
X81789862Y-87673931D01*
X81605326Y-87673931D01*
X81423062Y-87645063D01*
X81247558Y-87588038D01*
X81083136Y-87504261D01*
X80933843Y-87395793D01*
X80803357Y-87265307D01*
X80694889Y-87116014D01*
X80611112Y-86951592D01*
X80554087Y-86776088D01*
X80525219Y-86593824D01*
X80525219Y-86409288D01*
X80554087Y-86227024D01*
X80611112Y-86051520D01*
X80694889Y-85887098D01*
X80803357Y-85737805D01*
X80933843Y-85607319D01*
X81083136Y-85498851D01*
X81247558Y-85415074D01*
X81423062Y-85358049D01*
X81605326Y-85329181D01*
X81789862Y-85329181D01*
X81972126Y-85358049D01*
G37*
G36*
X92758491Y-83856493D02*
G01*
X92933995Y-83913518D01*
X93098417Y-83997295D01*
X93247710Y-84105763D01*
X93378196Y-84236249D01*
X93486664Y-84385542D01*
X93570441Y-84549964D01*
X93627466Y-84725468D01*
X93656334Y-84907732D01*
X93656334Y-85092268D01*
X93627466Y-85274532D01*
X93570441Y-85450036D01*
X93486664Y-85614458D01*
X93378196Y-85763751D01*
X93247710Y-85894237D01*
X93098417Y-86002705D01*
X92933995Y-86086482D01*
X92758491Y-86143507D01*
X92576227Y-86172375D01*
X92391691Y-86172375D01*
X92209427Y-86143507D01*
X92033923Y-86086482D01*
X91869501Y-86002705D01*
X91720208Y-85894237D01*
X91589722Y-85763751D01*
X91481254Y-85614458D01*
X91397477Y-85450036D01*
X91340452Y-85274532D01*
X91311584Y-85092268D01*
X91311584Y-84907732D01*
X91340452Y-84725468D01*
X91397477Y-84549964D01*
X91481254Y-84385542D01*
X91589722Y-84236249D01*
X91720208Y-84105763D01*
X91869501Y-83997295D01*
X92033923Y-83913518D01*
X92209427Y-83856493D01*
X92391691Y-83827625D01*
X92576227Y-83827625D01*
X92758491Y-83856493D01*
G37*
G36*
X81960241Y-81376938D02*
G01*
X82135745Y-81433963D01*
X82300167Y-81517740D01*
X82449460Y-81626208D01*
X82579946Y-81756694D01*
X82688414Y-81905987D01*
X82772191Y-82070409D01*
X82829216Y-82245913D01*
X82858084Y-82428177D01*
X82858084Y-82612713D01*
X82829216Y-82794977D01*
X82772191Y-82970481D01*
X82688414Y-83134903D01*
X82579946Y-83284196D01*
X82449460Y-83414682D01*
X82300167Y-83523150D01*
X82135745Y-83606927D01*
X81960241Y-83663952D01*
X81777977Y-83692820D01*
X81593441Y-83692820D01*
X81411177Y-83663952D01*
X81235673Y-83606927D01*
X81071251Y-83523150D01*
X80921958Y-83414682D01*
X80791472Y-83284196D01*
X80683004Y-83134903D01*
X80599227Y-82970481D01*
X80542202Y-82794977D01*
X80513334Y-82612713D01*
X80513334Y-82428177D01*
X80542202Y-82245913D01*
X80599227Y-82070409D01*
X80683004Y-81905987D01*
X80791472Y-81756694D01*
X80921958Y-81626208D01*
X81071251Y-81517740D01*
X81235673Y-81433963D01*
X81411177Y-81376938D01*
X81593441Y-81348070D01*
X81777977Y-81348070D01*
X81960241Y-81376938D01*
G37*
G36*
X92758491Y-80856493D02*
G01*
X92933995Y-80913518D01*
X93098417Y-80997295D01*
X93247710Y-81105763D01*
X93378196Y-81236249D01*
X93486664Y-81385542D01*
X93570441Y-81549964D01*
X93627466Y-81725468D01*
X93656334Y-81907732D01*
X93656334Y-82092268D01*
X93627466Y-82274532D01*
X93570441Y-82450036D01*
X93486664Y-82614458D01*
X93378196Y-82763751D01*
X93247710Y-82894237D01*
X93098417Y-83002705D01*
X92933995Y-83086482D01*
X92758491Y-83143507D01*
X92576227Y-83172375D01*
X92391691Y-83172375D01*
X92209427Y-83143507D01*
X92033923Y-83086482D01*
X91869501Y-83002705D01*
X91720208Y-82894237D01*
X91589722Y-82763751D01*
X91481254Y-82614458D01*
X91397477Y-82450036D01*
X91340452Y-82274532D01*
X91311584Y-82092268D01*
X91311584Y-81907732D01*
X91340452Y-81725468D01*
X91397477Y-81549964D01*
X91481254Y-81385542D01*
X91589722Y-81236249D01*
X91720208Y-81105763D01*
X91869501Y-80997295D01*
X92033923Y-80913518D01*
X92209427Y-80856493D01*
X92391691Y-80827625D01*
X92576227Y-80827625D01*
X92758491Y-80856493D01*
G37*
G36*
X81960241Y-78376938D02*
G01*
X82135745Y-78433963D01*
X82300167Y-78517740D01*
X82449460Y-78626208D01*
X82579946Y-78756694D01*
X82688414Y-78905987D01*
X82772191Y-79070409D01*
X82829216Y-79245913D01*
X82858084Y-79428177D01*
X82858084Y-79612713D01*
X82829216Y-79794977D01*
X82772191Y-79970481D01*
X82688414Y-80134903D01*
X82579946Y-80284196D01*
X82449460Y-80414682D01*
X82300167Y-80523150D01*
X82135745Y-80606927D01*
X81960241Y-80663952D01*
X81777977Y-80692820D01*
X81593441Y-80692820D01*
X81411177Y-80663952D01*
X81235673Y-80606927D01*
X81071251Y-80523150D01*
X80921958Y-80414682D01*
X80791472Y-80284196D01*
X80683004Y-80134903D01*
X80599227Y-79970481D01*
X80542202Y-79794977D01*
X80513334Y-79612713D01*
X80513334Y-79428177D01*
X80542202Y-79245913D01*
X80599227Y-79070409D01*
X80683004Y-78905987D01*
X80791472Y-78756694D01*
X80921958Y-78626208D01*
X81071251Y-78517740D01*
X81235673Y-78433963D01*
X81411177Y-78376938D01*
X81593441Y-78348070D01*
X81777977Y-78348070D01*
X81960241Y-78376938D01*
G37*
G36*
X81960241Y-75376938D02*
G01*
X82135745Y-75433963D01*
X82300167Y-75517740D01*
X82449460Y-75626208D01*
X82579946Y-75756694D01*
X82688414Y-75905987D01*
X82772191Y-76070409D01*
X82829216Y-76245913D01*
X82858084Y-76428177D01*
X82858084Y-76612713D01*
X82829216Y-76794977D01*
X82772191Y-76970481D01*
X82688414Y-77134903D01*
X82579946Y-77284196D01*
X82449460Y-77414682D01*
X82300167Y-77523150D01*
X82135745Y-77606927D01*
X81960241Y-77663952D01*
X81777977Y-77692820D01*
X81593441Y-77692820D01*
X81411177Y-77663952D01*
X81235673Y-77606927D01*
X81071251Y-77523150D01*
X80921958Y-77414682D01*
X80791472Y-77284196D01*
X80683004Y-77134903D01*
X80599227Y-76970481D01*
X80542202Y-76794977D01*
X80513334Y-76612713D01*
X80513334Y-76428177D01*
X80542202Y-76245913D01*
X80599227Y-76070409D01*
X80683004Y-75905987D01*
X80791472Y-75756694D01*
X80921958Y-75626208D01*
X81071251Y-75517740D01*
X81235673Y-75433963D01*
X81411177Y-75376938D01*
X81593441Y-75348070D01*
X81777977Y-75348070D01*
X81960241Y-75376938D01*
G37*
G36*
X54333512Y-75512857D02*
G01*
X54487518Y-75543491D01*
X54632589Y-75603581D01*
X54763149Y-75690819D01*
X54874181Y-75801851D01*
X54961419Y-75932411D01*
X55021509Y-76077482D01*
X55052143Y-76231488D01*
X55052143Y-76388512D01*
X55021509Y-76542518D01*
X54961419Y-76687589D01*
X54874181Y-76818149D01*
X54763149Y-76929181D01*
X54632589Y-77016419D01*
X54487518Y-77076509D01*
X54333512Y-77107143D01*
X54255000Y-77111000D01*
X54251941Y-77111000D01*
X53158059Y-77111000D01*
X53155000Y-77111000D01*
X53076488Y-77107143D01*
X52922482Y-77076509D01*
X52777411Y-77016419D01*
X52646851Y-76929181D01*
X52535819Y-76818149D01*
X52448581Y-76687589D01*
X52388491Y-76542518D01*
X52357857Y-76388512D01*
X52357857Y-76231488D01*
X52388491Y-76077482D01*
X52448581Y-75932411D01*
X52535819Y-75801851D01*
X52646851Y-75690819D01*
X52777411Y-75603581D01*
X52922482Y-75543491D01*
X53076488Y-75512857D01*
X53155000Y-75509000D01*
X54255000Y-75509000D01*
X54333512Y-75512857D01*
G37*
G36*
X62033512Y-75512857D02*
G01*
X62187518Y-75543491D01*
X62332589Y-75603581D01*
X62463149Y-75690819D01*
X62574181Y-75801851D01*
X62661419Y-75932411D01*
X62721509Y-76077482D01*
X62752143Y-76231488D01*
X62752143Y-76388512D01*
X62721509Y-76542518D01*
X62661419Y-76687589D01*
X62574181Y-76818149D01*
X62463149Y-76929181D01*
X62332589Y-77016419D01*
X62187518Y-77076509D01*
X62033512Y-77107143D01*
X61955000Y-77111000D01*
X61951941Y-77111000D01*
X60858059Y-77111000D01*
X60855000Y-77111000D01*
X60776488Y-77107143D01*
X60622482Y-77076509D01*
X60477411Y-77016419D01*
X60346851Y-76929181D01*
X60235819Y-76818149D01*
X60148581Y-76687589D01*
X60088491Y-76542518D01*
X60057857Y-76388512D01*
X60057857Y-76231488D01*
X60088491Y-76077482D01*
X60148581Y-75932411D01*
X60235819Y-75801851D01*
X60346851Y-75690819D01*
X60477411Y-75603581D01*
X60622482Y-75543491D01*
X60776488Y-75512857D01*
X60855000Y-75509000D01*
X61955000Y-75509000D01*
X62033512Y-75512857D01*
G37*
G36*
X62033512Y-72972857D02*
G01*
X62187518Y-73003491D01*
X62332589Y-73063581D01*
X62463149Y-73150819D01*
X62574181Y-73261851D01*
X62661419Y-73392411D01*
X62721509Y-73537482D01*
X62752143Y-73691488D01*
X62752143Y-73848512D01*
X62721509Y-74002518D01*
X62661419Y-74147589D01*
X62574181Y-74278149D01*
X62463149Y-74389181D01*
X62332589Y-74476419D01*
X62187518Y-74536509D01*
X62033512Y-74567143D01*
X61955000Y-74571000D01*
X61951941Y-74571000D01*
X60858059Y-74571000D01*
X60855000Y-74571000D01*
X60776488Y-74567143D01*
X60622482Y-74536509D01*
X60477411Y-74476419D01*
X60346851Y-74389181D01*
X60235819Y-74278149D01*
X60148581Y-74147589D01*
X60088491Y-74002518D01*
X60057857Y-73848512D01*
X60057857Y-73691488D01*
X60088491Y-73537482D01*
X60148581Y-73392411D01*
X60235819Y-73261851D01*
X60346851Y-73150819D01*
X60477411Y-73063581D01*
X60622482Y-73003491D01*
X60776488Y-72972857D01*
X60855000Y-72969000D01*
X61955000Y-72969000D01*
X62033512Y-72972857D01*
G37*
G36*
X62033512Y-70432857D02*
G01*
X62187518Y-70463491D01*
X62332589Y-70523581D01*
X62463149Y-70610819D01*
X62574181Y-70721851D01*
X62661419Y-70852411D01*
X62721509Y-70997482D01*
X62752143Y-71151488D01*
X62752143Y-71308512D01*
X62721509Y-71462518D01*
X62661419Y-71607589D01*
X62574181Y-71738149D01*
X62463149Y-71849181D01*
X62332589Y-71936419D01*
X62187518Y-71996509D01*
X62033512Y-72027143D01*
X61955000Y-72031000D01*
X61951941Y-72031000D01*
X60858059Y-72031000D01*
X60855000Y-72031000D01*
X60776488Y-72027143D01*
X60622482Y-71996509D01*
X60477411Y-71936419D01*
X60346851Y-71849181D01*
X60235819Y-71738149D01*
X60148581Y-71607589D01*
X60088491Y-71462518D01*
X60057857Y-71308512D01*
X60057857Y-71151488D01*
X60088491Y-70997482D01*
X60148581Y-70852411D01*
X60235819Y-70721851D01*
X60346851Y-70610819D01*
X60477411Y-70523581D01*
X60622482Y-70463491D01*
X60776488Y-70432857D01*
X60855000Y-70429000D01*
X61955000Y-70429000D01*
X62033512Y-70432857D01*
G37*
G36*
X154274532Y-68856493D02*
G01*
X154450036Y-68913518D01*
X154614458Y-68997295D01*
X154763751Y-69105763D01*
X154894237Y-69236249D01*
X155002705Y-69385542D01*
X155086482Y-69549964D01*
X155143507Y-69725468D01*
X155172375Y-69907732D01*
X155172375Y-70092268D01*
X155143507Y-70274532D01*
X155086482Y-70450036D01*
X155002705Y-70614458D01*
X154894237Y-70763751D01*
X154763751Y-70894237D01*
X154614458Y-71002705D01*
X154450036Y-71086482D01*
X154274532Y-71143507D01*
X154092268Y-71172375D01*
X153907732Y-71172375D01*
X153725468Y-71143507D01*
X153549964Y-71086482D01*
X153385542Y-71002705D01*
X153236249Y-70894237D01*
X153105763Y-70763751D01*
X152997295Y-70614458D01*
X152913518Y-70450036D01*
X152856493Y-70274532D01*
X152827625Y-70092268D01*
X152827625Y-69907732D01*
X152856493Y-69725468D01*
X152913518Y-69549964D01*
X152997295Y-69385542D01*
X153105763Y-69236249D01*
X153236249Y-69105763D01*
X153385542Y-68997295D01*
X153549964Y-68913518D01*
X153725468Y-68856493D01*
X153907732Y-68827625D01*
X154092268Y-68827625D01*
X154274532Y-68856493D01*
G37*
G36*
X157274532Y-68856493D02*
G01*
X157450036Y-68913518D01*
X157614458Y-68997295D01*
X157763751Y-69105763D01*
X157894237Y-69236249D01*
X158002705Y-69385542D01*
X158086482Y-69549964D01*
X158143507Y-69725468D01*
X158172375Y-69907732D01*
X158172375Y-70092268D01*
X158143507Y-70274532D01*
X158086482Y-70450036D01*
X158002705Y-70614458D01*
X157894237Y-70763751D01*
X157763751Y-70894237D01*
X157614458Y-71002705D01*
X157450036Y-71086482D01*
X157274532Y-71143507D01*
X157092268Y-71172375D01*
X156907732Y-71172375D01*
X156725468Y-71143507D01*
X156549964Y-71086482D01*
X156385542Y-71002705D01*
X156236249Y-70894237D01*
X156105763Y-70763751D01*
X155997295Y-70614458D01*
X155913518Y-70450036D01*
X155856493Y-70274532D01*
X155827625Y-70092268D01*
X155827625Y-69907732D01*
X155856493Y-69725468D01*
X155913518Y-69549964D01*
X155997295Y-69385542D01*
X156105763Y-69236249D01*
X156236249Y-69105763D01*
X156385542Y-68997295D01*
X156549964Y-68913518D01*
X156725468Y-68856493D01*
X156907732Y-68827625D01*
X157092268Y-68827625D01*
X157274532Y-68856493D01*
G37*
G36*
X160274532Y-68856493D02*
G01*
X160450036Y-68913518D01*
X160614458Y-68997295D01*
X160763751Y-69105763D01*
X160894237Y-69236249D01*
X161002705Y-69385542D01*
X161086482Y-69549964D01*
X161143507Y-69725468D01*
X161172375Y-69907732D01*
X161172375Y-70092268D01*
X161143507Y-70274532D01*
X161086482Y-70450036D01*
X161002705Y-70614458D01*
X160894237Y-70763751D01*
X160763751Y-70894237D01*
X160614458Y-71002705D01*
X160450036Y-71086482D01*
X160274532Y-71143507D01*
X160092268Y-71172375D01*
X159907732Y-71172375D01*
X159725468Y-71143507D01*
X159549964Y-71086482D01*
X159385542Y-71002705D01*
X159236249Y-70894237D01*
X159105763Y-70763751D01*
X158997295Y-70614458D01*
X158913518Y-70450036D01*
X158856493Y-70274532D01*
X158827625Y-70092268D01*
X158827625Y-69907732D01*
X158856493Y-69725468D01*
X158913518Y-69549964D01*
X158997295Y-69385542D01*
X159105763Y-69236249D01*
X159236249Y-69105763D01*
X159385542Y-68997295D01*
X159549964Y-68913518D01*
X159725468Y-68856493D01*
X159907732Y-68827625D01*
X160092268Y-68827625D01*
X160274532Y-68856493D01*
G37*
G36*
X54333512Y-67892857D02*
G01*
X54487518Y-67923491D01*
X54632589Y-67983581D01*
X54763149Y-68070819D01*
X54874181Y-68181851D01*
X54961419Y-68312411D01*
X55021509Y-68457482D01*
X55052143Y-68611488D01*
X55052143Y-68768512D01*
X55021509Y-68922518D01*
X54961419Y-69067589D01*
X54874181Y-69198149D01*
X54763149Y-69309181D01*
X54632589Y-69396419D01*
X54487518Y-69456509D01*
X54333512Y-69487143D01*
X54255000Y-69491000D01*
X54251941Y-69491000D01*
X53158059Y-69491000D01*
X53155000Y-69491000D01*
X53076488Y-69487143D01*
X52922482Y-69456509D01*
X52777411Y-69396419D01*
X52646851Y-69309181D01*
X52535819Y-69198149D01*
X52448581Y-69067589D01*
X52388491Y-68922518D01*
X52357857Y-68768512D01*
X52357857Y-68611488D01*
X52388491Y-68457482D01*
X52448581Y-68312411D01*
X52535819Y-68181851D01*
X52646851Y-68070819D01*
X52777411Y-67983581D01*
X52922482Y-67923491D01*
X53076488Y-67892857D01*
X53155000Y-67889000D01*
X54255000Y-67889000D01*
X54333512Y-67892857D01*
G37*
G36*
X62033512Y-67892857D02*
G01*
X62187518Y-67923491D01*
X62332589Y-67983581D01*
X62463149Y-68070819D01*
X62574181Y-68181851D01*
X62661419Y-68312411D01*
X62721509Y-68457482D01*
X62752143Y-68611488D01*
X62752143Y-68768512D01*
X62721509Y-68922518D01*
X62661419Y-69067589D01*
X62574181Y-69198149D01*
X62463149Y-69309181D01*
X62332589Y-69396419D01*
X62187518Y-69456509D01*
X62033512Y-69487143D01*
X61955000Y-69491000D01*
X61951941Y-69491000D01*
X60858059Y-69491000D01*
X60855000Y-69491000D01*
X60776488Y-69487143D01*
X60622482Y-69456509D01*
X60477411Y-69396419D01*
X60346851Y-69309181D01*
X60235819Y-69198149D01*
X60148581Y-69067589D01*
X60088491Y-68922518D01*
X60057857Y-68768512D01*
X60057857Y-68611488D01*
X60088491Y-68457482D01*
X60148581Y-68312411D01*
X60235819Y-68181851D01*
X60346851Y-68070819D01*
X60477411Y-67983581D01*
X60622482Y-67923491D01*
X60776488Y-67892857D01*
X60855000Y-67889000D01*
X61955000Y-67889000D01*
X62033512Y-67892857D01*
G37*
G36*
X94890140Y-60036983D02*
G01*
X94956573Y-60039593D01*
X94962557Y-60040540D01*
X94978662Y-60041332D01*
X95022079Y-60049968D01*
X95114474Y-60064602D01*
X95144188Y-60074257D01*
X95171603Y-60079710D01*
X95210291Y-60095735D01*
X95264177Y-60113244D01*
X95314662Y-60138967D01*
X95353349Y-60154992D01*
X95376588Y-60170520D01*
X95404426Y-60184704D01*
X95480092Y-60239679D01*
X95516916Y-60264284D01*
X95524775Y-60272143D01*
X95531768Y-60277224D01*
X95643077Y-60388533D01*
X95648157Y-60395525D01*
X95656018Y-60403386D01*
X95680625Y-60440213D01*
X95735597Y-60515875D01*
X95749779Y-60543710D01*
X95765310Y-60566953D01*
X95781336Y-60605645D01*
X95807057Y-60656124D01*
X95824563Y-60710003D01*
X95840592Y-60748699D01*
X95846046Y-60776118D01*
X95855699Y-60805827D01*
X95870330Y-60898204D01*
X95878970Y-60941640D01*
X95878970Y-60952753D01*
X95880323Y-60961296D01*
X95880323Y-61118703D01*
X95878970Y-61127245D01*
X95878970Y-61138360D01*
X95870329Y-61181799D01*
X95855699Y-61274172D01*
X95846046Y-61303878D01*
X95840592Y-61331301D01*
X95824562Y-61370000D01*
X95807057Y-61423875D01*
X95781339Y-61474349D01*
X95765310Y-61513047D01*
X95749777Y-61536292D01*
X95735597Y-61564124D01*
X95680633Y-61639773D01*
X95656018Y-61676614D01*
X95648154Y-61684477D01*
X95643077Y-61691466D01*
X95531768Y-61802775D01*
X95524779Y-61807852D01*
X95516916Y-61815716D01*
X95480075Y-61840331D01*
X95404426Y-61895295D01*
X95376594Y-61909475D01*
X95353349Y-61925008D01*
X95314651Y-61941037D01*
X95264177Y-61966755D01*
X95210302Y-61984260D01*
X95171603Y-62000290D01*
X95144180Y-62005744D01*
X95114474Y-62015397D01*
X95022103Y-62030026D01*
X94978662Y-62038668D01*
X94962548Y-62039459D01*
X94956573Y-62040406D01*
X94890156Y-62043015D01*
X94880302Y-62043500D01*
X94877837Y-62043500D01*
X94787767Y-62043500D01*
X94785302Y-62043500D01*
X94775448Y-62043015D01*
X94709030Y-62040406D01*
X94703054Y-62039459D01*
X94686942Y-62038668D01*
X94643504Y-62030027D01*
X94551129Y-62015397D01*
X94521420Y-62005744D01*
X94494001Y-62000290D01*
X94455305Y-61984261D01*
X94401426Y-61966755D01*
X94350947Y-61941034D01*
X94312255Y-61925008D01*
X94289012Y-61909477D01*
X94261177Y-61895295D01*
X94185515Y-61840323D01*
X94148688Y-61815716D01*
X94140827Y-61807855D01*
X94133835Y-61802775D01*
X94022526Y-61691466D01*
X94017445Y-61684473D01*
X94009586Y-61676614D01*
X93984981Y-61639790D01*
X93930006Y-61564124D01*
X93915822Y-61536286D01*
X93900294Y-61513047D01*
X93884269Y-61474360D01*
X93858546Y-61423875D01*
X93841037Y-61369989D01*
X93825012Y-61331301D01*
X93819559Y-61303886D01*
X93809904Y-61274172D01*
X93795272Y-61181789D01*
X93786634Y-61138360D01*
X93786634Y-61127245D01*
X93785281Y-61118703D01*
X93785281Y-60961296D01*
X93786634Y-60952753D01*
X93786634Y-60941640D01*
X93795271Y-60898214D01*
X93809904Y-60805827D01*
X93819559Y-60776110D01*
X93825012Y-60748699D01*
X93841035Y-60710014D01*
X93858546Y-60656124D01*
X93884271Y-60605634D01*
X93900294Y-60566953D01*
X93915820Y-60543716D01*
X93930006Y-60515875D01*
X93984989Y-60440196D01*
X94009586Y-60403386D01*
X94017443Y-60395528D01*
X94022526Y-60388533D01*
X94133835Y-60277224D01*
X94140830Y-60272141D01*
X94148688Y-60264284D01*
X94185498Y-60239687D01*
X94261177Y-60184704D01*
X94289018Y-60170518D01*
X94312255Y-60154992D01*
X94350936Y-60138969D01*
X94401426Y-60113244D01*
X94455316Y-60095733D01*
X94494001Y-60079710D01*
X94521412Y-60074257D01*
X94551129Y-60064602D01*
X94643528Y-60049967D01*
X94686942Y-60041332D01*
X94703044Y-60040540D01*
X94709030Y-60039593D01*
X94775464Y-60036983D01*
X94785302Y-60036500D01*
X94880302Y-60036500D01*
X94890140Y-60036983D01*
G37*
G36*
X61282966Y-58932238D02*
G01*
X61444163Y-58964302D01*
X61596007Y-59027198D01*
X61732663Y-59118509D01*
X61848880Y-59234726D01*
X61940191Y-59371382D01*
X62003087Y-59523226D01*
X62035151Y-59684423D01*
X62035151Y-59848779D01*
X62003087Y-60009976D01*
X61940191Y-60161820D01*
X61848880Y-60298476D01*
X61732663Y-60414693D01*
X61596007Y-60506004D01*
X61444163Y-60568900D01*
X61282966Y-60600964D01*
X61200788Y-60605001D01*
X61197729Y-60605001D01*
X59273447Y-60605001D01*
X59270388Y-60605001D01*
X59188210Y-60600964D01*
X59027013Y-60568900D01*
X58875169Y-60506004D01*
X58738513Y-60414693D01*
X58622296Y-60298476D01*
X58530985Y-60161820D01*
X58468089Y-60009976D01*
X58436025Y-59848779D01*
X58436025Y-59684423D01*
X58468089Y-59523226D01*
X58530985Y-59371382D01*
X58622296Y-59234726D01*
X58738513Y-59118509D01*
X58875169Y-59027198D01*
X59027013Y-58964302D01*
X59188210Y-58932238D01*
X59270388Y-58928201D01*
X61200788Y-58928201D01*
X61282966Y-58932238D01*
G37*
G36*
X78524358Y-56733606D02*
G01*
X78751912Y-56794579D01*
X78969562Y-56884732D01*
X79173582Y-57002523D01*
X79360482Y-57145937D01*
X79527063Y-57312518D01*
X79670477Y-57499418D01*
X79788268Y-57703438D01*
X79878421Y-57921088D01*
X79939394Y-58148642D01*
X79970144Y-58382209D01*
X79970144Y-58617791D01*
X79939394Y-58851358D01*
X79878421Y-59078912D01*
X79788268Y-59296562D01*
X79670477Y-59500582D01*
X79527063Y-59687482D01*
X79360482Y-59854063D01*
X79173582Y-59997477D01*
X78969562Y-60115268D01*
X78751912Y-60205421D01*
X78524358Y-60266394D01*
X78290791Y-60297144D01*
X78055209Y-60297144D01*
X77821642Y-60266394D01*
X77594088Y-60205421D01*
X77376438Y-60115268D01*
X77172418Y-59997477D01*
X76985518Y-59854063D01*
X76818937Y-59687482D01*
X76675523Y-59500582D01*
X76557732Y-59296562D01*
X76467579Y-59078912D01*
X76406606Y-58851358D01*
X76375856Y-58617791D01*
X76375856Y-58382209D01*
X76406606Y-58148642D01*
X76467579Y-57921088D01*
X76557732Y-57703438D01*
X76675523Y-57499418D01*
X76818937Y-57312518D01*
X76985518Y-57145937D01*
X77172418Y-57002523D01*
X77376438Y-56884732D01*
X77594088Y-56794579D01*
X77821642Y-56733606D01*
X78055209Y-56702856D01*
X78290791Y-56702856D01*
X78524358Y-56733606D01*
G37*
G36*
X111844160Y-56733606D02*
G01*
X112071714Y-56794579D01*
X112289364Y-56884732D01*
X112493384Y-57002523D01*
X112680284Y-57145937D01*
X112846865Y-57312518D01*
X112990279Y-57499418D01*
X113108070Y-57703438D01*
X113198223Y-57921088D01*
X113259196Y-58148642D01*
X113289946Y-58382209D01*
X113289946Y-58617791D01*
X113259196Y-58851358D01*
X113198223Y-59078912D01*
X113108070Y-59296562D01*
X112990279Y-59500582D01*
X112846865Y-59687482D01*
X112680284Y-59854063D01*
X112493384Y-59997477D01*
X112289364Y-60115268D01*
X112071714Y-60205421D01*
X111844160Y-60266394D01*
X111610593Y-60297144D01*
X111375011Y-60297144D01*
X111141444Y-60266394D01*
X110913890Y-60205421D01*
X110696240Y-60115268D01*
X110492220Y-59997477D01*
X110305320Y-59854063D01*
X110138739Y-59687482D01*
X109995325Y-59500582D01*
X109877534Y-59296562D01*
X109787381Y-59078912D01*
X109726408Y-58851358D01*
X109695658Y-58617791D01*
X109695658Y-58382209D01*
X109726408Y-58148642D01*
X109787381Y-57921088D01*
X109877534Y-57703438D01*
X109995325Y-57499418D01*
X110138739Y-57312518D01*
X110305320Y-57145937D01*
X110492220Y-57002523D01*
X110696240Y-56884732D01*
X110913890Y-56794579D01*
X111141444Y-56733606D01*
X111375011Y-56702856D01*
X111610593Y-56702856D01*
X111844160Y-56733606D01*
G37*
G36*
X94890140Y-57496983D02*
G01*
X94956573Y-57499593D01*
X94962557Y-57500540D01*
X94978662Y-57501332D01*
X95022079Y-57509968D01*
X95114474Y-57524602D01*
X95144188Y-57534257D01*
X95171603Y-57539710D01*
X95210291Y-57555735D01*
X95264177Y-57573244D01*
X95314662Y-57598967D01*
X95353349Y-57614992D01*
X95376588Y-57630520D01*
X95404426Y-57644704D01*
X95480092Y-57699679D01*
X95516916Y-57724284D01*
X95524775Y-57732143D01*
X95531768Y-57737224D01*
X95643077Y-57848533D01*
X95648157Y-57855525D01*
X95656018Y-57863386D01*
X95680625Y-57900213D01*
X95735597Y-57975875D01*
X95749779Y-58003710D01*
X95765310Y-58026953D01*
X95781336Y-58065645D01*
X95807057Y-58116124D01*
X95824563Y-58170003D01*
X95840592Y-58208699D01*
X95846046Y-58236118D01*
X95855699Y-58265827D01*
X95870330Y-58358204D01*
X95878970Y-58401640D01*
X95878970Y-58412753D01*
X95880323Y-58421296D01*
X95880323Y-58578703D01*
X95878970Y-58587245D01*
X95878970Y-58598360D01*
X95870329Y-58641799D01*
X95855699Y-58734172D01*
X95846046Y-58763878D01*
X95840592Y-58791301D01*
X95824562Y-58830000D01*
X95807057Y-58883875D01*
X95781339Y-58934349D01*
X95765310Y-58973047D01*
X95749777Y-58996292D01*
X95735597Y-59024124D01*
X95680633Y-59099773D01*
X95656018Y-59136614D01*
X95648154Y-59144477D01*
X95643077Y-59151466D01*
X95531768Y-59262775D01*
X95524779Y-59267852D01*
X95516916Y-59275716D01*
X95480075Y-59300331D01*
X95404426Y-59355295D01*
X95376594Y-59369475D01*
X95353349Y-59385008D01*
X95314651Y-59401037D01*
X95264177Y-59426755D01*
X95210302Y-59444260D01*
X95171603Y-59460290D01*
X95144180Y-59465744D01*
X95114474Y-59475397D01*
X95022103Y-59490026D01*
X94978662Y-59498668D01*
X94962548Y-59499459D01*
X94956573Y-59500406D01*
X94890156Y-59503015D01*
X94880302Y-59503500D01*
X94877837Y-59503500D01*
X94787767Y-59503500D01*
X94785302Y-59503500D01*
X94775448Y-59503015D01*
X94709030Y-59500406D01*
X94703054Y-59499459D01*
X94686942Y-59498668D01*
X94643504Y-59490027D01*
X94551129Y-59475397D01*
X94521420Y-59465744D01*
X94494001Y-59460290D01*
X94455305Y-59444261D01*
X94401426Y-59426755D01*
X94350947Y-59401034D01*
X94312255Y-59385008D01*
X94289012Y-59369477D01*
X94261177Y-59355295D01*
X94185515Y-59300323D01*
X94148688Y-59275716D01*
X94140827Y-59267855D01*
X94133835Y-59262775D01*
X94022526Y-59151466D01*
X94017445Y-59144473D01*
X94009586Y-59136614D01*
X93984981Y-59099790D01*
X93930006Y-59024124D01*
X93915822Y-58996286D01*
X93900294Y-58973047D01*
X93884269Y-58934360D01*
X93858546Y-58883875D01*
X93841037Y-58829989D01*
X93825012Y-58791301D01*
X93819559Y-58763886D01*
X93809904Y-58734172D01*
X93795272Y-58641789D01*
X93786634Y-58598360D01*
X93786634Y-58587245D01*
X93785281Y-58578703D01*
X93785281Y-58421296D01*
X93786634Y-58412753D01*
X93786634Y-58401640D01*
X93795271Y-58358214D01*
X93809904Y-58265827D01*
X93819559Y-58236110D01*
X93825012Y-58208699D01*
X93841035Y-58170014D01*
X93858546Y-58116124D01*
X93884271Y-58065634D01*
X93900294Y-58026953D01*
X93915820Y-58003716D01*
X93930006Y-57975875D01*
X93984989Y-57900196D01*
X94009586Y-57863386D01*
X94017443Y-57855528D01*
X94022526Y-57848533D01*
X94133835Y-57737224D01*
X94140830Y-57732141D01*
X94148688Y-57724284D01*
X94185498Y-57699687D01*
X94261177Y-57644704D01*
X94289018Y-57630518D01*
X94312255Y-57614992D01*
X94350936Y-57598969D01*
X94401426Y-57573244D01*
X94455316Y-57555733D01*
X94494001Y-57539710D01*
X94521412Y-57534257D01*
X94551129Y-57524602D01*
X94643528Y-57509967D01*
X94686942Y-57501332D01*
X94703044Y-57500540D01*
X94709030Y-57499593D01*
X94775464Y-57496983D01*
X94785302Y-57496500D01*
X94880302Y-57496500D01*
X94890140Y-57496983D01*
G37*
G36*
X95852319Y-54960382D02*
G01*
X95868864Y-54971438D01*
X95879920Y-54987983D01*
X95883802Y-55007500D01*
X95883802Y-56912500D01*
X95879920Y-56932017D01*
X95868864Y-56948562D01*
X95852319Y-56959618D01*
X95832802Y-56963500D01*
X93832802Y-56963500D01*
X93813285Y-56959618D01*
X93796740Y-56948562D01*
X93785684Y-56932017D01*
X93781802Y-56912500D01*
X93781802Y-55007500D01*
X93785684Y-54987983D01*
X93796740Y-54971438D01*
X93813285Y-54960382D01*
X93832802Y-54956500D01*
X95832802Y-54956500D01*
X95852319Y-54960382D01*
G37*
G36*
X57353965Y-53199101D02*
G01*
X57505809Y-53261997D01*
X57642465Y-53353308D01*
X57758682Y-53469525D01*
X57849993Y-53606181D01*
X57912889Y-53758025D01*
X57944953Y-53919222D01*
X57948990Y-54001400D01*
X57948990Y-55931800D01*
X57944953Y-56013978D01*
X57912889Y-56175175D01*
X57849993Y-56327019D01*
X57758682Y-56463675D01*
X57642465Y-56579892D01*
X57505809Y-56671203D01*
X57353965Y-56734099D01*
X57192768Y-56766163D01*
X57028412Y-56766163D01*
X56867215Y-56734099D01*
X56715371Y-56671203D01*
X56578715Y-56579892D01*
X56462498Y-56463675D01*
X56371187Y-56327019D01*
X56308291Y-56175175D01*
X56276227Y-56013978D01*
X56272190Y-55931800D01*
X56272190Y-54001400D01*
X56276227Y-53919222D01*
X56308291Y-53758025D01*
X56371187Y-53606181D01*
X56462498Y-53469525D01*
X56578715Y-53353308D01*
X56715371Y-53261997D01*
X56867215Y-53199101D01*
X57028412Y-53167037D01*
X57192768Y-53167037D01*
X57353965Y-53199101D01*
G37*
G36*
X63603965Y-53199101D02*
G01*
X63755809Y-53261997D01*
X63892465Y-53353308D01*
X64008682Y-53469525D01*
X64099993Y-53606181D01*
X64162889Y-53758025D01*
X64194953Y-53919222D01*
X64198990Y-54001400D01*
X64198990Y-55931800D01*
X64194953Y-56013978D01*
X64162889Y-56175175D01*
X64099993Y-56327019D01*
X64008682Y-56463675D01*
X63892465Y-56579892D01*
X63755809Y-56671203D01*
X63603965Y-56734099D01*
X63442768Y-56766163D01*
X63278412Y-56766163D01*
X63117215Y-56734099D01*
X62965371Y-56671203D01*
X62828715Y-56579892D01*
X62712498Y-56463675D01*
X62621187Y-56327019D01*
X62558291Y-56175175D01*
X62526227Y-56013978D01*
X62522190Y-55931800D01*
X62522190Y-54001400D01*
X62526227Y-53919222D01*
X62558291Y-53758025D01*
X62621187Y-53606181D01*
X62712498Y-53469525D01*
X62828715Y-53353308D01*
X62965371Y-53261997D01*
X63117215Y-53199101D01*
X63278412Y-53167037D01*
X63442768Y-53167037D01*
X63603965Y-53199101D01*
G37*
G36*
X128222518Y-48383491D02*
G01*
X128367589Y-48443581D01*
X128498149Y-48530819D01*
X128609181Y-48641851D01*
X128696419Y-48772411D01*
X128756509Y-48917482D01*
X128787143Y-49071488D01*
X128791000Y-49150000D01*
X128791000Y-50250000D01*
X128787143Y-50328512D01*
X128756509Y-50482518D01*
X128696419Y-50627589D01*
X128609181Y-50758149D01*
X128498149Y-50869181D01*
X128367589Y-50956419D01*
X128222518Y-51016509D01*
X128068512Y-51047143D01*
X127911488Y-51047143D01*
X127757482Y-51016509D01*
X127612411Y-50956419D01*
X127481851Y-50869181D01*
X127370819Y-50758149D01*
X127283581Y-50627589D01*
X127223491Y-50482518D01*
X127192857Y-50328512D01*
X127189000Y-50250000D01*
X127189000Y-49150000D01*
X127192857Y-49071488D01*
X127223491Y-48917482D01*
X127283581Y-48772411D01*
X127370819Y-48641851D01*
X127481851Y-48530819D01*
X127612411Y-48443581D01*
X127757482Y-48383491D01*
X127911488Y-48352857D01*
X128068512Y-48352857D01*
X128222518Y-48383491D01*
G37*
G36*
X130762518Y-48383491D02*
G01*
X130907589Y-48443581D01*
X131038149Y-48530819D01*
X131149181Y-48641851D01*
X131236419Y-48772411D01*
X131296509Y-48917482D01*
X131327143Y-49071488D01*
X131331000Y-49150000D01*
X131331000Y-50250000D01*
X131327143Y-50328512D01*
X131296509Y-50482518D01*
X131236419Y-50627589D01*
X131149181Y-50758149D01*
X131038149Y-50869181D01*
X130907589Y-50956419D01*
X130762518Y-51016509D01*
X130608512Y-51047143D01*
X130451488Y-51047143D01*
X130297482Y-51016509D01*
X130152411Y-50956419D01*
X130021851Y-50869181D01*
X129910819Y-50758149D01*
X129823581Y-50627589D01*
X129763491Y-50482518D01*
X129732857Y-50328512D01*
X129729000Y-50250000D01*
X129729000Y-49150000D01*
X129732857Y-49071488D01*
X129763491Y-48917482D01*
X129823581Y-48772411D01*
X129910819Y-48641851D01*
X130021851Y-48530819D01*
X130152411Y-48443581D01*
X130297482Y-48383491D01*
X130451488Y-48352857D01*
X130608512Y-48352857D01*
X130762518Y-48383491D01*
G37*
G36*
X133302518Y-48383491D02*
G01*
X133447589Y-48443581D01*
X133578149Y-48530819D01*
X133689181Y-48641851D01*
X133776419Y-48772411D01*
X133836509Y-48917482D01*
X133867143Y-49071488D01*
X133871000Y-49150000D01*
X133871000Y-50250000D01*
X133867143Y-50328512D01*
X133836509Y-50482518D01*
X133776419Y-50627589D01*
X133689181Y-50758149D01*
X133578149Y-50869181D01*
X133447589Y-50956419D01*
X133302518Y-51016509D01*
X133148512Y-51047143D01*
X132991488Y-51047143D01*
X132837482Y-51016509D01*
X132692411Y-50956419D01*
X132561851Y-50869181D01*
X132450819Y-50758149D01*
X132363581Y-50627589D01*
X132303491Y-50482518D01*
X132272857Y-50328512D01*
X132269000Y-50250000D01*
X132269000Y-49150000D01*
X132272857Y-49071488D01*
X132303491Y-48917482D01*
X132363581Y-48772411D01*
X132450819Y-48641851D01*
X132561851Y-48530819D01*
X132692411Y-48443581D01*
X132837482Y-48383491D01*
X132991488Y-48352857D01*
X133148512Y-48352857D01*
X133302518Y-48383491D01*
G37*
G36*
X135842518Y-48383491D02*
G01*
X135987589Y-48443581D01*
X136118149Y-48530819D01*
X136229181Y-48641851D01*
X136316419Y-48772411D01*
X136376509Y-48917482D01*
X136407143Y-49071488D01*
X136411000Y-49150000D01*
X136411000Y-50250000D01*
X136407143Y-50328512D01*
X136376509Y-50482518D01*
X136316419Y-50627589D01*
X136229181Y-50758149D01*
X136118149Y-50869181D01*
X135987589Y-50956419D01*
X135842518Y-51016509D01*
X135688512Y-51047143D01*
X135531488Y-51047143D01*
X135377482Y-51016509D01*
X135232411Y-50956419D01*
X135101851Y-50869181D01*
X134990819Y-50758149D01*
X134903581Y-50627589D01*
X134843491Y-50482518D01*
X134812857Y-50328512D01*
X134809000Y-50250000D01*
X134809000Y-49150000D01*
X134812857Y-49071488D01*
X134843491Y-48917482D01*
X134903581Y-48772411D01*
X134990819Y-48641851D01*
X135101851Y-48530819D01*
X135232411Y-48443581D01*
X135377482Y-48383491D01*
X135531488Y-48352857D01*
X135688512Y-48352857D01*
X135842518Y-48383491D01*
G37*
G36*
X138422518Y-48383491D02*
G01*
X138567589Y-48443581D01*
X138698149Y-48530819D01*
X138809181Y-48641851D01*
X138896419Y-48772411D01*
X138956509Y-48917482D01*
X138987143Y-49071488D01*
X138991000Y-49150000D01*
X138991000Y-50250000D01*
X138987143Y-50328512D01*
X138956509Y-50482518D01*
X138896419Y-50627589D01*
X138809181Y-50758149D01*
X138698149Y-50869181D01*
X138567589Y-50956419D01*
X138422518Y-51016509D01*
X138268512Y-51047143D01*
X138111488Y-51047143D01*
X137957482Y-51016509D01*
X137812411Y-50956419D01*
X137681851Y-50869181D01*
X137570819Y-50758149D01*
X137483581Y-50627589D01*
X137423491Y-50482518D01*
X137392857Y-50328512D01*
X137389000Y-50250000D01*
X137389000Y-49150000D01*
X137392857Y-49071488D01*
X137423491Y-48917482D01*
X137483581Y-48772411D01*
X137570819Y-48641851D01*
X137681851Y-48530819D01*
X137812411Y-48443581D01*
X137957482Y-48383491D01*
X138111488Y-48352857D01*
X138268512Y-48352857D01*
X138422518Y-48383491D01*
G37*
G36*
X140962518Y-48383491D02*
G01*
X141107589Y-48443581D01*
X141238149Y-48530819D01*
X141349181Y-48641851D01*
X141436419Y-48772411D01*
X141496509Y-48917482D01*
X141527143Y-49071488D01*
X141531000Y-49150000D01*
X141531000Y-50250000D01*
X141527143Y-50328512D01*
X141496509Y-50482518D01*
X141436419Y-50627589D01*
X141349181Y-50758149D01*
X141238149Y-50869181D01*
X141107589Y-50956419D01*
X140962518Y-51016509D01*
X140808512Y-51047143D01*
X140651488Y-51047143D01*
X140497482Y-51016509D01*
X140352411Y-50956419D01*
X140221851Y-50869181D01*
X140110819Y-50758149D01*
X140023581Y-50627589D01*
X139963491Y-50482518D01*
X139932857Y-50328512D01*
X139929000Y-50250000D01*
X139929000Y-49150000D01*
X139932857Y-49071488D01*
X139963491Y-48917482D01*
X140023581Y-48772411D01*
X140110819Y-48641851D01*
X140221851Y-48530819D01*
X140352411Y-48443581D01*
X140497482Y-48383491D01*
X140651488Y-48352857D01*
X140808512Y-48352857D01*
X140962518Y-48383491D01*
G37*
G36*
X143502518Y-48383491D02*
G01*
X143647589Y-48443581D01*
X143778149Y-48530819D01*
X143889181Y-48641851D01*
X143976419Y-48772411D01*
X144036509Y-48917482D01*
X144067143Y-49071488D01*
X144071000Y-49150000D01*
X144071000Y-50250000D01*
X144067143Y-50328512D01*
X144036509Y-50482518D01*
X143976419Y-50627589D01*
X143889181Y-50758149D01*
X143778149Y-50869181D01*
X143647589Y-50956419D01*
X143502518Y-51016509D01*
X143348512Y-51047143D01*
X143191488Y-51047143D01*
X143037482Y-51016509D01*
X142892411Y-50956419D01*
X142761851Y-50869181D01*
X142650819Y-50758149D01*
X142563581Y-50627589D01*
X142503491Y-50482518D01*
X142472857Y-50328512D01*
X142469000Y-50250000D01*
X142469000Y-49150000D01*
X142472857Y-49071488D01*
X142503491Y-48917482D01*
X142563581Y-48772411D01*
X142650819Y-48641851D01*
X142761851Y-48530819D01*
X142892411Y-48443581D01*
X143037482Y-48383491D01*
X143191488Y-48352857D01*
X143348512Y-48352857D01*
X143502518Y-48383491D01*
G37*
G36*
X146042518Y-48383491D02*
G01*
X146187589Y-48443581D01*
X146318149Y-48530819D01*
X146429181Y-48641851D01*
X146516419Y-48772411D01*
X146576509Y-48917482D01*
X146607143Y-49071488D01*
X146611000Y-49150000D01*
X146611000Y-50250000D01*
X146607143Y-50328512D01*
X146576509Y-50482518D01*
X146516419Y-50627589D01*
X146429181Y-50758149D01*
X146318149Y-50869181D01*
X146187589Y-50956419D01*
X146042518Y-51016509D01*
X145888512Y-51047143D01*
X145731488Y-51047143D01*
X145577482Y-51016509D01*
X145432411Y-50956419D01*
X145301851Y-50869181D01*
X145190819Y-50758149D01*
X145103581Y-50627589D01*
X145043491Y-50482518D01*
X145012857Y-50328512D01*
X145009000Y-50250000D01*
X145009000Y-49150000D01*
X145012857Y-49071488D01*
X145043491Y-48917482D01*
X145103581Y-48772411D01*
X145190819Y-48641851D01*
X145301851Y-48530819D01*
X145432411Y-48443581D01*
X145577482Y-48383491D01*
X145731488Y-48352857D01*
X145888512Y-48352857D01*
X146042518Y-48383491D01*
G37*
G36*
X148622518Y-48383491D02*
G01*
X148767589Y-48443581D01*
X148898149Y-48530819D01*
X149009181Y-48641851D01*
X149096419Y-48772411D01*
X149156509Y-48917482D01*
X149187143Y-49071488D01*
X149191000Y-49150000D01*
X149191000Y-50250000D01*
X149187143Y-50328512D01*
X149156509Y-50482518D01*
X149096419Y-50627589D01*
X149009181Y-50758149D01*
X148898149Y-50869181D01*
X148767589Y-50956419D01*
X148622518Y-51016509D01*
X148468512Y-51047143D01*
X148311488Y-51047143D01*
X148157482Y-51016509D01*
X148012411Y-50956419D01*
X147881851Y-50869181D01*
X147770819Y-50758149D01*
X147683581Y-50627589D01*
X147623491Y-50482518D01*
X147592857Y-50328512D01*
X147589000Y-50250000D01*
X147589000Y-49150000D01*
X147592857Y-49071488D01*
X147623491Y-48917482D01*
X147683581Y-48772411D01*
X147770819Y-48641851D01*
X147881851Y-48530819D01*
X148012411Y-48443581D01*
X148157482Y-48383491D01*
X148311488Y-48352857D01*
X148468512Y-48352857D01*
X148622518Y-48383491D01*
G37*
G36*
X151162518Y-48383491D02*
G01*
X151307589Y-48443581D01*
X151438149Y-48530819D01*
X151549181Y-48641851D01*
X151636419Y-48772411D01*
X151696509Y-48917482D01*
X151727143Y-49071488D01*
X151731000Y-49150000D01*
X151731000Y-50250000D01*
X151727143Y-50328512D01*
X151696509Y-50482518D01*
X151636419Y-50627589D01*
X151549181Y-50758149D01*
X151438149Y-50869181D01*
X151307589Y-50956419D01*
X151162518Y-51016509D01*
X151008512Y-51047143D01*
X150851488Y-51047143D01*
X150697482Y-51016509D01*
X150552411Y-50956419D01*
X150421851Y-50869181D01*
X150310819Y-50758149D01*
X150223581Y-50627589D01*
X150163491Y-50482518D01*
X150132857Y-50328512D01*
X150129000Y-50250000D01*
X150129000Y-49150000D01*
X150132857Y-49071488D01*
X150163491Y-48917482D01*
X150223581Y-48772411D01*
X150310819Y-48641851D01*
X150421851Y-48530819D01*
X150552411Y-48443581D01*
X150697482Y-48383491D01*
X150851488Y-48352857D01*
X151008512Y-48352857D01*
X151162518Y-48383491D01*
G37*
G36*
X153702518Y-48383491D02*
G01*
X153847589Y-48443581D01*
X153978149Y-48530819D01*
X154089181Y-48641851D01*
X154176419Y-48772411D01*
X154236509Y-48917482D01*
X154267143Y-49071488D01*
X154271000Y-49150000D01*
X154271000Y-50250000D01*
X154267143Y-50328512D01*
X154236509Y-50482518D01*
X154176419Y-50627589D01*
X154089181Y-50758149D01*
X153978149Y-50869181D01*
X153847589Y-50956419D01*
X153702518Y-51016509D01*
X153548512Y-51047143D01*
X153391488Y-51047143D01*
X153237482Y-51016509D01*
X153092411Y-50956419D01*
X152961851Y-50869181D01*
X152850819Y-50758149D01*
X152763581Y-50627589D01*
X152703491Y-50482518D01*
X152672857Y-50328512D01*
X152669000Y-50250000D01*
X152669000Y-49150000D01*
X152672857Y-49071488D01*
X152703491Y-48917482D01*
X152763581Y-48772411D01*
X152850819Y-48641851D01*
X152961851Y-48530819D01*
X153092411Y-48443581D01*
X153237482Y-48383491D01*
X153391488Y-48352857D01*
X153548512Y-48352857D01*
X153702518Y-48383491D01*
G37*
G36*
X156242518Y-48383491D02*
G01*
X156387589Y-48443581D01*
X156518149Y-48530819D01*
X156629181Y-48641851D01*
X156716419Y-48772411D01*
X156776509Y-48917482D01*
X156807143Y-49071488D01*
X156811000Y-49150000D01*
X156811000Y-50250000D01*
X156807143Y-50328512D01*
X156776509Y-50482518D01*
X156716419Y-50627589D01*
X156629181Y-50758149D01*
X156518149Y-50869181D01*
X156387589Y-50956419D01*
X156242518Y-51016509D01*
X156088512Y-51047143D01*
X155931488Y-51047143D01*
X155777482Y-51016509D01*
X155632411Y-50956419D01*
X155501851Y-50869181D01*
X155390819Y-50758149D01*
X155303581Y-50627589D01*
X155243491Y-50482518D01*
X155212857Y-50328512D01*
X155209000Y-50250000D01*
X155209000Y-49150000D01*
X155212857Y-49071488D01*
X155243491Y-48917482D01*
X155303581Y-48772411D01*
X155390819Y-48641851D01*
X155501851Y-48530819D01*
X155632411Y-48443581D01*
X155777482Y-48383491D01*
X155931488Y-48352857D01*
X156088512Y-48352857D01*
X156242518Y-48383491D01*
G37*
G36*
X56617730Y-42854089D02*
G01*
X56629536Y-42854089D01*
X56687663Y-42863295D01*
X56822042Y-42880986D01*
X56854837Y-42889773D01*
X56885418Y-42894617D01*
X56944229Y-42913726D01*
X57030611Y-42936872D01*
X57085724Y-42959700D01*
X57131810Y-42974675D01*
X57174987Y-42996674D01*
X57230099Y-43019503D01*
X57307539Y-43064213D01*
X57362645Y-43092291D01*
X57387697Y-43110492D01*
X57417096Y-43127466D01*
X57524651Y-43209995D01*
X57572239Y-43244570D01*
X57580579Y-43252910D01*
X57588401Y-43258912D01*
X57741087Y-43411598D01*
X57747088Y-43419419D01*
X57755430Y-43427761D01*
X57790008Y-43475354D01*
X57872533Y-43582903D01*
X57889505Y-43612299D01*
X57907709Y-43637355D01*
X57935789Y-43692466D01*
X57980496Y-43769900D01*
X58003321Y-43825006D01*
X58025325Y-43868190D01*
X58040301Y-43914282D01*
X58063127Y-43969388D01*
X58086269Y-44055757D01*
X58105383Y-44114582D01*
X58110227Y-44145169D01*
X58119013Y-44177957D01*
X58136703Y-44312327D01*
X58145911Y-44370464D01*
X58145911Y-44382269D01*
X58147197Y-44392038D01*
X58147197Y-44607961D01*
X58145911Y-44617729D01*
X58145911Y-44629536D01*
X58136702Y-44687677D01*
X58119013Y-44822042D01*
X58110228Y-44854827D01*
X58105383Y-44885418D01*
X58086268Y-44944246D01*
X58063127Y-45030611D01*
X58040302Y-45085713D01*
X58025325Y-45131810D01*
X58003319Y-45174997D01*
X57980496Y-45230099D01*
X57935793Y-45307525D01*
X57907709Y-45362645D01*
X57889502Y-45387704D01*
X57872533Y-45417096D01*
X57790022Y-45524627D01*
X57755430Y-45572239D01*
X57747085Y-45580583D01*
X57741087Y-45588401D01*
X57588401Y-45741087D01*
X57580583Y-45747085D01*
X57572239Y-45755430D01*
X57524627Y-45790022D01*
X57417096Y-45872533D01*
X57387704Y-45889502D01*
X57362645Y-45907709D01*
X57307525Y-45935793D01*
X57230099Y-45980496D01*
X57174997Y-46003319D01*
X57131810Y-46025325D01*
X57085713Y-46040302D01*
X57030611Y-46063127D01*
X56944246Y-46086268D01*
X56885418Y-46105383D01*
X56854827Y-46110228D01*
X56822042Y-46119013D01*
X56687677Y-46136702D01*
X56629536Y-46145911D01*
X56617729Y-46145911D01*
X56607961Y-46147197D01*
X56392039Y-46147197D01*
X56382271Y-46145911D01*
X56370464Y-46145911D01*
X56312324Y-46136702D01*
X56177957Y-46119013D01*
X56145169Y-46110227D01*
X56114582Y-46105383D01*
X56055757Y-46086269D01*
X55969388Y-46063127D01*
X55914282Y-46040301D01*
X55868190Y-46025325D01*
X55825006Y-46003321D01*
X55769900Y-45980496D01*
X55692466Y-45935789D01*
X55637355Y-45907709D01*
X55612299Y-45889505D01*
X55582903Y-45872533D01*
X55475354Y-45790008D01*
X55427761Y-45755430D01*
X55419419Y-45747088D01*
X55411598Y-45741087D01*
X55258912Y-45588401D01*
X55252910Y-45580579D01*
X55244570Y-45572239D01*
X55209995Y-45524651D01*
X55127466Y-45417096D01*
X55110492Y-45387697D01*
X55092291Y-45362645D01*
X55064213Y-45307539D01*
X55019503Y-45230099D01*
X54996674Y-45174987D01*
X54974675Y-45131810D01*
X54959700Y-45085724D01*
X54936872Y-45030611D01*
X54913726Y-44944229D01*
X54894617Y-44885418D01*
X54889773Y-44854837D01*
X54880986Y-44822042D01*
X54863295Y-44687663D01*
X54854089Y-44629536D01*
X54854089Y-44617729D01*
X54852803Y-44607961D01*
X54852803Y-44392038D01*
X54854089Y-44382269D01*
X54854089Y-44370464D01*
X54863294Y-44312341D01*
X54880986Y-44177957D01*
X54889773Y-44145160D01*
X54894617Y-44114582D01*
X54913724Y-44055775D01*
X54936872Y-43969388D01*
X54959702Y-43914271D01*
X54974675Y-43868190D01*
X54996672Y-43825016D01*
X55019503Y-43769900D01*
X55064217Y-43692451D01*
X55092291Y-43637355D01*
X55110489Y-43612306D01*
X55127466Y-43582903D01*
X55210009Y-43475329D01*
X55244570Y-43427761D01*
X55252906Y-43419424D01*
X55258912Y-43411598D01*
X55411598Y-43258912D01*
X55419424Y-43252906D01*
X55427761Y-43244570D01*
X55475329Y-43210009D01*
X55582903Y-43127466D01*
X55612306Y-43110489D01*
X55637355Y-43092291D01*
X55692451Y-43064217D01*
X55769900Y-43019503D01*
X55825016Y-42996672D01*
X55868190Y-42974675D01*
X55914271Y-42959702D01*
X55969388Y-42936872D01*
X56055775Y-42913724D01*
X56114582Y-42894617D01*
X56145160Y-42889773D01*
X56177957Y-42880986D01*
X56312338Y-42863295D01*
X56370464Y-42854089D01*
X56382270Y-42854089D01*
X56392039Y-42852803D01*
X56607961Y-42852803D01*
X56617730Y-42854089D01*
G37*
G36*
X166117730Y-42854089D02*
G01*
X166129536Y-42854089D01*
X166187663Y-42863295D01*
X166322042Y-42880986D01*
X166354837Y-42889773D01*
X166385418Y-42894617D01*
X166444229Y-42913726D01*
X166530611Y-42936872D01*
X166585724Y-42959700D01*
X166631810Y-42974675D01*
X166674987Y-42996674D01*
X166730099Y-43019503D01*
X166807539Y-43064213D01*
X166862645Y-43092291D01*
X166887697Y-43110492D01*
X166917096Y-43127466D01*
X167024651Y-43209995D01*
X167072239Y-43244570D01*
X167080579Y-43252910D01*
X167088401Y-43258912D01*
X167241087Y-43411598D01*
X167247088Y-43419419D01*
X167255430Y-43427761D01*
X167290008Y-43475354D01*
X167372533Y-43582903D01*
X167389505Y-43612299D01*
X167407709Y-43637355D01*
X167435789Y-43692466D01*
X167480496Y-43769900D01*
X167503321Y-43825006D01*
X167525325Y-43868190D01*
X167540301Y-43914282D01*
X167563127Y-43969388D01*
X167586269Y-44055757D01*
X167605383Y-44114582D01*
X167610227Y-44145169D01*
X167619013Y-44177957D01*
X167636703Y-44312327D01*
X167645911Y-44370464D01*
X167645911Y-44382269D01*
X167647197Y-44392038D01*
X167647197Y-44607961D01*
X167645911Y-44617729D01*
X167645911Y-44629536D01*
X167636702Y-44687677D01*
X167619013Y-44822042D01*
X167610228Y-44854827D01*
X167605383Y-44885418D01*
X167586268Y-44944246D01*
X167563127Y-45030611D01*
X167540302Y-45085713D01*
X167525325Y-45131810D01*
X167503319Y-45174997D01*
X167480496Y-45230099D01*
X167435793Y-45307525D01*
X167407709Y-45362645D01*
X167389502Y-45387704D01*
X167372533Y-45417096D01*
X167290022Y-45524627D01*
X167255430Y-45572239D01*
X167247085Y-45580583D01*
X167241087Y-45588401D01*
X167088401Y-45741087D01*
X167080583Y-45747085D01*
X167072239Y-45755430D01*
X167024627Y-45790022D01*
X166917096Y-45872533D01*
X166887704Y-45889502D01*
X166862645Y-45907709D01*
X166807525Y-45935793D01*
X166730099Y-45980496D01*
X166674997Y-46003319D01*
X166631810Y-46025325D01*
X166585713Y-46040302D01*
X166530611Y-46063127D01*
X166444246Y-46086268D01*
X166385418Y-46105383D01*
X166354827Y-46110228D01*
X166322042Y-46119013D01*
X166187677Y-46136702D01*
X166129536Y-46145911D01*
X166117729Y-46145911D01*
X166107961Y-46147197D01*
X165892039Y-46147197D01*
X165882271Y-46145911D01*
X165870464Y-46145911D01*
X165812324Y-46136702D01*
X165677957Y-46119013D01*
X165645169Y-46110227D01*
X165614582Y-46105383D01*
X165555757Y-46086269D01*
X165469388Y-46063127D01*
X165414282Y-46040301D01*
X165368190Y-46025325D01*
X165325006Y-46003321D01*
X165269900Y-45980496D01*
X165192466Y-45935789D01*
X165137355Y-45907709D01*
X165112299Y-45889505D01*
X165082903Y-45872533D01*
X164975354Y-45790008D01*
X164927761Y-45755430D01*
X164919419Y-45747088D01*
X164911598Y-45741087D01*
X164758912Y-45588401D01*
X164752910Y-45580579D01*
X164744570Y-45572239D01*
X164709995Y-45524651D01*
X164627466Y-45417096D01*
X164610492Y-45387697D01*
X164592291Y-45362645D01*
X164564213Y-45307539D01*
X164519503Y-45230099D01*
X164496674Y-45174987D01*
X164474675Y-45131810D01*
X164459700Y-45085724D01*
X164436872Y-45030611D01*
X164413726Y-44944229D01*
X164394617Y-44885418D01*
X164389773Y-44854837D01*
X164380986Y-44822042D01*
X164363295Y-44687663D01*
X164354089Y-44629536D01*
X164354089Y-44617729D01*
X164352803Y-44607961D01*
X164352803Y-44392038D01*
X164354089Y-44382269D01*
X164354089Y-44370464D01*
X164363294Y-44312341D01*
X164380986Y-44177957D01*
X164389773Y-44145160D01*
X164394617Y-44114582D01*
X164413724Y-44055775D01*
X164436872Y-43969388D01*
X164459702Y-43914271D01*
X164474675Y-43868190D01*
X164496672Y-43825016D01*
X164519503Y-43769900D01*
X164564217Y-43692451D01*
X164592291Y-43637355D01*
X164610489Y-43612306D01*
X164627466Y-43582903D01*
X164710009Y-43475329D01*
X164744570Y-43427761D01*
X164752906Y-43419424D01*
X164758912Y-43411598D01*
X164911598Y-43258912D01*
X164919424Y-43252906D01*
X164927761Y-43244570D01*
X164975329Y-43210009D01*
X165082903Y-43127466D01*
X165112306Y-43110489D01*
X165137355Y-43092291D01*
X165192451Y-43064217D01*
X165269900Y-43019503D01*
X165325016Y-42996672D01*
X165368190Y-42974675D01*
X165414271Y-42959702D01*
X165469388Y-42936872D01*
X165555775Y-42913724D01*
X165614582Y-42894617D01*
X165645160Y-42889773D01*
X165677957Y-42880986D01*
X165812338Y-42863295D01*
X165870464Y-42854089D01*
X165882270Y-42854089D01*
X165892039Y-42852803D01*
X166107961Y-42852803D01*
X166117730Y-42854089D01*
G37*
G36*
X128222518Y-40683491D02*
G01*
X128367589Y-40743581D01*
X128498149Y-40830819D01*
X128609181Y-40941851D01*
X128696419Y-41072411D01*
X128756509Y-41217482D01*
X128787143Y-41371488D01*
X128791000Y-41450000D01*
X128791000Y-42550000D01*
X128787143Y-42628512D01*
X128756509Y-42782518D01*
X128696419Y-42927589D01*
X128609181Y-43058149D01*
X128498149Y-43169181D01*
X128367589Y-43256419D01*
X128222518Y-43316509D01*
X128068512Y-43347143D01*
X127911488Y-43347143D01*
X127757482Y-43316509D01*
X127612411Y-43256419D01*
X127481851Y-43169181D01*
X127370819Y-43058149D01*
X127283581Y-42927589D01*
X127223491Y-42782518D01*
X127192857Y-42628512D01*
X127189000Y-42550000D01*
X127189000Y-41450000D01*
X127192857Y-41371488D01*
X127223491Y-41217482D01*
X127283581Y-41072411D01*
X127370819Y-40941851D01*
X127481851Y-40830819D01*
X127612411Y-40743581D01*
X127757482Y-40683491D01*
X127911488Y-40652857D01*
X128068512Y-40652857D01*
X128222518Y-40683491D01*
G37*
G36*
X135842518Y-40683491D02*
G01*
X135987589Y-40743581D01*
X136118149Y-40830819D01*
X136229181Y-40941851D01*
X136316419Y-41072411D01*
X136376509Y-41217482D01*
X136407143Y-41371488D01*
X136411000Y-41450000D01*
X136411000Y-42550000D01*
X136407143Y-42628512D01*
X136376509Y-42782518D01*
X136316419Y-42927589D01*
X136229181Y-43058149D01*
X136118149Y-43169181D01*
X135987589Y-43256419D01*
X135842518Y-43316509D01*
X135688512Y-43347143D01*
X135531488Y-43347143D01*
X135377482Y-43316509D01*
X135232411Y-43256419D01*
X135101851Y-43169181D01*
X134990819Y-43058149D01*
X134903581Y-42927589D01*
X134843491Y-42782518D01*
X134812857Y-42628512D01*
X134809000Y-42550000D01*
X134809000Y-41450000D01*
X134812857Y-41371488D01*
X134843491Y-41217482D01*
X134903581Y-41072411D01*
X134990819Y-40941851D01*
X135101851Y-40830819D01*
X135232411Y-40743581D01*
X135377482Y-40683491D01*
X135531488Y-40652857D01*
X135688512Y-40652857D01*
X135842518Y-40683491D01*
G37*
G36*
X138422518Y-40683491D02*
G01*
X138567589Y-40743581D01*
X138698149Y-40830819D01*
X138809181Y-40941851D01*
X138896419Y-41072411D01*
X138956509Y-41217482D01*
X138987143Y-41371488D01*
X138991000Y-41450000D01*
X138991000Y-42550000D01*
X138987143Y-42628512D01*
X138956509Y-42782518D01*
X138896419Y-42927589D01*
X138809181Y-43058149D01*
X138698149Y-43169181D01*
X138567589Y-43256419D01*
X138422518Y-43316509D01*
X138268512Y-43347143D01*
X138111488Y-43347143D01*
X137957482Y-43316509D01*
X137812411Y-43256419D01*
X137681851Y-43169181D01*
X137570819Y-43058149D01*
X137483581Y-42927589D01*
X137423491Y-42782518D01*
X137392857Y-42628512D01*
X137389000Y-42550000D01*
X137389000Y-41450000D01*
X137392857Y-41371488D01*
X137423491Y-41217482D01*
X137483581Y-41072411D01*
X137570819Y-40941851D01*
X137681851Y-40830819D01*
X137812411Y-40743581D01*
X137957482Y-40683491D01*
X138111488Y-40652857D01*
X138268512Y-40652857D01*
X138422518Y-40683491D01*
G37*
G36*
X146042518Y-40683491D02*
G01*
X146187589Y-40743581D01*
X146318149Y-40830819D01*
X146429181Y-40941851D01*
X146516419Y-41072411D01*
X146576509Y-41217482D01*
X146607143Y-41371488D01*
X146611000Y-41450000D01*
X146611000Y-42550000D01*
X146607143Y-42628512D01*
X146576509Y-42782518D01*
X146516419Y-42927589D01*
X146429181Y-43058149D01*
X146318149Y-43169181D01*
X146187589Y-43256419D01*
X146042518Y-43316509D01*
X145888512Y-43347143D01*
X145731488Y-43347143D01*
X145577482Y-43316509D01*
X145432411Y-43256419D01*
X145301851Y-43169181D01*
X145190819Y-43058149D01*
X145103581Y-42927589D01*
X145043491Y-42782518D01*
X145012857Y-42628512D01*
X145009000Y-42550000D01*
X145009000Y-41450000D01*
X145012857Y-41371488D01*
X145043491Y-41217482D01*
X145103581Y-41072411D01*
X145190819Y-40941851D01*
X145301851Y-40830819D01*
X145432411Y-40743581D01*
X145577482Y-40683491D01*
X145731488Y-40652857D01*
X145888512Y-40652857D01*
X146042518Y-40683491D01*
G37*
G36*
X148622518Y-40683491D02*
G01*
X148767589Y-40743581D01*
X148898149Y-40830819D01*
X149009181Y-40941851D01*
X149096419Y-41072411D01*
X149156509Y-41217482D01*
X149187143Y-41371488D01*
X149191000Y-41450000D01*
X149191000Y-42550000D01*
X149187143Y-42628512D01*
X149156509Y-42782518D01*
X149096419Y-42927589D01*
X149009181Y-43058149D01*
X148898149Y-43169181D01*
X148767589Y-43256419D01*
X148622518Y-43316509D01*
X148468512Y-43347143D01*
X148311488Y-43347143D01*
X148157482Y-43316509D01*
X148012411Y-43256419D01*
X147881851Y-43169181D01*
X147770819Y-43058149D01*
X147683581Y-42927589D01*
X147623491Y-42782518D01*
X147592857Y-42628512D01*
X147589000Y-42550000D01*
X147589000Y-41450000D01*
X147592857Y-41371488D01*
X147623491Y-41217482D01*
X147683581Y-41072411D01*
X147770819Y-40941851D01*
X147881851Y-40830819D01*
X148012411Y-40743581D01*
X148157482Y-40683491D01*
X148311488Y-40652857D01*
X148468512Y-40652857D01*
X148622518Y-40683491D01*
G37*
G36*
X156242518Y-40683491D02*
G01*
X156387589Y-40743581D01*
X156518149Y-40830819D01*
X156629181Y-40941851D01*
X156716419Y-41072411D01*
X156776509Y-41217482D01*
X156807143Y-41371488D01*
X156811000Y-41450000D01*
X156811000Y-42550000D01*
X156807143Y-42628512D01*
X156776509Y-42782518D01*
X156716419Y-42927589D01*
X156629181Y-43058149D01*
X156518149Y-43169181D01*
X156387589Y-43256419D01*
X156242518Y-43316509D01*
X156088512Y-43347143D01*
X155931488Y-43347143D01*
X155777482Y-43316509D01*
X155632411Y-43256419D01*
X155501851Y-43169181D01*
X155390819Y-43058149D01*
X155303581Y-42927589D01*
X155243491Y-42782518D01*
X155212857Y-42628512D01*
X155209000Y-42550000D01*
X155209000Y-41450000D01*
X155212857Y-41371488D01*
X155243491Y-41217482D01*
X155303581Y-41072411D01*
X155390819Y-40941851D01*
X155501851Y-40830819D01*
X155632411Y-40743581D01*
X155777482Y-40683491D01*
X155931488Y-40652857D01*
X156088512Y-40652857D01*
X156242518Y-40683491D01*
G37*
M02*
