G04 #@! TF.GenerationSoftware,KiCad,Pcbnew,(6.0.0)*
G04 #@! TF.CreationDate,2022-01-21T17:49:38-05:00*
G04 #@! TF.ProjectId,serial_interface,73657269-616c-45f6-996e-746572666163,D1*
G04 #@! TF.SameCoordinates,Original*
G04 #@! TF.FileFunction,Soldermask,Bot*
G04 #@! TF.FilePolarity,Negative*
%FSLAX45Y45*%
G04 Gerber Fmt 4.5, Leading zero omitted, Abs format (unit mm)*
G04 Created by KiCad (PCBNEW (6.0.0)) date 2022-01-21 17:49:38*
%MOMM*%
%LPD*%
G01*
G04 APERTURE LIST*
G04 Aperture macros list*
%AMRoundRect*
0 Rectangle with rounded corners*
0 $1 Rounding radius*
0 $2 $3 $4 $5 $6 $7 $8 $9 X,Y pos of 4 corners*
0 Add a 4 corners polygon primitive as box body*
4,1,4,$2,$3,$4,$5,$6,$7,$8,$9,$2,$3,0*
0 Add four circle primitives for the rounded corners*
1,1,$1+$1,$2,$3*
1,1,$1+$1,$4,$5*
1,1,$1+$1,$6,$7*
1,1,$1+$1,$8,$9*
0 Add four rect primitives between the rounded corners*
20,1,$1+$1,$2,$3,$4,$5,0*
20,1,$1+$1,$4,$5,$6,$7,0*
20,1,$1+$1,$6,$7,$8,$9,0*
20,1,$1+$1,$8,$9,$2,$3,0*%
G04 Aperture macros list end*
%ADD10R,0.650000X1.220000*%
%ADD11R,1.220000X0.650000*%
%ADD12R,1.060000X0.650000*%
%ADD13C,1.900000*%
%ADD14RoundRect,0.250000X0.262500X0.450000X-0.262500X0.450000X-0.262500X-0.450000X0.262500X-0.450000X0*%
%ADD15RoundRect,0.250000X0.450000X-0.262500X0.450000X0.262500X-0.450000X0.262500X-0.450000X-0.262500X0*%
%ADD16RoundRect,0.250000X-0.262500X-0.450000X0.262500X-0.450000X0.262500X0.450000X-0.262500X0.450000X0*%
%ADD17RoundRect,0.250000X-0.450000X0.262500X-0.450000X-0.262500X0.450000X-0.262500X0.450000X0.262500X0*%
%ADD18O,2.600000X1.500000*%
%ADD19C,3.200000*%
%ADD20RoundRect,0.225000X-0.250000X0.225000X-0.250000X-0.225000X0.250000X-0.225000X0.250000X0.225000X0*%
%ADD21RoundRect,0.225000X0.225000X0.250000X-0.225000X0.250000X-0.225000X-0.250000X0.225000X-0.250000X0*%
%ADD22RoundRect,0.225000X0.250000X-0.225000X0.250000X0.225000X-0.250000X0.225000X-0.250000X-0.225000X0*%
%ADD23RoundRect,0.225000X-0.225000X-0.250000X0.225000X-0.250000X0.225000X0.250000X-0.225000X0.250000X0*%
G04 APERTURE END LIST*
D10*
X14895000Y-9794000D03*
X14800000Y-9794000D03*
X14705000Y-9794000D03*
X14705000Y-10056000D03*
X14800000Y-10056000D03*
X14895000Y-10056000D03*
D11*
X15569000Y-12205000D03*
X15569000Y-12300000D03*
X15569000Y-12395000D03*
X15831000Y-12395000D03*
X15831000Y-12300000D03*
X15831000Y-12205000D03*
D12*
X15165000Y-10535000D03*
X15165000Y-10440000D03*
X15165000Y-10345000D03*
X15385000Y-10345000D03*
X15385000Y-10535000D03*
X15560000Y-11080000D03*
X15560000Y-11175000D03*
X15560000Y-11270000D03*
X15340000Y-11270000D03*
X15340000Y-11080000D03*
D13*
X11613000Y-10810000D03*
X11867000Y-10810000D03*
X12121000Y-10810000D03*
X12375000Y-10810000D03*
X12121000Y-10556000D03*
X12375000Y-10556000D03*
X12121000Y-10302000D03*
X12375000Y-10302000D03*
X12375000Y-10048000D03*
X12121000Y-10048000D03*
X12375000Y-9794000D03*
X12121000Y-9794000D03*
X12375000Y-9540000D03*
X12121000Y-9540000D03*
X11867000Y-9540000D03*
X11613000Y-9540000D03*
D14*
X15616250Y-11925000D03*
X15433750Y-11925000D03*
D15*
X16025000Y-12541250D03*
X16025000Y-12358750D03*
D16*
X15558750Y-12600000D03*
X15741250Y-12600000D03*
D17*
X15375000Y-12453750D03*
X15375000Y-12636250D03*
D16*
X15058750Y-9825000D03*
X15241250Y-9825000D03*
X14558750Y-10250000D03*
X14741250Y-10250000D03*
D17*
X14500000Y-9783750D03*
X14500000Y-9966250D03*
D14*
X14666250Y-9600000D03*
X14483750Y-9600000D03*
D16*
X13008750Y-12500000D03*
X13191250Y-12500000D03*
X13217500Y-9350000D03*
X13400000Y-9350000D03*
D14*
X16416250Y-11650000D03*
X16233750Y-11650000D03*
D17*
X15925000Y-9608750D03*
X15925000Y-9791250D03*
D16*
X12733750Y-10575000D03*
X12916250Y-10575000D03*
D18*
X15930388Y-11026000D03*
X15930388Y-11280000D03*
X15930388Y-11534000D03*
X15930388Y-11788000D03*
X16700388Y-11788000D03*
X16700388Y-11026000D03*
X16700388Y-10001000D03*
X16700388Y-10763000D03*
X15930388Y-10763000D03*
X15930388Y-10509000D03*
X15930388Y-10255000D03*
X15930388Y-10001000D03*
D19*
X16525000Y-8800000D03*
X16525000Y-13100000D03*
X10775000Y-8800000D03*
X10775000Y-13100000D03*
D20*
X15381000Y-12272500D03*
X15381000Y-12117500D03*
D21*
X14977500Y-9625000D03*
X14822500Y-9625000D03*
D20*
X16150000Y-11322500D03*
X16150000Y-11477500D03*
D22*
X16150000Y-10327500D03*
X16150000Y-10172500D03*
D23*
X15272500Y-10700000D03*
X15427500Y-10700000D03*
D21*
X15427500Y-10915000D03*
X15272500Y-10915000D03*
M02*
