G04 #@! TF.GenerationSoftware,KiCad,Pcbnew,(6.0.0)*
G04 #@! TF.CreationDate,2022-01-21T17:49:37-05:00*
G04 #@! TF.ProjectId,serial_interface,73657269-616c-45f6-996e-746572666163,D1*
G04 #@! TF.SameCoordinates,Original*
G04 #@! TF.FileFunction,Legend,Top*
G04 #@! TF.FilePolarity,Positive*
%FSLAX45Y45*%
G04 Gerber Fmt 4.5, Leading zero omitted, Abs format (unit mm)*
G04 Created by KiCad (PCBNEW (6.0.0)) date 2022-01-21 17:49:37*
%MOMM*%
%LPD*%
G01*
G04 APERTURE LIST*
G04 Aperture macros list*
%AMRoundRect*
0 Rectangle with rounded corners*
0 $1 Rounding radius*
0 $2 $3 $4 $5 $6 $7 $8 $9 X,Y pos of 4 corners*
0 Add a 4 corners polygon primitive as box body*
4,1,4,$2,$3,$4,$5,$6,$7,$8,$9,$2,$3,0*
0 Add four circle primitives for the rounded corners*
1,1,$1+$1,$2,$3*
1,1,$1+$1,$4,$5*
1,1,$1+$1,$6,$7*
1,1,$1+$1,$8,$9*
0 Add four rect primitives between the rounded corners*
20,1,$1+$1,$2,$3,$4,$5,0*
20,1,$1+$1,$4,$5,$6,$7,0*
20,1,$1+$1,$6,$7,$8,$9,0*
20,1,$1+$1,$8,$9,$2,$3,0*%
%AMFreePoly0*
4,1,6,0.500000,-0.750000,-0.650000,-0.750000,-0.150000,0.000000,-0.650000,0.750000,0.500000,0.750000,0.500000,-0.750000,0.500000,-0.750000,$1*%
%AMFreePoly1*
4,1,6,1.000000,0.000000,0.500000,-0.750000,-0.500000,-0.750000,-0.500000,0.750000,0.500000,0.750000,1.000000,0.000000,1.000000,0.000000,$1*%
G04 Aperture macros list end*
%ADD10C,0.120000*%
%ADD11C,0.150000*%
%ADD12C,0.130000*%
%ADD13R,1.300000X2.000000*%
%ADD14C,1.900000*%
%ADD15RoundRect,0.250000X-0.262500X-0.450000X0.262500X-0.450000X0.262500X0.450000X-0.262500X0.450000X0*%
%ADD16FreePoly0,0.000000*%
%ADD17FreePoly1,0.000000*%
%ADD18FreePoly0,90.000000*%
%ADD19FreePoly1,90.000000*%
%ADD20O,2.600000X1.500000*%
%ADD21C,3.200000*%
%ADD22RoundRect,0.243750X-0.243750X-0.456250X0.243750X-0.456250X0.243750X0.456250X-0.243750X0.456250X0*%
%ADD23RoundRect,0.243750X0.243750X0.456250X-0.243750X0.456250X-0.243750X-0.456250X0.243750X-0.456250X0*%
%ADD24RoundRect,0.243750X0.456250X-0.243750X0.456250X0.243750X-0.456250X0.243750X-0.456250X-0.243750X0*%
G04 APERTURE END LIST*
D10*
X12805317Y-11643333D02*
X12805317Y-11630000D01*
X12808650Y-11623333D01*
X12815317Y-11616667D01*
X12828650Y-11613333D01*
X12851983Y-11613333D01*
X12865317Y-11616667D01*
X12871983Y-11623333D01*
X12875317Y-11630000D01*
X12875317Y-11643333D01*
X12871983Y-11650000D01*
X12865317Y-11656667D01*
X12851983Y-11660000D01*
X12828650Y-11660000D01*
X12815317Y-11656667D01*
X12808650Y-11650000D01*
X12805317Y-11643333D01*
X12828650Y-11583333D02*
X12875317Y-11583333D01*
X12835317Y-11583333D02*
X12831983Y-11580000D01*
X12828650Y-11573333D01*
X12828650Y-11563333D01*
X12831983Y-11556667D01*
X12838650Y-11553333D01*
X12875317Y-11553333D01*
X12875317Y-11510000D02*
X12871983Y-11516667D01*
X12865317Y-11520000D01*
X12805317Y-11520000D01*
X12828650Y-11490000D02*
X12875317Y-11473333D01*
X12828650Y-11456667D02*
X12875317Y-11473333D01*
X12891983Y-11480000D01*
X12895317Y-11483333D01*
X12898650Y-11490000D01*
X12828650Y-11376667D02*
X12898650Y-11376667D01*
X12831983Y-11376667D02*
X12828650Y-11370000D01*
X12828650Y-11356667D01*
X12831983Y-11350000D01*
X12835317Y-11346667D01*
X12841983Y-11343333D01*
X12861983Y-11343333D01*
X12868650Y-11346667D01*
X12871983Y-11350000D01*
X12875317Y-11356667D01*
X12875317Y-11370000D01*
X12871983Y-11376667D01*
X12875317Y-11303333D02*
X12871983Y-11310000D01*
X12868650Y-11313333D01*
X12861983Y-11316667D01*
X12841983Y-11316667D01*
X12835317Y-11313333D01*
X12831983Y-11310000D01*
X12828650Y-11303333D01*
X12828650Y-11293333D01*
X12831983Y-11286667D01*
X12835317Y-11283333D01*
X12841983Y-11280000D01*
X12861983Y-11280000D01*
X12868650Y-11283333D01*
X12871983Y-11286667D01*
X12875317Y-11293333D01*
X12875317Y-11303333D01*
X12828650Y-11250000D02*
X12898650Y-11250000D01*
X12831983Y-11250000D02*
X12828650Y-11243333D01*
X12828650Y-11230000D01*
X12831983Y-11223333D01*
X12835317Y-11220000D01*
X12841983Y-11216667D01*
X12861983Y-11216667D01*
X12868650Y-11220000D01*
X12871983Y-11223333D01*
X12875317Y-11230000D01*
X12875317Y-11243333D01*
X12871983Y-11250000D01*
X12828650Y-11156667D02*
X12875317Y-11156667D01*
X12828650Y-11186667D02*
X12865317Y-11186667D01*
X12871983Y-11183333D01*
X12875317Y-11176667D01*
X12875317Y-11166667D01*
X12871983Y-11160000D01*
X12868650Y-11156667D01*
X12875317Y-11113333D02*
X12871983Y-11120000D01*
X12865317Y-11123333D01*
X12805317Y-11123333D01*
X12875317Y-11056667D02*
X12838650Y-11056667D01*
X12831983Y-11060000D01*
X12828650Y-11066667D01*
X12828650Y-11080000D01*
X12831983Y-11086667D01*
X12871983Y-11056667D02*
X12875317Y-11063333D01*
X12875317Y-11080000D01*
X12871983Y-11086667D01*
X12865317Y-11090000D01*
X12858650Y-11090000D01*
X12851983Y-11086667D01*
X12848650Y-11080000D01*
X12848650Y-11063333D01*
X12845317Y-11056667D01*
X12828650Y-11033333D02*
X12828650Y-11006667D01*
X12805317Y-11023333D02*
X12865317Y-11023333D01*
X12871983Y-11020000D01*
X12875317Y-11013333D01*
X12875317Y-11006667D01*
X12871983Y-10956667D02*
X12875317Y-10963333D01*
X12875317Y-10976667D01*
X12871983Y-10983333D01*
X12865317Y-10986667D01*
X12838650Y-10986667D01*
X12831983Y-10983333D01*
X12828650Y-10976667D01*
X12828650Y-10963333D01*
X12831983Y-10956667D01*
X12838650Y-10953333D01*
X12845317Y-10953333D01*
X12851983Y-10986667D01*
X12805317Y-10856667D02*
X12805317Y-10843333D01*
X12808650Y-10836667D01*
X12815317Y-10830000D01*
X12828650Y-10826667D01*
X12851983Y-10826667D01*
X12865317Y-10830000D01*
X12871983Y-10836667D01*
X12875317Y-10843333D01*
X12875317Y-10856667D01*
X12871983Y-10863333D01*
X12865317Y-10870000D01*
X12851983Y-10873333D01*
X12828650Y-10873333D01*
X12815317Y-10870000D01*
X12808650Y-10863333D01*
X12805317Y-10856667D01*
X12875317Y-10796667D02*
X12805317Y-10796667D01*
X12875317Y-10756667D01*
X12805317Y-10756667D01*
X12838650Y-10723333D02*
X12838650Y-10700000D01*
X12875317Y-10690000D02*
X12875317Y-10723333D01*
X12805317Y-10723333D01*
X12805317Y-10690000D01*
X12988017Y-11666667D02*
X12984683Y-11673333D01*
X12981350Y-11676667D01*
X12974683Y-11680000D01*
X12954683Y-11680000D01*
X12948017Y-11676667D01*
X12944683Y-11673333D01*
X12941350Y-11666667D01*
X12941350Y-11656667D01*
X12944683Y-11650000D01*
X12948017Y-11646667D01*
X12954683Y-11643333D01*
X12974683Y-11643333D01*
X12981350Y-11646667D01*
X12984683Y-11650000D01*
X12988017Y-11656667D01*
X12988017Y-11666667D01*
X12941350Y-11623333D02*
X12941350Y-11596667D01*
X12988017Y-11613333D02*
X12928017Y-11613333D01*
X12921350Y-11610000D01*
X12918017Y-11603333D01*
X12918017Y-11596667D01*
X12984683Y-11493333D02*
X12988017Y-11500000D01*
X12988017Y-11513333D01*
X12984683Y-11520000D01*
X12978017Y-11523333D01*
X12951350Y-11523333D01*
X12944683Y-11520000D01*
X12941350Y-11513333D01*
X12941350Y-11500000D01*
X12944683Y-11493333D01*
X12951350Y-11490000D01*
X12958017Y-11490000D01*
X12964683Y-11523333D01*
X12988017Y-11460000D02*
X12941350Y-11460000D01*
X12918017Y-11460000D02*
X12921350Y-11463333D01*
X12924683Y-11460000D01*
X12921350Y-11456667D01*
X12918017Y-11460000D01*
X12924683Y-11460000D01*
X12941350Y-11436667D02*
X12941350Y-11410000D01*
X12918017Y-11426667D02*
X12978017Y-11426667D01*
X12984683Y-11423333D01*
X12988017Y-11416667D01*
X12988017Y-11410000D01*
X12988017Y-11386667D02*
X12918017Y-11386667D01*
X12988017Y-11356667D02*
X12951350Y-11356667D01*
X12944683Y-11360000D01*
X12941350Y-11366667D01*
X12941350Y-11376667D01*
X12944683Y-11383333D01*
X12948017Y-11386667D01*
X12984683Y-11296667D02*
X12988017Y-11303333D01*
X12988017Y-11316667D01*
X12984683Y-11323333D01*
X12978017Y-11326667D01*
X12951350Y-11326667D01*
X12944683Y-11323333D01*
X12941350Y-11316667D01*
X12941350Y-11303333D01*
X12944683Y-11296667D01*
X12951350Y-11293333D01*
X12958017Y-11293333D01*
X12964683Y-11326667D01*
X12988017Y-11263333D02*
X12941350Y-11263333D01*
X12954683Y-11263333D02*
X12948017Y-11260000D01*
X12944683Y-11256667D01*
X12941350Y-11250000D01*
X12941350Y-11243333D01*
X12918017Y-11166667D02*
X12974683Y-11166667D01*
X12981350Y-11163333D01*
X12984683Y-11160000D01*
X12988017Y-11153333D01*
X12988017Y-11140000D01*
X12984683Y-11133333D01*
X12981350Y-11130000D01*
X12974683Y-11126667D01*
X12918017Y-11126667D01*
X12988017Y-11056667D02*
X12988017Y-11096667D01*
X12988017Y-11076667D02*
X12918017Y-11076667D01*
X12928017Y-11083333D01*
X12934683Y-11090000D01*
X12938017Y-11096667D01*
X12988017Y-10963333D02*
X12984683Y-10970000D01*
X12981350Y-10973333D01*
X12974683Y-10976667D01*
X12954683Y-10976667D01*
X12948017Y-10973333D01*
X12944683Y-10970000D01*
X12941350Y-10963333D01*
X12941350Y-10953333D01*
X12944683Y-10946667D01*
X12948017Y-10943333D01*
X12954683Y-10940000D01*
X12974683Y-10940000D01*
X12981350Y-10943333D01*
X12984683Y-10946667D01*
X12988017Y-10953333D01*
X12988017Y-10963333D01*
X12988017Y-10910000D02*
X12941350Y-10910000D01*
X12954683Y-10910000D02*
X12948017Y-10906667D01*
X12944683Y-10903333D01*
X12941350Y-10896667D01*
X12941350Y-10890000D01*
X12918017Y-10813333D02*
X12974683Y-10813333D01*
X12981350Y-10810000D01*
X12984683Y-10806667D01*
X12988017Y-10800000D01*
X12988017Y-10786667D01*
X12984683Y-10780000D01*
X12981350Y-10776667D01*
X12974683Y-10773333D01*
X12918017Y-10773333D01*
X12924683Y-10743333D02*
X12921350Y-10740000D01*
X12918017Y-10733333D01*
X12918017Y-10716667D01*
X12921350Y-10710000D01*
X12924683Y-10706667D01*
X12931350Y-10703333D01*
X12938017Y-10703333D01*
X12948017Y-10706667D01*
X12988017Y-10746667D01*
X12988017Y-10703333D01*
X12981350Y-10673333D02*
X12984683Y-10670000D01*
X12988017Y-10673333D01*
X12984683Y-10676667D01*
X12981350Y-10673333D01*
X12988017Y-10673333D01*
X12961350Y-10673333D02*
X12921350Y-10676667D01*
X12918017Y-10673333D01*
X12921350Y-10670000D01*
X12961350Y-10673333D01*
X12918017Y-10673333D01*
X14533333Y-12100317D02*
X14510000Y-12066983D01*
X14493333Y-12100317D02*
X14493333Y-12030317D01*
X14520000Y-12030317D01*
X14526667Y-12033650D01*
X14530000Y-12036983D01*
X14533333Y-12043650D01*
X14533333Y-12053650D01*
X14530000Y-12060317D01*
X14526667Y-12063650D01*
X14520000Y-12066983D01*
X14493333Y-12066983D01*
X14590000Y-12096983D02*
X14583333Y-12100317D01*
X14570000Y-12100317D01*
X14563333Y-12096983D01*
X14560000Y-12090317D01*
X14560000Y-12063650D01*
X14563333Y-12056983D01*
X14570000Y-12053650D01*
X14583333Y-12053650D01*
X14590000Y-12056983D01*
X14593333Y-12063650D01*
X14593333Y-12070317D01*
X14560000Y-12076983D01*
X14653333Y-12096983D02*
X14646667Y-12100317D01*
X14633333Y-12100317D01*
X14626667Y-12096983D01*
X14623333Y-12093650D01*
X14620000Y-12086983D01*
X14620000Y-12066983D01*
X14623333Y-12060317D01*
X14626667Y-12056983D01*
X14633333Y-12053650D01*
X14646667Y-12053650D01*
X14653333Y-12056983D01*
X14710000Y-12096983D02*
X14703333Y-12100317D01*
X14690000Y-12100317D01*
X14683333Y-12096983D01*
X14680000Y-12090317D01*
X14680000Y-12063650D01*
X14683333Y-12056983D01*
X14690000Y-12053650D01*
X14703333Y-12053650D01*
X14710000Y-12056983D01*
X14713333Y-12063650D01*
X14713333Y-12070317D01*
X14680000Y-12076983D01*
X14743333Y-12100317D02*
X14743333Y-12053650D01*
X14743333Y-12030317D02*
X14740000Y-12033650D01*
X14743333Y-12036983D01*
X14746667Y-12033650D01*
X14743333Y-12030317D01*
X14743333Y-12036983D01*
X14770000Y-12053650D02*
X14786667Y-12100317D01*
X14803333Y-12053650D01*
X14856667Y-12096983D02*
X14850000Y-12100317D01*
X14836667Y-12100317D01*
X14830000Y-12096983D01*
X14826667Y-12090317D01*
X14826667Y-12063650D01*
X14830000Y-12056983D01*
X14836667Y-12053650D01*
X14850000Y-12053650D01*
X14856667Y-12056983D01*
X14860000Y-12063650D01*
X14860000Y-12070317D01*
X14826667Y-12076983D01*
X14533333Y-12213017D02*
X14533333Y-12176350D01*
X14530000Y-12169683D01*
X14523333Y-12166350D01*
X14510000Y-12166350D01*
X14503333Y-12169683D01*
X14533333Y-12209683D02*
X14526667Y-12213017D01*
X14510000Y-12213017D01*
X14503333Y-12209683D01*
X14500000Y-12203017D01*
X14500000Y-12196350D01*
X14503333Y-12189683D01*
X14510000Y-12186350D01*
X14526667Y-12186350D01*
X14533333Y-12183017D01*
X14596667Y-12209683D02*
X14590000Y-12213017D01*
X14576667Y-12213017D01*
X14570000Y-12209683D01*
X14566667Y-12206350D01*
X14563333Y-12199683D01*
X14563333Y-12179683D01*
X14566667Y-12173017D01*
X14570000Y-12169683D01*
X14576667Y-12166350D01*
X14590000Y-12166350D01*
X14596667Y-12169683D01*
X14616667Y-12166350D02*
X14643333Y-12166350D01*
X14626667Y-12143017D02*
X14626667Y-12203017D01*
X14630000Y-12209683D01*
X14636667Y-12213017D01*
X14643333Y-12213017D01*
X14666667Y-12213017D02*
X14666667Y-12166350D01*
X14666667Y-12143017D02*
X14663333Y-12146350D01*
X14666667Y-12149683D01*
X14670000Y-12146350D01*
X14666667Y-12143017D01*
X14666667Y-12149683D01*
X14693333Y-12166350D02*
X14710000Y-12213017D01*
X14726667Y-12166350D01*
X14753333Y-12213017D02*
X14753333Y-12166350D01*
X14753333Y-12143017D02*
X14750000Y-12146350D01*
X14753333Y-12149683D01*
X14756667Y-12146350D01*
X14753333Y-12143017D01*
X14753333Y-12149683D01*
X14776667Y-12166350D02*
X14803333Y-12166350D01*
X14786667Y-12143017D02*
X14786667Y-12203017D01*
X14790000Y-12209683D01*
X14796667Y-12213017D01*
X14803333Y-12213017D01*
X14820000Y-12166350D02*
X14836667Y-12213017D01*
X14853333Y-12166350D02*
X14836667Y-12213017D01*
X14830000Y-12229683D01*
X14826667Y-12233017D01*
X14820000Y-12236350D01*
X14458333Y-9405317D02*
X14498333Y-9405317D01*
X14478333Y-9475317D02*
X14478333Y-9405317D01*
X14521667Y-9475317D02*
X14521667Y-9428650D01*
X14521667Y-9441983D02*
X14525000Y-9435317D01*
X14528333Y-9431983D01*
X14535000Y-9428650D01*
X14541667Y-9428650D01*
X14595000Y-9475317D02*
X14595000Y-9438650D01*
X14591667Y-9431983D01*
X14585000Y-9428650D01*
X14571667Y-9428650D01*
X14565000Y-9431983D01*
X14595000Y-9471983D02*
X14588333Y-9475317D01*
X14571667Y-9475317D01*
X14565000Y-9471983D01*
X14561667Y-9465317D01*
X14561667Y-9458650D01*
X14565000Y-9451983D01*
X14571667Y-9448650D01*
X14588333Y-9448650D01*
X14595000Y-9445317D01*
X14628333Y-9428650D02*
X14628333Y-9475317D01*
X14628333Y-9435317D02*
X14631667Y-9431983D01*
X14638333Y-9428650D01*
X14648333Y-9428650D01*
X14655000Y-9431983D01*
X14658333Y-9438650D01*
X14658333Y-9475317D01*
X14688333Y-9471983D02*
X14695000Y-9475317D01*
X14708333Y-9475317D01*
X14715000Y-9471983D01*
X14718333Y-9465317D01*
X14718333Y-9461983D01*
X14715000Y-9455317D01*
X14708333Y-9451983D01*
X14698333Y-9451983D01*
X14691667Y-9448650D01*
X14688333Y-9441983D01*
X14688333Y-9438650D01*
X14691667Y-9431983D01*
X14698333Y-9428650D01*
X14708333Y-9428650D01*
X14715000Y-9431983D01*
X14748333Y-9475317D02*
X14748333Y-9428650D01*
X14748333Y-9435317D02*
X14751667Y-9431983D01*
X14758333Y-9428650D01*
X14768333Y-9428650D01*
X14775000Y-9431983D01*
X14778333Y-9438650D01*
X14778333Y-9475317D01*
X14778333Y-9438650D02*
X14781667Y-9431983D01*
X14788333Y-9428650D01*
X14798333Y-9428650D01*
X14805000Y-9431983D01*
X14808333Y-9438650D01*
X14808333Y-9475317D01*
X14841667Y-9475317D02*
X14841667Y-9428650D01*
X14841667Y-9405317D02*
X14838333Y-9408650D01*
X14841667Y-9411983D01*
X14845000Y-9408650D01*
X14841667Y-9405317D01*
X14841667Y-9411983D01*
X14865000Y-9428650D02*
X14891667Y-9428650D01*
X14875000Y-9405317D02*
X14875000Y-9465317D01*
X14878333Y-9471983D01*
X14885000Y-9475317D01*
X14891667Y-9475317D01*
X14533333Y-9588017D02*
X14533333Y-9551350D01*
X14530000Y-9544683D01*
X14523333Y-9541350D01*
X14510000Y-9541350D01*
X14503333Y-9544683D01*
X14533333Y-9584683D02*
X14526667Y-9588017D01*
X14510000Y-9588017D01*
X14503333Y-9584683D01*
X14500000Y-9578017D01*
X14500000Y-9571350D01*
X14503333Y-9564683D01*
X14510000Y-9561350D01*
X14526667Y-9561350D01*
X14533333Y-9558017D01*
X14596667Y-9584683D02*
X14590000Y-9588017D01*
X14576667Y-9588017D01*
X14570000Y-9584683D01*
X14566667Y-9581350D01*
X14563333Y-9574683D01*
X14563333Y-9554683D01*
X14566667Y-9548017D01*
X14570000Y-9544683D01*
X14576667Y-9541350D01*
X14590000Y-9541350D01*
X14596667Y-9544683D01*
X14616667Y-9541350D02*
X14643333Y-9541350D01*
X14626667Y-9518017D02*
X14626667Y-9578017D01*
X14630000Y-9584683D01*
X14636667Y-9588017D01*
X14643333Y-9588017D01*
X14666667Y-9588017D02*
X14666667Y-9541350D01*
X14666667Y-9518017D02*
X14663333Y-9521350D01*
X14666667Y-9524683D01*
X14670000Y-9521350D01*
X14666667Y-9518017D01*
X14666667Y-9524683D01*
X14693333Y-9541350D02*
X14710000Y-9588017D01*
X14726667Y-9541350D01*
X14753333Y-9588017D02*
X14753333Y-9541350D01*
X14753333Y-9518017D02*
X14750000Y-9521350D01*
X14753333Y-9524683D01*
X14756667Y-9521350D01*
X14753333Y-9518017D01*
X14753333Y-9524683D01*
X14776667Y-9541350D02*
X14803333Y-9541350D01*
X14786667Y-9518017D02*
X14786667Y-9578017D01*
X14790000Y-9584683D01*
X14796667Y-9588017D01*
X14803333Y-9588017D01*
X14820000Y-9541350D02*
X14836667Y-9588017D01*
X14853333Y-9541350D02*
X14836667Y-9588017D01*
X14830000Y-9604683D01*
X14826667Y-9608017D01*
X14820000Y-9611350D01*
X14113752Y-8684238D02*
X14080419Y-8636619D01*
X14056609Y-8684238D02*
X14056609Y-8584238D01*
X14094705Y-8584238D01*
X14104228Y-8589000D01*
X14108990Y-8593762D01*
X14113752Y-8603286D01*
X14113752Y-8617571D01*
X14108990Y-8627095D01*
X14104228Y-8631857D01*
X14094705Y-8636619D01*
X14056609Y-8636619D01*
X14194705Y-8679476D02*
X14185181Y-8684238D01*
X14166133Y-8684238D01*
X14156609Y-8679476D01*
X14151848Y-8669952D01*
X14151848Y-8631857D01*
X14156609Y-8622333D01*
X14166133Y-8617571D01*
X14185181Y-8617571D01*
X14194705Y-8622333D01*
X14199467Y-8631857D01*
X14199467Y-8641381D01*
X14151848Y-8650905D01*
X14232800Y-8617571D02*
X14256609Y-8684238D01*
X14280419Y-8617571D01*
X14318514Y-8674714D02*
X14323276Y-8679476D01*
X14318514Y-8684238D01*
X14313752Y-8679476D01*
X14318514Y-8674714D01*
X14318514Y-8684238D01*
X14442324Y-8684238D02*
X14442324Y-8584238D01*
X14466133Y-8584238D01*
X14480419Y-8589000D01*
X14489943Y-8598524D01*
X14494705Y-8608048D01*
X14499467Y-8627095D01*
X14499467Y-8641381D01*
X14494705Y-8660429D01*
X14489943Y-8669952D01*
X14480419Y-8679476D01*
X14466133Y-8684238D01*
X14442324Y-8684238D01*
X14594705Y-8684238D02*
X14537562Y-8684238D01*
X14566133Y-8684238D02*
X14566133Y-8584238D01*
X14556609Y-8598524D01*
X14547086Y-8608048D01*
X14537562Y-8612810D01*
X14642324Y-8679476D02*
X14642324Y-8684238D01*
X14637562Y-8693762D01*
X14632800Y-8698524D01*
X14756609Y-8593762D02*
X14761371Y-8589000D01*
X14770895Y-8584238D01*
X14794705Y-8584238D01*
X14804228Y-8589000D01*
X14808990Y-8593762D01*
X14813752Y-8603286D01*
X14813752Y-8612810D01*
X14808990Y-8627095D01*
X14751848Y-8684238D01*
X14813752Y-8684238D01*
X14875657Y-8584238D02*
X14885181Y-8584238D01*
X14894705Y-8589000D01*
X14899467Y-8593762D01*
X14904228Y-8603286D01*
X14908990Y-8622333D01*
X14908990Y-8646143D01*
X14904228Y-8665190D01*
X14899467Y-8674714D01*
X14894705Y-8679476D01*
X14885181Y-8684238D01*
X14875657Y-8684238D01*
X14866133Y-8679476D01*
X14861371Y-8674714D01*
X14856609Y-8665190D01*
X14851848Y-8646143D01*
X14851848Y-8622333D01*
X14856609Y-8603286D01*
X14861371Y-8593762D01*
X14866133Y-8589000D01*
X14875657Y-8584238D01*
X14947086Y-8593762D02*
X14951848Y-8589000D01*
X14961371Y-8584238D01*
X14985181Y-8584238D01*
X14994705Y-8589000D01*
X14999467Y-8593762D01*
X15004228Y-8603286D01*
X15004228Y-8612810D01*
X14999467Y-8627095D01*
X14942324Y-8684238D01*
X15004228Y-8684238D01*
X15042324Y-8593762D02*
X15047086Y-8589000D01*
X15056609Y-8584238D01*
X15080419Y-8584238D01*
X15089943Y-8589000D01*
X15094705Y-8593762D01*
X15099467Y-8603286D01*
X15099467Y-8612810D01*
X15094705Y-8627095D01*
X15037562Y-8684238D01*
X15099467Y-8684238D01*
X15142324Y-8646143D02*
X15218514Y-8646143D01*
X15285181Y-8584238D02*
X15294705Y-8584238D01*
X15304228Y-8589000D01*
X15308990Y-8593762D01*
X15313752Y-8603286D01*
X15318514Y-8622333D01*
X15318514Y-8646143D01*
X15313752Y-8665190D01*
X15308990Y-8674714D01*
X15304228Y-8679476D01*
X15294705Y-8684238D01*
X15285181Y-8684238D01*
X15275657Y-8679476D01*
X15270895Y-8674714D01*
X15266133Y-8665190D01*
X15261371Y-8646143D01*
X15261371Y-8622333D01*
X15266133Y-8603286D01*
X15270895Y-8593762D01*
X15275657Y-8589000D01*
X15285181Y-8584238D01*
X15413752Y-8684238D02*
X15356609Y-8684238D01*
X15385181Y-8684238D02*
X15385181Y-8584238D01*
X15375657Y-8598524D01*
X15366133Y-8608048D01*
X15356609Y-8612810D01*
X14056609Y-8845238D02*
X14056609Y-8745238D01*
X14080419Y-8745238D01*
X14094705Y-8750000D01*
X14104228Y-8759524D01*
X14108990Y-8769048D01*
X14113752Y-8788095D01*
X14113752Y-8802381D01*
X14108990Y-8821429D01*
X14104228Y-8830952D01*
X14094705Y-8840476D01*
X14080419Y-8845238D01*
X14056609Y-8845238D01*
X14170895Y-8845238D02*
X14161371Y-8840476D01*
X14156609Y-8835714D01*
X14151848Y-8826190D01*
X14151848Y-8797619D01*
X14156609Y-8788095D01*
X14161371Y-8783333D01*
X14170895Y-8778571D01*
X14185181Y-8778571D01*
X14194705Y-8783333D01*
X14199467Y-8788095D01*
X14204228Y-8797619D01*
X14204228Y-8826190D01*
X14199467Y-8835714D01*
X14194705Y-8840476D01*
X14185181Y-8845238D01*
X14170895Y-8845238D01*
X14247086Y-8778571D02*
X14247086Y-8845238D01*
X14247086Y-8788095D02*
X14251848Y-8783333D01*
X14261371Y-8778571D01*
X14275657Y-8778571D01*
X14285181Y-8783333D01*
X14289943Y-8792857D01*
X14289943Y-8845238D01*
X14408990Y-8840476D02*
X14423276Y-8845238D01*
X14447086Y-8845238D01*
X14456609Y-8840476D01*
X14461371Y-8835714D01*
X14466133Y-8826190D01*
X14466133Y-8816667D01*
X14461371Y-8807143D01*
X14456609Y-8802381D01*
X14447086Y-8797619D01*
X14428038Y-8792857D01*
X14418514Y-8788095D01*
X14413752Y-8783333D01*
X14408990Y-8773810D01*
X14408990Y-8764286D01*
X14413752Y-8754762D01*
X14418514Y-8750000D01*
X14428038Y-8745238D01*
X14451848Y-8745238D01*
X14466133Y-8750000D01*
X14494705Y-8778571D02*
X14532800Y-8778571D01*
X14508990Y-8745238D02*
X14508990Y-8830952D01*
X14513752Y-8840476D01*
X14523276Y-8845238D01*
X14532800Y-8845238D01*
X14566133Y-8845238D02*
X14566133Y-8778571D01*
X14566133Y-8797619D02*
X14570895Y-8788095D01*
X14575657Y-8783333D01*
X14585181Y-8778571D01*
X14594705Y-8778571D01*
X14670895Y-8845238D02*
X14670895Y-8792857D01*
X14666133Y-8783333D01*
X14656609Y-8778571D01*
X14637562Y-8778571D01*
X14628038Y-8783333D01*
X14670895Y-8840476D02*
X14661371Y-8845238D01*
X14637562Y-8845238D01*
X14628038Y-8840476D01*
X14623276Y-8830952D01*
X14623276Y-8821429D01*
X14628038Y-8811905D01*
X14637562Y-8807143D01*
X14661371Y-8807143D01*
X14670895Y-8802381D01*
X14718514Y-8778571D02*
X14718514Y-8845238D01*
X14718514Y-8788095D02*
X14723276Y-8783333D01*
X14732800Y-8778571D01*
X14747086Y-8778571D01*
X14756609Y-8783333D01*
X14761371Y-8792857D01*
X14761371Y-8845238D01*
X14847086Y-8840476D02*
X14837562Y-8845238D01*
X14818514Y-8845238D01*
X14808990Y-8840476D01*
X14804228Y-8830952D01*
X14804228Y-8792857D01*
X14808990Y-8783333D01*
X14818514Y-8778571D01*
X14837562Y-8778571D01*
X14847086Y-8783333D01*
X14851848Y-8792857D01*
X14851848Y-8802381D01*
X14804228Y-8811905D01*
X14885181Y-8778571D02*
X14908990Y-8845238D01*
X14932800Y-8778571D02*
X14908990Y-8845238D01*
X14899467Y-8869048D01*
X14894705Y-8873810D01*
X14885181Y-8878571D01*
X14056609Y-9006238D02*
X14056609Y-8906238D01*
X14089943Y-8977667D01*
X14123276Y-8906238D01*
X14123276Y-9006238D01*
X14213752Y-9006238D02*
X14213752Y-8953857D01*
X14208990Y-8944333D01*
X14199467Y-8939571D01*
X14180419Y-8939571D01*
X14170895Y-8944333D01*
X14213752Y-9001476D02*
X14204228Y-9006238D01*
X14180419Y-9006238D01*
X14170895Y-9001476D01*
X14166133Y-8991952D01*
X14166133Y-8982429D01*
X14170895Y-8972905D01*
X14180419Y-8968143D01*
X14204228Y-8968143D01*
X14213752Y-8963381D01*
X14261371Y-9006238D02*
X14261371Y-8939571D01*
X14261371Y-8958619D02*
X14266133Y-8949095D01*
X14270895Y-8944333D01*
X14280419Y-8939571D01*
X14289943Y-8939571D01*
X14308990Y-8939571D02*
X14347086Y-8939571D01*
X14323276Y-8906238D02*
X14323276Y-8991952D01*
X14328038Y-9001476D01*
X14337562Y-9006238D01*
X14347086Y-9006238D01*
X14380419Y-9006238D02*
X14380419Y-8939571D01*
X14380419Y-8906238D02*
X14375657Y-8911000D01*
X14380419Y-8915762D01*
X14385181Y-8911000D01*
X14380419Y-8906238D01*
X14380419Y-8915762D01*
X14428038Y-8939571D02*
X14428038Y-9006238D01*
X14428038Y-8949095D02*
X14432800Y-8944333D01*
X14442324Y-8939571D01*
X14456609Y-8939571D01*
X14466133Y-8944333D01*
X14470895Y-8953857D01*
X14470895Y-9006238D01*
X14532800Y-9006238D02*
X14523276Y-9001476D01*
X14518514Y-8996714D01*
X14513752Y-8987190D01*
X14513752Y-8958619D01*
X14518514Y-8949095D01*
X14523276Y-8944333D01*
X14532800Y-8939571D01*
X14547086Y-8939571D01*
X14556609Y-8944333D01*
X14561371Y-8949095D01*
X14566133Y-8958619D01*
X14566133Y-8987190D01*
X14561371Y-8996714D01*
X14556609Y-9001476D01*
X14547086Y-9006238D01*
X14532800Y-9006238D01*
X14604228Y-9001476D02*
X14613752Y-9006238D01*
X14632800Y-9006238D01*
X14642324Y-9001476D01*
X14647086Y-8991952D01*
X14647086Y-8987190D01*
X14642324Y-8977667D01*
X14632800Y-8972905D01*
X14618514Y-8972905D01*
X14608990Y-8968143D01*
X14604228Y-8958619D01*
X14604228Y-8953857D01*
X14608990Y-8944333D01*
X14618514Y-8939571D01*
X14632800Y-8939571D01*
X14642324Y-8944333D01*
X14823276Y-8996714D02*
X14818514Y-9001476D01*
X14804228Y-9006238D01*
X14794705Y-9006238D01*
X14780419Y-9001476D01*
X14770895Y-8991952D01*
X14766133Y-8982429D01*
X14761371Y-8963381D01*
X14761371Y-8949095D01*
X14766133Y-8930048D01*
X14770895Y-8920524D01*
X14780419Y-8911000D01*
X14794705Y-8906238D01*
X14804228Y-8906238D01*
X14818514Y-8911000D01*
X14823276Y-8915762D01*
X14904228Y-9001476D02*
X14894705Y-9006238D01*
X14875657Y-9006238D01*
X14866133Y-9001476D01*
X14861371Y-8991952D01*
X14861371Y-8953857D01*
X14866133Y-8944333D01*
X14875657Y-8939571D01*
X14894705Y-8939571D01*
X14904228Y-8944333D01*
X14908990Y-8953857D01*
X14908990Y-8963381D01*
X14861371Y-8972905D01*
X14951848Y-8939571D02*
X14951848Y-9006238D01*
X14951848Y-8949095D02*
X14956609Y-8944333D01*
X14966133Y-8939571D01*
X14980419Y-8939571D01*
X14989943Y-8944333D01*
X14994705Y-8953857D01*
X14994705Y-9006238D01*
X15028038Y-8939571D02*
X15066133Y-8939571D01*
X15042324Y-8906238D02*
X15042324Y-8991952D01*
X15047086Y-9001476D01*
X15056609Y-9006238D01*
X15066133Y-9006238D01*
X15137562Y-9001476D02*
X15128038Y-9006238D01*
X15108990Y-9006238D01*
X15099467Y-9001476D01*
X15094705Y-8991952D01*
X15094705Y-8953857D01*
X15099467Y-8944333D01*
X15108990Y-8939571D01*
X15128038Y-8939571D01*
X15137562Y-8944333D01*
X15142324Y-8953857D01*
X15142324Y-8963381D01*
X15094705Y-8972905D01*
X15185181Y-9006238D02*
X15185181Y-8939571D01*
X15185181Y-8958619D02*
X15189943Y-8949095D01*
X15194705Y-8944333D01*
X15204228Y-8939571D01*
X15213752Y-8939571D01*
X15385181Y-8958619D02*
X15380419Y-8953857D01*
X15370895Y-8949095D01*
X15361371Y-8949095D01*
X15351848Y-8953857D01*
X15347086Y-8958619D01*
X15342324Y-8968143D01*
X15342324Y-8977667D01*
X15347086Y-8987190D01*
X15351848Y-8991952D01*
X15361371Y-8996714D01*
X15370895Y-8996714D01*
X15380419Y-8991952D01*
X15385181Y-8987190D01*
X15385181Y-8949095D02*
X15385181Y-8987190D01*
X15389943Y-8991952D01*
X15394705Y-8991952D01*
X15404228Y-8987190D01*
X15408990Y-8977667D01*
X15408990Y-8953857D01*
X15399467Y-8939571D01*
X15385181Y-8930048D01*
X15366133Y-8925286D01*
X15347086Y-8930048D01*
X15332800Y-8939571D01*
X15323276Y-8953857D01*
X15318514Y-8972905D01*
X15323276Y-8991952D01*
X15332800Y-9006238D01*
X15347086Y-9015762D01*
X15366133Y-9020524D01*
X15385181Y-9015762D01*
X15399467Y-9006238D01*
X15528038Y-9006238D02*
X15528038Y-8906238D01*
X15561371Y-8977667D01*
X15594705Y-8906238D01*
X15594705Y-9006238D01*
X15694705Y-8911000D02*
X15685181Y-8906238D01*
X15670895Y-8906238D01*
X15656609Y-8911000D01*
X15647086Y-8920524D01*
X15642324Y-8930048D01*
X15637562Y-8949095D01*
X15637562Y-8963381D01*
X15642324Y-8982429D01*
X15647086Y-8991952D01*
X15656609Y-9001476D01*
X15670895Y-9006238D01*
X15680419Y-9006238D01*
X15694705Y-9001476D01*
X15699467Y-8996714D01*
X15699467Y-8963381D01*
X15680419Y-8963381D01*
X15742324Y-9006238D02*
X15742324Y-8906238D01*
X15742324Y-8953857D02*
X15799467Y-8953857D01*
X15799467Y-9006238D02*
X15799467Y-8906238D01*
D11*
X12234524Y-8654476D02*
X12248809Y-8659238D01*
X12272619Y-8659238D01*
X12282143Y-8654476D01*
X12286905Y-8649714D01*
X12291667Y-8640190D01*
X12291667Y-8630667D01*
X12286905Y-8621143D01*
X12282143Y-8616381D01*
X12272619Y-8611619D01*
X12253571Y-8606857D01*
X12244048Y-8602095D01*
X12239286Y-8597333D01*
X12234524Y-8587810D01*
X12234524Y-8578286D01*
X12239286Y-8568762D01*
X12244048Y-8564000D01*
X12253571Y-8559238D01*
X12277381Y-8559238D01*
X12291667Y-8564000D01*
X12372619Y-8654476D02*
X12363095Y-8659238D01*
X12344048Y-8659238D01*
X12334524Y-8654476D01*
X12329762Y-8644952D01*
X12329762Y-8606857D01*
X12334524Y-8597333D01*
X12344048Y-8592571D01*
X12363095Y-8592571D01*
X12372619Y-8597333D01*
X12377381Y-8606857D01*
X12377381Y-8616381D01*
X12329762Y-8625905D01*
X12420238Y-8659238D02*
X12420238Y-8592571D01*
X12420238Y-8611619D02*
X12425000Y-8602095D01*
X12429762Y-8597333D01*
X12439286Y-8592571D01*
X12448809Y-8592571D01*
X12482143Y-8659238D02*
X12482143Y-8592571D01*
X12482143Y-8559238D02*
X12477381Y-8564000D01*
X12482143Y-8568762D01*
X12486905Y-8564000D01*
X12482143Y-8559238D01*
X12482143Y-8568762D01*
X12572619Y-8659238D02*
X12572619Y-8606857D01*
X12567857Y-8597333D01*
X12558333Y-8592571D01*
X12539286Y-8592571D01*
X12529762Y-8597333D01*
X12572619Y-8654476D02*
X12563095Y-8659238D01*
X12539286Y-8659238D01*
X12529762Y-8654476D01*
X12525000Y-8644952D01*
X12525000Y-8635429D01*
X12529762Y-8625905D01*
X12539286Y-8621143D01*
X12563095Y-8621143D01*
X12572619Y-8616381D01*
X12634524Y-8659238D02*
X12625000Y-8654476D01*
X12620238Y-8644952D01*
X12620238Y-8559238D01*
X12748809Y-8659238D02*
X12748809Y-8559238D01*
X12796428Y-8592571D02*
X12796428Y-8659238D01*
X12796428Y-8602095D02*
X12801190Y-8597333D01*
X12810714Y-8592571D01*
X12825000Y-8592571D01*
X12834524Y-8597333D01*
X12839286Y-8606857D01*
X12839286Y-8659238D01*
X12872619Y-8592571D02*
X12910714Y-8592571D01*
X12886905Y-8559238D02*
X12886905Y-8644952D01*
X12891667Y-8654476D01*
X12901190Y-8659238D01*
X12910714Y-8659238D01*
X12982143Y-8654476D02*
X12972619Y-8659238D01*
X12953571Y-8659238D01*
X12944048Y-8654476D01*
X12939286Y-8644952D01*
X12939286Y-8606857D01*
X12944048Y-8597333D01*
X12953571Y-8592571D01*
X12972619Y-8592571D01*
X12982143Y-8597333D01*
X12986905Y-8606857D01*
X12986905Y-8616381D01*
X12939286Y-8625905D01*
X13029762Y-8659238D02*
X13029762Y-8592571D01*
X13029762Y-8611619D02*
X13034524Y-8602095D01*
X13039286Y-8597333D01*
X13048809Y-8592571D01*
X13058333Y-8592571D01*
X13077381Y-8592571D02*
X13115476Y-8592571D01*
X13091667Y-8659238D02*
X13091667Y-8573524D01*
X13096428Y-8564000D01*
X13105952Y-8559238D01*
X13115476Y-8559238D01*
X13191667Y-8659238D02*
X13191667Y-8606857D01*
X13186905Y-8597333D01*
X13177381Y-8592571D01*
X13158333Y-8592571D01*
X13148809Y-8597333D01*
X13191667Y-8654476D02*
X13182143Y-8659238D01*
X13158333Y-8659238D01*
X13148809Y-8654476D01*
X13144048Y-8644952D01*
X13144048Y-8635429D01*
X13148809Y-8625905D01*
X13158333Y-8621143D01*
X13182143Y-8621143D01*
X13191667Y-8616381D01*
X13282143Y-8654476D02*
X13272619Y-8659238D01*
X13253571Y-8659238D01*
X13244048Y-8654476D01*
X13239286Y-8649714D01*
X13234524Y-8640190D01*
X13234524Y-8611619D01*
X13239286Y-8602095D01*
X13244048Y-8597333D01*
X13253571Y-8592571D01*
X13272619Y-8592571D01*
X13282143Y-8597333D01*
X13363095Y-8654476D02*
X13353571Y-8659238D01*
X13334524Y-8659238D01*
X13325000Y-8654476D01*
X13320238Y-8644952D01*
X13320238Y-8606857D01*
X13325000Y-8597333D01*
X13334524Y-8592571D01*
X13353571Y-8592571D01*
X13363095Y-8597333D01*
X13367857Y-8606857D01*
X13367857Y-8616381D01*
X13320238Y-8625905D01*
X13410714Y-8649714D02*
X13415476Y-8654476D01*
X13410714Y-8659238D01*
X13405952Y-8654476D01*
X13410714Y-8649714D01*
X13410714Y-8659238D01*
X13410714Y-8597333D02*
X13415476Y-8602095D01*
X13410714Y-8606857D01*
X13405952Y-8602095D01*
X13410714Y-8597333D01*
X13410714Y-8606857D01*
X11998809Y-8720238D02*
X11998809Y-8801190D01*
X12003571Y-8810714D01*
X12008333Y-8815476D01*
X12017857Y-8820238D01*
X12036905Y-8820238D01*
X12046428Y-8815476D01*
X12051190Y-8810714D01*
X12055952Y-8801190D01*
X12055952Y-8720238D01*
X12098809Y-8815476D02*
X12113095Y-8820238D01*
X12136905Y-8820238D01*
X12146428Y-8815476D01*
X12151190Y-8810714D01*
X12155952Y-8801190D01*
X12155952Y-8791667D01*
X12151190Y-8782143D01*
X12146428Y-8777381D01*
X12136905Y-8772619D01*
X12117857Y-8767857D01*
X12108333Y-8763095D01*
X12103571Y-8758333D01*
X12098809Y-8748810D01*
X12098809Y-8739286D01*
X12103571Y-8729762D01*
X12108333Y-8725000D01*
X12117857Y-8720238D01*
X12141667Y-8720238D01*
X12155952Y-8725000D01*
X12232143Y-8767857D02*
X12246428Y-8772619D01*
X12251190Y-8777381D01*
X12255952Y-8786905D01*
X12255952Y-8801190D01*
X12251190Y-8810714D01*
X12246428Y-8815476D01*
X12236905Y-8820238D01*
X12198809Y-8820238D01*
X12198809Y-8720238D01*
X12232143Y-8720238D01*
X12241667Y-8725000D01*
X12246428Y-8729762D01*
X12251190Y-8739286D01*
X12251190Y-8748810D01*
X12246428Y-8758333D01*
X12241667Y-8763095D01*
X12232143Y-8767857D01*
X12198809Y-8767857D01*
X12298809Y-8782143D02*
X12375000Y-8782143D01*
X12408333Y-8753571D02*
X12446428Y-8753571D01*
X12422619Y-8720238D02*
X12422619Y-8805952D01*
X12427381Y-8815476D01*
X12436905Y-8820238D01*
X12446428Y-8820238D01*
X12494048Y-8820238D02*
X12484524Y-8815476D01*
X12479762Y-8810714D01*
X12475000Y-8801190D01*
X12475000Y-8772619D01*
X12479762Y-8763095D01*
X12484524Y-8758333D01*
X12494048Y-8753571D01*
X12508333Y-8753571D01*
X12517857Y-8758333D01*
X12522619Y-8763095D01*
X12527381Y-8772619D01*
X12527381Y-8801190D01*
X12522619Y-8810714D01*
X12517857Y-8815476D01*
X12508333Y-8820238D01*
X12494048Y-8820238D01*
X12570238Y-8782143D02*
X12646428Y-8782143D01*
X12708333Y-8820238D02*
X12698809Y-8815476D01*
X12694048Y-8810714D01*
X12689286Y-8801190D01*
X12689286Y-8772619D01*
X12694048Y-8763095D01*
X12698809Y-8758333D01*
X12708333Y-8753571D01*
X12722619Y-8753571D01*
X12732143Y-8758333D01*
X12736905Y-8763095D01*
X12741667Y-8772619D01*
X12741667Y-8801190D01*
X12736905Y-8810714D01*
X12732143Y-8815476D01*
X12722619Y-8820238D01*
X12708333Y-8820238D01*
X12784524Y-8753571D02*
X12784524Y-8853571D01*
X12784524Y-8758333D02*
X12794048Y-8753571D01*
X12813095Y-8753571D01*
X12822619Y-8758333D01*
X12827381Y-8763095D01*
X12832143Y-8772619D01*
X12832143Y-8801190D01*
X12827381Y-8810714D01*
X12822619Y-8815476D01*
X12813095Y-8820238D01*
X12794048Y-8820238D01*
X12784524Y-8815476D01*
X12860714Y-8753571D02*
X12898809Y-8753571D01*
X12875000Y-8720238D02*
X12875000Y-8805952D01*
X12879762Y-8815476D01*
X12889286Y-8820238D01*
X12898809Y-8820238D01*
X12932143Y-8820238D02*
X12932143Y-8753571D01*
X12932143Y-8720238D02*
X12927381Y-8725000D01*
X12932143Y-8729762D01*
X12936905Y-8725000D01*
X12932143Y-8720238D01*
X12932143Y-8729762D01*
X13022619Y-8815476D02*
X13013095Y-8820238D01*
X12994048Y-8820238D01*
X12984524Y-8815476D01*
X12979762Y-8810714D01*
X12975000Y-8801190D01*
X12975000Y-8772619D01*
X12979762Y-8763095D01*
X12984524Y-8758333D01*
X12994048Y-8753571D01*
X13013095Y-8753571D01*
X13022619Y-8758333D01*
X13108333Y-8820238D02*
X13108333Y-8767857D01*
X13103571Y-8758333D01*
X13094048Y-8753571D01*
X13075000Y-8753571D01*
X13065476Y-8758333D01*
X13108333Y-8815476D02*
X13098809Y-8820238D01*
X13075000Y-8820238D01*
X13065476Y-8815476D01*
X13060714Y-8805952D01*
X13060714Y-8796429D01*
X13065476Y-8786905D01*
X13075000Y-8782143D01*
X13098809Y-8782143D01*
X13108333Y-8777381D01*
X13170238Y-8820238D02*
X13160714Y-8815476D01*
X13155952Y-8805952D01*
X13155952Y-8720238D01*
X13208333Y-8782143D02*
X13284524Y-8782143D01*
X13332143Y-8720238D02*
X13332143Y-8801190D01*
X13336905Y-8810714D01*
X13341667Y-8815476D01*
X13351190Y-8820238D01*
X13370238Y-8820238D01*
X13379762Y-8815476D01*
X13384524Y-8810714D01*
X13389286Y-8801190D01*
X13389286Y-8720238D01*
X13432143Y-8791667D02*
X13479762Y-8791667D01*
X13422619Y-8820238D02*
X13455952Y-8720238D01*
X13489286Y-8820238D01*
X13579762Y-8820238D02*
X13546428Y-8772619D01*
X13522619Y-8820238D02*
X13522619Y-8720238D01*
X13560714Y-8720238D01*
X13570238Y-8725000D01*
X13575000Y-8729762D01*
X13579762Y-8739286D01*
X13579762Y-8753571D01*
X13575000Y-8763095D01*
X13570238Y-8767857D01*
X13560714Y-8772619D01*
X13522619Y-8772619D01*
X13608333Y-8720238D02*
X13665476Y-8720238D01*
X13636905Y-8820238D02*
X13636905Y-8720238D01*
X12144048Y-8914571D02*
X12182143Y-8914571D01*
X12158333Y-8981238D02*
X12158333Y-8895524D01*
X12163095Y-8886000D01*
X12172619Y-8881238D01*
X12182143Y-8881238D01*
X12229762Y-8981238D02*
X12220238Y-8976476D01*
X12215476Y-8971714D01*
X12210714Y-8962190D01*
X12210714Y-8933619D01*
X12215476Y-8924095D01*
X12220238Y-8919333D01*
X12229762Y-8914571D01*
X12244048Y-8914571D01*
X12253571Y-8919333D01*
X12258333Y-8924095D01*
X12263095Y-8933619D01*
X12263095Y-8962190D01*
X12258333Y-8971714D01*
X12253571Y-8976476D01*
X12244048Y-8981238D01*
X12229762Y-8981238D01*
X12305952Y-8981238D02*
X12305952Y-8914571D01*
X12305952Y-8933619D02*
X12310714Y-8924095D01*
X12315476Y-8919333D01*
X12325000Y-8914571D01*
X12334524Y-8914571D01*
X12439286Y-8976476D02*
X12448809Y-8981238D01*
X12467857Y-8981238D01*
X12477381Y-8976476D01*
X12482143Y-8966952D01*
X12482143Y-8962190D01*
X12477381Y-8952667D01*
X12467857Y-8947905D01*
X12453571Y-8947905D01*
X12444048Y-8943143D01*
X12439286Y-8933619D01*
X12439286Y-8928857D01*
X12444048Y-8919333D01*
X12453571Y-8914571D01*
X12467857Y-8914571D01*
X12477381Y-8919333D01*
X12525000Y-8981238D02*
X12525000Y-8881238D01*
X12567857Y-8981238D02*
X12567857Y-8928857D01*
X12563095Y-8919333D01*
X12553571Y-8914571D01*
X12539286Y-8914571D01*
X12529762Y-8919333D01*
X12525000Y-8924095D01*
X12615476Y-8981238D02*
X12615476Y-8914571D01*
X12615476Y-8881238D02*
X12610714Y-8886000D01*
X12615476Y-8890762D01*
X12620238Y-8886000D01*
X12615476Y-8881238D01*
X12615476Y-8890762D01*
X12663095Y-8981238D02*
X12663095Y-8914571D01*
X12663095Y-8924095D02*
X12667857Y-8919333D01*
X12677381Y-8914571D01*
X12691667Y-8914571D01*
X12701190Y-8919333D01*
X12705952Y-8928857D01*
X12705952Y-8981238D01*
X12705952Y-8928857D02*
X12710714Y-8919333D01*
X12720238Y-8914571D01*
X12734524Y-8914571D01*
X12744048Y-8919333D01*
X12748809Y-8928857D01*
X12748809Y-8981238D01*
X12915476Y-8981238D02*
X12915476Y-8928857D01*
X12910714Y-8919333D01*
X12901190Y-8914571D01*
X12882143Y-8914571D01*
X12872619Y-8919333D01*
X12915476Y-8976476D02*
X12905952Y-8981238D01*
X12882143Y-8981238D01*
X12872619Y-8976476D01*
X12867857Y-8966952D01*
X12867857Y-8957429D01*
X12872619Y-8947905D01*
X12882143Y-8943143D01*
X12905952Y-8943143D01*
X12915476Y-8938381D01*
X12963095Y-8981238D02*
X12963095Y-8914571D01*
X12963095Y-8924095D02*
X12967857Y-8919333D01*
X12977381Y-8914571D01*
X12991667Y-8914571D01*
X13001190Y-8919333D01*
X13005952Y-8928857D01*
X13005952Y-8981238D01*
X13005952Y-8928857D02*
X13010714Y-8919333D01*
X13020238Y-8914571D01*
X13034524Y-8914571D01*
X13044048Y-8919333D01*
X13048809Y-8928857D01*
X13048809Y-8981238D01*
X13096428Y-8914571D02*
X13096428Y-9014571D01*
X13096428Y-8919333D02*
X13105952Y-8914571D01*
X13125000Y-8914571D01*
X13134524Y-8919333D01*
X13139286Y-8924095D01*
X13144048Y-8933619D01*
X13144048Y-8962190D01*
X13139286Y-8971714D01*
X13134524Y-8976476D01*
X13125000Y-8981238D01*
X13105952Y-8981238D01*
X13096428Y-8976476D01*
X13201190Y-8981238D02*
X13191667Y-8976476D01*
X13186905Y-8966952D01*
X13186905Y-8881238D01*
X13239286Y-8981238D02*
X13239286Y-8914571D01*
X13239286Y-8881238D02*
X13234524Y-8886000D01*
X13239286Y-8890762D01*
X13244048Y-8886000D01*
X13239286Y-8881238D01*
X13239286Y-8890762D01*
X13272619Y-8914571D02*
X13310714Y-8914571D01*
X13286905Y-8981238D02*
X13286905Y-8895524D01*
X13291667Y-8886000D01*
X13301190Y-8881238D01*
X13310714Y-8881238D01*
X13344048Y-8981238D02*
X13344048Y-8914571D01*
X13344048Y-8881238D02*
X13339286Y-8886000D01*
X13344048Y-8890762D01*
X13348809Y-8886000D01*
X13344048Y-8881238D01*
X13344048Y-8890762D01*
X13429762Y-8976476D02*
X13420238Y-8981238D01*
X13401190Y-8981238D01*
X13391667Y-8976476D01*
X13386905Y-8966952D01*
X13386905Y-8928857D01*
X13391667Y-8919333D01*
X13401190Y-8914571D01*
X13420238Y-8914571D01*
X13429762Y-8919333D01*
X13434524Y-8928857D01*
X13434524Y-8938381D01*
X13386905Y-8947905D01*
X13477381Y-8981238D02*
X13477381Y-8914571D01*
X13477381Y-8933619D02*
X13482143Y-8924095D01*
X13486905Y-8919333D01*
X13496428Y-8914571D01*
X13505952Y-8914571D01*
X13200000Y-12307143D02*
X13276190Y-12307143D01*
X13238095Y-12345238D02*
X13238095Y-12269048D01*
X13314286Y-12245238D02*
X13376190Y-12245238D01*
X13342857Y-12283333D01*
X13357143Y-12283333D01*
X13366667Y-12288095D01*
X13371428Y-12292857D01*
X13376190Y-12302381D01*
X13376190Y-12326190D01*
X13371428Y-12335714D01*
X13366667Y-12340476D01*
X13357143Y-12345238D01*
X13328571Y-12345238D01*
X13319048Y-12340476D01*
X13314286Y-12335714D01*
X13419048Y-12335714D02*
X13423809Y-12340476D01*
X13419048Y-12345238D01*
X13414286Y-12340476D01*
X13419048Y-12335714D01*
X13419048Y-12345238D01*
X13457143Y-12245238D02*
X13519048Y-12245238D01*
X13485714Y-12283333D01*
X13500000Y-12283333D01*
X13509524Y-12288095D01*
X13514286Y-12292857D01*
X13519048Y-12302381D01*
X13519048Y-12326190D01*
X13514286Y-12335714D01*
X13509524Y-12340476D01*
X13500000Y-12345238D01*
X13471428Y-12345238D01*
X13461905Y-12340476D01*
X13457143Y-12335714D01*
X13547619Y-12245238D02*
X13580952Y-12345238D01*
X13614286Y-12245238D01*
X13296428Y-9282143D02*
X13372619Y-9282143D01*
X13334524Y-9320238D02*
X13334524Y-9244048D01*
X13467857Y-9220238D02*
X13420238Y-9220238D01*
X13415476Y-9267857D01*
X13420238Y-9263095D01*
X13429762Y-9258333D01*
X13453571Y-9258333D01*
X13463095Y-9263095D01*
X13467857Y-9267857D01*
X13472619Y-9277381D01*
X13472619Y-9301190D01*
X13467857Y-9310714D01*
X13463095Y-9315476D01*
X13453571Y-9320238D01*
X13429762Y-9320238D01*
X13420238Y-9315476D01*
X13415476Y-9310714D01*
X13501190Y-9220238D02*
X13534524Y-9320238D01*
X13567857Y-9220238D01*
X14129924Y-11261476D02*
X14063257Y-11166238D01*
X14015638Y-11261476D02*
X14015638Y-11061476D01*
X14091828Y-11061476D01*
X14110876Y-11071000D01*
X14120400Y-11080524D01*
X14129924Y-11099571D01*
X14129924Y-11128143D01*
X14120400Y-11147190D01*
X14110876Y-11156714D01*
X14091828Y-11166238D01*
X14015638Y-11166238D01*
X14196590Y-11261476D02*
X14301352Y-11128143D01*
X14196590Y-11128143D02*
X14301352Y-11261476D01*
X14587066Y-11337667D02*
X14577543Y-11328143D01*
X14558495Y-11299571D01*
X14548971Y-11280524D01*
X14539447Y-11251952D01*
X14529924Y-11204333D01*
X14529924Y-11166238D01*
X14539447Y-11118619D01*
X14548971Y-11090048D01*
X14558495Y-11071000D01*
X14577543Y-11042429D01*
X14587066Y-11032905D01*
X14663257Y-11261476D02*
X14663257Y-11061476D01*
X14663257Y-11156714D02*
X14777543Y-11156714D01*
X14777543Y-11261476D02*
X14777543Y-11061476D01*
X14901352Y-11261476D02*
X14882305Y-11251952D01*
X14872781Y-11242428D01*
X14863257Y-11223381D01*
X14863257Y-11166238D01*
X14872781Y-11147190D01*
X14882305Y-11137667D01*
X14901352Y-11128143D01*
X14929924Y-11128143D01*
X14948971Y-11137667D01*
X14958495Y-11147190D01*
X14968019Y-11166238D01*
X14968019Y-11223381D01*
X14958495Y-11242428D01*
X14948971Y-11251952D01*
X14929924Y-11261476D01*
X14901352Y-11261476D01*
X15044209Y-11251952D02*
X15063257Y-11261476D01*
X15101352Y-11261476D01*
X15120400Y-11251952D01*
X15129924Y-11232905D01*
X15129924Y-11223381D01*
X15120400Y-11204333D01*
X15101352Y-11194809D01*
X15072781Y-11194809D01*
X15053733Y-11185286D01*
X15044209Y-11166238D01*
X15044209Y-11156714D01*
X15053733Y-11137667D01*
X15072781Y-11128143D01*
X15101352Y-11128143D01*
X15120400Y-11137667D01*
X15187066Y-11128143D02*
X15263257Y-11128143D01*
X15215638Y-11061476D02*
X15215638Y-11232905D01*
X15225162Y-11251952D01*
X15244209Y-11261476D01*
X15263257Y-11261476D01*
X15310876Y-11337667D02*
X15320400Y-11328143D01*
X15339447Y-11299571D01*
X15348971Y-11280524D01*
X15358495Y-11251952D01*
X15368019Y-11204333D01*
X15368019Y-11166238D01*
X15358495Y-11118619D01*
X15348971Y-11090048D01*
X15339447Y-11071000D01*
X15320400Y-11042429D01*
X15310876Y-11032905D01*
X13196590Y-11383476D02*
X13310876Y-11383476D01*
X13253733Y-11583476D02*
X13253733Y-11383476D01*
X13358495Y-11583476D02*
X13463257Y-11450143D01*
X13358495Y-11450143D02*
X13463257Y-11583476D01*
X13748971Y-11659667D02*
X13739447Y-11650143D01*
X13720400Y-11621571D01*
X13710876Y-11602524D01*
X13701352Y-11573952D01*
X13691828Y-11526333D01*
X13691828Y-11488238D01*
X13701352Y-11440619D01*
X13710876Y-11412048D01*
X13720400Y-11393000D01*
X13739447Y-11364428D01*
X13748971Y-11354905D01*
X13815638Y-11573952D02*
X13844209Y-11583476D01*
X13891828Y-11583476D01*
X13910876Y-11573952D01*
X13920400Y-11564428D01*
X13929924Y-11545381D01*
X13929924Y-11526333D01*
X13920400Y-11507286D01*
X13910876Y-11497762D01*
X13891828Y-11488238D01*
X13853733Y-11478714D01*
X13834686Y-11469190D01*
X13825162Y-11459667D01*
X13815638Y-11440619D01*
X13815638Y-11421571D01*
X13825162Y-11402524D01*
X13834686Y-11393000D01*
X13853733Y-11383476D01*
X13901352Y-11383476D01*
X13929924Y-11393000D01*
X14015638Y-11583476D02*
X14015638Y-11383476D01*
X14101352Y-11583476D02*
X14101352Y-11478714D01*
X14091828Y-11459667D01*
X14072781Y-11450143D01*
X14044209Y-11450143D01*
X14025162Y-11459667D01*
X14015638Y-11469190D01*
X14196590Y-11583476D02*
X14196590Y-11450143D01*
X14196590Y-11383476D02*
X14187066Y-11393000D01*
X14196590Y-11402524D01*
X14206114Y-11393000D01*
X14196590Y-11383476D01*
X14196590Y-11402524D01*
X14291828Y-11583476D02*
X14291828Y-11450143D01*
X14291828Y-11469190D02*
X14301352Y-11459667D01*
X14320400Y-11450143D01*
X14348971Y-11450143D01*
X14368019Y-11459667D01*
X14377543Y-11478714D01*
X14377543Y-11583476D01*
X14377543Y-11478714D02*
X14387066Y-11459667D01*
X14406114Y-11450143D01*
X14434686Y-11450143D01*
X14453733Y-11459667D01*
X14463257Y-11478714D01*
X14463257Y-11583476D01*
X14701352Y-11526333D02*
X14796590Y-11526333D01*
X14682305Y-11583476D02*
X14748971Y-11383476D01*
X14815638Y-11583476D01*
X14882305Y-11583476D02*
X14882305Y-11450143D01*
X14882305Y-11469190D02*
X14891828Y-11459667D01*
X14910876Y-11450143D01*
X14939447Y-11450143D01*
X14958495Y-11459667D01*
X14968019Y-11478714D01*
X14968019Y-11583476D01*
X14968019Y-11478714D02*
X14977543Y-11459667D01*
X14996590Y-11450143D01*
X15025162Y-11450143D01*
X15044209Y-11459667D01*
X15053733Y-11478714D01*
X15053733Y-11583476D01*
X15148971Y-11450143D02*
X15148971Y-11650143D01*
X15148971Y-11459667D02*
X15168019Y-11450143D01*
X15206114Y-11450143D01*
X15225162Y-11459667D01*
X15234686Y-11469190D01*
X15244209Y-11488238D01*
X15244209Y-11545381D01*
X15234686Y-11564428D01*
X15225162Y-11573952D01*
X15206114Y-11583476D01*
X15168019Y-11583476D01*
X15148971Y-11573952D01*
X15310876Y-11659667D02*
X15320400Y-11650143D01*
X15339447Y-11621571D01*
X15348971Y-11602524D01*
X15358495Y-11573952D01*
X15368019Y-11526333D01*
X15368019Y-11488238D01*
X15358495Y-11440619D01*
X15348971Y-11412048D01*
X15339447Y-11393000D01*
X15320400Y-11364428D01*
X15310876Y-11354905D01*
X14034686Y-10111476D02*
X14148971Y-10111476D01*
X14091828Y-10311476D02*
X14091828Y-10111476D01*
X14196590Y-10311476D02*
X14301352Y-10178143D01*
X14196590Y-10178143D02*
X14301352Y-10311476D01*
X14587066Y-10387667D02*
X14577543Y-10378143D01*
X14558495Y-10349571D01*
X14548971Y-10330524D01*
X14539447Y-10301952D01*
X14529924Y-10254333D01*
X14529924Y-10216238D01*
X14539447Y-10168619D01*
X14548971Y-10140048D01*
X14558495Y-10121000D01*
X14577543Y-10092429D01*
X14587066Y-10082905D01*
X14663257Y-10311476D02*
X14663257Y-10111476D01*
X14663257Y-10206714D02*
X14777543Y-10206714D01*
X14777543Y-10311476D02*
X14777543Y-10111476D01*
X14901352Y-10311476D02*
X14882305Y-10301952D01*
X14872781Y-10292429D01*
X14863257Y-10273381D01*
X14863257Y-10216238D01*
X14872781Y-10197190D01*
X14882305Y-10187667D01*
X14901352Y-10178143D01*
X14929924Y-10178143D01*
X14948971Y-10187667D01*
X14958495Y-10197190D01*
X14968019Y-10216238D01*
X14968019Y-10273381D01*
X14958495Y-10292429D01*
X14948971Y-10301952D01*
X14929924Y-10311476D01*
X14901352Y-10311476D01*
X15044209Y-10301952D02*
X15063257Y-10311476D01*
X15101352Y-10311476D01*
X15120400Y-10301952D01*
X15129924Y-10282905D01*
X15129924Y-10273381D01*
X15120400Y-10254333D01*
X15101352Y-10244810D01*
X15072781Y-10244810D01*
X15053733Y-10235286D01*
X15044209Y-10216238D01*
X15044209Y-10206714D01*
X15053733Y-10187667D01*
X15072781Y-10178143D01*
X15101352Y-10178143D01*
X15120400Y-10187667D01*
X15187066Y-10178143D02*
X15263257Y-10178143D01*
X15215638Y-10111476D02*
X15215638Y-10282905D01*
X15225162Y-10301952D01*
X15244209Y-10311476D01*
X15263257Y-10311476D01*
X15310876Y-10387667D02*
X15320400Y-10378143D01*
X15339447Y-10349571D01*
X15348971Y-10330524D01*
X15358495Y-10301952D01*
X15368019Y-10254333D01*
X15368019Y-10216238D01*
X15358495Y-10168619D01*
X15348971Y-10140048D01*
X15339447Y-10121000D01*
X15320400Y-10092429D01*
X15310876Y-10082905D01*
X13291828Y-10633476D02*
X13225162Y-10538238D01*
X13177543Y-10633476D02*
X13177543Y-10433476D01*
X13253733Y-10433476D01*
X13272781Y-10443000D01*
X13282305Y-10452524D01*
X13291828Y-10471571D01*
X13291828Y-10500143D01*
X13282305Y-10519190D01*
X13272781Y-10528714D01*
X13253733Y-10538238D01*
X13177543Y-10538238D01*
X13358495Y-10633476D02*
X13463257Y-10500143D01*
X13358495Y-10500143D02*
X13463257Y-10633476D01*
X13748971Y-10709667D02*
X13739447Y-10700143D01*
X13720400Y-10671571D01*
X13710876Y-10652524D01*
X13701352Y-10623952D01*
X13691828Y-10576333D01*
X13691828Y-10538238D01*
X13701352Y-10490619D01*
X13710876Y-10462048D01*
X13720400Y-10443000D01*
X13739447Y-10414429D01*
X13748971Y-10404905D01*
X13815638Y-10623952D02*
X13844209Y-10633476D01*
X13891828Y-10633476D01*
X13910876Y-10623952D01*
X13920400Y-10614429D01*
X13929924Y-10595381D01*
X13929924Y-10576333D01*
X13920400Y-10557286D01*
X13910876Y-10547762D01*
X13891828Y-10538238D01*
X13853733Y-10528714D01*
X13834686Y-10519190D01*
X13825162Y-10509667D01*
X13815638Y-10490619D01*
X13815638Y-10471571D01*
X13825162Y-10452524D01*
X13834686Y-10443000D01*
X13853733Y-10433476D01*
X13901352Y-10433476D01*
X13929924Y-10443000D01*
X14015638Y-10633476D02*
X14015638Y-10433476D01*
X14101352Y-10633476D02*
X14101352Y-10528714D01*
X14091828Y-10509667D01*
X14072781Y-10500143D01*
X14044209Y-10500143D01*
X14025162Y-10509667D01*
X14015638Y-10519190D01*
X14196590Y-10633476D02*
X14196590Y-10500143D01*
X14196590Y-10433476D02*
X14187066Y-10443000D01*
X14196590Y-10452524D01*
X14206114Y-10443000D01*
X14196590Y-10433476D01*
X14196590Y-10452524D01*
X14291828Y-10633476D02*
X14291828Y-10500143D01*
X14291828Y-10519190D02*
X14301352Y-10509667D01*
X14320400Y-10500143D01*
X14348971Y-10500143D01*
X14368019Y-10509667D01*
X14377543Y-10528714D01*
X14377543Y-10633476D01*
X14377543Y-10528714D02*
X14387066Y-10509667D01*
X14406114Y-10500143D01*
X14434686Y-10500143D01*
X14453733Y-10509667D01*
X14463257Y-10528714D01*
X14463257Y-10633476D01*
X14701352Y-10576333D02*
X14796590Y-10576333D01*
X14682305Y-10633476D02*
X14748971Y-10433476D01*
X14815638Y-10633476D01*
X14882305Y-10633476D02*
X14882305Y-10500143D01*
X14882305Y-10519190D02*
X14891828Y-10509667D01*
X14910876Y-10500143D01*
X14939447Y-10500143D01*
X14958495Y-10509667D01*
X14968019Y-10528714D01*
X14968019Y-10633476D01*
X14968019Y-10528714D02*
X14977543Y-10509667D01*
X14996590Y-10500143D01*
X15025162Y-10500143D01*
X15044209Y-10509667D01*
X15053733Y-10528714D01*
X15053733Y-10633476D01*
X15148971Y-10500143D02*
X15148971Y-10700143D01*
X15148971Y-10509667D02*
X15168019Y-10500143D01*
X15206114Y-10500143D01*
X15225162Y-10509667D01*
X15234686Y-10519190D01*
X15244209Y-10538238D01*
X15244209Y-10595381D01*
X15234686Y-10614429D01*
X15225162Y-10623952D01*
X15206114Y-10633476D01*
X15168019Y-10633476D01*
X15148971Y-10623952D01*
X15310876Y-10709667D02*
X15320400Y-10700143D01*
X15339447Y-10671571D01*
X15348971Y-10652524D01*
X15358495Y-10623952D01*
X15368019Y-10576333D01*
X15368019Y-10538238D01*
X15358495Y-10490619D01*
X15348971Y-10462048D01*
X15339447Y-10443000D01*
X15320400Y-10414429D01*
X15310876Y-10404905D01*
D10*
X12596667Y-11861667D02*
X12596667Y-11918333D01*
X12600000Y-11925000D01*
X12603333Y-11928333D01*
X12610000Y-11931667D01*
X12623333Y-11931667D01*
X12630000Y-11928333D01*
X12633333Y-11925000D01*
X12636667Y-11918333D01*
X12636667Y-11861667D01*
X12666667Y-11868333D02*
X12670000Y-11865000D01*
X12676667Y-11861667D01*
X12693333Y-11861667D01*
X12700000Y-11865000D01*
X12703333Y-11868333D01*
X12706667Y-11875000D01*
X12706667Y-11881667D01*
X12703333Y-11891667D01*
X12663333Y-11931667D01*
X12706667Y-11931667D01*
X12541667Y-12586667D02*
X12508333Y-12586667D01*
X12505000Y-12620000D01*
X12508333Y-12616667D01*
X12515000Y-12613333D01*
X12531667Y-12613333D01*
X12538333Y-12616667D01*
X12541667Y-12620000D01*
X12545000Y-12626667D01*
X12545000Y-12643333D01*
X12541667Y-12650000D01*
X12538333Y-12653333D01*
X12531667Y-12656667D01*
X12515000Y-12656667D01*
X12508333Y-12653333D01*
X12505000Y-12650000D01*
X11211667Y-11206667D02*
X11171667Y-11206667D01*
X11191667Y-11206667D02*
X11191667Y-11136667D01*
X11185000Y-11146667D01*
X11178333Y-11153333D01*
X11171667Y-11156667D01*
X11255000Y-11136667D02*
X11261667Y-11136667D01*
X11268333Y-11140000D01*
X11271667Y-11143333D01*
X11275000Y-11150000D01*
X11278333Y-11163333D01*
X11278333Y-11180000D01*
X11275000Y-11193333D01*
X11271667Y-11200000D01*
X11268333Y-11203333D01*
X11261667Y-11206667D01*
X11255000Y-11206667D01*
X11248333Y-11203333D01*
X11245000Y-11200000D01*
X11241667Y-11193333D01*
X11238333Y-11180000D01*
X11238333Y-11163333D01*
X11241667Y-11150000D01*
X11245000Y-11143333D01*
X11248333Y-11140000D01*
X11255000Y-11136667D01*
X11270000Y-12656667D02*
X11230000Y-12656667D01*
X11250000Y-12656667D02*
X11250000Y-12586667D01*
X11243333Y-12596667D01*
X11236667Y-12603333D01*
X11230000Y-12606667D01*
X12538333Y-11136667D02*
X12525000Y-11136667D01*
X12518333Y-11140000D01*
X12515000Y-11143333D01*
X12508333Y-11153333D01*
X12505000Y-11166667D01*
X12505000Y-11193333D01*
X12508333Y-11200000D01*
X12511667Y-11203333D01*
X12518333Y-11206667D01*
X12531667Y-11206667D01*
X12538333Y-11203333D01*
X12541667Y-11200000D01*
X12545000Y-11193333D01*
X12545000Y-11176667D01*
X12541667Y-11170000D01*
X12538333Y-11166667D01*
X12531667Y-11163333D01*
X12518333Y-11163333D01*
X12511667Y-11166667D01*
X12508333Y-11170000D01*
X12505000Y-11176667D01*
X12771667Y-10336667D02*
X12771667Y-10393333D01*
X12775000Y-10400000D01*
X12778333Y-10403333D01*
X12785000Y-10406667D01*
X12798333Y-10406667D01*
X12805000Y-10403333D01*
X12808333Y-10400000D01*
X12811667Y-10393333D01*
X12811667Y-10336667D01*
X12881667Y-10406667D02*
X12841667Y-10406667D01*
X12861667Y-10406667D02*
X12861667Y-10336667D01*
X12855000Y-10346667D01*
X12848333Y-10353333D01*
X12841667Y-10356667D01*
X11620000Y-9231667D02*
X11580000Y-9231667D01*
X11600000Y-9231667D02*
X11600000Y-9161667D01*
X11593333Y-9171667D01*
X11586667Y-9178333D01*
X11580000Y-9181667D01*
X11463333Y-12716667D02*
X11440000Y-12683333D01*
X11423333Y-12716667D02*
X11423333Y-12646667D01*
X11450000Y-12646667D01*
X11456667Y-12650000D01*
X11460000Y-12653333D01*
X11463333Y-12660000D01*
X11463333Y-12670000D01*
X11460000Y-12676667D01*
X11456667Y-12680000D01*
X11450000Y-12683333D01*
X11423333Y-12683333D01*
X11530000Y-12716667D02*
X11490000Y-12716667D01*
X11510000Y-12716667D02*
X11510000Y-12646667D01*
X11503333Y-12656667D01*
X11496667Y-12663333D01*
X11490000Y-12666667D01*
X12916667Y-9831667D02*
X12916667Y-9881667D01*
X12913333Y-9891667D01*
X12906667Y-9898333D01*
X12896667Y-9901667D01*
X12890000Y-9901667D01*
X12950000Y-9901667D02*
X12950000Y-9831667D01*
X12976667Y-9831667D01*
X12983333Y-9835000D01*
X12986667Y-9838333D01*
X12990000Y-9845000D01*
X12990000Y-9855000D01*
X12986667Y-9861667D01*
X12983333Y-9865000D01*
X12976667Y-9868333D01*
X12950000Y-9868333D01*
X13016667Y-9838333D02*
X13020000Y-9835000D01*
X13026667Y-9831667D01*
X13043333Y-9831667D01*
X13050000Y-9835000D01*
X13053333Y-9838333D01*
X13056667Y-9845000D01*
X13056667Y-9851667D01*
X13053333Y-9861667D01*
X13013333Y-9901667D01*
X13056667Y-9901667D01*
X11081667Y-10933333D02*
X11131667Y-10933333D01*
X11141667Y-10936667D01*
X11148333Y-10943333D01*
X11151667Y-10953333D01*
X11151667Y-10960000D01*
X11151667Y-10900000D02*
X11081667Y-10900000D01*
X11081667Y-10873333D01*
X11085000Y-10866667D01*
X11088333Y-10863333D01*
X11095000Y-10860000D01*
X11105000Y-10860000D01*
X11111667Y-10863333D01*
X11115000Y-10866667D01*
X11118333Y-10873333D01*
X11118333Y-10900000D01*
X11151667Y-10793333D02*
X11151667Y-10833333D01*
X11151667Y-10813333D02*
X11081667Y-10813333D01*
X11091667Y-10820000D01*
X11098333Y-10826667D01*
X11101667Y-10833333D01*
X15512055Y-11730333D02*
X15562055Y-11730333D01*
X15572055Y-11733667D01*
X15578721Y-11740333D01*
X15582055Y-11750333D01*
X15582055Y-11757000D01*
X15518721Y-11700333D02*
X15515388Y-11697000D01*
X15512055Y-11690333D01*
X15512055Y-11673667D01*
X15515388Y-11667000D01*
X15518721Y-11663667D01*
X15525388Y-11660333D01*
X15532055Y-11660333D01*
X15542055Y-11663667D01*
X15582055Y-11703667D01*
X15582055Y-11660333D01*
D11*
X15595626Y-10978429D02*
X15595626Y-11035571D01*
X15595626Y-11007000D02*
X15495626Y-11007000D01*
X15509912Y-11016524D01*
X15519436Y-11026048D01*
X15524197Y-11035571D01*
D10*
X15512055Y-10730333D02*
X15562055Y-10730333D01*
X15572055Y-10733667D01*
X15578721Y-10740333D01*
X15582055Y-10750333D01*
X15582055Y-10757000D01*
X15582055Y-10660333D02*
X15582055Y-10700333D01*
X15582055Y-10680333D02*
X15512055Y-10680333D01*
X15522055Y-10687000D01*
X15528721Y-10693667D01*
X15532055Y-10700333D01*
D11*
X15595626Y-9978429D02*
X15595626Y-10035571D01*
X15595626Y-10007000D02*
X15495626Y-10007000D01*
X15509912Y-10016524D01*
X15519436Y-10026048D01*
X15524197Y-10035571D01*
D10*
X15098333Y-11991667D02*
X15098333Y-11921667D01*
X15115000Y-11921667D01*
X15125000Y-11925000D01*
X15131667Y-11931667D01*
X15135000Y-11938333D01*
X15138333Y-11951667D01*
X15138333Y-11961667D01*
X15135000Y-11975000D01*
X15131667Y-11981667D01*
X15125000Y-11988333D01*
X15115000Y-11991667D01*
X15098333Y-11991667D01*
X15198333Y-11945000D02*
X15198333Y-11991667D01*
X15181667Y-11918333D02*
X15165000Y-11968333D01*
X15208333Y-11968333D01*
X15173333Y-9696667D02*
X15173333Y-9626667D01*
X15190000Y-9626667D01*
X15200000Y-9630000D01*
X15206667Y-9636667D01*
X15210000Y-9643333D01*
X15213333Y-9656667D01*
X15213333Y-9666667D01*
X15210000Y-9680000D01*
X15206667Y-9686667D01*
X15200000Y-9693333D01*
X15190000Y-9696667D01*
X15173333Y-9696667D01*
X15236667Y-9626667D02*
X15280000Y-9626667D01*
X15256667Y-9653333D01*
X15266667Y-9653333D01*
X15273333Y-9656667D01*
X15276667Y-9660000D01*
X15280000Y-9666667D01*
X15280000Y-9683333D01*
X15276667Y-9690000D01*
X15273333Y-9693333D01*
X15266667Y-9696667D01*
X15246667Y-9696667D01*
X15240000Y-9693333D01*
X15236667Y-9690000D01*
X13341667Y-12626667D02*
X13271667Y-12626667D01*
X13271667Y-12610000D01*
X13275000Y-12600000D01*
X13281667Y-12593333D01*
X13288333Y-12590000D01*
X13301667Y-12586667D01*
X13311667Y-12586667D01*
X13325000Y-12590000D01*
X13331667Y-12593333D01*
X13338333Y-12600000D01*
X13341667Y-12610000D01*
X13341667Y-12626667D01*
X13278333Y-12560000D02*
X13275000Y-12556667D01*
X13271667Y-12550000D01*
X13271667Y-12533333D01*
X13275000Y-12526667D01*
X13278333Y-12523333D01*
X13285000Y-12520000D01*
X13291667Y-12520000D01*
X13301667Y-12523333D01*
X13341667Y-12563333D01*
X13341667Y-12520000D01*
X13291667Y-9576667D02*
X13221667Y-9576667D01*
X13221667Y-9560000D01*
X13225000Y-9550000D01*
X13231667Y-9543333D01*
X13238333Y-9540000D01*
X13251667Y-9536667D01*
X13261667Y-9536667D01*
X13275000Y-9540000D01*
X13281667Y-9543333D01*
X13288333Y-9550000D01*
X13291667Y-9560000D01*
X13291667Y-9576667D01*
X13291667Y-9470000D02*
X13291667Y-9510000D01*
X13291667Y-9490000D02*
X13221667Y-9490000D01*
X13231667Y-9496667D01*
X13238333Y-9503333D01*
X13241667Y-9510000D01*
X12225000Y-11250000D02*
X12300000Y-11250000D01*
X11275000Y-11250000D02*
X10525000Y-11250000D01*
X11725000Y-12550000D02*
X11775000Y-12550000D01*
X11475000Y-11250000D02*
X11525000Y-11250000D01*
X11725000Y-11250000D02*
X11775000Y-11250000D01*
X11975000Y-11250000D02*
X12050000Y-11250000D01*
X11475000Y-12550000D02*
X11525000Y-12550000D01*
X12475000Y-12550000D02*
X12525000Y-12550000D01*
X10525000Y-12550000D02*
X11275000Y-12550000D01*
X12525000Y-12550000D02*
X12525000Y-11250000D01*
X12525000Y-11250000D02*
X12475000Y-11250000D01*
X12225000Y-12550000D02*
X12300000Y-12550000D01*
X11975000Y-12550000D02*
X12050000Y-12550000D01*
X12700000Y-11075000D02*
X10425000Y-11075000D01*
X10425000Y-9275000D02*
X12700000Y-9275000D01*
X12700000Y-9275000D02*
X12700000Y-11075000D01*
X11452294Y-12776500D02*
X11497706Y-12776500D01*
X11452294Y-12923500D02*
X11497706Y-12923500D01*
X12835000Y-10150000D02*
X12835000Y-9950000D01*
X13115000Y-10150000D02*
X12835000Y-10150000D01*
X13115000Y-9950000D02*
X13115000Y-10150000D01*
X12835000Y-9950000D02*
X13115000Y-9950000D01*
X11400000Y-11015000D02*
X11200000Y-11015000D01*
X11400000Y-10735000D02*
X11400000Y-11015000D01*
X11200000Y-10735000D02*
X11400000Y-10735000D01*
X11200000Y-11015000D02*
X11200000Y-10735000D01*
D12*
X16400388Y-11717000D02*
X16530388Y-11717000D01*
X16500388Y-11817000D02*
X16500388Y-11917000D01*
X16400312Y-11917000D02*
X15650388Y-11917000D01*
X16500388Y-11917000D02*
X16850388Y-11917000D01*
X16400388Y-11917000D02*
X16400388Y-11717000D01*
X16530388Y-11827000D02*
X16500388Y-11817000D01*
X16530388Y-11717000D02*
X16530388Y-11827000D01*
X16530388Y-10807000D02*
X16500388Y-10797000D01*
X16530388Y-10697000D02*
X16530388Y-10807000D01*
X16400388Y-10697000D02*
X16530388Y-10697000D01*
X16400312Y-10897000D02*
X15650388Y-10897000D01*
X16500388Y-10897000D02*
X16850388Y-10897000D01*
X16400388Y-10897000D02*
X16400388Y-10697000D01*
X16500388Y-10797000D02*
X16500388Y-10897000D01*
X15650388Y-11917000D02*
X15650388Y-10897000D01*
X15650388Y-10892000D02*
X15650388Y-9872000D01*
X16500388Y-9772000D02*
X16500388Y-9872000D01*
X16400388Y-9872000D02*
X16400388Y-9672000D01*
X16500388Y-9872000D02*
X16850388Y-9872000D01*
X16400312Y-9872000D02*
X15650388Y-9872000D01*
X16400388Y-9672000D02*
X16530388Y-9672000D01*
X16530388Y-9672000D02*
X16530388Y-9782000D01*
X16530388Y-9782000D02*
X16500388Y-9772000D01*
X16530388Y-10692000D02*
X16530388Y-10802000D01*
X16530388Y-10802000D02*
X16500388Y-10792000D01*
X16400388Y-10892000D02*
X16400388Y-10692000D01*
X16500388Y-10892000D02*
X16850388Y-10892000D01*
X16400312Y-10892000D02*
X15650388Y-10892000D01*
X16500388Y-10792000D02*
X16500388Y-10892000D01*
X16400388Y-10692000D02*
X16530388Y-10692000D01*
D10*
X15125000Y-12065000D02*
X15125000Y-12185000D01*
X15125000Y-12125000D02*
X15175000Y-12075000D01*
X15175000Y-12075000D02*
X15175000Y-12175000D01*
X15175000Y-12175000D02*
X15125000Y-12125000D01*
X15250000Y-12029000D02*
X14981500Y-12029000D01*
X14981500Y-12029000D02*
X14981500Y-12221000D01*
X14981500Y-12221000D02*
X15250000Y-12221000D01*
X15250000Y-9560000D02*
X15250000Y-9440000D01*
X15250000Y-9500000D02*
X15200000Y-9550000D01*
X15200000Y-9550000D02*
X15200000Y-9450000D01*
X15200000Y-9450000D02*
X15250000Y-9500000D01*
X15125000Y-9596000D02*
X15393500Y-9596000D01*
X15393500Y-9596000D02*
X15393500Y-9404000D01*
X15393500Y-9404000D02*
X15125000Y-9404000D01*
X13415000Y-12600000D02*
X13535000Y-12600000D01*
X13475000Y-12600000D02*
X13425000Y-12550000D01*
X13425000Y-12550000D02*
X13525000Y-12550000D01*
X13525000Y-12550000D02*
X13475000Y-12600000D01*
X13379000Y-12475000D02*
X13379000Y-12743500D01*
X13379000Y-12743500D02*
X13571000Y-12743500D01*
X13571000Y-12743500D02*
X13571000Y-12475000D01*
X13365000Y-9550000D02*
X13485000Y-9550000D01*
X13425000Y-9550000D02*
X13375000Y-9500000D01*
X13375000Y-9500000D02*
X13475000Y-9500000D01*
X13475000Y-9500000D02*
X13425000Y-9550000D01*
X13329000Y-9425000D02*
X13329000Y-9693500D01*
X13329000Y-9693500D02*
X13521000Y-9693500D01*
X13521000Y-9693500D02*
X13521000Y-9425000D01*
%LPC*%
D13*
X11375000Y-12585000D03*
X11629000Y-12585000D03*
X11883000Y-12585000D03*
X12137000Y-12585000D03*
X12391000Y-12585000D03*
X12391000Y-11215000D03*
X12137000Y-11215000D03*
X11883000Y-11215000D03*
X11629000Y-11215000D03*
X11375000Y-11215000D03*
D14*
X11613000Y-10810000D03*
X11867000Y-10810000D03*
X12121000Y-10810000D03*
X12375000Y-10810000D03*
X12121000Y-10556000D03*
X12375000Y-10556000D03*
X12121000Y-10302000D03*
X12375000Y-10302000D03*
X12375000Y-10048000D03*
X12121000Y-10048000D03*
X12375000Y-9794000D03*
X12121000Y-9794000D03*
X12375000Y-9540000D03*
X12121000Y-9540000D03*
X11867000Y-9540000D03*
X11613000Y-9540000D03*
D15*
X11383750Y-12850000D03*
X11566250Y-12850000D03*
D16*
X13047500Y-10050000D03*
D17*
X12902500Y-10050000D03*
D18*
X11300000Y-10802500D03*
D19*
X11300000Y-10947500D03*
D20*
X15930388Y-11026000D03*
X15930388Y-11280000D03*
X15930388Y-11534000D03*
X15930388Y-11788000D03*
X16700388Y-11788000D03*
X16700388Y-11026000D03*
X16700388Y-10001000D03*
X16700388Y-10763000D03*
X15930388Y-10763000D03*
X15930388Y-10509000D03*
X15930388Y-10255000D03*
X15930388Y-10001000D03*
D21*
X16525000Y-8800000D03*
X16525000Y-13100000D03*
X10775000Y-8800000D03*
X10775000Y-13100000D03*
D22*
X15243750Y-12125000D03*
X15056250Y-12125000D03*
D23*
X15131250Y-9500000D03*
X15318750Y-9500000D03*
D24*
X13475000Y-12481250D03*
X13475000Y-12668750D03*
X13425000Y-9431250D03*
X13425000Y-9618750D03*
M02*
