G04 #@! TF.GenerationSoftware,KiCad,Pcbnew,(6.0.0)*
G04 #@! TF.CreationDate,2022-01-21T17:49:37-05:00*
G04 #@! TF.ProjectId,serial_interface,73657269-616c-45f6-996e-746572666163,D1*
G04 #@! TF.SameCoordinates,Original*
G04 #@! TF.FileFunction,Legend,Bot*
G04 #@! TF.FilePolarity,Positive*
%FSLAX45Y45*%
G04 Gerber Fmt 4.5, Leading zero omitted, Abs format (unit mm)*
G04 Created by KiCad (PCBNEW (6.0.0)) date 2022-01-21 17:49:37*
%MOMM*%
%LPD*%
G01*
G04 APERTURE LIST*
G04 Aperture macros list*
%AMRoundRect*
0 Rectangle with rounded corners*
0 $1 Rounding radius*
0 $2 $3 $4 $5 $6 $7 $8 $9 X,Y pos of 4 corners*
0 Add a 4 corners polygon primitive as box body*
4,1,4,$2,$3,$4,$5,$6,$7,$8,$9,$2,$3,0*
0 Add four circle primitives for the rounded corners*
1,1,$1+$1,$2,$3*
1,1,$1+$1,$4,$5*
1,1,$1+$1,$6,$7*
1,1,$1+$1,$8,$9*
0 Add four rect primitives between the rounded corners*
20,1,$1+$1,$2,$3,$4,$5,0*
20,1,$1+$1,$4,$5,$6,$7,0*
20,1,$1+$1,$6,$7,$8,$9,0*
20,1,$1+$1,$8,$9,$2,$3,0*%
G04 Aperture macros list end*
%ADD10C,0.120000*%
%ADD11C,0.200000*%
%ADD12R,0.650000X1.220000*%
%ADD13R,1.220000X0.650000*%
%ADD14R,1.060000X0.650000*%
%ADD15C,1.900000*%
%ADD16RoundRect,0.250000X0.262500X0.450000X-0.262500X0.450000X-0.262500X-0.450000X0.262500X-0.450000X0*%
%ADD17RoundRect,0.250000X0.450000X-0.262500X0.450000X0.262500X-0.450000X0.262500X-0.450000X-0.262500X0*%
%ADD18RoundRect,0.250000X-0.262500X-0.450000X0.262500X-0.450000X0.262500X0.450000X-0.262500X0.450000X0*%
%ADD19RoundRect,0.250000X-0.450000X0.262500X-0.450000X-0.262500X0.450000X-0.262500X0.450000X0.262500X0*%
%ADD20O,2.600000X1.500000*%
%ADD21C,3.200000*%
%ADD22RoundRect,0.225000X-0.250000X0.225000X-0.250000X-0.225000X0.250000X-0.225000X0.250000X0.225000X0*%
%ADD23RoundRect,0.225000X0.225000X0.250000X-0.225000X0.250000X-0.225000X-0.250000X0.225000X-0.250000X0*%
%ADD24RoundRect,0.225000X0.250000X-0.225000X0.250000X0.225000X-0.250000X0.225000X-0.250000X-0.225000X0*%
%ADD25RoundRect,0.225000X-0.225000X-0.250000X0.225000X-0.250000X0.225000X0.250000X-0.225000X0.250000X0*%
G04 APERTURE END LIST*
D10*
X14991667Y-9963333D02*
X15048333Y-9963333D01*
X15055000Y-9966667D01*
X15058333Y-9970000D01*
X15061667Y-9976667D01*
X15061667Y-9990000D01*
X15058333Y-9996667D01*
X15055000Y-10000000D01*
X15048333Y-10003333D01*
X14991667Y-10003333D01*
X14991667Y-10030000D02*
X14991667Y-10073333D01*
X15018333Y-10050000D01*
X15018333Y-10060000D01*
X15021667Y-10066667D01*
X15025000Y-10070000D01*
X15031667Y-10073333D01*
X15048333Y-10073333D01*
X15055000Y-10070000D01*
X15058333Y-10066667D01*
X15061667Y-10060000D01*
X15061667Y-10040000D01*
X15058333Y-10033333D01*
X15055000Y-10030000D01*
X14991667Y-10096667D02*
X14991667Y-10140000D01*
X15018333Y-10116667D01*
X15018333Y-10126667D01*
X15021667Y-10133333D01*
X15025000Y-10136667D01*
X15031667Y-10140000D01*
X15048333Y-10140000D01*
X15055000Y-10136667D01*
X15058333Y-10133333D01*
X15061667Y-10126667D01*
X15061667Y-10106667D01*
X15058333Y-10100000D01*
X15055000Y-10096667D01*
X15753333Y-12031667D02*
X15753333Y-12088333D01*
X15750000Y-12095000D01*
X15746667Y-12098333D01*
X15740000Y-12101667D01*
X15726667Y-12101667D01*
X15720000Y-12098333D01*
X15716667Y-12095000D01*
X15713333Y-12088333D01*
X15713333Y-12031667D01*
X15646667Y-12031667D02*
X15680000Y-12031667D01*
X15683333Y-12065000D01*
X15680000Y-12061667D01*
X15673333Y-12058333D01*
X15656667Y-12058333D01*
X15650000Y-12061667D01*
X15646667Y-12065000D01*
X15643333Y-12071667D01*
X15643333Y-12088333D01*
X15646667Y-12095000D01*
X15650000Y-12098333D01*
X15656667Y-12101667D01*
X15673333Y-12101667D01*
X15680000Y-12098333D01*
X15683333Y-12095000D01*
X15053333Y-10486667D02*
X15053333Y-10543333D01*
X15050000Y-10550000D01*
X15046667Y-10553333D01*
X15040000Y-10556667D01*
X15026667Y-10556667D01*
X15020000Y-10553333D01*
X15016667Y-10550000D01*
X15013333Y-10543333D01*
X15013333Y-10486667D01*
X14950000Y-10510000D02*
X14950000Y-10556667D01*
X14966667Y-10483333D02*
X14983333Y-10533333D01*
X14940000Y-10533333D01*
X15228333Y-11136667D02*
X15228333Y-11193333D01*
X15225000Y-11200000D01*
X15221667Y-11203333D01*
X15215000Y-11206667D01*
X15201667Y-11206667D01*
X15195000Y-11203333D01*
X15191667Y-11200000D01*
X15188333Y-11193333D01*
X15188333Y-11136667D01*
X15161667Y-11136667D02*
X15118333Y-11136667D01*
X15141667Y-11163333D01*
X15131667Y-11163333D01*
X15125000Y-11166667D01*
X15121667Y-11170000D01*
X15118333Y-11176667D01*
X15118333Y-11193333D01*
X15121667Y-11200000D01*
X15125000Y-11203333D01*
X15131667Y-11206667D01*
X15151667Y-11206667D01*
X15158333Y-11203333D01*
X15161667Y-11200000D01*
X11620000Y-9406667D02*
X11580000Y-9406667D01*
X11600000Y-9406667D02*
X11600000Y-9336667D01*
X11593333Y-9346667D01*
X11586667Y-9353333D01*
X11580000Y-9356667D01*
X12511667Y-10331667D02*
X12525000Y-10331667D01*
X12531667Y-10328333D01*
X12535000Y-10325000D01*
X12541667Y-10315000D01*
X12545000Y-10301667D01*
X12545000Y-10275000D01*
X12541667Y-10268333D01*
X12538333Y-10265000D01*
X12531667Y-10261667D01*
X12518333Y-10261667D01*
X12511667Y-10265000D01*
X12508333Y-10268333D01*
X12505000Y-10275000D01*
X12505000Y-10291667D01*
X12508333Y-10298333D01*
X12511667Y-10301667D01*
X12518333Y-10305000D01*
X12531667Y-10305000D01*
X12538333Y-10301667D01*
X12541667Y-10298333D01*
X12545000Y-10291667D01*
X11936667Y-10581667D02*
X11896667Y-10581667D01*
X11916667Y-10581667D02*
X11916667Y-10511667D01*
X11910000Y-10521667D01*
X11903333Y-10528333D01*
X11896667Y-10531667D01*
X11963333Y-10518333D02*
X11966667Y-10515000D01*
X11973333Y-10511667D01*
X11990000Y-10511667D01*
X11996667Y-10515000D01*
X12000000Y-10518333D01*
X12003333Y-10525000D01*
X12003333Y-10531667D01*
X12000000Y-10541667D01*
X11960000Y-10581667D01*
X12003333Y-10581667D01*
X11991667Y-9761667D02*
X11958333Y-9761667D01*
X11955000Y-9795000D01*
X11958333Y-9791667D01*
X11965000Y-9788333D01*
X11981667Y-9788333D01*
X11988333Y-9791667D01*
X11991667Y-9795000D01*
X11995000Y-9801667D01*
X11995000Y-9818333D01*
X11991667Y-9825000D01*
X11988333Y-9828333D01*
X11981667Y-9831667D01*
X11965000Y-9831667D01*
X11958333Y-9828333D01*
X11955000Y-9825000D01*
X11855000Y-9343333D02*
X11858333Y-9340000D01*
X11865000Y-9336667D01*
X11881667Y-9336667D01*
X11888333Y-9340000D01*
X11891667Y-9343333D01*
X11895000Y-9350000D01*
X11895000Y-9356667D01*
X11891667Y-9366667D01*
X11851667Y-9406667D01*
X11895000Y-9406667D01*
X11936667Y-10331667D02*
X11896667Y-10331667D01*
X11916667Y-10331667D02*
X11916667Y-10261667D01*
X11910000Y-10271667D01*
X11903333Y-10278333D01*
X11896667Y-10281667D01*
X11980000Y-10261667D02*
X11986667Y-10261667D01*
X11993333Y-10265000D01*
X11996667Y-10268333D01*
X12000000Y-10275000D01*
X12003333Y-10288333D01*
X12003333Y-10305000D01*
X12000000Y-10318333D01*
X11996667Y-10325000D01*
X11993333Y-10328333D01*
X11986667Y-10331667D01*
X11980000Y-10331667D01*
X11973333Y-10328333D01*
X11970000Y-10325000D01*
X11966667Y-10318333D01*
X11963333Y-10305000D01*
X11963333Y-10288333D01*
X11966667Y-10275000D01*
X11970000Y-10268333D01*
X11973333Y-10265000D01*
X11980000Y-10261667D01*
X12101667Y-9336667D02*
X12145000Y-9336667D01*
X12121667Y-9363333D01*
X12131667Y-9363333D01*
X12138333Y-9366667D01*
X12141667Y-9370000D01*
X12145000Y-9376667D01*
X12145000Y-9393333D01*
X12141667Y-9400000D01*
X12138333Y-9403333D01*
X12131667Y-9406667D01*
X12111667Y-9406667D01*
X12105000Y-9403333D01*
X12101667Y-9400000D01*
X11586667Y-11006667D02*
X11546667Y-11006667D01*
X11566667Y-11006667D02*
X11566667Y-10936667D01*
X11560000Y-10946667D01*
X11553333Y-10953333D01*
X11546667Y-10956667D01*
X11646667Y-10936667D02*
X11633333Y-10936667D01*
X11626667Y-10940000D01*
X11623333Y-10943333D01*
X11616667Y-10953333D01*
X11613333Y-10966667D01*
X11613333Y-10993333D01*
X11616667Y-11000000D01*
X11620000Y-11003333D01*
X11626667Y-11006667D01*
X11640000Y-11006667D01*
X11646667Y-11003333D01*
X11650000Y-11000000D01*
X11653333Y-10993333D01*
X11653333Y-10976667D01*
X11650000Y-10970000D01*
X11646667Y-10966667D01*
X11640000Y-10963333D01*
X11626667Y-10963333D01*
X11620000Y-10966667D01*
X11616667Y-10970000D01*
X11613333Y-10976667D01*
X12361667Y-11006667D02*
X12321667Y-11006667D01*
X12341667Y-11006667D02*
X12341667Y-10936667D01*
X12335000Y-10946667D01*
X12328333Y-10953333D01*
X12321667Y-10956667D01*
X12385000Y-10936667D02*
X12428333Y-10936667D01*
X12405000Y-10963333D01*
X12415000Y-10963333D01*
X12421667Y-10966667D01*
X12425000Y-10970000D01*
X12428333Y-10976667D01*
X12428333Y-10993333D01*
X12425000Y-11000000D01*
X12421667Y-11003333D01*
X12415000Y-11006667D01*
X12395000Y-11006667D01*
X12388333Y-11003333D01*
X12385000Y-11000000D01*
X12538333Y-9761667D02*
X12525000Y-9761667D01*
X12518333Y-9765000D01*
X12515000Y-9768333D01*
X12508333Y-9778333D01*
X12505000Y-9791667D01*
X12505000Y-9818333D01*
X12508333Y-9825000D01*
X12511667Y-9828333D01*
X12518333Y-9831667D01*
X12531667Y-9831667D01*
X12538333Y-9828333D01*
X12541667Y-9825000D01*
X12545000Y-9818333D01*
X12545000Y-9801667D01*
X12541667Y-9795000D01*
X12538333Y-9791667D01*
X12531667Y-9788333D01*
X12518333Y-9788333D01*
X12511667Y-9791667D01*
X12508333Y-9795000D01*
X12505000Y-9801667D01*
X11861667Y-11006667D02*
X11821667Y-11006667D01*
X11841667Y-11006667D02*
X11841667Y-10936667D01*
X11835000Y-10946667D01*
X11828333Y-10953333D01*
X11821667Y-10956667D01*
X11925000Y-10936667D02*
X11891667Y-10936667D01*
X11888333Y-10970000D01*
X11891667Y-10966667D01*
X11898333Y-10963333D01*
X11915000Y-10963333D01*
X11921667Y-10966667D01*
X11925000Y-10970000D01*
X11928333Y-10976667D01*
X11928333Y-10993333D01*
X11925000Y-11000000D01*
X11921667Y-11003333D01*
X11915000Y-11006667D01*
X11898333Y-11006667D01*
X11891667Y-11003333D01*
X11888333Y-11000000D01*
X12388333Y-9360000D02*
X12388333Y-9406667D01*
X12371667Y-9333333D02*
X12355000Y-9383333D01*
X12398333Y-9383333D01*
X12536667Y-10581667D02*
X12496667Y-10581667D01*
X12516667Y-10581667D02*
X12516667Y-10511667D01*
X12510000Y-10521667D01*
X12503333Y-10528333D01*
X12496667Y-10531667D01*
X12603333Y-10581667D02*
X12563333Y-10581667D01*
X12583333Y-10581667D02*
X12583333Y-10511667D01*
X12576667Y-10521667D01*
X12570000Y-10528333D01*
X12563333Y-10531667D01*
X12111667Y-11006667D02*
X12071667Y-11006667D01*
X12091667Y-11006667D02*
X12091667Y-10936667D01*
X12085000Y-10946667D01*
X12078333Y-10953333D01*
X12071667Y-10956667D01*
X12171667Y-10960000D02*
X12171667Y-11006667D01*
X12155000Y-10933333D02*
X12138333Y-10983333D01*
X12181667Y-10983333D01*
X12518333Y-10041667D02*
X12511667Y-10038333D01*
X12508333Y-10035000D01*
X12505000Y-10028333D01*
X12505000Y-10025000D01*
X12508333Y-10018333D01*
X12511667Y-10015000D01*
X12518333Y-10011667D01*
X12531667Y-10011667D01*
X12538333Y-10015000D01*
X12541667Y-10018333D01*
X12545000Y-10025000D01*
X12545000Y-10028333D01*
X12541667Y-10035000D01*
X12538333Y-10038333D01*
X12531667Y-10041667D01*
X12518333Y-10041667D01*
X12511667Y-10045000D01*
X12508333Y-10048333D01*
X12505000Y-10055000D01*
X12505000Y-10068333D01*
X12508333Y-10075000D01*
X12511667Y-10078333D01*
X12518333Y-10081667D01*
X12531667Y-10081667D01*
X12538333Y-10078333D01*
X12541667Y-10075000D01*
X12545000Y-10068333D01*
X12545000Y-10055000D01*
X12541667Y-10048333D01*
X12538333Y-10045000D01*
X12531667Y-10041667D01*
X11951667Y-10011667D02*
X11998333Y-10011667D01*
X11968333Y-10081667D01*
X15570000Y-11791667D02*
X15593333Y-11758333D01*
X15610000Y-11791667D02*
X15610000Y-11721667D01*
X15583333Y-11721667D01*
X15576667Y-11725000D01*
X15573333Y-11728333D01*
X15570000Y-11735000D01*
X15570000Y-11745000D01*
X15573333Y-11751667D01*
X15576667Y-11755000D01*
X15583333Y-11758333D01*
X15610000Y-11758333D01*
X15503333Y-11791667D02*
X15543333Y-11791667D01*
X15523333Y-11791667D02*
X15523333Y-11721667D01*
X15530000Y-11731667D01*
X15536667Y-11738333D01*
X15543333Y-11741667D01*
X15443333Y-11745000D02*
X15443333Y-11791667D01*
X15460000Y-11718333D02*
X15476667Y-11768333D01*
X15433333Y-11768333D01*
X16221667Y-12405000D02*
X16188333Y-12381667D01*
X16221667Y-12365000D02*
X16151667Y-12365000D01*
X16151667Y-12391667D01*
X16155000Y-12398333D01*
X16158333Y-12401667D01*
X16165000Y-12405000D01*
X16175000Y-12405000D01*
X16181667Y-12401667D01*
X16185000Y-12398333D01*
X16188333Y-12391667D01*
X16188333Y-12365000D01*
X16221667Y-12471667D02*
X16221667Y-12431667D01*
X16221667Y-12451667D02*
X16151667Y-12451667D01*
X16161667Y-12445000D01*
X16168333Y-12438333D01*
X16171667Y-12431667D01*
X16151667Y-12495000D02*
X16151667Y-12538333D01*
X16178333Y-12515000D01*
X16178333Y-12525000D01*
X16181667Y-12531667D01*
X16185000Y-12535000D01*
X16191667Y-12538333D01*
X16208333Y-12538333D01*
X16215000Y-12535000D01*
X16218333Y-12531667D01*
X16221667Y-12525000D01*
X16221667Y-12505000D01*
X16218333Y-12498333D01*
X16215000Y-12495000D01*
X15695000Y-12796667D02*
X15718333Y-12763333D01*
X15735000Y-12796667D02*
X15735000Y-12726667D01*
X15708333Y-12726667D01*
X15701667Y-12730000D01*
X15698333Y-12733333D01*
X15695000Y-12740000D01*
X15695000Y-12750000D01*
X15698333Y-12756667D01*
X15701667Y-12760000D01*
X15708333Y-12763333D01*
X15735000Y-12763333D01*
X15628333Y-12796667D02*
X15668333Y-12796667D01*
X15648333Y-12796667D02*
X15648333Y-12726667D01*
X15655000Y-12736667D01*
X15661667Y-12743333D01*
X15668333Y-12746667D01*
X15601667Y-12733333D02*
X15598333Y-12730000D01*
X15591667Y-12726667D01*
X15575000Y-12726667D01*
X15568333Y-12730000D01*
X15565000Y-12733333D01*
X15561667Y-12740000D01*
X15561667Y-12746667D01*
X15565000Y-12756667D01*
X15605000Y-12796667D01*
X15561667Y-12796667D01*
X15241667Y-12500000D02*
X15208333Y-12476667D01*
X15241667Y-12460000D02*
X15171667Y-12460000D01*
X15171667Y-12486667D01*
X15175000Y-12493333D01*
X15178333Y-12496667D01*
X15185000Y-12500000D01*
X15195000Y-12500000D01*
X15201667Y-12496667D01*
X15205000Y-12493333D01*
X15208333Y-12486667D01*
X15208333Y-12460000D01*
X15241667Y-12566667D02*
X15241667Y-12526667D01*
X15241667Y-12546667D02*
X15171667Y-12546667D01*
X15181667Y-12540000D01*
X15188333Y-12533333D01*
X15191667Y-12526667D01*
X15241667Y-12633333D02*
X15241667Y-12593333D01*
X15241667Y-12613333D02*
X15171667Y-12613333D01*
X15181667Y-12606667D01*
X15188333Y-12600000D01*
X15191667Y-12593333D01*
X15470000Y-9856667D02*
X15493333Y-9823333D01*
X15510000Y-9856667D02*
X15510000Y-9786667D01*
X15483333Y-9786667D01*
X15476667Y-9790000D01*
X15473333Y-9793333D01*
X15470000Y-9800000D01*
X15470000Y-9810000D01*
X15473333Y-9816667D01*
X15476667Y-9820000D01*
X15483333Y-9823333D01*
X15510000Y-9823333D01*
X15403333Y-9856667D02*
X15443333Y-9856667D01*
X15423333Y-9856667D02*
X15423333Y-9786667D01*
X15430000Y-9796667D01*
X15436667Y-9803333D01*
X15443333Y-9806667D01*
X15360000Y-9786667D02*
X15353333Y-9786667D01*
X15346667Y-9790000D01*
X15343333Y-9793333D01*
X15340000Y-9800000D01*
X15336667Y-9813333D01*
X15336667Y-9830000D01*
X15340000Y-9843333D01*
X15343333Y-9850000D01*
X15346667Y-9853333D01*
X15353333Y-9856667D01*
X15360000Y-9856667D01*
X15366667Y-9853333D01*
X15370000Y-9850000D01*
X15373333Y-9843333D01*
X15376667Y-9830000D01*
X15376667Y-9813333D01*
X15373333Y-9800000D01*
X15370000Y-9793333D01*
X15366667Y-9790000D01*
X15360000Y-9786667D01*
X14661667Y-10446667D02*
X14685000Y-10413333D01*
X14701667Y-10446667D02*
X14701667Y-10376667D01*
X14675000Y-10376667D01*
X14668333Y-10380000D01*
X14665000Y-10383333D01*
X14661667Y-10390000D01*
X14661667Y-10400000D01*
X14665000Y-10406667D01*
X14668333Y-10410000D01*
X14675000Y-10413333D01*
X14701667Y-10413333D01*
X14628333Y-10446667D02*
X14615000Y-10446667D01*
X14608333Y-10443333D01*
X14605000Y-10440000D01*
X14598333Y-10430000D01*
X14595000Y-10416667D01*
X14595000Y-10390000D01*
X14598333Y-10383333D01*
X14601667Y-10380000D01*
X14608333Y-10376667D01*
X14621667Y-10376667D01*
X14628333Y-10380000D01*
X14631667Y-10383333D01*
X14635000Y-10390000D01*
X14635000Y-10406667D01*
X14631667Y-10413333D01*
X14628333Y-10416667D01*
X14621667Y-10420000D01*
X14608333Y-10420000D01*
X14601667Y-10416667D01*
X14598333Y-10413333D01*
X14595000Y-10406667D01*
X14366667Y-9863333D02*
X14333333Y-9840000D01*
X14366667Y-9823333D02*
X14296667Y-9823333D01*
X14296667Y-9850000D01*
X14300000Y-9856667D01*
X14303333Y-9860000D01*
X14310000Y-9863333D01*
X14320000Y-9863333D01*
X14326667Y-9860000D01*
X14330000Y-9856667D01*
X14333333Y-9850000D01*
X14333333Y-9823333D01*
X14326667Y-9903333D02*
X14323333Y-9896667D01*
X14320000Y-9893333D01*
X14313333Y-9890000D01*
X14310000Y-9890000D01*
X14303333Y-9893333D01*
X14300000Y-9896667D01*
X14296667Y-9903333D01*
X14296667Y-9916667D01*
X14300000Y-9923333D01*
X14303333Y-9926667D01*
X14310000Y-9930000D01*
X14313333Y-9930000D01*
X14320000Y-9926667D01*
X14323333Y-9923333D01*
X14326667Y-9916667D01*
X14326667Y-9903333D01*
X14330000Y-9896667D01*
X14333333Y-9893333D01*
X14340000Y-9890000D01*
X14353333Y-9890000D01*
X14360000Y-9893333D01*
X14363333Y-9896667D01*
X14366667Y-9903333D01*
X14366667Y-9916667D01*
X14363333Y-9923333D01*
X14360000Y-9926667D01*
X14353333Y-9930000D01*
X14340000Y-9930000D01*
X14333333Y-9926667D01*
X14330000Y-9923333D01*
X14326667Y-9916667D01*
X14586667Y-9466667D02*
X14610000Y-9433333D01*
X14626667Y-9466667D02*
X14626667Y-9396667D01*
X14600000Y-9396667D01*
X14593333Y-9400000D01*
X14590000Y-9403333D01*
X14586667Y-9410000D01*
X14586667Y-9420000D01*
X14590000Y-9426667D01*
X14593333Y-9430000D01*
X14600000Y-9433333D01*
X14626667Y-9433333D01*
X14563333Y-9396667D02*
X14516667Y-9396667D01*
X14546667Y-9466667D01*
X13111667Y-12696667D02*
X13135000Y-12663333D01*
X13151667Y-12696667D02*
X13151667Y-12626667D01*
X13125000Y-12626667D01*
X13118333Y-12630000D01*
X13115000Y-12633333D01*
X13111667Y-12640000D01*
X13111667Y-12650000D01*
X13115000Y-12656667D01*
X13118333Y-12660000D01*
X13125000Y-12663333D01*
X13151667Y-12663333D01*
X13051667Y-12626667D02*
X13065000Y-12626667D01*
X13071667Y-12630000D01*
X13075000Y-12633333D01*
X13081667Y-12643333D01*
X13085000Y-12656667D01*
X13085000Y-12683333D01*
X13081667Y-12690000D01*
X13078333Y-12693333D01*
X13071667Y-12696667D01*
X13058333Y-12696667D01*
X13051667Y-12693333D01*
X13048333Y-12690000D01*
X13045000Y-12683333D01*
X13045000Y-12666667D01*
X13048333Y-12660000D01*
X13051667Y-12656667D01*
X13058333Y-12653333D01*
X13071667Y-12653333D01*
X13078333Y-12656667D01*
X13081667Y-12660000D01*
X13085000Y-12666667D01*
X13320417Y-9546667D02*
X13343750Y-9513333D01*
X13360417Y-9546667D02*
X13360417Y-9476667D01*
X13333750Y-9476667D01*
X13327083Y-9480000D01*
X13323750Y-9483333D01*
X13320417Y-9490000D01*
X13320417Y-9500000D01*
X13323750Y-9506667D01*
X13327083Y-9510000D01*
X13333750Y-9513333D01*
X13360417Y-9513333D01*
X13257083Y-9476667D02*
X13290417Y-9476667D01*
X13293750Y-9510000D01*
X13290417Y-9506667D01*
X13283750Y-9503333D01*
X13267083Y-9503333D01*
X13260417Y-9506667D01*
X13257083Y-9510000D01*
X13253750Y-9516667D01*
X13253750Y-9533333D01*
X13257083Y-9540000D01*
X13260417Y-9543333D01*
X13267083Y-9546667D01*
X13283750Y-9546667D01*
X13290417Y-9543333D01*
X13293750Y-9540000D01*
X16336667Y-11831667D02*
X16360000Y-11798333D01*
X16376667Y-11831667D02*
X16376667Y-11761667D01*
X16350000Y-11761667D01*
X16343333Y-11765000D01*
X16340000Y-11768333D01*
X16336667Y-11775000D01*
X16336667Y-11785000D01*
X16340000Y-11791667D01*
X16343333Y-11795000D01*
X16350000Y-11798333D01*
X16376667Y-11798333D01*
X16276667Y-11785000D02*
X16276667Y-11831667D01*
X16293333Y-11758333D02*
X16310000Y-11808333D01*
X16266667Y-11808333D01*
X15791667Y-9688333D02*
X15758333Y-9665000D01*
X15791667Y-9648333D02*
X15721667Y-9648333D01*
X15721667Y-9675000D01*
X15725000Y-9681667D01*
X15728333Y-9685000D01*
X15735000Y-9688333D01*
X15745000Y-9688333D01*
X15751667Y-9685000D01*
X15755000Y-9681667D01*
X15758333Y-9675000D01*
X15758333Y-9648333D01*
X15721667Y-9711667D02*
X15721667Y-9755000D01*
X15748333Y-9731667D01*
X15748333Y-9741667D01*
X15751667Y-9748333D01*
X15755000Y-9751667D01*
X15761667Y-9755000D01*
X15778333Y-9755000D01*
X15785000Y-9751667D01*
X15788333Y-9748333D01*
X15791667Y-9741667D01*
X15791667Y-9721667D01*
X15788333Y-9715000D01*
X15785000Y-9711667D01*
X12836667Y-10771667D02*
X12860000Y-10738333D01*
X12876667Y-10771667D02*
X12876667Y-10701667D01*
X12850000Y-10701667D01*
X12843333Y-10705000D01*
X12840000Y-10708333D01*
X12836667Y-10715000D01*
X12836667Y-10725000D01*
X12840000Y-10731667D01*
X12843333Y-10735000D01*
X12850000Y-10738333D01*
X12876667Y-10738333D01*
X12810000Y-10708333D02*
X12806667Y-10705000D01*
X12800000Y-10701667D01*
X12783333Y-10701667D01*
X12776667Y-10705000D01*
X12773333Y-10708333D01*
X12770000Y-10715000D01*
X12770000Y-10721667D01*
X12773333Y-10731667D01*
X12813333Y-10771667D01*
X12770000Y-10771667D01*
X15263000Y-12183333D02*
X15266333Y-12180000D01*
X15269667Y-12170000D01*
X15269667Y-12163333D01*
X15266333Y-12153333D01*
X15259667Y-12146667D01*
X15253000Y-12143333D01*
X15239667Y-12140000D01*
X15229667Y-12140000D01*
X15216333Y-12143333D01*
X15209667Y-12146667D01*
X15203000Y-12153333D01*
X15199667Y-12163333D01*
X15199667Y-12170000D01*
X15203000Y-12180000D01*
X15206333Y-12183333D01*
X15199667Y-12243333D02*
X15199667Y-12230000D01*
X15203000Y-12223333D01*
X15206333Y-12220000D01*
X15216333Y-12213333D01*
X15229667Y-12210000D01*
X15256333Y-12210000D01*
X15263000Y-12213333D01*
X15266333Y-12216667D01*
X15269667Y-12223333D01*
X15269667Y-12236667D01*
X15266333Y-12243333D01*
X15263000Y-12246667D01*
X15256333Y-12250000D01*
X15239667Y-12250000D01*
X15233000Y-12246667D01*
X15229667Y-12243333D01*
X15226333Y-12236667D01*
X15226333Y-12223333D01*
X15229667Y-12216667D01*
X15233000Y-12213333D01*
X15239667Y-12210000D01*
X14861667Y-9507000D02*
X14865000Y-9510333D01*
X14875000Y-9513667D01*
X14881667Y-9513667D01*
X14891667Y-9510333D01*
X14898333Y-9503667D01*
X14901667Y-9497000D01*
X14905000Y-9483667D01*
X14905000Y-9473667D01*
X14901667Y-9460333D01*
X14898333Y-9453667D01*
X14891667Y-9447000D01*
X14881667Y-9443667D01*
X14875000Y-9443667D01*
X14865000Y-9447000D01*
X14861667Y-9450333D01*
X14798333Y-9443667D02*
X14831667Y-9443667D01*
X14835000Y-9477000D01*
X14831667Y-9473667D01*
X14825000Y-9470333D01*
X14808333Y-9470333D01*
X14801667Y-9473667D01*
X14798333Y-9477000D01*
X14795000Y-9483667D01*
X14795000Y-9500333D01*
X14798333Y-9507000D01*
X14801667Y-9510333D01*
X14808333Y-9513667D01*
X14825000Y-9513667D01*
X14831667Y-9510333D01*
X14835000Y-9507000D01*
X16300000Y-11363333D02*
X16303333Y-11360000D01*
X16306667Y-11350000D01*
X16306667Y-11343333D01*
X16303333Y-11333333D01*
X16296667Y-11326667D01*
X16290000Y-11323333D01*
X16276667Y-11320000D01*
X16266667Y-11320000D01*
X16253333Y-11323333D01*
X16246667Y-11326667D01*
X16240000Y-11333333D01*
X16236667Y-11343333D01*
X16236667Y-11350000D01*
X16240000Y-11360000D01*
X16243333Y-11363333D01*
X16260000Y-11423333D02*
X16306667Y-11423333D01*
X16233333Y-11406667D02*
X16283333Y-11390000D01*
X16283333Y-11433333D01*
X16318000Y-10238333D02*
X16321333Y-10235000D01*
X16324667Y-10225000D01*
X16324667Y-10218333D01*
X16321333Y-10208333D01*
X16314667Y-10201667D01*
X16308000Y-10198333D01*
X16294667Y-10195000D01*
X16284667Y-10195000D01*
X16271333Y-10198333D01*
X16264667Y-10201667D01*
X16258000Y-10208333D01*
X16254667Y-10218333D01*
X16254667Y-10225000D01*
X16258000Y-10235000D01*
X16261333Y-10238333D01*
X16254667Y-10261667D02*
X16254667Y-10305000D01*
X16281333Y-10281667D01*
X16281333Y-10291667D01*
X16284667Y-10298333D01*
X16288000Y-10301667D01*
X16294667Y-10305000D01*
X16311333Y-10305000D01*
X16318000Y-10301667D01*
X16321333Y-10298333D01*
X16324667Y-10291667D01*
X16324667Y-10271667D01*
X16321333Y-10265000D01*
X16318000Y-10261667D01*
X15586667Y-10925000D02*
X15590000Y-10928333D01*
X15600000Y-10931667D01*
X15606667Y-10931667D01*
X15616667Y-10928333D01*
X15623333Y-10921667D01*
X15626667Y-10915000D01*
X15630000Y-10901667D01*
X15630000Y-10891667D01*
X15626667Y-10878333D01*
X15623333Y-10871667D01*
X15616667Y-10865000D01*
X15606667Y-10861667D01*
X15600000Y-10861667D01*
X15590000Y-10865000D01*
X15586667Y-10868333D01*
X15560000Y-10868333D02*
X15556667Y-10865000D01*
X15550000Y-10861667D01*
X15533333Y-10861667D01*
X15526667Y-10865000D01*
X15523333Y-10868333D01*
X15520000Y-10875000D01*
X15520000Y-10881667D01*
X15523333Y-10891667D01*
X15563333Y-10931667D01*
X15520000Y-10931667D01*
X15586667Y-10725000D02*
X15590000Y-10728333D01*
X15600000Y-10731667D01*
X15606667Y-10731667D01*
X15616667Y-10728333D01*
X15623333Y-10721667D01*
X15626667Y-10715000D01*
X15630000Y-10701667D01*
X15630000Y-10691667D01*
X15626667Y-10678333D01*
X15623333Y-10671667D01*
X15616667Y-10665000D01*
X15606667Y-10661667D01*
X15600000Y-10661667D01*
X15590000Y-10665000D01*
X15586667Y-10668333D01*
X15520000Y-10731667D02*
X15560000Y-10731667D01*
X15540000Y-10731667D02*
X15540000Y-10661667D01*
X15546667Y-10671667D01*
X15553333Y-10678333D01*
X15560000Y-10681667D01*
X14951000Y-9855000D02*
X14951000Y-10080000D01*
X14644000Y-10013000D02*
X14644000Y-9837000D01*
D11*
X14910000Y-9965000D02*
G75*
G03*
X14910000Y-9965000I-10000J0D01*
G01*
D10*
X15630000Y-12149000D02*
X15855000Y-12149000D01*
X15788000Y-12456000D02*
X15612000Y-12456000D01*
D11*
X15750000Y-12200000D02*
G75*
G03*
X15750000Y-12200000I-10000J0D01*
G01*
D10*
X15185000Y-10279000D02*
X15365000Y-10279000D01*
X15325000Y-10601000D02*
X15120000Y-10601000D01*
D11*
X15265000Y-10540000D02*
G75*
G03*
X15265000Y-10540000I-10000J0D01*
G01*
D10*
X15540000Y-11336000D02*
X15360000Y-11336000D01*
X15400000Y-11014000D02*
X15605000Y-11014000D01*
D11*
X15480000Y-11075000D02*
G75*
G03*
X15480000Y-11075000I-10000J0D01*
G01*
D10*
X15547706Y-11851500D02*
X15502294Y-11851500D01*
X15547706Y-11998500D02*
X15502294Y-11998500D01*
X16098500Y-12472706D02*
X16098500Y-12427294D01*
X15951500Y-12472706D02*
X15951500Y-12427294D01*
X15627294Y-12673500D02*
X15672706Y-12673500D01*
X15627294Y-12526500D02*
X15672706Y-12526500D01*
X15301500Y-12522294D02*
X15301500Y-12567706D01*
X15448500Y-12522294D02*
X15448500Y-12567706D01*
X15127294Y-9898500D02*
X15172706Y-9898500D01*
X15127294Y-9751500D02*
X15172706Y-9751500D01*
X14627294Y-10323500D02*
X14672706Y-10323500D01*
X14627294Y-10176500D02*
X14672706Y-10176500D01*
X14426500Y-9852294D02*
X14426500Y-9897706D01*
X14573500Y-9852294D02*
X14573500Y-9897706D01*
X14597706Y-9526500D02*
X14552294Y-9526500D01*
X14597706Y-9673500D02*
X14552294Y-9673500D01*
X13077294Y-12573500D02*
X13122706Y-12573500D01*
X13077294Y-12426500D02*
X13122706Y-12426500D01*
X13286044Y-9423500D02*
X13331456Y-9423500D01*
X13286044Y-9276500D02*
X13331456Y-9276500D01*
X16347706Y-11576500D02*
X16302294Y-11576500D01*
X16347706Y-11723500D02*
X16302294Y-11723500D01*
X15851500Y-9677294D02*
X15851500Y-9722706D01*
X15998500Y-9677294D02*
X15998500Y-9722706D01*
X12802294Y-10648500D02*
X12847706Y-10648500D01*
X12802294Y-10501500D02*
X12847706Y-10501500D01*
X15432000Y-12180942D02*
X15432000Y-12209058D01*
X15330000Y-12180942D02*
X15330000Y-12209058D01*
X14914058Y-9574000D02*
X14885942Y-9574000D01*
X14914058Y-9676000D02*
X14885942Y-9676000D01*
X16099000Y-11385942D02*
X16099000Y-11414058D01*
X16201000Y-11385942D02*
X16201000Y-11414058D01*
X16201000Y-10264058D02*
X16201000Y-10235942D01*
X16099000Y-10264058D02*
X16099000Y-10235942D01*
X15335942Y-10751000D02*
X15364058Y-10751000D01*
X15335942Y-10649000D02*
X15364058Y-10649000D01*
X15364058Y-10864000D02*
X15335942Y-10864000D01*
X15364058Y-10966000D02*
X15335942Y-10966000D01*
%LPC*%
D12*
X14895000Y-9794000D03*
X14800000Y-9794000D03*
X14705000Y-9794000D03*
X14705000Y-10056000D03*
X14800000Y-10056000D03*
X14895000Y-10056000D03*
D13*
X15569000Y-12205000D03*
X15569000Y-12300000D03*
X15569000Y-12395000D03*
X15831000Y-12395000D03*
X15831000Y-12300000D03*
X15831000Y-12205000D03*
D14*
X15165000Y-10535000D03*
X15165000Y-10440000D03*
X15165000Y-10345000D03*
X15385000Y-10345000D03*
X15385000Y-10535000D03*
X15560000Y-11080000D03*
X15560000Y-11175000D03*
X15560000Y-11270000D03*
X15340000Y-11270000D03*
X15340000Y-11080000D03*
D15*
X11613000Y-10810000D03*
X11867000Y-10810000D03*
X12121000Y-10810000D03*
X12375000Y-10810000D03*
X12121000Y-10556000D03*
X12375000Y-10556000D03*
X12121000Y-10302000D03*
X12375000Y-10302000D03*
X12375000Y-10048000D03*
X12121000Y-10048000D03*
X12375000Y-9794000D03*
X12121000Y-9794000D03*
X12375000Y-9540000D03*
X12121000Y-9540000D03*
X11867000Y-9540000D03*
X11613000Y-9540000D03*
D16*
X15616250Y-11925000D03*
X15433750Y-11925000D03*
D17*
X16025000Y-12541250D03*
X16025000Y-12358750D03*
D18*
X15558750Y-12600000D03*
X15741250Y-12600000D03*
D19*
X15375000Y-12453750D03*
X15375000Y-12636250D03*
D18*
X15058750Y-9825000D03*
X15241250Y-9825000D03*
X14558750Y-10250000D03*
X14741250Y-10250000D03*
D19*
X14500000Y-9783750D03*
X14500000Y-9966250D03*
D16*
X14666250Y-9600000D03*
X14483750Y-9600000D03*
D18*
X13008750Y-12500000D03*
X13191250Y-12500000D03*
X13217500Y-9350000D03*
X13400000Y-9350000D03*
D16*
X16416250Y-11650000D03*
X16233750Y-11650000D03*
D19*
X15925000Y-9608750D03*
X15925000Y-9791250D03*
D18*
X12733750Y-10575000D03*
X12916250Y-10575000D03*
D20*
X15930388Y-11026000D03*
X15930388Y-11280000D03*
X15930388Y-11534000D03*
X15930388Y-11788000D03*
X16700388Y-11788000D03*
X16700388Y-11026000D03*
X16700388Y-10001000D03*
X16700388Y-10763000D03*
X15930388Y-10763000D03*
X15930388Y-10509000D03*
X15930388Y-10255000D03*
X15930388Y-10001000D03*
D21*
X16525000Y-8800000D03*
X16525000Y-13100000D03*
X10775000Y-8800000D03*
X10775000Y-13100000D03*
D22*
X15381000Y-12272500D03*
X15381000Y-12117500D03*
D23*
X14977500Y-9625000D03*
X14822500Y-9625000D03*
D22*
X16150000Y-11322500D03*
X16150000Y-11477500D03*
D24*
X16150000Y-10327500D03*
X16150000Y-10172500D03*
D25*
X15272500Y-10700000D03*
X15427500Y-10700000D03*
D23*
X15427500Y-10915000D03*
X15272500Y-10915000D03*
M02*
