M48
METRIC,TZ
T1C0.300
T2C1.000
T3C1.100
%
G90
G05
T1
X116250Y-123750
X116290Y-113960
X121250Y-114000
X129875Y-127875
X132175Y-91325
X133250Y-125000
X135500Y-93500
X145000Y-100750
X146500Y-114250
X146500Y-115750
X146625Y-127875
X148000Y-99250
X149775Y-95250
X150550Y-103450
X151250Y-96750
X152500Y-119750
X155000Y-120750
X155500Y-102500
X155500Y-105000
X155600Y-113600
X157000Y-123000
X158750Y-126000
X159250Y-94250
T2
X159304Y-100010
X159304Y-102550
X159304Y-105090
X159304Y-107630
X159304Y-110260
X159304Y-112800
X159304Y-115340
X159304Y-117880
X167004Y-100010
X167004Y-107630
X167004Y-110260
X167004Y-117880
T3
X116130Y-95400
X116130Y-108100
X118670Y-95400
X118670Y-108100
X121210Y-95400
X121210Y-97940
X121210Y-100480
X121210Y-103020
X121210Y-105560
X121210Y-108100
X123750Y-95400
X123750Y-97940
X123750Y-100480
X123750Y-103020
X123750Y-105560
X123750Y-108100
T0
M30
