<?xml version="1.0" standalone="no"?>
 <!DOCTYPE svg PUBLIC "-//W3C//DTD SVG 1.1//EN" 
 "http://www.w3.org/Graphics/SVG/1.1/DTD/svg11.dtd"> 
<svg
  xmlns:svg="http://www.w3.org/2000/svg"
  xmlns="http://www.w3.org/2000/svg"
  xmlns:xlink="http://www.w3.org/1999/xlink"
  version="1.1"
  width="43.180000cm" height="27.940000cm" viewBox="0 0 431800000 279400000">
<title>SVG Picture created as amp ctrl-User_StiffenerOutline.svg date 2023/02/13 10:26:07 </title>
  <desc>Picture generated by PCBNEW </desc>
<g style="fill:#000000; fill-opacity:1.000000;stroke:#000000; stroke-opacity:1.000000;
stroke-linecap:round; stroke-linejoin:round;"
 transform="translate(0 0) scale(1 1)">
</g>
<g style="fill:#000000; fill-opacity:0.0; 
stroke:#000000; stroke-width:0.000000; stroke-opacity:1; 
stroke-linecap:round; stroke-linejoin:round;">
</g>
<g style="fill:#000000; fill-opacity:0.0; 
stroke:#000000; stroke-width:100000.000000; stroke-opacity:1; 
stroke-linecap:round; stroke-linejoin:round;">
<path d="M309250000.000000 48750000.000000 A2000000.000000 2000000.000000 0.0 0 0 307250000.000000 50750000.000000" />
<path d="M99750000 48500000
L88750000 48500000
" />
<path d="M371750000 133500000
L371750000 58000000
" />
<path d="M60000000.000000 161500000.000000 A2000000.000000 2000000.000000 0.0 0 0 62000000.000000 163500000.000000" />
<path d="M380500000.000000 92250000.000000 A2000000.000000 2000000.000000 0.0 0 0 378500000.000000 94250000.000000" />
<path d="M233750000.000000 154250000.000000 A3250000.000000 3250000.000000 0.0 0 0 240250000.000000 154250000.000000" />
<path d="M175249999.984289 66750000.141397 A1131923.000000 1131923.000000 0.0 0 0 174000000.141397 67750000.015711" />
<path d="M307250000 66750000
L307250000 50750000
" />
<circle cx="171000000.000000" cy="103500000.000000" r="1850000.000000" /> 
<path d="M175250000 66750000
L175250000 50750000
" />
<path d="M391750000.000000 161500000.000000 A2000000.000000 2000000.000000 0.0 0 0 389750000.000000 159500000.000000" />
<path d="M88750000.000000 48500000.000000 A2000000.000000 2000000.000000 0.0 0 0 86750000.000000 50500000.000000" />
<path d="M308000000 135500000
L369750000 135500000
" />
<circle cx="171000000.000000" cy="52700000.000000" r="1850000.000000" /> 
<path d="M60000000 124000000
L60000000 108250000
" />
<path d="M306000000.000000 133500000.000000 A2000000.000000 2000000.000000 0.0 0 0 308000000.000000 135500000.000000" />
<path d="M389750000.000000 163500000.000000 A2000000.000000 2000000.000000 0.0 0 0 391750000.000000 161500000.000000" />
<path d="M391750000.000000 45500000.000000 A2000000.000000 2000000.000000 0.0 0 0 389750000.000000 43500000.000000" />
<circle cx="77000000.000000" cy="154250000.000000" r="1250000.000000" /> 
<path d="M122500000 135500000
L164500000 135500000
" />
<path d="M369750000.000000 135500000.000000 A2000000.000000 2000000.000000 0.0 0 0 371750000.000000 133500000.000000" />
<path d="M369000000 56000000
L369750000 56000000
" />
<path d="M112250000 144000000
L92250000 144000000
" />
<path d="M85250000 108250000
L85250000 128000000
" />
<path d="M389750000 163500000
L367750000 163500000
" />
<path d="M110250000.000000 48750000.000000 A2000000.000000 2000000.000000 0.0 0 0 108250000.000000 50750000.000000" />
<path d="M62000000.000000 106250000.000000 A2000000.000000 2000000.000000 0.0 0 0 60000000.000000 108250000.000000" />
<path d="M60750000 124000000
L60000000 124000000
" />
<path d="M78250000 43500000
L389750000 43500000
" />
<path d="M168500000.000000 50750000.000000 A2000000.000000 2000000.000000 0.0 0 0 166500000.000000 48750000.000000" />
<path d="M174000000 67750000
L174000000 133500000
" />
<path d="M242250000.000000 48750000.000000 A2000000.000000 2000000.000000 0.0 0 0 240250000.000000 50750000.000000" />
<path d="M231750000 151750000
L111750000 151750000
" />
<path d="M242250000.000000 151750000.000000 A2000000.000000 2000000.000000 0.0 0 0 240250000.000000 153750000.000000" />
<path d="M62000000 106250000
L83250000 106250000
" />
<circle cx="303000000.000000" cy="52700000.000000" r="1850000.000000" /> 
<path d="M233750000 52750000
L233750000 50750000
" />
<path d="M115500000 142625000
L122500000 135500000
" />
<path d="M306000000 67750000
L306000000 133500000
" />
<path d="M233750000 154250000
L233750000 153750000
" />
<path d="M76250000 55250000
L76250000 45500000
" />
<path d="M83250000.000000 130000000.000000 A2000000.000000 2000000.000000 0.0 0 0 81250000.000000 132000000.000000" />
<path d="M371750000.000000 58000000.000000 A2000000.000000 2000000.000000 0.0 0 0 369750000.000000 56000000.000000" />
<path d="M300500000.000000 50750000.000000 A2000000.000000 2000000.000000 0.0 0 0 298500000.000000 48750000.000000" />
<path d="M378500000 94250000
L378500000 157500000
" />
<path d="M233750000.000000 52750000.000000 A3250000.000000 3250000.000000 0.0 0 0 240250000.000000 52750000.000000" />
<path d="M365750000.000000 153750000.000000 A2000000.000000 2000000.000000 0.0 0 0 363750000.000000 151750000.000000" />
<path d="M166500000 61500000
L166500000 133500000
" />
<path d="M81250000 132000000
L81250000 146000000
" />
<path d="M78250000.000000 43500000.000000 A2000000.000000 2000000.000000 0.0 0 0 76250000.000000 45500000.000000" />
<path d="M108250000 50750000
L108250000 87750000
" />
<circle cx="237000000.000000" cy="52700000.000000" r="1600000.000000" /> 
<path d="M365750000 161500000
L365750000 153750000
" />
<path d="M380500000 159500000
L389750000 159500000
" />
<path d="M307249999.984289 66750000.141397 A1131923.000000 1131923.000000 0.0 0 0 306000000.141397 67750000.015711" />
<path d="M88250000.000000 148000000.000000 A2000000.000000 2000000.000000 0.0 0 0 90250000.000000 146000000.000000" />
<circle cx="105000000.000000" cy="52700000.000000" r="1600000.000000" /> 
<path d="M365750000.000000 50750000.000000 A2000000.000000 2000000.000000 0.0 0 0 363750000.000000 48750000.000000" />
<path d="M176000000 135500000
L296500000 135500000
" />
<path d="M391750000 45500000
L391750000 90250000
" />
<path d="M166500000 48750000
L110250000 48750000
" />
<path d="M363750000 151750000
L308000000 151750000
" />
<path d="M101750000 87750000
L101750000 50500000
" />
<circle cx="237000000.000000" cy="154300000.000000" r="1600000.000000" /> 
<path d="M83250000.000000 130000000.000000 A2000000.000000 2000000.000000 0.0 0 0 85250000.000000 128000000.000000" />
<path d="M363750000 48750000
L309250000 48750000
" />
<circle cx="369000000.000000" cy="154300000.000000" r="1600000.000000" /> 
<path d="M233750000.000000 50750000.000000 A2000000.000000 2000000.000000 0.0 0 0 231750000.000000 48750000.000000" />
<path d="M174000000.000000 133500000.000000 A2000000.000000 2000000.000000 0.0 0 0 176000000.000000 135500000.000000" />
<path d="M365750000.000000 161500000.000000 A2000000.000000 2000000.000000 0.0 0 0 367750000.000000 163500000.000000" />
<path d="M85250000.000000 108250000.000000 A2000000.000000 2000000.000000 0.0 0 0 83250000.000000 106250000.000000" />
<path d="M233750000.000000 153750000.000000 A2000000.000000 2000000.000000 0.0 0 0 231750000.000000 151750000.000000" />
<path d="M166500000.000000 61500000.000000 A2000000.000000 2000000.000000 0.0 0 0 168500000.000000 59500000.000000" />
<path d="M298500000 48750000
L242250000 48750000
" />
<path d="M112249999.484989 144000023.409355 A4305565.000000 4305565.000000 0.0 0 0 115500000.138654 142625000.128731" />
<path d="M83250000 148000000
L88250000 148000000
" />
<path d="M298500000.000000 61500000.000000 A2000000.000000 2000000.000000 0.0 0 0 300500000.000000 59500000.000000" />
<path d="M60000000 145000000
L60750000 145000000
" />
<path d="M86750000 50500000
L86750000 55250000
" />
<path d="M231750000 48750000
L177250000 48750000
" />
<path d="M389750000 92250000
L380500000 92250000
" />
<path d="M107750000 163500000
L62000000 163500000
" />
<path d="M101750000.000000 50500000.000000 A2000000.000000 2000000.000000 0.0 0 0 99750000.000000 48500000.000000" />
<circle cx="105000000.000000" cy="154250000.000000" r="1600000.000000" /> 
<path d="M240250000 153750000
L240250000 154250000
" />
<path d="M240250000 50750000
L240250000 52750000
" />
<path d="M84750000 57250000
L78250000 57250000
" />
<path d="M107750000.000000 163500000.000000 A2000000.000000 2000000.000000 0.0 0 0 109750000.000000 161500000.000000" />
<path d="M109750000 153750000
L109750000 161500000
" />
<path d="M101750000.000000 87750000.000000 A3250000.000000 3250000.000000 0.0 0 0 108250000.000000 87750000.000000" />
<circle cx="369000000.000000" cy="52700000.000000" r="1600000.000000" /> 
<path d="M60750000.000000 145000000.000000 A2000000.000000 2000000.000000 0.0 0 0 62750000.000000 143000000.000000" />
<path d="M296500000.000000 135500000.000000 A2000000.000000 2000000.000000 0.0 0 0 298500000.000000 133500000.000000" />
<path d="M92250000.000000 144000000.000000 A2000000.000000 2000000.000000 0.0 0 0 90250000.000000 146000000.000000" />
<path d="M81250000.000000 146000000.000000 A2000000.000000 2000000.000000 0.0 0 0 83250000.000000 148000000.000000" />
<path d="M365750000.000000 52750000.000000 A3250000.000000 3250000.000000 0.0 0 0 369000000.000000 56000000.000000" />
<path d="M378500000.000000 157500000.000000 A2000000.000000 2000000.000000 0.0 0 0 380500000.000000 159500000.000000" />
<path d="M62750000.000000 126000000.000000 A2000000.000000 2000000.000000 0.0 0 0 60750000.000000 124000000.000000" />
<path d="M177250000.000000 48750000.000000 A2000000.000000 2000000.000000 0.0 0 0 175250000.000000 50750000.000000" />
<path d="M164500000.000000 135500000.000000 A2000000.000000 2000000.000000 0.0 0 0 166500000.000000 133500000.000000" />
<path d="M389750000.000000 92250000.000000 A2000000.000000 2000000.000000 0.0 0 0 391750000.000000 90250000.000000" />
<path d="M111750000.000000 151750000.000000 A2000000.000000 2000000.000000 0.0 0 0 109750000.000000 153750000.000000" />
<path d="M298500000 61500000
L298500000 133500000
" />
<path d="M76250000.000000 55250000.000000 A2000000.000000 2000000.000000 0.0 0 0 78250000.000000 57250000.000000" />
<path d="M300500000 50750000
L300500000 59500000
" />
<path d="M62750000 143000000
L62750000 126000000
" />
<path d="M84750000.000000 57250000.000000 A2000000.000000 2000000.000000 0.0 0 0 86750000.000000 55250000.000000" />
<path d="M308000000 151750000
L242250000 151750000
" />
<path d="M365750000 50750000
L365750000 52750000
" />
<path d="M60000000 161500000
L60000000 145000000
" />
<circle cx="303000000.000000" cy="103500000.000000" r="1850000.000000" /> 
<path d="M168500000 50750000
L168500000 59500000
" />
</g>
<g style="fill:#000000; fill-opacity:0.0; 
stroke:#000000; stroke-width:150000.000000; stroke-opacity:1; 
stroke-linecap:round; stroke-linejoin:round;">
<text x="77500000.000000" y="152000000.000000"
textLength="8814048.000000" font-size="1333333.000000" lengthAdjust="spacingAndGlyphs"
text-anchor="middle" opacity="0">Tap M3x0.5</text>
<g class="stroked-text"><desc>Tap M3x0.5</desc>
<path d="M73285714 150952380
L73857142 150952380
" />
<path d="M73571428 151952380
L73571428 150952380
" />
<path d="M74619047 151952380
L74619047 151428571
L74571428 151333333
L74476190 151285714
L74285714 151285714
L74190476 151333333
" />
<path d="M74619047 151904761
L74523809 151952380
L74285714 151952380
L74190476 151904761
L74142857 151809523
L74142857 151714285
L74190476 151619047
L74285714 151571428
L74523809 151571428
L74619047 151523809
" />
<path d="M75095238 151285714
L75095238 152285714
" />
<path d="M75095238 151333333
L75190476 151285714
L75380952 151285714
L75476190 151333333
L75523809 151380952
L75571428 151476190
L75571428 151761904
L75523809 151857142
L75476190 151904761
L75380952 151952380
L75190476 151952380
L75095238 151904761
" />
<path d="M76761904 151952380
L76761904 150952380
L77095238 151666666
L77428571 150952380
L77428571 151952380
" />
<path d="M77809523 150952380
L78428571 150952380
L78095238 151333333
L78238095 151333333
L78333333 151380952
L78380952 151428571
L78428571 151523809
L78428571 151761904
L78380952 151857142
L78333333 151904761
L78238095 151952380
L77952380 151952380
L77857142 151904761
L77809523 151857142
" />
<path d="M78761904 151952380
L79285714 151285714
" />
<path d="M78761904 151285714
L79285714 151952380
" />
<path d="M79857142 150952380
L79952380 150952380
L80047619 151000000
L80095238 151047619
L80142857 151142857
L80190476 151333333
L80190476 151571428
L80142857 151761904
L80095238 151857142
L80047619 151904761
L79952380 151952380
L79857142 151952380
L79761904 151904761
L79714285 151857142
L79666666 151761904
L79619047 151571428
L79619047 151333333
L79666666 151142857
L79714285 151047619
L79761904 151000000
L79857142 150952380
" />
<path d="M80619047 151857142
L80666666 151904761
L80619047 151952380
L80571428 151904761
L80619047 151857142
L80619047 151952380
" />
<path d="M81571428 150952380
L81095238 150952380
L81047619 151428571
L81095238 151380952
L81190476 151333333
L81428571 151333333
L81523809 151380952
L81571428 151428571
L81619047 151523809
L81619047 151761904
L81571428 151857142
L81523809 151904761
L81428571 151952380
L81190476 151952380
L81095238 151904761
L81047619 151857142
" />
</g><g >
</g>
<g >
</g>
<g >
</g>
<g >
</g>
<g >
</g>
<g >
</g>
<g >
</g>
<g >
</g>
<g >
</g>
<g >
</g>
<g >
</g>
<g >
</g>
<g >
</g>
<g >
</g>
<g >
</g>
<g >
</g>
<g >
</g>
<g >
</g>
<g >
</g>
<g >
</g>
<g >
</g>
<g >
</g>
<g >
</g>
<g >
</g>
<g >
</g>
<g >
</g>
<g >
</g>
<g >
</g>
<g >
</g>
<g >
</g>
<g >
</g>
<g >
</g>
<g >
</g>
<g >
</g>
<g >
</g>
<g >
</g>
<g >
</g>
<g >
</g>
<g >
</g>
<g >
</g>
<g >
</g>
<g >
</g>
<g >
</g>
<g >
</g>
<g >
</g>
<g >
</g>
<g >
</g>
<g >
</g>
<g >
</g>
<g >
</g>
<g >
</g>
<g >
</g>
<g >
</g>
<g >
</g>
<g >
</g>
<g >
</g>
<g >
</g>
<g >
</g>
<g >
</g>
<g >
</g>
<g >
</g>
<g >
</g>
<g >
</g>
<g >
</g>
<g >
</g>
<g >
</g>
<g >
</g>
<g >
</g>
<g >
</g>
<g >
</g>
<g >
</g>
<g >
</g>
<g >
</g>
<g >
</g>
<g >
</g>
<g >
</g>
<g >
</g>
<g >
</g>
<g >
</g>
<g >
</g>
<g >
</g>
<g >
</g>
<g >
</g>
<g >
</g>
<g >
</g>
<g >
</g>
<g >
</g>
<g >
</g>
<g >
</g>
<g >
</g>
<g >
</g>
<g >
</g>
<g >
</g>
<g >
</g>
<g >
</g>
<g >
</g>
<g >
</g>
<g >
</g>
<g >
</g>
<g >
</g>
<g >
</g>
<g >
</g>
<g >
</g>
<g >
</g>
<g >
</g>
<g >
</g>
<g >
</g>
<g >
</g>
<g >
</g>
<g >
</g>
<g >
</g>
<g >
</g>
<g >
</g>
<g >
</g>
<g >
</g>
<g >
</g>
<g >
</g>
<g >
</g>
<g >
</g>
<g >
</g>
<g >
</g>
<g >
</g>
<g >
</g>
<g >
</g>
<g >
</g>
<g >
</g>
<g >
</g>
<g >
</g>
<g >
</g>
<g >
</g>
<g >
</g>
<g >
</g>
<g >
</g>
<g >
</g>
<g >
</g>
<g >
</g>
<g >
</g>
<g >
</g>
<g >
</g>
<g >
</g>
<g >
</g>
<g >
</g>
<g >
</g>
<g >
</g>
<g >
</g>
<g >
</g>
<g >
</g>
<g >
</g>
<g >
</g>
<g >
</g>
<g >
</g>
<g >
</g>
<g >
</g>
<g >
</g>
<g >
</g>
<g >
</g>
<g >
</g>
<g >
</g>
<g >
</g>
<g >
</g>
<g >
</g>
<g >
</g>
<g >
</g>
<g >
</g>
<g >
</g>
<g >
</g>
<g >
</g>
<g >
</g>
<g >
</g>
<g >
</g>
<g >
</g>
<g >
</g>
<g >
</g>
<g >
</g>
<g >
</g>
<g >
</g>
<g >
</g>
<g >
</g>
<g >
</g>
<g >
</g>
<g >
</g>
<g >
</g>
<g >
</g>
<g >
</g>
<g >
</g>
<g >
</g>
<g >
</g>
<g >
</g>
<g >
</g>
<g >
</g>
<g >
</g>
<g >
</g>
<g >
</g>
<g >
</g>
<g >
</g>
<g >
</g>
<g >
</g>
<g >
</g>
<g >
</g>
<g >
</g>
<g >
</g>
<g >
</g>
<g >
</g>
<g >
</g>
<g >
</g>
<g >
</g>
<g >
</g>
<g >
</g>
<g >
</g>
<g >
</g>
<g >
</g>
<g >
</g>
<g >
</g>
<g >
</g>
<g >
</g>
<g >
</g>
<g >
</g>
<g >
</g>
<g >
</g>
<g >
</g>
<g >
</g>
<g >
</g>
<g >
</g>
<g >
</g>
<g >
</g>
<g >
</g>
<g >
</g>
<g >
</g>
<g >
</g>
<g >
</g>
<g >
</g>
<g >
</g>
<g >
</g>
<g >
</g>
<g >
</g>
<g >
</g>
<g >
</g>
<g >
</g>
<g >
</g>
<g >
</g>
<g >
</g>
<g >
</g>
<g >
</g>
<g >
</g>
<g >
</g>
<g >
</g>
<g >
</g>
<g >
</g>
<g >
</g>
<g >
</g>
<g >
</g>
<g >
</g>
<g >
</g>
<g >
</g>
<g >
</g>
<g >
</g>
<g >
</g>
<g >
</g>
<g >
</g>
<g >
</g>
<g >
</g>
<g >
</g>
<g >
</g>
<g >
</g>
<g >
</g>
<g >
</g>
<g >
</g>
<g >
</g>
<g >
</g>
<g >
</g>
<g >
</g>
<g >
</g>
<g >
</g>
<g >
</g>
<g >
</g>
<g >
</g>
<g >
</g>
<g >
</g>
<g >
</g>
<g >
</g>
<g >
</g>
<g >
</g>
<g >
</g>
<g >
</g>
<g >
</g>
<g >
</g>
<g >
</g>
<g >
</g>
<g >
</g>
<g >
</g>
<g >
</g>
<g >
</g>
<g >
</g>
<g >
</g>
<g >
</g>
<g >
</g>
<g >
</g>
<g >
</g>
<g >
</g>
<g >
</g>
<g >
</g>
<g >
</g>
<g >
</g>
<g >
</g>
<g >
</g>
<g >
</g>
<g >
</g>
<g >
</g>
<g >
</g>
<g >
</g>
<g >
</g>
<g >
</g>
<g >
</g>
<g >
</g>
<g >
</g>
<g >
</g>
<g >
</g>
<g >
</g>
<g >
</g>
<g >
</g>
<g >
</g>
<g >
</g>
<g >
</g>
<g >
</g>
<g >
</g>
<g >
</g>
<g >
</g>
<g >
</g>
<g >
</g>
<g >
</g>
<g >
</g>
<g >
</g>
<g >
</g>
<g >
</g>
<g >
</g>
<g >
</g>
<g >
</g>
<g >
</g>
<g >
</g>
<g >
</g>
<g >
</g>
<g >
</g>
<g >
</g>
<g >
</g>
<g >
</g>
<g >
</g>
<g >
</g>
<g >
</g>
<g >
</g>
<g >
</g>
<g >
</g>
<g >
</g>
<g >
</g>
<g >
</g>
<g >
</g>
<g >
</g>
<g >
</g>
<g >
</g>
<g >
</g>
<g >
</g>
<g >
</g>
<g >
</g>
<g >
</g>
<g >
</g>
<g >
</g>
<g >
</g>
<g >
</g>
<g >
</g>
<g >
</g>
<g >
</g>
<g >
</g>
<g >
</g>
<g >
</g>
<g >
</g>
<g >
</g>
<g >
</g>
<g >
</g>
<g >
</g>
<g >
</g>
<g >
</g>
<g >
</g>
<g >
</g>
<g >
</g>
<g >
</g>
<g >
</g>
<g >
</g>
<g >
</g>
<g >
</g>
<g >
</g>
<g >
</g>
<g >
</g>
<g >
</g>
<g >
</g>
<g >
</g>
<g >
</g>
<g >
</g>
<g >
</g>
<g >
</g>
<g >
</g>
<g >
</g>
<g >
</g>
<g >
</g>
<g >
</g>
<g >
</g>
<g >
</g>
<g >
</g>
<g >
</g>
<g >
</g>
<g >
</g>
<g >
</g>
<g >
</g>
<g >
</g>
<g >
</g>
<g >
</g>
<g >
</g>
<g >
</g>
<g >
</g>
<g >
</g>
<g >
</g>
<g >
</g>
<g >
</g>
<g >
</g>
<g >
</g>
<g >
</g>
<g >
</g>
<g >
</g>
<g >
</g>
<g >
</g>
<g >
</g>
<g >
</g>
<g >
</g>
<g >
</g>
<g >
</g>
<g >
</g>
<g >
</g>
<g >
</g>
<g >
</g>
<g >
</g>
<g >
</g>
<g >
</g>
<g >
</g>
<g >
</g>
<g >
</g>
<g >
</g>
<g >
</g>
<g >
</g>
<g >
</g>
<g >
</g>
<g >
</g>
<g >
</g>
<g >
</g>
<g >
</g>
<g >
</g>
<g >
</g>
<g >
</g>
<g >
</g>
<g >
</g>
<g >
</g>
<g >
</g>
<g >
</g>
<g >
</g>
<g >
</g>
<g >
</g>
<g >
</g>
<g >
</g>
<g >
</g>
<g >
</g>
<g >
</g>
<g >
</g>
<g >
</g>
<g >
</g>
<g >
</g>
<g >
</g>
<g >
</g>
<g >
</g>
<g >
</g>
<g >
</g>
<g >
</g>
<g >
</g>
<g >
</g>
<g >
</g>
<g >
</g>
<g >
</g>
<g >
</g>
<g >
</g>
<g >
</g>
<g >
</g>
<g >
</g>
<g >
</g>
<g >
</g>
<g >
</g>
<g >
</g>
<g >
</g>
<g >
</g>
<g >
</g>
<g >
</g>
<g >
</g>
<g >
</g>
<g >
</g>
<g >
</g>
<g >
</g>
<g >
</g>
<g >
</g>
<g >
</g>
<g >
</g>
<g >
</g>
<g >
</g>
<g >
</g>
<g >
</g>
<g >
</g>
<g >
</g>
<g >
</g>
<g >
</g>
<g >
</g>
<g >
</g>
<g >
</g>
<g >
</g>
<g >
</g>
<g >
</g>
<g >
</g>
<g >
</g>
<g >
</g>
<g >
</g>
<g >
</g>
<g >
</g>
<g >
</g>
<g >
</g>
<g >
</g>
<g >
</g>
<g >
</g>
<g >
</g>
<g >
</g>
<g >
</g>
<g >
</g>
<g >
</g>
<g >
</g>
<g >
</g>
<g >
</g>
<g >
</g>
<g >
</g>
<g >
</g>
<g >
</g>
<g >
</g>
<g >
</g>
<g >
</g>
<g >
</g>
<g >
</g>
<g >
</g>
<g >
</g>
<g >
</g>
<g >
</g>
<g >
</g>
<g >
</g>
<g >
</g>
<g >
</g>
<g >
</g>
<g >
</g>
<g >
</g>
<g >
</g>
<g >
</g>
<g >
</g>
<g >
</g>
<g >
</g>
<g >
</g>
<g >
</g>
<g >
</g>
<g >
</g>
<g >
</g>
<g >
</g>
<g >
</g>
<g >
</g>
<g >
</g>
<g >
</g>
<g >
</g>
<g >
</g>
<g >
</g>
<g >
</g>
<g >
</g>
<g >
</g>
<g >
</g>
<g >
</g>
<g >
</g>
<g >
</g>
<g >
</g>
<g >
</g>
<g >
</g>
<g >
</g>
<g >
</g>
<g >
</g>
<g >
</g>
<g >
</g>
<g >
</g>
<g >
</g>
<g >
</g>
<g >
</g>
<g >
</g>
<g >
</g>
<g >
</g>
<g >
</g>
<g >
</g>
<g >
</g>
<g >
</g>
<g >
</g>
<g >
</g>
<g >
</g>
<g >
</g>
<g >
</g>
<g >
</g>
<g >
</g>
<g >
</g>
<g >
</g>
<g >
</g>
<g >
</g>
<g >
</g>
<g >
</g>
<g >
</g>
<g >
</g>
<g >
</g>
<g >
</g>
<g >
</g>
<g >
</g>
<g >
</g>
<g >
</g>
<g >
</g>
<g >
</g>
<g >
</g>
<g >
</g>
<g >
</g>
<g >
</g>
<g >
</g>
<g >
</g>
<g >
</g>
<g >
</g>
<g >
</g>
<g >
</g>
<g >
</g>
<g >
</g>
<g >
</g>
<g >
</g>
<g >
</g>
<g >
</g>
<g >
</g>
<g >
</g>
<g >
</g>
<g >
</g>
<g >
</g>
<g >
</g>
<g >
</g>
<g >
</g>
<g >
</g>
<g >
</g>
<g >
</g>
<g >
</g>
<g >
</g>
<g >
</g>
<g >
</g>
<g >
</g>
<g >
</g>
<g >
</g>
<g >
</g>
<g >
</g>
<g >
</g>
<g >
</g>
<g >
</g>
<g >
</g>
<g >
</g>
<g >
</g>
<g >
</g>
<g >
</g>
<g >
</g>
<g >
</g>
<g >
</g>
<g >
</g>
<g >
</g>
<g >
</g>
<g >
</g>
<g >
</g>
<g >
</g>
<g >
</g>
<g >
</g>
<g >
</g>
<g >
</g>
<g >
</g>
<g >
</g>
<g >
</g>
<g >
</g>
<g >
</g>
<g >
</g>
<g >
</g>
<g >
</g>
<g >
</g>
<g >
</g>
<g >
</g>
<g >
</g>
<g >
</g>
<g >
</g>
<g >
</g>
<g >
</g>
<g >
</g>
<g >
</g>
<g >
</g>
<g >
</g>
<g >
</g>
<g >
</g>
<g >
</g>
<g >
</g>
<g >
</g>
<g >
</g>
<g >
</g>
<g >
</g>
<g >
</g>
<g >
</g>
<g >
</g>
<g >
</g>
<g >
</g>
<g >
</g>
<g >
</g>
<g >
</g>
<g >
</g>
<g >
</g>
<g >
</g>
<g >
</g>
<g >
</g>
<g >
</g>
<g >
</g>
<g >
</g>
<g >
</g>
<g >
</g>
<g >
</g>
<g >
</g>
<g >
</g>
<g >
</g>
<g >
</g>
<g >
</g>
<g >
</g>
<g >
</g>
<g >
</g>
<g >
</g>
<g >
</g>
<g >
</g>
<g >
</g>
<g >
</g>
<g >
</g>
<g >
</g>
<g >
</g>
<g >
</g>
<g >
</g>
<g >
</g>
<g >
</g>
<g >
</g>
<g >
</g>
<g >
</g>
<g >
</g>
<g >
</g>
<g >
</g>
<g >
</g>
<g >
</g>
<g >
</g>
<g >
</g>
<g >
</g>
<g >
</g>
<g >
</g>
<g >
</g>
<g >
</g>
<g >
</g>
<g >
</g>
<g >
</g>
<g >
</g>
<g >
</g>
<g >
</g>
<g >
</g>
<g >
</g>
<g >
</g>
<g >
</g>
<g >
</g>
<g >
</g>
<g >
</g>
<g >
</g>
<g >
</g>
<g >
</g>
<g >
</g>
<g >
</g>
<g >
</g>
<g >
</g>
<g >
</g>
<g >
</g>
<g >
</g>
<g >
</g>
<g >
</g>
<g >
</g>
<g >
</g>
<g >
</g>
<g >
</g>
<g >
</g>
<g >
</g>
<g >
</g>
<g >
</g>
<g >
</g>
<g >
</g>
<g >
</g>
<g >
</g>
<g >
</g>
<g >
</g>
<g >
</g>
<g >
</g>
<g >
</g>
<g >
</g>
<g >
</g>
<g >
</g>
<g >
</g>
<g >
</g>
<g >
</g>
<g >
</g>
<g >
</g>
<g >
</g>
<g >
</g>
<g >
</g>
<g >
</g>
<g >
</g>
<g >
</g>
<g >
</g>
<g >
</g>
<g >
</g>
<g >
</g>
<g >
</g>
<g >
</g>
<g >
</g>
<g >
</g>
<g >
</g>
<g >
</g>
<g >
</g>
<g >
</g>
<g >
</g>
<g >
</g>
<g >
</g>
<g >
</g>
<g >
</g>
<g >
</g>
<g >
</g>
<g >
</g>
<g >
</g>
<g >
</g>
<g >
</g>
<g >
</g>
<g >
</g>
<g >
</g>
<g >
</g>
<g >
</g>
<g >
</g>
<g >
</g>
<g >
</g>
<g >
</g>
<g >
</g>
<g >
</g>
<g >
</g>
<g >
</g>
<g >
</g>
<g >
</g>
<g >
</g>
<g >
</g>
<g >
</g>
<g >
</g>
<g >
</g>
<g >
</g>
<g >
</g>
<g >
</g>
<g >
</g>
<g >
</g>
<g >
</g>
<g >
</g>
<g >
</g>
<g >
</g>
<g >
</g>
<g >
</g>
<g >
</g>
<g >
</g>
<g >
</g>
<g >
</g>
<g >
</g>
<g >
</g>
<g >
</g>
<g >
</g>
<g >
</g>
<g >
</g>
<g >
</g>
<g >
</g>
<g >
</g>
<g >
</g>
<g >
</g>
<g >
</g>
<g >
</g>
<g >
</g>
<g >
</g>
<g >
</g>
<g >
</g>
<g >
</g>
<g >
</g>
<g >
</g>
<g >
</g>
<g >
</g>
<g >
</g>
<g >
</g>
<g >
</g>
<g >
</g>
<g >
</g>
<g >
</g>
<g >
</g>
<g >
</g>
<g >
</g>
<g >
</g>
<g >
</g>
<g >
</g>
<g >
</g>
<g >
</g>
<g >
</g>
<g >
</g>
<g >
</g>
<g >
</g>
<g >
</g>
<g >
</g>
<g >
</g>
<g >
</g>
<g >
</g>
<g >
</g>
<g >
</g>
<g >
</g>
<g >
</g>
<g >
</g>
<g >
</g>
<g >
</g>
<g >
</g>
<g >
</g>
<g >
</g>
<g >
</g>
<g >
</g>
<g >
</g>
<g >
</g>
<g >
</g>
<g >
</g>
<g >
</g>
<g >
</g>
<g >
</g>
<g >
</g>
<g >
</g>
<g >
</g>
<g >
</g>
<g >
</g>
<g >
</g>
<g >
</g>
<g >
</g>
<g >
</g>
<g >
</g>
<g >
</g>
<g >
</g>
<g >
</g>
<g >
</g>
<g >
</g>
<g >
</g>
<g >
</g>
<g >
</g>
<g >
</g>
<g >
</g>
<g >
</g>
<g >
</g>
<g >
</g>
<g >
</g>
<g >
</g>
<g >
</g>
<g >
</g>
<g >
</g>
<g >
</g>
<g >
</g>
<g >
</g>
<g >
</g>
<g >
</g>
<g >
</g>
<g >
</g>
<g >
</g>
<g >
</g>
<g >
</g>
<g >
</g>
<g >
</g>
<g >
</g>
<g >
</g>
<g >
</g>
<g >
</g>
<g >
</g>
<g >
</g>
<g >
</g>
<g >
</g>
<g >
</g>
<g >
</g>
<g >
</g>
<g >
</g>
<g >
</g>
<g >
</g>
<g >
</g>
<g >
</g>
<g >
</g>
<g >
</g>
<g >
</g>
<g >
</g>
<g >
</g>
<g >
</g>
<g >
</g>
<g >
</g>
<g >
</g>
<g >
</g>
<g >
</g>
<g >
</g>
<g >
</g>
<g >
</g>
<g >
</g>
<g >
</g>
<g >
</g>
<g >
</g>
<g >
</g>
<g >
</g>
<g >
</g>
<g >
</g>
<g >
</g>
<g >
</g>
<g >
</g>
<g >
</g>
<g >
</g>
<g >
</g>
<g >
</g>
<g >
</g>
<g >
</g>
<g >
</g>
<g >
</g>
<g >
</g>
<g >
</g>
<g >
</g>
<g >
</g>
<g >
</g>
<g >
</g>
<g >
</g>
<g >
</g>
<g >
</g>
<g >
</g>
<g >
</g>
<g >
</g>
<g >
</g>
<g >
</g>
<g >
</g>
<g >
</g>
<g >
</g>
<g >
</g>
<g >
</g>
<g >
</g>
<g >
</g>
<g >
</g>
<g >
</g>
<g >
</g>
<g >
</g>
<g >
</g>
<g >
</g>
<g >
</g>
<g >
</g>
<g >
</g>
<g >
</g>
<g >
</g>
<g >
</g>
<g >
</g>
<g >
</g>
<g >
</g>
<g >
</g>
<g >
</g>
<g >
</g>
<g >
</g>
<g >
</g>
<g >
</g>
<g >
</g>
<g >
</g>
<g >
</g>
<g >
</g>
<g >
</g>
<g >
</g>
<g >
</g>
<g >
</g>
<g >
</g>
<g >
</g>
<g >
</g>
<g >
</g>
<g >
</g>
<g >
</g>
<g >
</g>
<g >
</g>
<g >
</g>
<g >
</g>
<g >
</g>
<g >
</g>
<g >
</g>
<g >
</g>
<g >
</g>
<g >
</g>
<g >
</g>
<g >
</g>
<g >
</g>
<g >
</g>
<g >
</g>
<g >
</g>
<g >
</g>
<g >
</g>
<g >
</g>
<g >
</g>
<g >
</g>
<g >
</g>
<g >
</g>
<g >
</g>
<g >
</g>
<g >
</g>
<g >
</g>
<g >
</g>
<g >
</g>
<g >
</g>
<g >
</g>
<g >
</g>
<g >
</g>
<g >
</g>
<g >
</g>
<g >
</g>
<g >
</g>
<g >
</g>
<g >
</g>
<g >
</g>
<g >
</g>
<g >
</g>
<g >
</g>
<g >
</g>
<g >
</g>
<g >
</g>
<g >
</g>
<g >
</g>
<g >
</g>
<g >
</g>
<g >
</g>
<g >
</g>
<g >
</g>
<g >
</g>
<g >
</g>
<g >
</g>
<g >
</g>
<g >
</g>
<g >
</g>
<g >
</g>
<g >
</g>
<g >
</g>
<g >
</g>
<g >
</g>
<g >
</g>
<g >
</g>
<g >
</g>
<g >
</g>
<g >
</g>
<g >
</g>
<g >
</g>
<g >
</g>
<g >
</g>
<g >
</g>
<g >
</g>
<g >
</g>
<g >
</g>
<g >
</g>
<g >
</g>
<g >
</g>
<g >
</g>
<g >
</g>
<g >
</g>
<g >
</g>
<g >
</g>
<g >
</g>
<g >
</g>
<g >
</g>
<g >
</g>
<g >
</g>
<g >
</g>
<g >
</g>
<g >
</g>
<g >
</g>
<g >
</g>
<g >
</g>
<g >
</g>
<g >
</g>
<g >
</g>
<g >
</g>
<g >
</g>
<g >
</g>
<g >
</g>
<g >
</g>
<g >
</g>
<g >
</g>
<g >
</g>
<g >
</g>
<g >
</g>
<g >
</g>
<g >
</g>
<g >
</g>
<g >
</g>
<g >
</g>
<g >
</g>
<g >
</g>
<g >
</g>
<g >
</g>
<g >
</g>
<g >
</g>
</g> 
</svg>
