  0
SECTION
  2
HEADER
  9
$ANGBASE
  50
0.0
  9
$ANGDIR
  70
1
  9
$MEASUREMENT
  70
1
  0
ENDSEC
  0
SECTION
  2
TABLES
  0
TABLE
  2
LTYPE
  70
4
  0
LTYPE
  5
40F
  2
CONTINUOUS
  70
0
  3
Solid line
  72
65
  73
0
  40
0.0
  0
LTYPE
  5
410
  2
DASHDOT
 70
0
  3
Dash Dot ____ _ ____ _
 72
65
 73
4
 40
2.0
 49
1.25
 49
-0.25
 49
0.25
 49
-0.25
  0
LTYPE
  5
411
  2
DASHED
 70
0
  3
Dashed __ __ __ __ __
 72
65
 73
2
 40
0.75
 49
0.5
 49
-0.25
  0
LTYPE
  5
43B
  2
DOTTED
 70
0
  3
Dotted .  .  .  .
 72
65
 73
2
 40
0.2
 49
0.0
 49
-0.2
  0
ENDTAB
  0
TABLE
  2
STYLE
  70
4
  0
STYLE
  2
KICAD
  70
0
  40
0
  41
1
  42
1
  50
0
  71
0
  3
isocp.shx
  0
STYLE
  2
KICADB
  70
0
  40
0
  41
1
  42
1
  50
0
  71
0
  3
isocp.shx
  0
STYLE
  2
KICADI
  70
0
  40
0
  41
1
  42
1
  50
15
  71
0
  3
isocp.shx
  0
STYLE
  2
KICADBI
  70
0
  40
0
  41
1
  42
1
  50
15
  71
0
  3
isocp.shx
  0
ENDTAB
  0
TABLE
  2
LAYER
  70
1
  0
LAYER
  2
BLACK
  70
0
  62
7
  6
CONTINUOUS
  0
ENDTAB
  0
ENDSEC
  0
SECTION
  2
ENTITIES
0
ARC
8
BLACK
10
309.25
20
-50.75
40
2
50
90
51
180
0
LINE
8
BLACK
6
CONTINUOUS
10
99.75
20
-48.5
11
88.75
21
-48.5
0
LINE
8
BLACK
6
CONTINUOUS
10
371.75
20
-133.5
11
371.75
21
-58
0
ARC
8
BLACK
10
62
20
-161.5
40
2
50
-180
51
-90
0
ARC
8
BLACK
10
380.5
20
-94.25
40
2
50
90
51
180
0
ARC
8
BLACK
10
237
20
-154.25
40
3.25
50
-180
51
-0
0
ARC
8
BLACK
10
175.125
20
-67.875
40
1.13192
50
83.6598
51
173.66
0
LINE
8
BLACK
6
CONTINUOUS
10
307.25
20
-66.75
11
307.25
21
-50.75
0
CIRCLE
8
BLACK
10
171
20
-103.5
40
1.85
0
LINE
8
BLACK
6
CONTINUOUS
10
175.25
20
-66.75
11
175.25
21
-50.75
0
ARC
8
BLACK
10
389.75
20
-161.5
40
2
50
-0
51
90
0
ARC
8
BLACK
10
88.75
20
-50.5
40
2
50
90
51
180
0
LINE
8
BLACK
6
CONTINUOUS
10
308
20
-135.5
11
369.75
21
-135.5
0
CIRCLE
8
BLACK
10
171
20
-52.7
40
1.85
0
LINE
8
BLACK
6
CONTINUOUS
10
60
20
-124
11
60
21
-108.25
0
ARC
8
BLACK
10
308
20
-133.5
40
2
50
-180
51
-90
0
ARC
8
BLACK
10
389.75
20
-161.5
40
2
50
-90
51
-0
0
ARC
8
BLACK
10
389.75
20
-45.5
40
2
50
-0
51
90
0
CIRCLE
8
BLACK
10
77
20
-154.25
40
1.25
0
LINE
8
BLACK
6
CONTINUOUS
10
122.5
20
-135.5
11
164.5
21
-135.5
0
ARC
8
BLACK
10
369.75
20
-133.5
40
2
50
-90
51
-0
0
LINE
8
BLACK
6
CONTINUOUS
10
369
20
-56
11
369.75
21
-56
0
LINE
8
BLACK
6
CONTINUOUS
10
112.25
20
-144
11
92.25
21
-144
0
LINE
8
BLACK
6
CONTINUOUS
10
85.25
20
-108.25
11
85.25
21
-128
0
LINE
8
BLACK
6
CONTINUOUS
10
389.75
20
-163.5
11
367.75
21
-163.5
0
ARC
8
BLACK
10
110.25
20
-50.75
40
2
50
90
51
180
0
ARC
8
BLACK
10
62
20
-108.25
40
2
50
90
51
180
0
LINE
8
BLACK
6
CONTINUOUS
10
60.75
20
-124
11
60
21
-124
0
LINE
8
BLACK
6
CONTINUOUS
10
78.25
20
-43.5
11
389.75
21
-43.5
0
ARC
8
BLACK
10
166.5
20
-50.75
40
2
50
-0
51
90
0
LINE
8
BLACK
6
CONTINUOUS
10
174
20
-67.75
11
174
21
-133.5
0
ARC
8
BLACK
10
242.25
20
-50.75
40
2
50
90
51
180
0
LINE
8
BLACK
6
CONTINUOUS
10
231.75
20
-151.75
11
111.75
21
-151.75
0
ARC
8
BLACK
10
242.25
20
-153.75
40
2
50
90
51
180
0
LINE
8
BLACK
6
CONTINUOUS
10
62
20
-106.25
11
83.25
21
-106.25
0
CIRCLE
8
BLACK
10
303
20
-52.7
40
1.85
0
LINE
8
BLACK
6
CONTINUOUS
10
233.75
20
-52.75
11
233.75
21
-50.75
0
LINE
8
BLACK
6
CONTINUOUS
10
115.5
20
-142.625
11
122.5
21
-135.5
0
LINE
8
BLACK
6
CONTINUOUS
10
306
20
-67.75
11
306
21
-133.5
0
LINE
8
BLACK
6
CONTINUOUS
10
233.75
20
-154.25
11
233.75
21
-153.75
0
LINE
8
BLACK
6
CONTINUOUS
10
76.25
20
-55.25
11
76.25
21
-45.5
0
ARC
8
BLACK
10
83.25
20
-132
40
2
50
90
51
180
0
ARC
8
BLACK
10
369.75
20
-58
40
2
50
-0
51
90
0
ARC
8
BLACK
10
298.5
20
-50.75
40
2
50
-0
51
90
0
LINE
8
BLACK
6
CONTINUOUS
10
378.5
20
-94.25
11
378.5
21
-157.5
0
ARC
8
BLACK
10
237
20
-52.75
40
3.25
50
-180
51
-0
0
ARC
8
BLACK
10
363.75
20
-153.75
40
2
50
-0
51
90
0
LINE
8
BLACK
6
CONTINUOUS
10
166.5
20
-61.5
11
166.5
21
-133.5
0
LINE
8
BLACK
6
CONTINUOUS
10
81.25
20
-132
11
81.25
21
-146
0
ARC
8
BLACK
10
78.25
20
-45.5
40
2
50
90
51
180
0
LINE
8
BLACK
6
CONTINUOUS
10
108.25
20
-50.75
11
108.25
21
-87.75
0
CIRCLE
8
BLACK
10
237
20
-52.7
40
1.6
0
LINE
8
BLACK
6
CONTINUOUS
10
365.75
20
-161.5
11
365.75
21
-153.75
0
LINE
8
BLACK
6
CONTINUOUS
10
380.5
20
-159.5
11
389.75
21
-159.5
0
ARC
8
BLACK
10
307.125
20
-67.875
40
1.13192
50
83.6598
51
173.66
0
ARC
8
BLACK
10
88.25
20
-146
40
2
50
-90
51
-0
0
CIRCLE
8
BLACK
10
105
20
-52.7
40
1.6
0
ARC
8
BLACK
10
363.75
20
-50.75
40
2
50
-0
51
90
0
LINE
8
BLACK
6
CONTINUOUS
10
176
20
-135.5
11
296.5
21
-135.5
0
LINE
8
BLACK
6
CONTINUOUS
10
391.75
20
-45.5
11
391.75
21
-90.25
0
LINE
8
BLACK
6
CONTINUOUS
10
166.5
20
-48.75
11
110.25
21
-48.75
0
LINE
8
BLACK
6
CONTINUOUS
10
363.75
20
-151.75
11
308
21
-151.75
0
LINE
8
BLACK
6
CONTINUOUS
10
101.75
20
-87.75
11
101.75
21
-50.5
0
CIRCLE
8
BLACK
10
237
20
-154.3
40
1.6
0
ARC
8
BLACK
10
83.25
20
-128
40
2
50
-90
51
-0
0
LINE
8
BLACK
6
CONTINUOUS
10
363.75
20
-48.75
11
309.25
21
-48.75
0
CIRCLE
8
BLACK
10
369
20
-154.3
40
1.6
0
ARC
8
BLACK
10
231.75
20
-50.75
40
2
50
-0
51
90
0
ARC
8
BLACK
10
176
20
-133.5
40
2
50
-180
51
-90
0
ARC
8
BLACK
10
367.75
20
-161.5
40
2
50
-180
51
-90
0
ARC
8
BLACK
10
83.25
20
-108.25
40
2
50
-0
51
90
0
ARC
8
BLACK
10
231.75
20
-153.75
40
2
50
-0
51
90
0
ARC
8
BLACK
10
166.5
20
-59.5
40
2
50
-90
51
-0
0
LINE
8
BLACK
6
CONTINUOUS
10
298.5
20
-48.75
11
242.25
21
-48.75
0
ARC
8
BLACK
10
112.345
20
-139.695
40
4.30556
50
-91.2603
51
-42.8748
0
LINE
8
BLACK
6
CONTINUOUS
10
83.25
20
-148
11
88.25
21
-148
0
ARC
8
BLACK
10
298.5
20
-59.5
40
2
50
-90
51
-0
0
LINE
8
BLACK
6
CONTINUOUS
10
60
20
-145
11
60.75
21
-145
0
LINE
8
BLACK
6
CONTINUOUS
10
86.75
20
-50.5
11
86.75
21
-55.25
0
LINE
8
BLACK
6
CONTINUOUS
10
231.75
20
-48.75
11
177.25
21
-48.75
0
LINE
8
BLACK
6
CONTINUOUS
10
389.75
20
-92.25
11
380.5
21
-92.25
0
LINE
8
BLACK
6
CONTINUOUS
10
107.75
20
-163.5
11
62
21
-163.5
0
ARC
8
BLACK
10
99.75
20
-50.5
40
2
50
-0
51
90
0
CIRCLE
8
BLACK
10
105
20
-154.25
40
1.6
0
LINE
8
BLACK
6
CONTINUOUS
10
240.25
20
-153.75
11
240.25
21
-154.25
0
LINE
8
BLACK
6
CONTINUOUS
10
240.25
20
-50.75
11
240.25
21
-52.75
0
LINE
8
BLACK
6
CONTINUOUS
10
84.75
20
-57.25
11
78.25
21
-57.25
0
ARC
8
BLACK
10
107.75
20
-161.5
40
2
50
-90
51
-0
0
LINE
8
BLACK
6
CONTINUOUS
10
109.75
20
-153.75
11
109.75
21
-161.5
0
ARC
8
BLACK
10
105
20
-87.75
40
3.25
50
-180
51
-0
0
CIRCLE
8
BLACK
10
369
20
-52.7
40
1.6
0
ARC
8
BLACK
10
60.75
20
-143
40
2
50
-90
51
-0
0
ARC
8
BLACK
10
296.5
20
-133.5
40
2
50
-90
51
-0
0
ARC
8
BLACK
10
92.25
20
-146
40
2
50
90
51
180
0
ARC
8
BLACK
10
83.25
20
-146
40
2
50
-180
51
-90
0
ARC
8
BLACK
10
369
20
-52.75
40
3.25
50
-180
51
-90
0
ARC
8
BLACK
10
380.5
20
-157.5
40
2
50
-180
51
-90
0
ARC
8
BLACK
10
60.75
20
-126
40
2
50
-0
51
90
0
ARC
8
BLACK
10
177.25
20
-50.75
40
2
50
90
51
180
0
ARC
8
BLACK
10
164.5
20
-133.5
40
2
50
-90
51
-0
0
ARC
8
BLACK
10
389.75
20
-90.25
40
2
50
-90
51
-0
0
ARC
8
BLACK
10
111.75
20
-153.75
40
2
50
90
51
180
0
LINE
8
BLACK
6
CONTINUOUS
10
298.5
20
-61.5
11
298.5
21
-133.5
0
ARC
8
BLACK
10
78.25
20
-55.25
40
2
50
-180
51
-90
0
LINE
8
BLACK
6
CONTINUOUS
10
300.5
20
-50.75
11
300.5
21
-59.5
0
LINE
8
BLACK
6
CONTINUOUS
10
62.75
20
-143
11
62.75
21
-126
0
ARC
8
BLACK
10
84.75
20
-55.25
40
2
50
-90
51
-0
0
LINE
8
BLACK
6
CONTINUOUS
10
308
20
-151.75
11
242.25
21
-151.75
0
LINE
8
BLACK
6
CONTINUOUS
10
365.75
20
-50.75
11
365.75
21
-52.75
0
LINE
8
BLACK
6
CONTINUOUS
10
60
20
-161.5
11
60
21
-145
0
CIRCLE
8
BLACK
10
303
20
-103.5
40
1.85
0
LINE
8
BLACK
6
CONTINUOUS
10
168.5
20
-50.75
11
168.5
21
-59.5
  0
TEXT
  7
KICADB
  8
BLACK
  10
77.5
  11
77.5
  20
-151.5
  21
-151.5
  40
1
  41
1
  50
0
  51
0
  71
0
  72
1
  73
2
  1
Tap M3x0.5
  0
ENDSEC
  0
EOF
